<svg width="344" height="510" viewBox="0 0 344 510" fill="none" xmlns="http://www.w3.org/2000/svg">
<path d="M40.8521 310.71C46.8846 283.554 68.2789 262.482 97.052 251.984C102.583 249.012 107.944 236.258 115.377 233.922C116.568 233.548 114.688 236.527 115.377 236.705C117.835 237.34 120.59 237.406 123.304 235.114C128.154 231.018 129.676 219.049 132.626 213.64C148.18 185.111 187.015 196.274 192.218 227.811C195.846 230.058 200.974 232.037 204.923 233.848C208.99 235.712 212.566 240.228 216.757 241.842C220.496 243.283 226.657 242.262 230.424 243.518C247.753 249.294 262.43 256.582 273.937 271.349C276.361 274.463 279.094 278.292 281.301 281.438C292.676 293.88 300.576 307.826 307.853 322.788C328.212 366.705 333.749 415.33 338.717 462.648C338.604 470.927 344.386 493.884 335.835 497.853C336.346 498.356 336.161 499.368 335.212 499.359C313.53 499.151 291.897 500.995 270.551 504.579C260.251 506.309 250.007 508.681 239.516 509.071C217.739 508.928 196.04 505.461 174.291 508.742C148.145 508.742 116.37 508.018 87.2834 506.956C60.0987 505.962 32.7688 508.205 5.9209 503.813C3.79578 503.493 2.758 501.03 3.20343 499.265C6.35333 488.36 7.89957 477.135 9.66705 465.973C9.31503 458.813 9.94476 451.339 12.7322 444.67C20.015 399.652 29.3538 354.928 40.8521 310.71Z" fill="#FAFAFA"/>
<path fill-rule="evenodd" clip-rule="evenodd" d="M187.771 204.452C187.823 204.274 188.115 204.258 188.162 204.452C189.158 208.42 189.944 212.413 191.696 216.175C192.508 217.914 193.486 219.586 194.59 221.172C195.837 222.956 197.641 224.426 198.436 226.429C198.745 227.205 198.414 228.382 197.745 228.915C197.687 228.961 197.628 229.007 197.568 229.051L197.202 229.315C196.485 229.811 195.202 229.782 194.486 229.315C192.767 228.197 191.773 226.349 190.891 224.556L190.531 223.819C189.501 221.713 188.649 219.528 188.049 217.278C186.937 213.124 186.481 208.581 187.771 204.452ZM127.668 220.544C127.121 222.922 126.039 225.058 124.587 227.044C123.896 227.994 123.11 228.878 122.167 229.617C121.358 230.248 120.436 230.661 119.576 231.211C118.325 231.024 117.017 231.475 116.139 232.35L116.277 231.07C116.321 230.657 115.6 230.575 115.517 230.975C111.715 249.195 108.247 267.426 105.245 285.778L103.93 293.882L102.692 301.49C100.637 314.168 98.6485 326.841 97.1513 339.611C95.1566 356.654 93.4795 373.741 92.254 390.853C91.0241 408.086 90.2675 425.33 89.7286 442.595C89.5943 446.948 89.4505 451.296 89.3118 455.648L88.3835 450.444C87.457 445.24 86.5483 440.031 85.7699 434.803C82.9755 416.093 80.7413 397.25 79.651 378.379C78.651 361.11 78.9856 343.498 83.6096 326.674C84.7747 322.441 86.2002 318.275 87.9207 314.216C89.59 310.268 91.8668 306.609 93.662 302.72C95.748 298.194 96.3739 293.924 95.3 289.051C94.3613 284.806 92.7142 280.813 92.4191 276.444C91.8668 268.334 94.6442 260.48 98.5681 253.381C99.6028 251.511 100.694 249.665 101.832 247.835C105.278 242.306 109.164 236.979 113.196 231.871C113.414 231.599 112.953 231.297 112.718 231.52C109.042 234.973 105.022 238.367 101.714 242.137C100.107 243.971 98.5381 245.841 97.0518 247.761C80.7457 250.35 66.7346 260.001 57.1568 272.744C46.2878 287.205 40.7902 304.611 36.7221 321.752C32.198 340.801 28.3823 360.024 24.3189 379.167C20.1126 398.976 15.9275 418.785 11.6947 438.59C9.59125 448.421 7.48743 458.254 5.38879 468.09C4.32407 473.07 3.20673 478.038 2.03815 483.002C1.43796 485.545 0.794769 488.085 0.238525 490.637C-0.386871 493.515 0.195496 495.356 2.24631 497.471C3.00293 498.256 4.19803 498.243 5.13675 497.826L5.43008 497.695L5.71387 497.565C6.87509 497.022 7.78598 496.46 8.5087 495.253C9.30441 493.928 9.43045 492.458 9.7038 490.984C10.2083 488.27 10.7077 485.558 11.2118 482.84C11.965 478.777 12.7837 474.725 13.6177 470.674L17.7997 450.431C18.9153 445.033 20.0322 439.636 21.1556 434.241C25.1668 414.949 29.1824 395.66 33.1975 376.372C37.0528 357.851 40.4643 339.203 44.8531 320.79L45.1026 319.752L45.3564 318.716C49.2807 302.843 54.7644 287.488 64.7142 274.037C72.3716 263.693 83.0055 254.455 95.5307 249.78C94.6481 250.986 93.8007 252.217 92.9923 253.472C87.9164 261.351 84.2098 270.704 85.0789 280.086C85.2541 281.976 85.6691 283.852 86.0837 285.729C86.6752 288.404 87.2667 291.08 87.1649 293.796C87.0042 297.901 84.331 301.506 82.484 305.077C78.2907 313.171 75.2569 321.773 73.3012 330.597C69.3769 348.316 69.39 366.548 70.7419 384.535C72.2108 404.089 75.0004 423.637 78.1773 443C79.807 452.931 81.9756 462.78 83.6361 472.695C84.4571 477.583 85.5744 482.461 86.5522 487.325L87.0181 489.649C87.2788 490.939 87.5496 492.225 87.8625 493.496L88.0554 494.258V494.394C88.0641 495.332 88.334 496.108 88.7686 496.728C89.3635 498.54 90.1023 500.308 91.0845 502.005C91.5886 502.872 92.3192 503.359 93.1145 503.537C93.9141 505.276 95.7263 506.613 97.8901 506.605L126.352 506.502C142.883 506.44 159.415 506.336 175.947 506.25C180.118 506.229 184.286 506.155 188.454 506.052C192.361 505.949 196.107 505.503 199.97 505.04C204.334 504.52 206.698 501.584 206.046 497.442C205.902 496.529 205.746 495.621 205.598 494.713C206.467 494.985 207.502 494.857 208.201 494.209L208.857 493.599C209.766 492.744 210.58 491.905 211.156 490.764C211.752 489.592 212.235 488.353 212.76 487.156C213.895 484.579 214.998 481.994 216.072 479.397C218.223 474.202 220.374 468.986 222.374 463.737C226.332 453.344 229.835 442.793 232.881 432.123C238.314 413.086 242.243 393.682 244.72 374.105L245.312 369.439L245.484 368.061C246.424 360.472 247.214 352.767 246.841 345.195C246.61 340.454 245.837 335.677 243.972 331.249C242.252 327.166 239.596 323.672 237.071 320.022L236.782 319.6L236.492 319.169C234.283 315.853 232.526 312.387 232.439 308.36C232.349 304.274 233.602 300.298 235.003 296.472L235.352 295.529L235.586 294.904C235.843 294.224 236.103 293.544 236.362 292.864C239.117 285.65 241.861 278.464 240.839 270.601C239.187 257.932 231.104 247.72 220.935 239.845C229.979 241.547 238.931 244.907 246.832 249.169C256.163 254.207 264.563 260.856 271.808 268.359C285.497 282.539 295.271 299.552 303.271 317.119C311.646 335.503 317.856 354.767 322.537 374.282C327.243 393.909 330.394 413.85 332.545 433.87C333.618 443.834 334.462 453.823 335.161 463.816C335.518 468.937 335.787 474.065 336.204 479.178C336.621 484.286 336.809 489.472 338.121 494.444C338.734 496.761 342.867 496.996 343.31 494.444C344.293 488.745 344.018 482.851 343.744 477.08L343.719 476.556C343.449 470.807 343.097 465.063 342.68 459.319C341.828 447.579 340.69 435.856 339.203 424.17C333.993 383.148 324.383 342.341 305.535 304.896C296.661 287.259 285.271 270.122 269.426 257.387C261.882 251.329 253.377 246.493 244.212 242.992C236.015 239.858 227.688 238.375 218.979 238.379C214.611 235.2 209.922 232.429 205.238 230.062C204.955 229.918 204.66 230.265 204.894 230.488C205.016 230.599 205.133 230.715 205.255 230.822C204.725 230.855 204.177 231.091 203.686 231.582C201.965 233.296 200.513 235.439 199.214 237.664C197.237 240.01 195.351 242.434 193.377 244.755C190.218 248.471 186.985 252.134 183.712 255.768C178.216 261.875 172.54 267.867 166.622 273.617L165.633 274.573C162.566 277.526 159.458 281.061 155.83 283.398L155.636 283.52C154.105 284.468 153.02 284.64 151.714 283.225C150.527 281.936 149.539 280.442 148.524 279.021L148.289 278.695C143.105 271.539 138.298 264.118 133.948 256.479C131.965 253.002 130.079 249.475 128.289 245.908L127.755 244.838C126.781 242.872 125.725 240.944 124.922 238.92C124.735 238.445 124.552 237.97 124.374 237.5C127.112 235.794 129.233 232.103 130.002 229.212C130.801 226.21 130.397 223.129 128.972 220.383C128.703 219.867 127.799 219.995 127.668 220.544ZM207.971 233.308C210.262 235.36 212.604 237.368 214.912 239.408L215.757 240.158L216.598 240.912C220.655 244.567 224.541 248.372 227.779 252.741C233.725 260.765 237.266 270.547 234.794 280.342C232.742 288.456 228.036 295.811 226.771 304.128C226.137 308.294 226.445 312.482 228.097 316.417C229.783 320.431 232.478 323.871 234.898 327.492C240.157 335.363 240.874 344.001 240.352 353.119C239.804 362.642 238.653 372.168 237.232 381.604C234.355 400.723 230.018 419.644 224.277 438.173C221.404 447.451 218.01 456.532 214.633 465.65C212.952 470.188 210.991 474.619 208.971 479.029C207.906 481.35 206.815 483.658 205.707 485.962C206.116 482.708 206.116 479.368 206.316 476.134C206.602 471.501 206.967 466.876 207.302 462.247C207.984 452.853 208.592 443.45 209.136 434.047C211.061 400.517 212.478 366.957 212.374 333.372C212.321 316.578 211.96 299.784 211.2 283.005C210.843 275.105 210.153 267.211 209.529 259.321L209.396 257.631C208.844 250.549 208.184 243.45 207.05 236.43C207.386 235.71 207.677 234.981 207.893 234.234L207.971 233.953L207.914 233.961C207.967 233.742 207.984 233.523 207.971 233.308ZM263.907 376.785C263.342 365.379 263.112 353.953 262.733 342.539C262.724 342.229 263.181 342.251 263.22 342.539C264.832 354.077 266.64 365.59 268.465 377.098L271.638 374.547C275.262 371.643 278.865 368.786 282.672 366.114C282.868 365.974 283.142 366.246 283.007 366.432C280.29 370.132 277.366 373.638 274.402 377.173C272.859 379.006 271.299 380.828 269.791 382.689L269.422 383.144C270.478 389.805 271.529 396.466 272.542 403.13C274.964 419.075 277.067 435.069 279.121 451.065L280.76 463.862C282.199 475.093 283.841 486.297 285.549 497.491C285.984 500.345 284.641 503.082 281.33 503.508C278.057 503.929 275.953 501.65 275.584 498.776C272.99 478.479 270.391 458.18 268.144 437.846C266.348 421.599 265.364 405.345 264.526 389.056L264.342 385.436C263.751 385.246 263.276 384.734 263.116 384.168C262.703 382.689 263.22 381.612 264.102 380.678L263.907 376.785ZM52.0717 374.287C51.0026 371.78 50.1986 369.133 49.6249 366.486C49.5637 366.213 49.9509 366.122 50.0552 366.374C51.4937 369.851 53.9317 374.005 57.2302 376.524C57.743 373.398 58.2554 370.268 58.5118 367.146C58.5383 366.854 58.9946 366.845 59.0033 367.146C59.1119 370.813 59.5118 374.48 59.8156 378.151C60.52 378.775 60.7417 379.795 60.5461 380.666L60.4674 381.005C60.407 381.261 60.2632 381.525 60.0637 381.748C60.0984 382.409 60.1289 383.065 60.1463 383.722C60.294 389.111 60.3979 394.491 60.2723 399.88L60.2449 401.259C60.2149 403.118 60.2097 404.978 60.2045 406.837C60.1954 410.031 60.1867 413.225 60.0507 416.418C59.8247 421.791 59.477 427.16 59.0641 432.523C57.4579 453.296 54.0212 474.015 50.0612 494.499L49.5324 497.223C48.9831 500.154 48.8848 504.057 46.5176 506.221C44.24 508.298 40.6894 508.616 37.9258 507.294C31.8373 504.371 33.4713 496.451 39.4513 495.084L40.0323 492.123C40.7846 488.254 41.5064 484.382 42.1978 480.507C43.8362 471.331 45.2399 462.131 46.6176 452.918C47.9513 443.982 49.199 435.034 50.4246 426.085C51.6762 416.947 53.2885 407.829 54.3094 398.667L54.5618 396.471C55.0807 392.083 55.6805 387.706 56.2133 383.317L56.295 382.667L56.3828 382.016C56.0999 381.831 55.8652 381.587 55.7217 381.265C54.6531 378.874 53.1016 376.706 52.0717 374.287Z" fill="#343434"/>
<path d="M210.395 38.2055C183.01 36.785 158.747 29.4738 139.47 45.8366C139.47 45.8366 108.286 23.7082 103.082 32.1361C99.5961 37.7834 104.431 45.3645 103.134 52.3331C94.6809 66.0265 95.159 89.2041 94.6809 94.6355C93.4762 108.326 85.8883 159.843 85.8883 172.077C85.8883 178.321 91.3063 194.675 94.6809 203.777C102.191 224.034 116.528 234.358 140.04 234.358C163.552 234.358 201.927 215.686 214.235 199.108C215.313 197.655 222.288 201.894 229.584 194.541C237.488 186.575 241.872 171.382 241.872 162.326C241.872 150.834 249.689 142.864 248.78 128.153C246.749 95.2999 239.698 39.7255 210.395 38.2055Z" fill="#FAFAFA"/>
<path fill-rule="evenodd" clip-rule="evenodd" d="M212.376 0.0384137C212.737 0.00496549 213.097 -0.0115522 213.454 0.0090949C214.271 0.058648 215.075 0.211436 215.84 0.459612C216.591 0.620659 217.317 0.880812 217.991 1.25618C218.591 1.59066 219.138 1.96643 219.655 2.40003C219.768 2.495 219.877 2.58998 219.981 2.68908C220.116 2.79232 220.259 2.89184 220.394 3.00292C220.868 3.39934 221.255 3.82096 221.594 4.26651C223.041 3.06899 224.597 2.02466 226.435 1.33463C228.208 0.674341 230.064 0.236626 231.945 0.120589C232.028 0.11646 232.115 0.11233 232.202 0.104484L232.594 0.0887282C234.49 0.0271202 236.385 0.319927 238.182 0.950599C239.737 1.38047 241.219 2.04489 242.571 2.93726C243.197 3.3502 243.801 3.80444 244.37 4.29583C244.518 4.41104 244.67 4.5184 244.809 4.63816C245.982 5.64986 246.995 6.76067 247.834 8.03707C248.073 8.39592 248.281 8.75518 248.468 9.11031C248.716 8.94513 248.977 8.79234 249.22 8.66846C250.389 8.0825 251.758 7.84258 253.101 7.90906C254.253 7.90452 255.374 8.09447 256.413 8.57348L256.491 8.59413L256.697 8.66173C257.852 9.05712 258.777 9.66204 259.529 10.4069C260.824 11.4025 261.684 12.7859 262.258 14.3423C263.244 16.4896 263.566 19.0704 263.657 21.4411C263.705 21.4411 263.751 21.4389 263.798 21.4366C263.861 21.4334 263.924 21.4303 263.992 21.4329C264.97 21.4655 266.173 21.895 267.112 22.3657C267.638 22.5557 268.138 22.7869 268.577 23.0471C269.32 23.4848 270.002 24.001 270.611 24.5832C271.736 25.4876 272.649 26.5901 273.292 27.8909C273.457 28.2299 273.592 28.5764 273.713 28.9232C273.77 29.043 273.831 29.159 273.879 29.2742C274.522 30.8025 274.722 32.4993 274.613 34.1345C274.596 34.3493 274.578 34.564 274.552 34.775C274.544 35.233 274.522 35.6913 274.465 36.1538C274.326 37.3229 274.074 38.4291 273.583 39.5193C273.131 40.5232 272.601 41.4643 272.014 42.3814C272.179 42.4929 272.336 42.6122 272.484 42.7407C272.584 42.8228 272.67 42.9141 272.762 43.0045C272.779 43.0173 272.797 43.0252 272.818 43.0376C273.683 43.6367 274.391 44.52 274.822 45.4409C274.969 45.7506 275.087 46.0644 275.178 46.3824C275.708 47.5432 275.895 48.8022 275.687 50.0043C275.704 50.2475 275.708 50.4911 275.687 50.7389C275.495 53.1959 273.57 55.0793 271.315 56.0782C269.628 57.2262 267.773 58.0067 265.734 58.2916C264.917 58.5026 264.074 58.6343 263.205 58.6761C262.706 58.6996 262.206 58.6868 261.707 58.6521C258.879 55.5637 255.747 52.6859 252.827 49.6814C251.305 48.1151 248.853 50.4573 250.369 52.0174C254.763 56.5395 259.951 60.8213 263.406 66.1152L263.745 66.8766C264.065 67.6059 264.374 68.3409 264.674 69.0776C268.116 77.2704 270.198 85.9752 269.463 94.8204C269.459 94.8918 269.454 94.9637 269.448 95.0351L269.411 95.4687L269.398 95.6425L269.389 95.6958C269.307 96.6621 269.198 97.6288 269.042 98.5947C268.709 100.623 268.224 102.605 267.627 104.553C267.902 107.7 267.751 110.895 267.156 114.057C267.143 114.199 267.132 114.341 267.115 114.484C266.87 116.484 266.293 118.413 265.423 120.217C264.207 123.325 262.432 126.267 259.871 128.345C259.753 128.441 259.63 128.537 259.503 128.632C258.071 130.62 256.165 132.224 253.762 132.575L253.829 132.713C254.377 133.935 254.663 135.244 254.716 136.572C254.885 140.787 252.814 144.277 249.935 147.172C249.965 147.344 249.995 147.517 250.02 147.685C250.12 147.731 250.194 147.818 250.215 147.958C250.559 150.08 250.815 152.141 250.537 154.292C250.502 154.565 250.459 154.833 250.415 155.098C250.281 156.687 249.937 158.331 249.42 159.776C248.703 161.799 247.738 163.72 246.443 165.466C245.63 166.561 245.156 167.059 244.449 167.735L243.453 168.683C243.41 168.725 243.34 168.642 243.271 168.527C243.145 168.646 243.019 168.762 242.893 168.878C243.106 169.93 243.227 170.987 243.249 172.032C243.279 173.477 243.14 174.927 242.871 176.36C242.319 180.246 240.898 184.049 238.677 187.352C237.877 188.406 237.078 189.458 236.287 190.511C235.509 191.577 234.679 192.605 233.801 193.596C232.589 194.872 231.254 196.094 229.855 197.193C229.138 197.759 228.382 198.254 227.587 198.68C227.474 198.754 227.365 198.836 227.243 198.91C225.314 200.112 223.08 201.116 220.764 201.421C220.038 201.607 219.308 201.731 218.569 201.777C217.191 201.863 215.696 201.76 214.358 201.405C214.219 201.698 214.08 201.983 213.936 202.264C213.988 202.367 214.019 202.462 213.997 202.499C212.693 204.771 211.342 206.996 209.525 208.941C208.621 209.911 207.669 210.82 206.648 211.679C204.94 213.116 203.128 214.231 201.168 215.35H201.159L200.593 215.682C200.214 215.902 199.833 216.121 199.447 216.341L199.221 216.472C198.938 216.628 198.528 216.804 198.365 216.535C198.359 216.527 198.355 216.518 198.352 216.51L198.339 216.46C198.323 216.469 198.308 216.478 198.292 216.486L197.94 216.694C197.613 216.878 197.105 217.112 196.935 216.828C196.764 216.541 197.235 216.253 197.569 216.078L197.835 215.94C198.03 215.833 198.208 215.713 198.4 215.602C198.343 215.597 198.291 215.589 198.243 215.569L197.609 215.928C197.588 215.94 197.562 215.956 197.531 215.975C197.241 216.15 196.541 216.572 196.27 216.341C196.004 216.109 196.37 215.841 196.6 215.699L196.687 215.647C197.231 215.374 197.757 215.086 198.269 214.776C198.195 214.784 198.122 214.788 198.048 214.784C197.83 214.701 197.83 214.573 197.917 214.445C197.67 214.578 197.418 214.705 197.161 214.825C196.944 214.966 196.709 215.028 196.453 215.007C195.931 214.809 196.679 214.338 196.831 214.252L197.028 214.149C197.159 214.079 197.287 214.008 197.418 213.942C197.331 213.967 197.244 213.987 197.17 213.987L197.139 214.006C196.737 214.262 195.94 214.767 195.636 214.573C195.268 214.342 195.617 214.058 195.875 213.901L195.94 213.863C196.622 213.516 197.283 213.141 197.922 212.744C197.891 212.72 197.865 212.686 197.843 212.645C197.679 212.359 197.975 212.197 198.204 212.071C198.23 212.057 198.255 212.043 198.278 212.03L198.716 211.779C199.731 211.191 200.706 210.578 201.637 209.924C201.742 209.829 201.85 209.734 201.955 209.635C203.219 208.503 204.301 207.235 205.201 205.823C206.279 204.522 207.183 203.119 207.913 201.615C208.643 200.74 209.377 199.865 210.116 198.998C210.029 198.886 209.955 198.762 209.886 198.634C209.734 198.46 210.038 198.213 210.399 197.998L210.142 197.829L210.027 197.747C209.689 197.494 209.415 197.176 209.204 196.796L209.19 196.776C209.081 196.515 210.429 195.649 211.342 195.409C211.516 195.297 211.711 195.19 211.907 195.095C211.854 195.025 211.794 194.959 211.746 194.884C211.455 194.567 212.572 193.964 212.984 194.009C213.106 193.931 213.263 193.935 213.363 194.038C213.506 194.207 213.658 194.364 213.81 194.513C214.088 194.442 214.332 194.442 214.462 194.57C215.044 195.157 215.657 195.656 216.318 196.057L216.496 196.119L216.738 196.195C217.949 196.56 219.202 196.705 220.494 196.623C221.472 196.598 222.402 196.383 223.288 195.979C223.471 195.933 223.654 195.879 223.832 195.822C224.292 195.616 224.744 195.372 225.188 195.095C225.327 194.975 225.466 194.852 225.596 194.727C226.435 193.901 227.295 193.097 228.173 192.312L229.66 190.466C231.189 188.413 232.654 186.32 234.057 184.185C236.63 179.416 237.886 173.643 236.478 168.386L236.469 168.369L236.34 168.061C236.253 167.856 236.161 167.654 236.065 167.453C234.987 165.198 233.414 163.129 231.376 161.572L231.328 161.539L231.067 161.374C230.278 160.886 229.44 160.476 228.564 160.156L226.452 160.441C225.062 160.552 223.68 160.483 222.311 160.226C221.993 160.189 221.915 159.983 222.072 159.772C221.933 159.752 221.793 159.735 221.659 159.71C220.759 159.991 219.899 160.35 219.03 160.713L218.99 160.739C217.487 162.324 216.817 163.67 216.235 165.801C216.153 166.111 211.907 168.527 211.381 165C211.376 164.533 211.437 164.075 211.568 163.633C211.863 162.795 212.246 161.994 212.715 161.225C213.223 160.412 213.823 159.66 214.51 158.975C215.066 158.529 215.657 158.141 216.283 157.786C216.878 157.117 217.521 156.543 218.395 156.047C218.843 155.795 219.312 155.564 219.794 155.354C219.764 155.333 219.734 155.304 219.716 155.267C219.151 154.247 218.586 153.227 218.026 152.207C217.969 152.108 218.008 152.017 218.095 151.931L217.256 150.411C217.092 150.11 217.782 149.866 218.182 149.748L218.438 149.676L218.756 149.568C218.834 149.498 218.938 149.428 219.064 149.358C219.043 148.87 219.003 148.383 218.951 147.896L218.909 147.483C218.77 146.245 218.537 145.024 218.212 143.82C217.808 142.156 217.291 140.545 216.678 138.964C216.5 138.559 216.318 138.154 216.126 137.754C215.531 136.429 214.871 135.136 214.153 133.868C213.28 132.085 212.172 130.441 210.838 128.938L208.951 126.58L208.393 125.913C207.082 124.363 205.721 122.85 204.314 121.373C203.232 119.754 202.185 118.114 201.164 116.459C200.155 114.782 199.065 113.155 197.891 111.582L197.402 110.921C195.268 108.062 192.964 105.317 190.612 102.625C189.969 101.94 189.334 101.25 188.713 100.552C188.843 101.213 188.847 101.832 188.73 102.464C188.921 104.454 187.826 106.23 185.918 107.064L185.901 107.072L185.868 107.1L185.831 107.126C185.662 107.246 185.471 107.357 185.266 107.456C185.223 107.489 185.18 107.518 185.136 107.547C183.845 108.377 182.416 108.865 180.89 109.042C177.39 109.918 173.573 108.941 170.09 107.689L169.656 107.531L168.807 107.681L167.755 107.857L167.466 107.902C167.448 107.906 167.427 107.911 167.409 107.911C165.306 108.254 163.198 108.526 161.051 108.658C159.348 108.762 157.682 108.068 156.177 107.355L155.845 107.197C154.372 106.494 152.929 105.681 151.403 105.07C151.038 105.28 150.66 105.47 150.282 105.631C149.478 105.974 148.64 106.193 147.783 106.317C145.623 106.936 143.307 106.808 141.143 106.173C140.569 106.346 139.978 106.465 139.383 106.449C138.335 106.424 137.458 106.044 136.719 105.396C136.106 105.032 135.602 104.533 135.128 103.975L134.871 103.674C134.698 103.474 134.522 103.273 134.346 103.075L133.907 102.766L133.795 102.718C133.348 102.541 132.891 102.514 132.429 102.621C131.108 103.067 129.874 103.901 128.488 104.091C128.446 104.097 128.405 104.101 128.364 104.104L128.127 104.12C127.871 104.219 127.614 104.314 127.349 104.376C126.339 104.614 125.477 104.374 124.566 104.12C124.276 104.039 123.982 103.957 123.677 103.889C122.477 103.616 121.33 103.69 120.2 103.918C119.092 104.24 117.997 104.644 116.893 104.946C116.463 105.062 116.041 105.152 115.628 105.218C114.959 105.4 114.285 105.553 113.594 105.639C112.826 105.739 112.049 105.724 111.275 105.693L110.696 105.668C110.557 105.631 110.492 105.545 110.496 105.408L110.57 105.14C110.37 105.136 110.174 105.136 109.966 105.127C109.848 105.107 109.779 105.037 109.77 104.937C107.741 105.26 105.698 105.475 103.642 105.565L103.262 105.584C102.964 105.599 102.677 105.614 102.399 105.629C100.591 105.724 99.1492 105.8 97.1367 105.668C97.1401 105.676 97.1419 105.787 97.1423 105.946L97.134 107.856C97.131 108.209 97.1267 108.193 97.121 108.173C97.1154 108.153 97.1088 108.129 97.101 108.428L97.0889 109.116C97.2236 109.191 97.3366 109.323 97.3322 109.484C97.2844 113.064 97.1019 116.641 96.7847 120.208C96.55 123.829 96.1893 127.439 95.6895 131.035C95.6678 131.221 95.6417 131.411 95.6156 131.597C95.1245 135.474 94.5596 139.336 93.899 143.192C93.5339 145.612 93.0733 148.011 92.5213 150.394L91.6696 153.949L90.9134 157.563L90.783 158.028C90.4862 159.115 90.2415 160.211 90.0399 161.317L89.9312 161.952C89.8747 162.316 89.8139 162.679 89.7661 163.042C89.6705 163.654 89.5879 164.265 89.5097 164.872C89.5053 164.884 89.5053 164.896 89.5053 164.905C89.2967 166.532 89.1359 168.163 88.9273 169.79L88.8317 170.579C88.823 170.695 88.81 170.81 88.7969 170.921L88.7491 174.493C88.7535 175.076 88.7752 175.658 88.81 176.24C88.8665 176.818 88.9404 177.397 89.0273 177.974C89.0286 178.069 89.032 178.165 89.0364 178.261L89.0664 178.833C89.1185 179.197 89.1707 179.56 89.2359 179.924C89.4314 181.782 89.853 183.603 90.4962 185.379C90.8438 186.857 91.261 188.319 91.7391 189.76C93.2254 193.802 95.0941 197.709 97.3626 201.421C99.6486 205.167 102.191 208.805 105.05 212.187L105.759 212.946C106.502 213.839 107.28 214.701 108.084 215.535C108.201 215.66 108.319 215.779 108.44 215.903C109.279 216.754 110.148 217.575 111.052 218.364C112.977 220.045 114.976 221.635 117.067 223.125C117.384 223.348 117.701 223.568 118.019 223.782C119.001 224.389 120 224.963 121.017 225.504C123.846 226.999 126.745 228.386 129.787 229.439C132.429 230.356 135.146 231.013 137.914 231.458C139.544 231.781 141.199 231.938 142.868 231.917C145.093 232.161 147.323 232.173 149.548 231.95L152.933 231.553L153.394 231.422C156.879 230.303 160.369 229.179 163.859 228.056C164.81 227.523 165.767 226.995 166.723 226.462C166.808 226.409 166.893 226.356 166.978 226.301L167.483 225.97C168.148 225.451 168.8 224.913 169.426 224.344C169.669 224.145 169.986 224.013 170.321 223.914C170.873 223.468 171.416 223.01 171.942 222.531C172.133 222.374 172.655 222.209 173.05 222.167C173.211 222.056 173.559 221.924 173.737 222.019C173.867 222.089 174.019 222.432 173.876 222.551C173.733 222.68 173.585 222.803 173.437 222.932C173.524 222.906 173.607 222.882 173.693 222.861L173.869 222.816C174.103 222.762 174.34 222.73 174.58 222.717C174.902 222.791 174.984 223.03 174.723 223.245L174.576 223.377L174.658 223.359C174.877 223.314 175.087 223.295 175.214 223.332C175.475 223.402 175.588 223.675 175.367 223.861L175.301 223.91C175.306 223.943 175.301 223.976 175.284 223.989C175.267 224.001 175.254 224.013 175.236 224.03C175.319 224.022 175.393 224.026 175.449 224.054C175.597 224.129 175.766 224.443 175.597 224.583C175.553 224.625 175.501 224.666 175.454 224.707C175.436 224.728 175.419 224.748 175.397 224.765C175.297 224.856 175.193 224.942 175.093 225.029L175.171 225.038C175.427 225.103 175.549 225.38 175.327 225.566C174.867 225.987 174.397 226.388 173.915 226.78C172.437 228.085 170.851 229.266 169.156 230.311C168.148 230.959 167.096 231.537 166.006 232.037C163.885 233.019 161.764 233.891 159.539 234.651C156.831 235.571 153.968 236.216 151.056 236.587C146.54 237.326 141.89 237.421 137.401 236.79C135.115 236.467 132.855 236.046 130.635 235.435C127.075 234.456 123.738 233.007 120.452 231.397C117.766 230.083 115.198 228.548 112.764 226.838C108.497 223.947 104.603 220.52 101.187 216.779C98.5447 213.884 96.2327 210.77 94.0772 207.537C91.7782 204.089 89.7574 200.591 88.0842 196.825C87.0064 194.393 86.059 191.907 85.2855 189.372C84.3207 187.101 83.6471 184.759 83.2777 182.335C82.8648 180.568 82.6041 178.784 82.4954 176.984C82.2999 175.253 82.239 173.515 82.3042 171.772C82.2912 170.475 82.5345 169.204 83.0343 167.952C83.1777 165.995 83.4254 164.054 83.7862 162.13C84.0339 160.239 84.4815 158.384 85.1203 156.572C85.5723 154.189 86.1068 151.823 86.7283 149.473C87.9591 144.097 88.7626 138.592 89.4775 133.127L89.7009 131.403C90.3484 126.658 90.8178 121.893 91.1133 117.115C91.5592 112.449 92.0694 111.59 92.6395 107.246L92.7126 106.672C92.3649 106.73 92.0259 106.664 91.6087 106.453C91.4175 106.354 91.4262 106.234 91.5175 106.123C91.3045 106.098 91.0785 106.032 90.8264 105.916C90.5657 105.801 90.6526 105.639 90.8264 105.503C90.7091 105.528 90.5874 105.557 90.4527 105.59L90.318 105.623C89.248 105.876 88.3476 105.827 87.3671 105.28C86.9586 105.053 86.5762 104.769 86.2198 104.45C84.5554 103.327 83.4602 101.568 83.0169 99.6724C83.0082 99.6605 82.9996 99.6477 82.9952 99.6311C82.0217 97.6697 81.9957 95.3696 82.1869 93.2599C82.3173 91.81 82.5954 90.4354 83.1125 89.0681C83.4241 88.2484 83.5932 87.8735 83.9448 87.1954L84.2703 86.5744L84.4293 86.2647C85.1681 84.8066 85.8331 83.3365 86.737 81.9614C87.6096 80.6371 88.8082 79.4668 89.9834 78.3535L90.683 77.6916L91.0924 77.3125C90.9321 76.9508 90.8799 76.5263 90.9903 76.0506C91.6904 73.0278 92.4327 69.9638 93.3714 66.9687C93.5009 65.917 93.7017 64.8764 93.9816 63.8498C94.2945 62.5453 94.6725 61.2569 95.1636 60.0012C95.2258 59.8567 95.2892 59.7121 95.3527 59.568L95.7373 58.7045C96.3544 57.0491 97.3496 55.5992 98.7186 54.3567C98.8489 54.187 99.001 54.0837 99.2096 54.1705C99.2705 54.1998 99.327 54.2535 99.3661 54.3109C99.5043 54.1622 99.6521 54.0197 99.7989 53.8764C100.413 53.0799 101.073 52.3085 101.781 51.5644C100.811 49.5092 99.9958 47.3883 99.3009 45.2096C99.1835 44.8834 99.0619 44.5576 98.9532 44.2268C98.6794 43.3601 98.4057 42.4929 98.1275 41.6253C97.9537 40.3906 97.7798 39.1518 97.6104 37.913C97.3844 36.637 97.3105 35.3486 97.3844 34.0478C97.5756 32.33 97.7842 30.6126 98.0058 28.8985C98.0393 28.603 98.2448 28.3321 98.4509 28.0968L98.6316 27.895C98.669 27.8542 98.7129 27.8011 98.7616 27.742C98.9754 27.4833 99.2857 27.1079 99.5616 27.1311C99.6746 27.1356 99.7876 27.1434 99.9006 27.1521C99.9919 27.0489 100.122 26.8796 100.266 26.7264L100.287 26.5736C100.305 26.4249 100.583 26 100.774 26.0165L101.409 26.0657C101.669 26.0822 101.934 26.1033 102.195 26.1235C102.595 25.9502 103.186 26.0039 103.968 26.2805C104.833 26.3754 105.694 26.4869 106.55 26.6273C108.432 26.8796 110.287 27.2223 112.165 27.722C114.255 28.279 116.789 29.1256 118.783 29.9473C120.718 30.7447 122.592 31.6416 124.402 32.631C126.685 30.4738 129.132 28.6651 131.887 27.2525C132.196 26.9312 132.509 26.612 132.834 26.2969C134.029 25.1328 135.285 24.022 136.615 23.0016C137.875 21.9693 139.205 21.0117 140.608 20.1565C141.198 19.7997 141.806 19.4518 142.414 19.1084L143.624 18.4263C145.045 17.4971 146.554 16.7291 148.148 16.1262C149.165 15.6472 150.221 15.259 151.308 14.9538C156.727 13.1988 162.325 12.2404 168.048 12.0633C170.125 11.9968 172.198 12.0385 174.271 12.1578C176.118 12.2284 177.965 12.373 179.804 12.5749C179.886 12.29 179.978 12.0054 180.082 11.7288C180.834 9.7545 182.024 7.96233 183.532 6.43073C184.263 5.69116 184.954 5.01847 185.745 4.40732C186.948 3.17636 188.382 2.15267 190.03 1.50394C191.42 0.959271 192.911 0.727611 194.397 0.773034C195.64 0.769318 196.874 0.959271 198.048 1.3305C198.091 1.33876 198.135 1.34702 198.178 1.35941L198.404 1.41751C200.056 1.85878 201.593 2.63434 202.902 3.7012C203.215 3.91552 203.515 4.14263 203.802 4.38254C203.902 4.46926 203.993 4.55557 204.088 4.64228C204.632 4.08111 205.236 3.55213 205.888 3.0855C205.922 3.04875 205.953 3.00705 205.992 2.96989C207.383 1.54523 209.177 0.533528 211.19 0.166426C211.585 0.0916833 211.981 0.0549315 212.376 0.0384137ZM103.968 26.2805L104.003 26.2932C103.395 26.2309 102.791 26.1772 102.178 26.1276L102.195 26.1235C102.786 26.1649 103.377 26.2186 103.968 26.2805ZM106.063 32.7471C105.168 32.4952 104.268 32.2928 103.36 32.1359C103.269 32.9122 103.186 33.6931 103.143 34.4732L103.137 34.5487L103.134 34.7044C103.164 35.0682 103.199 35.4312 103.251 35.7946C103.408 38.0203 103.621 40.1139 104.238 42.2654C104.911 44.6191 105.802 46.8986 106.88 49.0917C108.097 51.4285 109.544 53.6584 111.209 55.7355C113.008 57.9782 115.037 60.0549 117.28 61.9048C117.654 62.198 118.032 62.4871 118.414 62.7683C119.67 63.6846 120.982 64.5311 122.347 65.3033C125.724 64.9234 129.131 64.8202 132.499 64.9899C132.986 65.0143 133.468 65.0473 133.955 65.0849C133.968 64.9734 133.985 64.8574 134.007 64.7459C134.198 63.5112 134.542 62.2356 135.007 61.0587L134.946 61.0459C134.884 61.0306 134.821 61.0141 134.76 60.9972L134.389 60.8935C134.207 61.1867 133.764 61.4799 133.559 61.4176C131.078 60.844 128.722 59.9681 126.493 58.7958C123.516 57.4537 120.47 56.2723 117.349 55.2647C117.115 55.1826 117.097 55.0418 117.167 54.8931L116.632 54.7114L116.581 54.6912C116.188 54.514 116.593 54.1238 116.803 53.9223C116.813 53.9124 116.823 53.9029 116.832 53.8938L116.999 53.7414C117.111 53.6402 117.225 53.5403 117.341 53.4441C117.149 53.3776 116.958 53.3115 116.763 53.2496C116.589 53.1876 116.541 53.0968 116.558 52.9894L115.998 52.8082C115.55 52.655 115.915 52.2627 116.102 52.0727L116.347 51.8258C116.68 51.5 117.204 51.0404 117.514 51.1312L117.619 51.1601L117.711 51.0713C117.839 50.9503 117.986 50.8215 118.136 50.7059C117.888 50.4209 118.51 49.8098 118.875 49.9213L119.079 49.9791C119.062 49.9048 119.083 49.8593 119.196 49.8965C119.587 50.0125 119.979 50.1406 120.37 50.2603C122.986 51.0366 125.533 51.8745 128.031 52.9771C129.079 53.3859 130.078 53.8814 131.03 54.4682C132.499 55.2028 133.859 56.1034 135.106 57.1643L135.129 57.1833C135.222 57.27 135.422 57.5306 135.486 57.6086L135.506 57.6309L134.598 57.346L134.724 57.4471L134.846 57.5487C135.25 57.8456 135.654 58.1512 136.045 58.465C136.106 58.5105 136.154 58.5476 136.193 58.5893C137.032 57.123 138.079 55.7603 139.279 54.5297L139.34 54.4669C139.381 54.4244 139.423 54.3811 139.47 54.3402L139.3 54.3897C139.209 54.4141 139.096 54.3356 139.018 54.2369C138.722 54.4599 138.366 54.6371 137.923 54.7531C137.684 54.8146 137.51 54.5466 137.527 54.3567C137.536 54.2534 137.631 54.1337 137.753 54.0218C137.571 54.1044 137.384 54.1787 137.193 54.2283C136.936 54.2943 136.736 54.0552 136.797 53.8323C136.875 53.5428 137.414 53.1179 137.701 53.0229C137.727 53.0183 137.749 53.0101 137.771 53.0018C137.771 52.8779 137.744 52.7499 137.71 52.6219C137.592 52.6673 137.475 52.7086 137.358 52.738C137.101 52.8082 136.94 52.5352 136.967 52.337C136.975 52.2755 137.014 52.2053 137.071 52.1351C136.94 52.1842 136.81 52.2296 136.671 52.2668C136.262 52.3742 136.193 51.6391 136.606 51.507L137.097 51.3463C136.962 51.1229 136.814 50.9 136.645 50.6976C135.811 49.7066 134.75 48.877 133.829 47.9598C133.077 47.1798 132.321 46.403 131.569 45.6267C130.852 44.9206 130.096 44.2516 129.318 43.612C129.105 43.4468 128.892 43.2812 128.67 43.1206C125.198 40.453 121.382 38.2392 117.315 36.4887C115.22 35.5881 113.116 34.7374 110.948 34.0065C109.375 33.4082 107.745 32.987 106.063 32.7471ZM215.753 48.9757C211.65 48.6577 207.548 48.6205 203.445 48.9885C200.751 49.1867 198.095 49.6198 195.484 50.2888C194.975 50.3714 194.475 50.4705 193.976 50.57C192.976 50.8302 191.981 51.1027 190.994 51.4037C189.017 51.9658 187.087 52.6384 185.201 53.4313C181.833 54.7197 178.639 56.3347 175.619 58.2714C175.497 58.3412 175.31 58.2131 175.219 58.048L174.797 58.2879C174.854 58.4159 174.906 58.5435 174.954 58.6761C175.262 59.357 175.523 60.0511 175.732 60.7573C176.145 60.5876 176.562 60.431 176.983 60.282L177.37 60.1432C179.047 59.5536 180.769 59.1162 182.533 58.8288C183.237 58.7008 183.945 58.6059 184.654 58.5311C185.023 58.4861 185.393 58.4485 185.762 58.4159C187.691 58.2916 189.612 58.3453 191.529 58.5765C191.59 58.5811 191.642 58.6343 191.694 58.7091C192.468 58.8243 193.241 58.9606 194.006 59.134C194.084 59.1505 194.154 59.2042 194.215 59.2744C195.44 59.535 196.614 59.8732 197.874 60.2494C197.969 60.2779 198.248 60.5876 198.3 60.728L198.643 60.8271L198.669 60.839C198.818 60.9249 199.13 61.3598 199.065 61.3515L198.348 61.2652C198.365 61.3102 198.365 61.3602 198.352 61.4134C198.526 61.4754 198.695 61.5295 198.869 61.5951L198.919 61.6133C199.29 61.7727 199.026 62.2596 198.726 62.4375L198.896 62.4974C199.252 62.6469 199.368 63.2824 198.86 63.2221C198.461 63.1767 198.056 63.1271 197.652 63.078C197.578 63.1024 197.513 63.1152 197.461 63.1106L197.305 63.0941L197.578 63.1866C197.761 63.2494 197.943 63.3142 198.126 63.3832C198.63 63.5318 198.23 64.259 197.848 64.2136L197.113 64.1182C196.939 64.3577 196.653 64.5642 196.492 64.5477C194.775 64.3247 193.054 64.1389 191.329 63.9943C189.808 63.8333 188.283 63.73 186.757 63.6764C184.215 63.9695 181.677 64.2673 179.134 64.5642C178.239 64.8165 177.361 65.1134 176.497 65.4524C176.51 65.7493 176.514 66.0466 176.514 66.344C176.514 66.6582 176.492 67.0171 176.462 67.4011C176.449 68.2398 176.379 69.09 176.257 69.887L175.814 72.0264C175.467 73.302 174.98 74.5285 174.35 75.7012L174.454 75.7099C174.632 75.553 174.871 75.3502 175.119 75.2102C174.81 74.9744 175.288 74.3261 175.697 74.3678L175.979 74.3926C175.979 74.3344 176.014 74.2976 176.101 74.3055C180.688 74.7576 185.277 75.2412 189.867 75.6797C193.111 76.2335 196.406 76.627 199.655 76.3293H200.116C200.126 76.3214 200.135 76.3144 200.145 76.3082L200.201 76.2723C200.623 76.2232 201.045 76.1658 201.466 76.091C202.395 75.925 203.262 75.6731 204.078 75.358L204.553 75.6021C204.532 75.5608 204.519 75.5199 204.527 75.4906C204.549 75.4167 204.623 75.3135 204.727 75.3667C204.791 75.3969 204.854 75.4283 204.916 75.4601L205.288 75.6516L205.783 75.553L206.048 75.4881C206.224 75.4439 206.4 75.3969 206.574 75.3502L209.834 74.1613L210.184 73.9945C211.113 73.5419 212.004 73.0258 212.858 72.4348C213.923 71.9021 214.897 71.258 215.801 70.5229C216.083 70.2467 216.361 69.9617 216.622 69.6599C217.613 68.8014 218.517 67.8677 219.338 66.8601C220.555 65.4524 221.672 63.9861 222.702 62.4458C224.697 59.4553 226.391 56.3103 228.044 53.1443L229.034 51.2431C227.304 50.7307 225.544 50.3177 223.749 50.0245C221.098 49.5785 218.434 49.228 215.753 48.9757ZM150.469 52.6591C152.442 52.2837 154.424 52.2296 156.414 52.5104C157.248 52.6265 158.078 52.766 158.901 52.9349C157.032 54.4835 155.529 56.4652 154.553 58.7458C153.499 61.2111 157.705 62.2736 158.744 59.8439C159.747 57.5 161.645 55.7021 163.937 54.6243C164.432 54.8873 164.913 55.1722 165.371 55.4877C165.971 55.9502 166.536 56.4499 167.066 56.9991C168.222 58.1929 169.282 59.7865 169.978 61.3639C170.247 62.2228 170.447 63.1065 170.573 64.015C170.599 64.2214 170.625 64.432 170.647 64.6426C171.075 68.9162 169.79 73.0741 167.577 76.7534L167.49 76.7546C165.515 75.7371 163.448 74.8799 161.321 74.1816C159.617 73.0918 157.848 72.0838 156.027 71.1712C152.156 69.2308 148.068 67.7347 143.855 66.7119L143.368 66.5959C142.376 66.3551 141.374 66.1429 140.369 65.957L139.765 65.8488H139.757L139.822 65.2331C140.161 62.8174 141.156 60.5752 142.442 58.5026C143.407 56.9376 144.863 55.3354 146.48 54.0552L146.488 54.0507C147.222 53.6543 147.994 53.3264 148.788 53.0555L149.087 52.9564L150.469 52.6591ZM103.919 55.5431C104.286 56.1451 104.668 56.7414 105.072 57.3295C107.037 60.1866 109.392 62.8678 112.063 65.2055C111.367 65.2038 110.672 65.229 109.986 65.2901C108.802 65.3963 107.643 65.5829 106.513 65.8443C106.422 65.7745 106.319 65.7394 106.237 65.7947L105.942 65.9884C103.519 66.6099 101.243 67.5869 99.1818 68.8959L99.2188 68.6374C99.2248 68.5945 99.2318 68.5511 99.2401 68.5082C99.2053 68.0003 99.1966 67.4919 99.214 66.9881C99.6399 64.0108 100.705 61.2689 101.921 58.4944C101.944 58.4407 101.928 58.3709 101.893 58.2999C102.507 57.3468 103.179 56.4251 103.919 55.5431ZM135.202 59.7906C135.302 59.8236 135.406 59.8567 135.511 59.8856C135.45 60.0136 135.393 60.1379 135.337 60.2655L135.33 60.263L134.92 59.9558C135.007 59.9186 135.106 59.8612 135.202 59.7906ZM188.943 80.9703C186.331 80.7147 183.718 80.4533 181.106 80.1878C178.67 80.4125 176.231 80.5859 173.788 80.7028C173.954 80.8275 174.124 80.9472 174.289 81.0736C174.515 81.1814 174.741 81.2883 174.967 81.3998C175.015 81.3296 175.106 81.2474 175.188 81.2966C175.278 81.3461 175.367 81.3969 175.457 81.4485L175.988 81.7591C176.175 81.6108 176.401 81.5241 176.527 81.6025C179.821 83.6008 182.985 85.637 185.897 88.1146C186.405 88.5313 186.905 88.9525 187.4 89.3865C190.473 92.1032 193.319 95.0397 196.014 98.0909C198.713 101.147 201.242 104.363 203.649 107.63C206.479 111.466 209.064 115.455 211.798 119.357C215.544 124.701 219.269 130.073 221.867 136.032C222.78 138.121 223.532 140.257 224.097 142.445C224.31 143.226 224.505 144.006 224.675 144.799C224.84 145.765 224.992 146.731 225.122 147.702C225.318 149.56 225.314 151.418 225.109 153.276C225.105 153.376 225.04 153.45 224.953 153.503C224.94 153.669 224.931 153.83 224.914 153.995C225.218 153.966 225.518 153.945 225.822 153.937L226.115 153.926C226.8 153.907 227.485 153.937 228.173 154.024C229.194 154.152 230.194 154.416 231.15 154.784C231.267 154.817 231.385 154.854 231.498 154.9C231.698 154.854 231.898 154.805 232.093 154.751C233.132 154.437 234.131 154.053 235.092 153.603C234.934 152.67 234.9 148.759 234.815 147.298L234.796 147.024C234.34 142.969 233.262 138.989 231.819 135.152C231.689 134.801 231.554 134.451 231.415 134.099C230.429 131.795 229.316 129.553 228.004 127.373C227.122 125.832 226.135 124.354 225.044 122.933C223.61 121.03 222.046 119.233 220.351 117.537C220.259 117.437 220.485 117.21 220.833 116.979C220.438 116.554 220.038 116.136 219.625 115.728C219.429 115.517 220.559 114.807 221.363 114.638C221.594 114.481 221.889 114.32 222.189 114.2C222.15 114.163 222.111 114.122 222.072 114.08C221.85 113.845 221.933 113.659 222.193 113.494C222.345 113.403 222.845 113.122 223.119 113.18C223.219 113.048 223.397 112.998 223.558 113.163C223.723 113.324 223.88 113.489 224.04 113.65C224.21 113.609 224.362 113.601 224.436 113.679L224.97 114.241C225.027 114.25 225.079 114.262 225.109 114.299C227.682 116.983 230.077 119.659 232.145 122.731C234.496 126.225 236.365 129.949 237.834 133.848C238.33 135.16 238.771 136.486 239.162 137.824C238.221 137.969 237.445 138.706 237.907 139.77C238.533 141.214 239.458 142.381 240.54 143.494C240.771 144.745 241.428 144.757 241.58 144.474C242.232 144.894 243.296 144.927 243.816 144.304C246.248 141.387 247.14 138.259 246.47 134.579C245.789 130.842 243.906 127.421 243.262 123.669C243.176 123.173 242.921 122.85 242.59 122.665C238.944 113.512 233.146 105.249 226.026 98.1859C221.95 94.1432 217.422 90.4808 212.793 87.0241L205.892 82.0072C205.271 81.6393 204.662 81.2553 204.075 80.8465C203.215 81.0488 202.346 81.2144 201.459 81.3296C198.96 81.6558 196.453 81.6273 193.945 81.4493C192.276 81.3131 190.608 81.152 188.943 80.9703ZM222.385 170.244C222.308 170.24 218.282 171.675 216.277 172.602L216.179 172.647C213.867 173.738 212.754 174.522 210.677 175.922C210.538 176.017 210.394 176.162 210.394 176.302C210.394 178.341 210.916 180.834 212.719 179.729C212.98 179.57 213.243 179.414 213.507 179.26L213.906 179.031L213.914 179.034C213.911 179.033 213.908 179.03 213.906 179.027C217.834 176.752 221.985 174.968 226.365 173.692C226.665 173.589 224.444 170.401 223.832 170.579C224.184 170.446 222.443 170.247 222.385 170.244ZM213.914 179.034C213.915 179.035 213.917 179.036 213.919 179.036L213.914 179.034Z" fill="#343434"/>
<path fill-rule="evenodd" clip-rule="evenodd" d="M104.704 125.73L105.328 125.608C106.063 125.468 106.801 125.528 107.45 125.778C108.086 126.024 108.64 126.453 109.028 127.071C109.543 127.894 109.612 128.584 109.373 129.496C109.188 130.201 108.784 130.732 108.254 131.115C107.696 131.518 106.99 131.754 106.255 131.835C102.868 132.214 99.5322 132.922 96.2894 133.927C94.7701 134.398 93.3359 135.036 91.9148 135.698L90.6897 136.271C89.5598 136.797 88.3925 137.303 86.9175 137.67C86.8015 137.699 86.6872 137.726 86.5733 137.752C86.1644 137.63 86.0948 137.482 86.0083 137.375L85.9732 137.333C85.868 137.207 85.738 137.015 85.861 136.118C89.0139 129.904 97.5536 127.19 104.29 125.813L104.704 125.73ZM149.05 127.529L148.234 127.393L147.816 127.326C145.372 126.942 142.474 126.685 140.786 128.508C139.839 129.53 139.513 131.431 140.786 132.409C142.453 133.691 144.251 133.649 146.169 133.604C146.826 133.588 147.498 133.572 148.184 133.61C150.395 133.73 152.52 134.078 154.65 134.657C159.323 135.926 163.13 138.242 167.121 140.786C167.645 141.119 168.179 140.483 167.929 140.018C165.626 135.73 161.161 132.208 156.689 130.061C154.302 128.915 151.691 127.965 149.05 127.529ZM145.291 146.477C145.962 146.017 146.699 145.768 147.47 145.768C148.24 145.768 148.978 146.017 149.649 146.477C150.309 146.929 150.907 147.59 151.406 148.414C152.348 149.973 152.937 152.126 152.937 154.506C152.937 156.886 152.348 159.039 151.406 160.598C150.907 161.422 150.309 162.083 149.649 162.536C148.978 162.995 148.24 163.244 147.47 163.244C146.699 163.244 145.962 162.995 145.291 162.536C144.63 162.083 144.032 161.422 143.534 160.598C142.592 159.039 142.002 156.886 142.002 154.506C142.002 152.126 142.592 149.973 143.534 148.414C144.032 147.59 144.63 146.929 145.291 146.477ZM98.6918 145.768C97.9212 145.768 97.1842 146.017 96.5127 146.477C95.8522 146.929 95.2542 147.59 94.7561 148.414C93.8135 149.973 93.2242 152.126 93.2242 154.506C93.2242 156.886 93.8135 159.039 94.7561 160.598C95.2542 161.422 95.8522 162.083 96.5127 162.536C97.1842 162.995 97.9212 163.244 98.6918 163.244C99.4623 163.244 100.199 162.995 100.871 162.536C101.531 162.083 102.129 161.422 102.627 160.598C103.57 159.039 104.159 156.886 104.159 154.506C104.159 152.126 103.57 149.973 102.627 148.414C102.129 147.59 101.531 146.929 100.871 146.477C100.199 146.017 99.4623 145.768 98.6918 145.768Z" fill="#343434"/>
<path fill-rule="evenodd" clip-rule="evenodd" d="M73.0297 144.114C71.8303 143.159 69.7373 142.933 68.2884 142.93C64.9834 143.531 66.3514 148.317 72.6508 145.34C63.185 182.954 123.791 184.558 113.566 148.802C119.685 147.403 126.146 147.289 131.763 149.944C126.915 166.338 143.047 182.099 161.589 178.052C173.564 175.41 181.556 166.59 177.854 153.625C180.205 154.325 184.611 153.742 185.975 151.999C190.689 151.617 195.375 151.071 200.056 150.526C210.543 149.304 221 148.086 231.674 148.715C233.125 148.906 233.044 149.878 232.963 150.849C232.882 151.816 232.801 152.783 234.236 152.977C237.534 152.691 236.238 147.394 233.877 146.533C230.563 144.277 202.065 146.516 185.765 150.578C183.602 149.229 180.342 149.641 177.774 149.966C177.36 150.018 176.965 150.068 176.595 150.108C173.384 142.466 163.094 132.939 152.77 134.545C143.311 135.069 135.364 138.619 132.135 148.758C127.205 144.508 118.265 143.136 112.579 146.349C109.425 139.613 103.877 134.545 96.4001 132.261C86.9052 125.864 75.9875 134.636 73.0297 144.114ZM80.5055 166.191C85.7818 171.372 94.59 172.858 101.61 170.08C119.635 162.924 110.812 140.604 96.9111 134.611C95.1745 134.199 92.8551 133.224 90.74 133.002C90.6674 132.969 90.5631 132.984 90.4341 133.004C90.2216 133.036 89.9417 133.079 89.6279 132.927C74.2996 134.553 70.809 157.163 80.5055 166.191ZM164.552 173.809C155.563 177.276 144.561 174.975 138.644 167.517C127.599 153.766 138.197 130.449 163.862 139.613C176.012 147.372 182.31 167.164 164.552 173.809ZM177.139 150.992C177.156 150.985 177.172 150.981 177.189 150.973C177.095 150.934 177.002 150.895 176.908 150.855C176.939 150.93 176.972 151.005 177.001 151.081C177.047 151.051 177.088 151.016 177.139 150.992Z" fill="#FF9500"/>
</svg>
