<svg width="460" height="537" viewBox="0 0 460 537" fill="none" xmlns="http://www.w3.org/2000/svg">
<path fill-rule="evenodd" clip-rule="evenodd" d="M11.0213 300.877C17.4445 301.508 23.8677 302.138 30.2909 302.77C61.0535 305.121 91.8039 310.033 122.331 312.98C123.091 311.743 124.579 311.947 125.482 312.807C128.528 312.54 131.942 310.21 134.701 312.633C134.791 312.621 134.881 312.606 134.971 312.597C139.884 303.162 143.28 293.098 146.576 283.021C148.68 276.825 151.51 270.828 156.741 266.668C165.667 260.468 186.12 247.895 196.601 248.424C196.775 246.546 197.65 244.611 199.086 243.36C195.92 237.959 208.579 234.436 209.472 235.062C208.9 217.018 217.382 201.349 236.086 197.755C252.842 194.262 276.675 193.675 285.687 211.197C286.677 211.085 296.803 211.032 297.783 211.142C299.306 209.212 316.035 227.505 309.179 233.873C370.477 261.006 405.332 257.768 422.298 334.046C424.592 341.211 424.759 349.053 427.181 356.058C435.798 376.192 442.787 397.63 444.527 419.537C448.728 420.615 449.211 428.026 444.345 429.098C442.486 429.508 440.932 430.068 439.576 431.13C440.636 449.083 436.297 490.093 433.562 489.967C427.988 507.72 403.121 512.73 385.516 506.491C388.55 512.204 385.516 515.797 385.516 518.849C322.168 521.247 252.904 519.866 189.575 523.155C181.474 523.04 172.953 525.146 164.963 523.934C160.09 522.765 160.082 515.098 165.025 514.15L143.427 509.457C143.91 509.274 134.525 503.028 127.431 491.356C120.829 478.298 125.323 462.537 122.331 448.334C98.9651 446.422 75.213 445.604 52.1029 441.645C48.9518 451.078 35.3115 439.796 30.9758 435.258C30.9812 435.25 30.9866 435.244 30.992 435.236C28.8937 434.662 27.211 432.694 27.1548 430.365C25.6832 428.261 25.3743 425.296 26.7855 423.262C20.3177 385.919 10.4575 347.79 6.89355 310.095C5.63367 309.816 4.4472 309.264 3.44128 308.412L3.5228 308.33C1.81848 306.429 1.48706 303.148 4.32831 301.532C6.62024 300.228 8.53394 300.632 11.0213 300.877Z" fill="#FAFAFA"/>
<path fill-rule="evenodd" clip-rule="evenodd" d="M284.519 207.128C282.61 202.328 276.158 204.194 276.878 209.236C277.308 212.256 278.961 215.446 280.446 218.093C281.655 220.248 283.034 222.35 284.904 223.965C281.576 227.073 278.12 230.067 274.578 232.91C270.712 236.011 266.647 238.87 262.445 241.498C258.761 243.803 254.91 245.844 251.436 248.474C248.207 250.918 245.265 253.858 243.768 257.696C242.174 261.783 242.867 266.004 244.041 270.088L244.176 270.55C245.376 274.596 247.452 279.474 244.573 283.286C243.107 285.227 240.975 286.602 239.135 288.153C237.5 289.532 235.964 291.032 234.556 292.643C231.486 296.155 228.989 300.106 227.414 304.509L227.273 304.909C225.922 308.807 224.935 313.581 226.76 317.408C227.284 318.505 228.972 318.148 229.266 317.08C229.929 314.661 229.894 312.126 230.45 309.673C231.028 307.12 231.991 304.698 233.248 302.406C235.681 297.972 238.975 294.185 242.868 290.983L244.033 290.035C247.069 287.542 249.859 284.897 250.475 280.77C251.135 276.355 249.367 272.149 248.23 267.971C247.438 265.058 247.179 262.267 248.035 259.635C249.081 261.343 250.508 262.965 251.637 264.411C253.884 267.292 256.153 270.155 258.416 273.024C260.737 275.966 263 278.954 265.155 282.02C266.119 283.391 267.072 284.771 268.023 286.152C268.738 287.19 269.734 288.227 270.514 289.285C270.324 289.852 270.339 290.504 270.682 290.968C274.813 296.554 280.691 284.899 282.224 281.954C285.346 275.958 287.669 269.587 290.801 263.592C294.047 257.377 297.743 251.327 301.862 245.653C304.353 242.221 307.146 238.998 309.425 235.457C314.795 240.329 321.86 243.595 328.351 246.556C335.481 249.81 342.89 252.468 350.201 255.29L352.36 256.129C364.957 261.049 377.863 266.453 388.333 275.191C400.637 285.459 407.916 299.77 413.335 314.59C419.573 331.651 424.734 349.173 429.545 366.683C432.007 375.642 434.343 384.642 436.539 393.67C438.474 401.624 440.078 409.658 442.318 417.53C437.775 417.369 432.594 419.129 428.715 419.637C411.037 421.953 393.598 425.643 376.908 432.033C374.846 432.823 374.25 434.883 374.699 436.553C373.51 436.217 372.322 435.877 371.133 435.543C372.435 433.546 371.814 429.976 371.711 427.762L371.705 427.61C371.6 424.66 371.28 421.708 371.073 418.764C370.678 413.151 370.164 407.58 369.48 402L369.306 400.605C368.531 394.534 367.958 388.428 367.113 382.367L367.013 381.673C367.419 380.123 367.891 378.591 368.386 377.066C369.706 373.004 371.568 369.18 373.201 365.246C373.393 364.783 372.734 364.517 372.426 364.795C369.661 367.283 367.465 370.44 365.701 373.742C365.67 373.586 365.643 373.43 365.611 373.275L365.41 372.283C364.914 369.865 364.31 367.321 362.827 365.36C362.669 365.152 362.357 365.108 362.208 365.36C360.789 367.762 360.63 370.804 360.412 373.538C360.165 376.63 360.134 379.761 360.178 382.862C360.263 388.922 360.69 394.999 361.03 401.048C361.363 406.993 362.019 412.863 362.863 418.749L363.023 419.853C363.436 422.655 363.774 425.492 364.318 428.275L364.472 429.032C364.763 430.412 364.942 432.358 365.522 433.974C350.615 429.814 335.686 425.749 320.729 421.755C309.918 418.868 299.096 416.024 288.279 413.163C287.708 412.133 286.997 411.172 286.11 410.313C283.188 407.481 279.315 406.217 275.763 408.397C275.474 408.575 275.449 409.028 275.763 409.199C276.443 409.571 277.125 409.953 277.795 410.351L271.299 408.591C266.444 407.274 261.531 405.629 256.562 404.711C247.41 400.192 237.566 396.92 227.924 393.687L226.788 393.303C221.851 391.619 216.745 389.733 211.645 388.8C207.911 388.117 203.528 388.941 202.026 392.769C200.125 394.022 198.337 395.495 196.611 396.944C195.363 397.991 194.167 399.104 192.95 400.188L192.726 400.385C191.732 401.248 190.944 401.827 190.7 403.201C190.574 403.91 191.025 404.87 191.9 404.776C194.576 404.489 196.753 401.385 198.569 399.531C199.971 398.097 201.385 396.616 202.665 395.041C203.411 395.447 204.434 395.374 204.909 394.474C207.373 389.807 214.12 393.041 217.854 394.148L223.202 395.732C225.876 396.525 228.549 397.322 231.218 398.133C238.552 400.361 245.85 402.855 253.25 404.902C252.588 405.63 252.679 406.926 253.937 407.419C259.73 409.693 266.085 410.869 272.103 412.429C275.903 413.416 279.7 414.408 283.496 415.405C284.147 416.461 284.616 417.654 284.813 419.044C285.537 424.152 284.14 430.047 282.779 434.988L282.574 435.725C281.455 439.698 279.809 444.568 276.384 447.077C275.548 447.688 274.483 448.114 273.409 448.21C266.704 444.757 259.999 441.304 253.29 437.857C252.047 437.218 250.898 438.083 250.62 439.111C248.254 438.722 245.894 438.11 243.744 437.38C240.132 436.153 237.312 433.812 233.925 432.193C227.373 429.061 220.682 432.908 214.816 435.833L213.464 436.498C210.833 437.775 205.36 440.228 204.097 436.735C202.877 433.356 206.737 429.744 209.23 428.223C212.201 426.41 215.661 425.44 219.019 424.631C220.937 424.169 222.878 423.793 224.831 423.518C227.046 423.206 229.333 423.253 231.466 422.534C232.526 422.177 232.689 420.493 231.466 420.215C228.183 419.467 224.265 420.283 220.839 421.116L219.049 421.557C215.597 422.405 212.112 423.469 208.969 425.159C206.683 426.389 204.27 428.257 202.694 430.543C201.325 429.271 199.621 429.314 197.847 429.786L196.883 430.054C195.293 430.495 194.004 430.798 192.456 430.493C192.249 429.366 192.039 428.239 191.815 427.112C189.61 416.033 187.191 404.997 184.522 394.02C179.919 375.085 174.592 356.358 168.587 337.823L167.984 335.97C166.599 331.731 165.484 327.112 163.251 323.217C161.139 319.535 157.756 317.413 153.736 316.29C149.173 315.015 144.38 314.348 139.726 313.487C138.688 313.295 137.647 313.113 136.608 312.925C137.486 311.338 138.141 309.537 138.732 308.155L138.835 307.916C140.104 305.022 141.243 302.077 142.343 299.115L143.166 296.889C145.153 291.528 147.204 286.255 149.997 281.241C152.937 275.964 156.837 271.65 161.699 268.079C171.613 260.798 183.561 257.084 193.176 249.304C193.57 248.985 193.065 248.44 192.665 248.642C186.173 251.906 179.164 254.125 172.411 256.782L171.079 257.308C165.742 259.425 160.322 261.73 155.702 265.158C150.551 268.98 146.495 273.727 143.446 279.372C140.441 284.936 138.519 291.164 136.399 297.107L135.832 298.69C134.977 301.065 134.094 303.432 133.082 305.743C132.278 307.578 130.779 309.672 130.097 311.768C128.233 311.444 126.369 311.12 124.502 310.808C84.0781 304.054 43.2021 300.086 2.23535 298.926C0.632629 298.88 -0.196411 300.41 0.0397644 301.809C3.97122 325.071 7.465 348.412 11.2984 371.691C12.9717 381.851 14.6784 392.004 16.425 402.151C17.3098 407.292 18.3328 412.413 19.1708 417.562C19.8473 421.72 20.3385 425.91 21.5 429.972C22.5417 433.614 24.1404 437.125 26.766 439.904C29.5963 442.899 33.5467 444.349 37.5231 445.034C47.6176 446.772 57.9717 447.482 68.1481 448.64L122.328 454.808C121.536 462.008 121.477 469.097 121.84 476.382L122.047 480.359C122.217 483.558 122.419 486.761 122.878 489.927C123.454 493.898 125.269 497.261 127.944 500.227C130.399 502.951 133.382 505.275 136.284 507.502C139.296 509.815 142.409 512.047 145.95 513.477L146.41 513.659C149.517 514.873 155.345 516.753 159.591 516.066C159.036 518.849 157.962 521.841 158.914 524.595C159.356 525.873 161.027 526.511 162.051 525.423C164.079 523.267 164.238 520.419 164.718 517.606C165.218 514.678 165.649 511.74 166.032 508.795C166.772 503.101 167.348 497.355 167.524 491.612C167.705 485.715 167.635 479.81 167.318 473.919C167.154 470.894 166.952 467.871 166.568 464.865C166.404 463.583 166.237 462.3 166.046 461.022C165.976 460.555 165.899 460.091 165.816 459.628L170.679 460.177C178.135 461.01 185.595 461.762 193.105 461.879C193.994 461.893 194.678 461.487 195.125 460.897C195.602 461.674 196.431 462.229 197.619 462.225C208.106 462.186 217.872 458.754 227.41 454.711C232.217 452.672 236.95 450.465 241.765 448.443C246.259 446.556 251.064 445.21 255.45 443.085L266.974 449.133C267.059 449.431 267.167 449.712 267.282 449.947C268.033 451.48 269.512 452.311 271.023 452.937C272.473 453.54 273.975 453.727 275.439 453.575C284.179 458.158 292.921 462.736 301.669 467.304L310.419 471.868C327.853 480.951 345.217 490.182 362.76 499.051L364.052 499.702C370.111 502.742 376.618 505.824 383.342 508.123C383.462 509.827 383.386 511.483 383.244 513.286L383.21 513.678C383.009 515.809 382.579 518.478 384.287 519.994C385.175 520.783 386.762 520.786 387.367 519.597C388.463 517.44 387.479 514.041 387.131 511.698C387.008 510.865 386.858 510.008 386.636 509.178C394.345 511.474 402.287 512.587 410.132 511.298C417.77 510.044 423.686 505.229 428.455 499.34C433.488 493.125 437.064 485.883 438.983 478.119C441.167 469.284 441.31 460.161 441.259 451.112C441.204 441.476 440.848 431.792 439.677 422.22C440.96 421.918 442.383 421.657 443.68 421.747C444.322 422.776 445.568 423.209 446.694 423.075C449.143 425.777 442.932 428.538 440.948 429.23C440.259 429.47 440.332 430.59 441.127 430.556L441.628 430.532C444.695 430.369 447.863 429.845 449.666 426.994C451.111 424.708 450.677 422 448.954 420.136C447.817 409.374 445.097 398.893 442.566 388.394C440.082 378.089 437.319 367.85 434.392 357.663L433.079 353.104C428.469 337.13 423.651 321.028 417.292 305.69C414.116 298.031 410.458 290.513 405.5 283.835C400.878 277.609 395.421 272.282 389.149 267.733C377.456 259.25 363.735 254.125 350.254 249.242L349.65 249.024C342.664 246.495 335.695 243.936 328.788 241.196C322.68 238.774 316.828 235.702 310.749 233.242C310.946 232.884 311.137 232.521 311.321 232.154L311.433 232.249C311.452 232.264 311.472 232.279 311.492 232.293C312.104 232.717 313.004 232.508 313.508 232.032C314.93 230.689 314.449 229.198 313.499 227.806L313.375 227.628C312.214 226 311.178 224.279 310.106 222.592L309.435 221.537C307.636 218.719 305.745 215.882 303.346 213.552C302.235 212.473 301.018 211.666 299.73 211.064C299.84 210.831 298.874 210.354 298.6 210.594C294.517 209.099 289.819 209.412 285.368 209.824M124.95 455.105L130.626 455.751C136.872 456.462 143.12 457.15 149.368 457.831L162.94 459.307C162.975 460.081 163.069 460.838 163.086 461.423C163.175 464.437 163.241 467.453 163.303 470.468C163.429 476.512 163.291 482.561 162.894 488.594C162.508 494.439 162.001 500.285 161.212 506.09L161.05 507.251L160.957 507.861C160.313 507.923 159.681 508.229 159.155 508.858C158.007 510.229 153.85 508.896 152.226 508.318C149.557 507.368 147.043 505.762 144.723 504.151C142.458 502.579 140.418 500.745 138.457 498.814L136.854 497.226C135.258 495.64 133.661 493.95 132.683 491.955C131.358 489.249 131.186 485.927 130.798 482.98C130.319 479.354 129.749 475.73 129.147 472.123M289.745 417.053L290.334 417.208C311.723 422.895 333.081 428.75 354.536 434.186C365.154 436.877 375.822 439.371 386.453 442.01L388.174 442.441C396.56 444.562 405.047 447.115 411.469 453.201C411.707 453.425 412.051 453.081 411.828 452.843C404.906 445.47 395.062 442.349 385.61 439.644C383.863 439.144 382.114 438.655 380.366 438.158C393.221 433.573 406.278 429.584 419.636 426.739C423.076 426.006 426.556 425.468 429.993 424.732C432.39 424.219 434.731 423.477 437.103 422.862L438.968 422.392L438.993 428.292C439.024 436.648 439.009 444.997 438.583 453.352L438.502 454.9C438.005 464.198 437.229 473.689 433.932 482.456C431.252 489.58 426.981 496.291 421.396 501.48C418.569 504.106 415.531 506.15 411.775 507.159C408.287 508.096 404.633 508.205 401.048 507.956C383.852 506.755 368.545 497.408 353.607 489.669C329.174 477.011 304.738 464.359 280.28 451.75C280.941 451.297 281.564 450.776 282.13 450.19C285.41 446.801 287.14 442.162 288.276 437.668C289.486 432.885 290.209 427.759 290.293 422.822M258.625 456.636C258.409 456.52 258.159 456.665 258.149 456.909C258.073 458.778 259.105 460.622 259.877 462.306L259.958 462.485C260.895 464.571 261.921 466.629 262.983 468.654C265.103 472.701 267.308 476.705 269.608 480.652C274.234 488.592 279.375 496.198 285.451 503.111C286.823 504.673 289.08 502.671 288.2 500.989C283.953 492.883 279.003 485.229 273.907 477.641C271.356 473.843 268.807 470.04 266.231 466.259C265.156 464.681 264.068 463.108 262.95 461.56L262.276 460.634M4.94421 303.568C26.4085 304.217 47.8475 305.618 69.2097 307.813C89.0766 309.854 108.871 312.571 128.553 315.959C132.664 316.666 136.77 317.402 140.871 318.168L143.331 318.631C147.432 319.409 152.443 319.73 156.095 321.922C159.945 324.233 160.985 329.064 162.266 333.047C163.772 337.732 165.24 342.43 166.668 347.139C172.339 365.838 177.52 384.698 182.142 403.683C184.436 413.107 186.471 422.583 188.616 432.041C190.521 440.444 192.624 448.753 194.82 457.072C194.549 456.861 194.218 456.701 193.817 456.616C182.909 454.294 171.776 453.284 160.705 452.001L159.634 451.876C148.182 450.529 136.73 449.191 125.271 447.902L49.4044 439.365C44.93 438.862 40.1367 438.793 35.7823 437.592C28.3793 435.549 26.644 427.267 25.4019 420.672L25.3644 420.472C21.6197 400.545 18.6387 380.445 15.1462 360.467M193.055 433.907C196 433.713 200.031 431.014 202.266 431.207C201.093 433.177 200.564 435.423 201.24 437.822C203.121 444.498 211.631 441.044 215.729 439.005C219.09 437.332 222.335 435.285 226.056 434.501C230.27 433.614 233.126 435.291 236.687 437.224C239.612 438.812 242.797 439.952 246.072 440.542C247.814 440.856 249.469 440.89 251.12 440.767C251.219 440.848 251.331 440.923 251.459 440.99L252.333 441.449C248.383 441.63 244.359 442.85 240.683 443.966C236.874 445.123 233.135 446.518 229.415 447.944L225.756 449.351C216.73 452.809 207.387 456.093 197.619 456.065C196.917 456.063 196.342 456.257 195.889 456.575M209.534 412.989C206.624 412.633 203.939 413.015 201.613 414.91C198.809 417.196 196.925 420.987 192.894 421.236C191.719 421.308 191.446 422.962 192.614 423.307C195.615 424.196 198.044 422.572 200.089 420.463L201.463 419.026C203.483 416.932 205.347 415.314 208.775 415.439C212.447 415.573 216.124 416.422 219.772 416.854C223.904 417.343 228.035 417.76 232.18 418.119C232.373 418.136 232.406 417.832 232.225 417.788L227.583 416.632M212.343 401.086L211.863 401.038C207.638 400.627 203.773 400.611 200 402.886L199.276 403.324C195.873 405.393 192.17 407.831 190.042 411.181C189.694 411.73 190.269 412.375 190.852 412.235C194.941 411.253 197.931 408.251 201.37 406.004C205.229 403.483 209.216 403.899 213.617 404.29C217.877 404.67 222.136 405.191 226.355 405.902C230.319 406.569 234.296 407.622 238.3 407.958L238.299 407.95C238.757 407.949 239.018 407.261 238.551 407.028C234.488 404.998 229.781 404.037 225.361 403.109M357.035 286.116C357.04 285.782 356.57 285.657 356.406 285.946C353.656 290.786 352.219 296.719 350.755 302.051C349.221 307.637 347.982 313.279 346.87 318.963C344.617 330.472 343.416 341.916 343.335 353.646C343.324 355.321 346.05 355.766 346.317 354.05C348.088 342.64 349.785 331.218 351.569 319.81C352.467 314.073 353.512 308.358 354.512 302.637M329.817 294.546C330.019 293.879 329.048 293.655 328.8 294.266C323.283 307.818 321.414 323.176 324.956 337.473C325.498 339.66 328.7 338.713 328.291 336.553M258.647 282.504C258.675 282.005 258.026 281.926 257.782 282.27C255.168 285.956 254.083 290.892 249.496 292.797C247.206 293.748 244.629 293.582 242.606 295.189C241.253 296.263 240.216 297.959 241.231 299.586C241.559 300.112 242.476 300.375 242.92 299.804C243.569 298.972 243.912 297.975 244.793 297.351C246.036 296.471 247.712 296.417 249.137 296.003C250.98 295.468 252.605 294.533 253.936 293.142M214.97 221.028C214.7 220.891 214.441 220.979 214.269 221.212C214.023 221.544 214.053 221.867 214.355 222.095C213.952 222.918 213.477 224.981 213.409 225.281C213.133 226.498 212.841 227.708 212.534 228.917C211.916 231.355 211.375 233.812 210.756 236.251C210.1 238.836 209.319 241.394 208.449 243.915C208.393 244.078 208.332 244.245 208.267 244.414L208.168 244.67L208.144 244.631C207.967 244.351 207.599 244.547 207.642 244.842C207.683 245.111 207.737 245.379 207.783 245.648L207.692 245.889C207.123 247.421 206.734 249.034 207.777 250.386C208.168 250.891 208.597 251.191 209.133 251.28C209.991 254.111 211.068 256.889 212.221 259.557L212.559 260.337C214.255 264.23 216.063 268.072 218.763 271.387C221.712 275.006 225.767 277.477 228.335 281.442C229.529 283.287 230.361 285.226 231.036 287.309L231.289 288.1C231.768 289.573 232.321 291.001 233.702 291.866C234.143 292.141 234.803 292.053 235.159 291.677C237.991 288.679 235.026 283.081 233.318 280.178C230.944 276.142 227.508 273.56 224.067 270.514C220.358 267.232 217.992 262.84 215.704 258.515C214.303 255.864 212.949 253.157 211.525 250.495C213.013 249.179 213.49 246.564 213.994 244.747L214.04 244.584C214.873 241.674 215.535 238.688 215.954 235.689C216.356 232.805 216.524 229.963 216.418 227.063L216.387 226.325M209.436 234.753C209.765 234.302 209.22 233.791 208.769 233.885C206.026 234.452 203.344 236.114 200.882 237.457L200.619 237.6C198.654 238.66 196.676 239.959 195.645 242.019C194.522 244.258 194.615 246.837 194.768 249.27L194.782 249.498C194.97 252.416 195 255.448 195.617 258.313C195.933 259.78 197.26 260.193 198.395 259.846C199.746 264.113 203.539 267.256 206.31 270.623C209.843 274.915 209.178 280.71 208.809 285.88C208.659 287.973 211.261 288.568 212.601 287.451L215.689 284.884C216.204 284.456 216.717 284.027 217.229 283.596C217.668 283.226 218.103 282.854 218.534 282.477L219.178 281.908C219.464 281.653 220.724 280.244 221.092 280.186C221.984 280.044 224.104 282.397 224.83 283.135L224.922 283.227C226.287 284.567 227.521 286.009 228.671 287.538C228.882 287.819 229.295 287.585 229.144 287.261C228.114 285.054 226.917 282.943 225.495 280.968L225.208 280.575C224.262 279.299 222.992 277.047 221.322 276.67C219.283 276.21 217.248 278.256 215.764 279.392L215.67 279.463C214.964 279.993 214.267 280.532 213.57 281.075C213.643 277.226 213.158 273.337 211.172 270.02C209.771 267.681 207.673 265.949 205.878 263.939C203.879 261.7 202.836 258.949 201.027 256.618C200.794 256.318 200.473 256.157 200.125 256.106C200.055 254.232 199.779 252.339 199.566 250.485L199.505 249.93C199.289 247.916 198.78 245.456 199.765 243.569C200.696 241.788 202.832 240.53 204.414 239.321L205.706 238.319M298.462 213.455C299.288 213.933 300.06 214.527 300.761 215.27C302.965 217.61 304.541 220.523 306.075 223.324C306.901 224.833 307.697 226.358 308.53 227.863C308.892 228.518 309.265 229.166 309.641 229.813C309.815 230.111 310.332 230.703 310.589 231.068C310.304 231.467 310.009 231.861 309.709 232.25C309.594 232.398 301.686 241.018 298.929 244.392C294.708 249.559 290.935 255.018 287.709 260.86C284.551 266.581 282.146 272.638 279.22 278.47C277.755 281.39 276.12 284.289 274.035 286.816C273.954 286.915 273.869 287.008 273.787 287.105C272.991 284.954 270.952 282.651 269.951 281.329L269.857 281.204C267.586 278.14 265.188 275.169 262.737 272.249C260.499 269.582 258.203 266.972 255.853 264.406L254.969 263.446C253.331 261.675 251.25 259.027 248.853 257.762C249.11 257.304 249.407 256.85 249.749 256.403C251.995 253.466 255.171 251.334 258.304 249.411L260.336 248.174C267.996 243.503 275.536 238.616 282.186 232.548C285.704 229.337 289.173 225.973 292.13 222.228L293.176 220.904M285.682 211.143C289.269 211.444 293.142 211.372 296.457 212.541C293.51 215.329 290.709 218.339 287.832 221.173C287.576 219.256 287.052 217.362 286.609 215.493" fill="#343434"/>
<path d="M104.546 363.694C101.515 360.175 97.5207 357.664 93.2046 356.563C88.8885 355.463 84.5011 355.837 80.7469 357.626C76.9927 359.415 74.0895 362.514 72.5036 366.427C70.9176 370.339 70.741 374.838 72.0019 379.2C73.2629 383.562 75.8884 387.535 79.4567 390.48C83.025 393.426 87.3291 395.172 91.6778 395.44C96.0266 395.708 100.168 394.482 103.436 391.958C106.704 389.434 108.911 385.759 109.7 381.523L90.5959 375.71L104.546 363.694Z" stroke="#FF9500" stroke-width="6"/>
<path fill-rule="evenodd" clip-rule="evenodd" d="M181.62 75.4244C195.139 56.8056 220.032 51.4513 241.619 55.9797C283.821 63.6773 324.141 95.8939 331.598 139.708C343.231 166.215 335.802 207.966 301.969 211.085C297.152 211.357 292.38 210.247 287.555 210.846C258.104 215.553 223.303 235.703 197.233 211.94C195.927 212.877 194.205 213.33 192.74 212.763C181.644 208.472 181.123 196.06 180.177 185.857C178.955 172.673 177.809 159.482 176.74 146.286C176.358 123.528 167.343 95.0892 181.62 75.4244Z" fill="#FAFAFA"/>
<path fill-rule="evenodd" clip-rule="evenodd" d="M263.44 27.9811C245.672 27.0359 212.934 35.1791 197.433 44.7261C172.176 60.281 170.219 91.3099 171.249 96.675C171.64 98.7225 172.891 100.617 174.848 99.9877C173.188 114.084 173.318 122.142 173.039 136.32L172.848 145.785C172.723 152.096 172.616 158.407 172.589 164.72C171.951 164.482 171.321 164.774 171.087 165.387C171.029 165.536 171.231 165.617 171.33 165.531C172.454 164.549 171.654 166.786 171.267 167.241C170.732 167.867 169.841 168.457 169.216 168.992L167.518 170.463L165.82 171.931C163.626 173.825 161.504 175.723 159.458 177.763L158.901 178.323C155.172 182.113 150.499 185.78 148.177 190.682C145.96 195.363 146.644 200.67 150.328 204.401C151.668 205.756 153.233 206.791 154.934 207.575C151.907 212.562 151.466 219.156 154.623 224.286C157.786 229.436 163.867 232.132 169.724 231.718C169.904 232.452 170.183 233.167 170.552 233.846C172.874 238.117 177.494 238.671 181.874 238.443L182.045 238.433C191.905 237.866 201.392 235.395 210.028 230.593C213.024 230.795 215.696 228.333 216.281 225.632C217.855 225.574 219.439 225.443 221.053 225.259C225.844 224.705 230.756 223.675 234.98 221.24C235.628 220.866 235.326 219.88 234.607 219.862C229.461 219.745 224.31 220.101 219.173 219.543C214.459 219.034 209.434 217.733 205.04 215.964C197.141 212.778 190.366 207.372 186.628 199.882C181.788 190.187 182.229 178.543 181.703 168.011C181.12 156.353 180.402 144.705 179.635 133.059L179.262 127.476C178.517 116.595 177.9 110.773 176.013 99.4791C181.703 99.9877 205.341 91.4749 212.691 77.5499C226.643 107.173 297.326 95.0495 300.461 140.654C300.487 141.041 301.1 140.933 301.122 140.564L301.18 139.524C301.209 139.011 301.234 138.505 301.252 138.004L301.266 137.503L302.377 137.517C302.377 137.656 302.575 137.706 302.625 137.557C303.673 134.582 308.666 135.541 310.838 136.248C312.795 136.886 314.639 137.868 316.295 139.079C319.619 141.509 322.196 144.781 323.051 148.872C324.675 156.642 319.731 164.554 313.168 168.304C309.03 170.667 304.496 172.192 300.528 174.871C297.024 177.234 293.758 180.002 290.929 183.148C279.719 195.611 273.125 214.515 278.428 230.966C278.833 232.222 279.904 233.657 281.321 233.86C283.664 234.198 286.008 233.856 287.322 231.623C287.834 230.75 288.077 229.755 288.023 228.774C288.932 231.897 291.878 234.986 294.595 236.147C298.297 237.731 302.467 237.258 305.733 235.215L306.145 235.52C311.456 239.432 317.389 242.997 324.194 242.277C329.124 241.755 333.964 239.244 336.69 235.283C340.315 237.322 344.188 238.946 348.183 240.053L348.608 240.17C354.103 241.667 361.113 243.04 366.243 239.999C371.169 237.078 372.806 230.7 371.65 225.376C371.511 224.741 371.335 224.125 371.119 223.526C374.826 223.724 378.528 223.369 382.045 222.279C385.64 221.167 389.067 219.029 390.79 215.564C392.733 211.643 392.216 207.188 390.768 203.195C388.451 196.79 384.726 191.092 380.089 186.127C375.629 181.35 370.249 177.296 364.658 173.917L363.716 173.353C358.683 170.349 352.614 166.83 346.667 167.061C346.685 166.985 346.698 166.912 346.707 166.836C347.607 160.206 347.503 153.446 347.715 146.762C347.908 140.614 348.129 134.465 348.273 128.312C348.507 117.852 348.43 107.347 347.067 96.9586C345.857 87.7406 343.68 78.7517 339.708 70.3123C335.538 61.4459 329.259 53.8797 321.504 47.9294C305.229 35.4392 283.732 29.0613 263.44 27.9811ZM318.719 150.844C316.947 147.5 312.912 146.447 309.372 147.05C304.41 147.896 301.037 152.235 298.14 155.967C295.099 159.878 301.442 163.564 303.074 159.775L303.461 158.879C304.772 155.874 306.32 152.705 308.994 150.745C311.837 148.666 315.849 148.36 318.359 151.123C318.539 151.326 318.841 151.065 318.719 150.844Z" fill="#343434"/>
<path fill-rule="evenodd" clip-rule="evenodd" d="M205.89 187.653C208.943 188.854 212.55 189.138 215.701 188.115C218.714 187.136 221.45 184.958 223.105 182.219C224.58 179.78 225.196 176.885 224.324 173.999C224.283 173.86 224.147 173.772 224.017 173.738C223.304 174.387 222.863 175.032 222.423 175.674C221.681 176.756 220.938 177.827 219.917 178.753C218.432 180.099 216.431 181.192 214.445 181.552C212.501 181.906 210.511 181.594 208.77 180.662C207.711 180.096 206.855 179.34 206.007 178.579C205.084 177.752 204.175 176.911 202.904 176.444C201.885 176.069 200.815 176.385 199.993 177.012C199.109 177.686 198.474 178.74 198.509 179.842C198.564 181.55 199.311 182.974 200.395 184.15C201.86 185.739 203.932 186.883 205.89 187.653ZM209.514 145.097C206.117 147.163 200.942 151.98 204.596 157.102C208.897 161.618 215.09 156.44 218.142 154.098C220.972 152.283 224.151 156.951 221.526 159.07C199.474 175.407 190.524 145.637 207.796 142.668C209.698 142.34 210.404 144.457 209.514 145.097ZM245.242 116.471C240.613 116.249 236.533 118.33 232.121 119.275C228.044 120.149 224.027 119.624 220.061 118.513C213.626 116.708 210.966 126.565 217.313 128.486C221.936 129.885 226.803 129.982 231.546 129.261C235.76 128.62 239.292 126.568 243.309 125.373C246.757 124.348 250.813 124.774 254.454 125.257L255.867 125.447C257.968 125.73 260.08 126.014 262.16 126.425C263.964 126.782 265.766 127.435 267.608 127.51C267.817 127.519 267.994 127.248 267.862 127.066C265.723 124.127 261.599 121.808 258.318 120.261L258.096 120.156C254.046 118.267 249.751 116.686 245.242 116.471ZM246.938 138.146L246.939 138.044C246.933 135.174 245.262 128.621 241.132 128.621C238.553 128.621 236.986 133.081 236.715 137.678L236.706 137.866C236.586 140.724 237.37 146.972 241.132 146.972C244.935 146.972 246.899 141.054 246.938 138.146ZM186.142 138.146L186.142 138.044C186.148 135.174 187.819 128.621 191.948 128.621C194.463 128.621 196.015 132.861 196.342 137.334L196.365 137.678C196.528 140.44 195.795 146.972 191.948 146.972C188.146 146.972 186.181 141.054 186.142 138.146ZM186.205 112.975L185.91 112.982C181.084 113.149 176.121 116.009 174.832 120.814C174.766 121.064 175.073 121.231 175.255 121.06C179.223 117.343 184.56 120.895 188.533 122.757L189.992 123.432C195.114 125.816 200.94 128.619 206.628 126.842C209.329 125.998 211.044 123.221 210.274 120.416C209.588 117.921 206.578 115.823 203.97 116.724L203.852 116.767C201.733 117.578 199.128 116.756 196.94 115.946L195.142 115.271C192.252 114.173 189.348 112.946 186.205 112.975Z" fill="#343434"/>
</svg>
