<svg width="354" height="538" viewBox="0 0 354 538" fill="none" xmlns="http://www.w3.org/2000/svg">
<path fill-rule="evenodd" clip-rule="evenodd" d="M29.4998 393.703C32.3877 384.811 28.948 374.54 31.1962 364.953C31.9667 361.162 33.4312 347.075 34.9017 338.837C35.7243 334.23 30.8032 332.799 30.047 330.96C24.7247 314.439 63.5504 275.572 65.9205 274.14C69.4719 272.083 72.6144 270.313 76.0846 268.212C86.2075 264.649 98.3464 254.736 107.524 261.103C123.424 237.385 117.134 208.163 125.762 204.689C134.39 201.216 159.869 194.197 174.436 203.16C183.167 209.634 182.523 220.778 186.507 229.968C188.845 234.294 189.994 240.561 192.716 243.383C201.966 252.969 213.5 254.622 226.394 256.249C227.376 256.373 228.409 253.697 229.364 254.027C251.114 261.561 276.423 263.759 301.056 305.939C304.535 311.972 313.92 321.651 310.782 328.622C331.458 376.8 351.802 485.238 295.069 512.281C293.256 513.444 280.953 507.211 278.949 507.269C275.607 507.365 282.01 515.495 278.949 514.046C256.475 515.755 132.817 511.347 85.4165 515.755C52.8209 515.51 32.1757 521.237 24.6491 515.51C27.658 508.224 27.5185 500.42 26.5673 492.717C19.6403 487.552 28.2035 451.15 27.4787 440.49C20.9944 432.701 26.1574 403.488 29.4998 393.703Z" fill="#FAFAFA"/>
<path fill-rule="evenodd" clip-rule="evenodd" d="M39.834 340.383C42.9435 344.915 45.8004 349.58 48.3829 354.433C49.7146 356.936 50.9568 359.489 52.0751 362.094C52.3075 356.462 52.3585 350.763 53.0155 345.187C53.0626 344.784 53.7325 344.589 53.8029 345.08C54.5286 350.136 54.6482 355.324 54.9225 360.435C55.2383 360.338 55.5872 360.282 55.9717 360.282C59.7036 360.282 63.3794 360.588 67.098 360.89C68.7644 361.025 70.5077 361.129 72.2074 361.395C70.8394 359.881 69.5652 358.282 68.3891 356.613C67.1896 354.912 65.8186 352.253 67.9088 350.619C70.2175 348.814 74.7451 351.175 76.9786 352.093C78.109 352.557 79.2178 353.063 80.3093 353.601C81.6876 349.732 85.9124 349.219 89.5342 349.753C92.1163 350.135 94.6229 351.02 97.1394 351.694C100.334 352.549 103.543 353.354 106.763 354.11C112.562 355.47 118.4 356.659 124.266 357.689C124.422 357.508 124.637 357.366 124.924 357.294C126.932 356.791 129.149 357.176 131.209 357.214C133.327 357.254 135.446 357.251 137.564 357.207C141.348 357.129 145.129 357.098 148.912 357.032C149.988 356.379 151.351 355.441 151.685 354.212C152.102 352.677 150.8 350.978 150.196 349.671C147.875 344.656 147.063 339.043 147.974 333.581C148.136 332.607 148.471 331.542 148.954 330.544C144.808 330.989 140.717 331.29 136.549 331.427C128.227 331.698 119.905 331.983 111.579 332.044C94.9317 332.169 78.2839 332.17 61.6366 332.048C52.2237 331.979 42.8325 331.892 33.4314 331.41C34.1976 332.383 34.9427 333.378 35.6701 334.387C35.8204 334.342 36.0169 334.423 35.994 334.61C35.9867 334.675 35.9789 334.74 35.9712 334.805C37.2985 336.663 38.5762 338.55 39.834 340.383ZM58.3448 512.851C62.2137 512.727 66.0817 512.604 69.9501 512.48C77.5436 512.238 85.1371 511.996 92.7301 511.754C107.773 511.274 122.816 510.811 137.861 510.395C152.87 509.981 167.887 509.542 182.9 510.011C197.948 510.482 212.957 511.698 227.976 512.675C236.326 513.217 244.682 513.687 253.047 513.913C261.014 514.126 269.052 513.803 277.006 514.372C277.274 512.402 277.077 510.436 277.106 508.474C274.497 506.963 271.936 505.358 269.405 503.781C260.177 498.029 251.454 491.523 243.226 484.41C241.962 483.317 240.722 482.2 239.494 481.072C240.348 482.942 239.665 485.354 237.216 486.146C234.23 487.111 231.173 486.769 228.071 486.695C224.922 486.621 221.773 486.551 218.623 486.484C212.468 486.354 206.312 486.236 200.156 486.133C188.13 485.931 176.103 485.782 164.076 485.684C139.879 485.488 115.699 485.819 91.5052 486.256C84.7021 486.379 77.906 486.532 71.1029 486.377C67.6993 486.3 64.2818 486.276 60.882 486.092C58.1582 485.945 55.4179 485.558 52.6946 485.211C52.3512 489.964 51.9922 494.716 51.5923 499.464C51.3275 502.6 51.0554 505.735 50.7867 508.871C50.6765 510.163 50.6683 511.484 50.4865 512.713C53.101 512.856 55.6996 512.935 58.3448 512.851ZM55.6844 378.641C55.7795 382.279 55.83 385.919 55.8559 389.56C56.17 389.38 56.5237 389.248 56.9224 389.188C61.1532 388.541 65.6804 389.031 69.9609 389.104C74.0984 389.173 78.2502 389.15 82.3839 389.345C86.5258 389.541 90.6659 389.775 94.8069 389.99C96.7498 390.092 98.6715 390.179 100.599 390.442C101.92 390.623 103.609 390.61 105.021 390.986C99.1008 385.242 93.2131 379.463 87.3093 373.702C87.1326 373.529 87.0048 373.346 86.9154 373.16C82.9787 370.757 79.2001 368.051 75.7783 364.954C73.0644 366.002 69.9752 366.134 67.098 366.368C63.3786 366.671 59.705 366.977 55.9717 366.977C55.7195 366.977 55.4832 366.952 55.2607 366.908C55.4435 370.817 55.5821 374.726 55.6844 378.641ZM209.389 449.316C200.351 452.208 190.56 452.175 181.158 452.754C171.134 453.372 161.126 453.885 151.092 454.277C131.05 455.057 111.021 456.118 90.983 456.961C79.537 457.443 68.0936 457.974 56.6524 458.551C55.8408 458.592 55.0668 458.383 54.3839 458.002C53.9999 465.551 53.5498 473.098 53.0258 480.64C52.9606 481.583 52.8881 482.526 52.8211 483.469C58.2061 482.792 63.5501 482.144 68.9752 481.686C75.0673 481.17 81.1563 480.735 87.257 480.329C99.1453 479.54 111.053 478.482 122.962 478.097C147.241 477.311 171.573 477.578 195.86 477.751C202.733 477.8 209.604 477.867 216.476 477.95C219.912 477.992 223.347 478.038 226.783 478.087C230.236 478.138 233.947 477.778 237.216 478.986C237.247 478.997 237.273 479.014 237.304 479.026C227.441 469.661 218.605 459.312 209.389 449.316ZM177.619 419.377C162.515 422.132 147.175 421.943 131.865 422.216C116.2 422.495 100.514 422.31 84.8459 422.343C75.9459 422.361 66.9693 422.753 58.1011 421.96C57.0533 421.866 56.2412 421.468 55.662 420.903C55.5004 430.354 55.2046 439.802 54.7964 449.245C55.3717 449 55.9998 448.851 56.6524 448.813C76.6728 447.632 96.6945 446.562 116.739 445.908C136.769 445.254 156.822 444.478 176.862 444.721C186.641 444.839 196.983 444.213 206.628 446.348C202.963 442.445 199.219 438.615 195.302 434.947C189.592 429.6 183.5 424.592 177.619 419.377ZM166.079 408.251C166.059 408.228 166.049 408.203 166.034 408.179C165.98 408.219 165.913 408.247 165.826 408.245C151.688 407.926 135.826 412.395 122.603 405.536C116.7 402.474 111.811 397.634 107.065 392.983C107.063 393.017 107.06 393.052 107.057 393.086C107.026 393.464 106.867 393.918 106.485 394.085C104.925 394.771 103.098 394.816 101.424 395.06C99.4978 395.341 97.6063 395.506 95.6634 395.623C91.3799 395.88 87.0968 396.153 82.8119 396.396C78.5366 396.638 74.2418 396.658 69.9609 396.765C65.6683 396.872 61.1714 397.392 56.9224 396.779C56.5323 396.722 56.1855 396.599 55.8775 396.429C55.871 401.937 55.8209 407.444 55.7695 412.949C55.7609 413.846 55.7436 414.743 55.7332 415.639C56.3069 415.113 57.0951 414.744 58.1011 414.656C65.9801 413.961 73.92 414.27 81.8267 414.296C89.5908 414.322 97.3558 414.348 105.12 414.374C120.798 414.426 136.464 414.579 152.139 414.879C159.762 415.024 167.352 415.667 174.863 416.902C171.822 414.126 168.865 411.268 166.079 408.251ZM288.925 508.392C291.819 509.279 294.692 508.894 297.592 509.502C297.771 509.539 297.935 509.608 298.086 509.7C306.771 505.982 312.56 498.521 316.521 490.16C320.697 481.347 323.576 471.927 325.504 462.377C329.479 442.689 329.486 422.275 327.429 402.357C325.407 382.789 321.404 363.327 315.691 344.508C311.768 331.586 306.769 318.532 299.829 306.75C291.814 312.131 285.598 319.878 279.743 327.451C272.746 336.501 266.441 346.078 260.796 356.028C261.38 357.733 261.471 359.871 261.751 361.395C262.29 364.333 262.777 367.307 263.16 370.27C263.979 376.604 264.764 382.941 265.601 389.272C267.256 401.791 269.231 414.276 271.414 426.713C271.591 427.721 271.308 428.573 270.788 429.213C275.117 431.499 279.39 433.887 283.552 436.475C292.704 442.165 301.257 448.794 307.971 457.296C308.146 457.516 307.873 457.812 307.657 457.612C293.257 444.279 275.367 435.908 257.802 427.635C248.826 423.407 239.894 419.112 231.282 414.169C222.276 409.001 213.687 403.16 205.455 396.831C196.055 389.603 187.207 381.701 178.912 373.224C177.935 372.225 178.172 370.974 178.907 370.184C178.659 370.106 178.458 369.89 178.445 369.529C178.246 363.993 176.587 359.276 173.339 354.796C170.326 350.638 166.485 347.212 163.021 343.451C161.482 341.78 160.011 340.038 158.697 338.181C157.345 336.269 156.521 334.158 155.344 332.161C153.969 329.827 152.799 331.019 152.162 333.132C151.44 335.527 151.485 338.332 151.775 340.794C152.082 343.4 152.874 345.94 154.014 348.295C155.085 350.507 156.32 352.757 155.599 355.293C154.415 359.46 149.335 361.873 145.487 362.811C141.202 363.856 136.72 363.653 132.381 363.111C126.947 362.432 121.539 361.438 116.168 360.381C109.948 359.158 103.764 357.745 97.6287 356.15C94.7447 355.399 91.8809 354.413 88.9688 353.792C87.9304 353.571 86.0087 353.238 84.7885 353.781C100.474 363.15 117.575 369.393 134.944 374.832C137.102 375.507 136.217 378.773 134.008 378.232C115.349 373.66 97.7942 365.176 81.0872 355.883C80.8315 355.74 80.6147 355.52 80.4553 355.259C78.7746 354.667 77.0658 354.152 75.3234 353.727C74.5446 353.538 70.5388 352.213 70.0382 352.722C69.3285 353.443 71.7841 355.783 72.3974 356.464C76.7635 361.31 81.9567 365.266 87.5779 368.536C93.28 371.852 99.347 374.496 105.443 376.991C112.271 379.787 119.488 381.984 126.125 385.197C128.762 386.473 126.912 390.809 124.134 389.93C120.554 388.796 117.076 387.13 113.597 385.715C110.641 384.513 107.686 383.312 104.747 382.069C102.698 381.203 100.664 380.307 98.6485 379.372C101.667 382.218 104.686 385.064 107.704 387.912C112.93 392.842 117.896 398.459 124.285 401.918C130.598 405.334 137.799 405.732 144.825 405.658C148.353 405.621 151.865 405.509 155.393 405.651C159.105 405.801 162.402 406.373 165.92 407.543C165.985 407.565 166.032 407.604 166.072 407.648C166.195 407.498 166.404 407.423 166.619 407.55C176.179 413.214 184.894 420.562 193.275 427.824C201.913 435.309 210.04 443.268 217.785 451.676C225.197 459.723 232.551 467.8 240.617 475.204C248.492 482.433 256.908 488.998 265.697 495.073C270.485 498.383 275.392 501.571 280.469 504.421C283.182 505.943 285.937 507.477 288.925 508.392ZM288.121 290.508C284.697 286.654 281.012 283.083 277.113 279.778C275.393 280.289 273.587 280.432 271.767 280.45C268.99 280.478 266.207 280.594 263.43 280.565C258.083 280.51 252.739 280.341 247.39 280.312C236.455 280.252 225.516 280.249 214.581 280.345C213.148 280.357 212.114 279.743 211.476 278.852C209.263 281.366 206.981 283.823 204.681 286.241C200.943 290.169 196.958 293.917 192.717 297.333C193.543 297.338 194.368 297.346 195.189 297.34C198.972 297.314 202.755 297.291 206.537 297.27C214.127 297.228 221.718 297.197 229.308 297.177C244.398 297.137 259.536 297.263 274.606 298.037C278.789 298.252 283.005 298.339 287.173 298.747C289.434 298.969 291.692 299.227 293.951 299.469C294.413 299.518 294.856 299.58 295.291 299.649C293.079 296.465 290.697 293.406 288.121 290.508ZM227.683 256.16C227.785 256.229 227.895 256.291 227.992 256.365C228.214 256.532 228.179 256.834 227.918 256.935C227.569 257.072 227.204 257.175 226.827 257.256C225.683 258.919 224.79 260.974 224.165 262.015C222.372 265.008 220.311 267.858 218.213 270.641C217.792 271.2 217.362 271.753 216.93 272.304C227.087 272.28 237.239 272.332 247.39 272.717C252.735 272.92 258.097 273.09 263.43 273.492C265.623 273.657 267.815 273.934 270.001 274.209C258.624 265.968 245.829 259.675 232.574 255.003C232.592 255.023 232.611 255.038 232.629 255.059C232.921 255.383 232.485 255.804 232.156 255.532C230.432 254.103 228.935 254.774 227.683 256.16ZM176.361 353.025C176.65 353.464 176.934 353.916 177.211 354.38C177.877 353.714 178.807 353.269 180.006 353.232C193.311 352.816 206.611 352.453 219.924 352.444C226.49 352.439 233.115 352.218 239.672 352.543C242.965 352.707 246.256 352.902 249.547 353.089C251.848 353.219 254.292 353.382 256.539 354.049C261.718 344.973 267.466 336.247 273.744 327.903C259.501 329.654 245.013 329.467 230.688 329.953C214.459 330.504 198.221 330.623 181.986 331.008C177.533 331.114 173.079 331.23 168.627 331.355C166.329 331.419 164.031 331.486 161.732 331.555C161.014 331.577 160.271 331.597 159.527 331.577C159.583 331.694 159.64 331.81 159.695 331.925C160.948 334.519 162.524 336.906 164.36 339.121C168.264 343.831 172.98 347.889 176.361 353.025ZM193.817 380.984C194.31 379.611 195.511 378.555 197.424 378.642C208.326 379.138 219.249 379.482 230.138 380.201C235.443 380.552 240.769 380.788 246.065 381.253C248.797 381.493 251.524 381.939 254.243 382.294C256.108 382.538 258.06 382.82 259.849 383.484C259.502 379.647 259.196 375.807 258.931 371.962C258.718 368.872 258.653 365.754 258.67 362.657C258.678 361.089 258.731 359.513 258.806 357.945C258.646 357.978 258.485 357.994 258.327 357.974C258.048 357.94 257.787 357.907 257.545 357.842C255.039 358.825 252.202 359.042 249.547 359.232C246.398 359.456 243.25 359.696 240.101 359.921C233.402 360.4 226.639 360.369 219.924 360.588C206.706 361.02 193.486 361.271 180.266 361.625C180.879 364.262 180.901 366.971 179.919 369.524C180.603 369.297 181.39 369.402 182.062 370.068C185.87 373.837 189.792 377.473 193.817 380.984ZM232.275 409.025C232.544 408.279 233.052 407.594 233.653 407.129C235.965 405.344 240.185 406.372 242.959 406.508C246.244 406.669 249.53 406.83 252.815 406.991C253.812 407.04 258.9 407.3 262.637 408.098C261.865 402.254 261.164 396.401 260.538 390.537C260.406 389.306 260.285 388.075 260.164 386.843C258.403 387.411 256.49 387.619 254.674 387.706C251.953 387.836 249.219 388.055 246.495 388.098C241.053 388.184 235.581 387.915 230.138 387.824C220.337 387.661 210.534 387.192 200.737 386.805C210.573 394.805 220.967 402.105 231.809 408.746C231.963 408.841 232.12 408.931 232.275 409.025ZM263.233 412.492C262.404 412.603 261.583 412.639 260.955 412.703C257.802 413.021 254.698 413.31 251.529 413.357C248.387 413.403 245.245 413.449 242.102 413.495C241.434 413.504 240.766 413.514 240.098 413.524C248.372 418.053 256.9 422.109 265.308 426.381C264.567 421.758 263.876 417.128 263.233 412.492ZM173.073 309.365C154.216 317.395 130.029 318.123 113.824 304.785C112.214 305.226 110.433 305.373 109.011 305.516C105.817 305.838 102.651 306.133 99.4412 306.234C93.1845 306.43 86.9223 306.723 80.663 306.8C68.0007 306.957 55.3376 307.03 42.6749 307.143C41.5972 307.153 40.735 306.824 40.0811 306.296C38.7986 308.474 37.6056 310.707 36.5167 312.997C34.9285 316.338 33.5826 319.789 32.4772 323.319C32.7139 323.278 32.9601 323.249 33.2236 323.244C49.8649 322.956 66.5188 323.436 83.1631 323.505C99.8114 323.575 116.457 323.503 133.105 323.622C137.712 323.655 142.285 323.656 146.881 323.999C149.272 324.177 151.692 324.255 154.061 324.642C154.326 324.685 154.595 324.723 154.867 324.761C158.042 322.902 161.982 323.29 165.61 323.222C169.776 323.143 173.942 323.073 178.108 323.011C186.296 322.889 194.484 322.801 202.673 322.744C218.925 322.633 235.137 323.049 251.378 323.616C259.459 323.898 267.509 324.377 275.485 325.623C276.021 324.928 276.551 324.23 277.094 323.541C282.746 316.363 289.446 307.174 298.747 304.949C298.39 304.367 298.028 303.788 297.66 303.213C291.217 304.915 284.108 304.829 277.525 305.186C269.936 305.597 262.363 305.88 254.765 306.067C239.662 306.439 224.563 306.673 209.457 306.902C205.265 306.966 201.072 307.034 196.88 307.104C194.619 307.141 192.357 307.185 190.095 307.22C188.832 307.239 187.702 307.236 186.499 306.815C185.384 306.426 184.297 305.842 183.219 305.359C182.843 305.19 182.537 304.94 182.287 304.646C179.327 306.418 176.259 308.008 173.073 309.365ZM99.3885 282.665C97.0167 283.325 94.5689 283.434 92.0615 283.624C88.7701 283.873 85.4865 283.915 82.1865 283.937C76.925 283.97 71.6623 283.934 66.4026 283.789C64.1431 283.726 62.8231 282.211 62.4313 280.475C62.3769 280.519 62.3207 280.563 62.2663 280.608C55.8646 285.893 50.0641 291.938 45.1486 298.629C56.9863 298.666 68.8253 298.674 80.6631 298.754C86.9214 298.796 93.1845 299.054 99.4412 299.215C102.511 299.294 105.535 299.549 108.591 299.84C108.652 299.846 108.716 299.851 108.778 299.856C108.454 299.482 108.132 299.102 107.818 298.712C104.165 294.176 101.16 288.586 99.3885 282.665ZM22.4225 520.803C21.3781 517.923 21.7837 514.835 21.8429 511.807C21.9033 508.7 21.9366 505.595 21.947 502.488C21.9673 496.414 22.0083 490.34 22.0752 484.266C22.2108 471.979 22.3525 459.683 22.835 447.403C23.7888 423.128 25.6258 398.912 28.6243 374.799C30.0817 363.076 31.8906 351.381 34.3453 339.824C34.3108 339.777 34.2771 339.73 34.2425 339.683C31.7982 336.41 29.0182 333.385 26.6167 330.089C26.4037 329.797 26.3147 329.422 26.3169 329.043C26.2292 329 26.1411 328.955 26.0517 328.904C24.0596 327.768 25.8586 324.669 27.8503 325.821C27.6205 325.688 30.9283 317.182 31.2786 316.325C32.5377 313.249 33.9536 310.24 35.55 307.325C36.5132 305.566 37.5443 303.844 38.6241 302.154C38.8129 300.892 39.4932 299.722 40.662 299.096C42.7129 296.152 44.9283 293.322 47.2897 290.626C56.9569 279.589 69.0318 270.679 82.2236 264.333C84.1298 263.416 86.0925 262.652 88.0483 261.852C90.1303 260.998 92.0611 259.883 94.1128 258.988C97.4512 257.531 100.747 257.615 104.027 259.157C104.307 259.289 104.106 259.721 103.821 259.647C101.71 259.095 99.547 259.003 97.4305 259.602C95.3568 260.189 93.7802 261.485 91.9686 262.567C88.7421 264.496 85.1349 265.753 81.8275 267.552C77.4542 269.934 73.1801 272.548 69.0918 275.419C73.3279 275.644 77.5669 275.806 81.8073 275.918C84.9565 276.002 88.1045 276.017 91.2494 276.2C93.4877 276.33 95.8155 276.294 98.0525 276.656C97.513 272.94 97.5121 269.191 98.1864 265.571C98.1864 265.57 98.1868 265.569 98.1868 265.567C98.3497 264.695 98.5471 263.83 98.7898 262.974C99.3068 261.153 100.963 260.88 102.166 261.569C102.285 261.481 102.405 261.394 102.52 261.301C103.961 260.128 105.258 258.726 106.385 257.252C108.728 254.19 110.621 250.645 112.055 247.072C113.507 243.454 114.536 239.668 115.543 235.906C116.049 234.02 116.596 232.144 117.111 230.26C117.558 228.622 117.884 226.812 118.706 225.319C118.86 225.04 119.324 225.092 119.398 225.41C119.833 227.28 119.603 229.412 119.523 231.319C119.435 233.435 119.313 235.532 119.032 237.632C118.45 241.99 117.51 246.273 116.003 250.411C114.559 254.379 112.654 258.082 110.066 261.425C108.346 263.646 105.904 266.586 103.075 267.783C102.705 271.952 102.748 276.126 103.73 280.253C105.016 285.656 107.477 290.791 110.859 295.191C117.951 304.416 128.922 309.629 140.368 310.703C152.21 311.814 164.329 309.16 174.97 303.941C186.805 298.136 196.624 289.18 205.443 279.514C210.526 273.941 215.798 268.459 220.509 262.563C221.344 261.518 222.681 259.397 224.266 257.486C222.653 257.471 220.997 257.229 219.569 257.046C216.615 256.666 213.727 256.078 210.84 255.342C205.442 253.966 199.75 252.052 195.033 249.025C185.052 242.618 181.156 234.49 179.825 223.294C179.405 219.754 185.513 218.894 186.082 222.445C186.956 227.903 188.278 230.559 190.016 235.801C191.688 240.841 194.11 242.718 198.739 245.496C203.085 248.104 208.024 249.619 212.811 251.185C215.464 252.052 218.149 252.843 220.824 253.64C222.527 254.148 224.549 254.591 226.277 255.375C227.179 254.582 228.119 253.984 229.066 253.758C228.996 253.641 229.086 253.459 229.261 253.493C229.539 253.549 229.816 253.611 230.095 253.668C230.374 253.688 230.652 253.743 230.93 253.844C247.605 257.462 263.619 265.168 277.198 275.665C277.883 275.951 278.545 276.302 279.175 276.746C279.5 276.974 279.715 277.336 279.777 277.711C281.818 279.381 283.799 281.114 285.713 282.908C301.127 297.354 310.894 316.572 317.731 336.338C324.466 355.811 329.025 376.232 331.532 396.677C334.088 417.518 334.382 438.791 330.676 459.514C328.685 470.641 325.463 481.576 320.707 491.84C316.436 501.057 309.484 511.558 298.564 512.68C298.529 512.715 298.496 512.752 298.457 512.785C294.173 516.32 287.794 513.878 283.315 511.766C282.605 511.431 281.9 511.079 281.199 510.718C281.569 512.147 281.736 513.644 281.814 515.047C281.975 517.96 277.875 518.126 277.099 515.708C270.454 516.879 263.591 516.895 256.87 516.858C249.36 516.816 241.852 516.556 234.351 516.202C219.467 515.498 204.601 514.423 189.707 513.935C159.55 512.945 129.311 515.06 99.1777 516.124C90.7247 516.423 82.2716 516.722 73.8185 517.021C65.1819 517.326 56.5539 517.384 47.9868 518.555C44.8367 518.985 43.6299 515.891 44.5184 513.964C44.2968 512.669 44.5175 511.25 44.6389 509.725C44.8652 506.876 45.079 504.026 45.2794 501.174C45.6708 495.615 46.0487 490.054 46.4073 484.492C47.1338 473.222 47.7588 461.943 48.3669 450.666C49.576 428.243 50.5016 405.803 51.1823 383.359C51.3486 377.888 51.5655 372.415 51.8393 366.948C51.5132 366.43 51.1879 365.911 50.8735 365.386C49.8264 363.636 48.7997 361.875 47.7393 360.133C45.612 356.641 43.4718 353.172 41.2352 349.748C39.3036 346.792 37.311 343.881 35.2291 341.031C32.6443 362.903 30.3469 384.797 29.2921 406.809C28.1306 431.054 27.5142 455.335 27.179 479.604C27.0853 486.385 27.0222 493.165 26.9501 499.946C26.9125 503.477 26.8749 507.005 26.9039 510.536C26.932 513.913 27.4412 517.607 26.2456 520.803C25.5485 522.666 23.1106 522.699 22.4225 520.803Z" fill="#343434"/>
<path fill-rule="evenodd" clip-rule="evenodd" d="M107.809 85.0076C136.218 61.8704 181.743 54.3578 212.153 77.7006C235.781 99.6073 245.56 161.859 241.378 193.14C240.215 213.204 224.918 235.945 202.463 229.6C198.65 229.224 194.947 227.759 191.099 227.452C186.496 226.921 181.858 226.912 177.264 227.562C167.253 228.981 158.379 234.307 148.663 236.797C130.634 241.417 110.518 238.309 94.9995 227.903C43.7167 194.117 66.9464 117.708 107.809 85.0076Z" fill="#FAFAFA"/>
<path fill-rule="evenodd" clip-rule="evenodd" d="M111.593 237.353C111.065 237.171 110.539 236.981 110.016 236.786C109.982 236.907 109.925 237.024 109.86 237.137C109.787 237.319 109.713 237.496 109.632 237.673C110.288 237.678 110.945 237.561 111.593 237.353ZM112.646 13.1394C112.879 12.6161 113.148 12.1141 113.45 11.6289C112.716 11.8674 111.981 12.1963 111.316 12.6205C111.765 12.772 112.206 12.9451 112.646 13.1394ZM224.86 81.5959C224.89 81.5907 224.92 81.5863 224.949 81.5811C224.564 80.5532 223.878 79.5828 223.12 78.882C222.984 78.7561 222.836 78.6396 222.694 78.5193C223.499 79.4798 224.229 80.5043 224.86 81.5959ZM19.5378 189.088C19.9179 185.478 20.4017 181.882 21.028 178.306C21.6284 174.883 22.1338 171.221 23.8745 168.183C25.6022 165.158 27.3343 162.218 29.3899 159.557C29.0966 158.198 28.7074 156.921 28.3709 155.891C26.4272 149.961 24.5133 142.43 28.5524 136.92C29.4897 135.643 30.6339 134.665 31.9431 133.782C32.5003 133.405 33.4242 133.063 33.8523 132.544C34.1546 132.176 34.0505 132.375 34.0639 132.193C34.1373 131.215 31.8481 129.151 31.3124 128.376C30.3099 126.943 29.5631 125.329 28.993 123.68C26.7382 117.153 28.2716 109.963 29.6275 103.423C30.3445 99.9564 31.1349 96.4808 31.3945 92.9403C31.6364 89.6162 31.1829 86.3699 30.9151 83.0631C30.6555 79.7992 30.7246 76.4322 32.1202 73.4107C32.8026 71.939 33.8345 70.6406 35.0919 69.6278C36.3182 68.637 37.8477 68.0613 39.0437 67.0745C40.2363 66.0915 39.8951 64.7632 39.5836 63.4041C39.1565 61.5603 38.6166 59.7294 38.5647 57.825C38.4697 54.5052 39.8217 51.2715 41.9334 48.7616C44.1108 46.1689 47.2208 44.4156 50.5813 44.0217C52.119 43.8399 53.6308 44.1476 55.1598 44.0394C56.6716 43.9355 56.9995 43.1781 57.285 41.793C57.9411 38.6204 57.6737 35.4868 59.2326 32.5262C60.6148 29.8946 63.0729 28.1109 65.7898 27.0596C70.7697 25.1292 76.562 25.5274 81.8148 26.6653C84.9157 17.5244 94.5954 11.5298 104.12 11.4562C105.606 8.92846 108.124 7.04133 110.996 5.93286C115.747 4.09334 120.78 5.16719 125.73 5.16719H125.751C126.248 5.13646 126.745 5.12391 127.241 5.12823C127.708 5.10183 128.175 5.06288 128.641 5.01137C134.274 4.34438 139.846 2.03308 145.426 4.2972C147.914 5.30569 149.893 6.85954 151.145 8.84189C153.032 9.35653 154.895 9.9456 156.721 10.6295C164.639 10.8368 172.483 15.0915 176.487 21.9869C182.124 21.3463 188.24 22.4327 191.968 27.0466C192.939 28.2473 193.691 29.6579 194.189 31.1554C197.99 32.3873 201.508 34.5821 203.81 37.8881C205.91 40.9049 206.313 44.8055 204.893 48.0439C208.286 50.5072 210.938 54.0334 212.215 58.1972C212.991 60.7271 213.107 63.3409 212.607 65.831C216.081 66.6032 219.404 68.0345 222.348 70.1826C225.434 72.4329 229.287 76.0146 229.49 80.1368C229.505 80.4393 229.493 80.7419 229.469 81.0436C236.262 80.5653 243.187 81.7184 247.778 87.175C251.226 91.2691 252.724 96.5414 251.804 101.341C259.886 102.986 267.527 107.219 272.857 113.478C276.731 118.027 280.174 123.81 279.967 130.003C279.902 131.869 279.465 133.747 278.709 135.483V135.487C279.033 136.098 279.366 136.777 279.686 137.5C284.692 141.01 288.329 146.511 290.377 152.575C292.031 157.487 293.071 163.868 291.305 168.867C291.037 169.629 290.696 170.347 290.298 171.013C290.631 171.369 290.946 171.724 291.253 172.083C294.627 176.034 298.044 181.012 297.81 186.452C297.715 188.643 296.903 190.846 295.577 192.655C300.242 197.395 304 203.376 303.628 210.055C303.309 215.868 300.125 221.771 295.137 224.563C295.97 229.043 294.855 233.769 291.374 237.267C289.638 239.015 287.591 240.167 285.422 240.781C284.938 246.057 280.265 250.303 275.302 251.523C274.377 251.753 273.453 251.892 272.533 251.956C268.067 254.151 262.741 253.9 258.184 251.887C256.841 253.597 255.091 254.991 253.053 255.991C252.228 256.398 251.355 256.735 250.444 257.007C244.008 258.916 237.407 256.328 231.78 253.307C231.598 253.212 231.266 253.091 230.972 252.957C230.195 253.827 228.778 254.688 228.039 255.112C225.533 256.553 222.471 257.224 219.594 257.034C216.221 256.809 213.245 255.692 210.489 254.104C210.087 254.173 209.682 254.212 209.275 254.233C206.684 254.372 204.373 253.55 202.295 252.251C200.922 252.433 199.514 252.416 198.088 252.165C194.948 252.965 191.89 251.693 189.432 249.671C188.344 248.775 187.424 247.724 186.439 246.72C185.415 245.676 184.637 245.434 183.441 244.733C180.612 243.075 180.271 238.872 181.498 235.833C181.264 235.302 181.13 234.709 181.13 234.051C181.139 228.311 183.778 223.048 187.017 218.456C188.465 216.409 190.037 214.404 191.761 212.587C193.147 211.128 195.095 208.761 197.146 208.167C197.272 208.077 197.402 207.985 197.531 207.899C197.133 206.505 196.901 205.086 197 203.636C197.104 202.147 197.583 200.736 198.352 199.533C195.773 194.525 194.684 189.032 195.203 183.302C193.104 180.319 191.514 177.026 190.694 173.416C190.188 171.182 189.898 168.832 189.938 166.542C189.955 165.443 190.357 164.053 190.365 162.915C190.305 163.275 189.838 161.933 189.657 161.599C187.575 157.726 184.901 154.705 184.456 150.138C184.197 147.467 184.828 144.516 186.426 142.326C185.402 138.283 185.415 133.942 187.027 130.086C187.458 129.055 187.955 128.047 188.525 127.09C188.262 126.285 188.02 125.472 187.709 124.74C187.588 124.45 187.467 124.156 187.346 123.861C186.176 122.827 185.087 121.697 184.171 120.589C182.141 118.135 180.59 115.322 180.396 112.079C180.301 110.456 180.681 108.903 181.152 107.362C181.359 106.665 181.485 105.89 181.731 105.211C181.869 104.834 182.202 104.449 182.318 104.094C182.344 104.016 182.366 103.951 182.383 103.899C182.366 103.848 182.353 103.739 182.353 103.535C182.349 101.982 182.146 100.462 182.137 98.9652C180.715 100.402 179.005 101.475 177.061 102.103C173.144 103.363 169.057 102.791 165.589 100.848C161.857 103.41 157.663 105.73 153.266 106.661C150.653 107.214 148.035 106.986 145.413 107.327C142.809 107.669 140.29 108.808 137.837 109.695C132.377 111.673 126.931 113.703 121.454 115.629C117.031 117.183 112.245 118.416 107.614 117.542C106.314 119.55 104.625 121.247 102.461 122.494C100.911 123.381 99.209 123.982 97.451 124.281C95.896 124.545 94.0728 124.441 92.812 125.511C91.5809 126.549 90.8121 128.098 89.7063 129.267C88.4749 130.575 86.9549 131.709 85.361 132.522C84.0825 133.176 82.7776 133.647 81.452 133.955C81.5681 136.911 81.6809 139.863 81.7154 142.824C81.7798 149.255 81.7543 155.687 81.8403 162.119C81.9267 168.529 82.1297 174.939 82.4666 181.341C82.7867 187.349 83.2359 193.377 84.6656 199.238C89.4083 218.685 107.174 232.609 127.06 233.319C132.965 233.531 138.809 232.7 144.455 230.96C150.303 229.155 155.525 225.441 161.521 224.299C163.088 224.004 164.566 225.585 163.667 227.103C162.12 229.714 160.242 231.307 157.672 232.877C154.981 234.518 151.983 235.734 149.025 236.799C143.582 238.755 137.824 239.89 132.049 240.205C127.644 240.447 123.22 240.145 118.905 239.314C118.603 240.244 118.067 241.149 117.661 242.01C117.601 242.136 117.398 242.049 117.436 241.919C117.502 241.703 117.544 241.513 117.562 241.357C116.111 243.253 113.869 244.564 111.566 245.2C109.943 245.65 108.219 245.789 106.547 245.599C106.007 245.537 105.494 245.447 104.984 245.335C103.282 246.828 101.105 247.823 98.9196 248.321C99.2949 250.606 98.168 253.099 95.5543 253.749C94.4576 254.021 93.4037 254.026 92.3493 253.926C91.4984 254.324 90.5827 254.636 89.6109 254.848C88.3457 255.125 86.8339 254.77 85.8793 253.853C85.3567 254.22 84.8686 254.476 84.3848 255.06C82.3932 257.467 78.1001 255.549 77.91 252.766C77.2794 252.766 76.6445 252.775 76.0091 252.796C75.8583 252.866 75.7072 252.935 75.5517 253.009C72.7743 254.302 69.8976 255.432 66.826 254.415C66.2607 254.229 65.7423 253.991 65.2715 253.714C63.1075 253.909 60.9737 253.913 58.779 253.203C57.4832 252.783 56.2656 252.117 55.2505 251.243C51.8641 252.238 48.2916 252.688 44.9224 251.454C42.4004 250.533 40.3698 249.078 38.9405 247.161C36.7545 247.239 34.5347 246.711 32.5349 245.668C29.1139 243.893 26.7166 240.521 25.045 237.141C21.3645 229.683 19.1875 221.672 18.3327 213.409C17.4904 205.272 18.6912 197.178 19.5378 189.088Z" fill="#343434"/>
<path fill-rule="evenodd" clip-rule="evenodd" d="M111.427 205.735C114.188 205.758 117.292 204.719 119.367 203.906L119.908 203.692C121.705 202.971 123.55 202.143 124.926 200.754C125.366 200.303 125.834 199.792 126.072 199.255C126.211 198.94 126.269 198.615 126.135 198.291C125.637 198.242 125.166 198.178 124.719 198.096C124.506 198.058 124.303 198.017 124.146 198.016C123.571 198.012 123.001 198.086 122.432 198.158C122.35 198.168 122.268 198.179 122.185 198.189C121.742 198.244 121.301 198.303 120.861 198.362C119.581 198.535 118.308 198.706 117.009 198.768C116.072 198.813 115.089 198.76 114.097 198.706C111.524 198.566 108.865 198.374 106.883 200.18C106.364 200.653 106.147 201.248 106.147 201.855C106.147 202.592 106.456 203.343 106.929 203.932C107.999 205.265 109.645 205.72 111.427 205.735ZM96.3733 182.483C97.5743 184.289 99.5754 185.45 102.317 185.324C107.767 185.074 114.271 183.014 118.835 180.035C120.024 179.259 120.794 178.019 120.933 176.691L121.179 174.327L122.507 176.295C122.646 176.5 122.785 176.705 122.925 176.909C123.31 177.473 123.694 178.036 124.057 178.614C125.45 180.831 126.726 183.07 127.885 185.418C128.706 187.081 129.306 188.941 129.907 190.817C130.923 193.985 131.904 197.101 134.074 199.328C134.403 199.664 134.907 199.785 135.369 199.725C135.776 199.673 136.174 199.473 136.37 199.075C138.963 193.791 135.475 187.423 132.646 182.997L132.347 182.535C129.723 178.534 125.439 173.24 120.532 172.521L119.97 173.419L119.154 172.873C117.818 171.98 116.055 172.022 114.511 172.72L112.967 173.418C110.093 174.71 107.259 175.903 104.149 176.556C103.923 176.604 103.696 176.648 103.47 176.689C103.257 176.728 103.042 176.765 102.827 176.798C102.873 176.586 102.923 176.375 102.973 176.164C103.025 175.941 103.078 175.717 103.135 175.494C103.194 175.264 103.257 175.035 103.319 174.807C103.568 173.898 103.85 172.998 104.183 172.116C105.439 168.801 107.443 165.7 109.394 162.743L109.623 162.395C109.903 161.972 110.209 161.529 110.526 161.072C112.047 158.878 113.733 156.496 113.853 154.105C111.834 154.233 110.145 155.489 108.658 156.583C106.617 158.084 104.726 159.8 103.01 161.665C99.6823 165.281 96.6957 169.905 95.386 174.685C94.6361 177.422 94.9659 180.368 96.3733 182.483ZM149.616 155.215L149.617 155.118C149.611 152.358 148.007 146.056 144.041 146.056C141.564 146.056 140.06 150.345 139.8 154.766L139.791 154.946C139.676 157.695 140.429 163.703 144.041 163.703C147.692 163.703 149.579 158.012 149.616 155.215ZM91.2374 154.349L91.2368 154.252C91.2429 151.492 92.8471 145.19 96.8123 145.19C99.2276 145.19 100.718 149.267 101.032 153.569L101.054 153.9C101.21 156.556 100.506 162.837 96.8123 162.837C93.1614 162.837 91.2749 157.147 91.2374 154.349ZM136.262 136.536C136.787 136.598 137.31 136.679 137.833 136.762C139.358 137.005 140.874 137.297 142.38 137.638C145.241 138.285 148.079 139.102 150.862 140.026C153.467 140.89 156.031 141.867 158.594 142.843C158.731 142.896 158.868 142.948 159.004 143C159.91 143.345 160.812 143.731 161.716 144.119C163.094 144.709 164.477 145.303 165.889 145.75C162.169 140.597 156.438 136.779 150.923 134.046C147.777 132.487 144.439 131.23 141.081 130.2L139.211 129.637C136.458 128.823 133.447 128.071 130.861 129.694C129.838 130.336 129.185 131.334 128.979 132.413C128.778 133.471 129.008 134.605 129.737 135.552C130.372 136.377 131.164 136.846 132.006 137.007C132.936 137.185 133.921 136.99 134.818 136.51C135.537 136.456 135.749 136.476 135.962 136.499L136.262 136.536ZM94.84 137.06C96.6828 136.659 98.5077 136.498 100.398 136.556C101.253 136.581 102.081 136.714 102.905 136.847C104.187 137.054 105.463 137.267 106.843 137.016C107.564 136.885 108.177 136.463 108.651 135.912C109.205 135.268 109.571 134.445 109.689 133.662C109.81 132.853 109.689 132.146 109.391 131.522C109.038 130.784 108.444 130.162 107.725 129.618C105.552 127.969 101.824 128.366 99.2593 128.699C96.7249 129.029 94.2046 129.817 91.9642 131.067C89.754 132.302 87.8326 133.965 86.3332 135.998C85.0694 137.711 84.4741 139.683 83.8594 141.691C86.7512 139.26 91.1766 137.857 94.84 137.06Z" fill="#343434"/>
</svg>
