<svg width="423" height="537" viewBox="0 0 423 537" fill="none" xmlns="http://www.w3.org/2000/svg">
<path fill-rule="evenodd" clip-rule="evenodd" d="M52.5635 220.619C57.2043 207.828 53.7182 191.635 63.2841 181.051C66.1136 179.331 67.6141 180.288 68.7787 183.288C69.4818 187.236 71.1291 200.831 65.2049 200.824C64.4595 209.315 64.9255 217.867 66.75 226.199C71.1219 225.497 74.3095 227.745 77.4991 229.417C79.8772 230.664 82.2564 231.591 85.1285 230.735C96.9854 228.644 100.365 241.102 100.508 251.272C100.683 256.234 101.149 267.8 103.333 272.615C113.219 252.128 133.982 242.801 153.766 238.195C156.867 237.337 159.513 236.164 161.502 234.159C178.171 227.574 170.163 205.998 177.832 193.598C189.835 178.856 204.25 174.614 222.41 177.141C238.299 178.899 249.1 195.049 248.12 210.293C247.827 213.404 249.693 216.676 250.79 219.877C261.758 233.008 278.824 238.883 293.502 246.818C342.459 270.761 359.426 289.058 378.451 340.004C387.351 359.173 398.003 377.776 401.54 398.887C405.697 423.764 405.71 449.229 404.263 474.351C406.964 474.676 404.024 493.988 401.655 500.677C400.843 502.97 398.897 504.623 396.473 504.585C391.597 506.957 380.149 516.513 375.049 516.196C358.57 515.18 342.553 516.751 326.677 515.939C309.501 515.06 292.491 511.854 275.242 512.27C245.161 512.995 266.697 514.782 235.576 516.196C215.93 517.102 144.256 506.366 124.666 508.119C108.731 511.473 101.462 505.818 103.892 489.162C104.791 482.777 107.661 468.577 98.2202 467.974C93.7543 468.493 90.0577 472.958 86.7114 475.567C57.1589 497.583 26.968 481.731 24.5889 445.538C20.11 415.183 13.83 408.011 27.4818 377.698C70.6734 264.852 5.60007 280.183 49.5362 227.328C52.967 230.317 52.0948 222.339 52.5635 220.619Z" fill="#FAFAFA"/>
<path fill-rule="evenodd" clip-rule="evenodd" d="M68.9769 180.206C66.6198 177.888 62.8728 178.465 60.5742 180.526C58.2351 182.619 56.8271 185.909 55.6261 188.745C50.2372 201.496 51.4922 215.458 48.7663 228.799C43.7778 231.495 39.2746 235.015 36.0858 239.75C31.2412 246.942 28.9426 255.319 31.3716 263.843C32.6266 268.254 34.7588 272.341 36.2792 276.658C37.903 281.253 38.8972 286.029 39.374 290.881C39.8418 295.643 39.9048 300.432 39.7698 305.212C39.6978 307.687 39.5674 310.159 39.437 312.629C39.32 314.844 38.9277 317.155 39.4572 319.325L39.5224 319.575C39.3155 319.543 39.1131 319.502 38.9107 319.458C37.1739 319.07 35.6449 318.467 33.8322 318.706C32.4197 318.89 31.6865 320.07 32.2848 321.402C32.5457 321.982 32.892 322.469 33.3104 322.883C29.6668 349.844 23.3018 376.372 19.1139 403.248C17.2157 415.441 16.0596 427.67 16.7119 440.016L16.7803 441.241C17.4453 452.576 19.0791 465.067 24.8357 474.98C27.5256 479.621 31.2232 483.739 35.7034 486.705C37.7551 488.064 39.9543 489.126 42.3428 489.657C54.722 494.59 67.8119 493.38 79.4848 486.858C84.7342 483.928 89.9702 480.511 94.257 476.272C96.3397 474.21 98.35 471.586 99.5829 468.719C99.5784 469.363 99.6947 470.021 99.5649 470.655L99.3053 471.909C97.3612 481.226 89.9515 515.659 89.8532 518.549C89.7998 520.109 102.919 520.071 104.343 520.119L104.383 520.12C125.631 521.006 146.892 520.533 168.128 519.655L169.805 519.584C190.4 518.712 212.812 517.54 233.429 516.938L233.386 516.594C233.139 514.74 231.938 506.5 231.804 505.869L231.8 505.847C231.215 503.491 230.088 496.162 230.681 493.73C232.21 487.468 239.096 488.898 243.942 489.562L244.963 489.696C245.747 489.804 247.655 490.084 247.638 490.103C248.152 489.567 246.928 488.044 246.626 487.637L246.385 487.301C245.083 485.478 243.905 483.584 244.034 481.236C244.347 475.497 252.541 475.821 256.568 476.219C256.852 476.247 256.968 476.691 256.641 476.757L255.846 476.923C253.292 477.471 247.617 478.87 247.745 480.985C247.818 482.187 249.097 483.072 249.879 483.83C250.74 484.664 251.596 485.563 252.232 486.588C253.455 488.561 253.733 491.222 252.523 493.276C251.126 495.645 248.649 495.922 246.169 495.706L246.029 495.693C245.483 495.642 244.937 495.589 244.391 495.536L241.116 495.216C240.305 495.137 237.699 494.454 236.938 494.925C235.859 495.592 237.157 498.553 237.4 499.528L237.413 499.597C237.622 501.009 237.747 515.801 237.768 516.778C253.836 516.405 269.905 512.83 285.972 513.67C298.736 514.337 311.466 515.49 324.206 516.492L324.528 513.755C328.059 483.957 333.595 444.637 330.938 415.163C330.73 412.856 334.33 412.87 334.537 415.163C337.284 445.641 331.27 486.582 327.772 516.767C333.195 517.179 338.621 517.553 344.053 517.839L345.438 517.909C363.923 518.834 383.001 518.889 401.091 514.647C401.649 514.516 401.838 513.958 401.721 513.495C401.901 513.598 402.171 513.54 402.247 513.288C404.354 506.337 405.425 488.64 406.38 480.981L406.444 480.48C407.424 473.04 407.987 465.515 408.392 458.029C409.21 443.054 409.111 428.062 408.005 413.105C404.483 365.399 390.457 317.202 361.021 278.863C353.904 269.596 345.803 261.116 336.082 254.558C326.546 248.122 315.849 243.589 304.995 239.908C297.82 237.472 290.533 235.388 283.246 233.309C282.97 233.171 282.694 233.035 282.417 232.901L282 232.702C279.409 231.472 276.859 230.126 274.205 229.033L273.618 228.794C269.772 227.251 265.291 225.884 261.128 225.932C254.385 222.533 248.722 217.398 249.271 209.161C249.496 205.776 244.188 205.781 243.999 209.161C243.504 218.154 249.041 224.532 256.099 228.812L256.065 228.847L256.032 228.884C254.93 230.135 253.751 231.297 252.478 232.377C244.858 238.867 235.218 244.256 225.583 247.802C214.279 251.965 202.984 253.212 191.293 249.846C185.18 248.085 179.409 245.371 174.105 241.861C172.486 240.789 170.934 239.642 169.445 238.413C170.853 236.486 171.978 234.411 172.922 232.21C174.82 227.781 176.39 221.782 174.452 217.105C173.975 215.953 172.081 215.242 171.42 216.709C169.598 220.724 168.838 225.063 166.715 228.988C165.905 230.482 164.974 231.9 163.93 233.237C163.93 233.309 155.959 234.672 155.959 234.672C146.324 234.668 137.251 238.372 128.727 242.999C123.688 245.735 118.736 248.644 113.799 251.558L104.149 257.254C103.438 257.672 102.642 258.078 101.846 258.51C102.777 253.91 103.231 249.22 102.925 244.57C102.462 237.558 99.7359 229.888 92.5162 227.39C89.102 226.206 85.1526 226.571 81.8374 227.885C80.308 228.493 78.6436 229.298 77.2222 230.374C76.5335 227.277 73.6326 224.955 70.7177 223.929C69.7731 223.596 68.806 223.384 67.8253 223.281C67.8541 222.784 67.857 222.281 67.8501 221.763L67.8433 221.372C67.7983 219.077 67.8164 216.781 67.8658 214.49C67.9558 210.147 68.1627 205.893 68.6035 201.563C68.9716 197.979 69.611 194.435 70.0858 190.865L70.2824 189.331C70.6829 186.308 71.3549 182.543 68.9769 180.206ZM358.819 473.304L359.623 472.827C362.257 471.271 364.97 469.837 368.162 470.557C371.201 471.243 373.358 473.712 374.491 476.495C375.026 477.81 375.306 479.136 375.512 480.537C375.628 481.321 375.706 482.112 375.844 482.892L375.89 483.134C375.952 483.445 376.048 483.878 376.135 484.254C376.964 483.889 377.8 483.309 378.478 482.965L379.026 482.69C380.31 482.05 381.647 481.441 383.047 481.145C386.08 480.503 389.444 481.431 391.178 484.15C392.66 486.474 392.63 489.214 392.063 491.82L392.022 492.001C391.776 493.082 390.505 497.412 388.655 496.78C386.856 496.166 386.616 493.773 386.48 492.179L386.47 492.027C386.408 490.825 386.646 488.299 385.286 487.842C383.586 487.272 380.315 489.876 378.835 490.557C376.188 491.773 373.28 492.132 371.125 489.765C369.194 487.644 369.031 484.538 368.531 481.847L368.402 481.169C368.137 479.802 367.624 477.618 366.112 477.673C364.876 477.719 363.519 479 362.501 479.608C361.377 480.28 360.21 480.839 358.99 481.316C356.143 482.43 352.977 482.785 349.949 482.457C348.194 482.267 347.051 481.428 346.431 479.777C346.221 479.293 346.061 478.793 345.95 478.275C344.967 474.579 350.34 471.94 352.321 475.247C354.606 475.16 356.734 474.544 358.819 473.304ZM28.1559 448.584C29.7941 447.415 32.019 447.666 33.4831 448.984L33.5703 449.066C33.9762 449.458 34.8912 450.479 35.4839 451.376L35.6695 451.232C35.6991 451.209 35.728 451.186 35.7558 451.163L35.8362 451.097C37.0471 450.073 38.3124 449.134 39.8706 448.716C43.9307 447.624 47.6206 450.344 49.3934 453.831C50.2341 455.486 50.594 457.194 51.0132 458.977L51.0488 459.142C51.2179 459.973 51.4377 461.658 52.1661 462.07C52.4337 462.221 53.041 461.922 53.642 461.575C55.0126 460.784 56.2429 459.775 57.586 458.941C60.7375 456.984 64.3185 456.176 67.8578 457.587C71.3615 458.982 73.8715 462.277 73.9304 466.116C73.974 468.946 72.0803 473.884 68.5163 473.539C67.8024 473.47 66.8835 473.03 66.7679 472.207C66.4606 470.022 68.1825 467.338 66.2078 465.534C64.2983 463.789 62.32 465.256 60.5913 466.466L59.3528 467.336C57.341 468.734 55.2691 470.014 52.7221 470.167C49.4995 470.359 46.5244 468.579 44.9028 465.834C43.4368 463.353 43.4152 460.546 42.2691 457.998C42.0185 457.442 41.3726 456.929 41.5876 456.672C40.719 457.125 39.5985 458.43 39.0573 458.795C36.3629 460.614 32.7607 460.6 30.3987 458.189C29.4576 457.229 28.8585 456.045 28.1617 454.914C27.9098 454.506 27.5954 454.128 27.3655 453.707C27.2812 453.553 27.1431 452.979 27.0295 452.467L26.8549 451.654L26.8367 451.521C26.6873 450.29 27.1218 449.322 28.1559 448.584ZM131.937 437.839C135.032 436.213 138.848 436.832 141.637 438.802C144.763 441.012 146.298 444.406 147.341 447.993C148.101 450.605 148.464 454.207 150.647 456.098C153.186 458.299 157.444 455.963 160.125 455.095C163.368 454.046 167.266 453.616 170.431 455.168C173.533 456.69 175.027 459.793 175.348 463.118C175.647 466.221 175.202 470.308 173.433 472.904C173.259 473.16 172.927 473.094 172.817 472.823C171.654 469.958 171.878 466.681 170.934 463.716C169.926 460.551 167.563 459.882 164.564 460.733C161.435 461.621 158.57 463.283 155.353 463.874C151.922 464.505 148.526 463.855 145.821 461.586C143.546 459.678 142.168 456.898 141.237 454.128C140.33 451.428 140.182 447.814 138.249 445.572C137.762 445.006 136.912 444.323 136.123 444.251C134.951 444.143 134.527 445.014 133.58 445.682C131.082 447.446 127.095 447.481 125.566 444.379C125.065 443.363 124.817 441.921 125.566 440.927C126.879 439.185 127.957 439.199 129.69 439.576C129.745 439.529 129.806 439.469 129.875 439.389L129.929 439.324C130.387 438.743 131.277 438.186 131.937 437.839ZM254.531 419.531C254.633 417.199 257.439 414.961 259.652 416.59C260.009 416.85 260.36 417.116 260.705 417.393L260.846 417.545C261.258 417.544 261.642 417.436 262.049 417.306L262.76 417.078C264.627 416.485 266.423 416.008 268.416 416.445C271.846 417.198 274.022 420.159 275.14 423.302C276.181 426.231 275.839 429.219 276.328 432.222C276.791 435.069 278.253 436.181 280.999 435.571L281.14 435.539C286.601 434.23 292.823 430.57 297.611 435.588C302.784 441.007 299.4 449.615 293.738 453.097C293.491 453.249 293.217 452.999 293.274 452.74C294.026 449.239 296.22 445.9 295.485 442.184C294.975 439.609 293.187 438.39 290.634 438.8C285.266 439.665 280.245 443.945 274.739 440.838C271.989 439.286 270.474 436.37 269.789 433.383C269.172 430.695 269.346 427.663 268.164 425.127C266.87 422.352 264.691 424.364 262.343 424.743C259.021 425.279 254.354 423.536 254.531 419.531ZM74.4314 336.608C74.4207 334.291 78.0193 334.288 78.0301 336.608C78.1628 365.964 91.8878 393.098 94.3533 422.163C94.5485 424.472 90.949 424.458 90.7547 422.163C88.2883 393.09 74.5642 366.011 74.4314 336.608ZM371.586 384.661C373.48 382.514 376.256 383.18 378.51 384.256C381.896 385.871 385.137 387.687 388.244 389.787C389.008 390.302 388.526 391.424 387.626 391.252C385.348 390.814 383.13 390.323 380.92 389.611C379.259 389.078 377.53 388.302 375.797 388.027C375.906 388.426 376.038 388.817 376.193 389.2C376.477 389.987 376.807 390.757 377.087 391.546C377.645 393.118 378.147 394.712 378.634 396.308L378.877 397.106C379.889 400.451 380.873 405.32 376.2 406.35C374.467 406.731 372.748 405.975 371.136 405.381L370.803 405.261L364.921 403.175C364.22 402.926 362.922 402.753 362.34 402.317L362.433 402.764C362.554 403.357 362.672 403.939 362.927 404.53L363.069 404.856C364.531 408.171 366.373 411.488 364.669 415.152C363.209 418.291 359.757 419.781 356.431 418.89C353.27 418.043 350.983 414.482 352.619 411.384C353.229 410.229 355.013 409.664 356.147 410.385L356.451 410.588C356.809 410.821 357.423 411.221 357.438 411.295C357.523 411.317 357.611 411.339 357.701 411.362C357.511 410.8 357.382 409.937 357.215 409.554L356.599 408.155C355.454 405.527 354.461 402.852 355.335 399.904C357.837 391.462 366.323 396.262 372.583 398.671C372.492 398.314 372.401 397.962 372.325 397.616C372.055 396.394 371.76 395.179 371.468 393.962L370.869 391.451C370.33 389.137 369.91 386.56 371.586 384.661ZM51.3164 375.238C51.311 375.039 51.5566 374.886 51.7289 375.002C55.731 377.694 58.4083 383.315 56.9045 388.103C56.1745 390.428 54.6217 392.468 52.4418 393.597C49.7315 394.999 46.7389 394.465 43.8914 393.865L42.6819 393.606C41.8295 393.427 40.9883 393.296 40.1207 393.535C39.8229 393.617 39.4774 393.877 39.1945 393.933C39.3115 394.132 39.4356 394.477 39.4986 394.605L39.7048 395.02C39.912 395.441 40.114 395.879 40.2408 396.321C40.6663 397.804 40.5611 399.397 39.8719 400.781C38.5881 403.359 35.8955 404.812 33.0922 405.059C31.422 405.207 27.2139 403.744 26.2189 405.517C24.2442 409.035 18.6209 406.669 19.714 402.772C20.453 400.138 22.5497 398.436 25.1474 397.723C26.5315 397.344 27.9642 397.395 29.3717 397.55C29.923 397.611 30.4726 397.696 31.0246 397.755L31.4391 397.793C31.3311 397.785 32.583 397.755 33.0859 397.721L32.9786 397.433C32.9629 397.392 32.9484 397.356 32.9357 397.329C32.3761 396.131 31.9613 394.938 31.9951 393.6C32.0567 391.187 33.6176 389.082 35.6683 387.92C37.559 386.848 39.8103 386.421 41.9596 386.66C44.3221 386.923 47.6795 388.795 50.0029 387.808C51.7531 387.065 52.3474 384.472 52.3744 382.773C52.4148 380.213 51.3875 377.788 51.3164 375.238ZM214.323 358.453C220.761 355.562 226.291 360.5 230.069 365.225C230.264 365.469 230.019 365.88 229.712 365.69L229.21 365.377C226.125 363.441 222.704 361.153 218.881 361.813C215.42 362.41 214.563 364.676 215.252 367.764L215.454 368.632C216.186 371.812 216.747 375.104 214.924 378.061C213.203 380.853 209.844 382.074 206.698 382.148C203.07 382.234 199.938 380.546 196.62 379.368L196.358 379.276C194.949 378.789 189.809 377.517 189.738 380.414C189.704 381.738 191.121 383.294 191.666 384.484C192.379 386.041 192.854 387.677 192.845 389.406C192.824 393.719 189.228 397.221 184.973 395.129C183.319 394.315 182.893 391.982 183.755 390.482C184.97 388.368 185.462 388.478 184.611 386.258L184.365 385.634C183.318 382.959 182.483 380.205 183.66 377.398C186.011 371.791 193.06 371.112 198.096 372.969L198.28 373.038C201.414 374.253 210.801 379.121 210.154 372.237C209.9 369.525 209.077 366.925 209.652 364.183C210.187 361.637 211.962 359.513 214.323 358.453ZM245.348 335.426C246.524 333.356 250.47 334.096 250.143 336.725L250.038 337.544C249.904 338.664 249.875 339.716 250.648 340.712C251.587 341.921 253.193 342.286 254.651 342.101C257.737 341.71 259.706 338.847 263.103 339.516C265.86 340.058 267.764 342.316 268.867 344.778C270.034 347.385 270.01 350.211 270.879 352.895C271.88 355.982 274.016 355.84 276.682 354.76L277.256 354.524C279.807 353.463 282.367 352.284 285.209 352.791C289.93 353.634 293.996 360.897 289.572 364.404C288.774 365.037 287.379 364.707 287.412 363.509L287.417 363.283C287.439 361.104 286.89 358.292 284.394 357.779C281.748 357.234 278.758 359.65 276.301 360.346C269.936 362.147 266.311 357.354 265.23 351.685L265.19 351.468C264.845 349.484 264.573 345.812 262.498 344.883C261.392 344.387 260.212 345.607 259.288 346.098C257.852 346.86 256.311 347.345 254.686 347.468C248.675 347.927 241.846 341.602 245.348 335.426ZM94.939 327.596C96.9195 326.738 99.8731 327.215 100.357 329.802L100.651 331.429C101.226 334.573 102.142 338.503 105.23 339.635C107.162 340.343 109.38 339.102 111.112 338.346C113.193 337.436 115.221 336.656 117.499 336.44C122.122 336.002 125.566 338.678 127.201 342.86L127.343 343.233C128.662 346.747 130.445 353.468 127.557 356.319C127.136 356.735 126.286 356.938 125.769 356.55C124.063 355.269 123.631 353.164 123.045 351.19L122.994 351.021C122.373 348.971 121.863 346.713 120.741 344.866C118.655 341.433 113.211 345.353 110.593 346.258C106.293 347.745 101.834 346.876 98.5479 343.696C96.4724 341.687 95.2453 339.145 94.4014 336.454C93.8625 336.732 93.3034 336.973 92.7011 337.136C90.407 337.758 87.6855 337.43 85.9389 335.691C82.6606 332.427 84.4387 326.573 89.4372 327.52C90.4214 327.706 91.0673 328.647 91.1843 329.608L91.2513 329.759C92.509 329.343 93.8841 328.053 94.939 327.596ZM326.561 298.437C331.231 293.629 339.335 296.236 342.529 301.335C343.192 302.392 342.097 303.733 340.934 303.411C338.154 302.645 334.23 299.627 331.292 301.548C329.114 302.972 330.299 306.693 330.498 308.774L330.527 309.085C330.779 311.918 330.836 315.796 328.631 317.917C327.361 319.138 325.414 318.973 323.739 318.798L323.207 318.743C321.233 318.545 319.272 318.196 317.382 317.589C315.644 317.031 313.997 316.272 312.364 315.469L311.956 315.267C311.233 314.908 308.822 313.486 308.1 314.379C307.724 314.846 308.657 316.888 308.85 317.344C309.583 319.057 310.514 320.67 311.186 322.414C312.369 325.486 312.468 328.951 310.806 331.883C309.196 334.723 305.706 337.025 302.614 334.843C300.843 333.593 300.848 331.32 302.614 330.07C303.548 329.408 304.49 328.972 304.876 327.862C305.38 326.415 304.731 324.88 304.104 323.54L303.352 321.946C301.688 318.388 300.025 314.294 302.351 310.657C304.752 306.901 309.632 306.841 313.324 308.406C315.431 309.299 317.353 310.496 319.549 311.187C321.068 311.666 322.593 311.985 324.149 312.16C324.495 310.287 324.005 308.19 324 306.329C323.992 303.502 324.518 300.54 326.561 298.437ZM85.7419 231.562C93.6228 230.406 97.4373 237.459 97.9816 244.251C98.4719 250.417 97.4733 256.601 95.9124 262.597C95.3276 264.82 94.6709 267.017 93.9826 269.177C92.8761 272.648 91.675 276.113 90.2131 279.453C89.7678 280.461 89.318 281.474 88.8141 282.446C87.0885 283.862 85.6118 285.769 84.2694 287.602L83.3875 288.812L83.1508 289.139C80.8703 292.262 78.9225 295.503 77.3301 299.027C75.8136 302.384 74.6846 305.883 73.8073 309.455L73.5916 310.347C72.9167 313.096 71.9216 316.377 73.1243 318.936C70.7627 319.664 68.4146 320.326 65.9046 320.677C62.441 321.163 58.8379 321.195 55.3427 321.069C51.9657 320.945 48.5924 320.681 45.2299 320.323L42.8073 320.056C42.5562 320.027 42.3053 319.998 42.0549 319.966C42.1494 319.849 42.2304 319.718 42.2888 319.575C43.152 317.504 43.0406 315.103 43.1364 312.876L43.148 312.629C43.274 310.159 43.3504 307.687 43.3819 305.212C43.4404 300.567 43.3145 295.908 42.8062 291.286C42.3658 287.24 41.6771 283.193 40.602 279.264C39.5179 275.28 37.8626 271.54 36.3332 267.714C34.8218 263.933 33.5753 260.049 33.7107 255.926C33.7962 253.307 34.3719 250.759 35.3481 248.351C35.3935 248.387 35.4511 248.414 35.519 248.409C38.5823 248.297 41.4837 247.41 44.4435 246.663C47.5833 245.867 50.7995 245.214 54.0113 244.827L54.6939 244.747C57.3708 244.446 60.2869 244.299 62.7603 245.448C65.4368 246.695 67.1236 249.468 68.1402 252.127L68.2536 252.434C70.0597 257.476 69.6456 264.207 64.0603 266.593C62.3285 267.336 58.3746 267.791 57.4839 265.441C57.0836 264.37 57.9067 262.786 58.2171 261.773C58.5815 260.567 58.8199 259.378 58.7929 258.118C58.7711 257.013 57.9272 256.179 56.8534 256.09L56.7552 256.084C54.8029 255.999 50.777 253.748 50.3857 256.988C50.3092 257.618 50.7905 258.28 51.2988 258.587C52.3244 259.194 53.395 259.599 54.5106 259.846C54.3576 260.522 54.1417 261.183 53.9298 261.84C53.8044 261.777 53.6649 261.737 53.5164 261.723C51.8656 261.588 50.2328 261.85 48.5819 261.867L47.6795 261.874C46.3983 261.886 45.2812 261.955 44.0387 262.619C42.8916 263.231 43.094 264.766 44.0387 265.423C46.5172 267.143 50.7141 266.134 53.2961 264.388C53.1836 265.275 53.2376 266.179 53.6154 267.129C54.731 269.947 57.9292 271.351 60.7897 271.472C63.3316 271.58 65.7607 270.779 67.7894 269.375C68.2032 270.856 68.869 272.278 69.1568 273.813C69.5347 275.829 69.0849 278.188 69.7861 280.083C70.4883 281.992 73.2007 283.27 74.7706 281.397C77.0692 278.661 76.354 274.326 74.3343 271.553C73.2592 270.086 71.307 268.403 69.3188 268.137C70.6997 266.837 71.8063 265.23 72.5035 263.456C72.553 263.479 72.6115 263.483 72.6745 263.465C79.1384 261.697 82.6561 255.836 82.872 249.683C83.3488 250.025 83.8431 250.332 84.3609 250.606C85.5979 251.273 87.1858 250.687 87.5681 249.305C87.919 248.018 86.8979 246.429 85.463 246.537C84.6443 246.605 83.8211 246.609 83.0069 246.474C82.8945 246.456 82.7865 246.434 82.674 246.411C82.6021 245.938 82.5076 245.466 82.3907 244.998C84.8332 245.277 87.3882 244.876 89.7498 244.354C91.783 243.908 91.3107 240.672 89.264 240.749L88.9352 240.763C86.2498 240.892 82.2853 241.326 79.9841 239.624C79.5793 239.038 79.1294 238.485 78.6436 237.963C78.5807 237.832 78.5267 237.693 78.4772 237.549C77.2402 233.984 83.1014 231.949 85.7419 231.562ZM156.487 281.712C159.555 280.891 162.784 282.009 164.894 284.327C166.667 286.276 167.585 288.668 168.406 291.114L168.874 292.521C169.557 294.514 170.34 296.094 172.778 295.335C175.902 294.361 178.611 292.665 182.008 292.799C185.097 292.921 188.119 294.25 190.269 296.478C192.469 298.757 193.519 301.932 193.052 305.06L193.021 305.252C192.778 306.693 190.671 311.837 188.438 309.469C187.442 308.413 187.639 307.244 187.402 305.902C187.177 304.624 186.696 303.37 185.907 302.334C184.509 300.497 182.261 299.78 180.062 300.43C177.163 301.288 174.602 303.055 171.478 303.097C168.192 303.141 165.403 301.436 163.59 298.759C162.127 296.598 161.605 294.069 160.575 291.72L160.476 291.496C159.612 289.562 159.023 288.864 157.042 289.789L156.351 290.121C153.386 291.53 150.051 292.82 146.986 290.833C144.138 288.987 142.924 285.277 145.319 282.576C146.641 281.085 149.7 281.339 150.559 283.252C150.709 283.581 150.849 283.915 150.987 284.249C151.249 284.169 151.504 284.072 151.746 283.936C153.353 283.211 154.748 282.177 156.487 281.712ZM246.055 259.873C249.555 257.986 252.477 261.698 251.918 265.049L251.891 265.196C251.87 265.297 251.823 265.518 251.764 265.771C251.942 265.749 252.119 265.718 252.295 265.673L253.109 265.573C254.387 265.425 255.626 265.348 256.905 265.758C259.925 266.728 261.41 269.664 261.483 272.674C261.555 275.674 260.004 278.093 259.548 280.958C259.082 283.889 262.113 283.052 264.092 282.837L264.17 282.829C266.923 282.551 269.817 282.546 272.105 284.341C274.468 286.195 275.514 289.399 275.181 292.332C274.879 294.982 273.223 299.059 270.221 299.478C269.925 299.519 269.588 299.454 269.436 299.158C268.222 296.796 269.911 294.189 269.72 291.698C269.51 288.958 267.764 288.502 265.357 288.679C263.021 288.851 260.691 289.347 258.384 288.65C255.881 287.893 254.065 285.744 253.551 283.209C252.985 280.415 254.025 277.816 254.701 275.161C254.925 274.279 255.035 273.392 254.881 272.491C254.847 272.296 254.678 272.116 254.617 272.039C254.233 271.967 253.658 272.151 253.329 272.186L252.863 272.232C250.328 272.461 247.886 272.307 246.075 270.212C245.147 269.138 244.804 267.826 244.896 266.441L244.943 265.881C244.993 265.343 245.087 264.633 245.367 264.337L245.37 264.323C245.277 264.197 245.188 264.067 245.106 263.933L245.027 263.797C244.251 262.502 244.701 260.603 246.055 259.873ZM66.7498 227.021C70.2359 227.021 73.5291 228.16 76.1651 231.261C75.2249 232.156 74.4737 233.196 74.0594 234.416C72.7689 233.709 71.4014 233.156 70.0025 232.764C65.7337 231.571 59.895 231.589 56.3054 234.519C54.4251 236.05 56.4898 238.795 58.514 238.323C60.3268 237.9 61.9012 237.117 63.8039 237.026C65.4548 236.945 67.0741 237.162 68.6575 237.639C71.0731 238.368 73.2682 239.75 74.8831 241.653C75.4229 242.293 75.8952 242.986 76.291 243.733C79.3048 249.458 77.0332 257.668 72.8723 262.381C74.5052 256.952 72.8769 250.552 69.6246 246.056C65.7092 240.642 59.853 240.028 53.6835 240.873L53.48 240.902C47.5113 241.744 40.1207 243.215 35.6584 247.604C36.1038 246.591 36.6166 245.61 37.1928 244.66C40.575 239.088 46.1843 234.74 52.005 231.639C52.9812 231.112 53.9663 230.626 54.9469 230.176C58.6759 228.461 62.8323 227.021 66.7498 227.021ZM64.843 184.496L64.8567 184.559C64.8595 184.571 64.8625 184.583 64.8655 184.595C65.0716 186.425 64.585 188.526 64.3369 190.373L64.3032 190.635C63.7814 194.839 63.0932 199.047 62.8683 203.283C62.6493 207.356 62.7336 211.58 63.2229 215.636L63.2956 216.214C63.5835 218.424 63.7544 221.017 64.5007 223.285C61.6313 223.56 58.7614 224.482 56.1524 225.464C55.2168 225.819 54.2856 226.193 53.359 226.589C54.5196 220.418 55.1403 214.157 56.3998 208.004L56.6477 206.78C58.0168 199.973 59.3021 193.123 62.8413 187.034C63.3136 186.224 63.8219 185.544 64.3977 184.82C64.5236 184.654 64.6721 184.546 64.843 184.496Z" fill="#343434"/>
<path fill-rule="evenodd" clip-rule="evenodd" d="M191.978 228.84C201.29 228.814 209.813 226.999 217.899 223.024C227.663 219.836 238.325 218.099 246.249 211.043C250.107 211.862 254.062 207.898 257.263 205.539C262.484 224.759 289.653 221.562 301.133 209.14C308.156 203.206 310.981 188.526 298.785 184.642C318.766 171.063 325.983 147.606 324.61 122.223C323.165 79.6448 290.451 35.3786 248.403 27.9934C240.109 26.5333 231.59 26.6877 223.331 28.4241C218.719 29.4252 214.261 31.366 209.325 31.2778C190.181 28.2499 169.155 28.5979 153.343 40.8572C128.071 57.7759 124.558 91.6273 127.511 118.844L127.391 119.099C128.86 129.089 131.302 138.239 135.92 144.262C136.279 152.922 139.286 171.406 139.509 178.714C138.969 212.719 158.271 227.812 191.978 228.84Z" fill="#FAFAFA"/>
<path fill-rule="evenodd" clip-rule="evenodd" d="M303.185 184.173C363.71 130.663 301.618 10.2432 222.869 26.2204C214.899 28.8908 206.806 29.8175 198.552 27.8389C156.958 21.3399 122.931 56.6551 124.69 97.5127C124.397 104.501 124.454 111.495 125.208 118.456C126.072 127.604 128.429 137.389 133.687 144.994C133.748 150.102 136.753 169.265 137.236 178.28L137.328 180.163C137.808 189.428 138.841 198.878 142.912 207.327C155.429 230.022 187.675 234.892 210.796 228.281L211.757 227.965C216.052 226.536 220.921 224.633 223.648 221.034C225.089 219.132 222.703 216.704 220.719 217.221C218.165 217.887 216.048 219.445 213.664 220.552C198.111 227.429 179.716 225.126 164.364 218.702L163.9 218.506C136.404 207.338 143.936 167.612 140.317 144.96C139.493 116.195 163.47 96.6071 181.534 77.5824L182.075 76.9796C183.931 74.9203 185.891 72.913 188.472 72.4738C189.179 74.6194 190.917 76.4454 192.529 78.0104L196.175 81.9527C199.821 85.8904 203.475 89.8121 207.182 93.6986C225.177 111.99 243.513 136.825 271.252 138.695C269.547 140.239 268.051 142.003 266.264 143.456C265.51 144.211 266.279 145.478 267.29 145.219C269.176 144.737 270.382 142.948 271.619 141.549C286.601 135.257 298.905 158.511 286.212 168.138C281.503 173.127 267.743 169.331 270.925 175.483C267.452 186.38 262.107 197.339 253.065 204.628C250.41 206.634 246.264 207.65 244.502 210.603C244.077 211.314 244.294 212.475 245.092 212.854C248.933 214.646 253.06 211.632 256.01 209.362C271.588 239.832 328.714 206.167 303.185 184.173ZM210.612 35.2835L212.173 34.978C228.817 31.6833 239.789 28.4215 257.386 34.3784C296.608 47.4866 321.893 89.2426 320.8 129.827C320.774 152.881 309.352 182.281 283.624 185.553C279.734 185.862 279.673 191.902 283.506 191.721L283.623 191.714C289.965 191.318 296.105 189.016 301.338 185.475C308.359 196.853 301.323 207.177 290.384 212.067C279.3 217.919 267.451 216.053 260.045 205.714C266.804 198.2 271.787 186.97 272.939 177.009C291.922 184.377 306.238 157.216 293.888 142.812C289.542 136.612 281.105 132.736 274.15 137.138C244.227 125.619 223.336 101.137 203.334 77.1552L202.266 75.9401C198.764 71.9823 190.712 63.0423 189.819 61.8866C188.815 60.5871 186.789 61.7569 186.764 63.1527C186.746 64.1451 186.801 65.1516 186.913 66.1557C183.188 68.5588 180.171 72.2078 177.393 75.5767C156.657 91.8608 139.794 108.915 134.549 134.75C131.291 130.946 129.814 125.952 128.748 121.182C126.513 89.7184 132.518 52.0411 164.961 38.3924C180.553 30.6529 194.463 34.1997 210.612 35.2835ZM284.184 153.449C285.534 152.243 276.609 152.097 275.767 153.042L275.575 153.108C272.379 154.232 266.528 157.856 269.401 161.619C273.498 165.482 276.352 154.012 284.184 153.449Z" fill="#343434"/>
<path fill-rule="evenodd" clip-rule="evenodd" d="M170.962 191.599C173.837 191.623 177.069 190.543 179.23 189.698L179.794 189.474C181.664 188.725 183.586 187.864 185.019 186.42C185.477 185.95 185.965 185.419 186.213 184.861C186.358 184.534 186.418 184.195 186.278 183.858C185.76 183.807 185.269 183.741 184.803 183.656C184.582 183.615 184.37 183.573 184.207 183.572C183.608 183.569 183.015 183.645 182.422 183.72C182.336 183.731 182.25 183.741 182.165 183.752C181.703 183.809 181.244 183.871 180.786 183.933C179.453 184.112 178.127 184.289 176.774 184.354C175.798 184.401 174.774 184.346 173.741 184.29C171.062 184.144 168.293 183.945 166.229 185.822C165.688 186.314 165.462 186.933 165.462 187.564C165.462 188.331 165.785 189.112 166.277 189.724C167.391 191.11 169.106 191.584 170.962 191.599ZM155.284 167.42C156.535 169.298 158.619 170.505 161.474 170.374C167.149 170.114 173.923 167.972 178.676 164.874C179.914 164.067 180.716 162.777 180.86 161.396L181.116 158.938L182.5 160.985C182.644 161.198 182.79 161.411 182.935 161.624C183.336 162.209 183.736 162.795 184.114 163.396C185.564 165.701 186.894 168.03 188.101 170.472C188.955 172.201 189.58 174.135 190.207 176.086C191.264 179.381 192.286 182.621 194.546 184.936C194.888 185.286 195.413 185.412 195.894 185.35C196.318 185.295 196.733 185.087 196.937 184.673C199.637 179.178 196.005 172.557 193.059 167.954L192.747 167.473C190.015 163.313 185.553 157.808 180.443 157.06L179.858 157.993L179.008 157.426C177.617 156.497 175.78 156.541 174.173 157.267L172.565 157.993C169.572 159.337 166.62 160.577 163.382 161.256C163.146 161.305 162.91 161.352 162.675 161.394C162.453 161.435 162.229 161.473 162.005 161.508C162.053 161.287 162.105 161.067 162.157 160.848C162.211 160.616 162.267 160.384 162.326 160.152C162.387 159.912 162.452 159.674 162.518 159.437C162.777 158.492 163.07 157.556 163.418 156.639C164.725 153.191 166.812 149.967 168.843 146.892L169.082 146.53C169.374 146.09 169.693 145.63 170.022 145.154C171.606 142.872 173.363 140.395 173.487 137.909C171.385 138.042 169.626 139.349 168.077 140.487C165.952 142.047 163.982 143.832 162.196 145.77C158.73 149.532 155.62 154.34 154.256 159.311C153.475 162.157 153.818 165.22 155.284 167.42ZM210.732 139.064L210.732 138.962C210.726 136.092 209.055 129.539 204.926 129.539C202.346 129.539 200.78 133.999 200.509 138.596L200.499 138.784C200.379 141.642 201.163 147.89 204.926 147.89C208.728 147.89 210.692 141.972 210.732 139.064ZM149.935 138.163L149.935 138.062C149.941 135.192 151.612 128.639 155.741 128.639C158.256 128.639 159.808 132.878 160.136 137.352L160.158 137.696C160.321 140.458 159.588 146.99 155.741 146.99C151.939 146.99 149.975 141.072 149.935 138.163ZM196.824 119.639C197.372 119.703 197.916 119.788 198.46 119.874C200.048 120.127 201.628 120.431 203.196 120.785C206.175 121.458 209.13 122.308 212.029 123.268C214.741 124.167 217.411 125.183 220.081 126.198C220.224 126.252 220.366 126.307 220.508 126.361C221.451 126.719 222.39 127.121 223.333 127.524C224.767 128.138 226.208 128.756 227.678 129.221C223.804 123.862 217.836 119.892 212.093 117.05C208.816 115.429 205.34 114.122 201.843 113.051L199.896 112.465C197.028 111.619 193.893 110.837 191.199 112.524C190.134 113.192 189.454 114.23 189.24 115.352C189.03 116.452 189.27 117.631 190.029 118.616C190.69 119.473 191.515 119.962 192.392 120.129C193.36 120.314 194.387 120.111 195.321 119.612C196.069 119.556 196.29 119.576 196.511 119.601L196.824 119.639ZM153.687 120.184C155.606 119.767 157.507 119.599 159.476 119.66C160.366 119.686 161.228 119.824 162.087 119.962C163.421 120.178 164.75 120.4 166.188 120.139C166.938 120.002 167.576 119.563 168.07 118.991C168.647 118.321 169.028 117.465 169.151 116.651C169.277 115.81 169.151 115.074 168.84 114.425C168.473 113.658 167.854 113.011 167.106 112.445C164.843 110.731 160.96 111.143 158.29 111.489C155.65 111.833 153.026 112.652 150.692 113.952C148.391 115.236 146.39 116.965 144.828 119.079C143.512 120.861 142.892 122.912 142.252 125C145.264 122.472 149.872 121.013 153.687 120.184Z" fill="#343434"/>
<path fill-rule="evenodd" clip-rule="evenodd" d="M135.398 141.993C136.67 145.457 138.606 149.063 140.974 151.978C150.552 160.095 159.86 155.601 164.585 144.601C166.381 136.827 161.613 128.454 156.561 122.735C149.265 115.418 137.358 119.258 134.003 127.957C133.799 129.084 133.676 130.208 133.617 131.329C133.687 134.971 134.126 138.083 135.398 141.543M227.468 135.007C214.85 119.989 191.243 119.186 191.845 142.3C194.556 171.559 240.2 164.377 227.468 135.007ZM131.429 122.478C131.871 121.729 132.362 121.004 132.898 120.31C133.096 120.192 133.21 119.146 133.938 119.069C143.666 108.33 160.756 114.423 166.931 125.124C168.059 126.477 168.979 128.061 169.657 129.734C175.741 128.617 182.835 128.834 188.494 131.134C194.105 116.473 211.092 115.164 222.287 121.428C229.25 124.855 233.765 132.031 240.536 135.973C256.455 137.119 273.54 133.55 289.171 137.546C301.499 140.111 291.194 146.357 289.126 142.188C274.389 137.831 256.929 141.513 241.627 140.531C240.036 143.224 236.985 145.428 233.944 145.334C230.66 174.465 188.204 169.634 186.739 143.739C185.078 141.111 183.012 138.596 180.055 136.958C178.923 136.724 177.829 136.419 176.83 135.947C175.121 135.706 172.489 136.431 170.917 137.854C165.533 170.178 134.516 166.413 128.972 138.096C128.862 137.983 128.554 137.561 128.317 136.884C126.42 134.374 121.775 133.441 122.517 129.203C123.178 124.964 128.527 125.015 131.429 122.478Z" fill="#FF9500"/>
</svg>
