<svg width="369" height="537" viewBox="0 0 369 537" fill="none" xmlns="http://www.w3.org/2000/svg">
<path fill-rule="evenodd" clip-rule="evenodd" d="M324.425 525.692C296.881 526.464 270.862 527.315 243.372 525.692C199.381 522.97 70.2818 527.878 41.9048 525.692C39.7633 525.527 32.3986 527.878 32.2452 525.692C30.9978 510.476 30.189 356.526 33.8951 345.933C37.6012 335.34 55.8947 284.419 79.2041 260.674C85.7036 254.259 95.5942 251.775 101.058 244.362C105.769 236.278 105.403 231.534 110.055 227.281C112.074 225.435 116.835 224.687 120.373 222.125C123.93 218.588 120.562 210.801 122.022 205.875C125.031 193.576 136.118 185.685 148.236 183.826C165.078 179.793 182.859 183.606 190.926 196.844C193.929 201.771 192.331 207.761 196.024 215.656C195.761 221.623 202.723 223.065 206.884 225.429L215.148 233.786C240.608 248.12 270.559 255.86 292.867 275.118C311.833 294.37 330.698 316.622 339.113 342.669C340.855 349.767 341.424 357.103 342.146 364.355C344.207 385.549 349.946 406.12 354.885 426.765C360.517 452.776 365.767 480.387 358.177 506.644C355.988 512.201 329.406 525.433 324.425 525.692Z" fill="#FAFAFA"/>
<path fill-rule="evenodd" clip-rule="evenodd" d="M192.385 198.963C192.165 198.243 191.215 198.445 191.143 199.13C190.428 205.917 191.328 213.011 192.191 219.753C192.605 223.007 192.844 226.392 193.474 229.601C193.555 229.943 193.631 230.29 193.703 230.632C193.496 231.001 192.884 231.415 192.592 231.698L191.322 232.934L188.778 235.399C183.798 240.224 178.819 245.053 173.839 249.878L166.529 256.967C164.023 259.397 161.176 261.725 158.977 264.434C157.784 265.906 157.515 267.711 158.689 269.286C159.269 270.065 160.312 270.632 161.37 270.749C160.956 271.325 160.637 271.978 160.434 272.703C160.021 274.179 161.513 275.992 163.101 275.376C164.905 274.683 166.395 273.44 168.23 272.846C170.083 272.243 172.098 272.127 174.019 272.45C174.901 272.599 175.764 272.82 176.606 273.099C167.604 277.244 157.866 279.625 147.934 279.967C145.91 280.035 143.889 280.007 141.879 279.873C138.496 279.652 135.136 279.139 131.835 278.311C129.239 277.658 126.67 276.839 124.178 275.848C122.955 275.362 121.745 274.827 120.575 274.22L120.473 274.159C120.208 273.993 115.321 271.22 115.236 270.803C115.15 270.386 115.15 270.241 115.309 269.878C115.468 269.516 115.91 269.266 115.91 269.266C117.42 268.62 118.984 268.019 120.633 268.008C124.43 267.985 128.573 270.794 131.713 272.707C135.163 274.809 138.335 277.266 141.654 279.544C141.731 279.598 141.816 279.621 141.897 279.621C142.248 279.621 142.572 279.188 142.347 278.851C139.968 275.345 136.756 272.427 133.397 269.878L132.043 268.863C128.967 266.567 125.368 264.025 121.628 263.471C117.044 262.796 112.258 265.654 108.169 267.328L100.927 270.294C99.6361 270.821 98.2322 271.271 96.9327 271.87L99.9674 262.368C101.484 257.617 102.996 252.865 104.494 248.109L104.784 247.178C106.276 242.35 107.646 237.329 110.131 232.919C110.724 231.861 111.404 230.866 112.074 229.862C112.771 228.823 113.032 227.675 113.909 226.747C115.645 224.906 118.133 223.826 120.508 223.12C121.088 222.949 120.917 222.184 120.373 222.125C117.935 221.868 115.611 222.437 113.409 223.466L112.493 223.902C110.411 224.889 108.38 225.806 106.833 227.575C103.307 231.617 101.476 236.707 99.7933 241.729L99.3433 243.077C98.714 242.87 94.4362 244.175 93.9009 244.486C77.8642 251.269 65.5121 263.898 56.4796 278.698C46.5835 294.915 41.195 313.445 36.7463 331.783C35.3734 337.442 34.0604 343.118 32.799 348.807C38.4187 350.971 44.3914 352.103 49.6522 355.151C51.6561 356.312 49.846 359.425 47.8362 358.26C42.9088 355.406 37.2964 354.351 32.0222 352.347C29.1627 365.518 26.6189 378.761 24.4886 392.06C17.9432 432.874 13.8098 474.355 14.0706 515.728C14.0751 516.642 14.3446 517.663 14.8443 518.541C14.5515 518.398 14.3221 518.226 14.1917 518.02C12.5323 515.413 8.37137 517.83 10.0402 520.45L10.2839 520.83C11.5362 522.762 12.7053 524.238 14.9069 525.329C17.1249 526.427 19.527 526.612 21.9736 526.675C30.2908 526.894 38.6139 527.037 46.9397 527.139C48.0814 518.228 48.5456 509.232 50.1187 500.373C50.523 498.095 53.9916 499.061 53.5886 501.331C52.0695 509.885 51.5833 518.57 50.523 527.183C68.3226 527.374 86.132 527.377 103.918 527.427C128.022 527.497 152.123 527.447 176.225 527.434L186.555 527.431C214.399 527.431 242.244 527.341 270.087 527.156L276.709 527.109C279.344 511.571 281.137 495.901 281.17 480.111C281.175 477.795 284.773 477.79 284.768 480.111C284.735 495.883 282.962 511.556 280.352 527.089C286.945 527.06 293.534 527.084 300.127 527.318L303.483 527.438C310.197 527.668 316.925 527.809 323.626 527.273C331.066 526.675 338.591 525.307 345.262 521.8C348.266 520.218 350.912 518.196 353.173 515.818C350.875 514.48 348.544 513.197 346.317 511.74C344.387 510.476 346.188 507.357 348.134 508.631C350.533 510.202 353.054 511.57 355.524 513.023C357.313 510.634 358.781 507.984 359.895 505.124C361.654 500.609 362.333 495.753 362.923 490.973C363.619 485.342 363.908 479.666 363.908 473.995C363.908 462.068 362.653 450.176 360.902 438.393C359.229 427.104 357.016 415.906 354.678 404.744L354.358 403.222C352.05 392.248 349.851 381.243 347.206 370.346C344.76 360.27 341.934 350.241 338.566 340.406C335.567 342.261 332.43 343.883 329.479 345.816C327.535 347.089 325.73 343.972 327.662 342.707C330.811 340.645 334.169 338.931 337.347 336.917C333.581 326.385 329.16 316.1 323.859 306.248C313.244 286.521 298.939 268.872 280.618 255.847C271.446 249.329 261.384 243.995 250.817 240.115C240.044 236.155 228.88 233.985 217.463 233.094C217.137 233.068 216.954 233.37 216.967 233.649L216.972 233.701L216.522 233.774C216.356 232.644 216.014 231.55 215.362 230.547C213.877 228.26 211.062 226.793 208.813 225.388L208.28 225.056C205.604 223.397 202.78 221.762 199.668 221.18C199.56 221.162 199.493 221.274 199.565 221.36C201.617 223.715 204.241 225.514 206.647 227.505L207.199 227.966C209.193 229.608 211.973 231.471 212.047 234.214C212.132 237.447 211.471 240.808 211.233 244.031C210.994 247.245 210.828 250.454 210.743 253.677C210.432 265.222 210.805 276.772 211.827 288.272L207.311 285.246C200.283 280.539 193.232 275.845 186.034 271.437C181.679 268.769 176.785 266.486 171.567 266.59C170.106 266.617 168.455 266.829 166.871 267.279C168.576 265.663 170.209 263.944 171.877 262.319C174.626 259.64 177.375 256.963 180.123 254.289L188.047 246.565L195.975 238.841C198.431 236.442 201.31 234.233 201.049 230.452C200.837 227.436 199.304 224.434 198.256 221.527C198.107 221.108 197.972 220.694 197.846 220.284C195.732 213.254 194.531 205.966 192.385 198.963ZM89.9645 500.616C91.6036 498.975 94.1487 501.52 92.5087 503.162L91.6415 504.026C90.1931 505.472 88.7572 506.962 87.7549 508.749L87.6078 509.02C86.5278 511.07 83.4204 509.253 84.5009 507.202C85.8364 504.668 87.961 502.622 89.9645 500.616ZM160.196 500.153C165.415 499.156 170.444 499.156 175.663 500.153C177.935 500.587 176.973 504.058 174.706 503.625C170.142 502.753 165.718 502.753 161.153 503.625C158.89 504.057 157.921 500.588 160.196 500.153ZM230.671 463.857C232.917 463.288 233.875 466.76 231.628 467.329L230.521 467.607C226.76 468.537 223.178 469.23 219.271 468.367C217.04 467.873 217.942 464.485 220.139 464.876L220.228 464.894C223.843 465.693 227.173 464.744 230.671 463.857ZM105.51 440.469C107.172 438.852 109.719 441.396 108.055 443.014C105.978 445.035 103.53 446.571 100.564 446.653C98.2821 446.717 98.2498 443.223 100.462 443.057L100.564 443.052C102.552 442.997 104.136 441.806 105.51 440.469ZM317.298 430.852C315.226 429.815 317.047 426.709 319.114 427.743L331.551 433.965C333.623 435.001 331.802 438.109 329.735 437.074L317.298 430.852ZM71.5451 431.645C73.8617 431.58 73.8599 435.181 71.5451 435.246C69.3684 435.307 67.1377 436.132 65.1985 437.074C63.1239 438.082 61.2972 434.978 63.3821 433.965C65.9173 432.733 68.7004 431.724 71.5451 431.645ZM187.749 414.26C185.844 412.965 187.643 409.843 189.565 411.151C192.189 412.934 194.566 415.041 197.147 416.879L197.857 417.373C199.761 418.668 197.963 421.789 196.04 420.482C193.179 418.536 190.61 416.205 187.749 414.26ZM53.9264 388.09C56.2421 388.089 56.2457 391.69 53.9264 391.691L53.4873 391.689C51.5759 391.678 49.5613 391.626 47.7838 392.39L47.5798 392.482C45.4962 393.464 43.6677 390.361 45.7634 389.373C48.3693 388.145 51.0938 388.091 53.9264 388.09ZM253.774 385.518L253.472 385.404C251.308 384.627 252.241 381.146 254.429 381.932C257.725 383.118 260.289 385.356 263.149 387.298C265.054 388.593 263.256 391.714 261.333 390.408C258.869 388.734 256.577 386.614 253.774 385.518ZM118.796 376.15L118.311 375.89C116.251 374.829 118.069 371.721 120.127 372.781C121.76 373.621 123.222 374.74 124.824 375.632L125.309 375.892C127.369 376.952 125.551 380.06 123.493 379.001C121.86 378.16 120.398 377.041 118.796 376.15ZM173.541 341.273L173.912 340.915C175.568 339.292 178.115 341.836 176.457 343.461C172.316 347.516 167.42 350.595 162.481 353.572L161.583 354.112C159.592 355.307 157.781 352.195 159.766 351.003L161.085 350.21C165.476 347.56 169.815 344.825 173.541 341.273ZM273.124 337.911C271.729 336.098 274.763 334.324 276.182 336.031L276.232 336.094C277.684 337.98 279.408 339.689 281.209 341.247L281.548 341.538C282.62 342.451 284.572 344.406 286.078 344.535C288.369 344.73 288.389 348.333 286.078 348.136C283.747 347.937 281.742 346.296 279.98 344.889C277.417 342.843 275.125 340.509 273.124 337.911ZM81.6733 324.794C80.0012 323.222 82.4711 320.72 84.1583 322.194L84.2175 322.248C87.3424 325.185 91.8376 325.974 95.8603 326.97C98.1072 327.527 97.1554 331 94.9035 330.442L93.0709 329.989C88.9601 328.963 84.8352 327.767 81.6733 324.794ZM152.942 302.081C155.187 301.51 156.145 304.982 153.898 305.554C150.081 306.524 146.466 307.778 142.928 309.52C140.857 310.539 139.032 307.435 141.112 306.411C144.918 304.537 148.832 303.127 152.942 302.081ZM116.181 226.176C116.235 226.014 116.063 225.829 115.897 225.887C111.859 227.394 114.006 232.686 115.26 235.855L115.488 236.434C117.454 241.511 120.202 246.453 123.198 250.999C126.333 255.756 129.814 260.311 133.584 264.587C135.219 266.444 136.915 268.247 138.669 269.996L139.329 270.65C141.101 272.392 143.386 275.453 146.134 275.115C149.094 274.759 150.745 271.595 148.586 269.192C147.061 267.49 144.947 266.135 143.242 264.587C141.55 263.057 139.913 261.477 138.317 259.852C135.05 256.517 131.956 252.993 129.126 249.279C126.39 245.689 123.771 241.998 121.39 238.162L120.917 237.392C119.105 234.408 114.921 230.02 116.181 226.176ZM259.26 263.893C261.177 262.582 262.979 265.701 261.077 267.002C257.578 269.395 254.5 272.294 250.713 274.261C248.685 275.315 246.882 272.295 248.824 271.192L248.896 271.153C252.681 269.185 255.763 266.284 259.26 263.893Z" fill="#343434"/>
<path fill-rule="evenodd" clip-rule="evenodd" d="M57.1548 225.498C62.2873 201.391 65.5796 176.973 68.5259 152.524C69.9519 140.682 71.0899 128.809 72.4084 116.958C73.6404 105.916 75.0758 94.8394 77.9547 84.0911C80.6307 74.1034 84.5446 64.2147 90.3113 55.5913C95.7178 47.5071 102.515 40.5801 110.319 34.7963C125.739 23.3684 145.46 17.2875 164.64 19.304C167.537 19.61 170.407 20.1006 173.245 20.7578C172.341 20.4922 171.428 20.2442 170.506 20.0286C170.209 19.9571 170.341 19.5569 170.632 19.5835C248.665 26.6775 267.02 162.467 268.689 189.846C268.819 191.975 268.922 194.099 268.999 196.228C269.584 200.977 270.02 205.739 270.227 210.515C270.461 216.024 270.348 221.569 269.841 227.06C269.319 232.69 268.725 238.461 266.376 243.637C264.937 246.824 197.824 242.458 197.131 238.695C195.728 231.098 195.008 223.257 195.448 215.529C195.655 211.824 196.038 208.147 196.83 204.519C197.046 203.529 197.275 201.67 197.855 200.198C191.733 188.559 184.999 177.252 178.067 166.076C163.641 142.806 148.303 119.968 136.513 95.1855C130.602 82.7678 124.777 69.5804 121.988 55.9734L121.538 56.0635C121.592 56.2255 121.556 56.428 121.394 56.5406C108.579 65.403 100.014 78.8339 94.4628 93.215C87.9992 109.958 84.864 128.039 85.3138 145.98C86.0286 174.489 96.8288 209.722 127.386 218.733C134.358 220.79 141.888 221.371 149.031 219.868C152.401 219.156 155.702 218.062 158.743 216.442C162.117 214.646 164.888 212.103 168.049 210.011C170.942 208.098 174.356 211.829 172.692 214.66C169.017 220.916 161.109 224.742 154.317 226.624C147.07 228.635 139.427 228.73 132.046 227.452C131.484 227.357 130.926 227.249 130.373 227.132C130.247 228.987 129.451 230.832 128.155 232.331C127.575 233.006 126.86 233.591 126.059 234.082C125.955 235.892 124.79 237.709 122.896 238.106C112.78 240.212 70.7665 234.689 60.6635 231.678C57.951 230.868 56.579 228.208 57.1548 225.498Z" fill="#343434"/>
<path fill-rule="evenodd" clip-rule="evenodd" d="M83.5421 138.565C84.2996 103.195 93.1067 64.0396 123.297 42.1828C125.22 40.7889 128.106 41.464 129.699 43.056C131.008 43.3117 132.21 44.1047 133.009 45.5631C150.861 78.1659 169.655 110.253 189.38 141.757C202.045 162.126 217.43 182.522 219.46 207.212C219.811 207.678 223.072 211.362 221.172 211.094C220.329 210.652 219.47 210.289 218.567 210.021C216.155 213.54 210.554 212.986 209.222 209.015C204.606 209.148 200.038 210.328 195.64 211.697C184.853 215.076 173.889 218.415 162.88 220.998C126.613 230.629 87.6427 218.375 84.7449 176.067C80.8521 170.579 82.9582 146.119 83.5421 138.565Z" fill="#FAFAFA"/>
<path fill-rule="evenodd" clip-rule="evenodd" d="M110.18 186.858C107.337 186.195 105.104 188.604 105.663 191.378C106.255 194.315 109.41 195.321 112.056 195.229C115.056 195.125 118.053 194.505 121.068 194.38C124.165 194.253 127.274 194.229 130.373 194.313C133.239 194.39 136.181 194.896 139.025 194.442C140.132 194.265 140.027 192.802 139.307 192.282C137.167 190.739 134.395 190.109 131.873 189.462C129.302 188.801 126.673 188.295 124.037 187.986C121.363 187.673 118.668 187.517 115.977 187.487C114.752 187.473 113.25 187.745 112.056 187.524C111.447 187.412 110.827 187.01 110.18 186.858ZM118.387 148.715C114.99 150.781 109.815 155.599 113.469 160.72C117.77 165.237 123.963 160.059 127.015 157.717C129.845 155.902 133.024 160.57 130.399 162.689C108.346 179.025 99.3973 149.256 116.669 146.286C118.571 145.959 119.277 148.076 118.387 148.715ZM143.017 133.288C138.474 132.532 137.679 139.013 142.182 139.466C143.127 139.561 144.067 139.644 145.005 139.726C144.913 140.02 144.853 140.322 144.819 140.632C144.777 140.896 144.745 141.176 144.716 141.496C144.574 143.091 145.704 144.749 147.024 145.522C148.396 146.325 150.365 146.433 151.728 145.522C152.43 145.052 153.132 144.522 153.519 143.745C154.039 142.947 154.322 142.024 154.351 141.076C156.423 141.614 158.532 142.342 160.624 142.728C160.547 142.803 160.471 142.884 160.398 142.973C160.342 143.041 160.419 143.168 160.5 143.105L161.55 142.873C161.873 142.915 162.196 142.95 162.518 142.97L162.51 142.942C163.048 142.932 163.489 142.295 163.007 141.786C161.159 139.831 158.275 138.532 155.645 137.445L153.112 136.406C149.872 135.089 146.452 133.86 143.017 133.288ZM106.464 135.293C103.488 134.953 100.542 135.088 97.5607 135.27C92.5438 135.576 94.6481 142.896 98.6749 141.206C98.6335 141.474 98.6227 141.742 98.6538 141.992C98.8112 143.279 99.2304 144.366 100.411 145.057C101.507 145.699 102.896 145.697 103.993 145.057C105.167 144.372 105.696 143.407 105.996 142.152C106.228 141.18 106.135 140.366 106.001 139.403C105.956 139.084 105.817 138.786 105.625 138.519C105.905 138.449 106.187 138.381 106.468 138.317C108.972 137.747 111.442 137.862 113.938 137.501C114.205 137.462 114.247 137.032 114.014 136.922C111.771 135.868 108.919 135.573 106.464 135.293ZM143.476 112.684C141.759 112.028 139.601 113.119 138.725 114.619C137.73 116.321 138.155 118.287 139.383 119.721C141.266 121.921 144.854 123.277 147.498 124.533L147.71 124.634C150.425 125.945 153.215 127.149 156.042 128.197C158.822 129.229 161.715 130.038 164.597 130.732C166.117 131.098 167.669 131.4 169.223 131.591C170.449 131.741 171.394 131.405 172.568 131.405C172.739 131.405 172.792 131.178 172.653 131.09C171.556 130.401 170.743 129.493 169.547 128.854C168.302 128.19 167.052 127.536 165.798 126.889C163.262 125.581 160.821 124.125 158.375 122.66C155.796 121.116 153.276 119.49 150.826 117.749C148.428 116.045 146.218 113.731 143.476 112.684ZM112.871 111.284C110.727 110.867 108.603 111.883 107.968 114.07C107.359 116.165 107.996 116.614 106.372 118.113C105.078 119.308 103.683 120.375 102.275 121.425L100.202 122.966C96.4484 125.747 92.6634 128.376 88.3471 130.252C87.9823 130.41 88.1932 130.953 88.5391 130.96C95.4008 131.092 101.98 130.163 108.174 127.089C111.067 125.653 113.974 123.837 115.65 120.971C117.592 117.652 117.536 112.188 112.871 111.284Z" fill="#343434"/>
<path fill-rule="evenodd" clip-rule="evenodd" d="M70.5814 136.975C74.8701 166.001 104.808 169.211 110.127 140.395C109.273 140.021 108.659 139.285 108.787 137.855C108.817 131.575 106.869 124.938 101.208 121.446C95.3573 117.842 88.5105 117.485 81.7402 117.576C68.8204 117.268 69.0921 128.073 70.5814 136.975ZM114.814 124.351C118.868 124.18 123.998 124.323 127.63 126.795C128.629 124.104 131.224 121.231 133.845 119.695C124.101 119.98 114.071 119.021 104.254 118.276C106.604 119.879 108.79 122.287 110.211 125.07C111.529 124.367 113.418 124.433 114.814 124.351ZM132.686 140.052C143.929 178.777 171.994 161.898 175.054 156.935C180.573 148.723 181.611 128.759 176.804 123.421C169.922 118.594 160.181 119.837 152.051 119.718C137.117 119.92 126.51 124.39 132.686 140.052ZM57.3058 122.241C60.3605 121.841 63.6249 121.761 66.4651 123.107C67.3396 119.388 70.0848 116.278 73.1846 114.91C73.5597 114.439 73.5035 114.186 74.785 114.257C82.6547 111.89 91.4609 113.142 99.0234 115.569C110.967 116.576 123.498 117.369 135.542 118.756C146.824 113.686 180.873 112.943 182.989 125.439C185.65 125.041 190.183 122.945 192.42 125.788C208.825 123.005 225.777 126.873 242.254 128.595C246.401 129.359 248.537 137.595 243.829 137.483C241.183 136.764 243.911 132.354 240.347 132.023C224.45 130.285 208.9 127.821 192.84 127.532C193.399 130.307 182.218 130.487 182.053 128.867C182.029 128.879 182.004 128.887 181.979 128.898C184.742 139.201 182.248 154.028 177.255 160.417C170.26 168.782 152.696 171.182 144.909 165.8C134.863 160.832 124.412 135.896 127.347 127.611C122.02 125.922 116.753 126.429 111.223 127.289C112.489 130.867 114.675 139.675 111.531 140.439C112.108 157.925 96.2034 168.836 81.5419 161.662C68.8519 155.702 64.4139 136.835 65.9667 125.383C64.3869 128.437 51.1225 125.112 57.3058 122.241Z" fill="#FF9500"/>
</svg>
