<svg width="346" height="518" viewBox="0 0 346 518" fill="none" xmlns="http://www.w3.org/2000/svg">
<path fill-rule="evenodd" clip-rule="evenodd" d="M182.619 215.182C172.409 207.398 146.779 203.897 135.883 211.392C125.121 218.919 123.947 231.09 118.932 242.287C114.201 240.053 106.387 243.253 105.015 247.649C103.314 249.723 103.237 255.548 102.064 258.336C51.0111 266.473 43.2604 306.327 37.1155 351.573C28.9863 397.486 10.5321 443.298 18.5435 490.544C17.4996 492.056 16.6766 493.526 15.9156 495.272C14.0921 498.379 16.4408 502.776 20.1187 502.606C24.8794 502.188 29.593 501.616 34.376 501.438C47.6351 500.976 60.9063 501.031 74.1705 501.2L75.9792 501.224C142.827 502.057 209.671 503.699 276.521 504.134C278.946 504.138 280.134 501.96 279.81 499.812C279.157 495.486 278.552 491.159 277.921 486.831C293.733 491.013 310.542 492.065 326.309 487.271C327.412 486.146 323.739 486.756 323.157 486.585C337.667 476.656 333.334 455.74 332.048 440.675C324.056 389.055 321.238 331.941 290.357 287.892C276.997 269.916 257.41 255.683 234.904 252.481L234.28 252.395C227.699 251.517 220.365 251.234 214.611 247.649C208.139 242.476 205.382 232.918 198.574 232.829C196.326 232.799 193.267 235.647 189.976 237.58C189.731 233.327 187.442 229.738 186.936 226.44L186.895 226.158C186.368 222.313 187.09 218.854 182.619 215.182ZM72.9017 352.937C87.2489 342.956 124.311 347.971 125.159 348.53C127.027 349.76 127.832 349.869 128.842 351.467C129.84 351.599 130.836 351.737 131.832 351.878C133.83 352.532 132.35 354.993 130.042 354.115C131.43 360.109 127.345 364.372 125.719 370.297C125.191 372.221 125.7 375.682 125.719 377.648C125.561 380.154 122.793 383.115 123.255 385.63C124.895 394.571 133.794 403.292 130.042 411.962C127.556 416.859 120.08 419.356 115.11 421.021C104.812 424.978 86.8698 420.872 80.8866 411.962C77.6953 407.21 73.998 395.222 72.0951 391.504L71.6733 385.605C70.6332 370.943 69.708 355.158 72.9017 352.937Z" fill="#FAFAFA"/>
<path fill-rule="evenodd" clip-rule="evenodd" d="M201.073 231.964C200.083 231.085 198.617 232.189 199.246 233.375C200.661 236.042 202.112 238.568 204.01 240.926C205.161 242.355 206.394 243.706 207.643 245.043C204.437 247.821 201.687 251.269 199.09 254.501C195.769 258.634 192.63 262.943 188.902 266.725C185.226 270.455 181.161 273.062 176.247 274.801L175.254 275.146C170.317 276.882 165.04 279.226 162.257 283.907C161.708 284.83 162.813 285.97 163.742 285.394C168.578 282.396 174.26 281.793 179.524 279.812C184.609 277.898 189.041 274.953 192.958 271.194C196.868 267.441 200.151 263.172 203.575 258.992C206.962 254.86 210.608 251.33 214.613 247.834C220.794 251.998 227.85 253.809 235.024 255.589L235.807 255.783C242.99 257.564 250.135 259.632 256.874 262.733C262.815 265.466 268.659 268.731 273.499 273.179C278.636 277.9 282.634 283.93 286.294 289.826C294.48 303.019 300.236 317.471 305.303 332.1C310.572 347.315 314.98 362.836 318.539 378.54C320.348 386.529 321.818 394.574 323.026 402.675C323.608 406.577 324.124 410.487 324.578 414.406C325.062 418.591 325.174 422.896 326.456 426.919C327.005 428.644 328.303 429.359 329.602 429.299L329.866 432.603C330.216 437.008 330.542 441.415 330.652 445.848C330.835 453.218 330.752 460.567 330.223 467.922L330.148 468.925C329.732 474.293 328.802 480.324 324.771 484.255C320.596 488.325 314.176 489.605 308.55 489.679C295.445 489.85 282.83 483.65 271.233 478.21C259.29 472.608 247.673 466.39 236.334 459.647C230.56 456.213 224.848 452.664 219.209 449.012C216.442 447.219 213.694 445.396 210.967 443.544C209.405 442.483 207.924 441.32 206.334 440.378C207.113 439.652 207.461 438.51 206.809 437.513C211.405 433.517 213.319 426.387 213.542 420.618C213.723 415.961 213.039 411.318 212.499 406.705C212.226 404.379 211.889 402.057 211.54 399.741C211.402 398.826 211.296 397.848 211.135 396.882C223.548 403.712 236.308 409.795 249.407 415.199C256.12 417.969 262.921 420.459 269.814 422.741L271.212 423.202C277.744 425.343 284.432 427.365 291.185 428.589C291.546 428.655 291.839 428.121 291.454 427.951C284.873 425.043 278.064 422.591 271.384 419.913L270.287 419.465C270.413 419.458 270.544 419.441 270.68 419.408C274.597 418.461 278.484 417.002 282.326 415.774C285.892 414.634 289.898 413.918 293.231 412.197C293.488 412.065 293.344 411.708 293.095 411.691C289.348 411.43 285.282 412.524 281.609 413.167L280.229 413.409C277.917 413.817 275.555 414.256 273.255 414.828C273.171 414.056 272.741 413.282 272.128 412.827C265.388 407.829 266.073 397.735 265.352 390.291L264.817 384.765C263.877 375.093 262.882 365.422 261.371 355.823C261.291 355.31 260.499 355.457 260.495 355.941C260.417 367.841 261.314 379.685 261.764 391.566L261.834 393.515C262.082 400.846 262.277 408.459 266.888 414.1C266.244 413.723 265.372 413.723 264.849 414.345C264.208 415.11 263.837 415.968 263.849 416.811C259.682 415.062 255.533 413.267 251.405 411.436C238.132 405.548 225.137 398.959 212.487 391.829C211.125 391.062 209.831 391.665 209.158 392.677L209.061 392.663C209.044 392.661 209.028 392.659 209.011 392.658L208.915 392.654C208.911 392.654 208.907 392.655 208.904 392.655C207.123 391.675 204.697 392.373 203.169 393.802C203.124 393.845 203.085 393.891 203.045 393.937C201.11 393.067 199.304 391.893 197.664 390.405C194.31 387.361 191.468 383.596 188.99 379.821C184.428 372.868 180.553 365.136 174.39 359.412C169.383 354.762 163.176 351.867 156.663 350.049C156.69 349.859 156.617 349.656 156.486 349.521C156.151 349.178 155.913 349.059 155.481 349.267C155.446 349.284 155.426 349.307 155.411 349.332L154.776 348.245C154.429 347.655 154.073 347.061 153.949 346.905C153.21 345.972 152.449 345.047 151.676 344.142C150.367 342.608 148.874 341.095 147.146 340.031C143.361 337.704 139.383 339.021 135.493 340.293C133.142 341.062 130.799 341.856 128.452 342.637L128.21 342.716C126.461 343.279 124.413 343.771 123.631 345.627C123.321 346.362 123.273 347.124 123.417 347.864C106.798 343.632 88.3394 345.576 72.1218 350.544C71.4994 350.735 70.8778 351.247 70.7467 351.921C68.8885 361.462 68.0609 371.248 68.9017 380.952C69.6271 389.329 71.4808 397.538 74.9738 405.207L75.1724 405.64C78.4552 412.747 83.6581 421.509 91.6041 423.736C96.402 425.082 101.709 424.288 106.602 424.042C111.358 423.802 116.219 423.768 120.93 423.019C125.125 422.352 128.801 420.469 131.393 417.053C133.63 414.107 134.808 410.545 135.773 407.002C136.214 407.143 136.653 407.293 137.085 407.462C138.908 408.175 140.452 409.325 141.848 410.679C144.797 413.538 147.084 417.01 150.169 419.739C152.961 422.208 156.143 424.129 159.556 425.606C166.629 428.666 174.216 429.889 181.698 431.51L182.219 431.624C187.852 432.862 193.6 434.381 198.571 437.317C198.669 438.181 199.062 438.995 199.692 439.527C198.815 440.352 198.444 441.657 199.215 442.882C201.367 446.302 205.074 448.248 208.402 450.435L208.618 450.578C211.892 452.752 215.195 454.882 218.524 456.969C225.292 461.212 232.202 465.221 239.209 469.054C250.479 475.219 261.992 481.035 273.712 486.31C273.009 489.775 273.266 493.349 272.737 496.838L272.656 497.335C272.43 498.63 272.735 499.713 273.626 500.559L273.72 500.646L273.719 500.634L273.802 500.711L273.83 500.734L273.821 500.727C273.923 500.821 274.029 500.909 274.137 500.984L274.275 501.072C275.133 501.594 276.237 501.588 277.115 501.128L277.216 501.072L277.385 500.975C278.545 500.307 279.345 498.651 278.864 497.335C277.681 494.102 277.234 490.651 276.141 487.396L277.008 487.784L278.15 488.283C290.507 493.633 304.233 498.139 317.697 494.491C323.645 492.879 329.206 489.469 332.182 483.911C335.111 478.442 335.525 472.092 335.681 466.009C335.872 458.501 335.47 450.877 334.482 443.434C333.818 438.437 333.015 433.346 331.777 428.401C332.414 427.838 332.882 427.031 333.006 426.031C333.59 421.308 332.567 416.398 331.941 411.699C331.329 407.112 330.654 402.533 329.889 397.969C328.346 388.751 326.553 379.552 324.466 370.443C320.751 354.229 315.846 338.304 309.94 322.76L309.423 321.406C303.965 307.198 297.647 293.293 288.848 280.812C284.639 274.84 280.19 269.426 274.243 265.123C268.671 261.091 262.386 258.188 255.9 255.969C249.408 253.748 242.734 252.26 235.943 251.335C229.046 250.395 221.766 249.818 215.332 246.986C216.145 245.525 215.447 243.552 214.077 242.646C209.467 239.597 205.205 235.629 201.073 231.964ZM53.5069 364.573C53.3137 364.28 52.8551 364.465 52.9398 364.813C55.1819 374.01 57.2865 383.226 58.6608 392.599C61.1417 409.515 60.6854 426.653 60.4825 443.695L60.4723 444.576C60.3681 453.755 60.2233 462.935 59.9202 472.111C59.7672 476.748 59.4644 481.431 59.629 486.071C59.7188 488.588 60.3888 490.969 60.6262 493.456C60.8342 495.63 60.6489 497.838 60.5451 500.016C60.4756 501.463 62.6096 501.402 62.7548 500.016L62.9404 498.223C63.1816 495.954 63.4796 493.699 64.2222 491.528C65.1151 488.916 65.5436 486.351 65.8533 483.608C66.3278 479.406 66.5388 475.162 66.722 470.93L66.8472 468.003C67.6118 450.318 67.5851 432.551 66.3471 414.885L66.2566 413.623C65.0307 396.924 62.9037 378.881 53.5069 364.573ZM101.298 259.326C101.883 259.085 101.678 258.199 101.03 258.353L99.8503 258.635C91.2088 260.707 82.7241 262.953 74.6584 266.81C66.5874 270.668 59.7543 276.429 54.3249 283.513C43.7704 297.283 39.3845 314.017 35.922 330.736C32.0741 349.314 28.5707 367.96 24.6893 386.532L23.9685 389.991C20.377 407.289 16.9861 424.596 14.4876 442.099L14.3081 443.368C11.7885 461.366 10.273 479.988 13.0223 498.033C13.5662 501.603 19.4993 500.714 19.2673 497.187C18.5973 486.99 18.1176 476.847 18.5812 466.627C19.0452 456.405 20.0026 446.228 21.4299 436.096C22.631 427.569 24.4214 419.149 26.0059 410.69L26.2542 409.354C27.581 402.159 28.9488 394.971 30.3135 387.783L32.353 377.021C35.4098 360.906 38.5263 344.778 42.0479 328.764L42.2569 327.822C45.7031 312.416 50.7839 296.278 61.1212 284.044C71.6115 271.628 86.6289 265.375 101.298 259.326ZM139.416 422.737C139.163 422.174 138.281 422.236 138.01 422.737C136.946 424.701 136.828 427.208 136.627 429.425L136.606 429.653C136.351 432.359 136.124 435.073 135.986 437.787C135.723 442.938 135.598 448.083 135.614 453.241C135.63 458.527 135.736 463.806 136.021 469.084L136.098 470.499C136.358 475.085 136.794 480.201 138.97 484.211C139.761 485.669 141.913 485.24 142.371 483.766C143.873 478.939 143.102 473.216 142.717 468.272L142.418 464.415C142.122 460.557 141.839 456.697 141.615 452.835C141.309 447.55 141.055 442.261 140.812 436.974C140.733 435.257 140.647 433.539 140.557 431.822L140.418 429.246C140.299 427.092 140.309 424.728 139.416 422.737ZM308.216 429.578L307.551 428.935C305.511 426.936 302.933 423.857 299.917 424.048C298.714 424.124 297.948 425.124 298.197 426.309C298.73 428.841 301.31 430.156 303.168 431.702C305.202 433.395 307.12 435.206 309.034 437.033C310.732 438.653 312.365 440.32 313.959 442.039L314.555 442.685C315.126 443.31 319.195 446.994 318.755 447.95L318.731 447.993C318.608 448.176 318.812 448.428 319.015 448.364C320.772 447.808 320.663 446.3 319.998 444.773C318.722 441.837 316.487 439.122 314.535 436.615C312.589 434.115 310.482 431.786 308.216 429.578ZM133.049 355.967C134.408 352.752 139.413 352.819 142.254 353.012C149.409 353.496 157.15 355.308 163.516 358.657C170.116 362.128 174.562 367.691 178.54 373.842L178.726 374.13C182.604 380.165 186.338 387.309 192.409 391.459C195.501 393.573 199.112 395.503 202.864 396.339C203.122 396.793 203.539 397.152 204.086 397.282L204.341 397.34C205.409 397.577 207.07 397.838 208.503 397.682C208.494 398.384 208.501 399.081 208.484 399.747C208.433 401.654 208.412 403.569 208.412 405.477C208.411 409.475 208.625 413.482 208.459 417.48C208.311 421.016 207.812 424.71 206.117 427.871C204.873 430.191 203.232 431.725 201.25 433.19C196.376 430.216 190.864 428.403 185.27 427.039C178.505 425.391 171.578 424.291 164.966 422.055C161.784 420.979 158.725 419.57 155.953 417.658C153.011 415.626 150.765 412.878 148.453 410.19L148.091 409.773C145.732 407.063 143.157 404.47 139.823 403.002C136.951 401.736 133.167 401.511 130.656 399.553C129.343 398.528 129.233 397.042 129.095 395.519C130.703 395.749 132.405 395.38 134.008 395.192L134.838 395.095C136.354 394.915 137.834 394.716 139.326 394.33C139.603 394.259 139.603 393.84 139.326 393.769C137.563 393.313 135.816 393.119 134.008 392.907L133.583 392.854C131.948 392.639 130.229 392.315 128.625 392.675C128.337 391.578 127.921 390.532 127.338 389.483C126.52 388.01 124.971 386.34 124.762 384.619C124.699 384.105 124.819 383.499 125.061 383.045L125.144 382.89C125.246 382.707 125.366 382.523 125.543 382.409C125.562 382.432 125.603 382.458 125.693 382.486C126.928 382.876 128.005 382.271 128.576 381.338C131.003 381.64 133.651 381.538 135.926 381.639L138.227 381.75C140.685 381.863 143.255 381.912 145.565 381.415C145.888 381.346 145.986 380.808 145.663 380.67C142.823 379.454 139.378 379.066 136.337 378.599C134.639 378.337 132.928 378.139 131.225 377.909C130.091 377.756 128.888 377.503 127.713 377.442C124.767 373.77 126.354 367.977 130.454 366.396C131.947 367.053 133.29 366.671 134.922 366.53C136.55 366.39 138.183 366.296 139.818 366.303C143.095 366.317 146.568 367.18 149.812 366.809C150.34 366.748 150.831 366.045 150.306 365.616C147.822 363.586 144.262 362.924 141.109 362.492L140.456 362.404C139.399 362.265 138.113 362.063 136.78 361.942C136.478 361.354 135.937 360.908 135.125 360.798C134.883 360.765 134.64 360.745 134.398 360.725L134.402 360.7C132.42 360.605 132.506 357.253 133.049 355.967ZM268.731 418.675C268.766 418.729 268.804 418.781 268.845 418.83L268.908 418.903L268.582 418.771L268.731 418.675ZM98.4654 348.783C106.807 347.885 115.161 348.074 123.528 348.315C124.197 350.507 126.526 352.375 128.783 352.445C127.015 355.139 126.833 358.785 128.072 361.642C125.441 362.691 123.174 364.575 121.797 367.258C119.889 370.979 120.138 375.118 122.025 378.556C120.415 380.015 119.465 382.385 119.56 384.619C119.666 387.11 121.149 389.238 122.381 391.3C123.712 393.531 123.757 395.494 124.166 397.992C124.764 401.648 127.227 403.865 130.395 405.25L130.227 405.914C129.41 409.097 128.393 412.457 126.059 414.785C123.055 417.78 118.396 417.752 114.428 417.942L114.237 417.951C110.603 418.133 106.971 418.346 103.339 418.552L100.615 418.705C96.4326 418.935 92.4164 418.963 89.0023 416.195C83.4286 411.676 79.6075 404.197 77.189 397.577C72.1127 383.68 72.0519 368.43 74.382 353.958C82.1965 351.436 90.3047 349.66 98.4654 348.783ZM167.838 371.837L167.777 371.842C166.059 372.038 164.879 373.431 164.459 375.083C163.849 377.484 164.148 379.654 162.679 381.822C161.169 384.051 160.24 385.835 160.02 388.589C159.93 389.722 159.971 390.852 159.719 391.961L159.537 392.738C159.343 393.566 159.184 394.364 159.281 395.254C159.369 396.065 159.763 396.697 160.576 396.957C163.224 397.805 165.269 395.851 165.953 393.38C166.544 391.246 165.755 388.702 166.589 386.698C167.051 385.587 167.902 384.658 168.384 383.539C168.861 382.431 169.1 381.272 169.177 380.067C169.322 377.788 167.309 375.049 168.432 372.984C168.671 372.544 168.4 371.824 167.838 371.837ZM203.014 348.316C201.221 347.951 199.186 347.115 197.418 347.81C196.509 348.168 196.06 349.278 196.828 350.049C198.161 351.387 200.099 351.462 201.895 351.778L202.053 351.806C204.177 352.2 206.304 352.573 208.435 352.926C212.443 353.591 216.46 354.179 220.492 354.678C224.632 355.191 228.785 355.648 232.943 355.992L234.552 356.124C238.065 356.405 241.72 356.617 245.166 356.079C245.667 356 245.586 355.27 245.166 355.142C241.39 353.998 237.249 353.691 233.346 353.207C229.196 352.692 225.053 352.147 220.921 351.501C216.795 350.856 212.675 350.163 208.571 349.398C206.715 349.053 204.863 348.692 203.014 348.316ZM138.308 344.642C139.882 344.084 141.613 343.258 143.318 343.534C146.259 344.011 148.876 346.88 151.203 348.769L150.035 348.542C144.055 347.391 136.135 346.151 131.116 349.958C131.103 349.936 131.093 349.914 131.078 349.892C130.673 349.276 130.204 348.795 129.691 348.268C129.642 348.222 129.595 348.174 129.548 348.126L129.272 347.831L129.904 347.612C131.258 347.132 132.863 346.513 133.117 346.423L133.134 346.417C134.861 345.831 136.59 345.252 138.308 344.642ZM187.442 219.133C187.688 215.964 182.762 215.99 182.518 219.133C181.985 225.995 183.527 232.792 186.847 238.808C186.871 238.852 186.898 238.891 186.924 238.932C184.848 240.014 182.748 241.052 180.601 241.979C177.856 243.166 175.058 244.247 172.211 245.164C169.635 245.994 166.462 246.321 164.296 248.048C159.73 251.689 161.445 259.245 162.324 264.143L162.461 264.916C162.898 267.437 163.215 270.022 162.153 272.441C161.02 275.025 158.729 276.941 156.684 278.79L156.271 279.165C154.46 280.817 152.391 282.824 151.063 285.064C149.85 282.554 148.197 280.502 146.449 278.192C145.202 276.544 146.09 276.001 146.986 274.391C147.848 272.841 148.269 271.189 147.999 269.421C147.502 266.157 144.896 263.798 142.302 262.026C139.238 259.934 135.819 258.385 132.653 256.439C126.145 252.441 119.808 247.87 114.099 242.793C113.941 242.653 113.668 242.837 113.794 243.028C118.304 249.897 123.593 255.833 130.092 260.871C132.728 262.914 135.496 264.609 138.283 266.39L139.084 266.905C140.203 267.631 141.599 268.601 142.105 269.836C142.614 271.079 141.528 272.018 140.944 273.047C139.088 276.316 139.984 279.367 142.184 282.139L142.286 282.267C144.472 284.965 146.129 287.473 146.921 290.92C148.624 298.323 146.253 306.034 143.77 312.984L143.672 313.258C142.329 317.004 140.902 320.723 139.735 324.529L139.414 325.581C138.357 329.083 137.491 332.537 138.677 336.138C139.08 337.362 140.748 337.652 141.441 336.499C143.885 332.435 144.494 327.544 146.026 323.076C147.519 318.721 149.233 314.445 150.675 310.072C152.532 304.442 153.775 298.382 153.101 292.477C153.121 292.442 153.142 292.41 153.159 292.374L153.632 291.338C154.921 288.535 156.166 286.086 158.51 283.852C160.955 281.521 163.609 279.457 165.533 276.635C169.712 270.506 167.127 263.687 166.622 256.985L166.565 256.164C166.473 254.772 166.423 252.881 167.331 251.918C168.352 250.834 170.746 250.557 172.101 250.077C175.603 248.836 179.053 247.391 182.339 245.655C185.468 244.002 188.498 242.177 191.319 240.038L192.749 238.961C195.006 237.257 197.345 235.395 198.857 233.075C199.032 232.807 198.735 232.376 198.42 232.504C195.895 233.53 193.589 235.162 191.227 236.581C191.19 236.495 191.147 236.407 191.099 236.32C188.176 231.024 186.975 225.157 187.442 219.133ZM106.801 255.416C105.795 252.655 101.211 252.868 101.394 256.149C101.534 258.67 102.603 260.946 103.58 263.235L103.685 263.48C104.694 265.865 105.859 268.104 107.254 270.29C109.919 274.468 113.04 278.346 116.374 282.006C119.396 285.324 123.363 287.352 127.934 287.015C129.86 286.873 131.805 286.383 133.492 285.419C135.497 284.275 137.674 280.838 140.232 281.67C140.479 281.751 140.71 281.388 140.496 281.216C137.543 278.835 134.192 282.527 131.365 283.416C127.106 284.756 122.735 283.275 119.993 279.827C117.131 276.227 114.497 272.196 112.091 268.276C110.869 266.286 109.754 264.221 108.792 262.092C107.82 259.943 107.599 257.608 106.801 255.416ZM113.667 238.42C113.791 238.039 113.318 237.676 112.983 237.894C111.043 239.158 109.362 240.829 107.573 242.294C105.587 243.919 103.587 245.511 101.556 247.078C98.5951 249.364 102.029 253.571 104.635 251.075C108.202 247.659 112.108 243.194 113.667 238.42ZM124.319 225.052C123.531 222.009 118.869 223.264 119.548 226.272L119.57 226.364C120.857 231.332 119.025 236.389 115.113 239.61L114.969 239.727C112.494 241.71 116 245.177 118.45 243.213C123.8 238.926 126.026 231.644 124.319 225.052Z" fill="#343434"/>
<path fill-rule="evenodd" clip-rule="evenodd" d="M75.2265 104.385C83.3761 55.0313 145.603 46.1332 186.151 56.5209C186.899 47.0277 192.872 38.6393 200.325 33.1215C231.987 10.3081 269.471 49.0407 261.966 82.422C260.62 92.5344 252.547 104.074 241.252 102.343C255.45 129.247 260.998 183.498 229.716 200.268C226.698 202.419 226.197 206.787 223.875 209.587C220.104 214.104 203.995 219.857 195.28 215.247C192.542 217.766 189.383 220.218 185.689 221.089C166.607 236.384 138.721 239.835 115.486 233.524C101.17 231.091 86.3302 224.625 78.9653 211.414C72.7248 201.36 75.6004 189.58 78.4619 178.938C79.6981 173.084 80.5029 167.183 80.9984 161.233C79.9835 160.046 79.9268 158.399 79.6737 156.898C78.5748 151.581 76.1736 146.646 74.9726 141.343C72.2856 129.307 72.7521 116.446 75.2265 104.385Z" fill="#FAFAFA"/>
<path fill-rule="evenodd" clip-rule="evenodd" d="M75.8792 129.52C76.3498 135.471 78.8689 140.825 80.9777 146.371C80.7474 143.09 80.8557 139.675 80.6262 136.267C83.0787 114.931 112.057 109.325 123.306 93.1915C122.88 92.2804 122.727 84.1343 124.404 86.4252C130.911 114.935 169.585 129.239 196.063 129.294C198.065 127.641 202.037 129.387 201.287 132.681C197.327 150.062 196.46 168.244 199.003 185.905C200.201 192.141 200.403 199.645 204.14 205.018C208.106 208.795 203.338 209.099 200.714 208.246C199.982 209.276 199.21 210.276 198.435 211.272C202.204 213.88 207.704 212.457 211.605 210.722C215.945 208.422 218.426 203.965 221.57 200.392C223.287 196.932 225.891 194.943 229.238 193.07C247.861 180.396 247.38 152.594 244.707 132.501C236.917 72.7079 170.638 43.8575 117.448 64.6297C88.7223 71.9849 75.2638 101.724 75.8792 129.52ZM249.128 95.6683C260.488 84.3405 258.201 64.5373 251.06 51.4785C236.752 24.1934 196.11 25.0801 191.243 58.1524C211.969 65.2616 229.457 80.5058 239.869 99.7544C243.26 99.3917 246.537 97.8797 249.128 95.6683ZM75.2265 104.394C83.3761 55.0403 145.602 46.1422 186.151 56.5303C186.898 47.0367 192.871 38.6483 200.325 33.1301C231.987 10.3171 269.471 49.0497 261.966 82.431C260.62 92.5434 252.547 104.083 241.252 102.352C255.45 129.256 260.997 183.507 229.716 200.277C226.698 202.428 226.197 206.796 223.875 209.596C220.104 214.113 203.995 219.867 195.28 215.256C193.208 217.801 181.447 225.543 182.305 217.954C183.17 215.91 185.843 215.376 187.623 214.366C191.364 212.298 194.615 209.383 197.169 205.959C189.147 183.312 189.759 158.095 194.252 134.776C167.399 133.424 135.801 121.638 123.956 95.7574C115.949 114.592 91.119 117.015 84.8467 138.073C84.4683 149.133 86.8369 160.029 85.1193 171.094C84.6151 181.932 78.8933 192.699 82.2015 203.466C91.4433 226.945 124.713 230.391 146.693 229.409C151.914 228.978 156.247 226.153 160.539 223.471C163.111 222.248 166.174 224.805 164.597 227.535C158.579 235.943 146.202 236.678 136.697 236.375C112.03 234.911 76.3812 227.614 75.1008 197.115C75.9143 185.025 80.6522 173.454 80.998 161.242C79.9835 160.055 79.9268 158.408 79.6737 156.907C78.5748 151.589 76.1732 146.655 74.9726 141.352C72.2856 129.316 72.7517 116.456 75.2265 104.394Z" fill="#343434"/>
<path fill-rule="evenodd" clip-rule="evenodd" d="M126.215 200.585C128.995 199.45 131.476 197.555 133.289 195.135C133.92 194.294 134.083 193.406 133.951 192.593C133.802 191.679 133.262 190.851 132.526 190.296C131.788 189.739 130.864 189.464 129.971 189.604C129.195 189.726 128.423 190.151 127.811 191.034L127.683 191.21C126.605 192.671 125.2 193.869 123.599 194.641C122.056 195.386 120.331 195.733 118.545 195.531C115.144 195.147 112.799 193.305 110.308 190.804C109.999 190.488 109.69 190.162 109.379 189.831C109.183 189.531 108.911 189.339 108.609 189.237C108.273 189.125 107.894 189.131 107.546 189.253C107.211 189.37 106.911 189.592 106.71 189.888C106.519 190.168 106.411 190.515 106.446 190.914C106.674 193.507 108.027 195.82 109.95 197.636C112.085 199.654 114.915 201.049 117.58 201.539C120.515 202.078 123.506 201.692 126.215 200.585ZM116.195 160.598C113.072 162.499 108.313 166.931 111.673 171.644C115.628 175.799 121.321 171.035 124.127 168.88C126.729 167.21 129.652 171.505 127.238 173.455C106.963 188.485 98.7351 161.095 114.615 158.363C116.364 158.062 117.013 160.01 116.195 160.598ZM152.528 143.114C152.183 138.825 145.66 137.851 145.011 142.095C144.43 145.897 145.114 149.389 146.824 152.811C148.458 156.081 152.565 154.556 152.875 151.578C153.292 147.587 152.742 145.781 152.528 143.114ZM102.872 141.215C101.963 140.022 100.65 139.208 99.0766 139.668C94.1612 141.106 95.61 148.094 97.3363 151.495C98.2742 153.342 101.306 153.81 102.676 152.184C104.91 149.532 105.979 144.236 103.14 141.624C103.063 141.489 102.977 141.352 102.872 141.215ZM146.893 124.347L146.117 124.211C143.715 123.795 140.728 123.396 139.029 125.329C138.128 126.355 137.818 128.26 139.029 129.242C141.16 130.969 143.515 130.3 146.069 130.446C148.173 130.567 150.195 130.915 152.222 131.496C156.669 132.768 160.292 135.091 164.09 137.642C164.589 137.977 165.097 137.339 164.86 136.872C162.667 132.572 158.419 129.04 154.163 126.887C151.892 125.738 149.406 124.785 146.893 124.347ZM107.353 122.421L106.759 122.543C100.292 123.897 91.8893 126.601 88.8267 132.961C88.71 133.861 88.8334 134.053 88.9336 134.179L88.967 134.221C89.0496 134.329 89.1155 134.477 89.5049 134.6C89.6129 134.574 89.722 134.546 89.8323 134.518C91.2361 134.149 92.3468 133.642 93.4221 133.115L94.5879 132.54C95.9405 131.876 97.3051 131.236 98.7512 130.764C101.837 129.756 105.012 129.046 108.235 128.666C108.934 128.584 109.607 128.348 110.138 127.944C110.641 127.559 111.026 127.028 111.202 126.321C111.429 125.406 111.364 124.713 110.874 123.888C110.505 123.268 109.978 122.839 109.372 122.592C108.755 122.34 108.052 122.281 107.353 122.421Z" fill="#343434"/>
<path fill-rule="evenodd" clip-rule="evenodd" d="M79.1811 163.121C84.2024 168.316 92.5847 169.807 99.2652 167.021C116.419 159.844 108.023 137.461 94.7936 131.45C93.141 131.038 90.9337 130.059 88.9209 129.837C88.7389 129.748 88.3427 130.007 87.8625 129.762C73.2753 131.393 69.9534 154.067 79.1811 163.121ZM134.508 164.451C140.14 171.93 150.61 174.237 159.165 170.761C176.064 164.097 170.07 144.248 158.508 136.467C134.083 127.277 123.997 150.66 134.508 164.451ZM171.143 147.878C171.159 147.871 171.174 147.867 171.191 147.86C171.101 147.82 171.012 147.781 170.923 147.741C170.952 147.817 170.983 147.892 171.012 147.967C171.055 147.937 171.094 147.902 171.143 147.878ZM67.5547 139.793C68.9335 139.796 70.9253 140.023 72.0668 140.981C74.8816 131.476 85.2715 122.679 94.3073 129.093C101.423 131.385 106.703 136.466 109.704 143.222C115.115 140 123.623 141.376 128.315 145.638C131.388 135.471 138.95 131.91 147.952 131.385C157.777 129.773 167.569 139.328 170.625 146.992C173.165 146.703 176.962 145.893 179.352 147.463C194.864 143.39 221.984 141.144 225.137 143.407C227.385 144.271 228.618 149.582 225.479 149.869C222.744 149.48 225.798 145.977 223.041 145.594C208.35 144.683 194.087 147.645 179.551 148.888C178.254 150.636 174.06 151.221 171.823 150.519C175.347 163.52 167.741 172.366 156.345 175.016C138.699 179.074 123.346 163.268 127.961 146.828C122.615 144.165 116.467 144.279 110.644 145.682C120.374 181.54 62.6981 179.932 71.7062 142.21C65.7114 145.196 64.4094 140.396 67.5547 139.793Z" fill="#FF9500"/>
</svg>
