<svg width="353" height="517" viewBox="0 0 353 517" fill="none" xmlns="http://www.w3.org/2000/svg">
<path fill-rule="evenodd" clip-rule="evenodd" d="M319.342 506.206C263.035 514.767 205.708 515.197 148.933 512.089C126.464 510.405 103.926 510.102 81.475 512.254C68.2086 513.242 10.0422 517.692 5.28979 505.799C8.28088 442.47 14.3388 378.601 32.9229 317.694C40.5656 296.067 47.1298 278.117 62.0465 260.221C66.7477 255.335 76.8863 245.087 82.6955 241.744C87.7285 238.849 89.8321 239.882 92.7221 234.992C95.5939 229.59 97.7121 220.568 101.79 216.756C105.942 212.875 112.094 214.263 119.721 215.514C118.32 196.563 127.059 191.736 139.099 188.132C160.263 180.048 181.164 184.109 186.491 209.896C196.368 209.896 201.915 214.15 207.913 218.238C210.365 219.909 208.659 224.166 211.588 225.479C217.006 227.41 226.581 226.937 231.798 229.314C255.521 240.12 276.65 255.79 290.526 278.676C321.635 327.537 343.005 430.463 339.307 488.375C340.927 490.918 338.686 494.565 338.117 497.299C337.398 499.678 335.07 501.26 332.641 500.99C329.251 504.639 324.007 505.451 319.342 506.206Z" fill="#FAFAFA"/>
<path fill-rule="evenodd" clip-rule="evenodd" d="M86.2806 240.312C86.6263 240.119 86.322 239.625 85.9746 239.788C69.276 247.629 56.4657 261.386 47.452 277.28C38.1185 293.738 32.7989 312.424 28.2126 330.687L28.0472 331.347C23.1567 350.885 18.9986 370.624 15.255 390.411C11.4636 410.45 8.42038 430.612 5.97235 450.858C4.76129 460.868 3.68167 470.896 2.83951 480.944C2.41885 485.966 2.03656 490.991 1.69308 496.018C1.55585 498.029 1.42661 500.039 1.31577 502.052L1.23624 503.561C1.16769 504.931 1.00522 506.303 1.34311 507.654C1.63489 508.818 2.25076 509.873 2.79251 510.942C3.86395 513.054 6.80115 512.706 7.95578 510.942L8.29108 510.427C9.05673 509.243 9.69293 508.142 9.93314 506.668C10.1654 505.241 10.1741 503.745 10.2784 502.304C10.4702 499.651 10.6335 496.996 10.8197 494.342C11.2106 488.757 11.6498 483.175 12.1359 477.597C13.0975 466.585 14.1288 455.584 15.3955 444.602C17.6461 425.087 20.4704 405.622 23.7998 386.262C27.0528 367.349 31.1652 348.628 35.4554 329.931L35.8998 327.997C43.4115 295.352 54.9887 257.758 86.2806 240.312ZM264.144 368.141C264.021 367.814 263.493 367.739 263.404 368.141C262.279 373.21 262.168 378.431 261.996 383.621C261.826 388.741 261.833 393.884 261.908 399.007C262.183 417.833 262.699 436.644 263.146 455.468C263.369 464.884 263.578 474.301 263.739 483.718C263.8 487.25 263.851 490.782 263.893 494.314L263.945 498.973C263.971 501.032 264.025 503.067 264.276 505.125C264.442 506.478 264.794 507.768 265.541 508.928C266.07 509.752 266.825 510.17 267.561 510.729L267.699 510.836C268.638 511.578 269.626 511.584 270.556 510.836L270.826 510.622C271.714 509.927 272.481 509.384 273.048 508.285C273.837 506.756 273.963 505.096 274.097 503.412C274.301 500.858 274.166 498.267 274.14 495.706C274.087 490.568 274.016 485.431 273.926 480.294C273.595 461.455 272.942 442.612 271.751 423.807C271.19 414.949 270.43 406.062 269.409 397.24L269.215 395.587C268.905 392.991 268.623 390.35 268.305 387.699C273.053 384.356 277.227 380.3 280.786 375.699C281.048 375.361 280.617 374.886 280.3 375.214C276.664 378.983 272.494 381.987 267.877 384.35C267.121 378.802 266.081 373.284 264.144 368.141ZM184.82 200.209C184.755 200.159 184.653 200.137 184.591 200.209C183.57 201.4 183.777 203.221 183.744 204.73L183.74 204.871C183.667 207.077 183.653 209.277 183.661 211.485L183.684 218.512C183.687 219.479 183.765 220.484 183.715 221.456L183.69 221.833C183.153 222.382 182.904 223.176 183.086 223.974C183.119 224.997 183.653 225.851 184.433 226.388L182.762 228.76L181.089 231.132C177.642 236.026 174.157 240.877 170.524 245.636C166.82 250.489 162.869 255.158 158.734 259.648C156.714 261.842 154.66 264.006 152.557 266.121C151.703 266.98 150.827 267.819 149.961 268.666L149.1 269.518C148.591 270.028 147.95 270.532 147.612 271.177C147.414 271.558 147.368 272.497 147.297 272.652C146.659 274.056 147.748 276.293 149.556 275.593L149.474 275.538C149.145 275.309 149.356 275.306 150.107 275.529C150.581 275.527 151.026 275.418 151.441 275.202L151.565 275.134C152.15 274.836 152.672 274.26 153.147 273.8L153.265 273.688C154.351 272.669 155.387 271.588 156.428 270.523C158.602 268.301 160.726 266.031 162.783 263.701C166.886 259.052 170.775 254.214 174.459 249.226C178.211 244.145 181.699 238.804 184.698 233.243C185.836 231.133 186.88 228.982 187.88 226.806C189.827 226.181 190.279 224.108 190.144 221.773C190.862 220.098 191.509 218.389 191.892 216.643C191.944 216.403 191.637 216.178 191.453 216.387C190.83 217.095 190.254 217.849 189.699 218.623C189.365 216.986 188.942 215.479 188.743 214.518L187.879 210.278C192.744 210.025 198.074 212.025 201.428 215.527C201.608 216.439 202.309 217.092 202.993 217.944C203.774 218.919 204.455 220.012 204.963 221.156C206.09 223.691 205.454 227.426 207.641 229.286C207.869 229.479 208.124 229.614 208.387 229.697C207.349 234.791 207.82 240.404 207.843 245.571L207.844 246.026C207.838 251.81 208.031 257.598 208.255 263.377L208.482 269.096C208.776 276.724 208.967 284.355 208.227 291.941C204.846 288.944 201.349 286.083 197.733 283.358C195.355 281.566 192.929 279.837 190.46 278.174L188.453 276.832C186.049 275.218 183.586 273.557 180.953 272.401C177.509 270.89 174.235 271.41 170.91 272.959C167.599 274.503 164.387 276.297 161.139 277.97C157.836 279.671 154.526 281.359 151.218 283.05C149.027 284.171 145.816 285.182 144.209 287.245C144.107 286.789 143.987 286.334 143.848 285.88C144.007 285.189 143.946 284.442 143.558 283.729C138.158 273.798 133.161 263.629 128.2 253.472C125.688 248.332 123.301 243.131 120.785 237.994L118.339 232.991C117.93 232.158 117.52 231.325 117.108 230.494C116.491 229.249 115.848 228.016 115.224 226.774C114.96 226.249 114.63 225.728 114.373 225.198L114.251 224.933C114.245 224.919 113.653 223.053 114.111 223.231L114.15 223.25C114.384 223.383 114.571 223.088 114.419 222.901C113.772 222.1 112.87 222.809 112.501 223.551C111.483 225.592 113.348 228.795 114.065 230.749L114.105 230.858C116.331 237.165 118.851 243.353 121.434 249.52C126.385 261.343 131.705 272.984 137.012 284.646L137.075 284.846C135.943 283.978 134.735 283.19 133.7 282.423C131.09 280.487 128.403 278.647 125.72 276.813C120.801 273.449 115.748 270.306 110.612 267.288L109.584 266.686C107.018 265.19 104.476 263.977 101.431 264.426C98.6018 264.844 95.9715 266.365 93.4155 267.6L93.1514 267.727L85.2535 271.485C86.0978 268.115 87.0119 264.762 87.9657 261.421C89.8259 254.904 91.8726 248.442 94.0922 242.037C96.1653 236.054 98.4063 230.135 100.777 224.264L101.49 222.502C102.457 220.084 103.418 217.448 106.18 216.704C108.941 215.96 112.107 217.063 114.63 215.488C114.859 215.345 114.831 214.967 114.553 214.897L112.996 214.504C110.073 213.776 106.646 213.044 103.882 213.752C100.874 214.523 98.3857 217.05 96.9264 219.677C95.3038 222.599 94.16 225.869 92.9286 228.984L92.7333 229.475C91.3201 233.001 89.9608 236.548 88.66 240.118C86.0594 247.253 83.692 254.474 81.5492 261.76C80.5165 265.272 79.5369 268.8 78.5952 272.337C78.3245 273.354 77.878 274.588 77.5117 275.874C77.0919 276.284 76.6945 276.741 76.3217 277.263C75.7032 278.128 76.1472 279.143 76.916 279.661C76.9458 280.546 77.1423 281.378 77.6121 282.092C79.446 284.878 84.2941 284.16 84.0972 280.415C84.0674 279.841 83.8442 279.294 83.5063 278.831L83.5158 278.756L83.5541 278.619C84.3958 278.215 85.241 277.766 86.1319 277.325L94.4206 273.226C96.8212 272.038 99.4822 270.203 102.152 269.751C104.64 269.329 107.266 271.185 109.405 272.305L109.544 272.377C114.713 275.029 119.845 277.769 124.956 280.532C127.451 281.88 129.913 283.286 132.399 284.65C134.477 285.792 136.72 287.43 139.056 288.074C140.054 288.851 141.239 288.747 142.191 288.16C141.756 290.858 141.783 293.627 141.649 296.386C141.47 300.074 141.442 303.772 141.383 307.465L141.359 308.85C141.202 317.014 141.118 325.181 141.087 333.347C140.976 362.426 141.298 391.513 141.373 420.592C141.41 435.202 141.7 449.824 142.079 464.429C142.24 470.618 142.576 476.799 142.939 482.978L143.139 486.348C143.562 493.459 143.811 500.649 145.126 507.665C145.298 508.58 146.845 508.603 146.997 507.665C148.207 500.148 148.275 492.465 148.508 484.86L148.557 483.34C148.836 475.174 148.969 467.013 148.941 458.842C148.837 429.752 148.082 400.679 147.464 371.597C147.153 356.985 146.944 342.367 146.461 327.76C146.22 320.451 145.947 313.147 145.623 305.841C145.478 302.579 145.339 299.32 145.122 296.063L145.024 294.667C144.957 293.757 144.903 292.857 144.837 291.966C147.777 293.041 150.467 291.05 153.112 289.689C156.161 288.119 159.209 286.546 162.259 284.98L165.311 283.415L171.42 280.296C174.171 278.891 176.29 277.492 179.224 279.14C189.793 285.075 199.505 292.972 208.307 301.259C209.995 302.848 213.561 302.421 213.989 299.757C215.815 288.379 214.704 276.837 213.772 265.424L213.428 261.187C213.011 256.127 212.558 251.066 211.953 246.026C211.683 243.771 211.414 241.518 211.116 239.268L210.887 237.581C210.514 234.914 210.271 232.262 209.477 229.704C209.728 229.623 209.969 229.49 210.184 229.286C212.571 227.019 211.42 223.086 210.331 220.39C209.256 217.729 207.616 215.406 205.562 213.407C205.114 212.971 204.483 212.69 203.849 212.675C198.869 209.373 193.407 207.726 187.722 209.528C187.562 208.764 187.399 208.001 187.228 207.24L187.053 206.479C186.611 204.591 186.447 201.472 184.82 200.209ZM133.788 498.39C132.243 497.965 130.551 498.413 129.419 499.546C128.287 500.679 127.839 502.372 128.265 503.919C128.478 504.68 128.863 505.341 129.419 505.902C129.939 506.419 130.546 506.788 131.239 507.009L131.401 507.058L131.653 507.163C132.428 507.371 133.203 507.371 133.977 507.163C134.717 506.955 135.36 506.58 135.906 506.039C136.447 505.492 136.822 504.849 137.03 504.108C137.238 503.332 137.238 502.557 137.03 501.782L136.924 501.529C136.711 500.768 136.326 500.107 135.77 499.546C135.21 498.989 134.549 498.604 133.788 498.39ZM42.0439 344.283C41.79 343.991 41.3784 344.365 41.5362 344.675C43.9428 349.397 46.6253 354.086 49.2617 358.689C49.0505 359.964 48.841 361.229 48.6001 362.463C47.5731 367.72 46.315 372.882 45.4948 378.188C42.5469 397.264 41.0164 416.546 39.7032 435.793C38.3861 455.109 38.2176 474.433 38.0198 493.786C38.0025 495.464 39.2916 497.413 41.019 497.729C41.8099 497.874 42.4016 497.846 43.1908 497.729C44.9884 497.465 46.1129 495.403 46.19 493.786C46.7055 482.97 47.399 472.167 48.2023 461.368C49.6263 442.221 50.4965 423.024 51.6468 403.858L52.0519 397.159C52.4867 389.901 52.8843 382.637 53.0139 375.368C53.1001 370.552 52.8428 365.737 53.0009 360.927C53.147 356.486 53.597 351.657 52.6187 347.294C52.5825 347.13 52.3243 347.089 52.2497 347.245C51.2326 349.388 50.5883 351.718 50.0918 354.096C47.4705 350.777 44.8009 347.452 42.0439 344.283ZM213.748 226.97C213.38 226.942 213.395 227.496 213.748 227.537C218.893 228.134 223.862 230.229 228.719 232.01L229.135 232.162C234.043 233.944 238.827 236.017 243.431 238.487C252.433 243.316 260.7 249.544 268.008 256.673C297.189 285.132 310.487 326.172 320.231 364.738C325.645 386.166 329.495 407.955 331.99 429.912C333.224 440.771 334.097 451.671 334.605 462.588C334.866 468.183 335.03 473.783 335.098 479.384C335.134 482.253 335.144 485.122 335.141 487.991C335.139 489.306 334.904 490.961 335.256 492.237C335.581 493.42 336.5 494.461 337.18 495.446C337.986 496.615 339.433 496.554 340.25 495.446L340.551 495.043C341.422 493.887 342.274 492.781 342.399 491.27C342.532 489.649 342.438 487.979 342.444 486.352C342.458 483.073 342.417 479.793 342.352 476.515C342.226 470.232 341.978 463.951 341.611 457.677C340.864 444.944 339.635 432.238 337.876 419.606C334.749 397.152 330.061 374.913 323.922 353.092C318.129 332.506 311.267 311.982 301.491 292.914C292.415 275.21 280.507 258.74 264.795 246.367C257.488 240.613 249.535 235.818 240.959 232.207C236.634 230.386 232.092 228.899 227.474 228.051C222.906 227.213 218.358 227.33 213.748 226.97ZM132.903 462.004C132.087 461.998 131.177 462.178 130.477 462.629L129.542 463.353C129.288 463.679 129.036 464.006 128.785 464.333C128.2 465.096 128.123 466.33 128.245 467.239C128.272 467.846 128.452 468.41 128.785 468.934L129.497 469.856C130.181 470.415 130.752 470.814 131.581 471.082C132.014 471.223 132.431 471.252 132.847 471.231L132.986 471.222L132.903 471.233L133.048 471.217C133.184 471.205 133.319 471.19 133.456 471.172C133.548 471.16 133.641 471.153 133.734 471.14C133.823 471.133 133.909 471.129 133.999 471.138C135.053 471.237 136.112 470.639 136.86 469.952C137.533 469.333 138.138 468.02 138.044 467.09L138.004 466.701C137.933 466.045 137.875 465.787 137.597 465.128C137.327 464.487 136.95 463.921 136.437 463.443C135.454 462.529 134.251 462.014 132.903 462.004ZM136.163 413.999C134.765 412.474 132.364 412.361 130.63 413.284C130.208 413.509 129.82 413.87 129.448 414.171C128.509 414.93 128.141 416.3 128.089 417.454C128.038 418.595 128.639 419.95 129.448 420.738L129.644 420.928C130.127 421.398 130.819 421.807 131.495 421.931C132.585 422.132 133.5 422.126 134.515 421.697C135.387 421.329 136.139 420.737 136.65 419.933L136.733 419.798C136.768 419.741 136.801 419.684 136.832 419.625L136.877 419.537C137.849 417.667 137.588 415.551 136.163 413.999ZM135.439 365.74C134.809 365.542 134.178 365.514 133.548 365.655C133.12 365.656 132.721 365.764 132.351 365.979C131.949 366.091 131.6 366.295 131.305 366.59C130.949 366.8 130.665 367.084 130.454 367.441C130.034 367.899 129.752 368.437 129.605 369.055L129.436 370.317L129.605 371.579L130.083 372.713C130.215 372.885 130.347 373.056 130.481 373.227C130.692 373.585 130.976 373.87 131.333 374.081C131.566 374.313 131.832 374.486 132.13 374.606C133.186 375.363 134.593 375.61 135.844 375.265C136.587 375.057 137.232 374.681 137.779 374.137C138.322 373.589 138.699 372.943 138.906 372.2L138.992 371.606C139.102 370.81 139.12 370.369 138.895 369.356C138.796 368.911 138.509 368.284 138.359 368.019C137.718 366.891 136.67 366.117 135.439 365.74ZM80.6894 331.021C78.8789 331.008 77.0684 331.012 75.2581 331.032L73.9005 331.05C71.627 331.086 69.6798 330.851 67.8925 332.43C66.5952 333.576 67.1667 335.498 68.3981 336.361C70.2638 337.668 72.6041 337.011 74.7487 336.867C77.0105 336.715 79.274 336.589 81.5385 336.487C85.9229 336.291 90.3091 336.166 94.6978 336.146C99.0771 336.128 103.463 336.169 107.842 336.24C112.297 336.312 116.936 336.728 121.367 336.266C121.976 336.203 122.113 335.402 121.512 335.193C117.337 333.748 112.64 333.279 108.265 332.727C103.752 332.156 99.2392 331.752 94.6978 331.49C90.0333 331.223 85.3618 331.054 80.6894 331.021ZM135.447 316.822L135.298 316.825C134.501 316.827 133.755 317.015 133.06 317.388L132.912 317.471L131.955 318.211C131.369 318.802 130.963 319.497 130.739 320.299L130.57 321.557C130.545 322.208 130.682 322.816 130.977 323.38C131.168 323.967 131.494 324.474 131.955 324.903C132.383 325.364 132.89 325.69 133.476 325.881C133.997 326.154 134.554 326.291 135.148 326.292L135.298 326.289C136.151 326.286 136.946 326.07 137.683 325.642L138.641 324.903C139.226 324.312 139.632 323.616 139.856 322.815L140.025 321.557C140.05 320.905 139.914 320.297 139.618 319.734C139.427 319.147 139.101 318.639 138.641 318.211C138.212 317.749 137.705 317.423 137.119 317.233C136.599 316.959 136.042 316.822 135.447 316.822ZM121.432 205.667C120.414 204.191 118.568 205.504 118.832 206.691C118.762 210.025 118.592 213.261 117.834 216.527C117.487 218.022 117.032 219.519 116.331 220.889L116.036 221.466C115.129 223.26 114.424 224.953 115.647 226.922C116.223 227.851 117.264 228.548 118.393 228.499C123.399 228.283 124.087 221.309 124.391 217.415C124.705 213.406 123.729 208.999 121.432 205.667Z" fill="#343434"/>
<path fill-rule="evenodd" clip-rule="evenodd" d="M83.9418 82.8622C99.1044 42.9345 126.437 13.7009 172.514 32.0623C173.836 31.1616 175.561 30.92 177.214 31.9748C202.314 47.7501 220.389 73.0417 228.223 101.561C232.99 102.468 237.622 104.05 241.76 106.645C250.752 112.285 256.802 121.258 262.473 129.998C264.178 132.626 262.599 136.976 259.394 137.573C258.002 137.832 256.622 137.987 255.25 138.027C255.584 139.241 256.024 140.413 256.584 141.489C258.611 145.381 254.782 149.515 251.193 148.45C250.794 148.661 250.377 148.835 249.945 148.965C249.896 151.17 248.764 154.122 246.523 154.568C242.899 155.346 238.083 152.57 238.938 148.513C237.844 148.706 236.753 148.73 235.69 148.597C235.571 150.709 235.608 152.913 235.316 154.862C234.364 164.045 225.197 170.214 216.455 167.42C215.918 170.282 215.289 174.302 212.473 175.854C209.181 185.098 203.497 195.646 194.187 199.858C195.015 201.983 194.566 204.569 192.07 205.991C175.028 215.716 154.573 219.007 135.306 215.391C127.606 214.932 120.104 213.191 112.903 209.48C107.652 206.775 102.824 203.339 98.1119 199.797C93.3969 196.253 88.3557 192.803 84.5923 188.202C80.5048 183.206 78.6019 177.327 77.3672 171.07C71.7087 142.668 73.6631 114.78 83.9418 87.7244C96.6651 54.2338 71.223 116.354 83.9418 82.8622Z" fill="#FAFAFA"/>
<path fill-rule="evenodd" clip-rule="evenodd" d="M157.245 24.2814C149.485 23.7331 141.584 25.0424 134.194 27.3843C122.408 31.1184 111.585 37.7082 102.692 46.2872C93.5271 55.1284 86.7489 66.0291 82.6274 78.0686C77.6572 92.5881 76.9133 108.091 75.5143 123.248C74.8076 130.906 73.6431 138.447 72.4324 146.03L72.241 147.228C71.0583 154.617 70.3929 162.09 72.0268 169.467C74.7429 181.728 82.8851 192.135 92.55 199.826C112.404 215.624 143.312 225.255 166.429 210.718C170.006 208.469 166.617 202.717 163.125 205.061C160.668 206.711 158.065 208.157 155.274 209.156C143.61 213.328 130.801 211.842 119.273 207.961C107.914 204.137 97.0138 197.675 88.6319 189.053C79.8277 179.996 74.9484 168.809 75.6535 156.079C76.0737 148.505 77.7977 141.072 78.7545 133.56C79.6021 126.906 80.1102 120.217 80.696 113.537L80.9106 111.134C82.1525 97.5232 83.9362 83.5394 90.1231 71.185C95.3273 60.7912 102.948 51.5445 112.11 44.4033C121.703 36.927 133.161 31.6982 145.183 29.7479C159.321 27.4547 172.854 31.6249 184.647 39.388C195.106 46.2729 204.098 55.4735 210.993 65.913C214.337 70.9749 217.185 76.3806 219.645 81.9243C221.963 87.1475 223.561 92.6218 225.425 98.0054C223.891 97.9597 222.331 98.0188 220.748 98.1939C212.626 99.0947 205.06 103.308 200.242 109.95C194.356 118.068 195.947 128.032 193.647 137.264C193.469 137.98 193.772 138.682 194.385 139.078C197.872 141.333 202.537 141.408 205.912 138.869C208.84 136.665 210.215 132.68 209.029 129.198C208.875 128.745 208.214 128.825 208.196 129.311C207.973 135.237 202.481 139.799 197.098 136.98C199.407 129.019 198.191 120.129 202.915 112.939C211.274 100.213 228.574 99.687 240.725 106.861C247.12 110.636 252.182 116.312 255.951 122.661L257.037 124.504C258.481 126.967 260.011 129.753 260.311 132.464C260.484 134.029 259.907 135.5 258.113 134.712C256.662 134.074 255.538 132.586 254.676 131.307C253.206 129.125 249.828 131.01 251.042 133.333L251.084 133.409C252.851 136.543 253.939 139.996 254.139 143.594L254.189 144.591C254.223 145.317 254.247 146.349 254.093 146.386C253.909 146.432 252.63 144.954 252.418 144.75C251.392 143.764 250.335 142.958 248.908 142.695C247.031 142.351 245.137 144.675 246.766 146.199L246.834 146.261C248.288 147.526 248.224 150.049 246.617 151.232C244.35 152.902 241.559 150.176 241.23 147.932L241.219 147.849C240.928 145.425 237.563 145.339 237.381 147.849C236.984 153.298 243.465 157.864 248.396 155.116C250.345 154.029 251.585 152.04 251.973 149.908C252.596 150.237 253.267 150.466 253.977 150.529C256.288 150.734 257.931 149.107 258.304 146.924C258.74 144.381 258.482 141.659 257.812 139.018C259.067 139.32 260.387 139.205 261.714 138.438C265.729 136.12 264.576 130.962 263.06 127.48C256.589 112.617 243.182 99.1305 226.572 98.0598C226.481 95.4374 226.125 92.9582 225.545 90.3324C219.863 64.6482 201.458 40.8651 177.497 29.7492C171.095 26.7787 164.304 24.7805 157.245 24.2814ZM220.081 126.88L219.853 126.829C217.264 126.27 210.452 125.615 211.273 129.975C211.312 130.18 211.61 130.155 211.663 129.975C212.467 127.233 217.93 129.426 219.525 130.086C221.724 130.995 223.893 132.337 225.689 133.896C229.62 137.311 232.255 142.123 232.656 147.35C233.053 152.535 231.55 158.135 227.813 161.886C225.982 163.724 223.644 164.972 221.017 165.064C218.658 165.146 216.051 163.307 213.873 164.384C213.444 164.596 213.104 165.179 213.143 165.659C213.216 166.567 213.622 167.274 214.226 167.822C210.581 174.471 207.598 181.508 202.948 187.555C200.614 190.588 197.97 193.397 194.976 195.788C193.553 196.925 192.006 197.923 190.41 198.8C188.541 199.829 186.923 200.473 185.588 202.215C184.45 203.701 185.589 206.575 187.464 206.831C191.882 207.433 196.174 203.859 199.417 201.181C202.657 198.506 205.457 195.206 207.771 191.704C212.214 184.98 215.254 177.048 216.469 169.023C217.88 169.471 219.469 169.607 220.664 169.61C223.844 169.617 226.88 168.472 229.379 166.538C238.527 159.456 239.544 144.915 233.088 135.745C229.999 131.358 225.305 128.116 220.081 126.88ZM220.023 143.745C217.902 143.558 215.782 143.893 213.789 144.617L212.967 144.916C211.231 145.551 209.382 146.298 208.129 147.601C206.213 149.592 208.12 153.042 210.849 152.279C213.867 151.435 216.319 148.892 219.336 147.825C222.032 146.872 225.086 147.007 227.479 148.649C227.795 148.866 228.21 148.438 228.004 148.123C226.173 145.333 223.283 144.031 220.023 143.745Z" fill="#343434"/>
<path fill-rule="evenodd" clip-rule="evenodd" d="M124.137 184.169C127.034 182.986 129.619 181.013 131.509 178.492C132.166 177.616 132.337 176.69 132.199 175.844C132.044 174.892 131.481 174.03 130.714 173.451C129.945 172.871 128.982 172.585 128.051 172.73C127.243 172.857 126.438 173.3 125.801 174.22L125.667 174.403C124.544 175.925 123.08 177.173 121.411 177.978C119.803 178.753 118.005 179.115 116.144 178.905C112.6 178.504 110.157 176.585 107.56 173.98C107.238 173.651 106.916 173.312 106.593 172.967C106.388 172.655 106.105 172.454 105.79 172.348C105.44 172.231 105.045 172.238 104.682 172.365C104.333 172.487 104.021 172.718 103.811 173.026C103.612 173.318 103.499 173.68 103.536 174.095C103.773 176.796 105.184 179.205 107.187 181.097C109.412 183.199 112.361 184.653 115.138 185.163C118.197 185.724 121.314 185.322 124.137 184.169ZM113.695 142.515C110.441 144.495 105.482 149.112 108.983 154.021C113.104 158.349 119.038 153.387 121.961 151.142C124.673 149.403 127.719 153.877 125.203 155.908C104.075 171.565 95.5003 143.033 112.049 140.187C113.871 139.873 114.548 141.903 113.695 142.515ZM151.558 124.302C151.198 119.834 144.4 118.82 143.724 123.24C143.119 127.201 143.832 130.838 145.614 134.404C147.316 137.81 151.596 136.221 151.92 133.119C152.354 128.962 151.782 127.081 151.558 124.302ZM99.8118 122.324C98.864 121.081 97.4956 120.233 95.8561 120.713C90.7338 122.211 92.2436 129.49 94.0425 133.033C95.02 134.957 98.1796 135.444 99.6075 133.75C101.935 130.988 103.049 125.471 100.091 122.75C100.01 122.609 99.9212 122.467 99.8118 122.324ZM145.686 104.753L144.877 104.611C142.374 104.178 139.261 103.762 137.491 105.776C136.551 106.844 136.228 108.829 137.491 109.852C139.711 111.651 142.166 110.953 144.827 111.106C147.02 111.232 149.127 111.595 151.24 112.199C155.874 113.525 159.649 115.945 163.607 118.602C164.127 118.951 164.657 118.286 164.409 117.8C162.124 113.321 157.697 109.642 153.262 107.399C150.895 106.202 148.304 105.209 145.686 104.753ZM104.481 102.747L103.862 102.874C97.1224 104.284 88.3662 107.1 85.1748 113.726C85.0532 114.663 85.1816 114.864 85.2861 114.995L85.3209 115.039C85.407 115.151 85.4757 115.305 85.8814 115.433C85.994 115.406 86.1077 115.377 86.2227 115.347C87.6856 114.963 88.843 114.435 89.9635 113.886L91.1785 113.287C92.5881 112.595 94.0101 111.929 95.5171 111.437C98.7332 110.387 102.041 109.647 105.4 109.252C106.129 109.167 106.83 108.921 107.383 108.499C107.908 108.099 108.309 107.545 108.492 106.809C108.729 105.856 108.661 105.134 108.15 104.275C107.766 103.629 107.216 103.181 106.585 102.924C105.942 102.662 105.209 102.601 104.481 102.747Z" fill="#343434"/>
<path fill-rule="evenodd" clip-rule="evenodd" d="M97.0806 159.967C103.126 158.946 109.406 160.454 115.235 162.061C124.494 155.976 136.491 162.118 143.122 169.72C145.392 171.591 150.158 174.076 147.647 177.645C148.599 180.168 148.853 181.356 146.883 178.406C135.734 179.691 123.772 177.264 112.738 174.975C108.981 176.239 105.664 179.196 101.534 178.183C97.6289 179.014 93.4018 179.79 89.8767 177.283C87.1924 177.174 81.2206 181.998 81.3167 176.388C82.1471 171.01 92.8003 162.061 97.0806 159.967Z" fill="#FAFAFA"/>
<path fill-rule="evenodd" clip-rule="evenodd" d="M92.5477 177.232C99.1108 177.959 105.767 176.891 111.262 173.076C111.836 172.678 112.401 172.682 112.862 172.916C113.423 172.854 113.997 173.078 114.329 173.719C115.709 176.379 120.284 175.786 122.798 175.841C131.022 175.999 139.534 175.545 147.449 178.034C139.879 163.223 129.41 156.829 113.211 162.643C114.673 163.822 107.374 161.062 106.734 161.01C95.5254 158.199 86.2785 167.608 81.7613 176.932C85.1786 176.118 89.0079 176.84 92.5477 177.232ZM76.8924 179.752C81.8346 168.61 91.5792 156.359 105.171 158.285C107.962 158.696 110.897 160.604 113.707 160.259C121.842 157.252 128.557 155.724 136.704 160.587C140.16 160.845 159.612 184.95 150.368 182.982C139.022 176.46 119.294 182.603 112.248 176.77C98.4156 185.859 87.1685 175.986 79.3728 181.667C78.0173 182.911 76.1162 181.361 76.8924 179.752Z" fill="#343434"/>
<path fill-rule="evenodd" clip-rule="evenodd" d="M77.3543 146.376C80.2562 150.278 85.6358 151.521 90.5977 151.092C101.3 150.061 104.668 137.895 105.019 128.44C97.8422 130.461 105.625 116.15 81.094 114.576C72.4462 113.855 74.8305 119.082 71.0098 122.902C71.0882 130.918 72.4212 139.628 77.3543 146.376ZM128.328 137.166C134.646 166.781 169.245 159.737 172.88 133.04C169.523 130.669 170.407 124.815 166.238 122.694C159.63 118.468 151.37 118.649 143.866 118.748C134.274 119.408 131.541 123.385 126.614 127.723C126.851 130.621 127.534 134.056 128.328 137.166ZM63.6485 109.671C64.0032 109.612 64.3583 109.556 64.7134 109.504C64.9906 109.347 65.316 109.226 65.6944 109.153C66.5585 108.933 67.4166 108.785 68.2734 108.705C80.5704 105.935 109.019 109.868 110.193 120.372C114.109 121.68 117.497 120.508 122.036 120.625C125.491 106.171 185.218 108.211 188.091 116.925C188.102 116.922 188.112 116.92 188.124 116.916C190.884 116.061 194.953 116.268 198.112 116.132C204.857 115.991 211.61 116.592 218.21 118.016C230.569 119.982 247.435 122.284 238.84 137.731C238.838 137.733 238.837 137.736 238.835 137.739L238.834 137.738C237.352 139.257 234.838 138.033 234.745 135.976C237.635 128.658 231.108 127.779 226.086 125.676C213.59 121.183 200.868 120.56 187.945 121.95C186.972 123.096 185.497 124.095 183.938 124.618C175.297 126.053 179.851 132.469 174.389 133.402C175.392 155.766 148.265 167.973 132.548 153.272C126.272 147.131 124.776 138.033 123.321 129.833C122.552 129.66 122.063 129.239 121.777 128.682C119.927 126.833 118.764 125.126 115.105 124.618C111.447 124.111 108.63 125.129 108.249 125.441C108.153 125.635 108.05 125.829 107.93 126.023C107.763 126.312 107.536 126.543 107.277 126.725C110.89 148.995 93.6172 163.078 76.1799 151.528C68.6031 144.394 67.002 133.472 66.6856 123.724C65.6586 123.104 65.0082 121.901 65.3638 120.39C65.8538 118.306 64.7048 116.502 62.8748 115.596C60.4971 114.42 60.9177 110.124 63.6485 109.671Z" fill="#FF9500"/>
</svg>
