<svg width="369" height="537" viewBox="0 0 369 537" fill="none" xmlns="http://www.w3.org/2000/svg">
<path fill-rule="evenodd" clip-rule="evenodd" d="M324.425 525.692C296.882 526.464 270.863 527.315 243.372 525.692C199.381 522.969 70.2823 527.877 41.9053 525.692C39.7638 525.527 32.399 527.877 32.2457 525.692C30.9983 510.476 30.1895 356.525 33.8956 345.933C37.6017 335.34 55.8951 284.418 79.2046 260.674C85.7041 254.259 95.5947 251.774 101.058 244.361C105.769 236.278 105.403 231.533 110.055 227.28C112.074 225.435 116.835 224.687 120.373 222.125C123.93 218.588 120.562 210.801 122.022 205.875C125.032 193.576 136.119 185.685 148.236 183.826C165.079 179.793 182.859 183.606 190.927 196.844C193.93 201.771 192.331 207.76 196.025 215.656C195.761 221.623 202.723 223.065 206.884 225.429L215.148 233.786C240.608 248.12 270.559 255.86 292.867 275.118C311.834 294.37 330.698 316.622 339.114 342.669C340.856 349.767 341.425 357.102 342.146 364.355C344.208 385.549 349.947 406.12 354.886 426.765C360.518 452.775 365.767 480.387 358.177 506.643C355.989 512.201 329.407 525.432 324.425 525.692Z" fill="#FAFAFA"/>
<path fill-rule="evenodd" clip-rule="evenodd" d="M192.386 198.963C192.165 198.242 191.216 198.445 191.144 199.129C190.429 205.917 191.328 213.01 192.192 219.753C192.606 223.007 192.845 226.392 193.474 229.601C193.555 229.943 193.632 230.289 193.704 230.632C193.497 231 192.885 231.415 192.593 231.698L191.323 232.933L188.778 235.398C183.798 240.223 178.819 245.052 173.84 249.878L166.53 256.967C164.024 259.397 161.177 261.725 158.977 264.434C157.785 265.906 157.515 267.71 158.69 269.286C159.27 270.064 160.313 270.632 161.37 270.749C160.957 271.325 160.637 271.977 160.435 272.702C160.021 274.179 161.514 275.992 163.102 275.376C164.906 274.682 166.395 273.44 168.23 272.846C170.084 272.243 172.098 272.126 174.02 272.45C174.901 272.598 175.765 272.819 176.606 273.099C167.605 277.244 157.866 279.625 147.934 279.967C145.91 280.035 143.89 280.007 141.88 279.872C138.496 279.651 135.137 279.139 131.835 278.311C129.239 277.658 126.671 276.838 124.179 275.848C122.955 275.362 121.745 274.827 120.576 274.219L120.473 274.159C120.209 273.993 115.321 271.22 115.236 270.803C115.151 270.386 115.151 270.241 115.31 269.878C115.469 269.515 115.91 269.265 115.91 269.265C117.42 268.619 118.984 268.018 120.634 268.007C124.431 267.985 128.574 270.794 131.713 272.707C135.163 274.809 138.335 277.266 141.655 279.544C141.731 279.597 141.816 279.62 141.898 279.62C142.248 279.62 142.572 279.188 142.347 278.85C139.968 275.345 136.757 272.427 133.398 269.878L132.044 268.863C128.967 266.567 125.369 264.025 121.628 263.47C117.045 262.795 112.258 265.654 108.169 267.328L100.928 270.294C99.6366 270.821 98.2327 271.271 96.9332 271.869L99.9679 262.368C101.484 257.617 102.997 252.865 104.494 248.109L104.785 247.177C106.277 242.35 107.646 237.328 110.131 232.918C110.725 231.861 111.404 230.866 112.074 229.862C112.771 228.822 113.032 227.675 113.909 226.747C115.645 224.906 118.133 223.826 120.508 223.12C121.089 222.949 120.917 222.183 120.373 222.125C117.936 221.868 115.612 222.437 113.409 223.465L112.494 223.902C110.411 224.888 108.38 225.805 106.834 227.575C103.307 231.617 101.476 236.706 99.7938 241.729L99.3438 243.077C98.7145 242.87 94.4367 244.175 93.9014 244.485C77.8647 251.269 65.5125 263.898 56.4801 278.697C46.584 294.914 41.1955 313.445 36.7468 331.782C35.3739 337.441 34.0609 343.118 32.7995 348.807C38.4192 350.971 44.3919 352.103 49.6526 355.151C51.6566 356.312 49.8465 359.425 47.8367 358.26C42.9093 355.406 37.2969 354.351 32.0227 352.346C29.1631 365.518 26.6194 378.761 24.489 392.059C17.9437 432.874 13.8102 474.355 14.0711 515.728C14.0756 516.642 14.3451 517.663 14.8448 518.541C14.552 518.397 14.3226 518.226 14.1921 518.019C12.5327 515.413 8.37186 517.83 10.0407 520.45L10.2844 520.829C11.5367 522.761 12.7058 524.238 14.9073 525.328C17.1254 526.427 19.5275 526.612 21.9741 526.675C30.2913 526.894 38.6144 527.037 46.9402 527.139C48.0819 518.228 48.5461 509.232 50.1191 500.373C50.5235 498.095 53.9921 499.061 53.5891 501.331C52.07 509.885 51.5837 518.569 50.5235 527.182C68.3231 527.374 86.1325 527.376 103.918 527.426C128.022 527.497 152.123 527.447 176.226 527.434L186.556 527.43C214.4 527.43 242.244 527.34 270.088 527.156L276.71 527.109C279.344 511.571 281.137 495.901 281.17 480.111C281.175 477.794 284.774 477.79 284.769 480.111C284.736 495.883 282.962 511.555 280.353 527.089C286.945 527.06 293.535 527.084 300.128 527.318L303.483 527.437C310.197 527.667 316.925 527.809 323.626 527.273C331.067 526.675 338.592 525.306 345.263 521.8C348.267 520.218 350.912 518.196 353.173 515.818C350.875 514.48 348.544 513.197 346.318 511.74C344.388 510.476 346.188 507.357 348.134 508.631C350.533 510.202 353.055 511.569 355.525 513.022C357.313 510.634 358.781 507.983 359.896 505.124C361.655 500.609 362.334 495.752 362.923 490.972C363.62 485.342 363.908 479.666 363.908 473.995C363.908 462.068 362.653 450.176 360.903 438.392C359.229 427.104 357.017 415.906 354.678 404.743L354.358 403.221C352.051 392.248 349.851 381.243 347.206 370.346C344.761 360.27 341.934 350.241 338.566 340.406C335.568 342.261 332.43 343.883 329.479 345.815C327.535 347.088 325.73 343.972 327.663 342.707C330.812 340.645 334.17 338.931 337.347 336.917C333.581 326.385 329.16 316.1 323.86 306.248C313.245 286.52 298.94 268.872 280.618 255.846C271.447 249.328 261.384 243.995 250.818 240.115C240.044 236.154 228.88 233.985 217.464 233.094C217.138 233.068 216.955 233.37 216.968 233.649L216.973 233.701L216.523 233.773C216.357 232.644 216.015 231.55 215.362 230.546C213.878 228.26 211.063 226.792 208.813 225.388L208.28 225.056C205.604 223.397 202.78 221.762 199.668 221.18C199.56 221.161 199.493 221.274 199.565 221.36C201.617 223.714 204.242 225.513 206.647 227.505L207.2 227.966C209.193 229.608 211.974 231.471 212.048 234.214C212.133 237.446 211.472 240.808 211.233 244.031C210.995 247.244 210.829 250.454 210.743 253.676C210.432 265.222 210.806 276.771 211.827 288.271L207.311 285.246C200.283 280.539 193.232 275.844 186.034 271.437C181.68 268.769 176.785 266.486 171.568 266.59C170.106 266.617 168.455 266.829 166.871 267.279C168.576 265.663 170.209 263.944 171.878 262.319C174.627 259.64 177.375 256.963 180.123 254.289L188.048 246.565L195.975 238.841C198.431 236.442 201.31 234.233 201.049 230.452C200.838 227.436 199.304 224.434 198.256 221.526C198.108 221.108 197.973 220.694 197.847 220.284C195.732 213.254 194.531 205.966 192.386 198.963ZM89.965 500.616C91.6041 498.975 94.1492 501.52 92.5092 503.162L91.642 504.026C90.1936 505.472 88.7577 506.962 87.7554 508.749L87.6083 509.02C86.5283 511.07 83.4209 509.253 84.5014 507.202C85.8369 504.668 87.9615 502.621 89.965 500.616ZM160.197 500.153C165.415 499.156 170.445 499.156 175.663 500.153C177.935 500.587 176.973 504.058 174.706 503.625C170.142 502.753 165.718 502.753 161.154 503.625C158.891 504.057 157.921 500.588 160.197 500.153ZM230.672 463.857C232.917 463.287 233.875 466.759 231.628 467.329L230.522 467.607C226.76 468.537 223.178 469.229 219.271 468.366C217.041 467.873 217.943 464.485 220.14 464.876L220.228 464.894C223.843 465.693 227.174 464.743 230.672 463.857ZM105.51 440.468C107.172 438.852 109.719 441.396 108.055 443.014C105.978 445.035 103.531 446.571 100.565 446.653C98.2826 446.717 98.2503 443.223 100.463 443.057L100.565 443.052C102.552 442.997 104.136 441.806 105.51 440.468ZM317.299 430.852C315.227 429.815 317.047 426.708 319.115 427.743L331.551 433.964C333.623 435.001 331.803 438.108 329.736 437.074L317.299 430.852ZM71.5456 431.645C73.8622 431.58 73.8604 435.181 71.5456 435.246C69.3689 435.307 67.1382 436.132 65.199 437.074C63.1244 438.082 61.2977 434.978 63.3826 433.964C65.9178 432.733 68.7009 431.724 71.5456 431.645ZM187.749 414.26C185.845 412.965 187.643 409.843 189.566 411.15C192.189 412.934 194.566 415.041 197.148 416.879L197.857 417.372C199.762 418.667 197.963 421.788 196.041 420.482C193.179 418.536 190.611 416.204 187.749 414.26ZM53.9268 388.09C56.2426 388.089 56.2462 391.689 53.9268 391.69L53.4878 391.689C51.5764 391.678 49.5618 391.625 47.7843 392.39L47.5803 392.482C45.4967 393.464 43.6682 390.36 45.7639 389.373C48.3698 388.145 51.0943 388.091 53.9268 388.09ZM253.775 385.517L253.472 385.404C251.309 384.626 252.242 381.145 254.429 381.932C257.725 383.117 260.29 385.356 263.149 387.298C265.055 388.593 263.256 391.714 261.333 390.408C258.87 388.734 256.577 386.614 253.775 385.517ZM118.797 376.15L118.312 375.89C116.251 374.829 118.07 371.721 120.127 372.78C121.761 373.621 123.222 374.74 124.825 375.631L125.31 375.891C127.37 376.952 125.551 380.06 123.493 379.001C121.86 378.159 120.399 377.041 118.797 376.15ZM173.542 341.272L173.912 340.914C175.569 339.292 178.115 341.836 176.457 343.461C172.316 347.516 167.42 350.595 162.482 353.572L161.583 354.112C159.593 355.307 157.781 352.195 159.767 351.003L161.085 350.21C165.476 347.56 169.816 344.825 173.542 341.272ZM273.125 337.911C271.729 336.098 274.764 334.323 276.182 336.031L276.232 336.093C277.685 337.98 279.408 339.688 281.21 341.247L281.548 341.538C282.621 342.451 284.572 344.406 286.079 344.535C288.369 344.73 288.39 348.332 286.079 348.136C283.748 347.937 281.742 346.296 279.981 344.889C277.418 342.843 275.125 340.509 273.125 337.911ZM81.6738 324.794C80.0017 323.222 82.4716 320.72 84.1588 322.194L84.218 322.248C87.3429 325.185 91.838 325.973 95.8608 326.969C98.1077 327.527 97.1559 331 94.904 330.442L93.0714 329.989C88.9605 328.963 84.8357 327.767 81.6738 324.794ZM152.942 302.081C155.188 301.51 156.146 304.982 153.898 305.553C150.082 306.524 146.466 307.778 142.929 309.52C140.858 310.539 139.032 307.435 141.112 306.411C144.919 304.537 148.833 303.126 152.942 302.081ZM116.181 226.176C116.235 226.014 116.064 225.829 115.898 225.887C111.859 227.394 114.006 232.686 115.261 235.854L115.488 236.433C117.454 241.511 120.202 246.453 123.198 250.999C126.333 255.756 129.815 260.311 133.584 264.587C135.22 266.443 136.916 268.247 138.669 269.996L139.329 270.649C141.101 272.392 143.386 275.452 146.135 275.115C149.095 274.759 150.746 271.595 148.587 269.192C147.061 267.49 144.947 266.135 143.243 264.587C141.551 263.056 139.913 261.477 138.317 259.852C135.051 256.517 131.956 252.993 129.127 249.279C126.39 245.688 123.772 241.998 121.39 238.161L120.917 237.392C119.105 234.408 114.921 230.02 116.181 226.176ZM259.261 263.893C261.178 262.582 262.98 265.701 261.077 267.002C257.578 269.395 254.5 272.293 250.713 274.261C248.685 275.315 246.882 272.295 248.825 271.191L248.897 271.152C252.681 269.185 255.764 266.284 259.261 263.893Z" fill="#343434"/>
<path fill-rule="evenodd" clip-rule="evenodd" d="M87.3327 86.4739C103.158 44.8142 131.685 14.3124 179.776 33.4704C181.156 32.5306 182.956 32.2785 184.681 33.379C210.878 49.8386 229.744 76.2274 237.919 105.984C242.895 106.93 247.729 108.581 252.048 111.289C261.433 117.173 267.747 126.536 273.666 135.655C275.446 138.396 273.797 142.935 270.453 143.558C269 143.828 267.56 143.99 266.128 144.032C266.477 145.298 266.935 146.521 267.52 147.644C269.635 151.705 265.639 156.018 261.893 154.907C261.477 155.127 261.042 155.308 260.591 155.444C260.539 157.745 259.358 160.825 257.019 161.29C253.237 162.102 248.211 159.206 249.103 154.973C247.961 155.174 246.822 155.199 245.712 155.06C245.588 157.264 245.627 159.564 245.323 161.597C244.329 171.179 234.761 177.615 225.637 174.7C225.077 177.686 224.42 181.881 221.481 183.5C218.045 193.144 212.113 204.151 202.396 208.545C203.261 210.763 202.791 213.46 200.186 214.944C182.4 225.091 161.051 228.524 140.942 224.752C132.905 224.273 125.075 222.456 117.56 218.585C112.079 215.762 107.041 212.177 102.122 208.481C97.2011 204.784 91.9395 201.184 88.0117 196.384C83.7455 191.17 81.7596 185.036 80.4708 178.508C74.5651 148.874 76.6049 119.776 87.3327 91.547C100.612 56.6036 74.0581 121.419 87.3327 86.4739Z" fill="#FAFAFA"/>
<path fill-rule="evenodd" clip-rule="evenodd" d="M163.84 25.3527C155.741 24.7806 147.494 26.1467 139.782 28.5903C127.481 32.4863 116.184 39.362 106.903 48.3131C97.3371 57.5378 90.2627 68.9114 85.961 81.4731C80.7737 96.6225 79.9973 112.798 78.5371 128.612C77.7996 136.602 76.5842 144.47 75.3206 152.383L75.1207 153.633C73.8864 161.342 73.1919 169.139 74.8972 176.836C77.7319 189.629 86.23 200.488 96.3173 208.512C117.039 224.995 149.298 235.045 173.425 219.877C177.158 217.53 173.621 211.529 169.977 213.974C167.412 215.696 164.696 217.205 161.782 218.247C149.609 222.6 136.24 221.049 124.209 217C112.353 213.01 100.976 206.268 92.228 197.272C83.039 187.822 77.9465 176.149 78.6824 162.868C79.121 154.966 80.9203 147.209 81.9189 139.371C82.8035 132.429 83.3339 125.45 83.9452 118.48L84.1693 115.973C85.4654 101.772 87.327 87.1813 93.7844 74.2909C99.216 63.4463 107.169 53.7984 116.733 46.3475C126.745 38.5469 138.703 33.0912 151.251 31.0563C166.006 28.6636 180.13 33.0147 192.439 41.1147C203.355 48.2982 212.74 57.8979 219.937 68.7903C223.426 74.0717 226.399 79.7119 228.966 85.4961C231.386 90.9459 233.053 96.6577 234.999 102.275C233.398 102.227 231.771 102.289 230.118 102.472C221.641 103.411 213.744 107.807 208.716 114.738C202.572 123.208 204.233 133.604 201.833 143.236C201.647 143.984 201.963 144.715 202.603 145.129C206.242 147.482 211.111 147.561 214.633 144.911C217.69 142.611 219.125 138.454 217.887 134.821C217.726 134.347 217.037 134.431 217.017 134.939C216.785 141.121 211.053 145.882 205.434 142.94C207.844 134.634 206.575 125.358 211.505 117.856C220.23 104.578 238.286 104.029 250.968 111.514C257.642 115.453 262.925 121.376 266.859 128L267.992 129.923C269.5 132.492 271.097 135.399 271.41 138.229C271.59 139.862 270.988 141.396 269.116 140.573C267.601 139.908 266.429 138.356 265.529 137.021C263.995 134.745 260.469 136.711 261.736 139.135L261.779 139.214C263.624 142.484 264.759 146.087 264.968 149.841L265.021 150.881C265.056 151.639 265.081 152.715 264.92 152.755C264.728 152.802 263.394 151.26 263.171 151.047C262.101 150.018 260.998 149.177 259.508 148.903C257.549 148.544 255.572 150.969 257.273 152.559L257.344 152.623C258.862 153.943 258.794 156.576 257.118 157.811C254.752 159.553 251.839 156.709 251.495 154.367L251.484 154.281C251.18 151.751 247.668 151.661 247.478 154.281C247.063 159.966 253.827 164.73 258.974 161.862C261.009 160.729 262.302 158.654 262.708 156.429C263.357 156.773 264.058 157.011 264.799 157.077C267.211 157.29 268.926 155.593 269.316 153.316C269.77 150.663 269.5 147.822 268.802 145.066C270.112 145.382 271.49 145.261 272.875 144.462C277.065 142.042 275.861 136.661 274.279 133.028C267.525 117.52 253.532 103.449 236.196 102.332C236.101 99.5954 235.73 97.0087 235.124 94.269C229.194 67.4706 209.985 42.6558 184.977 31.0577C178.295 27.9583 171.208 25.8735 163.84 25.3527ZM229.421 132.402L229.184 132.348C226.482 131.766 219.372 131.082 220.229 135.631C220.269 135.845 220.58 135.819 220.635 135.631C221.475 132.771 227.177 135.058 228.842 135.747C231.137 136.696 233.401 138.095 235.275 139.722C239.377 143.285 242.128 148.307 242.546 153.76C242.961 159.17 241.392 165.013 237.492 168.926C235.58 170.844 233.14 172.146 230.399 172.242C227.936 172.328 225.215 170.409 222.943 171.533C222.495 171.754 222.14 172.362 222.18 172.863C222.257 173.81 222.68 174.548 223.311 175.12C219.506 182.057 216.393 189.4 211.54 195.709C209.104 198.874 206.345 201.805 203.22 204.299C201.734 205.485 200.119 206.527 198.454 207.442C196.503 208.515 194.814 209.187 193.422 211.005C192.234 212.556 193.422 215.554 195.38 215.821C199.99 216.45 204.47 212.72 207.855 209.926C211.236 207.135 214.158 203.692 216.574 200.038C221.211 193.023 224.384 184.746 225.652 176.373C227.125 176.84 228.783 176.983 230.03 176.986C233.349 176.993 236.518 175.799 239.126 173.78C248.674 166.391 249.735 151.219 242.998 141.652C239.773 137.074 234.874 133.692 229.421 132.402ZM229.362 149.998C227.148 149.804 224.935 150.153 222.854 150.909L221.997 151.22C220.185 151.883 218.256 152.662 216.947 154.022C214.947 156.099 216.938 159.699 219.787 158.903C222.936 158.023 225.495 155.369 228.644 154.256C231.458 153.261 234.645 153.402 237.143 155.115C237.472 155.341 237.906 154.895 237.691 154.566C235.78 151.655 232.764 150.297 229.362 149.998Z" fill="#343434"/>
<path fill-rule="evenodd" clip-rule="evenodd" d="M116.042 191.599C118.917 191.623 122.149 190.543 124.31 189.698L124.874 189.474C126.744 188.725 128.666 187.864 130.099 186.42C130.557 185.95 131.045 185.419 131.293 184.861C131.438 184.534 131.498 184.195 131.358 183.858C130.84 183.807 130.349 183.741 129.884 183.656C129.662 183.615 129.45 183.573 129.287 183.572C128.688 183.569 128.095 183.645 127.502 183.72C127.416 183.731 127.331 183.741 127.245 183.752C126.783 183.809 126.324 183.871 125.866 183.933C124.533 184.112 123.207 184.289 121.855 184.354C120.878 184.401 119.854 184.346 118.821 184.29C116.142 184.144 113.373 183.945 111.309 185.822C110.768 186.314 110.542 186.933 110.542 187.564C110.542 188.331 110.865 189.112 111.357 189.724C112.471 191.11 114.186 191.584 116.042 191.599ZM100.364 167.42C101.615 169.298 103.699 170.505 106.554 170.374C112.229 170.114 119.003 167.972 123.756 164.874C124.994 164.067 125.796 162.777 125.94 161.396L126.196 158.938L127.58 160.985C127.724 161.198 127.87 161.411 128.015 161.624C128.416 162.209 128.816 162.795 129.194 163.396C130.644 165.701 131.974 168.03 133.181 170.472C134.035 172.201 134.66 174.135 135.287 176.086C136.344 179.381 137.366 182.621 139.626 184.936C139.968 185.286 140.493 185.412 140.974 185.35C141.398 185.295 141.813 185.087 142.017 184.673C144.717 179.178 141.085 172.557 138.139 167.954L137.827 167.473C135.095 163.313 130.633 157.808 125.523 157.06L124.938 157.993L124.088 157.426C122.697 156.497 120.86 156.541 119.253 157.267L117.645 157.993C114.652 159.337 111.7 160.577 108.462 161.256C108.226 161.305 107.99 161.352 107.755 161.394C107.533 161.435 107.309 161.473 107.085 161.508C107.133 161.287 107.185 161.067 107.237 160.848C107.292 160.616 107.347 160.384 107.406 160.152C107.467 159.912 107.533 159.674 107.598 159.437C107.857 158.492 108.15 157.556 108.498 156.639C109.805 153.191 111.893 149.967 113.924 146.892L114.163 146.53C114.454 146.09 114.773 145.63 115.103 145.154C116.686 142.872 118.443 140.395 118.567 137.909C116.465 138.042 114.706 139.349 113.157 140.487C111.032 142.047 109.062 143.832 107.276 145.77C103.81 149.532 100.7 154.34 99.3359 159.311C98.555 162.157 98.8985 165.22 100.364 167.42ZM155.812 139.064L155.812 138.962C155.806 136.092 154.135 129.539 150.006 129.539C147.426 129.539 145.86 133.999 145.589 138.596L145.579 138.784C145.46 141.642 146.243 147.89 150.006 147.89C153.808 147.89 155.773 141.972 155.812 139.064ZM95.0155 138.163L95.015 138.062C95.0212 135.192 96.6919 128.639 100.821 128.639C103.337 128.639 104.888 132.878 105.216 137.352L105.238 137.696C105.401 140.458 104.668 146.99 100.821 146.99C97.0192 146.99 95.0546 141.072 95.0155 138.163ZM141.904 119.639C142.452 119.703 142.996 119.788 143.54 119.874C145.128 120.127 146.708 120.431 148.276 120.785C151.255 121.458 154.21 122.308 157.109 123.268C159.821 124.167 162.492 125.183 165.161 126.198C165.304 126.252 165.446 126.307 165.589 126.361C166.531 126.719 167.471 127.121 168.413 127.524C169.847 128.138 171.288 128.756 172.758 129.221C168.884 123.862 162.916 119.892 157.173 117.05C153.896 115.429 150.42 114.122 146.923 113.051L144.976 112.465C142.108 111.619 138.973 110.837 136.28 112.524C135.214 113.192 134.534 114.23 134.32 115.352C134.11 116.452 134.35 117.631 135.109 118.616C135.771 119.473 136.595 119.962 137.472 120.129C138.441 120.314 139.467 120.111 140.401 119.612C141.149 119.556 141.37 119.576 141.592 119.601L141.904 119.639ZM98.7673 120.184C100.686 119.767 102.587 119.599 104.556 119.66C105.446 119.686 106.308 119.824 107.167 119.962C108.501 120.178 109.83 120.4 111.268 120.139C112.018 120.002 112.657 119.563 113.15 118.991C113.727 118.321 114.108 117.465 114.231 116.651C114.357 115.81 114.231 115.074 113.92 114.425C113.553 113.658 112.934 113.011 112.186 112.445C109.923 110.731 106.04 111.143 103.37 111.489C100.73 111.833 98.1057 112.652 95.7725 113.952C93.4707 115.236 91.4698 116.965 89.9083 119.079C88.5922 120.861 87.9723 122.912 87.332 125C90.3436 122.472 94.9523 121.013 98.7673 120.184Z" fill="#343434"/>
<path fill-rule="evenodd" clip-rule="evenodd" d="M101.047 166.924C107.357 165.859 113.911 167.433 119.995 169.109C129.658 162.761 142.18 169.169 149.101 177.101C151.47 179.053 156.444 181.645 153.823 185.369C154.817 188.002 155.082 189.241 153.026 186.163C141.39 187.504 128.905 184.971 117.389 182.583C113.468 183.902 110.005 186.987 105.695 185.931C101.619 186.798 97.2076 187.607 93.5284 184.991C90.7269 184.877 84.4941 189.911 84.5943 184.057C85.461 178.446 96.5798 169.109 101.047 166.924Z" fill="#FAFAFA"/>
<path fill-rule="evenodd" clip-rule="evenodd" d="M96.3153 184.938C103.165 185.696 110.112 184.582 115.848 180.602C116.446 180.187 117.036 180.191 117.518 180.435C118.103 180.37 118.702 180.603 119.049 181.272C120.489 184.048 125.263 183.43 127.887 183.486C136.471 183.652 145.355 183.178 153.616 185.775C145.715 170.321 134.789 163.65 117.881 169.716C119.408 170.947 111.79 168.067 111.121 168.012C99.4231 165.079 89.7721 174.897 85.0575 184.625C88.6242 183.776 92.6208 184.529 96.3153 184.938ZM79.9758 187.568C85.134 175.942 95.3045 163.159 109.491 165.169C112.403 165.598 115.467 167.588 118.399 167.229C126.89 164.092 133.898 162.497 142.401 167.571C146.009 167.84 166.31 192.991 156.663 190.937C144.821 184.133 124.23 190.542 116.877 184.456C102.44 193.939 90.701 183.638 82.5646 189.565C81.1499 190.864 79.1657 189.247 79.9758 187.568Z" fill="#343434"/>
<path fill-rule="evenodd" clip-rule="evenodd" d="M78.1286 151.456C83.5899 157.103 92.707 158.723 99.973 155.695C118.63 147.895 109.498 123.567 95.1095 117.034C93.312 116.586 90.9113 115.522 88.722 115.281C88.524 115.184 88.0931 115.465 87.5709 115.199C71.7051 116.972 68.0921 141.615 78.1286 151.456ZM138.305 152.902C144.43 161.031 155.818 163.539 165.122 159.76C183.503 152.517 176.984 130.944 164.408 122.487C137.843 112.499 126.873 137.913 138.305 152.902ZM178.151 134.89C178.168 134.882 178.185 134.878 178.202 134.869C178.105 134.827 178.008 134.784 177.911 134.74C177.943 134.823 177.977 134.904 178.008 134.986C178.055 134.954 178.097 134.915 178.151 134.89ZM65.4832 126.102C66.9829 126.106 69.1492 126.352 70.3907 127.393C73.4522 117.062 84.7527 107.501 94.5805 114.473C102.32 116.963 108.063 122.486 111.327 129.829C117.212 126.327 126.465 127.822 131.569 132.454C134.911 121.404 143.136 117.534 152.927 116.963C163.613 115.212 174.264 125.596 177.587 133.926C180.35 133.612 184.479 132.732 187.079 134.438C203.95 130.011 233.447 127.57 236.877 130.03C239.322 130.968 240.663 136.741 237.249 137.053C234.274 136.63 237.596 132.823 234.597 132.407C218.618 131.416 203.106 134.636 187.296 135.987C185.884 137.887 181.324 138.523 178.891 137.759C182.723 151.891 174.45 161.505 162.055 164.385C142.863 168.796 126.165 151.617 131.184 133.748C125.37 130.854 118.682 130.978 112.349 132.502C122.932 171.476 60.2009 169.728 69.9985 128.729C63.4783 131.974 62.0622 126.757 65.4832 126.102Z" fill="#FF9500"/>
</svg>
