<svg width="387" height="537" viewBox="0 0 387 537" fill="none" xmlns="http://www.w3.org/2000/svg">
<path fill-rule="evenodd" clip-rule="evenodd" d="M351.94 528.183C293.173 537.115 233.34 537.564 174.084 534.321C150.633 532.564 127.11 532.248 103.678 534.494C89.8318 535.524 29.1234 540.167 24.1632 527.758C27.285 461.682 33.6077 395.043 53.0039 331.493C60.9807 308.928 67.8318 290.2 83.4004 271.527C88.307 266.429 98.8887 255.736 104.952 252.249C110.205 249.228 112.4 250.306 115.417 245.204C118.414 239.567 120.625 230.154 124.88 226.177C129.214 222.127 135.636 223.576 143.595 224.88C142.133 205.107 151.254 200.071 163.821 196.311C185.909 187.876 207.724 192.114 213.283 219.019C223.592 219.019 229.382 223.458 235.642 227.723C238.2 229.466 236.42 233.908 239.477 235.278C245.132 237.293 255.125 236.8 260.57 239.279C285.33 250.554 307.383 266.904 321.865 290.782C354.334 341.763 376.637 449.155 372.778 509.579C374.468 512.232 372.13 516.037 371.536 518.89C370.786 521.372 368.356 523.022 365.82 522.74C362.282 526.548 356.81 527.395 351.94 528.183Z" fill="#FAFAFA"/>
<path fill-rule="evenodd" clip-rule="evenodd" d="M108.694 250.754C109.055 250.553 108.737 250.037 108.374 250.208C90.946 258.389 77.5759 272.742 68.1683 289.326C58.4269 306.498 52.8748 325.994 48.0881 345.05L47.9154 345.739C42.8113 366.124 38.4714 386.719 34.5642 407.365C30.6071 428.273 27.4309 449.31 24.8759 470.434C23.6119 480.878 22.4851 491.341 21.6061 501.825C21.1671 507.064 20.7681 512.308 20.4096 517.553C20.2664 519.651 20.1315 521.749 20.0158 523.848L19.9328 525.424C19.8613 526.852 19.6917 528.284 20.0443 529.694C20.3489 530.908 20.9917 532.008 21.5571 533.124C22.6754 535.328 25.7409 534.965 26.946 533.124L27.2959 532.587C28.0951 531.352 28.7591 530.203 29.0098 528.665C29.2522 527.176 29.2612 525.615 29.3701 524.111C29.5703 521.343 29.7408 518.573 29.9351 515.804C30.343 509.977 30.8014 504.152 31.3088 498.333C32.3124 486.843 33.3888 475.365 34.7108 463.907C37.0598 443.544 40.0075 423.236 43.4824 403.036C46.8776 383.302 51.1697 363.769 55.6474 344.261L56.1112 342.243C63.9512 308.182 76.0344 268.957 108.694 250.754ZM294.331 384.129C294.202 383.788 293.651 383.71 293.558 384.129C292.384 389.418 292.268 394.865 292.088 400.28C291.911 405.622 291.919 410.988 291.996 416.333C292.283 435.977 292.822 455.604 293.288 475.244C293.521 485.068 293.74 494.894 293.908 504.72C293.971 508.405 294.024 512.09 294.069 515.775L294.123 520.636C294.15 522.785 294.206 524.908 294.468 527.054C294.641 528.466 295.009 529.813 295.788 531.023C296.341 531.883 297.129 532.319 297.897 532.902L298.041 533.014C299.02 533.788 300.052 533.794 301.023 533.014L301.304 532.791C302.231 532.065 303.032 531.499 303.624 530.352C304.447 528.757 304.579 527.025 304.719 525.268C304.931 522.603 304.79 519.899 304.763 517.227C304.708 511.866 304.634 506.507 304.54 501.146C304.195 481.49 303.513 461.83 302.27 442.209C301.684 432.967 300.89 423.695 299.826 414.49L299.623 412.765C299.3 410.057 299.005 407.3 298.673 404.535C303.629 401.047 307.985 396.815 311.7 392.015C311.973 391.661 311.523 391.166 311.193 391.508C307.397 395.44 303.045 398.575 298.227 401.041C297.437 395.252 296.352 389.494 294.331 384.129ZM211.539 208.912C211.471 208.859 211.365 208.836 211.3 208.912C210.235 210.154 210.451 212.054 210.417 213.629L210.413 213.776C210.336 216.078 210.322 218.373 210.33 220.676L210.354 228.009C210.357 229.017 210.438 230.067 210.387 231.081L210.36 231.473C209.8 232.047 209.54 232.875 209.73 233.708C209.764 234.775 210.322 235.666 211.136 236.226L209.392 238.702L207.646 241.176C204.048 246.282 200.41 251.343 196.619 256.309C192.753 261.372 188.629 266.245 184.314 270.929C182.205 273.219 180.061 275.476 177.867 277.683C176.975 278.58 176.061 279.454 175.157 280.339L174.258 281.228C173.727 281.759 173.059 282.285 172.706 282.959C172.499 283.356 172.451 284.336 172.377 284.498C171.711 285.962 172.847 288.296 174.735 287.566L174.649 287.509C174.305 287.27 174.526 287.266 175.31 287.499C175.805 287.497 176.269 287.383 176.702 287.158L176.831 287.087C177.442 286.776 177.987 286.176 178.482 285.695L178.605 285.578C179.739 284.515 180.82 283.387 181.907 282.276C184.176 279.957 186.393 277.59 188.539 275.158C192.822 270.307 196.881 265.259 200.726 260.055C204.642 254.754 208.282 249.181 211.412 243.379C212.6 241.177 213.689 238.933 214.733 236.663C216.766 236.01 217.238 233.847 217.096 231.411C217.846 229.664 218.521 227.88 218.921 226.058C218.975 225.808 218.655 225.573 218.463 225.791C217.813 226.53 217.211 227.317 216.632 228.124C216.283 226.416 215.841 224.844 215.634 223.842L214.733 219.418C219.81 219.153 225.373 221.24 228.873 224.894C229.061 225.846 229.793 226.527 230.507 227.416C231.322 228.433 232.033 229.574 232.563 230.767C233.739 233.412 233.076 237.309 235.358 239.25C235.596 239.452 235.862 239.592 236.137 239.679C235.053 244.994 235.545 250.85 235.569 256.242L235.569 256.716C235.564 262.751 235.765 268.79 235.998 274.82L236.236 280.787C236.543 288.746 236.742 296.708 235.969 304.623C232.44 301.496 228.791 298.511 225.017 295.668C222.535 293.798 220.003 291.994 217.426 290.258L215.332 288.858C212.822 287.174 210.251 285.442 207.503 284.236C203.909 282.659 200.492 283.201 197.022 284.818C193.566 286.429 190.214 288.3 186.824 290.046C183.377 291.821 179.922 293.581 176.47 295.346C174.183 296.516 170.832 297.571 169.154 299.724C169.047 299.247 168.923 298.772 168.777 298.299C168.943 297.578 168.879 296.798 168.474 296.055C162.838 285.693 157.623 275.082 152.445 264.485C149.824 259.122 147.332 253.696 144.706 248.336L142.153 243.116C141.726 242.247 141.299 241.378 140.868 240.51C140.224 239.211 139.553 237.925 138.902 236.629C138.627 236.081 138.282 235.538 138.014 234.985L137.887 234.708C137.881 234.693 137.262 232.747 137.74 232.933L137.781 232.952C138.025 233.091 138.22 232.784 138.062 232.588C137.387 231.752 136.446 232.492 136.06 233.266C134.998 235.395 136.944 238.738 137.693 240.777L137.734 240.891C140.057 247.471 142.688 253.927 145.383 260.362C150.551 272.697 156.103 284.844 161.643 297.011L161.708 297.221C160.527 296.314 159.266 295.492 158.186 294.692C155.461 292.672 152.657 290.752 149.857 288.838C144.723 285.328 139.449 282.05 134.089 278.901L133.015 278.273C130.338 276.712 127.685 275.446 124.506 275.915C121.554 276.35 118.808 277.937 116.141 279.227L115.865 279.359L107.622 283.28C108.503 279.764 109.457 276.265 110.453 272.779C112.394 265.979 114.53 259.237 116.847 252.555C119.01 246.311 121.349 240.136 123.823 234.01L124.568 232.172C125.577 229.649 126.58 226.899 129.463 226.122C132.344 225.346 135.649 226.497 138.282 224.854C138.522 224.704 138.492 224.31 138.202 224.237L136.577 223.827C133.526 223.068 129.95 222.304 127.065 223.042C123.925 223.847 121.328 226.483 119.805 229.224C118.111 232.273 116.918 235.684 115.632 238.935L115.429 239.447C113.954 243.126 112.535 246.828 111.177 250.552C108.463 257.997 105.992 265.531 103.756 273.133C102.678 276.797 101.655 280.478 100.673 284.169C100.39 285.23 99.924 286.517 99.5417 287.859C99.1035 288.287 98.6888 288.764 98.2997 289.308C97.6542 290.211 98.1175 291.269 98.92 291.81C98.951 292.733 99.1562 293.602 99.6465 294.347C101.56 297.254 106.621 296.505 106.415 292.597C106.384 291.998 106.151 291.427 105.798 290.945L105.808 290.866L105.848 290.723C106.727 290.302 107.609 289.833 108.539 289.373L117.19 285.096C119.695 283.857 122.472 281.942 125.259 281.47C127.856 281.03 130.597 282.967 132.829 284.135L132.973 284.21C138.369 286.977 143.725 289.836 149.059 292.719C151.663 294.126 154.234 295.592 156.828 297.016C158.997 298.207 161.338 299.917 163.776 300.589C164.817 301.399 166.054 301.29 167.048 300.678C166.594 303.493 166.622 306.382 166.482 309.261C166.295 313.109 166.266 316.967 166.204 320.821L166.179 322.265C166.015 330.784 165.928 339.305 165.895 347.825C165.78 378.165 166.115 408.514 166.193 438.855C166.233 454.099 166.535 469.355 166.931 484.594C167.099 491.051 167.449 497.5 167.828 503.947L168.037 507.464C168.478 514.883 168.739 522.385 170.111 529.705C170.29 530.66 171.905 530.684 172.064 529.705C173.327 521.862 173.397 513.846 173.64 505.91L173.692 504.324C173.983 495.804 174.122 487.289 174.092 478.764C173.984 448.412 173.196 418.079 172.551 387.735C172.226 372.489 172.008 357.237 171.505 341.996C171.253 334.37 170.967 326.749 170.629 319.126C170.478 315.722 170.333 312.322 170.107 308.924L170.005 307.467C169.935 306.517 169.878 305.579 169.809 304.649C172.878 305.771 175.685 303.694 178.446 302.273C181.628 300.635 184.809 298.994 187.992 297.36L191.178 295.728L197.554 292.472C200.425 291.006 202.637 289.548 205.699 291.267C216.73 297.46 226.867 305.699 236.053 314.345C237.814 316.003 241.537 315.557 241.983 312.779C243.889 300.907 242.73 288.864 241.757 276.956L241.398 272.535C240.963 267.255 240.49 261.975 239.859 256.716C239.577 254.364 239.296 252.013 238.985 249.665L238.746 247.905C238.357 245.122 238.103 242.355 237.275 239.686C237.536 239.602 237.787 239.463 238.012 239.25C240.503 236.885 239.302 232.781 238.166 229.968C237.043 227.192 235.332 224.768 233.188 222.683C232.721 222.227 232.062 221.934 231.4 221.919C226.203 218.474 220.502 216.754 214.568 218.635C214.402 217.837 214.232 217.041 214.053 216.247L213.871 215.454C213.409 213.484 213.238 210.23 211.539 208.912ZM158.278 520.028C156.665 519.584 154.899 520.052 153.718 521.234C152.536 522.417 152.069 524.183 152.513 525.796C152.735 526.591 153.137 527.28 153.718 527.866C154.261 528.405 154.894 528.79 155.617 529.021L155.786 529.072L156.05 529.181C156.858 529.399 157.667 529.399 158.475 529.181C159.247 528.965 159.918 528.573 160.488 528.008C161.053 527.438 161.444 526.767 161.661 525.993C161.878 525.185 161.878 524.376 161.661 523.567L161.55 523.303C161.328 522.509 160.927 521.819 160.346 521.234C159.761 520.653 159.072 520.251 158.278 520.028ZM62.5239 359.235C62.2589 358.931 61.8293 359.321 61.994 359.645C64.5058 364.572 67.3055 369.464 70.057 374.266C69.8366 375.597 69.618 376.917 69.3666 378.204C68.2946 383.689 66.9816 389.075 66.1256 394.612C63.0488 414.515 61.4515 434.634 60.0809 454.715C58.7062 474.869 58.5303 495.031 58.3239 515.225C58.3058 516.975 59.6513 519.009 61.4542 519.338C62.2796 519.489 62.8972 519.46 63.7208 519.338C65.597 519.062 66.7706 516.912 66.8512 515.225C67.3892 503.939 68.1129 492.667 68.9514 481.399C70.4376 461.422 71.3458 441.393 72.5464 421.395L72.9692 414.406C73.423 406.832 73.838 399.254 73.9732 391.669C74.0632 386.644 73.7946 381.621 73.9597 376.602C74.1122 371.968 74.5818 366.929 73.5607 362.377C73.5229 362.206 73.2535 362.163 73.1757 362.326C72.1141 364.562 71.4416 366.993 70.9234 369.474C68.1876 366.012 65.4014 362.542 62.5239 359.235ZM241.732 236.833C241.348 236.805 241.363 237.382 241.732 237.425C247.101 238.048 252.288 240.234 257.358 242.093L257.792 242.251C262.913 244.11 267.907 246.273 272.712 248.85C282.108 253.889 290.736 260.387 298.364 267.825C328.819 297.519 342.698 340.339 352.868 380.578C358.519 402.935 362.537 425.67 365.142 448.579C366.43 459.909 367.34 471.282 367.871 482.673C368.143 488.51 368.314 494.353 368.386 500.197C368.422 503.19 368.433 506.184 368.43 509.177C368.428 510.549 368.183 512.276 368.55 513.608C368.89 514.842 369.849 515.928 370.558 516.956C371.399 518.176 372.91 518.112 373.762 516.956L374.077 516.536C374.986 515.329 375.875 514.176 376.005 512.599C376.144 510.908 376.046 509.165 376.052 507.467C376.067 504.046 376.024 500.624 375.956 497.204C375.824 490.648 375.566 484.094 375.182 477.548C374.403 464.264 373.121 451.006 371.285 437.826C368.021 414.398 363.128 391.194 356.72 368.426C350.675 346.948 343.513 325.533 333.31 305.638C323.836 287.166 311.409 269.982 295.01 257.072C287.384 251.069 279.082 246.066 270.132 242.298C265.618 240.397 260.878 238.846 256.057 237.962C251.29 237.087 246.544 237.209 241.732 236.833ZM157.353 482.064C156.502 482.057 155.552 482.245 154.822 482.716L153.846 483.471C153.581 483.811 153.318 484.152 153.056 484.494C152.445 485.29 152.364 486.577 152.492 487.526C152.52 488.159 152.708 488.748 153.056 489.294L153.799 490.256C154.513 490.839 155.109 491.255 155.974 491.536C156.426 491.682 156.861 491.712 157.296 491.69L157.44 491.681L157.353 491.693L157.505 491.676C157.647 491.663 157.788 491.648 157.93 491.629C158.027 491.617 158.124 491.609 158.221 491.596C158.314 491.588 158.404 491.585 158.498 491.593C159.598 491.697 160.703 491.073 161.483 490.356C162.186 489.71 162.817 488.341 162.719 487.37L162.677 486.964C162.603 486.28 162.543 486.01 162.253 485.323C161.971 484.654 161.578 484.064 161.042 483.565C160.016 482.611 158.761 482.074 157.353 482.064ZM160.756 431.975C159.297 430.384 156.791 430.267 154.982 431.23C154.541 431.465 154.136 431.841 153.747 432.155C152.768 432.948 152.383 434.377 152.329 435.581C152.276 436.771 152.903 438.185 153.747 439.007L153.952 439.205C154.456 439.696 155.179 440.123 155.884 440.252C157.022 440.462 157.977 440.455 159.036 440.008C159.947 439.624 160.731 439.006 161.264 438.168L161.351 438.026C161.388 437.967 161.422 437.907 161.455 437.846L161.502 437.754C162.516 435.803 162.243 433.595 160.756 431.975ZM160.001 381.623C159.343 381.417 158.685 381.387 158.027 381.535C157.58 381.536 157.164 381.649 156.778 381.873C156.358 381.99 155.994 382.202 155.685 382.51C155.314 382.73 155.017 383.026 154.798 383.398C154.36 383.876 154.065 384.438 153.911 385.082L153.735 386.399L153.911 387.716L154.411 388.899C154.548 389.078 154.686 389.257 154.825 389.436C155.046 389.809 155.343 390.106 155.716 390.327C155.958 390.568 156.236 390.748 156.547 390.874C157.649 391.664 159.117 391.922 160.423 391.562C161.199 391.345 161.872 390.952 162.443 390.384C163.01 389.813 163.403 389.139 163.619 388.363L163.709 387.744C163.824 386.913 163.842 386.453 163.607 385.397C163.504 384.932 163.205 384.277 163.049 384.001C162.379 382.824 161.286 382.017 160.001 381.623ZM102.858 345.398C100.969 345.385 99.0791 345.389 97.1897 345.41L95.7727 345.429C93.3999 345.466 91.3676 345.221 89.5021 346.868C88.1482 348.064 88.7446 350.069 90.0298 350.97C91.9771 352.334 94.4196 351.648 96.6579 351.498C99.0186 351.339 101.381 351.208 103.744 351.102C108.321 350.897 112.898 350.766 117.479 350.746C122.05 350.727 126.627 350.77 131.197 350.844C135.848 350.919 140.689 351.353 145.314 350.871C145.949 350.805 146.092 349.969 145.465 349.752C141.107 348.243 136.206 347.755 131.639 347.178C126.929 346.583 122.219 346.161 117.479 345.888C112.611 345.609 107.735 345.433 102.858 345.398ZM160.009 330.584L159.853 330.587C159.022 330.589 158.243 330.785 157.517 331.174L157.363 331.261L156.364 332.032C155.753 332.649 155.329 333.375 155.096 334.211L154.919 335.524C154.893 336.203 155.035 336.837 155.344 337.426C155.543 338.038 155.883 338.567 156.364 339.015C156.811 339.496 157.341 339.836 157.952 340.035C158.495 340.32 159.076 340.463 159.697 340.464L159.853 340.461C160.744 340.458 161.574 340.233 162.343 339.786L163.342 339.015C163.953 338.398 164.377 337.672 164.611 336.836L164.787 335.524C164.813 334.844 164.671 334.209 164.362 333.621C164.163 333.009 163.823 332.48 163.342 332.032C162.895 331.551 162.366 331.211 161.754 331.012C161.211 330.726 160.63 330.584 160.009 330.584ZM145.382 214.607C144.319 213.066 142.392 214.436 142.668 215.675C142.595 219.154 142.417 222.53 141.626 225.938C141.264 227.498 140.789 229.06 140.057 230.489L139.75 231.09C138.803 232.963 138.067 234.729 139.343 236.784C139.945 237.752 141.031 238.48 142.209 238.429C147.434 238.203 148.152 230.927 148.47 226.864C148.797 222.681 147.779 218.083 145.382 214.607Z" fill="#343434"/>
<path fill-rule="evenodd" clip-rule="evenodd" d="M92.7487 87.6176C101.612 33.9762 169.293 24.305 213.396 35.5952C214.208 25.2772 220.705 16.16 228.811 10.1629C263.248 -14.6325 304.018 27.4651 295.855 63.7466C294.391 74.7375 285.611 87.2795 273.326 85.3986C288.768 114.64 294.802 173.604 260.779 191.831C257.496 194.169 256.952 198.916 254.425 201.96C250.324 206.869 232.803 213.122 223.324 208.111C220.346 210.849 216.91 213.514 212.893 214.461C192.139 231.084 161.808 234.835 136.536 227.976C120.966 225.332 104.826 218.304 96.8151 203.946C90.0277 193.018 93.1553 180.214 96.2677 168.648C97.6122 162.285 98.4875 155.872 99.0264 149.404C97.9226 148.115 97.8609 146.324 97.5856 144.694C96.3905 138.914 93.7788 133.55 92.4725 127.787C89.55 114.704 90.0574 100.727 92.7487 87.6176Z" fill="#FAFAFA"/>
<path fill-rule="evenodd" clip-rule="evenodd" d="M93.4585 114.936C93.9704 121.404 96.7103 127.224 99.004 133.252C98.7534 129.685 98.8713 125.974 98.6216 122.27C101.289 99.0798 132.807 92.9873 145.042 75.452C144.579 74.4617 144.412 65.6079 146.236 68.0978C153.313 99.0848 195.377 114.631 224.176 114.691C226.354 112.895 230.673 114.792 229.857 118.372C225.551 137.263 224.608 157.025 227.373 176.22C228.676 182.998 228.896 191.154 232.961 196.994C237.274 201.099 232.088 201.429 229.234 200.502C228.439 201.622 227.599 202.709 226.756 203.791C230.855 206.625 236.837 205.08 241.08 203.193C245.8 200.693 248.498 195.849 251.918 191.966C253.786 188.206 256.618 186.044 260.259 184.007C280.514 170.233 279.991 140.016 277.083 118.177C268.61 53.1888 196.523 21.8318 138.671 44.4087C107.427 52.4029 92.7892 84.7253 93.4585 114.936ZM281.892 78.144C294.247 65.832 291.76 44.3083 283.994 30.1149C268.431 0.459346 224.227 1.42301 218.934 37.3687C241.476 45.0956 260.497 61.6641 271.822 82.5851C275.509 82.1908 279.073 80.5475 281.892 78.144ZM92.7487 87.6275C101.612 33.9862 169.293 24.315 213.396 35.6057C214.208 25.2872 220.704 16.17 228.811 10.1725C263.248 -14.6225 304.018 27.4751 295.855 63.7566C294.391 74.7475 285.611 87.2895 273.326 85.4086C288.768 114.65 294.802 173.614 260.779 191.841C257.496 194.179 256.952 198.926 254.425 201.969C250.324 206.879 232.803 213.133 223.324 208.121C221.071 210.888 208.279 219.302 209.212 211.054C210.153 208.832 213.06 208.252 214.996 207.154C219.066 204.906 222.601 201.738 225.378 198.017C216.654 173.402 217.319 145.994 222.206 120.649C192.999 119.179 158.632 106.37 145.749 78.2408C137.041 98.7112 110.034 101.346 103.212 124.233C102.8 136.253 105.377 148.096 103.508 160.123C102.96 171.903 96.7368 183.604 100.335 195.307C110.387 220.826 146.572 224.571 170.479 223.504C176.157 223.035 180.87 219.965 185.538 217.05C188.336 215.721 191.667 218.5 189.952 221.467C183.407 230.606 169.944 231.405 159.606 231.076C132.778 229.484 94.0046 221.553 92.6119 188.404C93.4967 175.263 98.6499 162.688 99.026 149.414C97.9226 148.125 97.8609 146.334 97.5856 144.704C96.3905 138.923 93.7783 133.56 92.4725 127.797C89.55 114.714 90.0569 100.738 92.7487 87.6275Z" fill="#343434"/>
<path fill-rule="evenodd" clip-rule="evenodd" d="M134.962 191.599C137.837 191.623 141.069 190.543 143.23 189.698L143.794 189.474C145.664 188.725 147.586 187.864 149.019 186.42C149.477 185.95 149.965 185.419 150.213 184.861C150.358 184.534 150.418 184.195 150.278 183.858C149.76 183.807 149.269 183.741 148.803 183.656C148.582 183.615 148.37 183.573 148.207 183.572C147.608 183.569 147.015 183.645 146.422 183.72C146.336 183.731 146.25 183.741 146.165 183.752C145.703 183.809 145.244 183.871 144.786 183.933C143.453 184.112 142.127 184.289 140.774 184.354C139.798 184.401 138.774 184.346 137.741 184.29C135.062 184.144 132.293 183.945 130.229 185.822C129.688 186.314 129.462 186.933 129.462 187.564C129.462 188.331 129.785 189.112 130.277 189.724C131.391 191.11 133.106 191.584 134.962 191.599ZM119.284 167.42C120.535 169.298 122.619 170.505 125.474 170.374C131.149 170.114 137.923 167.972 142.676 164.874C143.914 164.067 144.716 162.777 144.86 161.396L145.116 158.938L146.5 160.985C146.644 161.198 146.79 161.411 146.935 161.624C147.336 162.209 147.736 162.795 148.114 163.396C149.564 165.701 150.894 168.03 152.101 170.472C152.955 172.201 153.58 174.135 154.207 176.086C155.264 179.381 156.286 182.621 158.546 184.936C158.888 185.286 159.413 185.412 159.894 185.35C160.318 185.295 160.733 185.087 160.937 184.673C163.637 179.178 160.005 172.557 157.059 167.954L156.747 167.473C154.015 163.313 149.553 157.808 144.443 157.06L143.858 157.993L143.008 157.426C141.617 156.497 139.78 156.541 138.173 157.267L136.565 157.993C133.572 159.337 130.62 160.577 127.382 161.256C127.146 161.305 126.91 161.352 126.675 161.394C126.453 161.435 126.229 161.473 126.005 161.508C126.053 161.287 126.105 161.067 126.157 160.848C126.211 160.616 126.267 160.384 126.326 160.152C126.387 159.912 126.452 159.674 126.518 159.437C126.777 158.492 127.07 157.556 127.418 156.639C128.725 153.191 130.812 149.967 132.843 146.892L133.082 146.53C133.374 146.09 133.693 145.63 134.022 145.154C135.606 142.872 137.363 140.395 137.487 137.909C135.385 138.042 133.626 139.349 132.077 140.487C129.952 142.047 127.982 143.832 126.196 145.77C122.73 149.532 119.62 154.34 118.256 159.311C117.475 162.157 117.818 165.22 119.284 167.42ZM174.732 139.064L174.732 138.962C174.726 136.092 173.055 129.539 168.926 129.539C166.346 129.539 164.78 133.999 164.509 138.596L164.499 138.784C164.379 141.642 165.163 147.89 168.926 147.89C172.728 147.89 174.692 141.972 174.732 139.064ZM113.935 138.163L113.935 138.062C113.941 135.192 115.612 128.639 119.741 128.639C122.256 128.639 123.808 132.878 124.136 137.352L124.158 137.696C124.321 140.458 123.588 146.99 119.741 146.99C115.939 146.99 113.975 141.072 113.935 138.163ZM160.824 119.639C161.372 119.703 161.916 119.788 162.46 119.874C164.048 120.127 165.628 120.431 167.196 120.785C170.175 121.458 173.13 122.308 176.029 123.268C178.741 124.167 181.411 125.183 184.081 126.198C184.224 126.252 184.366 126.307 184.508 126.361C185.451 126.719 186.39 127.121 187.333 127.524C188.767 128.138 190.208 128.756 191.678 129.221C187.804 123.862 181.836 119.892 176.093 117.05C172.816 115.429 169.34 114.122 165.843 113.051L163.896 112.465C161.028 111.619 157.893 110.837 155.199 112.524C154.134 113.192 153.454 114.23 153.24 115.352C153.03 116.452 153.27 117.631 154.029 118.616C154.69 119.473 155.515 119.962 156.392 120.129C157.36 120.314 158.387 120.111 159.321 119.612C160.069 119.556 160.29 119.576 160.511 119.601L160.824 119.639ZM117.687 120.184C119.606 119.767 121.507 119.599 123.476 119.66C124.366 119.686 125.228 119.824 126.087 119.962C127.421 120.178 128.75 120.4 130.188 120.139C130.938 120.002 131.576 119.563 132.07 118.991C132.647 118.321 133.028 117.465 133.151 116.651C133.277 115.81 133.151 115.074 132.84 114.425C132.473 113.658 131.854 113.011 131.106 112.445C128.843 110.731 124.96 111.143 122.29 111.489C119.65 111.833 117.026 112.652 114.692 113.952C112.391 115.236 110.39 116.965 108.828 119.079C107.512 120.861 106.892 122.912 106.252 125C109.264 122.472 113.872 121.013 117.687 120.184Z" fill="#343434"/>
<path fill-rule="evenodd" clip-rule="evenodd" d="M97.0485 151.456C102.51 157.103 111.627 158.723 118.893 155.695C137.55 147.895 128.418 123.567 114.029 117.034C112.232 116.586 109.831 115.522 107.642 115.281C107.444 115.184 107.013 115.465 106.491 115.199C90.625 116.972 87.0121 141.615 97.0485 151.456ZM157.225 152.902C163.35 161.031 174.738 163.539 184.042 159.76C202.423 152.517 195.904 130.944 183.328 122.487C156.763 112.499 145.793 137.913 157.225 152.902ZM197.07 134.89C197.088 134.882 197.105 134.878 197.122 134.869C197.025 134.827 196.928 134.784 196.831 134.74C196.863 134.823 196.897 134.904 196.927 134.986C196.975 134.954 197.017 134.915 197.07 134.89ZM84.4031 126.102C85.9028 126.106 88.0691 126.352 89.3107 127.393C92.3722 117.062 103.673 107.501 113.5 114.473C121.24 116.963 126.983 122.486 130.246 129.829C136.131 126.327 145.385 127.822 150.489 132.454C153.831 121.404 162.056 117.534 171.847 116.963C182.533 115.212 193.184 125.596 196.507 133.926C199.27 133.612 203.399 132.732 205.999 134.438C222.87 130.011 252.367 127.57 255.797 130.03C258.242 130.968 259.583 136.741 256.169 137.053C253.194 136.63 256.516 132.823 253.517 132.407C237.538 131.416 222.026 134.636 206.216 135.987C204.804 137.887 200.244 138.523 197.81 137.759C201.642 151.891 193.37 161.505 180.975 164.385C161.783 168.796 145.085 151.617 150.103 133.748C144.289 130.854 137.602 130.978 131.268 132.502C141.852 171.476 79.1208 169.728 88.9184 128.729C82.3982 131.974 80.9822 126.757 84.4031 126.102Z" fill="#FF9500"/>
</svg>
