<svg width="399" height="581" viewBox="0 0 399 581" fill="none" xmlns="http://www.w3.org/2000/svg" xmlns:xlink="http://www.w3.org/1999/xlink">
<path fill-rule="evenodd" clip-rule="evenodd" d="M284.255 289.637C261.86 284.702 248.578 284.702 241.062 277.056C233.547 269.41 232.183 256.286 229.065 246.152C227.347 240.569 210.517 235.497 194.19 236.291C180.885 236.938 167.477 242.56 166.441 246.152C164.135 254.154 160.425 288.405 148.227 293.667C136.029 298.929 109.987 294.132 102.542 306.698C95.0958 319.265 70.644 370.492 70.644 382.428C70.644 394.364 309.701 390.715 309.701 390.715C309.701 390.715 306.649 294.573 284.255 289.637Z" fill="#FAFAFA"/>
<path fill-rule="evenodd" clip-rule="evenodd" d="M381.879 567.679C381.807 567.927 381.537 567.922 381.879 567.679V567.679ZM383.206 566.689C383.183 566.707 383.156 566.725 383.129 566.743C383.399 566.721 383.566 566.446 383.206 566.689ZM29.4193 535.043C30.9217 528.62 32.4196 522.192 33.922 515.77C37.0573 502.339 40.1971 488.903 43.3324 475.468C49.4725 449.191 55.6081 422.914 61.7482 396.638C64.8654 383.283 68.428 370.032 71.6443 356.7C74.4602 345.016 76.7858 333.052 81.6214 321.993C86.5559 310.705 95.2241 301.271 106.704 296.486C116.37 292.462 127.243 290.235 137.768 289.726C136.446 288.106 136.136 285.707 138.065 283.749C140.458 281.323 140.944 277.717 141.583 274.508C142.379 270.498 143.616 266.199 146 262.824C147.008 261.397 148.474 260.731 150.202 261.113C151.263 261.347 152.307 261.622 153.337 261.932C153.67 261.599 153.998 261.244 154.286 260.812C154.938 259.812 155.361 258.35 156.297 257.584C156.931 257.062 157.651 256.936 158.393 257.314C160.386 258.327 160.552 261.392 160.125 263.274C160.039 263.638 159.936 264.003 159.81 264.358C159.945 264.421 160.084 264.484 160.224 264.547H160.228C162.828 264.052 166.148 265.097 168.685 265.349C171.632 265.641 174.591 265.835 177.551 265.929C183.61 266.123 189.678 265.943 195.71 265.335C201.589 264.75 207.428 263.809 213.235 262.747C216.852 262.085 221.26 261.536 224.436 259.362C224.486 258.278 224.512 257.188 224.535 256.104C224.58 254.218 224.481 252.737 225.484 251.081C225.498 251.063 225.52 251.058 225.543 251.067C226.784 251.715 227.675 252.822 228.327 254.137C229.519 253.817 230.801 253.862 231.912 254.326C233.482 254.978 234.651 255.73 235.87 256.936C237.683 258.723 238.214 260.812 238.745 263.211C239.127 264.93 239.366 266.159 240.049 267.311C240.198 267.559 240.355 267.82 240.526 268.058C240.589 268.121 240.706 268.243 240.904 268.45C241.102 268.648 241.3 268.841 241.502 269.035C241.619 269.152 242.195 269.62 242.106 269.557C244.598 271.411 246.851 272.109 249.928 272.996C256.549 274.904 263.332 276.151 269.931 278.176C277.142 280.391 284.195 283.082 291.091 286.139C317.914 298.026 341.921 316.844 358.29 341.352C377.354 369.897 384.371 404.568 387.848 438.182C391.654 475.022 391.388 512.281 392.22 549.275C392.324 553.902 392.427 558.529 392.531 563.156C392.634 567.679 392.913 572.549 388.901 575.597C385.325 578.306 380.97 577.455 377.012 576.236C372.774 574.935 368.461 573.9 364.093 573.157C355.852 571.766 347.35 571.6 339.038 572.41C334.571 572.846 329.106 574.503 325.435 571.001C324.117 569.741 323.357 568.143 322.736 566.464C321.962 564.394 321.058 562.364 320.159 560.329C319.416 558.655 318.679 556.971 317.941 555.293C316.744 560.536 315.548 565.78 314.351 571.028C313.879 573.094 311.724 573.252 310.424 572.248C308.301 573.387 305.512 573.364 303.101 573.643C299.224 574.089 295.315 574.242 291.419 574.377C283.786 574.638 276.152 574.782 268.514 574.881C252.941 575.079 237.368 575.007 221.8 574.939C190.956 574.804 160.116 574.174 129.285 573.373C120.603 573.148 111.922 572.945 103.24 572.734C98.9036 572.63 94.5633 572.527 90.222 572.405C88.922 572.369 87.609 572.248 86.376 571.96H86.3719C85.8227 572.441 85.148 572.81 84.3428 573.031C81.4599 573.823 78.5945 572.059 77.7308 569.273C77.33 567.994 77.0511 566.824 77.1506 565.582C77.0017 564.646 76.8532 563.709 76.7048 562.773C71.8917 565.82 66.1159 566.649 60.4167 566.271C53.9707 565.843 47.5247 564.664 41.1282 563.786C35.1231 562.962 25.3889 563.228 25.101 554.928C24.9975 551.89 26.28 548.483 26.9633 545.557C27.7824 542.051 28.6006 538.549 29.4193 535.043Z" fill="#343434"/>
<path fill-rule="evenodd" clip-rule="evenodd" d="M143.192 110.055C172.777 85.9945 220.187 78.1822 251.856 102.456C276.463 125.237 286.647 189.973 282.292 222.502C281.081 243.367 265.15 267.015 241.765 260.416C237.794 260.025 233.938 258.502 229.931 258.183C225.137 257.631 220.307 257.621 215.523 258.298C205.098 259.773 195.856 265.312 185.738 267.901C166.962 272.705 146.014 269.474 129.852 258.652C76.4461 223.518 100.638 144.06 143.192 110.055Z" fill="#FAFAFA"/>
<path fill-rule="evenodd" clip-rule="evenodd" d="M147.132 268.479C146.583 268.29 146.035 268.092 145.491 267.89C145.455 268.016 145.396 268.137 145.328 268.254C145.252 268.443 145.175 268.627 145.09 268.812C145.773 268.817 146.458 268.695 147.132 268.479ZM148.23 35.3191C148.472 34.775 148.752 34.2528 149.067 33.7483C148.302 33.9963 147.537 34.3384 146.844 34.7795C147.312 34.937 147.771 35.117 148.23 35.3191ZM265.089 106.507C265.121 106.502 265.152 106.497 265.183 106.492C264.782 105.423 264.067 104.414 263.277 103.685C263.136 103.554 262.982 103.433 262.834 103.308C263.672 104.307 264.432 105.372 265.089 106.507ZM51.2659 218.288C51.6618 214.535 52.1656 210.795 52.8178 207.076C53.4431 203.517 53.9694 199.709 55.7822 196.549C57.5815 193.403 59.3853 190.346 61.526 187.579C61.2206 186.165 60.8152 184.838 60.4648 183.766C58.4406 177.6 56.4474 169.768 60.6538 164.039C61.6299 162.711 62.8215 161.694 64.1849 160.775C64.7652 160.384 65.7273 160.028 66.1731 159.488C66.488 159.105 66.3796 159.313 66.3935 159.123C66.47 158.106 64.0859 155.959 63.5281 155.154C62.4841 153.663 61.7064 151.985 61.1126 150.27C58.7645 143.483 60.3614 136.006 61.7734 129.205C62.5201 125.6 63.3433 121.986 63.6136 118.304C63.8655 114.847 63.3932 111.472 63.1143 108.033C62.844 104.639 62.9159 101.137 64.3693 97.9952C65.08 96.4649 66.1547 95.1146 67.4641 94.0614C68.7411 93.0311 70.334 92.4325 71.5795 91.4063C72.8215 90.3841 72.4662 89.0027 72.1418 87.5894C71.6969 85.672 71.1347 83.7681 71.0807 81.7877C70.9818 78.3354 72.3897 74.9727 74.5889 72.3626C76.8564 69.6665 80.0952 67.8432 83.5948 67.4336C85.1962 67.2446 86.7706 67.5646 88.3629 67.4521C89.9373 67.344 90.2787 66.5564 90.576 65.116C91.2593 61.8168 90.9809 58.5581 92.6043 55.4795C94.0438 52.7429 96.6037 50.888 99.4331 49.7947C104.619 47.7873 110.651 48.2014 116.122 49.3847C119.351 39.8791 129.431 33.6452 139.35 33.5687C140.898 30.9401 143.52 28.9777 146.511 27.825C151.459 25.9121 156.7 27.0288 161.855 27.0288H161.877C162.395 26.9968 162.912 26.9838 163.429 26.9883C163.915 26.9608 164.401 26.9203 164.887 26.8667C170.753 26.1731 176.555 23.7696 182.367 26.1241C184.958 27.1728 187.018 28.7887 188.322 30.8501C190.288 31.3853 192.227 31.9979 194.13 32.709C202.375 32.9246 210.544 37.3491 214.714 44.5196C220.584 43.8534 226.953 44.9832 230.836 49.7812C231.847 51.0298 232.63 52.4967 233.149 54.054C237.108 55.335 240.77 57.6174 243.168 61.0553C245.355 64.1925 245.775 68.2487 244.296 71.6164C247.83 74.1779 250.591 77.8448 251.921 82.1748C252.729 84.8056 252.85 87.5237 252.33 90.1131C255.948 90.9161 259.408 92.4046 262.474 94.6384C265.687 96.9785 269.7 100.703 269.911 104.99C269.927 105.304 269.915 105.619 269.89 105.933C276.963 105.435 284.176 106.634 288.957 112.309C292.547 116.566 294.107 122.049 293.149 127.041C301.566 128.751 309.523 133.153 315.074 139.661C319.109 144.392 322.694 150.405 322.478 156.846C322.411 158.786 321.956 160.739 321.169 162.544V162.548C321.506 163.183 321.853 163.89 322.186 164.642C327.399 168.292 331.187 174.013 333.319 180.319C335.041 185.427 336.125 192.062 334.286 197.26C334.007 198.052 333.651 198.8 333.238 199.492C333.584 199.862 333.912 200.231 334.232 200.604C337.745 204.713 341.303 209.89 341.06 215.547C340.961 217.825 340.116 220.116 338.734 221.997C343.593 226.926 347.506 233.147 347.12 240.092C346.787 246.136 343.471 252.276 338.276 255.179C339.144 259.837 337.983 264.752 334.358 268.389C332.549 270.208 330.418 271.405 328.159 272.044C327.655 277.531 322.789 281.946 317.62 283.215C316.657 283.454 315.694 283.598 314.737 283.665C310.086 285.948 304.539 285.686 299.794 283.593C298.395 285.371 296.573 286.821 294.45 287.86C293.591 288.284 292.681 288.635 291.733 288.918C285.03 290.903 278.157 288.212 272.296 285.07C272.107 284.971 271.761 284.845 271.455 284.705C270.645 285.61 269.17 286.506 268.4 286.947C265.791 288.446 262.602 289.143 259.606 288.945C256.093 288.711 252.994 287.55 250.124 285.898C249.705 285.97 249.283 286.011 248.86 286.033C246.161 286.177 243.755 285.322 241.59 283.972C240.161 284.161 238.694 284.143 237.21 283.882C233.939 284.714 230.754 283.391 228.195 281.289C227.061 280.357 226.104 279.264 225.077 278.219C224.012 277.134 223.202 276.883 221.956 276.153C219.009 274.43 218.654 270.059 219.932 266.899C219.689 266.346 219.549 265.729 219.549 265.045C219.559 259.077 222.307 253.604 225.68 248.828C227.188 246.699 228.825 244.615 230.62 242.725C232.064 241.207 234.092 238.746 236.229 238.129C236.359 238.035 236.494 237.94 236.629 237.85C236.215 236.4 235.973 234.924 236.076 233.417C236.184 231.868 236.683 230.401 237.484 229.15C234.799 223.942 233.665 218.23 234.204 212.271C232.019 209.169 230.363 205.745 229.509 201.991C228.982 199.668 228.681 197.224 228.721 194.843C228.739 193.7 229.158 192.255 229.166 191.071C229.103 191.445 228.618 190.05 228.429 189.703C226.261 185.675 223.477 182.533 223.013 177.785C222.743 175.007 223.4 171.938 225.064 169.66C223.998 165.456 224.012 160.941 225.69 156.932C226.139 155.86 226.656 154.812 227.25 153.817C226.976 152.98 226.724 152.133 226.4 151.372C226.274 151.071 226.148 150.765 226.023 150.459C224.804 149.383 223.67 148.209 222.716 147.056C220.602 144.504 218.987 141.579 218.784 138.207C218.685 136.519 219.081 134.903 219.572 133.301C219.788 132.577 219.918 131.771 220.175 131.064C220.318 130.672 220.665 130.272 220.786 129.903C220.814 129.822 220.836 129.755 220.854 129.701C220.836 129.647 220.822 129.534 220.822 129.322C220.818 127.706 220.607 126.126 220.597 124.569C219.117 126.064 217.336 127.18 215.312 127.833C211.232 129.142 206.977 128.548 203.365 126.527C199.478 129.192 195.111 131.604 190.531 132.572C187.81 133.148 185.084 132.91 182.354 133.265C179.641 133.621 177.018 134.805 174.464 135.727C168.778 137.784 163.106 139.895 157.402 141.898C152.796 143.514 147.812 144.797 142.989 143.888C141.635 145.976 139.876 147.741 137.623 149.037C136.008 149.959 134.236 150.585 132.405 150.896C130.786 151.17 128.887 151.062 127.574 152.174C126.292 153.254 125.491 154.865 124.34 156.081C123.057 157.44 121.474 158.619 119.815 159.466C118.483 160.145 117.124 160.635 115.744 160.955C115.865 164.03 115.982 167.099 116.018 170.178C116.085 176.866 116.059 183.554 116.148 190.243C116.238 196.909 116.449 203.575 116.8 210.232C117.134 216.479 117.601 222.749 119.09 228.844C124.029 249.067 142.531 263.546 163.241 264.284C169.389 264.505 175.476 263.641 181.355 261.831C187.445 259.954 192.884 256.092 199.128 254.904C200.76 254.598 202.299 256.241 201.363 257.82C199.752 260.535 197.796 262.191 195.12 263.825C192.317 265.531 189.195 266.796 186.114 267.903C180.446 269.937 174.45 271.117 168.436 271.445C163.848 271.697 159.242 271.382 154.748 270.518C154.433 271.486 153.875 272.427 153.452 273.322C153.389 273.453 153.178 273.363 153.218 273.228C153.286 273.003 153.331 272.805 153.349 272.643C151.838 274.614 149.503 275.977 147.105 276.64C145.414 277.108 143.619 277.251 141.878 277.054C141.316 276.99 140.781 276.896 140.25 276.779C138.478 278.332 136.211 279.367 133.935 279.885C134.325 282.261 133.152 284.854 130.43 285.529C129.288 285.813 128.19 285.817 127.092 285.714C126.206 286.128 125.253 286.452 124.24 286.672C122.923 286.96 121.349 286.591 120.354 285.637C119.81 286.02 119.302 286.285 118.798 286.892C116.724 289.395 112.253 287.401 112.055 284.507C111.398 284.507 110.737 284.516 110.075 284.539C109.918 284.611 109.761 284.683 109.599 284.759C106.707 286.105 103.711 287.28 100.512 286.222C99.9234 286.028 99.3836 285.781 98.8933 285.493C96.6397 285.695 94.4176 285.7 92.132 284.962C90.7825 284.525 89.5145 283.832 88.4574 282.923C84.9308 283.958 81.2103 284.426 77.7017 283.143C75.0751 282.185 72.9605 280.672 71.472 278.678C69.1955 278.759 66.8839 278.21 64.8011 277.126C61.2386 275.28 58.742 271.774 57.0012 268.259C53.1682 260.504 50.9012 252.172 50.011 243.58C49.1338 235.118 50.3843 226.701 51.2659 218.288Z" fill="#343434"/>
<path fill-rule="evenodd" clip-rule="evenodd" d="M140.533 219.293C140.398 219.441 140.695 219.639 140.843 219.532C142.556 218.289 145.255 218.994 146.909 219.557C146.909 219.557 147.514 239.053 146.845 239.515C146.176 239.977 136.749 239.702 136.749 240.859C136.749 244.64 142.418 246.06 145.495 245.835C150.34 245.481 155.334 244.79 160.172 245.35C165.011 245.91 175.289 248.999 180.55 244.73C186.825 239.637 185.977 231.268 180.756 225.805C177.465 222.361 172.621 220.294 167.846 218.764C160.858 216.523 144.389 215.077 140.533 219.293ZM153.422 233.607C155.956 234.593 168.553 238.756 171.546 239.515C168.047 239.263 156.103 238.986 153.422 237.687C153.121 236.472 152.929 233.414 153.422 233.607ZM151.498 220.092C158.355 221.206 173.162 226.231 175.289 228.906C172.057 228.397 154.023 226.231 151.988 226.231C151.693 224.657 151.888 221.896 151.498 220.092ZM149.307 189.565C145.911 191.631 140.735 196.448 144.389 201.57C148.69 206.086 154.883 200.908 157.935 198.566C160.765 196.751 163.944 201.419 161.319 203.538C139.267 219.875 130.318 190.105 147.589 187.136C149.491 186.808 150.197 188.925 149.307 189.565ZM141.776 159.418C139.782 159.402 138.618 160.697 137.122 161.85C135.583 163.038 133.726 163.985 131.926 164.711C130.05 165.467 128.044 166.067 126.068 166.495C124.02 166.938 122.136 166.73 120.102 167.105C114.713 168.099 115.988 177.092 121.393 176.647C126.257 176.247 131.479 173.256 135.168 170.156C136.931 168.674 138.419 166.976 139.867 165.202L140.138 164.868C141.424 163.281 142.625 161.657 141.98 159.573C141.952 159.483 141.872 159.42 141.776 159.418ZM186.732 185.663C186.726 182.793 185.055 176.239 180.926 176.239C178.346 176.239 176.78 180.699 176.509 185.297L176.499 185.484C176.379 188.343 177.163 194.591 180.926 194.591C184.728 194.591 186.692 188.673 186.731 185.764L186.732 185.663ZM125.935 185.663C125.941 182.793 127.612 176.239 131.741 176.239C134.256 176.239 135.808 180.479 136.135 184.952L136.158 185.297C136.321 188.059 135.588 194.591 131.741 194.591C127.939 194.591 125.974 188.673 125.935 185.764L125.935 185.663ZM173.218 159.847C170.643 158.734 167.692 159.05 166.141 161.703C164.674 164.214 165.673 167.24 167.997 168.785C170.28 170.302 173.345 171.127 175.97 171.995L176.26 172.092C178.804 172.948 181.35 173.648 183.978 174.196C186.433 174.707 188.908 175.086 191.396 175.388L192.143 175.476C194.084 175.7 196.791 176.455 198.539 175.35C198.694 175.252 198.754 175.05 198.66 174.888C197.643 173.126 194.943 172.424 193.211 171.531C190.986 170.384 188.794 169.163 186.621 167.921C184.425 166.666 182.234 165.389 180.061 164.093C177.804 162.747 175.619 160.883 173.218 159.847Z" fill="#343434"/>
<use xlink:href="#stroke0_708_4283" transform="translate(140.409 293.551) scale(0.0213301) rotate(-171.398)"/>
<use xlink:href="#stroke0_708_4283" transform="translate(135.73 288.918) scale(0.0174218) rotate(23.0294)"/>
<use xlink:href="#stroke0_708_4283" transform="translate(134.56 291.361) scale(0.0246635) rotate(11.5071)"/>
<use xlink:href="#stroke0_708_4283" transform="translate(140.473 299.459) scale(0.0110489) rotate(140.524)"/>
<use xlink:href="#stroke0_708_4283" transform="translate(132.884 299.657) scale(0.0232252) rotate(-19.6915)"/>
<use xlink:href="#stroke0_708_4283" transform="translate(140.862 304.064) scale(0.0148808) rotate(114.795)"/>
<use xlink:href="#stroke0_708_4283" transform="translate(136.487 303.082) scale(0.0237452) rotate(28.6365)"/>
<use xlink:href="#stroke0_708_4283" transform="translate(135.707 309.676) scale(0.0145149) rotate(-11.3583)"/>
<use xlink:href="#stroke0_708_4283" transform="translate(142.63 311.869) scale(0.0227769) rotate(101.805)"/>
<use xlink:href="#stroke0_708_4283" transform="translate(138.835 314.683) scale(0.0127378) rotate(46.7269)"/>
<use xlink:href="#stroke0_708_4283" transform="translate(141.394 318.77) scale(0.0120639) rotate(114.535)"/>
<use xlink:href="#stroke0_708_4283" transform="translate(138.897 324.803) scale(0.0128312) rotate(-138.806)"/>
<use xlink:href="#stroke0_708_4283" transform="translate(140.444 319.816) scale(0.0216886) rotate(60.913)"/>
<use xlink:href="#stroke0_708_4283" transform="translate(140.681 333.46) scale(0.0225651) rotate(-149.669)"/>
<use xlink:href="#stroke0_708_4283" transform="translate(140.556 338.45) scale(0.0261825) rotate(-139.377)"/>
<use xlink:href="#stroke0_708_4283" transform="translate(138.216 338.956) scale(0.0154557) rotate(-105.118)"/>
<use xlink:href="#stroke0_708_4283" transform="translate(142.044 335.504) scale(0.0122823) rotate(70.446)"/>
<use xlink:href="#stroke0_708_4283" transform="translate(143.137 343.904) scale(0.017352) rotate(-170.37)"/>
<use xlink:href="#stroke0_708_4283" transform="translate(138.674 347.456) scale(0.0200246) rotate(-100.457)"/>
<use xlink:href="#stroke0_708_4283" transform="translate(138.171 350.232) scale(0.021494) rotate(-85.3227)"/>
<use xlink:href="#stroke0_708_4283" transform="translate(146.05 348.73) scale(0.0177298) rotate(111.843)"/>
<use xlink:href="#stroke0_708_4283" transform="translate(140.254 360.267) scale(0.0285595) rotate(-112.739)"/>
<use xlink:href="#stroke0_708_4283" transform="translate(140.967 360.914) scale(0.0192247) rotate(-88.0113)"/>
<use xlink:href="#stroke0_708_4283" transform="translate(146.963 358.931) scale(0.0136127) rotate(100.776)"/>
<use xlink:href="#stroke0_708_4283" transform="translate(142.514 363.137) scale(0.0115532) rotate(-56.2648)"/>
<use xlink:href="#stroke0_708_4283" transform="translate(150.67 364.109) scale(0.0212922) rotate(120.58)"/>
<use xlink:href="#stroke0_708_4283" transform="translate(145.822 365.034) scale(0.0133941) rotate(29.7322)"/>
<use xlink:href="#stroke0_708_4283" transform="translate(150.015 366.455) scale(0.0239304) rotate(76.6148)"/>
<use xlink:href="#stroke0_708_4283" transform="translate(146.348 376.841) scale(0.0138957) rotate(-102.053)"/>
<use xlink:href="#stroke0_708_4283" transform="translate(145.758 375.29) scale(0.0132773) rotate(-25.5883)"/>
<use xlink:href="#stroke0_708_4283" transform="translate(151.044 383.498) scale(0.0202191) rotate(-152.912)"/>
<use xlink:href="#stroke0_708_4283" transform="translate(148.551 377.668) scale(0.0223496) rotate(14.6037)"/>
<use xlink:href="#stroke0_708_4283" transform="translate(151.205 387.15) scale(0.0125026) rotate(-104.155)"/>
<use xlink:href="#stroke0_708_4283" transform="translate(151.986 390.33) scale(0.0154758) rotate(-113.702)"/>
<use xlink:href="#stroke0_708_4283" transform="translate(150.255 390.583) scale(0.0230348) rotate(-58.4089)"/>
<use xlink:href="#stroke0_708_4283" transform="translate(153.399 391.377) scale(0.0167482) rotate(-32.951)"/>
<use xlink:href="#stroke0_708_4283" transform="translate(157.084 395.719) scale(0.0111281) rotate(-91.9193)"/>
<use xlink:href="#stroke0_708_4283" transform="translate(157.764 392.908) scale(0.016291) rotate(-8.72506)"/>
<use xlink:href="#stroke0_708_4283" transform="translate(163.275 399.388) scale(0.0165968) rotate(-130.862)"/>
<use xlink:href="#stroke0_708_4283" transform="translate(164.22 392.207) scale(0.0136954) rotate(9.24367)"/>
<use xlink:href="#stroke0_708_4283" transform="translate(164.329 397.567) scale(0.0256342) rotate(-80.3735)"/>
<use xlink:href="#stroke0_708_4283" transform="translate(168.796 393.221) scale(0.0144715) rotate(-61.6266)"/>
<use xlink:href="#stroke0_708_4283" transform="translate(172.411 388.966) scale(0.013073) rotate(7.98918)"/>
<use xlink:href="#stroke0_708_4283" transform="translate(178.677 395.087) scale(0.0283751) rotate(-154.461)"/>
<use xlink:href="#stroke0_708_4283" transform="translate(175.33 386.487) scale(0.0180223) rotate(-47.178)"/>
<use xlink:href="#stroke0_708_4283" transform="translate(183.732 388.251) scale(0.0179521) rotate(-161.551)"/>
<use xlink:href="#stroke0_708_4283" transform="translate(179.549 384.932) scale(0.023587) rotate(-81.4982)"/>
<use xlink:href="#stroke0_708_4283" transform="translate(183.533 382.837) scale(0.0207226) rotate(-92.439)"/>
<use xlink:href="#stroke0_708_4283" transform="translate(183.819 376.073) scale(0.0210216) rotate(-42.7491)"/>
<use xlink:href="#stroke0_708_4283" transform="translate(192.817 373.12) scale(0.0116765) rotate(114.072)"/>
<use xlink:href="#stroke0_708_4283" transform="translate(197.614 369.256) scale(0.0247942) rotate(106.613)"/>
<use xlink:href="#stroke0_708_4283" transform="translate(194.865 374.649) scale(0.0255195) rotate(-132.853)"/>
<use xlink:href="#stroke0_708_4283" transform="translate(193.698 365.5) scale(0.0125206) rotate(-38.8236)"/>
<use xlink:href="#stroke0_708_4283" transform="translate(201.392 362.783) scale(0.0147543) rotate(109.954)"/>
<use xlink:href="#stroke0_708_4283" transform="translate(202.634 362.542) scale(0.0132571) rotate(139.169)"/>
<use xlink:href="#stroke0_708_4283" transform="translate(197.797 357.924) scale(0.0147793) rotate(-6.7806)"/>
<use xlink:href="#stroke0_708_4283" transform="translate(202.406 362.448) scale(0.0195173) rotate(-136.615)"/>
<use xlink:href="#stroke0_708_4283" transform="translate(204.053 352.6) scale(0.0123924) rotate(57.095)"/>
<use xlink:href="#stroke0_708_4283" transform="translate(199.254 351.888) scale(0.0269026) rotate(-36.9549)"/>
<use xlink:href="#stroke0_708_4283" transform="translate(202.059 349.119) scale(0.0250041) rotate(-44.2631)"/>
<use xlink:href="#stroke0_708_4283" transform="translate(214.662 344.402) scale(0.0212926) rotate(115.712)"/>
<use xlink:href="#stroke0_708_4283" transform="translate(210.487 337.584) scale(0.0220054) rotate(34.2396)"/>
<use xlink:href="#stroke0_708_4283" transform="translate(215.505 338.347) scale(0.0131327) rotate(95.7826)"/>
<use xlink:href="#stroke0_708_4283" transform="translate(214.267 334.067) scale(0.0167959) rotate(45.8637)"/>
<use xlink:href="#stroke0_708_4283" transform="translate(212.306 335.31) scale(0.011614) rotate(-36.4381)"/>
<use xlink:href="#stroke0_708_4283" transform="translate(210.944 335.586) scale(0.0262126) rotate(-70.8689)"/>
<use xlink:href="#stroke0_708_4283" transform="translate(222.005 328.954) scale(0.0156793) rotate(115.94)"/>
<use xlink:href="#stroke0_708_4283" transform="translate(217.465 330.388) scale(0.0136633) rotate(-103.189)"/>
<use xlink:href="#stroke0_708_4283" transform="translate(225.603 327.251) scale(0.022147) rotate(157.561)"/>
<use xlink:href="#stroke0_708_4283" transform="translate(225.591 322.597) scale(0.0143634) rotate(136.252)"/>
<use xlink:href="#stroke0_708_4283" transform="translate(219.768 315.943) scale(0.0215415) rotate(1.49704)"/>
<use xlink:href="#stroke0_708_4283" transform="translate(222.281 317.257) scale(0.0112152) rotate(-42.3934)"/>
<use xlink:href="#stroke0_708_4283" transform="translate(220.345 315.693) scale(0.0226683) rotate(-57.5396)"/>
<use xlink:href="#stroke0_708_4283" transform="translate(220.638 311.049) scale(0.0286867) rotate(-48.5645)"/>
<use xlink:href="#stroke0_708_4283" transform="translate(226.357 308.045) scale(0.0120518) rotate(-50.3369)"/>
<use xlink:href="#stroke0_708_4283" transform="translate(232.415 307.243) scale(0.0135761) rotate(163.608)"/>
<use xlink:href="#stroke0_708_4283" transform="translate(227.833 305.324) scale(0.0132131) rotate(-79.4106)"/>
<use xlink:href="#stroke0_708_4283" transform="translate(229.002 299.779) scale(0.0133385) rotate(-8.96711)"/>
<use xlink:href="#stroke0_708_4283" transform="translate(236.496 295.304) scale(0.0235122) rotate(97.3996)"/>
<use xlink:href="#stroke0_708_4283" transform="translate(239.185 298.505) scale(0.0286257) rotate(170.233)"/>
<use xlink:href="#stroke0_708_4283" transform="translate(236.545 288.56) scale(0.0136033) rotate(78.206)"/>
<use xlink:href="#stroke0_708_4283" transform="translate(236.155 292.31) scale(0.0138903) rotate(-144.545)"/>
<use xlink:href="#stroke0_708_4283" transform="translate(237.256 283.562) scale(0.0144585) rotate(61.9302)"/>
<use xlink:href="#stroke0_708_4283" transform="translate(238.418 281.718) scale(0.0138816) rotate(74.6157)"/>
<use xlink:href="#stroke0_708_4283" transform="translate(236.421 286.146) scale(0.0189688) rotate(-121.814)"/>
<use xlink:href="#stroke0_708_4283" transform="translate(235.635 277.548) scale(0.0132625) rotate(-12.4261)"/>
<use xlink:href="#stroke0_708_4283" transform="translate(238.439 282.509) scale(0.0293094) rotate(-138.451)"/>
<defs>
<g id="stroke0_708_4283" data-figma-scatter-ref="stroke0_708_4283_ref" data-figma-scatter="f0.51_w0.06_aj180_sj0.65_r0_s17624024489151041039_sw6">
<path d="M215.823 333.963C215.823 333.23 216.123 332.93 216.49 333.296C216.856 333.663 216.856 334.263 216.49 334.63C216.123 334.996 215.823 334.696 215.823 333.963ZM143.424 3.97701C148.056 3.32404 151.523 8.80284 148.726 12.3588C146.775 14.8388 146.175 17.9633 147.648 17.9633C148.553 17.9667 158.823 30.3033 158.823 31.3862C158.823 32.4623 154.479 36.4974 152.507 37.2544C150.609 37.9824 151.073 39.9631 153.14 39.9633C153.801 39.9633 154.92 40.8881 155.626 42.02C156.91 44.0739 156.912 44.0744 158.617 42.0766C159.555 40.9766 161.223 39.938 162.323 39.77C163.423 39.601 164.653 39.0132 165.057 38.4633C165.472 37.8983 165.798 38.2253 165.807 39.2133C165.825 41.3531 166.254 41.3818 169.215 39.4419C170.838 38.3789 171.405 37.2303 171.099 35.6313C170.05 30.1434 175.963 30.1199 185.501 35.5737C190.79 38.5976 191.028 38.5792 193.164 34.9633C196.187 29.8454 203.13 33.2701 201.316 38.9838C200.801 40.6068 201.133 41.2309 202.733 41.6499C203.883 41.9499 204.823 42.5946 204.823 43.0805C204.824 43.5654 205.723 43.9633 206.823 43.9633C209.228 43.9633 209.333 43.3299 207.269 41.2661C205.332 39.3301 205.758 35.0191 208.025 33.5991C210.469 32.0694 211.11 33.2632 210.001 37.2797C209.157 40.3355 209.276 40.8478 210.928 41.2797C211.97 41.5527 212.823 42.4936 212.823 43.3696C212.824 45.4861 216.745 45.4516 218.302 43.3227C219.936 41.0879 223.264 42.9574 223.298 46.1294C223.32 48.1552 223.883 48.504 227.573 48.77C231.476 49.053 231.823 48.8831 231.823 46.6811C231.823 45.0832 232.672 43.8975 234.37 43.1245C240.164 40.4845 243.457 43.0685 242.282 49.3315C241.655 52.6722 241.655 52.6725 249.407 53.3745C262.73 54.5825 271.108 62.5852 260.323 63.8012C258.673 63.9882 256.79 64.5797 256.14 65.1167C255.368 65.7556 253.636 65.7276 251.14 65.0346C246.476 63.7398 245.823 63.7172 245.823 64.8549C245.823 65.7449 249.37 66.9616 253.515 67.4936C257.329 67.9826 258.042 68.9656 257.379 72.8286C255.795 82.0527 255.841 81.9633 252.685 81.9633C250.953 81.9633 249.964 81.5443 250.323 80.9633C250.663 80.4133 250.517 79.9633 249.999 79.9633C249.48 79.9633 248.821 79.0632 248.533 77.9633C248.217 76.7553 247.169 75.9633 245.885 75.9633C244.716 75.9632 243.46 75.1762 243.092 74.2133C242.404 72.4103 242.246 72.1833 238.753 67.9633C236.684 65.4633 236.684 65.4633 237.262 68.1733C237.705 70.252 237.359 71.1408 235.772 71.9897C232.719 73.6237 233.414 78.5898 236.633 78.1401C237.903 77.9621 239.585 78.3504 240.37 79.0024C241.211 79.7003 242.9 79.9101 244.485 79.5122C246.95 78.8932 247.055 78.9823 245.748 80.5922C244.844 81.7052 244.78 82.0721 245.573 81.5962C246.78 80.8713 247.26 82.2792 247.055 85.9321C247.01 86.7401 248.281 89.181 249.881 91.3569C252.292 94.6349 252.689 95.9524 252.194 99.0434C251.695 102.167 251.943 102.958 253.722 103.911C255.46 104.841 255.656 105.407 254.789 107.026C254.207 108.114 254.046 109.515 254.431 110.14C255.79 112.339 247.804 110.139 243.089 107.016C234.391 101.254 232.358 104.203 234.165 119.963C234.386 121.888 234.142 123.998 233.622 124.653C231.331 127.54 233.14 131.457 236.823 131.585C238.748 131.652 240.773 131.816 241.323 131.95C241.873 132.084 243.093 132.116 244.034 132.022C246.328 131.792 249.862 133.758 249.563 135.098C249.134 137.018 257.14 136.437 263.279 134.102C266.554 132.856 270.042 132.048 271.029 132.307C272.126 132.594 272.823 132.23 272.823 131.37C272.823 130.597 271.923 129.963 270.823 129.963C268.355 129.963 268.291 128.842 270.596 125.996C272.37 123.806 272.37 123.805 274.251 125.884C277.35 129.307 282.41 126.734 280.041 122.94C279.048 121.351 279.46 120.899 283.362 119.295C285.811 118.288 287.817 117.126 287.819 116.713C287.821 116.301 288.262 115.963 288.798 115.963C290.086 115.963 288.981 121.818 287.134 124.78C286.042 126.531 285.967 127.431 286.825 128.466C288.108 130.011 286.599 133.834 284.133 135.288C283.329 135.762 282.984 136.896 283.321 137.957C283.727 139.236 283.296 139.996 281.916 140.434C280.723 140.812 280.144 141.636 280.471 142.488C281.07 144.051 279.303 146.204 276.573 147.238C275.611 147.602 274.823 148.857 274.823 150.027C274.823 152.253 271.493 157.622 268.86 159.642C267.494 160.689 267.518 160.896 269.075 161.499C270.259 161.958 271.465 161.413 272.792 159.821C274.896 157.295 275.458 157.908 273.83 160.952C272.986 162.526 273.289 162.906 275.83 163.464C279.699 164.314 279.894 168.296 276.323 173.558C272.999 178.456 273.141 179.594 277.811 185.463C279.999 188.213 283.258 192.592 285.055 195.195C287.985 199.439 291.823 201.575 291.823 198.963C291.823 198.413 292.858 197.963 294.123 197.963C295.388 197.963 296.869 197.517 297.413 196.973C298.033 196.353 299.563 196.316 301.501 196.872C303.893 197.558 304.97 197.388 306.229 196.128C311.032 191.326 313.154 199.168 308.775 205.533C305.051 210.945 307.295 210.388 312.57 204.592C314.356 202.629 316.421 201.256 317.16 201.54C317.898 201.822 319.08 201.359 319.785 200.509C321.719 198.179 324.72 198.643 326.009 201.472C327.592 204.947 325.832 207.908 318.196 214.612C312.035 220.021 312.035 220.021 314.929 222.915C319.416 227.402 318.437 230.291 311.993 231.58C309.623 232.053 308.701 231.81 308.231 230.585C307.343 228.271 305.535 228.576 302.783 231.505C300.746 233.674 300.577 234.339 301.632 236.028C303.496 239.014 301.66 241.738 298.126 241.228C293.529 240.565 288.418 246.501 289.907 250.775C290.518 252.528 291.537 253.977 292.171 253.994C292.805 254.011 292.532 254.484 291.565 255.048C290.598 255.611 289.399 255.819 288.9 255.511C288.402 255.203 287.764 255.415 287.483 255.982C287.203 256.549 287.108 256.439 287.273 255.738C287.438 255.037 288.155 254.601 288.867 254.769C289.918 255.018 289.921 254.787 288.886 253.54C288.066 252.551 286.49 252.15 284.467 252.416C282.738 252.642 279.973 252.894 278.323 252.974C276.673 253.055 275.886 253.348 276.573 253.625C277.261 253.904 277.823 254.712 277.823 255.424C277.823 256.136 278.498 257.278 279.323 257.963C284.43 262.201 279.156 267.527 267.467 269.94C261.662 271.138 261.616 271.176 262.217 274.181C262.55 275.849 262.823 278.291 262.823 279.609C262.823 281.174 263.663 282.389 265.244 283.109C266.671 283.759 267.448 284.778 267.136 285.59C265.821 289.017 267.765 292.135 270.801 291.468C274.766 290.597 278.421 292.537 276.707 294.602C276.023 295.427 274.625 295.883 273.602 295.615C272.138 295.233 271.87 295.538 272.348 297.046C272.893 298.763 272.429 298.963 267.889 298.963C262.743 298.963 261.095 297.073 265.249 295.935C268.036 295.172 268.4 292.927 265.844 292.258C264.392 291.879 264.055 291.437 264.845 290.949C266.469 289.946 265.098 283.964 263.244 283.963C262.462 283.963 261.823 283.571 261.823 283.091C261.823 282.611 259.972 281.923 257.709 281.561C255.433 281.197 252.864 280.005 251.959 278.892C250.396 276.971 250.314 277.128 250.111 282.423C249.912 287.635 250.039 287.963 252.254 287.963C257.861 287.963 255.961 295.527 250.118 296.465C248.031 296.8 244.838 297.728 243.022 298.527C240.536 299.621 239.219 299.71 237.687 298.89C235.32 297.624 234.327 298.227 235.168 300.42C235.494 301.269 236.844 301.963 238.169 301.963C242.073 301.963 243.244 304.249 241.284 308.04C239.619 311.258 239.618 311.258 228.221 310.647C216.823 310.036 216.823 310.036 216.823 313.065C216.823 321.686 206.244 322.014 203.987 313.463C202.962 309.577 196.547 308.889 196.016 312.607C195.599 315.535 190.787 316.541 190.083 313.848C189.539 311.771 188.717 311.487 187.273 312.878C186.751 313.382 185.198 313.944 183.823 314.128C182.113 314.357 181.221 315.181 181 316.737C180.739 318.581 180.17 318.937 178 318.615C176.528 318.397 175.418 317.764 175.533 317.21C175.649 316.655 174.861 315.403 173.783 314.427C171.902 312.724 171.821 312.729 171.781 314.558C171.757 315.606 170.365 317.588 168.686 318.963C167.007 320.338 164.438 322.475 162.978 323.712C158.062 327.876 154.556 326.427 153.301 319.713C152.916 317.652 152.42 315.964 152.199 315.963C151.978 315.963 148.55 316.863 144.58 317.963C130.056 321.988 115.58 315.43 128.81 310.818C130.467 310.24 131.823 309.373 131.823 308.89C131.823 308.407 130.668 308.452 129.257 308.988C127.134 309.795 126.098 309.512 123.257 307.345C120.118 304.951 118.274 301.888 120.978 303.558C121.694 304.001 121.861 303.833 121.417 303.115C120.368 301.418 116.504 303.691 117.229 305.579C118.04 307.692 114.948 308.516 113.522 306.566C111.691 304.062 106.546 306.574 107.286 309.61C108.627 315.112 101.84 317.769 99.8455 312.524C98.8953 310.026 94.4089 310.708 90.3231 313.97C88.4581 315.459 83.5201 315.529 83.0311 314.074C82.7723 313.306 83.018 312.966 83.5799 313.313C84.1398 313.659 84.5764 313.384 84.5526 312.703C84.3916 308.249 84.9971 307.097 88.0731 306.006C91.7409 304.706 90.1749 302.466 84.8231 301.359C83.4482 301.075 81.5171 300.405 80.5321 299.87C79.5471 299.334 78.3755 299.121 77.9295 299.397C77.4824 299.673 76.2634 299.261 75.2196 298.481C73.4269 297.14 73.453 297.096 75.7069 297.665C77.4798 298.113 77.9663 297.907 77.6033 296.865C77.3352 296.094 76.3745 295.595 75.4686 295.757C74.5637 295.918 73.8231 295.644 73.8231 295.147C73.8225 293.779 67.1263 286.964 65.7821 286.963C64.5191 286.963 65.3358 292.016 66.7508 292.954C68.0246 293.798 67.6327 300.104 66.3377 299.607C65.6809 299.355 65.2149 300.076 65.2537 301.283C65.3377 303.874 62.3307 304.729 61.4256 302.372C61.0686 301.443 61.4731 299.62 62.3231 298.322C63.7468 296.15 63.7284 295.96 62.0955 295.928C61.1204 295.908 59.1988 295.27 57.826 294.51C56.13 293.571 54.9418 293.449 54.1238 294.128C52.5208 295.458 48.5416 294.139 49.1746 292.487C49.7193 291.067 47.2348 286.963 45.8309 286.963C44.5728 286.963 35.8231 278.847 35.8231 277.681C35.8231 277.1 37.4871 276.973 39.9481 277.367C43.78 277.98 44.0342 277.878 43.5272 275.938C43.0782 274.221 43.2342 274.059 44.4022 275.028C46.6741 276.914 46.0406 274.471 43.7127 272.369C42.5527 271.321 40.7375 268.625 39.6795 266.377C37.9885 262.785 29.7573 256.441 24.5213 254.696C21.1893 253.585 27.5839 242.826 31.0379 243.73C32.8048 244.192 33.0357 243.965 32.4178 242.374C31.1828 239.197 31.2554 238.448 32.7684 238.778C35.0593 239.276 38.8227 236.801 38.8231 234.794C38.8231 233.715 39.5439 232.963 40.5779 232.963C43.0149 232.963 45.0996 226.438 43.1737 224.839C42.4307 224.223 41.8231 222.9 41.8231 221.9C41.823 220.899 41.3729 219.803 40.8231 219.463C40.2731 219.123 39.8231 217.945 39.8231 216.845C39.8231 215.745 39.4205 215.093 38.9295 215.397C38.4384 215.7 37.0855 214.04 35.9237 211.706C34.7617 209.372 33.2645 206.563 32.5965 205.463C31.9285 204.363 30.3573 201.785 29.1033 199.734C26.2513 195.07 26.2154 191.993 28.9774 189.028C30.8989 186.965 30.957 186.618 29.5194 185.813C28.6324 185.316 28.1605 184.245 28.4735 183.431C28.8615 182.419 27.9015 181.476 25.4315 180.444C23.4467 179.615 21.786 178.38 21.741 177.7C21.499 174.063 20.5431 170.143 19.2762 167.585C18.4912 166.003 18.1172 163.64 18.4442 162.335C18.8492 160.724 18.6035 159.943 17.6805 159.9C16.9341 159.865 17.347 159.425 18.5975 158.923C21.2044 157.876 20.8038 153.423 17.911 151.294C13.1591 147.798 12.87 147.403 13.4549 145.213C13.7859 143.975 14.834 142.963 15.785 142.963C16.735 142.963 18.3281 142.063 19.3231 140.963C20.3181 139.863 21.5542 138.963 22.0682 138.963C22.5823 138.963 23.847 137.951 24.8787 136.713C26.4927 134.779 26.7609 134.71 26.7899 136.223C26.8079 137.191 25.9229 138.753 24.8231 139.695C22.2852 141.868 22.305 142.594 24.9237 143.279C26.0795 143.582 26.7278 144.308 26.3651 144.896C26.0023 145.483 25.92 145.963 26.1815 145.963C26.4445 145.963 27.4328 146.261 28.3778 146.623C29.5896 147.087 29.9501 146.866 29.6024 145.873C29.0314 144.244 32.5938 138.703 33.7518 139.419C34.1787 139.683 35.3646 139.287 36.3875 138.54C38.4045 137.065 37.003 133.964 34.3192 133.963C32.9872 133.963 30.2179 125.51 30.7147 122.963C30.8767 122.138 30.9536 119.741 30.8856 117.637C30.7766 114.238 31.1058 113.683 33.8338 112.653C35.9678 111.847 36.8578 110.879 36.7528 109.478C36.4928 106.022 36.7888 104.824 37.7537 105.42C38.2657 105.737 38.9407 105.581 39.2547 105.073C39.5679 104.566 40.6568 104.368 41.6746 104.635C44.2356 105.304 47.2646 102.201 45.7879 100.421C44.9809 99.4493 44.9929 98.5137 45.8309 96.9487C46.4608 95.7707 46.7305 94.1671 46.4305 93.3852C46.0505 92.3923 46.6314 91.9633 48.3543 91.9633C49.712 91.9632 50.8228 91.5132 50.8231 90.9633C50.8231 90.4135 50.3871 89.9636 49.8543 89.9633C49.3224 89.9633 49.1449 89.2882 49.4608 88.4633C49.7917 87.6015 49.481 86.9636 48.7303 86.9633C47.7133 86.9633 47.6899 86.6961 48.6229 85.7631C49.2829 85.1031 49.8231 83.8148 49.8231 82.9008C49.8233 81.6241 51.1422 81.0827 55.5067 80.5698C58.6325 80.2028 61.7825 79.411 62.5067 78.81C64.2735 77.3441 64.1799 74.9637 62.3543 74.9633C61.4603 74.9633 61.1108 75.5493 61.4608 76.4633C61.8237 77.4082 61.4499 77.9633 60.45 77.9633C58.464 77.9633 58.8759 72.1768 60.9559 70.8598C64.4336 68.656 58.1944 70.1802 53.6815 72.6362C50.1078 74.581 48.4698 75.0103 47.6688 74.2094C46.9258 73.4665 45.7561 73.4182 44.0643 74.061C39.8403 75.667 37.8231 74.3507 37.8231 69.9907C37.8233 65.514 41.1635 63.0775 53.0731 58.8667C60.4397 56.2628 60.5863 56.0654 58.1824 51.9956C56.1924 48.6276 56.994 44.361 59.7821 43.476C62.4579 42.6272 68.8174 43.9249 68.8377 45.3237C68.8797 48.4517 70.4558 49.1528 74.6307 47.9028C79.0287 46.5848 80.5395 44.5322 78.7215 42.3422C77.8406 41.2803 78.116 40.538 79.9549 39.018C81.9907 37.3362 82.4786 37.2654 83.4324 38.5122C85.3604 41.0312 100.442 37.019 99.3865 34.269C98.521 32.0121 103.808 29.185 104.979 31.2778C106.381 33.7828 109.101 33.326 112.231 30.059C115.014 27.1544 115.014 27.1541 112.856 24.9965C109.082 21.2226 112.1 14.3884 117.416 14.6713C123.005 14.9683 123.68 15.1663 123.238 16.3803C123.021 16.9763 123.233 18.0729 123.708 18.8178C124.754 20.4597 129.376 17.8723 130.306 15.1245C130.615 14.2105 133.671 11.332 137.096 8.72701C140.516 6.12608 143.361 3.99002 143.424 3.97701ZM208.763 322.963C209.345 322.963 209.823 323.413 209.823 323.963C209.823 324.513 209.625 324.963 209.382 324.963C209.139 324.963 208.663 324.513 208.323 323.963C207.983 323.413 208.182 322.964 208.763 322.963ZM116.823 315.345C116.823 314.52 117.273 314.123 117.823 314.463C118.373 314.803 118.823 315.757 118.823 316.582C118.823 317.406 118.373 317.803 117.823 317.463C117.273 317.123 116.823 316.17 116.823 315.345ZM202.323 313.963C202.598 313.963 202.823 314.188 202.823 314.463C202.823 314.738 202.598 314.963 202.323 314.963C202.048 314.963 201.823 314.738 201.823 314.463C201.823 314.188 202.048 313.963 202.323 313.963ZM74.7635 305.963C75.3455 305.963 75.8231 306.413 75.8231 306.963C75.823 307.513 75.6246 307.963 75.3817 307.963C75.1386 307.963 74.6629 307.513 74.3231 306.963C73.9831 306.413 74.1818 305.964 74.7635 305.963ZM71.8231 304.963C72.373 304.963 72.8231 305.413 72.8231 305.963C72.823 306.513 72.3729 306.963 71.8231 306.963C71.2731 306.963 70.8232 306.513 70.8231 305.963C70.8231 305.413 71.2731 304.963 71.8231 304.963ZM131.823 306.07C131.823 304.426 129.038 304.086 127.17 305.5C125.465 306.792 125.573 306.902 128.573 306.931C130.36 306.949 131.823 306.561 131.823 306.07ZM86.8231 303.963C87.5559 303.963 87.856 304.263 87.4901 304.63C87.1231 304.996 86.5231 304.996 86.1561 304.63C85.7901 304.263 86.0901 303.963 86.8231 303.963ZM77.2401 304.042C78.294 303.999 78.8836 304.235 78.5516 304.567C78.2196 304.899 77.3566 304.935 76.6356 304.646C75.838 304.327 76.0752 304.09 77.2401 304.042ZM78.8231 300.963C79.373 300.963 79.8231 301.413 79.8231 301.963C79.823 302.513 79.3729 302.963 78.8231 302.963C78.2731 302.963 77.8232 302.513 77.8231 301.963C77.8231 301.413 78.2731 300.963 78.8231 300.963ZM70.3231 299.963C71.148 299.963 71.8231 300.624 71.8231 301.432C71.8231 302.326 71.2371 302.675 70.3231 302.325C69.4981 302.008 68.8231 301.347 68.8231 300.856C68.8233 300.365 69.4982 299.963 70.3231 299.963ZM69.8231 291.963C70.3727 291.963 70.8226 292.161 70.8231 292.404C70.8231 292.647 70.3731 293.123 69.8231 293.463C69.2731 293.803 68.8231 293.604 68.8231 293.022C68.8232 292.44 69.2731 291.963 69.8231 291.963ZM270.323 285.963C271.148 285.963 271.823 286.133 271.823 286.341C271.823 286.548 271.148 287.279 270.323 287.963C269.094 288.983 268.823 288.914 268.823 287.585C268.823 286.693 269.498 285.963 270.323 285.963ZM275.323 284.963C275.598 284.963 275.823 285.188 275.823 285.463C275.823 285.738 275.598 285.963 275.323 285.963C275.048 285.963 274.823 285.738 274.823 285.463C274.823 285.188 275.048 284.963 275.323 284.963ZM273.515 281.322C274.055 279.913 274.222 279.924 275.064 281.429C276.122 283.319 275.489 284.493 273.932 283.531C273.371 283.182 273.183 282.189 273.515 281.322ZM269.981 280.963C269.981 279.588 270.208 279.026 270.485 279.713C270.763 280.401 270.763 281.526 270.485 282.213C270.208 282.901 269.981 282.338 269.981 280.963ZM272.323 279.963C272.598 279.963 272.823 280.188 272.823 280.463C272.823 280.738 272.598 280.963 272.323 280.963C272.048 280.963 271.823 280.738 271.823 280.463C271.823 280.188 272.048 279.963 272.323 279.963ZM266.479 278.508C266.109 277.545 266.407 277.251 267.374 277.622C269.054 278.267 269.168 278.632 267.928 279.398C267.435 279.703 266.783 279.302 266.479 278.508ZM273.323 277.963C273.598 277.963 273.823 278.188 273.823 278.463C273.823 278.738 273.598 278.963 273.323 278.963C273.048 278.963 272.823 278.738 272.823 278.463C272.823 278.188 273.048 277.963 273.323 277.963ZM312.823 274.963C312.823 274.23 313.123 273.93 313.49 274.296C313.856 274.663 313.856 275.263 313.49 275.63C313.123 275.996 312.823 275.696 312.823 274.963ZM306.823 264.522C306.823 262.765 307.423 262.507 308.28 263.894C308.597 264.406 308.398 265.108 307.839 265.454C307.28 265.798 306.823 265.379 306.823 264.522ZM39.241 257.57C36.868 256.659 36.5506 256.812 37.2156 258.545C37.5496 259.415 37.8231 260.315 37.8231 260.545C37.8235 260.775 38.4984 260.963 39.3231 260.963C41.3139 260.963 41.251 258.341 39.241 257.57ZM294.721 251.963C296.379 251.963 302.87 258.076 302.261 259.064C300.769 261.477 295.519 258.26 294.343 254.213C293.964 252.911 294.123 251.964 294.721 251.963ZM274.323 255.963C274.048 255.963 273.823 256.188 273.823 256.463C273.823 256.738 274.048 256.963 274.323 256.963C274.598 256.963 274.823 256.738 274.823 256.463C274.823 256.188 274.598 255.963 274.323 255.963ZM268.323 252.963C268.048 252.963 267.823 253.188 267.823 253.463C267.823 253.738 268.048 253.963 268.323 253.963C268.598 253.963 268.823 253.738 268.823 253.463C268.823 253.188 268.598 252.963 268.323 252.963ZM266.646 249.296C266.257 247.287 264.26 246.448 263.356 247.911C262.476 249.334 263.598 250.963 265.455 250.963C266.331 250.963 266.833 250.26 266.646 249.296ZM269.323 249.963C269.048 249.963 268.823 250.188 268.823 250.463C268.823 250.738 269.048 250.963 269.323 250.963C269.598 250.963 269.823 250.738 269.823 250.463C269.823 250.188 269.598 249.963 269.323 249.963ZM24.3231 232.963C24.598 232.963 24.8231 233.188 24.8231 233.463C24.823 233.738 24.5979 233.963 24.3231 233.963C24.0481 233.963 23.8232 233.738 23.8231 233.463C23.8231 233.188 24.0481 232.963 24.3231 232.963ZM26.3231 232.963C26.598 232.963 26.8231 233.188 26.8231 233.463C26.823 233.738 26.5979 233.963 26.3231 233.963C26.0481 233.963 25.8232 233.738 25.8231 233.463C25.8231 233.188 26.0481 232.963 26.3231 232.963ZM30.3231 182.963C30.0481 182.963 29.8231 183.188 29.8231 183.463C29.8232 183.738 30.0481 183.963 30.3231 183.963C30.5979 183.963 30.823 183.738 30.8231 183.463C30.8231 183.188 30.598 182.963 30.3231 182.963ZM25.8231 182.963C26.5559 182.963 26.856 183.263 26.4901 183.63C26.1231 183.996 25.5231 183.996 25.1561 183.63C24.7901 183.263 25.0901 182.963 25.8231 182.963ZM24.5418 168.045C24.7068 165.852 23.3077 164.369 22.4237 165.799C22.1289 166.277 22.4496 167.439 23.1375 168.378C24.2905 169.956 24.3998 169.93 24.5418 168.045ZM26.3231 165.963C26.0481 165.963 25.8231 166.188 25.8231 166.463C25.8232 166.738 26.0481 166.963 26.3231 166.963C26.5979 166.963 26.823 166.738 26.8231 166.463C26.8231 166.188 26.598 165.963 26.3231 165.963ZM278.023 154.164C281.374 150.813 285.386 154.145 284.39 159.453C283.619 163.564 281.534 164.032 278.766 160.713C276.583 158.097 276.33 155.857 278.023 154.164ZM0.823065 156.963C1.55594 156.963 1.85603 157.263 1.49006 157.63C1.12312 157.996 0.523086 157.996 0.156073 157.63C-0.209927 157.263 0.0900652 156.963 0.823065 156.963ZM286.917 147.963C287.415 147.963 287.823 148.863 287.823 149.963C287.823 151.063 287.65 151.962 287.44 151.963C287.229 151.963 286.821 151.063 286.533 149.963C286.246 148.863 286.418 147.963 286.917 147.963ZM285.323 145.963C285.598 145.963 285.823 146.188 285.823 146.463C285.823 146.738 285.598 146.963 285.323 146.963C285.048 146.963 284.823 146.738 284.823 146.463C284.823 146.188 285.048 145.963 285.323 145.963ZM293.205 142.963C293.48 142.963 293.983 143.413 294.323 143.963C294.663 144.513 294.716 144.963 294.441 144.963C294.166 144.963 293.663 144.513 293.323 143.963C292.983 143.413 292.93 142.963 293.205 142.963ZM18.6795 133.08C18.8755 133.016 18.7986 133.583 18.5076 134.341C18.2168 135.099 18.5072 136.25 19.1512 136.898C20.0502 137.802 19.7528 137.866 17.8738 137.174C14.8158 136.047 14.1344 134.282 16.5184 133.664C17.5105 133.407 18.4825 133.144 18.6795 133.08ZM27.4901 131.63C28.6061 130.513 29.4901 130.881 29.4901 132.463C29.49 133.288 28.8899 133.963 28.1561 133.963C26.7371 133.963 26.3861 132.734 27.4901 131.63ZM293.763 131.963C294.345 131.963 294.823 132.413 294.823 132.963C294.823 133.513 294.625 133.963 294.382 133.963C294.139 133.963 293.663 133.513 293.323 132.963C292.983 132.413 293.182 131.964 293.763 131.963ZM296.323 132.963C296.598 132.963 296.823 133.188 296.823 133.463C296.823 133.738 296.598 133.963 296.323 133.963C296.048 133.963 295.823 133.738 295.823 133.463C295.823 133.188 296.048 132.963 296.323 132.963ZM20.8231 128.963C21.373 128.963 21.8231 129.638 21.8231 130.463C21.823 131.288 21.3729 131.963 20.8231 131.963C20.2731 131.963 19.8231 131.288 19.8231 130.463C19.8231 129.638 20.2731 128.963 20.8231 128.963ZM302.823 129.091C306.081 127.786 307.823 127.729 307.823 128.928C307.823 130.677 303.932 132.124 302.06 131.07C300.503 130.194 300.582 129.989 302.823 129.091ZM14.3885 125.861C17.5155 124.636 18.4666 124.918 16.4256 126.463C15.3817 127.253 14.062 127.611 13.492 127.258C12.8941 126.889 13.2737 126.298 14.3885 125.861ZM290.882 124.963C291.4 124.963 291.823 125.413 291.823 125.963C291.823 126.513 291.12 126.963 290.263 126.963C289.407 126.963 288.983 126.513 289.323 125.963C289.663 125.413 290.364 124.963 290.882 124.963ZM253.323 104.963C253.048 104.963 252.823 105.188 252.823 105.463C252.823 105.738 253.048 105.963 253.323 105.963C253.598 105.963 253.823 105.738 253.823 105.463C253.823 105.188 253.598 104.963 253.323 104.963ZM38.3231 101.963C38.598 101.963 38.8231 102.188 38.8231 102.463C38.823 102.738 38.5979 102.963 38.3231 102.963C38.0481 102.963 37.8232 102.738 37.8231 102.463C37.8231 102.188 38.0481 101.963 38.3231 101.963ZM43.3231 100.963C43.598 100.963 43.8231 101.188 43.8231 101.463C43.823 101.738 43.5979 101.963 43.3231 101.963C43.0481 101.963 42.8232 101.738 42.8231 101.463C42.8231 101.188 43.0481 100.963 43.3231 100.963ZM32.0731 95.9458C33.86 94.8529 35.9221 94.1854 36.6551 94.4614C37.3872 94.7374 38.7372 94.9995 39.6551 95.0424C40.6539 95.0895 40.8314 95.3207 40.0975 95.6176C39.4238 95.8904 38.6452 95.9673 38.367 95.7885C38.089 95.6095 37.152 96.4753 36.286 97.7133C35.258 99.1803 33.6844 99.9633 31.7654 99.9633C27.9139 99.9632 28.0332 98.4167 32.0731 95.9458ZM260.323 98.9633C260.598 98.9634 260.823 99.1884 260.823 99.4633C260.823 99.7382 260.598 99.9632 260.323 99.9633C260.048 99.9633 259.823 99.7383 259.823 99.4633C259.823 99.1883 260.048 98.9633 260.323 98.9633ZM42.3231 97.9633C42.598 97.9634 42.8231 98.1884 42.8231 98.4633C42.823 98.7382 42.5979 98.9632 42.3231 98.9633C42.0481 98.9633 41.8232 98.7383 41.8231 98.4633C41.8231 98.1883 42.0481 97.9633 42.3231 97.9633ZM54.6434 89.7915C54.2964 87.4396 52.372 86.2652 51.411 87.8198C50.504 89.2878 51.8519 91.9633 53.4998 91.9633C54.4317 91.9633 54.8462 91.1762 54.6434 89.7915ZM239.323 74.9633C239.598 74.9634 239.823 75.1884 239.823 75.4633C239.823 75.7382 239.598 75.9632 239.323 75.9633C239.048 75.9633 238.823 75.7383 238.823 75.4633C238.823 75.1883 239.048 74.9633 239.323 74.9633ZM273.823 72.9594C273.823 72.4464 274.498 72.2376 275.323 72.4946C276.148 72.7526 277.573 73.2036 278.49 73.4965C279.664 73.8715 279.843 74.3424 279.097 75.0883C277.917 76.2677 273.824 74.6152 273.823 72.9594ZM69.8074 71.2133C69.8294 69.4163 68.1488 69.6726 67.4178 71.5766C67.0247 72.6002 66.0719 73.0001 64.8113 72.6704C63.7187 72.3845 62.8236 72.5091 62.8231 72.9477C62.8231 73.3867 64.0183 74.0465 65.4783 74.4135C68.145 75.0822 69.7744 73.878 69.8074 71.2133ZM244.382 68.9633C244.139 68.9636 243.663 69.4135 243.323 69.9633C242.983 70.5132 243.182 70.9631 243.763 70.9633C244.345 70.9633 244.823 70.5133 244.823 69.9633C244.823 69.4133 244.625 68.9633 244.382 68.9633ZM241.323 67.9633C241.048 67.9633 240.823 68.1883 240.823 68.4633C240.823 68.7383 241.048 68.9633 241.323 68.9633C241.598 68.9632 241.823 68.7382 241.823 68.4633C241.823 68.1884 241.598 67.9634 241.323 67.9633ZM144.24 46.0424C143.075 46.0904 142.838 46.327 143.636 46.646C144.357 46.935 145.22 46.8988 145.552 46.5669C145.884 46.2349 145.294 45.9995 144.24 46.0424ZM181.823 43.9633C181.09 43.9633 180.79 44.2633 181.156 44.6303C181.523 44.9962 182.123 44.9963 182.49 44.6303C182.856 44.2634 182.556 43.9634 181.823 43.9633ZM147.345 34.3335C146.209 33.8976 145.532 34.3585 145.147 35.8335C144.84 37.0054 143.967 37.9633 143.206 37.9633C142.446 37.9633 141.823 38.4133 141.823 38.9633C141.823 40.4821 144.417 40.1582 145.823 38.4633C146.508 37.6384 148.111 36.9635 149.386 36.9633C150.661 36.9633 151.983 36.5133 152.323 35.9633C152.663 35.4133 152.051 34.9633 150.964 34.9633C149.876 34.9633 148.247 34.6804 147.345 34.3335ZM138.947 36.6958C137.959 35.7159 137.845 35.8314 138.387 37.2563C138.763 38.2423 139.322 38.7967 139.63 38.4887C139.938 38.1817 139.631 37.3747 138.947 36.6958ZM160.323 29.9633C160.598 29.9634 160.823 30.1884 160.823 30.4633C160.823 30.7382 160.598 30.9632 160.323 30.9633C160.048 30.9633 159.823 30.7382 159.823 30.4633C159.823 30.1883 160.048 29.9633 160.323 29.9633ZM205.823 28.9633C206.556 28.9634 206.856 29.2634 206.49 29.6303C206.123 29.9963 205.523 29.9961 205.156 29.6303C204.79 29.2633 205.09 28.9633 205.823 28.9633ZM210.823 24.9633C211.373 24.9634 211.823 25.161 211.823 25.4038C211.823 25.6468 211.373 26.1233 210.823 26.4633C210.273 26.8033 209.823 26.6039 209.823 26.0219C209.823 25.44 210.273 24.9633 210.823 24.9633ZM176.323 24.9633C176.598 24.9634 176.823 25.1884 176.823 25.4633C176.823 25.7382 176.598 25.9632 176.323 25.9633C176.048 25.9633 175.823 25.7382 175.823 25.4633C175.823 25.1883 176.048 24.9633 176.323 24.9633ZM172.823 18.9633C173.556 18.9634 173.856 19.2634 173.49 19.6303C173.123 19.9963 172.523 19.9961 172.156 19.6303C171.79 19.2633 172.09 18.9633 172.823 18.9633ZM173.823 15.9633C173.823 15.2303 174.123 14.9303 174.49 15.2963C174.856 15.6634 174.856 16.2634 174.49 16.6303C174.123 16.9963 173.823 16.6962 173.823 15.9633ZM208.823 13.9633C209.556 13.9634 209.856 14.2634 209.49 14.6303C209.123 14.9963 208.523 14.9962 208.156 14.6303C207.79 14.2633 208.09 13.9633 208.823 13.9633ZM177.323 12.9633C177.598 12.9634 177.823 13.1884 177.823 13.4633C177.823 13.7382 177.598 13.9632 177.323 13.9633C177.048 13.9633 176.823 13.7382 176.823 13.4633C176.823 13.1883 177.048 12.9633 177.323 12.9633ZM166.323 10.9633C166.598 10.9634 166.823 11.1884 166.823 11.4633C166.823 11.7382 166.598 11.9632 166.323 11.9633C166.048 11.9633 165.823 11.7382 165.823 11.4633C165.823 11.1883 166.048 10.9633 166.323 10.9633ZM175.823 10.9633C175.823 10.2303 176.123 9.93035 176.49 10.2963C176.856 10.6634 176.856 11.2634 176.49 11.6303C176.123 11.9963 175.823 11.6962 175.823 10.9633ZM171.323 9.96334C171.598 9.96343 171.823 10.1884 171.823 10.4633C171.823 10.7382 171.598 10.9632 171.323 10.9633C171.048 10.9633 170.823 10.7382 170.823 10.4633C170.823 10.1883 171.048 9.96334 171.323 9.96334ZM132.382 6.96334C132.625 6.96334 132.823 7.41334 132.823 7.96334C132.823 8.51325 132.345 8.96334 131.763 8.96334C131.182 8.96314 130.983 8.51318 131.323 7.96334C131.663 7.41353 132.139 6.96364 132.382 6.96334ZM122.823 7.96334C123.556 7.96339 123.856 8.26336 123.49 8.63033C123.123 8.99625 122.523 8.99614 122.156 8.63033C121.79 8.26333 122.09 7.96334 122.823 7.96334ZM167.204 2.311C170.133 -0.207938 172.823 -0.770742 172.823 1.13424C172.823 2.86018 169.742 5.96305 168.028 5.96334C167.212 5.96334 166.002 6.70389 165.34 7.60885C164.278 9.06077 164.156 8.98412 164.305 6.95846C164.398 5.69446 165.703 3.603 167.204 2.311Z" fill="#FF9500"/>
</g>
<path id="stroke0_708_4283_ref" d="M137.5 289.5C137.5 315.667 141.4 372.8 157 392C176.5 416 238.5 304.5 238.5 273.5"/>
</defs>
</svg>
