<svg width="369" height="537" viewBox="0 0 369 537" fill="none" xmlns="http://www.w3.org/2000/svg">
<path fill-rule="evenodd" clip-rule="evenodd" d="M346.364 364.505L24.0777 390.106L23.7402 392.297C18.3397 427.491 15.6119 451.367 15.5568 463.925L15.556 464.31C15.556 476.763 11.7355 496.568 4.09464 523.725L3.62204 525.397L346.814 525.995L350.862 444.252L346.364 364.505ZM155.562 189.099C142.458 189.747 129.251 195.368 128.231 198.961C125.959 206.962 122.306 241.213 110.291 246.475C98.2766 251.737 72.6269 246.94 65.2933 259.507C57.9598 272.073 33.876 323.3 33.876 335.236C33.876 343.194 112.362 345.956 269.335 343.523C267.331 279.428 258.976 245.736 244.271 242.445L242.959 242.155C221.693 237.507 208.983 237.357 201.729 229.864C194.327 222.218 192.983 209.094 189.912 198.961C188.22 193.377 171.643 188.305 155.562 189.099Z" fill="#FAFAFA"/>
<path fill-rule="evenodd" clip-rule="evenodd" d="M126.825 209.131C126.775 209.093 126.725 209.082 126.672 209.109C125.651 209.599 125.439 210.581 125.088 211.602C124.576 213.097 123.982 214.555 123.433 216.036C122.339 219.006 121.296 221.972 120.077 224.894C118.827 227.9 117.531 230.853 116.047 233.756C115.332 235.16 114.562 236.538 113.78 237.906C113.24 238.856 112.736 240.161 112.025 241.052C111.971 240.769 111.895 240.499 111.805 240.246C111.899 240.291 111.989 240.341 112.075 240.395C112.255 240.508 112.471 240.282 112.363 240.107C111.976 239.468 111.472 239.036 110.896 238.743C109.304 236.974 74.2047 245.416 64.6095 254.897C47.2315 272.069 35.5014 293.299 27.7869 315.885C23.5271 328.349 19.6046 340.933 15.5517 353.464C11.2694 366.715 6.79813 379.907 2.50681 393.149C1.56668 396.061 3.61789 398.708 6.20889 399.667C11.0355 401.449 15.8981 403.128 20.8012 404.681C18.4216 413.822 16.7572 423.157 15.5607 432.519C13.0912 451.824 12.7808 471.52 8.88937 490.622C7.99594 495.007 6.86548 499.329 5.67133 503.639L5.39471 504.634C4.68399 507.163 4.03577 509.716 3.16357 512.191C2.41235 514.32 1.44073 516.467 0.914459 518.663C0.298187 521.247 1.20685 524.069 3.62241 525.397C5.56113 526.464 8.33655 526.023 9.50607 524.02C9.74448 523.61 9.88846 523.164 9.94693 522.714C10.1223 522.341 10.2843 521.958 10.4282 521.567C10.4845 521.416 10.5339 521.259 10.5811 521.102L10.7206 520.635C11.0625 519.519 11.3773 518.393 11.6922 517.268C12.205 515.463 12.7211 513.664 13.2915 511.874L13.5815 510.98C14.9939 506.677 16.2579 502.338 17.36 497.945C21.304 482.194 22.1407 465.885 23.2234 449.742L23.2797 448.907C24.2603 434.441 24.8451 420.007 23.644 405.572L23.8083 405.625L23.9724 405.675C25.5329 406.153 27.0987 406.621 28.6686 407.075C28.7181 407.093 28.7631 407.111 28.8125 407.125C29.8171 407.436 30.8499 407.732 31.9003 408.007L32.5326 408.169L32.9779 408.29L33.4467 408.424C34.9343 408.856 36.451 409.352 37.9934 409.303C40.5484 409.713 43.1484 409.96 45.7034 409.969C44.9162 422.847 44.0076 435.715 42.9235 448.57C41.8349 461.492 40.391 474.365 38.8931 487.238C38.1554 493.598 37.3637 499.944 36.491 506.281C36.0502 509.495 35.5914 512.691 35.0066 515.877C34.4038 519.136 33.3378 522.62 33.981 525.915C33.9945 525.91 34.008 525.906 34.0215 525.906C34.2374 526.86 34.8132 527.715 35.8163 528.305C37.6561 529.38 40.2291 528.75 41.2862 526.869C41.3761 526.711 41.4616 526.549 41.5425 526.383C42.6262 526.846 43.8141 527.026 45.2716 527.04L65.0369 527.238C74.0198 527.328 83.0028 527.422 91.9903 527.553C120.207 527.969 148.424 528.449 176.641 528.791L187.223 528.912C203.092 529.079 218.971 529.407 234.841 529.403C242.78 529.403 250.711 529.376 258.65 529.182C262.496 529.088 266.333 528.939 270.175 528.782L270.853 528.751C273.92 528.599 277.176 528.315 280.174 529.002C281.002 530.614 283.116 530.947 284.223 529.299C286.751 525.53 287.441 520.271 287.909 515.664L288.073 514.005C288.59 508.842 289.045 503.68 289.382 498.508C290.579 480.185 291.015 461.843 290.466 443.484C290.187 434.126 289.328 424.823 288.311 415.519C287.992 412.616 287.659 409.717 287.299 406.823L287.293 405.794C287.293 405.465 287.295 405.151 287.304 404.856L287.394 402.064C287.468 399.736 287.537 397.407 287.566 395.078L287.578 393.68L287.592 391.079C289.814 390.867 292.184 390.129 294.101 389.773C297.209 389.193 300.308 388.567 303.399 387.906C309.588 386.573 315.71 384.998 321.792 383.256L323.085 382.884C328.697 381.266 334.386 379.541 339.695 377.121C341.773 376.172 343.847 375.1 345.669 373.696C345.776 375.172 345.943 376.644 346.042 378.107C346.239 381.001 346.474 383.886 346.667 386.78L346.852 389.534C347.156 394.122 347.43 398.706 347.553 403.308C348.102 423.382 348.197 443.542 347.135 463.603C346.609 473.645 345.857 483.686 344.773 493.688C344.243 498.607 343.68 503.54 342.988 508.442C342.272 513.478 340.981 518.483 340.586 523.556C340.208 528.449 347.684 529.16 348.912 524.686C350.382 519.321 350.757 513.534 351.532 508.018L351.62 507.407C352.479 501.546 353.167 495.663 353.761 489.772C355.811 469.45 356.343 449.024 355.268 428.626C354.757 418.856 353.545 409.125 352.078 399.458L351.908 398.343C351.24 394.014 350.615 389.685 349.859 385.375L349.569 383.76C348.889 380.056 348.367 376.027 347.265 372.323L347.593 372.021C348.205 371.45 348.869 370.789 349.353 370.077C351.017 369.852 352.434 368.655 352.258 366.481C351.687 359.338 349.078 352.073 346.753 345.331C344.418 338.552 341.71 331.9 338.642 325.418C327.851 302.639 312.31 281.957 293.305 265.389C283.224 256.599 272.176 248.803 259.968 243.253C253.949 240.512 247.724 238.392 241.201 237.249C237.972 236.682 234.71 236.241 231.427 236.146C228.763 234.572 225.6 235.235 223.02 236.96L222.88 237.055H222.875L222.214 237.186C222.052 237.217 222.057 237.474 222.214 237.51C222.223 237.51 222.237 237.514 222.246 237.519C221.823 237.852 221.423 238.208 221.049 238.59C219.817 239.85 219.821 241.372 220.456 242.6C216.682 246.102 214.297 250.599 211.801 255.131C209.124 259.983 205.62 264.178 201.356 267.716C185.725 280.688 162.734 286.427 143.149 280.301C128.745 275.8 116.443 263.616 113.042 248.947C113.847 249.235 114.72 249.28 115.548 248.983C119.434 247.596 120.916 243.346 122.403 239.792L122.475 239.621C123.928 236.178 125.147 232.68 126.109 229.071C127.081 225.425 127.652 221.576 127.891 217.814C127.983 216.326 127.942 214.838 127.865 213.35L127.797 212.12C127.745 211.005 127.761 209.866 126.825 209.131ZM190.065 199.099C190.011 198.963 189.8 198.891 189.719 199.054C186.278 206.156 188.536 215.887 191.788 222.661C195.193 229.746 200.321 235.12 206.398 239.769C207.235 240.409 208.095 241.039 208.967 241.655C214.037 245.238 218.553 235.579 212.7 233.734C206.601 230.632 201.644 225.105 198.198 219.299C196.336 216.162 194.685 212.894 193.421 209.464C192.161 206.044 191.406 202.483 190.065 199.099Z" fill="#343434"/>
<path fill-rule="evenodd" clip-rule="evenodd" d="M83.2766 65.04C84.2757 62.5172 86.0426 59.3462 88.9957 59.2198C91.2799 52.232 96.9594 45.1155 104.859 45.3045C128.047 21.5781 157.238 22.6966 187.759 27.7192C203.861 30.7074 220.211 36.5587 232.22 48.1055C246.604 61.6994 252.204 85.4191 240.941 102.609C250.675 107.829 250.864 120.215 246.701 129.154C251.706 132.616 252.01 141.021 246.375 143.662C246.674 144.89 246.462 146.159 245.891 147.25C248.685 149.577 252.321 151.296 255.328 152.774C256.656 153.427 257.423 154.493 257.741 155.696C267.612 162.175 292.226 178.01 291.932 190.614C292.077 197.189 287.203 201.516 281.28 203.239C284.804 210.289 287.479 218.523 284.105 226.128C283.173 228.426 276.186 235.179 275.834 235.304C275.22 235.831 265.196 231.226 260.325 228.878C259.38 235.026 252.809 238.248 247.146 236.141C241.775 234.521 238.474 229.972 235.087 225.833C230.591 235.647 217.363 235.76 208.813 231.529C201.135 227.98 195.299 221.475 192.048 213.637C174.783 222.094 154.583 224.559 135.825 221.181C134.621 223.312 131.957 224.744 129.583 223.92C119.608 220.919 108.58 220.751 100.125 213.877C82.5016 201.219 81.0176 177.884 82.2465 157.993C83.3364 138.161 82.3824 118.163 85.9854 98.5444C84.4219 92.7683 81.821 87.6619 79.4144 82.2355C76.8 76.5454 76.8549 68.0867 83.2766 65.04Z" fill="#FAFAFA"/>
<path fill-rule="evenodd" clip-rule="evenodd" d="M247.128 149.223C246.09 148.962 245.532 150.359 246.414 150.92C252.011 154.483 257.794 157.664 263.201 161.541C268.344 165.225 273.094 169.423 277.524 173.936L278.015 174.439C282.02 178.561 286.455 183.806 286.5 189.887C286.535 194.614 282.893 199.773 277.811 199.152C275.896 198.918 274.137 201.349 274.805 203.101L275.508 204.948C278.335 212.421 281.212 220.889 278.978 228.753L278.896 229.033C278.356 230.834 277.787 232.425 275.698 232.389C273.76 232.354 271.743 231.7 269.928 231.076C266.163 229.78 262.75 227.619 259.854 224.902C257.292 222.498 254.019 224.94 254.364 227.995L254.376 228.092C254.848 231.52 249.39 233.112 246.909 232.622C242.01 231.652 238.517 226.741 235.735 222.996C234.397 221.197 231.149 220.489 229.974 222.996C227.646 227.963 222.847 231.676 217.233 231.831C214.316 231.912 211.519 231.082 209.049 229.541C208.04 228.912 207.139 228.164 206.312 227.317L206.107 227.103C204.883 225.805 204.039 225.115 202.476 224.268C200.936 223.433 198.945 224.468 198.954 226.289C198.967 228.649 199.658 230.217 201.284 231.929C202.629 233.346 204.228 234.59 205.908 235.584C209.286 237.581 213.301 238.704 217.233 238.574C223.43 238.369 229.346 235.278 233.181 230.471C237.096 235.155 241.953 239.459 248.264 239.344C252.989 239.257 257.392 236.796 259.502 232.983C262.48 235.037 265.749 236.644 269.246 237.693L269.558 237.785C274.508 239.227 280.204 239.8 283.39 234.883C286.381 230.266 286.604 223.874 285.919 218.597C285.307 213.884 283.857 209.408 282.193 204.993C286.931 203.577 290.608 199.124 291.871 194.324C293.782 187.066 290.075 180.027 285.492 174.634C280.514 168.775 274.248 163.82 267.936 159.483C261.64 155.158 254.587 151.094 247.128 149.223ZM85.2503 92.4513C85.2386 92.2497 84.9085 92.179 84.8779 92.4004C82.7034 108.189 81.4444 123.946 80.4021 139.843C79.8736 147.896 79.2735 155.942 78.6168 163.985C77.9866 171.699 76.9376 179.617 77.1747 187.362C77.5457 199.49 83.4312 209.35 93.0818 216.447C102.329 223.247 113.8 226.609 125.055 228.03C131.592 228.855 138.219 228.894 144.762 228.119C148.161 227.717 151.555 227.181 154.884 226.376L156.323 226.016C158.945 225.346 161.872 224.437 162.245 221.33C162.427 219.825 161.628 218.715 160.338 217.96C158.656 216.975 156.727 217.555 154.994 218.004C152.073 218.76 149.122 219.409 146.137 219.858C139.725 220.823 133.135 220.88 126.69 220.212C115.851 219.088 104.416 215.57 96.0583 208.304C92.4259 205.147 89.2677 201.3 87.6065 196.73C85.4707 190.854 85.787 184.445 85.8585 178.292C86.0245 163.985 85.8783 149.679 86.0771 135.371C86.2768 121.02 86.1028 106.782 85.2503 92.4513ZM194.258 25.5917C181.592 22.3231 168.737 21.4738 155.726 22.4577C143.457 23.3849 129.479 26.1318 119.458 33.6831C118.972 34.0495 119.263 34.7431 119.865 34.6472C126.564 33.5787 133.095 31.6352 139.766 30.3492C146.182 29.1124 152.714 28.1838 159.247 27.9687C181.343 27.24 205.93 32.25 223.748 46.0342C232.103 52.4972 238.478 61.1877 241.016 71.5278C243.618 82.1334 242.21 93.6028 236.984 103.197C236.232 104.578 236.542 106.763 238.112 107.499C242.876 109.73 246.269 114.674 246.195 120.009C246.16 122.597 245.268 125.078 243.835 127.217C242.32 129.479 240.014 131.061 238.32 133.174C237.652 134.005 237.627 135.151 238.155 135.917C237.164 136.351 236.096 136.584 235.12 137.098C234.294 137.533 234.27 138.892 235.12 139.32C237.271 140.404 239.595 139.254 241.046 137.507C241.305 137.195 241.529 136.87 241.734 136.539C243.472 136.17 245.029 135.298 246.389 134.104C248.98 135.656 249.335 139.112 247.109 141.753C245.972 143.101 244.357 143.933 242.725 144.531L242.529 144.602C240.941 145.166 239.486 145.482 238.454 146.753C237.774 145.333 236.993 143.995 236.122 142.776C232.955 138.344 228.088 134.412 222.313 134.911C217.789 135.301 213.87 138.542 212.943 143.013C212.874 143.344 213.373 143.602 213.521 143.257C215.692 138.193 222.559 138.007 226.65 140.646C231.461 143.75 234.09 149.599 235.145 155.047C236.183 160.413 235.583 166.939 231.569 171.021C229.927 172.691 227.692 173.846 225.361 174.15C224.221 174.299 223.215 174.153 222.125 173.933L221.403 173.782C220.902 173.678 220.403 173.594 219.878 173.641L219.095 173.746L218.649 173.955C218.264 174.128 218.298 174.081 218.754 173.812C217.423 173.703 216.736 174.687 216.663 175.765C216.62 175.792 216.58 175.822 216.545 175.864C211.496 182.047 207.746 189.155 202.388 195.135L200.819 196.888C196.786 201.376 192.182 206.243 186.704 208.571L186.052 208.841C184.458 209.515 182.857 210.437 182.654 212.359C182.472 214.081 183.829 215.377 185.393 215.779C188.954 216.693 193.015 213.526 195.623 211.448C201.232 206.981 205.947 201.286 209.84 195.294L210.225 194.698C213.425 189.696 216.433 183.993 217.368 178.057L217.536 178.33C217.549 178.35 217.559 178.365 217.565 178.373C217.756 178.633 217.966 178.851 218.21 179.061C218.865 179.627 219.664 179.957 220.493 180.181C222.051 180.602 223.759 180.685 225.361 180.521C228.613 180.189 231.654 178.95 234.225 176.933C242.054 170.789 242.978 159.358 239.812 150.083C242.41 150.704 245.369 148.955 247.398 147.455C249.724 145.735 251.643 143.252 252.101 140.331C252.556 137.432 250.709 133.594 247.97 132.475C250.812 129.06 252.467 124.214 252.638 120.334C252.935 113.584 249.351 107.204 243.849 103.522C249.024 92.4263 250.02 79.5539 246.536 67.7731C239.623 44.3954 216.464 31.3223 194.258 25.5917ZM213.97 203.211L213.905 203.006C213.354 201.198 212.642 197.601 209.943 198.971C207.364 200.278 209.01 204.148 209.912 206.033C210.991 208.287 212.855 210.095 215.358 210.579C217.394 210.973 219.629 210.467 221.053 208.893C221.469 208.434 221.703 207.931 221.949 207.376C222.045 207.16 222.088 207.012 222.106 206.915C222.129 207.021 222.196 207.179 222.366 207.364C223.502 208.606 224.576 210.052 225.4 211.522C225.595 211.869 226.211 211.626 226.055 211.246C225.095 208.895 225.256 205.261 223.115 203.561C221.229 202.062 219.456 203.241 218.458 204.987L218.407 205.077C216.948 207.728 214.623 205.211 213.97 203.211ZM234.495 194.718L234.298 194.445C232.28 191.686 228.878 188.367 225.473 190.933C224.39 191.749 224.35 193.111 225.473 193.92L225.898 194.224C227.385 195.279 228.866 196.275 229.959 197.789C231.146 199.434 232.212 201.175 233.808 202.466C236.63 204.748 241.192 205.198 243.641 202.122L243.882 201.816C244.087 201.552 244.322 201.234 244.513 200.917L244.662 201.123C244.676 201.144 244.69 201.164 244.702 201.182L244.737 201.234C245.743 202.844 247.015 204.17 248.599 205.216C251.609 207.203 255.001 207.479 258.407 206.427C258.74 206.324 258.651 205.877 258.328 205.847C254.293 205.47 250.361 202.601 248.719 198.907L248.534 198.493C247.87 197.023 247.126 195.627 245.485 195.05C243.887 194.488 242.21 195.082 241.115 196.291C240.199 197.301 239.964 199.31 238.311 198.867C236.502 198.382 235.484 196.115 234.495 194.718ZM246.053 170.178C245.159 169.498 243.759 170.227 243.513 171.212C242.398 175.671 247.029 180.925 251.48 181.063C252.626 181.098 253.728 180.821 254.743 180.29C255.53 179.879 256.461 178.827 257.325 178.653C258.441 178.428 259.43 179.915 260.216 180.679C261.191 181.626 262.155 182.506 263.247 183.313C263.684 183.636 264.361 183.094 264.176 182.598L263.807 181.613C262.47 178.106 260.166 172.987 255.856 174.442C253.744 175.155 252.154 177.559 249.93 175.655C248.149 174.131 247.984 171.645 246.053 170.178ZM227.035 152.228C223.017 147.613 213.571 150.05 211.78 155.665C211.384 156.905 211.797 158.517 212.765 159.395C214.04 160.551 215.859 160.901 217.407 159.994C218.74 159.214 219.287 157.938 220.266 156.843C221.702 155.238 223.656 154.348 225.669 153.709C226.172 153.974 226.64 154.322 227.061 154.741C227.276 154.956 227.682 154.662 227.491 154.409C227.232 154.065 226.915 153.741 226.555 153.443L226.728 153.392C227.258 153.244 227.373 152.617 227.035 152.228ZM200.919 101.271C200.019 101.272 198.97 102.118 199.085 103.106L199.12 103.38C199.379 105.261 199.983 106.326 201.864 107.2C203.461 107.941 205.138 108.35 206.888 108.512C207.55 108.573 208.251 108.577 208.961 108.524L209.11 109.387C209.408 111.114 209.682 112.842 209.734 114.602C209.83 117.865 208.614 120.554 207.309 123.467C204.804 129.062 204.522 134.648 207.249 140.235C207.648 141.052 208.778 141.719 209.689 141.636C210.871 141.529 211.442 141.187 212.129 140.235C212.706 139.437 212.574 138.308 212.174 137.473L212.129 137.381C210.755 134.717 210.322 131.707 211.023 128.779C211.683 126.027 213.177 123.553 213.844 120.809C214.93 116.34 213.773 111.906 211.511 108.072C213.218 107.58 214.797 106.703 215.851 105.366L215.846 105.364C216.248 104.934 216.029 104.036 215.323 104.09L214.525 104.155C212.242 104.346 210.14 104.544 207.831 103.908C206.648 103.581 205.626 103.036 204.61 102.376L204.392 102.233C203.121 101.388 202.416 101.269 200.919 101.271ZM195.455 68.2366C189.732 67.9112 184.845 71.6906 182.47 76.7218C179.889 82.184 180.972 88.4513 183.249 93.8254L183.896 95.3295C185.029 97.9355 186.516 101.034 188.836 102.433C191.441 104.004 193.693 102.182 192.925 99.2866C192.467 97.5622 191.228 96.2322 190.225 94.809C189.289 93.4799 188.416 92.1044 187.651 90.6695C186.151 87.8554 185.031 84.7201 185.044 81.496C185.065 75.6114 188.95 68.8676 195.455 68.954C195.92 68.9594 195.912 68.2622 195.455 68.2366ZM166.508 58.7415C166.864 58.4705 166.545 57.8679 166.146 58.1222C159.509 62.3459 154.554 70.2798 153.556 78.0741C153.002 82.3986 153.425 87.0202 155.266 91.0113C156.321 93.3014 158.133 95.4875 160.667 96.1154C162.996 96.6919 165.397 95.361 166.119 93.0862C166.4 92.2036 165.917 91.2804 165.189 90.7984C162.828 89.2361 160.926 87.2646 159.814 84.6127C158.656 81.8554 158.195 78.9293 158.181 75.955C158.147 68.9898 160.925 62.9868 166.508 58.7415ZM85.4312 61.7603C85.7384 61.4196 85.352 60.9173 84.9454 61.1307C80.1471 63.6557 77.0982 68.4925 76.2247 73.7897C75.3686 78.9757 76.5202 86.0359 80.5322 89.7866C82.7961 91.9038 86.8517 89.088 84.9697 86.3609C83.6427 84.4376 82.2082 82.8537 81.4485 80.5812C80.771 78.5535 80.5313 76.5087 80.5681 74.3779C80.6487 69.7293 82.3085 65.2261 85.4312 61.7603ZM144.096 55.2662C135.898 54.8756 130.93 64.2398 129.792 71.2195C129.089 75.5319 129.617 79.9735 131.997 83.7138L132.138 83.9315C134.101 86.9195 137.671 90.3596 141.517 88.9448C143.145 88.3466 143.578 86.6016 142.484 85.2779C140.811 83.2515 138.225 82.4256 136.651 80.262C134.886 77.8355 134.308 74.7955 134.41 71.8447L134.423 71.5187C134.697 66.0909 137.284 55.6728 144.096 55.8572C144.478 55.8671 144.474 55.2838 144.096 55.2662ZM118.453 53.7103C110.524 52.6963 105.695 62.0304 104.205 68.4605C103.275 72.4803 103.072 76.9647 104.262 80.9543L104.35 81.2385C105.319 84.2161 108.176 89.3179 111.906 87.7963C112.928 87.3795 113.971 86.2439 113.482 85.0196C112.857 83.4546 111.955 83.0486 110.753 82.0472C109.828 81.2761 109.181 80.1693 108.705 79.0792C107.438 76.1738 107.155 72.7796 107.329 69.6488L107.352 69.2782C107.8 63.1628 111.114 54.0491 118.453 54.2167C118.788 54.2244 118.765 53.75 118.453 53.7103ZM103.936 44.9351C99.5227 43.2536 95.907 47.4759 93.37 50.4894C90.192 54.2652 87.3091 58.3328 85.6794 63.0331C84.2278 67.2213 83.9723 71.878 85.2799 76.1413C85.9272 78.2523 86.9357 80.2098 88.3122 81.9327L88.4879 82.1501C89.9205 83.8979 91.3035 84.9719 93.6502 84.3462C94.6052 84.091 95.0087 83.1462 94.8436 82.2433C94.4901 80.3142 93.4964 79.8132 92.2095 78.4665C91.0746 77.2787 90.2325 75.8159 89.6662 74.2779C88.4984 71.1052 88.4377 67.6678 89.2217 64.3992C90.0988 60.74 91.8253 57.361 93.8228 54.1946L94.2537 53.5164C96.3699 50.1688 99.3875 45.0135 103.852 45.5567C104.234 45.6035 104.239 45.0504 103.936 44.9351Z" fill="#343434"/>
<path fill-rule="evenodd" clip-rule="evenodd" d="M116.042 191.599C118.917 191.623 122.149 190.543 124.31 189.698L124.874 189.474C126.744 188.725 128.666 187.864 130.099 186.42C130.557 185.95 131.045 185.419 131.293 184.861C131.438 184.534 131.498 184.195 131.358 183.858C130.84 183.807 130.349 183.741 129.884 183.656C129.662 183.615 129.45 183.573 129.287 183.572C128.688 183.569 128.095 183.645 127.502 183.72C127.416 183.731 127.331 183.741 127.245 183.752C126.783 183.809 126.324 183.871 125.866 183.933C124.533 184.112 123.207 184.289 121.855 184.354C120.878 184.401 119.854 184.346 118.821 184.29C116.142 184.144 113.373 183.945 111.309 185.822C110.768 186.314 110.542 186.933 110.542 187.564C110.542 188.331 110.865 189.112 111.357 189.724C112.471 191.11 114.186 191.584 116.042 191.599ZM100.364 167.42C101.615 169.298 103.699 170.505 106.554 170.374C112.229 170.114 119.003 167.972 123.756 164.874C124.994 164.067 125.796 162.777 125.94 161.396L126.196 158.938L127.58 160.985C127.724 161.198 127.87 161.411 128.015 161.624C128.416 162.209 128.816 162.795 129.194 163.396C130.644 165.701 131.974 168.03 133.181 170.472C134.035 172.201 134.66 174.135 135.287 176.086C136.344 179.381 137.366 182.621 139.626 184.936C139.968 185.286 140.493 185.412 140.974 185.35C141.398 185.295 141.813 185.087 142.017 184.673C144.717 179.178 141.085 172.557 138.139 167.954L137.827 167.473C135.095 163.313 130.633 157.808 125.523 157.06L124.938 157.993L124.088 157.426C122.697 156.497 120.86 156.541 119.253 157.267L117.645 157.993C114.652 159.337 111.7 160.577 108.462 161.256C108.226 161.305 107.99 161.352 107.755 161.394C107.533 161.435 107.309 161.473 107.085 161.508C107.133 161.287 107.185 161.067 107.237 160.848C107.292 160.616 107.347 160.384 107.406 160.152C107.467 159.912 107.533 159.674 107.598 159.437C107.857 158.492 108.15 157.556 108.498 156.639C109.805 153.191 111.893 149.967 113.924 146.892L114.163 146.53C114.454 146.09 114.773 145.63 115.103 145.154C116.686 142.872 118.443 140.395 118.567 137.909C116.465 138.042 114.706 139.349 113.157 140.487C111.032 142.047 109.062 143.832 107.276 145.77C103.81 149.532 100.7 154.34 99.3359 159.311C98.555 162.157 98.8985 165.22 100.364 167.42ZM155.812 139.064L155.812 138.962C155.806 136.092 154.135 129.539 150.006 129.539C147.426 129.539 145.86 133.999 145.589 138.596L145.579 138.784C145.46 141.642 146.243 147.89 150.006 147.89C153.808 147.89 155.773 141.972 155.812 139.064ZM95.0155 138.163L95.015 138.062C95.0212 135.192 96.6919 128.639 100.821 128.639C103.337 128.639 104.888 132.878 105.216 137.352L105.238 137.696C105.401 140.458 104.668 146.99 100.821 146.99C97.0192 146.99 95.0546 141.072 95.0155 138.163ZM141.904 119.639C142.452 119.703 142.996 119.788 143.54 119.874C145.128 120.127 146.708 120.431 148.276 120.785C151.255 121.458 154.21 122.308 157.109 123.268C159.821 124.167 162.492 125.183 165.161 126.198C165.304 126.252 165.446 126.307 165.589 126.361C166.531 126.719 167.471 127.121 168.413 127.524C169.847 128.138 171.288 128.756 172.758 129.221C168.884 123.862 162.916 119.892 157.173 117.05C153.896 115.429 150.42 114.122 146.923 113.051L144.976 112.465C142.108 111.619 138.973 110.837 136.28 112.524C135.214 113.192 134.534 114.23 134.32 115.352C134.11 116.452 134.35 117.631 135.109 118.616C135.771 119.473 136.595 119.962 137.472 120.129C138.441 120.314 139.467 120.111 140.401 119.612C141.149 119.556 141.37 119.576 141.592 119.601L141.904 119.639ZM98.7673 120.184C100.686 119.767 102.587 119.599 104.556 119.66C105.446 119.686 106.308 119.824 107.167 119.962C108.501 120.178 109.83 120.4 111.268 120.139C112.018 120.002 112.657 119.563 113.15 118.991C113.727 118.321 114.108 117.465 114.231 116.651C114.357 115.81 114.231 115.074 113.92 114.425C113.553 113.658 112.934 113.011 112.186 112.445C109.923 110.731 106.04 111.143 103.37 111.489C100.73 111.833 98.1057 112.652 95.7725 113.952C93.4707 115.236 91.4698 116.965 89.9083 119.079C88.5922 120.861 87.9723 122.912 87.332 125C90.3436 122.472 94.9523 121.013 98.7673 120.184Z" fill="#343434"/>
<path d="M238.984 148C245.311 146.793 255.607 142.103 246.183 133" stroke="#FF9500" stroke-width="7"/>
</svg>
