<svg width="369" height="537" viewBox="0 0 369 537" fill="none" xmlns="http://www.w3.org/2000/svg">
<path fill-rule="evenodd" clip-rule="evenodd" d="M191.076 208.041C179.95 199.58 152.019 195.775 140.144 203.922C128.416 212.102 127.137 225.331 121.672 237.501C116.516 235.073 108 238.55 106.505 243.329C104.651 245.582 104.568 251.914 103.289 254.944C47.6534 263.788 39.2068 307.104 32.5103 356.281C23.6512 406.183 3.54037 455.976 12.271 507.326C11.1334 508.97 10.2365 510.568 9.4072 512.465C7.42001 515.842 9.97955 520.621 13.9877 520.436C19.1757 519.981 24.3124 519.36 29.5248 519.166C43.9743 518.665 58.4369 518.725 72.8918 518.908L74.8629 518.934C147.712 519.84 220.556 521.624 293.408 522.097C296.051 522.101 297.345 519.734 296.992 517.399C296.281 512.698 295.622 507.994 294.934 503.291C312.165 507.836 330.483 508.98 347.666 503.769C348.868 502.546 344.865 503.209 344.23 503.023C360.044 492.232 355.321 469.499 353.92 453.125C345.21 397.02 342.14 334.943 308.486 287.068C293.927 267.53 272.582 252.061 248.055 248.58L247.375 248.487C240.203 247.532 232.21 247.225 225.94 243.329C218.888 237.706 215.882 227.318 208.463 227.221C206.013 227.188 202.68 230.284 199.094 232.385C198.826 227.762 196.332 223.861 195.781 220.277L195.736 219.97C195.162 215.791 195.949 212.032 191.076 208.041ZM71.5091 357.763C87.1443 346.916 127.533 352.367 128.458 352.974C130.494 354.311 131.37 354.429 132.471 356.166C133.559 356.31 134.645 356.459 135.73 356.613C137.907 357.324 136.294 359.998 133.779 359.044C135.292 365.559 130.84 370.192 129.068 376.633C128.492 378.724 129.047 382.485 129.068 384.622C128.896 387.346 125.88 390.564 126.382 393.297C128.17 403.015 137.868 412.494 133.779 421.917C131.07 427.24 122.923 429.954 117.507 431.763C106.285 436.064 86.7312 431.601 80.2108 421.917C76.733 416.752 72.7038 403.723 70.6301 399.681L70.1704 393.27C69.037 377.334 68.0287 360.178 71.5091 357.763Z" fill="#FAFAFA"/>
<path fill-rule="evenodd" clip-rule="evenodd" d="M211.187 226.281C210.107 225.326 208.51 226.526 209.196 227.815C210.738 230.713 212.319 233.459 214.387 236.021C215.642 237.575 216.985 239.044 218.347 240.497C214.852 243.516 211.856 247.263 209.026 250.776C205.407 255.268 201.986 259.951 197.924 264.062C193.917 268.116 189.488 270.95 184.132 272.84L183.05 273.215C177.669 275.102 171.918 277.649 168.886 282.737C168.288 283.74 169.492 284.979 170.504 284.353C175.774 281.095 181.966 280.439 187.703 278.286C193.244 276.206 198.075 273.005 202.343 268.92C206.604 264.841 210.182 260.2 213.914 255.658C217.604 251.166 221.577 247.33 225.942 243.53C232.679 248.055 240.368 250.025 248.186 251.959L249.039 252.17C256.867 254.105 264.653 256.353 271.997 259.723C278.472 262.694 284.84 266.242 290.114 271.077C295.713 276.208 300.07 282.762 304.059 289.171C312.98 303.509 319.252 319.217 324.773 335.117C330.516 351.654 335.32 368.523 339.198 385.592C341.17 394.274 342.772 403.019 344.088 411.824C344.722 416.065 345.285 420.314 345.779 424.574C346.307 429.122 346.428 433.801 347.826 438.174C348.425 440.049 349.839 440.826 351.254 440.76L351.542 444.351C351.923 449.139 352.279 453.929 352.399 458.747C352.598 466.758 352.508 474.746 351.931 482.739L351.849 483.83C351.396 489.664 350.382 496.219 345.989 500.491C341.44 504.915 334.444 506.307 328.312 506.386C314.03 506.572 300.283 499.833 287.645 493.921C274.63 487.833 261.97 481.074 249.613 473.745C243.321 470.012 237.096 466.156 230.951 462.186C227.935 460.238 224.941 458.256 221.969 456.243C220.266 455.09 218.653 453.826 216.92 452.803C217.769 452.013 218.148 450.772 217.437 449.688C222.447 445.345 224.532 437.596 224.776 431.326C224.973 426.264 224.227 421.217 223.638 416.204C223.341 413.675 222.974 411.152 222.593 408.635C222.443 407.641 222.328 406.577 222.152 405.527C235.679 412.951 249.585 419.562 263.859 425.435C271.176 428.446 278.587 431.153 286.099 433.633L287.622 434.134C294.74 436.461 302.029 438.659 309.388 439.989C309.782 440.06 310.101 439.48 309.681 439.295C302.509 436.135 295.09 433.469 287.81 430.559L286.614 430.073C286.752 430.065 286.894 430.046 287.043 430.01C291.312 428.982 295.547 427.396 299.734 426.061C303.62 424.822 307.986 424.044 311.619 422.173C311.898 422.029 311.742 421.641 311.469 421.622C307.387 421.34 302.955 422.528 298.953 423.227L297.449 423.49C294.93 423.934 292.355 424.41 289.848 425.032C289.758 424.194 289.289 423.352 288.621 422.858C281.276 417.426 282.022 406.454 281.236 398.364L280.654 392.357C279.629 381.845 278.545 371.334 276.898 360.901C276.81 360.343 275.947 360.503 275.944 361.029C275.859 373.963 276.836 386.837 277.326 399.75L277.402 401.868C277.673 409.836 277.885 418.11 282.911 424.241C282.208 423.831 281.258 423.831 280.689 424.507C279.989 425.338 279.585 426.272 279.598 427.188C275.057 425.287 270.536 423.336 266.037 421.346C251.573 414.946 237.412 407.785 223.625 400.036C222.141 399.202 220.731 399.857 219.997 400.957L219.891 400.941C219.874 400.939 219.856 400.937 219.837 400.937L219.732 400.932C219.728 400.932 219.724 400.933 219.721 400.933C217.78 399.868 215.136 400.626 213.471 402.18C213.421 402.226 213.38 402.277 213.336 402.326C211.227 401.381 209.259 400.105 207.472 398.488C203.816 395.179 200.719 391.087 198.02 386.984C193.048 379.427 188.825 371.023 182.109 364.802C176.652 359.748 169.887 356.601 162.79 354.626C162.82 354.419 162.74 354.198 162.597 354.051C162.232 353.678 161.972 353.549 161.501 353.776C161.464 353.794 161.441 353.819 161.426 353.846L160.733 352.665C160.355 352.023 159.967 351.377 159.833 351.208C159.027 350.195 158.198 349.189 157.356 348.205C155.928 346.538 154.302 344.893 152.418 343.737C148.294 341.207 143.959 342.639 139.719 344.022C137.157 344.858 134.604 345.721 132.047 346.569L131.783 346.655C129.876 347.267 127.645 347.802 126.792 349.82C126.455 350.618 126.402 351.447 126.56 352.251C108.448 347.651 88.3326 349.764 70.6591 355.164C69.9808 355.371 69.3034 355.928 69.1606 356.66C67.1355 367.03 66.2337 377.666 67.15 388.213C67.9405 397.318 69.9605 406.24 73.7672 414.576L73.9836 415.046C77.5611 422.771 83.2311 432.294 91.8905 434.715C97.1191 436.177 102.902 435.315 108.235 435.047C113.417 434.786 118.715 434.749 123.849 433.935C128.42 433.21 132.426 431.164 135.252 427.451C137.689 424.248 138.973 420.377 140.024 416.527C140.506 416.68 140.984 416.842 141.454 417.026C143.441 417.801 145.124 419.051 146.645 420.523C149.858 423.63 152.351 427.404 155.712 430.37C158.756 433.054 162.223 435.142 165.943 436.747C173.651 440.072 181.919 441.402 190.072 443.164L190.641 443.288C196.778 444.633 203.043 446.284 208.461 449.475C208.566 450.415 208.995 451.299 209.682 451.878C208.727 452.774 208.322 454.193 209.161 455.524C211.507 459.241 215.547 461.356 219.174 463.733L219.41 463.889C222.977 466.251 226.576 468.566 230.204 470.834C237.58 475.446 245.11 479.804 252.746 483.97C265.028 490.671 277.574 496.991 290.347 502.725C289.581 506.491 289.861 510.375 289.284 514.167L289.196 514.708C288.95 516.115 289.282 517.293 290.253 518.212L290.356 518.306L290.354 518.294L290.445 518.377L290.475 518.402L290.465 518.394C290.577 518.497 290.693 518.592 290.81 518.673L290.96 518.77C291.895 519.337 293.099 519.331 294.056 518.83L294.165 518.77L294.349 518.664C295.614 517.938 296.486 516.138 295.961 514.708C294.672 511.194 294.185 507.443 292.994 503.905L293.938 504.327L295.184 504.869C308.65 510.684 323.608 515.581 338.28 511.617C344.763 509.865 350.822 506.158 354.066 500.118C357.258 494.174 357.709 487.272 357.878 480.66C358.088 472.499 357.65 464.214 356.572 456.123C355.849 450.692 354.974 445.159 353.624 439.784C354.318 439.173 354.829 438.295 354.963 437.209C355.6 432.076 354.486 426.739 353.803 421.632C353.137 416.646 352.4 411.669 351.567 406.708C349.886 396.69 347.932 386.692 345.657 376.791C341.609 359.169 336.263 341.861 329.827 324.966L329.263 323.494C323.316 308.052 316.43 292.939 306.842 279.373C302.255 272.882 297.406 266.998 290.925 262.321C284.853 257.938 278.004 254.783 270.936 252.372C263.861 249.958 256.588 248.341 249.187 247.335C241.671 246.313 233.737 245.687 226.725 242.608C227.612 241.02 226.851 238.876 225.358 237.892C220.335 234.577 215.689 230.265 211.187 226.281ZM50.373 370.412C50.1626 370.093 49.6628 370.294 49.7551 370.672C52.1984 380.668 54.492 390.685 55.9897 400.872C58.6933 419.258 58.196 437.884 57.975 456.407L57.9638 457.365C57.8503 467.342 57.6925 477.319 57.3621 487.292C57.1954 492.332 56.8654 497.422 57.0448 502.465C57.1426 505.201 57.8728 507.788 58.1315 510.491C58.3582 512.855 58.1562 515.255 58.0432 517.621C57.9674 519.195 60.2931 519.128 60.4513 517.621L60.6535 515.673C60.9163 513.207 61.2411 510.756 62.0504 508.396C63.0234 505.557 63.4904 502.769 63.8279 499.788C64.345 495.221 64.575 490.608 64.7745 486.009L64.911 482.827C65.7443 463.606 65.7151 444.295 64.366 425.094L64.2674 423.723C62.9315 405.573 60.6135 385.963 50.373 370.412ZM102.454 256.021C103.092 255.759 102.869 254.795 102.162 254.963L100.877 255.269C91.4596 257.522 82.2133 259.963 73.4234 264.154C64.6279 268.348 57.1813 274.609 51.2645 282.309C39.7625 297.275 34.9828 315.463 31.2095 333.635C27.0162 353.827 23.1982 374.092 18.9684 394.278L18.1829 398.038C14.269 416.838 10.5737 435.649 7.85086 454.672L7.65527 456.052C4.90948 475.614 3.25793 495.853 6.25403 515.466C6.84671 519.347 13.3125 518.38 13.0597 514.547C12.3295 503.464 11.8067 492.439 12.3119 481.332C12.8176 470.222 13.861 459.161 15.4164 448.148C16.7253 438.881 18.6765 429.728 20.4032 420.534L20.6739 419.082C22.1197 411.262 23.6103 403.45 25.0976 395.638L27.3202 383.941C30.6513 366.426 34.0476 348.896 37.8853 331.491L38.1131 330.467C41.8687 313.723 47.4056 296.183 58.6709 282.886C70.103 269.391 86.4686 262.595 102.454 256.021ZM143.994 433.628C143.719 433.017 142.757 433.084 142.462 433.628C141.303 435.763 141.175 438.488 140.956 440.897L140.933 441.146C140.654 444.086 140.408 447.036 140.257 449.986C139.97 455.585 139.833 461.177 139.851 466.783C139.869 472.528 139.985 478.266 140.295 484.002L140.379 485.54C140.662 490.525 141.137 496.085 143.509 500.443C144.371 502.028 146.716 501.562 147.215 499.96C148.851 494.713 148.011 488.493 147.592 483.12L147.266 478.927C146.943 474.734 146.636 470.539 146.392 466.341C146.057 460.597 145.781 454.849 145.516 449.102C145.43 447.236 145.336 445.369 145.238 443.503L145.086 440.704C144.957 438.362 144.968 435.793 143.994 433.628ZM327.948 441.064L327.224 440.365C325.001 438.192 322.191 434.846 318.904 435.053C317.594 435.136 316.758 436.223 317.03 437.51C317.611 440.263 320.423 441.692 322.447 443.373C324.664 445.213 326.754 447.18 328.84 449.167C330.69 450.928 332.47 452.739 334.207 454.607L334.856 455.31C335.479 455.989 339.913 459.993 339.433 461.032L339.407 461.079C339.274 461.278 339.496 461.552 339.717 461.482C341.632 460.878 341.512 459.239 340.789 457.579C339.398 454.388 336.962 451.437 334.835 448.713C332.714 445.995 330.418 443.464 327.948 441.064ZM137.056 361.058C138.537 357.563 143.991 357.636 147.087 357.845C154.884 358.372 163.321 360.342 170.258 363.981C177.451 367.754 182.296 373.8 186.631 380.485L186.834 380.799C191.059 387.358 195.129 395.123 201.745 399.633C205.115 401.931 209.05 404.029 213.139 404.937C213.42 405.43 213.874 405.82 214.471 405.962L214.748 406.025C215.912 406.282 217.722 406.566 219.284 406.396C219.274 407.16 219.282 407.917 219.263 408.641C219.208 410.713 219.184 412.795 219.184 414.869C219.183 419.215 219.417 423.569 219.236 427.914C219.075 431.758 218.531 435.773 216.683 439.209C215.328 441.73 213.539 443.398 211.38 444.99C206.068 441.757 200.061 439.787 193.965 438.305C186.592 436.513 179.044 435.317 171.839 432.887C168.371 431.718 165.037 430.187 162.016 428.108C158.811 425.9 156.362 422.913 153.842 419.992L153.449 419.538C150.877 416.593 148.072 413.775 144.438 412.178C141.309 410.803 137.184 410.558 134.448 408.43C133.018 407.316 132.898 405.701 132.747 404.046C134.5 404.296 136.355 403.895 138.101 403.691L139.006 403.585C140.658 403.389 142.271 403.174 143.897 402.754C144.199 402.676 144.199 402.221 143.897 402.144C141.975 401.648 140.071 401.437 138.101 401.206L137.638 401.149C135.856 400.915 133.983 400.563 132.235 400.955C131.921 399.763 131.468 398.625 130.833 397.485C129.941 395.884 128.253 394.069 128.025 392.199C127.957 391.64 128.087 390.982 128.351 390.488L128.441 390.32C128.552 390.121 128.684 389.921 128.876 389.797C128.897 389.822 128.942 389.85 129.04 389.881C130.385 390.304 131.559 389.647 132.182 388.633C134.826 388.961 137.712 388.85 140.192 388.96L142.699 389.081C145.378 389.203 148.179 389.257 150.696 388.717C151.048 388.641 151.154 388.057 150.802 387.907C147.707 386.585 143.953 386.163 140.639 385.656C138.788 385.372 136.924 385.155 135.068 384.906C133.833 384.739 132.521 384.464 131.241 384.398C128.03 380.407 129.76 374.111 134.228 372.393C135.855 373.107 137.319 372.691 139.097 372.539C140.872 372.387 142.651 372.284 144.433 372.291C148.004 372.307 151.788 373.245 155.324 372.841C155.899 372.775 156.434 372.011 155.862 371.545C153.155 369.339 149.276 368.619 145.84 368.149L145.128 368.054C143.976 367.903 142.575 367.683 141.122 367.552C140.793 366.912 140.204 366.428 139.318 366.308C139.055 366.272 138.79 366.251 138.526 366.228L138.53 366.202C136.37 366.099 136.464 362.456 137.056 361.058ZM284.918 429.214C284.957 429.273 284.998 429.329 285.043 429.382L285.111 429.462L284.756 429.318L284.918 429.214ZM99.3676 353.249C108.458 352.274 117.562 352.479 126.68 352.741C127.409 355.123 129.947 357.153 132.407 357.23C130.481 360.157 130.282 364.12 131.633 367.225C128.765 368.365 126.294 370.413 124.794 373.33C122.714 377.373 122.986 381.872 125.042 385.609C123.287 387.195 122.252 389.771 122.356 392.199C122.472 394.906 124.087 397.219 125.43 399.46C126.881 401.885 126.93 404.019 127.375 406.734C128.027 410.708 130.711 413.117 134.164 414.622L133.98 415.344C133.09 418.804 131.982 422.455 129.438 424.986C126.165 428.241 121.088 428.211 116.763 428.417L116.555 428.427C112.595 428.625 108.637 428.856 104.679 429.08L101.71 429.246C97.1524 429.496 92.7756 429.527 89.0551 426.518C82.9809 421.606 78.8169 413.478 76.1812 406.282C70.6492 391.179 70.583 374.604 73.1222 358.874C81.6383 356.133 90.4743 354.203 99.3676 353.249ZM174.968 378.307L174.901 378.311C173.03 378.525 171.744 380.038 171.286 381.834C170.621 384.443 170.947 386.803 169.346 389.159C167.7 391.581 166.688 393.521 166.448 396.513C166.35 397.745 166.395 398.973 166.121 400.178L165.922 401.023C165.71 401.923 165.537 402.791 165.643 403.758C165.739 404.639 166.169 405.326 167.054 405.609C169.94 406.531 172.168 404.407 172.914 401.721C173.558 399.402 172.698 396.637 173.607 394.459C174.11 393.251 175.038 392.241 175.563 391.025C176.083 389.82 176.344 388.561 176.427 387.252C176.585 384.774 174.391 381.798 175.615 379.553C175.876 379.074 175.581 378.292 174.968 378.307ZM213.302 352.742C211.348 352.345 209.131 351.437 207.203 352.192C206.213 352.581 205.723 353.787 206.56 354.625C208.013 356.08 210.125 356.161 212.083 356.504L212.255 356.535C214.569 356.963 216.888 357.368 219.209 357.753C223.577 358.475 227.955 359.114 232.349 359.657C236.861 360.214 241.386 360.711 245.917 361.084L247.672 361.228C251.499 361.534 255.482 361.764 259.238 361.179C259.784 361.094 259.696 360.3 259.238 360.161C255.124 358.918 250.61 358.584 246.356 358.058C241.834 357.498 237.319 356.906 232.816 356.204C228.321 355.502 223.831 354.75 219.357 353.918C217.336 353.543 215.317 353.151 213.302 352.742ZM142.787 348.749C144.502 348.143 146.389 347.244 148.247 347.545C151.451 348.063 154.304 351.181 156.84 353.235L155.566 352.987C149.05 351.736 140.419 350.389 134.949 354.527C134.935 354.503 134.924 354.479 134.908 354.455C134.467 353.785 133.955 353.263 133.397 352.69C133.343 352.64 133.292 352.588 133.241 352.535L132.94 352.215L133.629 351.976C135.105 351.455 136.853 350.782 137.13 350.684L137.149 350.678C139.031 350.041 140.914 349.412 142.787 348.749ZM196.332 212.336C196.6 208.891 191.231 208.92 190.965 212.336C190.385 219.794 192.066 227.181 195.683 233.72C195.71 233.768 195.739 233.81 195.767 233.855C193.505 235.031 191.217 236.159 188.877 237.167C185.885 238.457 182.837 239.632 179.733 240.628C176.926 241.53 173.468 241.886 171.108 243.763C166.132 247.72 168.002 255.933 168.959 261.256L169.108 262.096C169.585 264.836 169.93 267.646 168.773 270.275C167.538 273.083 165.041 275.166 162.813 277.176L162.363 277.583C160.39 279.379 158.134 281.56 156.687 283.995C155.365 281.266 153.564 279.036 151.659 276.526C150.3 274.735 151.267 274.144 152.244 272.394C153.183 270.71 153.642 268.914 153.348 266.993C152.806 263.444 149.966 260.881 147.139 258.955C143.801 256.682 140.075 254.997 136.624 252.882C129.533 248.537 122.627 243.569 116.405 238.051C116.233 237.899 115.935 238.098 116.073 238.307C120.988 245.773 126.751 252.224 133.834 257.7C136.706 259.92 139.723 261.762 142.76 263.698L143.633 264.258C144.852 265.047 146.374 266.101 146.925 267.444C147.48 268.795 146.297 269.815 145.66 270.934C143.637 274.487 144.613 277.802 147.011 280.816L147.122 280.955C149.505 283.886 151.31 286.613 152.174 290.359C154.029 298.405 151.445 306.786 148.739 314.34L148.633 314.638C147.169 318.71 145.614 322.752 144.342 326.888L143.993 328.032C142.841 331.838 141.897 335.593 143.189 339.506C143.629 340.836 145.447 341.151 146.202 339.898C148.865 335.481 149.529 330.166 151.198 325.309C152.825 320.576 154.693 315.928 156.265 311.175C158.289 305.056 159.643 298.47 158.908 292.051C158.929 292.014 158.953 291.979 158.971 291.939L159.486 290.814C160.891 287.767 162.248 285.106 164.803 282.677C167.467 280.143 170.359 277.901 172.456 274.834C177.01 268.172 174.194 260.761 173.643 253.477L173.581 252.583C173.481 251.071 173.426 249.015 174.415 247.969C175.528 246.79 178.138 246.49 179.614 245.968C183.43 244.619 187.19 243.048 190.771 241.161C194.18 239.365 197.483 237.381 200.557 235.057L202.116 233.886C204.575 232.034 207.124 230.01 208.772 227.488C208.963 227.198 208.639 226.729 208.295 226.869C205.544 227.983 203.03 229.757 200.456 231.3C200.416 231.206 200.37 231.111 200.317 231.015C197.132 225.259 195.823 218.882 196.332 212.336ZM108.452 251.771C107.356 248.769 102.36 249.001 102.559 252.568C102.712 255.308 103.877 257.781 104.942 260.269L105.056 260.535C106.155 263.128 107.425 265.561 108.945 267.937C111.849 272.478 115.251 276.693 118.884 280.671C122.177 284.277 126.501 286.482 131.482 286.115C133.581 285.961 135.7 285.428 137.539 284.381C139.724 283.137 142.096 279.401 144.883 280.306C145.153 280.393 145.404 279.999 145.171 279.812C141.954 277.225 138.302 281.237 135.221 282.204C130.579 283.66 125.816 282.05 122.828 278.302C119.709 274.389 116.838 270.009 114.216 265.749C112.885 263.585 111.67 261.34 110.621 259.026C109.562 256.691 109.322 254.153 108.452 251.771ZM115.934 233.298C116.069 232.884 115.554 232.489 115.189 232.726C113.075 234.101 111.243 235.917 109.292 237.509C107.129 239.275 104.949 241.005 102.736 242.709C99.509 245.193 103.251 249.766 106.092 247.052C109.978 243.34 114.235 238.486 115.934 233.298ZM127.542 218.769C126.683 215.461 121.603 216.826 122.343 220.095L122.367 220.194C123.77 225.594 121.773 231.091 117.509 234.592L117.352 234.719C114.655 236.874 118.476 240.643 121.147 238.508C126.977 233.848 129.402 225.933 127.542 218.769Z" fill="#343434"/>
<path fill-rule="evenodd" clip-rule="evenodd" d="M179.272 37.2281C110.959 33.8732 106.188 53.7015 96.8069 66.3426C92.1515 72.6159 80.1322 81.9067 78.1382 103.361C76.7541 118.254 85.565 135.419 85.565 148.727C85.565 155.52 77.2368 170.103 81.1138 180.004C89.7433 202.04 108.015 226.496 131.298 226.496C154.582 226.496 197.562 213.681 223.289 176.894C231.716 164.844 247.585 40.583 179.272 37.2281Z" fill="#FAFAFA"/>
<path fill-rule="evenodd" clip-rule="evenodd" d="M79.8408 150.055C81.3326 148.413 82.4909 147.062 82.8785 144.803C83.0408 143.862 83.1129 142.894 83.1444 141.922C77.1546 133.559 71.3306 113.806 71.3315 103.002C71.3324 87.7591 76.9608 73.0932 86.2002 60.963C104.21 37.3369 134.191 25.2248 163.532 26.175C191.629 27.0792 221.514 37.4225 239.041 59.5322C297.193 132.887 248.387 213.011 212.641 229.682C209.529 231.133 199.479 230.629 200.88 227.53C204.902 218.627 208.071 202.231 208.81 198.539C207.665 199.31 206.511 200.061 205.353 200.84C203.302 202.212 200.553 203.783 197.975 203.329C197.853 203.306 197.777 203.176 197.772 203.063C197.655 200.646 199.386 198.161 200.909 196.438C203.023 194.043 205.033 191.59 207.309 189.344C208.278 188.385 209.261 187.436 210.243 186.486C210.369 180.788 209.986 175.063 208.963 169.333C207.192 159.399 204.136 149.722 200.625 140.198C197.691 138.037 194.842 135.765 192.206 133.28C185.855 127.298 181.01 119.98 176.855 112.283C176.805 112.26 176.751 112.233 176.702 112.211C168.648 108.47 160.661 104.587 152.738 100.581C148.65 98.5142 144.589 96.3988 140.528 94.2838C138.32 93.1311 136.044 92.0823 133.786 90.9976C134.394 94.1123 135.214 97.1819 136.21 100.202C137.031 102.683 134.525 104.514 132.307 104.104C124.758 102.71 117.461 99.9055 110.894 95.9356C107.64 93.9687 104.544 91.6957 101.673 89.2017C98.8019 93.4731 95.3135 97.479 91.7935 100.927C89.4182 103.254 86.9349 105.468 84.3568 107.566C85.5242 115.591 86.5247 123.634 87.7912 131.642C88.4537 135.828 89.2515 140.013 89.7518 144.222C90.2971 148.808 88.7783 152.076 85.754 155.429C81.5264 160.115 81.5309 166.893 83.149 172.713C83.3473 173.433 83.5952 174.136 83.8521 174.833C83.9061 174.977 84.0639 175.368 84.1225 175.522C84.1225 175.526 84.1225 175.531 84.127 175.539C84.127 175.544 84.1315 175.549 84.1315 175.553C84.136 175.553 84.136 175.557 84.1405 175.562V175.571V175.576L84.145 175.58C84.3343 176.021 84.5371 176.453 84.7399 176.885C85.6639 178.834 86.696 180.739 87.7687 182.611C93.0419 191.856 99.7033 200.313 107.293 207.775C110.827 211.25 114.5 214.482 118.651 217.129C119.525 217.683 120.418 218.218 121.333 218.708C121.824 218.974 122.329 219.222 122.833 219.474C123.573 219.838 123.266 219.694 123.717 219.874C124.533 220.194 125.366 220.473 126.218 220.693C126.673 220.81 127.133 220.91 127.597 220.995C127.602 220.995 127.611 220.999 127.624 220.999C127.629 220.999 127.633 221.004 127.638 220.999C127.642 221.004 127.651 221.004 127.661 221.004C127.832 221.017 128.138 221.044 128.197 221.044C134.669 221.067 141.087 220.199 147.352 218.592C150.746 217.719 154.135 216.66 157.326 215.207C158.948 214.464 160.535 213.641 162.054 212.709C162.734 212.29 163.379 211.786 164.095 211.422C165.168 210.872 166.218 210.931 167.377 210.882C169.143 210.809 170.396 212.655 169.964 214.275C169.436 216.251 168.607 217.417 166.903 218.592C165.542 219.528 164.1 220.356 162.631 221.107C159.431 222.751 156.046 224.087 152.621 225.181C146.207 227.224 139.455 228.48 132.74 228.94C127.85 229.273 123.613 228.62 119.16 226.563C114.459 224.389 110.245 221.143 106.347 217.777C97.6166 210.242 90.0222 201.101 83.5816 191.563C77.5287 182.597 72.8323 172.834 74.3783 161.703C74.9957 157.239 76.8166 153.395 79.8408 150.055Z" fill="#343434"/>
<path fill-rule="evenodd" clip-rule="evenodd" d="M116.338 191.599C119.219 191.623 122.458 190.543 124.623 189.698L125.188 189.474C127.062 188.725 128.987 187.864 130.423 186.42C130.882 185.95 131.371 185.419 131.619 184.861C131.765 184.534 131.825 184.195 131.685 183.858C131.165 183.807 130.673 183.741 130.207 183.656C129.985 183.615 129.773 183.573 129.61 183.572C129.009 183.569 128.415 183.645 127.821 183.72C127.735 183.731 127.649 183.741 127.563 183.752C127.101 183.809 126.641 183.871 126.182 183.933C124.846 184.112 123.518 184.289 122.163 184.354C121.184 184.401 120.158 184.346 119.124 184.29C116.439 184.144 113.664 183.945 111.596 185.822C111.055 186.314 110.828 186.933 110.828 187.564C110.828 188.331 111.151 189.112 111.644 189.724C112.761 191.11 114.479 191.584 116.338 191.599ZM100.63 167.42C101.883 169.298 103.971 170.505 106.832 170.374C112.519 170.114 119.305 167.972 124.068 164.874C125.308 164.067 126.112 162.777 126.256 161.396L126.513 158.938L127.9 160.985C128.044 161.198 128.19 161.411 128.336 161.624C128.737 162.209 129.138 162.795 129.517 163.396C130.97 165.701 132.302 168.03 133.511 170.472C134.367 172.201 134.993 174.135 135.621 176.086C136.681 179.381 137.705 182.621 139.969 184.936C140.312 185.286 140.838 185.412 141.32 185.35C141.744 185.295 142.16 185.087 142.364 184.673C145.07 179.178 141.431 172.557 138.479 167.954L138.167 167.473C135.429 163.313 130.959 157.808 125.839 157.06L125.252 157.993L124.4 157.426C123.006 156.497 121.167 156.541 119.556 157.267L117.945 157.993C114.946 159.337 111.988 160.577 108.744 161.256C108.508 161.305 108.271 161.352 108.036 161.394C107.813 161.435 107.589 161.473 107.364 161.508C107.412 161.287 107.464 161.067 107.516 160.848C107.571 160.616 107.627 160.384 107.686 160.152C107.747 159.912 107.813 159.674 107.878 159.437C108.138 158.492 108.431 157.556 108.78 156.639C110.09 153.191 112.181 149.967 114.216 146.892L114.456 146.53C114.747 146.09 115.067 145.63 115.397 145.154C116.984 142.872 118.744 140.395 118.869 137.909C116.762 138.042 115 139.349 113.448 140.487C111.319 142.047 109.345 143.832 107.555 145.77C104.083 149.532 100.967 154.34 99.5999 159.311C98.8175 162.157 99.1616 165.22 100.63 167.42ZM156.186 139.064L156.187 138.962C156.18 136.092 154.507 129.539 150.369 129.539C147.784 129.539 146.215 133.999 145.943 138.596L145.934 138.784C145.814 141.642 146.599 147.89 150.369 147.89C154.179 147.89 156.147 141.972 156.186 139.064ZM95.2711 138.163L95.2705 138.062C95.2768 135.192 96.9508 128.639 101.088 128.639C103.608 128.639 105.163 132.878 105.491 137.352L105.514 137.696C105.677 140.458 104.943 146.99 101.088 146.99C97.2787 146.99 95.3103 141.072 95.2711 138.163ZM142.252 119.639C142.8 119.703 143.346 119.788 143.891 119.874C145.482 120.127 147.064 120.431 148.636 120.785C151.621 121.458 154.582 122.308 157.486 123.268C160.204 124.167 162.879 125.183 165.554 126.198C165.697 126.252 165.839 126.307 165.982 126.361C166.927 126.719 167.868 127.121 168.812 127.524C170.249 128.138 171.692 128.756 173.166 129.221C169.285 123.862 163.304 119.892 157.55 117.05C154.267 115.429 150.784 114.122 147.28 113.051L145.329 112.465C142.456 111.619 139.315 110.837 136.616 112.524C135.548 113.192 134.867 114.23 134.653 115.352C134.442 116.452 134.682 117.631 135.443 118.616C136.106 119.473 136.932 119.962 137.811 120.129C138.781 120.314 139.809 120.111 140.745 119.612C141.495 119.556 141.716 119.576 141.938 119.601L142.252 119.639ZM99.0302 120.184C100.953 119.767 102.857 119.599 104.83 119.66C105.722 119.686 106.585 119.824 107.446 119.962C108.783 120.178 110.115 120.4 111.555 120.139C112.307 120.002 112.947 119.563 113.441 118.991C114.019 118.321 114.401 117.465 114.524 116.651C114.651 115.81 114.524 115.074 114.213 114.425C113.845 113.658 113.225 113.011 112.476 112.445C110.208 110.731 106.318 111.143 103.642 111.489C100.997 111.833 98.3673 112.652 96.0295 113.952C93.7233 115.236 91.7184 116.965 90.1539 119.079C88.8352 120.861 88.214 122.912 87.5726 125C90.59 122.472 95.2077 121.013 99.0302 120.184Z" fill="#343434"/>
<path fill-rule="evenodd" clip-rule="evenodd" d="M79.2742 150.837C83.4116 155.999 99.6084 161.729 108.229 155.509C116.849 149.288 120.256 144.954 121.408 137.181C121.531 136.352 123.031 135.801 123.666 136.389C127.218 139.684 129.517 143.881 131.795 148.088C134.364 152.833 136.895 157.607 141.564 160.819C149.833 165.246 164.794 165.877 169.214 163.924C177.681 160.183 184.379 152.183 185.902 141.174C185.902 141.174 187.451 136.29 188.808 135.263C190.095 134.289 197.194 133.421 197.972 133.277C211.989 130.68 229.716 129.024 242.2 138.161C243.889 139.181 249.673 143.013 249.759 142.071C249.819 138.38 245.631 130.028 236.107 126.053C224.33 121.138 206.822 120.851 196.679 121.936C196.169 121.99 194.43 121.563 194.307 121.51C178.941 114.866 161.261 116.631 144.819 119.423C142.463 119.88 121.372 125.095 112.982 121.936C99.1111 116.28 84.3222 112.184 69.3431 113.795C69.2179 113.809 67.3269 125.271 68.8 126.053C69.9722 126.676 71.967 128.27 72.6756 129.143C73.3091 129.923 73.7083 130.893 73.6729 132.236C73.388 140.009 75.6088 146.263 79.2742 150.837ZM136.306 143.901C134.547 141.36 133.992 135.653 134.728 131.489C135.101 129.38 135.825 127.702 136.734 126.867C137.338 126.312 138.027 126.05 138.778 126.089C139.19 126.11 139.636 126.227 140.109 126.482C146.506 123.026 154.255 121.782 161.601 122.14C167.449 122.139 171.621 123.517 174.451 125.663C177.855 128.245 179.389 131.956 179.478 135.981C179.583 140.758 177.618 145.983 174.395 150.117C171.311 154.075 167.091 157.009 162.513 157.685C157.316 158.716 152.02 157.719 147.416 155.281C142.693 152.78 138.704 148.764 136.306 143.901ZM85.0251 146.596C82.061 143.098 80.0901 138.547 79.7901 134.038C79.517 129.935 80.6173 125.87 83.6594 122.511C86.4173 120.147 91.2907 120.108 96.4172 121.425C103.046 123.127 109.904 126.931 112.19 129.388C112.729 129.67 113.228 130.161 113.664 131.214L113.667 131.59C114.359 134.779 113.949 138.016 112.751 141.002C111.449 144.246 109.217 147.19 106.496 149.437C102.881 152.411 99.1067 153.321 95.5742 152.841C91.573 152.297 87.8522 149.932 85.0251 146.596Z" fill="#FAFAFA"/>
<path fill-rule="evenodd" clip-rule="evenodd" d="M113.459 120.673C99.4129 114.946 84.3986 110.818 69.1981 112.453C67.9411 111.976 66.3808 112.378 65.8237 114.153C60.4094 130.625 72.4833 126.044 72.321 132.201C71.0555 166.725 117.521 172.621 122.745 137.379L122.841 137.436C130.358 144.441 131.942 155.84 140.797 161.932C158.659 174.978 183.981 164.641 187.233 141.416L187.304 141.102C188.396 136.362 189.701 135.187 195.085 135.21L195.936 135.042C209.925 132.289 228.554 129.816 241.439 139.281C244.242 140.909 244.373 145.093 246.741 146.911C249.336 147.414 250.934 144.298 251.11 142.142C251.521 120.644 212.999 119.097 195.747 120.942C195.417 120.601 194.714 120.644 194.477 121.068C178.874 114.322 161.296 115.256 144.591 118.093C134.242 120.093 124.021 124.651 113.459 120.673ZM70.5966 116.422C79.0253 116.001 86.8215 116.462 95.0947 118.485C99.4548 119.536 102.801 120.864 106.974 122.461C133.006 133.979 136.009 113.506 194.36 121.531C193.606 124.76 193.467 127.957 193.426 130.991C181.512 130.512 184.317 141.873 179.853 149.853L179.716 150.094C173.21 161.737 157.859 167.168 145.476 159.445C135.145 153.432 134.137 138.18 123.851 132.127C114.935 131.777 118.497 143.795 113.644 148.734C106.814 157.835 92.2967 159.108 83.7324 150.547C79.7144 146.428 77.5789 141.197 77.4609 135.578C77.2369 131.988 77.8534 128.34 75.1357 125.815C73.2306 123.883 69.8458 124.528 69.4573 121.606C69.2103 119.879 69.9296 118.005 70.5966 116.422ZM162.198 121.128C153.825 120.716 144.966 122.168 137.777 126.269C132.456 122.04 131.152 138.847 134.684 143.709C139.773 154.107 151.62 160.943 163.028 158.673C180.825 156.098 193.225 121.097 162.198 121.128ZM138.288 127.396L138.744 127.329C146.456 126.154 167.457 120.709 175.556 129.303C183.417 143.557 163.475 167.5 142.722 148.429C136.946 142.556 134.708 135.435 138.288 127.396ZM113.847 129.218C109.853 124.495 89.4965 114.928 82.4011 121.067C69.451 135.561 89.9883 164.877 107.19 150.594C112.919 145.82 116.688 138.213 115.039 130.847L115.036 130.539C115.033 130.427 115.012 130.452 114.892 130.313C114.68 129.756 114.297 129.4 113.847 129.218ZM82.5818 138.002C78.2145 114.346 96.4676 123.339 111.458 129.653C110.653 130.387 110.657 131.39 110.888 132.213C112.469 149.765 91.1073 159.712 82.5818 138.002ZM196.05 122.092C202.302 124.206 243.659 120.425 247.48 139.785C243.447 133.26 235.095 130.671 227.586 129.265C217.373 127.354 207.215 128.461 197.145 130.472L196.937 128.391C196.714 126.183 196.478 124.118 196.05 122.092Z" fill="#343434"/>
<path d="M112.681 347.999C112.557 348.002 112.052 347.963 111.83 347.96C112.087 347.873 113.133 347.984 112.681 347.999ZM91.4379 355.909C91.6034 355.863 91.7687 355.817 91.9336 355.772C91.4544 355.82 90.8104 355.927 90.3578 355.971C90.2839 355.978 90.4648 355.884 90.2905 355.906C90.1157 355.928 90.1631 356.014 89.9159 356.061C89.6406 356.111 88.3439 356.248 87.8943 356.325C86.2416 356.604 84.573 356.964 82.9095 357.265C84.6036 356.855 82.8676 357.131 82.3976 357.26C82.294 357.291 82.3421 357.446 80.6239 357.78C79.5357 357.998 80.4857 357.526 78.6959 358.07C80.1348 357.909 78.7494 358.215 77.6746 358.487C77.4892 358.532 75.9655 358.89 75.309 359.075C75.0825 359.138 74.7594 359.318 74.4578 359.403C74.2509 359.461 74.0777 359.458 73.7728 359.545C73.0024 359.766 72.235 359.992 71.462 360.222L73.8102 357.592C73.7002 358.203 73.5806 358.914 73.4786 359.541C73.3779 358.674 73.2826 360.183 73.2634 360.262C73.1507 360.598 73.3629 359.029 73.2331 359.64C73.1094 360.521 73.0046 361.365 72.9052 362.264C73.0184 361.547 72.9868 363.223 72.883 363.527C73.0797 363.434 72.3391 367.498 72.3865 368.168C72.3945 368.303 72.5398 367.441 72.3831 369.438C72.3669 369.656 72.3099 369.57 72.3099 369.686C72.3099 369.754 72.4838 370.185 72.3585 370.611C72.315 370.774 72.2194 369.729 72.1931 372C72.4094 371.109 72.2261 375.139 72.1969 375.877C72.2232 375.728 72.2498 375.58 72.2767 375.432C72.2044 376.165 72.2743 376.301 72.2713 376.467C72.2607 377.139 72.2076 378.042 72.2301 378.67C72.257 379.405 72.3793 379.392 72.3624 380.24C72.3819 380.038 72.4019 379.837 72.4225 379.637C72.4352 380.218 72.4523 380.802 72.474 381.391C72.2489 380.037 72.4789 381.689 72.4896 381.789C72.5044 381.96 72.4248 381.717 72.4482 382.004C72.4513 382.034 72.5112 381.987 72.5431 382.43C72.612 383.357 72.5261 383.216 72.5523 383.607C72.5554 383.642 72.6024 383.518 72.6633 384.186C72.8688 386.312 72.6167 384.178 72.6056 384.098C72.5892 383.989 72.3979 384.748 72.3636 382.913C72.3748 383.527 72.2757 383.597 72.2775 383.666C72.2786 383.732 72.3697 384.782 72.3791 384.841C72.4555 385.358 72.4908 384.895 72.5116 384.995C72.5266 385.075 72.5426 386.365 72.7869 386.638C72.6476 387.262 72.5698 386.308 72.456 385.284C72.402 385.137 72.4583 386.266 72.4654 386.326C72.6014 387.768 72.6897 386.954 72.8238 387.258C72.8944 387.418 72.8442 388.017 72.9343 387.46C73.0864 388.766 72.9193 387.982 72.9153 388.068C72.9103 388.197 73.003 388.651 73.0042 388.71C73.0055 388.795 72.9217 388.507 72.9418 388.842C72.9455 388.897 73.0936 389.419 73.0561 388.728C73.1494 389.646 73.2168 389.56 73.1057 389.889C73.4668 390.485 72.9975 390.369 73.014 390.62C73.0606 391.29 73.2567 391.067 73.2719 391.101C73.3698 391.334 73.5616 393.163 73.6715 393.61C73.482 393.458 73.4438 392.165 73.3746 391.888C73.1348 390.958 73.4913 393.231 73.1908 392.575C73.2891 392.855 73.3886 393.134 73.4892 393.414C73.4473 393.961 73.2655 393.226 73.5508 394.632C73.6996 394.845 73.3648 393.636 73.4936 393.868C73.5676 394.005 73.7182 394.822 73.7487 394.833C73.7832 394.844 73.6185 394.111 73.6884 394.219C73.831 394.455 74.2236 397.17 73.7905 395.127C73.8946 395.699 73.737 396.036 73.8987 396.519C74.006 396.829 73.9419 394.979 74.425 397.681C74.335 397.759 74.1776 396.611 74.166 396.583C74.1468 396.543 73.96 396.793 73.9559 396.831C73.9342 396.966 74.639 399.692 74.675 400.291C74.7447 400.033 75.2048 402.345 75.3188 402.58C75.3472 402.642 75.3606 402.375 75.3878 402.444C75.5519 402.869 75.7414 404.092 75.902 404.638C76.0799 405.25 76.1258 405.152 76.1356 405.186C76.2137 405.455 76.1024 405.255 76.1528 405.419C76.2238 405.668 76.7635 407.361 76.8062 407.44C76.8176 407.463 76.8011 407.164 76.9397 407.525C76.9653 407.586 76.8544 407.58 77.2767 408.644C77.7915 409.922 77.066 407.705 77.3545 408.209C77.5158 409.089 77.643 409.013 77.7145 409.241C77.7393 409.32 77.8409 409.94 78.0934 410.56C77.8995 410.12 77.71 409.678 77.5249 409.233C77.6677 409.685 78.0223 410.533 78.1457 410.902C78.2057 411.082 78.055 410.974 78.2127 411.356C78.248 411.436 78.5972 411.668 78.0962 410.707C78.1442 410.595 78.2816 411.093 78.3946 411.304C78.4119 411.336 78.5978 411.413 78.6319 411.728C78.6432 411.801 77.9359 411.238 79.0275 413.001C79.063 413.057 79.0188 412.826 79.0547 412.881C79.0786 412.919 79.2711 413.404 79.3022 413.453C79.3336 413.504 79.2825 413.25 79.3216 413.31C79.5216 413.614 79.5118 414.139 79.2202 413.454C79.2966 413.693 79.3745 413.93 79.4538 414.168C79.4971 413.854 79.6612 414.501 79.8153 414.808C80.8129 416.766 80.2648 415.395 80.4828 415.708C80.8393 416.206 80.3658 415.929 80.8594 416.687C80.9085 416.754 80.5 415.744 81.4438 417.641C81.2888 417.37 81.1359 417.097 80.9852 416.823C80.9218 417.061 81.5321 417.811 81.5709 417.872C81.9996 418.584 81.6654 418.13 82.362 419.149C82.4246 419.239 82.5125 419.466 82.6522 419.656C83.2291 420.443 82.0313 418.531 82.0677 418.438C82.0714 418.404 83.3175 420.48 83.3608 420.55C83.4906 420.886 82.7495 419.638 82.8248 419.916C82.8312 420.035 84.792 422.876 85.2035 423.427C85.6481 424.088 85.6969 424.506 85.8977 424.355C85.8414 424.685 86.0983 424.736 86.1604 424.816C86.9181 425.786 86.9221 425.789 87.6331 426.565C87.7912 426.735 87.8675 426.931 87.9323 426.983C87.9702 427.013 87.9693 426.893 88.1456 427.049C88.2462 427.138 88.5188 427.442 88.8171 427.774L89.0365 428.027C88.8366 427.788 88.7648 427.767 88.7529 427.762C88.7404 427.762 88.7768 427.796 88.8242 427.831C88.9185 427.902 89.0416 427.976 89.0612 427.999C89.0974 428.04 88.9639 427.986 88.8608 427.942C88.7568 427.898 88.7019 427.876 88.7071 427.923C88.9457 428.078 89.5291 428.295 90.107 428.478C90.3547 428.557 90.2127 428.567 90.3235 428.601C90.363 428.62 91.2862 428.812 91.2592 428.782C91.2135 428.749 90.4735 428.569 89.9064 428.37C89.3316 428.173 88.9917 427.993 89.2769 428.068C89.3876 428.098 89.7841 428.364 89.7617 428.204C92.0476 429.001 94.9635 429.403 97.7842 429.62C96.1362 429.623 94.3195 429.336 92.6954 429.051C92.478 429.016 91.739 428.851 91.8129 428.939C93.1514 429.249 94.9461 429.45 96.3226 429.617C96.367 429.623 96.1979 429.673 96.3635 429.698C96.6788 429.749 97.7084 429.718 97.8742 429.753C97.9051 429.762 97.3153 429.809 97.4893 429.875C97.9383 430.045 98.0654 429.742 98.4631 429.767C98.7562 429.794 100.808 430.011 101.323 429.913C101.868 429.821 99.8096 429.829 99.9639 429.745C101.352 429.703 102.762 429.79 104.085 429.747C104.108 429.746 103.905 429.687 104.199 429.67C104.712 429.641 104.854 429.727 105.101 429.733C105.367 429.741 106.328 429.685 106.453 429.711C106.47 429.715 106.282 429.815 106.253 429.819C105.846 429.876 105.682 429.764 105.646 429.764C105.503 429.766 105.365 429.816 105.236 429.818C105.021 429.822 104.912 429.784 104.623 429.789C104.427 429.792 104.619 429.867 104.43 429.869C104.357 429.87 103.623 429.703 103.553 429.891C103.526 429.968 108.184 429.851 109.764 429.669C109.997 429.647 110.162 429.629 110.24 429.616C110.081 429.623 109.922 429.63 109.761 429.637C109.387 429.652 109.017 429.665 108.651 429.676C109.01 429.668 109.397 429.633 109.758 429.597C110.473 429.526 111.036 429.461 111.112 429.601C115.121 429.264 119.109 428.873 122.997 428.28C123.686 428.187 123.335 428.394 124.455 428.155C124.167 428.161 123.853 428.169 123.562 428.172C124.154 428.121 126.689 427.683 127.018 427.542C127.06 427.525 127.125 427.384 127.626 427.223C127.842 427.15 127.946 427.133 128.011 427.135C128.068 427.141 128.14 427.132 128.032 427.201C128.007 427.219 127.946 427.256 127.864 427.319L128.147 427.133C128.262 427.074 128.387 426.969 128.43 426.946C128.466 426.926 128.511 426.967 128.605 426.914C128.898 426.738 128.574 426.774 128.967 426.711C128.905 426.77 128.84 426.829 128.777 426.885C129.13 426.659 129.66 426.304 129.18 426.769C129.095 426.847 129.136 426.741 129.07 426.794C128.703 427.09 128.438 427.261 128.276 427.359L128.02 427.527C128.269 427.357 128.203 427.42 128.201 427.417C128.186 427.426 128.15 427.444 128.129 427.455C128.081 427.479 128.056 427.493 128.071 427.493C128.085 427.493 128.131 427.482 128.18 427.466C128.204 427.459 128.226 427.45 128.228 427.451C128.225 427.458 128.225 427.445 128.052 427.57L128.303 427.405C128.612 427.246 129.158 426.829 129.47 426.499C129.771 426.393 130.94 425.041 130.973 424.985C131.044 424.935 130.904 425.219 131.202 424.938C131.301 424.908 132.599 422.828 132.215 423.629C132.146 423.804 131.454 424.761 131.273 424.976C131.849 424.57 132.474 423.086 132.548 422.933C132.925 422.323 132.001 424.206 132.816 422.811C133.405 421.711 132.764 422.696 132.935 422.248C133.043 422.005 133.714 420.758 133.529 420.729C133.682 420.271 133.667 420.566 133.694 420.513C133.725 420.463 133.98 419.546 134.092 419.255C134.107 419.221 134.16 419.358 134.177 419.323C134.216 419.257 134.426 418.354 134.422 418.313C134.422 418.289 134.297 418.487 134.299 418.394C134.308 418.285 134.499 417.419 134.481 417.367C134.467 417.293 134.273 418.373 134.222 418.173C134.355 417.693 134.432 416.864 134.401 416.53C134.412 416.614 134.345 417.096 134.308 417.261C134.203 417.161 134.344 416.134 134.396 416.499C134.371 416.265 134.323 416.417 134.288 416.283C134.28 416.247 134.312 415.931 134.295 415.867C134.292 415.859 134.21 416.181 134.191 416.112C134.164 415.991 134.25 415.027 134.261 414.944C134.309 414.721 134.304 415.519 134.349 415.587C134.358 415.599 134.508 414.929 134.516 414.916C134.62 414.883 134.498 415.638 134.592 415.557C134.626 415.372 134.657 415.185 134.686 414.995C134.751 415.733 134.529 417.066 134.56 417.424C134.724 416.357 134.794 415.218 135.026 415.234C135.125 415.242 135.147 415.718 135.172 415.704C135.269 415.641 135.216 414.971 135.22 414.945C135.226 414.925 135.232 414.916 135.237 414.916C135.237 414.916 135.237 414.916 135.237 414.916C135.294 414.922 135.266 415.87 135.279 415.922C135.314 416.008 135.526 415.594 135.563 415.599C135.573 415.613 135.547 416.305 135.637 416.08C135.731 415.851 135.776 415.248 135.782 415.226C135.835 415.113 135.788 416.177 135.803 416.21C135.814 416.23 135.942 415.662 135.963 415.647C135.987 415.632 135.996 416.078 136.043 416.255C136.08 416.389 136.158 416.019 136.158 416.086C136.165 416.133 136.037 417.149 136.033 417.197C136.035 417.273 136.13 417.045 136.139 417.082C136.155 417.131 136.081 417.46 136.11 417.42C136.141 417.392 136.512 416.139 136.558 416.149C136.657 416.171 136.273 417.527 136.796 416.285C136.8 416.276 136.804 415.959 136.806 415.95C136.891 415.76 136.91 416.787 136.996 415.542C136.895 417.862 137.117 415.846 137.242 416.202C137.295 416.339 137.205 417.254 137.209 417.257C137.299 417.181 137.279 416.884 137.329 416.789C137.36 416.739 137.326 417.561 137.404 417.387C137.45 417.3 137.551 416.421 137.556 416.389C137.642 416.049 137.652 416.478 137.696 416.406C137.727 416.36 137.778 415.824 137.782 415.811C137.795 415.789 137.824 416.525 137.838 416.677C137.851 416.795 137.94 416.37 137.942 416.451C137.963 416.946 137.635 417.947 138.018 416.991C138.042 416.932 138.081 416.551 138.084 416.542C138.18 416.315 138.107 417.014 138.143 417.147C138.213 417.377 138.29 416.358 138.248 417.208C138.396 416.584 138.432 416.228 138.465 415.49C138.345 417.533 138.465 418.322 138.725 416.011C138.653 416.748 138.798 416.674 138.775 416.899C138.766 417.039 138.463 418.08 138.854 417.639C138.905 417.582 138.943 416.925 138.996 417.14C138.746 418.705 139.049 417.18 139.055 417.18C139.31 417.233 138.353 421.044 138.061 421.666C137.831 422.413 137.69 423.119 137.622 423.276C137.393 423.796 137.515 423.334 137.438 423.439C137.376 423.549 136.785 425.057 136.725 425.117C136.544 425.377 136.622 425.054 136.602 425.081C136.392 425.406 135.278 427.263 134.854 427.719C134.918 427.743 135.65 426.753 135.269 427.431C134.813 428.216 134.568 428.084 134.547 428.097C133.473 429.38 132.333 430.543 130.664 431.537L130.908 431.377C130.452 431.7 130.282 431.746 130.074 431.844C129.869 431.931 129.704 431.991 129.544 432.047C129.223 432.158 128.913 432.25 128.631 432.327C128.045 432.488 127.486 432.616 126.935 432.734C125.836 432.967 124.745 433.157 123.663 433.329C123.716 433.467 126.104 432.95 126.165 432.945C126.497 433.014 122.459 433.693 121.961 433.691C122.35 433.665 122.713 433.642 123.1 433.613C122.479 433.867 121.042 433.863 120.126 434.047C119.837 434.106 120.406 434.095 120.4 434.099C120.071 434.203 119.535 434.222 119.924 434.092C119.108 434.272 119.231 434.169 118.598 434.238C118.565 434.241 118.844 434.272 118.346 434.357C118.126 434.396 116.882 434.534 116.724 434.606C116.659 434.636 117.312 434.811 117.362 434.594C118.73 434.543 117.786 434.45 118.306 434.395C118.381 434.387 118.224 434.527 119.529 434.313C119.302 434.556 117.773 434.575 117.507 434.629C116.976 434.743 119.207 434.6 119.59 434.382C119.416 434.57 119.758 434.385 120.241 434.33C120.79 434.267 120.558 434.347 120.851 434.309C121.643 434.204 121.313 434.131 121.975 434.146C121.287 433.914 123.108 433.943 123.64 433.942C122.797 434.09 121.958 434.227 121.111 434.356C121.159 434.367 121.211 434.378 121.263 434.388C121.038 434.416 120.825 434.441 120.599 434.468C120.633 434.447 120.667 434.426 120.7 434.405C119.572 434.659 119.27 434.571 119.183 434.581C117.985 434.712 116.596 434.865 115.396 434.986C115.206 435.005 115.362 435.099 114.02 435.145C113.603 435.158 113.989 435.038 113.516 435.095C112.941 435.376 112.924 435.196 112.753 435.212C112.254 435.257 111.942 435.341 111.895 435.345C111.423 435.394 110.834 435.441 110.249 435.491C110.033 435.509 109.826 435.527 109.636 435.544C109.623 435.546 109.995 435.586 109.536 435.601C109.375 435.607 107.925 435.42 106.662 435.577C106.988 435.581 107.324 435.582 107.652 435.583C107.259 435.588 104.56 435.772 105.224 435.823C105.628 435.859 106.619 435.623 106.732 435.8C105.832 435.827 100.837 435.974 100.435 435.887C100.381 435.88 100.711 435.827 100.638 435.818C100.588 435.813 99.4216 435.797 99.2787 435.766C99.1895 435.75 99.6931 435.73 99.6535 435.707C99.6229 435.695 98.1823 435.61 98.0947 435.676C98.4498 435.667 99.4444 435.732 98.9179 435.774C98.8494 435.779 98.5046 435.715 98.4242 435.721C97.6675 435.779 99.9192 435.857 100.277 435.857C98.8493 435.924 96.6664 435.698 94.9858 435.578C94.3181 435.447 95.9985 435.585 95.2385 435.457C93.6822 435.183 94.8093 435.498 94.7592 435.501C94.3625 435.526 93.062 435.016 93.0292 435.264C92.4608 435.14 92.6509 435.141 91.8293 435.035C91.9333 435.071 92.0461 435.108 92.1453 435.143C91.2206 435.158 89.3322 434.336 89.4956 434.336C89.9052 434.367 90.8893 434.7 90.9692 434.71C91.0983 434.728 91.4943 434.562 92.829 435.003C93.4132 434.928 90.6725 434.52 91.9365 434.619C91.1018 434.55 87.6436 433.544 87.0251 433.268C86.947 433.237 87.2234 433.579 86.2608 433.018C86.0259 432.871 86.2029 432.955 86.4144 433.048C86.6077 433.132 86.8431 433.224 86.7436 433.158C86.6625 433.103 86.4604 433.003 86.1213 432.808C85.7709 432.573 85.3436 432.449 84.5502 431.516L84.7189 431.711C82.9576 429.922 80.1646 426.357 79.5755 425.445C79.5213 425.368 79.5852 425.366 79.5318 425.289C79.3664 425.056 78.7183 424.235 78.4645 423.789C78.9569 424.735 77.8301 423.007 77.5769 422.548C77.1811 421.858 77.2906 421.851 77.1348 421.546C76.5327 420.371 75.3837 418.666 75.1281 417.652C74.9616 417.795 74.4532 416.017 74.1292 415.261C73.8685 414.67 73.3772 413.857 73.6426 414.695C73.2087 413.663 72.7355 412.585 72.3552 411.608C72.2924 411.447 72.4336 411.649 72.325 411.374C72.3148 411.349 72.2451 411.336 72.1514 411.099C71.3918 409.147 71.8617 410.062 71.7656 409.681C71.714 409.468 71.6719 409.311 71.6372 409.198C72.0361 410.348 72.552 411.656 72.6899 412.006C72.6908 411.662 71.7318 409.482 71.5555 408.807C71.5491 408.783 71.6453 408.84 71.6381 408.816C71.6379 408.816 71.6377 408.815 71.6376 408.815C71.5559 408.568 71.0286 406.996 71.049 407.347C71.0541 407.441 71.2807 408.171 71.5779 409.028C71.4842 408.801 71.4646 409 71.4475 408.96C71.239 408.475 70.9249 407.223 70.8052 406.784C70.7772 406.683 70.729 406.706 70.7239 406.689C70.6157 406.288 70.8086 406.409 70.5393 406.045C70.5054 405.272 70.9685 407.385 71.0454 407.203C71.0682 407.071 69.7421 402.481 69.6313 402.523C69.6426 402.503 69.6457 402.434 69.635 402.298C69.6088 401.996 69.2895 400.706 69.2151 400.488C69.2013 400.452 69.0649 400.498 69.0531 400.452C69.0208 400.337 68.7865 398.721 68.5894 398.144C68.6336 398.469 68.6796 398.794 68.7272 399.12C68.3284 397.18 68.3566 397.488 68.4393 398.143C68.4453 398.175 68.4463 398.208 68.4519 398.239C68.5204 398.746 68.6266 399.396 68.6178 399.408C68.57 399.455 67.9048 396.157 68.1615 396.768C68.1931 396.854 68.43 398.391 68.3769 397.618C68.3666 397.484 68.1564 396.505 68.1586 396.452C68.1605 396.096 68.6552 398.22 68.7048 397.937C68.5105 397.44 68.4327 396.761 68.3028 396.17C68.2437 395.901 68.1616 395.847 68.1543 395.813C68.049 395.316 68.172 395.584 68.1414 395.418C68.1237 395.329 67.803 394.368 68.0521 394.519C67.3937 391.285 67.7316 393.645 68.0874 395.638C67.8976 395.024 67.7371 393.775 67.6378 393.222C67.6015 393.024 67.5458 393.153 67.482 392.818C67.3381 392.13 67.0113 388.793 66.9577 387.923C67.0378 388.452 67.1016 388.288 67.0546 387.878C67.0084 387.469 66.9358 387.824 66.9164 387.745C66.8926 387.664 66.7682 385.724 66.7336 385.405C66.8921 386.857 66.943 386.52 66.8521 385.288C66.8889 385.464 66.9262 385.64 66.9639 385.816C66.8693 385.097 66.887 383.572 66.8278 383.155C66.8179 383.089 66.765 383.329 66.7595 383.292C66.7064 382.925 66.7103 381.686 66.6857 381.624C66.6641 381.577 66.634 382.11 66.5964 381.915C66.5887 381.878 66.6536 381.353 66.6106 380.848C66.5946 380.661 66.5356 380.776 66.53 380.729C66.4841 380.337 66.599 380.564 66.5569 379.848C66.5272 379.328 66.4103 378.929 66.4298 378.199C66.3572 380.612 66.3546 378.577 66.3005 377.582C66.2922 377.421 66.176 377.565 66.2234 376.603C66.4552 378.64 66.3239 376.018 66.3326 375.48C66.3334 375.45 66.4094 375.44 66.4115 375.178C66.4115 375.156 66.3597 375.188 66.357 374.945C66.3421 372.622 66.3865 374.107 66.442 373.667C66.4653 373.476 66.4159 372.356 66.4241 372.053C66.4259 371.983 66.4783 372.016 66.4845 371.743C66.4953 371.261 66.4543 370.831 66.4625 370.518C66.4639 370.482 66.5474 370.482 66.5462 369.892C66.5463 369.721 66.5254 369.528 66.4898 369.769C66.3719 370.541 66.4573 372.078 66.3614 372.952C66.2693 373.765 66.3245 371.194 66.3355 371.056C66.3369 371.006 66.3611 371.512 66.3875 371C66.41 370.563 66.2969 369.773 66.3633 369.112C66.3679 369.061 66.5197 368.548 66.5257 368.573C66.5292 368.594 66.5141 369.396 66.5561 369.282C66.5607 369.267 66.5865 368.759 66.617 368.695C66.6538 368.616 66.984 368.417 66.9983 368.311C67.0341 368.038 66.951 368.212 66.9667 368.035C66.9977 367.662 67.1868 366.316 67.0811 366.273C67.0581 366.49 67.0356 366.709 67.0136 366.93C67.0907 365.706 67.0071 366.226 66.999 366.052C66.9912 365.864 67.083 365.929 67.1257 365.516C67.1325 365.417 67.2688 363.693 67.2275 363.727C67.2017 364.673 67.1165 364.316 67.11 364.358C67.0868 364.524 67.1345 364.743 67.1136 364.969C66.9691 366.569 66.9977 364.945 66.9391 365.321C66.9189 365.451 66.9551 365.715 66.9482 365.766C66.9249 365.939 66.8497 365.936 66.8467 366.053C66.8399 366.327 66.9704 366.017 66.9743 366.039C67.021 366.285 66.8697 367.246 66.7972 366.636C66.7297 366.994 66.8673 367.047 66.7917 367.332C66.6428 367.902 66.7277 367.038 66.7263 366.807C66.7203 365.972 66.7897 365.744 66.8761 364.556C66.9077 364.131 66.8868 363.643 66.9037 363.438C66.9129 363.306 67.2747 362.164 66.9098 362.093C66.994 361.664 67.3276 360.948 67.3763 360.491C67.4204 360.075 67.2728 360.19 67.2728 360.151C67.2719 360.094 67.3515 359.587 67.3586 359.407C67.3659 359.2 67.3015 359.294 67.3279 358.97C67.395 358.171 67.5262 358.221 67.5469 358.141C67.8017 357.186 67.5457 357.583 67.5653 357.366C67.5717 357.3 67.6355 356.946 67.722 356.503L68.1101 354.707L69.6929 354.296C70.5794 354.044 71.872 353.7 72.2299 353.568C72.0125 353.656 71.7949 353.746 71.5772 353.835C72.0025 353.802 72.3918 353.552 72.4413 353.694C72.4597 353.437 73.3431 353.364 73.5923 353.292C73.6907 353.263 73.6723 353.225 73.7959 353.19C74.2764 353.054 75.3811 352.804 75.6423 352.718C76.7652 352.342 73.8008 352.936 73.574 352.996C74.0269 352.871 76.6295 352.159 75.3987 352.348C75.2081 352.378 74.9046 352.567 74.8009 352.598C74.1062 352.807 74.6334 352.57 74.5758 352.575C74.479 352.585 74.0422 352.796 73.9176 352.817C73.8759 352.825 74.1156 352.67 73.4455 352.846C73.7506 352.672 75.6578 352.253 75.903 352.176C75.9887 352.148 75.3945 352.102 77.051 351.883C77.0284 351.871 77.0057 351.859 76.9831 351.847C77.8883 351.623 78.7963 351.408 79.6965 351.204C79.6052 351.264 79.1157 351.452 79.7519 351.296C80.1222 351.205 79.8283 351.18 79.8617 351.17C80.1888 351.043 86.0973 349.926 87.2484 349.767C87.643 349.699 88.7226 349.463 88.8045 349.45C89.2959 349.366 91.0835 349.163 91.4259 349.112C91.6452 349.077 91.4259 349.032 91.6249 349.01C91.8103 348.989 91.6277 349.084 91.683 349.079C92.1438 349.035 95.5575 348.556 96.3823 348.558C95.8784 348.579 93.4037 348.986 93.4654 349.033C93.4751 349.039 94.085 349.024 94.2085 348.984C94.4223 349.021 95.1105 348.762 95.4958 348.761C95.5397 348.761 95.3787 348.88 96.0633 348.833C96.3028 348.816 96.9199 348.677 97.5475 348.715C98.4492 348.571 103.202 348.429 103.534 348.325C103.544 348.319 102.871 348.308 103.323 348.243C103.922 348.159 103.392 348.384 104.089 348.377C104.19 348.372 106.157 348.302 106.211 348.292C106.798 348.166 105.1 348.151 105.12 348.14C105.182 348.103 106.59 348.055 106.657 348.064C106.713 348.071 105.543 348.24 106.949 348.163C106.789 348.147 106.628 348.131 106.466 348.115C107.128 348.07 107.189 348.177 107.348 348.181C107.837 348.198 108.374 348.036 109.167 348.239C109.376 348.294 109.029 348.349 109.055 348.357C109.305 348.43 109.625 348.244 109.996 348.39C110.029 348.402 109.137 348.47 110.687 348.498C110.582 348.482 110.476 348.467 110.369 348.451C110.594 348.422 112.134 348.446 112.354 348.464C112.966 348.508 112.43 348.584 113.041 348.597C112.649 348.445 114.529 348.516 114.413 348.628C114.674 348.496 116.266 348.709 117.012 348.778C117.493 348.818 118.444 348.845 118.605 348.87C118.788 348.898 118.723 348.989 119.05 349.046C119.134 349.06 120.148 349.097 120.979 349.311C121.149 349.353 121.482 349.566 121.161 349.565C120.619 349.562 119.637 349.311 119.631 349.411C119.65 349.516 120.977 349.614 121.361 349.685C123.015 349.987 122.038 349.961 122.077 349.999C122.176 350.095 123.103 350.24 123.133 350.254C123.284 350.312 122.633 350.271 122.613 350.32C122.596 350.382 123.439 350.642 123.239 350.631C122.962 350.614 122.162 350.389 122.104 350.386C121.442 350.352 122.32 350.634 122.567 350.75C122.64 350.784 122.329 350.773 122.391 350.79C123.335 351.044 122.632 350.612 123.256 350.738C123.84 350.858 123.067 350.824 123.098 350.836C123.112 350.843 123.818 350.972 123.911 351.027C123.958 351.046 122.163 350.94 122.218 351.043C122.793 351.112 123.347 351.186 123.918 351.272C123.948 351.391 123.133 351.161 123.057 351.162C122.888 351.157 123.341 351.292 123.319 351.325C123.298 351.344 122.743 351.331 123.23 351.448C123.405 351.491 123.777 351.473 124.376 351.673C122.204 351.375 123.691 351.714 123.746 351.764C123.8 351.814 122.762 351.72 124.001 351.931C124.011 352.157 123.965 351.994 123.606 351.968C123.167 351.939 124.146 352.178 122.583 351.858C122.648 351.969 123.929 352.187 123.982 352.209C124.038 352.227 123.754 352.225 123.848 352.26C124.992 352.685 124.198 352.438 124.515 352.63C124.549 352.646 125.621 352.926 124.792 352.766C123.252 352.482 122.626 352.252 122.32 352.515C123.431 352.824 124.844 352.908 125.182 352.985C125.716 353.1 125.151 353.037 125.213 353.07C125.237 353.08 125.688 353.179 125.69 353.186C125.962 353.483 123.692 352.743 122.922 352.673C123.121 352.743 123.317 352.814 123.507 352.885C123.244 352.838 122.951 352.789 122.697 352.748C123.974 353.041 122.726 352.777 122.391 352.92C122.313 352.951 123.157 353.014 122.187 352.978C122.889 353.12 122.641 353.118 123.302 353.179C123.268 353.247 121.814 353.091 121.252 353.056C123.24 353.448 122.144 352.981 123.833 353.438C124.16 353.403 123.359 353.27 123.423 353.267C123.665 353.253 124.231 353.45 124.924 353.398C125.044 353.391 124.587 353.186 125.294 353.349C125.374 353.367 125.782 353.553 125.772 353.557C125.703 353.609 125.283 353.484 125.256 353.508C125.236 353.529 125.715 353.626 125.712 353.633C125.708 353.718 125.312 353.571 125.365 353.611C125.471 353.693 127.157 354.286 124.92 353.701C126.796 354.044 125.191 353.654 124.448 353.542C124.259 353.513 124.203 353.552 123.924 353.515C123.584 353.472 123.187 353.376 123 353.353C122.809 353.331 123.877 353.632 122.308 353.332C123.088 353.573 124.525 353.718 125.281 353.984C126.766 354.511 124.171 353.929 123.862 353.907C123.785 353.897 124.027 354.013 123.975 354.008C123.891 353.991 122.379 353.688 122.224 353.726C122.069 353.757 122.77 353.813 122.813 353.881C122.847 353.921 120.982 353.699 121.987 353.883C122.664 354.004 123.939 354.081 124.127 354.297C123.135 354.11 122.122 353.955 121.112 353.825C121.636 353.965 122.209 354.12 122.726 354.276C121.622 354.107 120.613 353.891 119.544 353.856C122.103 354.39 118.674 353.909 118.639 353.945C118.619 353.957 119.631 354.242 119.787 354.294C118.867 354.233 116.131 354.017 117.707 354.372C117.423 354.297 116.71 354.351 116.716 354.361C116.802 354.457 118.34 354.544 118.083 354.603C117.777 354.669 117.388 354.5 116.941 354.472C114.631 354.342 115.238 354.864 112.927 354.67C112.971 354.689 113.016 354.709 113.06 354.728C110.556 354.587 108.029 354.54 105.501 354.573C104.496 354.737 101.904 354.935 100.596 355.011C100.342 355.022 99.0607 355.038 98.96 355.034C98.779 355.021 99.7637 354.937 99.315 354.922C99.2132 354.915 97.0609 355.064 97.2189 355.136C97.4637 355.123 98.215 355.017 98.3388 355.026C99.223 355.06 92.5684 355.618 92.2417 355.76C92.3888 355.768 92.5437 355.775 92.6941 355.783C92.2663 355.824 91.8587 355.864 91.4379 355.909ZM110.867 348.176C111.139 348.099 111.791 348.179 112.199 348.17C112.754 348.156 113.683 347.881 113.274 348.181C112.483 348.171 111.659 348.168 110.867 348.176ZM99.1667 348.358C99.7037 348.364 99.3033 348.569 98.8586 348.529C98.8091 348.524 98.4369 348.352 99.1667 348.358ZM104.787 348.158C104.765 348.161 104.295 348.171 104.279 348.169C103.859 348.11 105.269 348.082 104.787 348.158ZM77.9519 351.758C78.5257 351.618 78.0731 351.556 77.7292 351.705C77.7076 351.714 77.9141 351.767 77.9519 351.758ZM78.3621 351.668C78.8406 351.706 79.6716 351.222 78.9659 351.409C78.8975 351.427 78.34 351.665 78.3621 351.668ZM101.079 348.304C101.022 348.363 100.465 348.369 100.225 348.372C100.229 348.32 100.848 348.323 101.079 348.304ZM87.1563 349.853C87.143 349.896 89.0384 349.599 89.1549 349.528C88.8646 349.592 87.1743 349.808 87.1563 349.853ZM82.324 350.787C82.3739 350.785 83.0249 350.645 82.9983 350.612C82.6705 350.624 82.1009 350.797 82.324 350.787ZM72.8095 353.024C72.777 353.043 73.3223 353.145 72.1408 353.304C71.9674 353.328 72.5475 353.101 72.486 353.109C72.3568 353.127 72.2561 353.146 72.1765 353.167C72.7031 353 73.2508 352.843 73.3078 352.843C73.5758 352.843 72.8241 353.015 72.8095 353.024ZM67.2417 358.257C67.2636 358.371 67.1357 359.083 67.0962 359.25C67.0891 359.278 67.003 359.137 66.964 359.47C66.9335 359.736 67.094 359.357 67.0065 359.868C66.9219 360.366 66.9358 359.691 66.9257 359.727C66.9091 359.789 66.8541 360.573 66.7956 360.544C66.7522 360.513 66.892 359.696 66.9156 359.464C66.9419 359.188 66.8183 359.509 66.9002 359.055C66.9518 358.772 67.0628 358.949 67.0783 358.89C67.0904 358.837 67.1623 357.856 67.2411 358.258C67.2413 358.258 67.2415 358.257 67.2417 358.257ZM72.0358 353.212C72.0742 353.197 72.119 353.182 72.1765 353.167C72.1283 353.182 72.0823 353.197 72.0358 353.212ZM109.312 348.211C109.037 348.166 109.853 348.12 110.173 348.181C110.171 348.224 109.358 348.217 109.312 348.211ZM71.5793 353.455C70.7899 353.644 71.3517 353.434 72.0358 353.212C71.8229 353.298 71.844 353.392 71.5793 353.455ZM94.2085 348.984C94.1731 348.978 94.1495 348.965 94.1439 348.939C94.2374 348.957 94.2471 348.972 94.2085 348.984ZM92.3186 349.158C91.6803 349.317 92.9958 349.151 92.9794 349.097C92.9734 349.076 92.3446 349.152 92.3186 349.158ZM77.21 351.924C77.2708 351.918 76.4243 352.363 77.6929 351.879C76.9851 352.017 77.7192 351.817 77.7035 351.8C77.6581 351.748 76.5039 352.082 76.2403 352.122C76.064 352.275 77.0144 351.944 77.2085 351.925C77.209 351.925 77.2095 351.925 77.21 351.924ZM66.1962 367.509C66.144 367.338 66.1994 366.816 66.2289 366.468C66.2794 366.635 66.2226 367.153 66.1962 367.509ZM109.096 435.654C106.699 435.874 106.373 435.628 108.574 435.594C108.619 435.594 109.239 435.618 109.096 435.654ZM88.02 434.158C87.8042 433.971 88.6406 434.227 89.142 434.403C89.2615 434.447 89.6741 434.67 89.1619 434.559C89.2093 434.434 88.4518 434.173 88.02 434.158ZM71.1581 353.649C70.9516 353.785 70.2367 353.937 69.8629 354.037C70.0717 353.911 70.8263 353.719 71.1581 353.649ZM101.162 435.781C100.905 435.769 100.732 435.863 100.776 435.872C100.972 435.912 101.456 435.839 101.162 435.781ZM73.4274 353.032C73.4713 353.066 72.5495 353.36 72.4547 353.273C72.6572 353.225 73.3974 353.011 73.4274 353.032ZM66.2743 366.845C66.3071 366.695 66.2934 367.482 66.2568 367.719C66.2102 367.699 66.2522 366.941 66.2743 366.845ZM97.0272 435.651C96.7908 435.627 96.2285 435.58 96.153 435.612C96.075 435.656 96.913 435.705 97.0272 435.651ZM137.552 424.424C137.586 424.404 137.251 425.341 136.994 425.709C136.529 426.405 137.551 424.456 137.552 424.424ZM103.579 435.723C104.302 435.802 103.5 435.728 103.532 435.824C104.018 435.822 105.219 435.791 104.388 435.719C104.224 435.705 103.813 435.726 103.579 435.723ZM102.914 435.7C102.837 435.732 102.326 435.834 102.769 435.824C102.974 435.82 103.306 435.705 102.914 435.7ZM134.089 429.504C133.553 430.006 135.794 427.494 135.803 427.387C135.839 427.351 135.864 427.328 135.88 427.316C135.931 427.202 136.278 426.68 136.374 426.654C136.267 426.811 135.981 427.24 135.939 427.284C135.922 427.303 135.908 427.317 135.898 427.326C135.85 427.564 134.233 429.434 134.089 429.504ZM128.833 432.787C129.594 432.44 129.878 432.546 129.791 432.589C128.844 432.994 129.432 432.632 129.399 432.637C129.319 432.653 128.717 432.902 128.836 432.786C128.835 432.786 128.834 432.786 128.833 432.787ZM133.234 430.296C133.262 430.272 133.785 429.777 133.804 429.757C134.282 429.397 132.791 430.801 133.234 430.296ZM66.8777 362.141C66.808 362.573 66.7763 362.137 66.8377 361.854C66.8433 361.832 66.9398 361.762 66.8777 362.141ZM102.563 435.724C102.448 435.72 99.8319 435.631 99.9748 435.745C100.204 435.752 103.2 435.824 102.563 435.724ZM82.6769 430.035C82.9876 430.394 82.5621 430.078 82.4292 429.857C82.3799 429.775 82.5988 429.945 82.6769 430.035ZM74.7063 352.802C75.1542 352.623 75.109 352.849 74.6913 352.883C74.6751 352.884 74.689 352.809 74.7063 352.802ZM86.0154 433.233C84.9923 432.765 84.294 431.864 84.6705 432.16C85.0268 432.443 85.9894 433.057 87.1109 433.552C87.0297 433.536 86.9493 433.52 86.8695 433.504C89.51 434.527 87.0954 433.686 86.3512 433.318C86.0747 433.19 86.2782 433.36 86.0172 433.234C86.0166 433.234 86.016 433.233 86.0154 433.233ZM81.0958 428.101C80.3328 426.704 82.0364 429.178 82.6442 429.8C82.0199 429.233 81.3413 428.375 82.206 429.588C80.8069 427.926 81.4692 428.555 81.417 428.485C81.3604 428.4 81.1284 428.161 81.0958 428.101ZM83.7927 431.271C83.8539 431.328 84.2232 431.786 84.4239 431.995L84.2273 431.768C84.2778 431.832 84.3241 431.887 84.3648 431.933C84.3212 431.891 84.2715 431.839 84.2173 431.775L84.4147 432.004C84.0718 431.745 83.3704 430.883 83.7927 431.271ZM123.653 433.89C123.7 433.813 123.821 433.745 124.352 433.683C124.187 433.745 123.872 433.826 123.653 433.89ZM111.362 348.546C111.712 348.56 112.45 348.611 112.226 348.532C112.201 348.524 111.361 348.505 111.362 348.546ZM94.8649 435.311C94.8013 435.306 92.7406 435.032 93.4423 435.2C93.6565 435.261 95.51 435.457 94.8649 435.311ZM105.302 435.62C105.141 435.626 104.452 435.659 104.44 435.675C104.394 435.733 105.236 435.677 105.302 435.62ZM113.184 348.68C113.221 348.687 114.346 348.731 114.222 348.692C113.994 348.616 113.018 348.648 113.184 348.68ZM66.8683 363.757C66.862 363.847 66.777 363.96 66.7732 363.991C66.7627 364.057 66.6438 365.757 66.6053 365.1C66.5929 364.985 66.8631 362.568 66.9148 362.255C67.0285 362.143 66.8203 363.166 66.8059 363.429C66.8035 363.473 66.8842 363.517 66.868 363.756C66.8681 363.756 66.8682 363.757 66.8683 363.757ZM126.379 433.34C126.438 433.275 128.464 432.779 128.479 432.839C127.752 433.037 127.065 433.195 126.379 433.34ZM125.359 433.521C124.932 433.551 125.913 433.361 126.221 433.319C126.229 433.363 125.426 433.517 125.359 433.521ZM101.51 435.435C101.311 435.45 101.921 435.547 101.785 435.565C101.698 435.576 101.248 435.538 101.102 435.565C101.059 435.574 101.527 435.667 101.654 435.664C101.841 435.66 101.66 435.589 101.865 435.59C102.553 435.59 103.147 435.634 103.797 435.62C103.855 435.619 103.405 435.578 103.897 435.57C103.972 435.568 104.424 435.632 105.02 435.602C106.303 435.331 107.265 435.509 108.902 435.313C108.836 435.298 107.605 435.32 107.538 435.32C106.166 435.37 103.703 435.448 102.256 435.442C101.884 435.442 102.064 435.49 101.905 435.491C101.779 435.492 101.927 435.404 101.51 435.435ZM111.17 348.59C111.338 348.683 111.94 348.644 112.333 348.663C112.199 348.578 111.54 348.619 111.17 348.59ZM116.536 434.649C116.334 434.674 115.761 434.707 115.71 434.739C115.656 434.78 116.492 434.714 116.536 434.649ZM66.3014 373.241C66.3033 373.26 66.2907 373.725 66.2879 373.743C66.2097 374.157 66.248 372.762 66.3014 373.241ZM66.5638 384.349C66.599 384.697 66.6534 385.048 66.5907 385.172C66.584 384.947 66.5106 384.311 66.5638 384.349ZM68.6746 399.566C68.7504 399.475 68.9186 400.53 68.9566 400.728C68.8978 400.666 68.6181 399.633 68.6746 399.566ZM123.53 433.609C124.181 433.512 124.012 433.394 124.438 433.389C124.506 433.389 124.776 433.647 124.041 433.654C123.91 433.654 124.401 433.506 123.53 433.609ZM87.4876 433.7C87.7029 433.716 88.2575 433.924 88.6255 434.036C88.5273 434.058 87.7782 433.809 87.4876 433.7ZM115.175 348.858C115.488 348.963 116.884 349.003 116.543 348.919C116.499 348.906 115.381 348.873 115.175 348.858ZM67.785 356.577C67.771 356.835 67.8094 356.741 67.8557 356.527L68.2251 354.817L69.7317 354.426C69.9964 354.357 70.43 354.218 70.6186 354.125C70.4802 354.169 69.9058 354.314 69.7144 354.368L68.1738 354.768L67.796 356.516C67.7893 356.549 67.7853 356.571 67.785 356.577ZM68.0176 395.922C68.0248 395.949 68.1266 396.556 68.1287 396.584C68.1464 397.094 67.8581 395.375 68.0176 395.922ZM66.4776 380.69C66.5412 380.909 66.5641 382.363 66.5275 382.687C66.4225 382.385 66.3926 380.417 66.4776 380.69ZM120.896 434.027C121.35 433.964 121.781 433.923 122.213 433.886C122.124 433.949 120.941 434.059 120.896 434.027ZM68.4393 398.143C68.4453 398.175 68.4463 398.208 68.4519 398.239C68.4474 398.206 68.4434 398.174 68.4393 398.143ZM110.708 435.064C110.323 435.077 110.409 435.158 110.433 435.159C110.727 435.163 111.142 435.048 110.708 435.064ZM111.606 348.733C111.732 348.816 112.402 348.776 112.773 348.81C112.67 348.742 111.907 348.733 111.606 348.733ZM80.2094 426.661C79.98 426.209 81.2735 427.783 81.5046 428.146C81.4768 428.21 80.2365 426.732 80.2094 426.661ZM71.4094 353.997C71.4639 354.046 72.2372 353.75 72.0607 353.769C71.9491 353.781 71.3767 353.966 71.4094 353.997ZM82.1205 428.967C82.2565 429.103 82.4974 429.485 82.3674 429.388C82.1999 429.264 82.0846 428.932 82.1205 428.967ZM98.6318 435.305C98.5561 435.294 97.4329 435.296 97.8911 435.385C98.2094 435.447 98.2694 435.36 98.3412 435.363C98.4148 435.37 100.21 435.551 98.6318 435.305ZM74.4959 416.866C74.6965 417.236 74.8927 417.706 75.0904 418.099C74.9742 417.957 74.5239 417.05 74.4959 416.866ZM67.6818 358.01C67.7052 357.949 67.8714 357.001 67.947 356.543L68.3036 354.893L69.7582 354.515C70.0556 354.42 70.1674 354.373 69.7456 354.472L68.2662 354.857L67.9034 356.535C67.8906 356.588 67.8759 356.651 67.8594 356.723C67.8379 356.797 67.5557 358.304 67.6818 358.01ZM123.53 433.609C123.444 433.622 123.354 433.633 123.246 433.643C123.353 433.629 123.443 433.619 123.53 433.609ZM116.26 434.523C116.4 434.463 115.671 434.527 115.449 434.574C115.389 434.636 116.244 434.531 116.26 434.523ZM75.1619 418.101C75.2977 418.316 75.4811 418.74 75.6287 419.017C75.5656 418.99 75.1708 418.218 75.1619 418.101ZM69.3239 401.452C69.4133 401.941 69.5722 402.533 69.6247 402.53C69.6194 402.542 69.6169 402.567 69.6183 402.608C69.6197 402.65 69.7733 403.16 69.8149 403.388C70.0322 404.763 68.5001 398.203 69.5444 401.965C69.4704 401.794 69.3969 401.623 69.3239 401.452ZM66.5357 378.728C66.5908 378.444 66.4979 377.663 66.477 377.867C66.4614 378.007 66.479 379.011 66.5357 378.728ZM67.3095 389.481C67.3103 389.396 67.1824 388.636 67.1481 388.62C67.1596 389.064 67.3016 389.867 67.3095 389.481ZM66.5749 376.578C66.583 376.4 66.4808 376.175 66.4765 376.196C66.4401 376.376 66.5209 376.876 66.5749 376.578ZM122.162 433.537C121.89 433.548 121.081 433.732 120.913 433.821C120.879 433.813 120.788 433.808 120.62 433.809C120.621 433.809 120.621 433.809 120.622 433.809C120.387 433.838 113.754 434.544 118.216 434.177C118.355 434.165 118.151 434.128 118.73 434.071C118.768 434.067 118.792 434.114 118.908 434.102C119.163 434.079 120.606 433.929 120.882 433.851C120.886 433.86 120.905 433.866 120.945 433.869C121.308 433.893 122.365 433.532 122.162 433.537ZM67.5012 390.987C67.4992 390.832 67.4219 390.349 67.3732 390.304C67.3806 390.547 67.5048 391.349 67.5012 390.987ZM67.8708 357.951C67.9567 357.63 68.0256 356.834 67.9502 357.066C67.9029 357.2 67.7709 358.314 67.8708 357.951ZM66.961 386.124C67.0699 387.931 67.0028 386.555 67.0904 386.825C67.0465 386.591 67.0034 386.358 66.961 386.124ZM131.057 431.479C130.718 431.667 131.047 431.33 131.406 431.163C131.521 431.11 131.237 431.378 131.057 431.479ZM138.855 419.49C138.691 419.727 139.031 418.464 138.999 418.977C138.998 419 138.864 419.473 138.855 419.49ZM134.405 428.377C134.321 428.59 134.239 428.71 133.797 429.154C134.407 428.459 133.785 429.052 134.405 428.377ZM69.6313 402.523C69.6291 402.526 69.6276 402.53 69.6247 402.53C69.6265 402.526 69.6287 402.524 69.6313 402.523ZM66.5538 374.885C66.6186 374.666 66.6207 374.03 66.5543 374.218C66.5479 374.239 66.5068 374.795 66.5538 374.885ZM120.913 433.821C120.944 433.829 120.93 433.838 120.882 433.851C120.879 433.843 120.891 433.833 120.913 433.821ZM66.6313 378.27C66.5823 378.248 66.5873 379.214 66.5949 379.254C66.6937 379.804 66.641 378.667 66.6313 378.27ZM74.5943 353.4C74.6407 353.383 74.3028 353.343 74.1264 353.44C73.9902 353.514 74.4212 353.464 74.5943 353.4ZM135.642 426.702C135.831 426.426 136.087 426.021 136.181 425.978C136.059 426.165 135.674 426.735 135.642 426.702ZM138.655 419.968C138.626 420.372 138.374 421.234 138.168 421.779C138.09 421.76 138.597 420.339 138.655 419.968ZM122.985 433.451C122.957 433.452 122.201 433.535 122.312 433.58C122.471 433.648 123.206 433.451 122.985 433.451ZM73.1513 353.716C72.833 353.845 73.6243 353.763 73.9447 353.576C74.1099 353.479 73.2055 353.693 73.1513 353.716ZM66.6644 372.914C66.6387 372.465 66.553 373.575 66.6153 373.734C66.6233 373.526 66.6732 373.073 66.6644 372.914ZM67.3356 388.201C67.3763 386.773 67.1215 387.573 67.1751 387.82C67.1826 387.855 67.3348 388.236 67.3356 388.201ZM118.688 349.514C118.896 349.509 118.14 349.341 118.04 349.393C117.97 349.424 118.559 349.516 118.688 349.514ZM71.6372 409.198C71.6172 409.141 71.5973 409.084 71.5779 409.028C71.5949 409.069 71.6146 409.125 71.6372 409.198ZM67.0624 368.844C66.7523 369.83 66.9587 369.741 66.9529 369.827C66.9413 370.016 66.853 370.438 66.8511 370.791C66.8376 370.384 66.8252 369.998 66.8161 369.579C66.774 369.895 66.5851 372.678 66.633 372.727C66.6902 372.81 66.6934 371.947 66.7003 371.916C66.7089 371.879 66.8786 371.746 66.8874 371.664C66.8968 371.524 66.9949 369.221 67.0624 368.844ZM67.0401 385.248C67.0382 385.476 66.9781 385.546 67.0022 385.651C67.0105 385.686 67.0733 385.687 67.0996 385.809C67.0793 385.621 67.0595 385.435 67.0401 385.248ZM66.9403 367.048C67.0354 366.767 66.9216 368.047 66.9128 368.077C66.8474 368.291 66.8605 367.279 66.9403 367.048ZM66.6778 377.79C66.6805 377.742 66.6921 376.78 66.6505 376.785C66.6187 377.041 66.6311 378.336 66.6778 377.79ZM67.1165 385.96C67.1372 386.302 67.1332 386.956 67.2205 386.873C67.2205 386.872 67.2204 386.872 67.2204 386.871C67.1845 386.567 67.1499 386.263 67.1165 385.96ZM72.0797 354.218C72.7239 354.194 72.3876 354.09 71.8385 354.194C71.6944 354.305 71.974 354.222 72.0797 354.218ZM74.0603 353.794C74.2332 353.773 75.9805 353.295 75.6942 353.287C75.5916 353.283 74.5965 353.612 74.5523 353.619C74.4802 353.629 74.7779 353.46 74.2475 353.617C74.2864 353.638 74 353.801 74.0603 353.794ZM72.6079 354.171C73.2461 354.113 73.3269 353.874 72.8697 353.998C72.6909 354.046 72.5167 354.179 72.6079 354.171ZM70.1408 354.858C70.3643 354.813 70.9511 354.671 71.3295 354.49C70.8454 354.623 70.3599 354.76 69.8731 354.899L68.6436 355.219L68.3422 356.614C68.3327 356.664 68.3232 356.714 68.3137 356.764C68.3299 356.804 68.3471 356.726 68.3688 356.618L68.6665 355.241L69.8808 354.925C69.9614 354.903 70.0587 354.875 70.1422 354.858C70.1418 354.858 70.1413 354.858 70.1408 354.858ZM138.788 415.865C138.688 416.386 138.757 415.175 138.768 415.12C138.825 414.969 138.836 415.635 138.788 415.865ZM122.317 351.909C122.45 351.955 122.527 352.046 122.826 352.054C122.542 351.948 122.25 351.843 121.948 351.739C121.689 351.834 122.173 351.86 122.317 351.909ZM123.377 352.579C123.333 352.575 123.534 352.816 123.003 352.585C122.653 352.426 124.68 352.704 124.997 352.878C124.613 352.835 123.738 352.615 123.377 352.579ZM126.585 354.199C126.595 354.216 125.896 354.053 125.799 354.02C125.362 353.848 126.507 354.079 126.585 354.199ZM124.281 353.61C124.627 353.72 123.826 353.583 123.62 353.524C123.6 353.48 124.228 353.592 124.281 353.61ZM134.943 420.24C134.697 420.547 134.868 420.956 134.996 420.396C135.003 420.369 134.955 420.227 134.943 420.24ZM125.837 354.212C125.499 354.086 126.277 354.255 126.468 354.335C126.483 354.377 125.895 354.231 125.837 354.212ZM134.549 420.381C134.298 420.8 134.666 420.753 134.7 420.701C134.839 420.485 134.973 419.62 134.982 419.446C134.666 420.688 134.66 420.178 134.549 420.381ZM133.89 422.512C133.725 422.935 134.289 421.922 134.279 421.681C134.2 421.887 133.939 422.393 133.89 422.512ZM132.426 424.793C132.284 424.982 131.829 425.531 131.795 425.651C131.952 425.448 132.416 424.907 132.426 424.793ZM131.982 425.135C131.703 425.383 131.811 425.582 132.023 425.205C132.031 425.191 131.994 425.126 131.982 425.135ZM130.581 426.637C130.359 426.742 130.297 427.079 130.582 426.812C130.664 426.733 130.606 426.626 130.581 426.637ZM134.009 420.819C133.854 421.126 133.822 421.593 134.107 420.913C134.036 421.162 133.957 421.415 133.874 421.661C134.326 420.793 134.097 420.779 134.202 420.525C134.341 420.164 134.486 420.241 134.511 420.334C134.528 420 134.91 418.689 135.03 417.903C134.861 418.58 134.501 419.646 134.251 420.275C134.181 420.456 134.161 420.645 134.097 420.8C133.996 421.045 134.018 420.802 134.009 420.818C134.009 420.818 134.009 420.819 134.009 420.819ZM128.611 428.191C128.474 428.207 128.358 428.275 128.441 428.281C128.47 428.288 128.536 428.283 128.584 428.275C128.633 428.269 128.696 428.233 128.607 428.281C128.607 428.277 128.63 428.182 128.611 428.191ZM126.618 355.063C125.704 354.726 126.425 354.765 124.37 354.479C125.24 354.543 124.432 354.403 124.608 354.391C124.745 354.38 125.257 354.53 124.976 354.386C125.339 354.54 126.985 354.965 127.014 355.005C127.013 355.005 127.013 355.005 127.012 355.005C127.047 355.025 126.901 355.175 126.618 355.063ZM131.99 424.491C131.658 424.535 131.92 424.844 131.481 425.08C131.356 425.752 132.475 423.735 132.795 423.6C131.43 425.723 133.872 422.303 132.638 423.616C133.478 422.433 132.833 423.184 132.903 422.969C132.976 422.742 133.386 422.038 133.283 422.034C133.282 422.035 133.282 422.035 133.282 422.036C133.075 422.488 132.851 422.924 132.606 423.354C133.021 423.035 132.459 423.884 132.128 424.076C132.085 424.213 132.038 424.353 131.99 424.491ZM133.565 422.144C133.548 422.191 133.069 423.176 133.132 423.129C133.24 423.022 133.888 421.603 133.565 422.144ZM134.976 417.532C134.909 417.924 134.739 418.512 134.758 418.738C134.856 418.354 135.014 417.758 134.976 417.532ZM121.339 429.529C120.812 429.666 122.466 429.448 121.979 429.445C121.959 429.444 121.369 429.523 121.339 429.529ZM131.346 425.403C130.969 425.738 131.305 425.714 131.492 425.384C131.503 425.366 131.365 425.386 131.346 425.403ZM125.855 354.882C125.801 354.92 124.419 354.555 124.172 354.513C124.323 354.479 125.908 354.816 125.855 354.882ZM134.869 416.812C134.56 417.553 134.563 418.621 134.525 418.735C134.492 418.845 134.446 418.649 134.437 418.673C134.429 418.73 134.101 419.909 134.081 419.96C134.072 420.002 134.264 419.831 134.224 420.084C134.347 419.604 134.889 417.423 134.865 417.298C134.866 417.207 134.629 417.859 134.869 416.813C134.869 416.813 134.869 416.812 134.869 416.812ZM134.426 419.008C134.558 418.726 134.343 419.556 134.256 419.749C134.08 420.176 134.418 419.048 134.426 419.008ZM133.742 420.943C133.701 421.03 133.346 421.831 133.365 421.921C133.618 421.576 133.85 420.748 133.742 420.943ZM128.137 427.937C127.972 428.009 127.362 428.132 127.337 428.191C127.569 428.126 128.135 427.998 128.137 427.937ZM120.93 354.408C121.329 354.51 120.381 354.394 120.114 354.34C120.095 354.301 120.901 354.399 120.93 354.408ZM130.903 425.147C130.847 425.285 129.025 427.141 128.756 427.254C129.054 427.2 130.909 425.377 130.932 425.226C130.95 425.196 130.916 425.136 130.903 425.147ZM133.663 420.103C133.67 419.843 133.805 419.72 133.816 419.69C133.923 419.401 134.07 418.782 134.106 418.935C133.95 419.455 133.647 420.622 133.663 420.103ZM127.868 427.656C127.473 427.793 127.668 427.765 127.925 427.697C128.052 427.663 128.176 427.62 128.231 427.593C128.287 427.566 128.281 427.557 128.264 427.542C128.305 427.524 127.964 427.626 127.868 427.656ZM131.071 424.904C131.187 424.748 132.675 422.543 132.816 422.123C132.749 422.517 132.524 422.758 132.268 423.203C132.199 423.324 132.259 423.317 132.251 423.33C132.127 423.539 132.174 423.355 132.095 423.481C132.071 423.579 130.984 425.192 131.071 424.904ZM133.657 419.952C133.682 419.802 134.101 418.176 134.11 418.104C134.324 417.629 133.747 419.848 133.657 419.952ZM130.84 425.027C130.922 424.736 131.755 423.731 131.284 424.495C131.239 424.567 130.973 424.82 130.84 425.027ZM127.905 427.509C127.898 427.518 127.006 427.741 126.979 427.785C127.057 427.775 127.429 427.688 127.694 427.606C127.959 427.526 128.105 427.462 127.905 427.509ZM128.134 427.269C128.133 427.27 128.149 427.286 128.156 427.304C128.159 427.323 128.191 427.333 128.057 427.379C128.022 427.388 128 427.313 127.509 427.494C127.41 427.531 127.258 427.635 127.27 427.636C127.459 427.633 127.741 427.556 127.953 427.467C128.149 427.398 128.339 427.216 127.953 427.438L128.221 427.262C128.277 427.202 128.279 427.176 128.197 427.219L127.924 427.399C128.09 427.274 128.157 427.254 128.134 427.269ZM133.595 419.899C133.53 419.972 133.488 419.731 133.602 419.563C133.65 419.491 133.673 419.661 133.595 419.899ZM124.885 428.184C125.464 428.006 123.593 428.333 123.5 428.36C123.568 428.397 124.834 428.204 124.885 428.184ZM119.912 354.821C119.913 354.821 119.913 354.822 119.914 354.822C119.413 354.743 119.731 354.724 119.708 354.719C118.627 354.502 118.903 354.672 118.733 354.668C118.37 354.663 118.449 354.507 117.818 354.512C118.855 354.517 117.919 354.463 117.893 354.404C117.81 354.157 119.233 354.652 119.748 354.671C119.819 354.672 119.308 354.535 119.491 354.536C120.078 354.533 121.85 355.143 119.912 354.821ZM133.636 419.416C133.65 419.199 134.086 417.627 134.042 418.06C134.054 418.138 133.653 419.75 133.636 419.416ZM74.6968 401.43C74.8605 401.837 74.6831 400.842 74.5956 400.671C74.5509 400.586 74.624 401.251 74.6968 401.43ZM73.4957 394.452C73.3971 393.946 73.0645 393.445 73.2071 394.076C73.2222 394.143 73.4715 394.517 73.4957 394.452ZM86.0326 425.186C85.7733 424.722 85.6641 424.849 85.907 425.149C85.9931 425.254 86.0408 425.201 86.0326 425.186ZM76.5551 407.403C76.5428 407.35 76.3376 406.765 76.3091 406.798C76.3578 407.023 76.6287 407.745 76.5551 407.403ZM86.1558 425.301C85.9365 425.078 86.1811 425.571 86.5157 425.788C86.3839 425.646 86.1781 425.324 86.1558 425.301ZM129.931 425.507C129.827 425.721 129.357 426.152 129.097 426.382C129.017 426.347 129.765 425.723 129.931 425.507ZM73.7911 396.633C73.6371 396.165 73.7877 397.204 73.8502 397.094C73.8517 397.08 73.7971 396.652 73.7911 396.633ZM100.017 429.949C99.6606 429.992 100.789 430.091 100.48 429.991C100.464 429.988 100.036 429.947 100.017 429.949ZM104.932 429.96C104.659 429.954 103.512 429.985 103.959 430.026C104.024 430.034 104.918 430.009 104.932 429.96ZM118.697 354.727C118.83 354.832 118.004 354.722 117.88 354.696C117.834 354.684 118.527 354.59 118.697 354.727ZM83.9956 422.449C83.8295 422.232 83.4514 421.635 83.3439 421.556C83.5348 421.83 83.9686 422.577 83.9956 422.449ZM74.2432 398.821C74.2467 398.383 74.0891 397.672 74.0004 397.874C74.1752 398.661 74.0898 397.753 74.2432 398.821ZM87.3635 426.563C87.2261 426.396 87.0247 426.351 87.0363 426.373C87.1487 426.587 87.4702 426.756 87.3635 426.563ZM78.6446 412.719C78.6869 412.686 78.3872 412.044 78.3934 412.144C78.3943 412.177 78.6091 412.745 78.6446 412.719ZM122.795 428.185C122.462 428.189 123.449 427.986 123.743 427.991C123.902 428.048 122.839 428.186 122.795 428.185ZM91.1725 428.876C91.2129 428.811 90.237 428.598 90.5993 428.762C90.6926 428.805 91.1523 428.9 91.1725 428.876ZM101.52 429.817C100.771 429.913 103.91 429.97 103.084 429.856C103.028 429.852 101.577 429.812 101.52 429.817ZM106.661 429.753C106.531 429.75 106.579 429.486 107.127 429.556C107.199 429.565 106.87 429.653 106.929 429.666C106.97 429.674 108.128 429.64 108.187 429.628C108.245 429.617 108.17 429.538 108.229 429.524C108.301 429.509 109.013 429.532 109.394 429.502C109.535 429.491 109.651 429.479 109.747 429.467C110.151 429.416 110.205 429.366 110.253 429.361C110.427 429.346 110.721 429.371 111.064 429.341C112.839 429.188 115.507 428.864 116.916 428.853C115.677 428.931 114.507 429.114 113.268 429.252C113.624 429.072 111.444 429.535 112.721 429.247C112.423 429.293 111.121 429.429 109.754 429.55C108.324 429.68 106.889 429.759 106.663 429.753C106.662 429.753 106.662 429.753 106.661 429.753ZM73.2456 392.421C73.379 392.721 73.1257 391.116 73.0073 390.987C73.0205 391.207 73.228 392.383 73.2456 392.421ZM74.8556 399.757C74.9053 399.9 75.1052 400 75.2054 400.786C75.2056 400.787 75.2057 400.788 75.2059 400.788C75.2357 401.019 75.1316 400.774 75.127 400.818C75.1241 400.834 75.2135 401.555 75.0557 400.977C74.8184 400.096 75.1611 400.863 75.0487 400.39C75.0338 400.333 74.7327 399.458 74.7253 399.515C74.724 399.521 74.8057 399.786 74.8077 399.833C74.8153 400.008 74.743 399.939 74.746 399.963C74.7549 400.043 75.1899 401.437 75.1665 401.661C75.1513 401.737 74.5296 399.423 74.5303 399.328C74.5257 399.268 74.6791 399.259 74.6803 399.196C74.6797 399.165 74.418 398.236 74.4071 398.11C74.4035 398.074 74.402 398.046 74.4013 398.025C74.3848 398.178 74.2107 397.322 74.2689 397.338C74.2918 397.349 74.4013 397.939 74.4026 397.961C74.4031 397.97 74.4027 397.979 74.4028 397.987C74.4286 397.855 74.8638 399.837 74.8529 399.39C75.0295 399.952 74.7123 399.337 74.8556 399.757ZM75.6283 402.472C75.5973 402.417 75.5663 402.363 75.5354 402.308C75.8353 403.29 76.0844 404.449 76.4355 405.575C76.5248 405.861 76.5149 405.503 76.607 405.885C76.681 406.191 76.7025 406.549 76.6306 406.393C76.6125 406.355 76.474 405.727 76.3746 405.423C76.081 404.524 76.0727 404.775 76.0539 404.723C76.0338 404.665 75.9218 404.077 75.8309 403.765C75.6023 402.978 75.4516 402.63 75.2385 401.528C75.4526 402.14 75.479 401.768 75.6283 402.472ZM95.638 429.365C95.6835 429.318 96.3275 429.428 96.5697 429.44C96.5235 429.49 95.8816 429.384 95.638 429.365ZM88.1515 356.262C88.3402 356.142 86.7965 356.379 87.2145 356.382C87.3088 356.382 87.9507 356.294 88.1515 356.262ZM81.2135 357.527C81.0122 357.595 81.8565 357.476 81.8406 357.412C81.8352 357.39 81.2397 357.518 81.2135 357.527ZM80.0622 414.856C80.0808 414.89 80.3099 415.402 80.3143 415.419C80.3936 415.795 79.6353 414.109 80.0622 414.856ZM72.9304 359.719C73.6181 359.462 71.4937 360.05 72.1612 359.932C72.1947 359.925 72.8976 359.73 72.9304 359.719ZM73.5104 359.043C73.5347 358.862 73.688 358.109 73.664 358.098C73.6242 358.071 73.4518 358.937 73.5104 359.043ZM87.7044 426.456C87.7225 426.332 88.3208 427.108 88.5654 427.346C88.5484 427.472 87.9364 426.704 87.7044 426.456ZM83.9753 421.51C86.4355 424.847 85.716 424.246 83.7982 421.331C83.8475 421.292 83.8251 421.295 83.9753 421.51ZM87.1637 425.742C87.0185 425.668 86.7303 425.297 86.5341 425.047C86.603 425.065 87.0058 425.576 87.1637 425.742ZM90.017 356.108C89.7643 356.223 88.5627 356.312 88.7682 356.248C88.818 356.231 90.1099 356.049 90.017 356.108ZM80.291 415.136C80.3307 415.008 80.8592 416.151 80.888 416.244C80.9891 416.63 80.3498 415.221 80.291 415.136ZM91.3126 428.457C91.5279 428.434 92.0864 428.596 92.4726 428.669C92.2811 428.699 91.6161 428.534 91.3126 428.457ZM89.0873 427.675C89.0864 427.676 89.4234 427.83 89.4517 427.842C89.6017 427.939 89.3829 427.871 89.2242 427.797C89.0512 427.718 88.9556 427.643 89.0873 427.675ZM120.517 355.62C120.5 355.619 120.058 355.556 120.051 355.552C119.677 355.43 120.969 355.618 120.517 355.62Z" fill="#FF9500"/>
</svg>
