<svg width="368" height="581" viewBox="0 0 368 581" fill="none" xmlns="http://www.w3.org/2000/svg">
<path fill-rule="evenodd" clip-rule="evenodd" d="M30.7215 431.068C33.729 421.82 30.1468 411.14 32.4882 401.171C33.2905 397.228 34.8156 382.579 36.347 374.013C37.2037 369.221 32.0788 367.733 31.2914 365.821C25.7487 348.64 66.182 308.223 68.6502 306.734C72.3486 304.595 75.6213 302.754 79.2352 300.569C89.7772 296.864 102.419 286.556 111.976 293.177C128.535 268.512 121.984 238.124 130.969 234.512C139.955 230.9 166.489 223.601 181.659 232.922C190.751 239.654 190.081 251.242 194.23 260.799C196.665 265.298 197.861 271.815 200.696 274.749C210.328 284.718 222.34 286.437 235.768 288.129C236.791 288.258 237.867 285.475 238.861 285.819C261.512 293.652 287.869 295.938 313.522 339.802C317.145 346.075 326.918 356.14 323.65 363.389C345.182 413.49 366.369 526.255 307.287 554.377C305.398 555.586 292.586 549.104 290.499 549.164C287.019 549.264 293.687 557.719 290.499 556.213C267.095 557.989 138.316 553.405 88.9534 557.989C55.0082 557.735 33.5081 563.69 25.67 557.735C28.8034 550.158 28.6581 542.042 27.6676 534.032C20.4538 528.661 29.3715 490.806 28.6167 479.722C21.864 471.622 27.2407 441.243 30.7215 431.068Z" fill="#FAFAFA"/>
<path fill-rule="evenodd" clip-rule="evenodd" d="M41.483 375.62C44.7213 380.333 47.6964 385.184 50.3859 390.231C51.7727 392.834 53.0664 395.488 54.231 398.197C54.473 392.34 54.5261 386.414 55.2102 380.615C55.2593 380.197 55.9569 379.993 56.0303 380.504C56.786 385.762 56.9106 391.157 57.1962 396.471C57.525 396.37 57.8885 396.312 58.2888 396.312C62.1753 396.312 66.0033 396.631 69.8759 396.945C71.6113 397.086 73.4268 397.193 75.1968 397.47C73.7722 395.896 72.4453 394.233 71.2204 392.498C69.9712 390.729 68.5435 387.964 70.7202 386.264C73.1245 384.387 77.8395 386.842 80.1656 387.797C81.3428 388.28 82.4975 388.806 83.6342 389.366C85.0695 385.342 89.4693 384.808 93.2411 385.364C95.9301 385.76 98.5404 386.681 101.161 387.382C104.488 388.271 107.83 389.108 111.183 389.894C117.222 391.308 123.302 392.545 129.411 393.616C129.573 393.428 129.797 393.28 130.096 393.205C132.188 392.682 134.496 393.083 136.641 393.123C138.847 393.164 141.054 393.16 143.26 393.115C147.201 393.034 151.137 393.002 155.077 392.933C156.198 392.254 157.618 391.279 157.965 390C158.399 388.405 157.044 386.637 156.414 385.279C153.997 380.063 153.152 374.226 154.1 368.546C154.27 367.533 154.618 366.426 155.121 365.388C150.804 365.851 146.543 366.164 142.203 366.306C133.536 366.588 124.87 366.884 116.199 366.948C98.8621 367.078 81.5249 367.079 64.1883 366.952C54.3857 366.88 44.6056 366.79 34.8152 366.289C35.6132 367.301 36.3892 368.335 37.1467 369.384C37.3032 369.338 37.5079 369.422 37.484 369.616C37.4764 369.684 37.4683 369.752 37.4602 369.819C38.8425 371.751 40.1731 373.713 41.483 375.62ZM60.7602 554.969C64.7893 554.841 68.8174 554.712 72.8461 554.584C80.754 554.332 88.6619 554.08 96.5693 553.829C112.235 553.329 127.901 552.848 143.569 552.416C159.2 551.985 174.838 551.528 190.473 552.016C206.143 552.505 221.774 553.771 237.415 554.786C246.111 555.35 254.812 555.839 263.524 556.073C271.821 556.296 280.191 555.959 288.475 556.551C288.754 554.502 288.549 552.459 288.579 550.417C285.862 548.847 283.195 547.178 280.559 545.537C270.949 539.557 261.865 532.79 253.297 525.394C251.98 524.257 250.688 523.096 249.41 521.922C250.3 523.867 249.588 526.375 247.038 527.199C243.928 528.203 240.744 527.846 237.514 527.77C234.235 527.693 230.955 527.62 227.675 527.551C221.265 527.415 214.854 527.293 208.443 527.185C195.919 526.975 183.394 526.82 170.869 526.718C145.67 526.515 120.489 526.858 95.2936 527.313C88.2089 527.441 81.1313 527.6 74.0466 527.439C70.502 527.359 66.943 527.334 63.4025 527.143C60.5659 526.989 57.7122 526.588 54.876 526.227C54.5184 531.169 54.1446 536.111 53.7281 541.049C53.4524 544.309 53.169 547.57 52.8892 550.83C52.7745 552.175 52.7659 553.548 52.5765 554.826C55.2993 554.975 58.0055 555.057 60.7602 554.969ZM57.9897 415.404C58.0887 419.187 58.1413 422.973 58.1683 426.759C58.4953 426.572 58.8637 426.435 59.2789 426.372C63.6849 425.699 68.3995 426.209 72.8573 426.284C77.1661 426.356 81.4899 426.332 85.7947 426.536C90.108 426.739 94.4196 426.983 98.7321 427.206C100.755 427.312 102.757 427.402 104.764 427.677C106.14 427.864 107.899 427.851 109.369 428.242C103.204 422.268 97.0722 416.259 90.924 410.268C90.74 410.088 90.6069 409.898 90.5138 409.705C86.4141 407.205 82.479 404.392 78.9155 401.171C76.0893 402.261 72.8721 402.399 69.8759 402.642C66.0024 402.956 62.1767 403.275 58.2888 403.275C58.0262 403.275 57.7801 403.249 57.5484 403.203C57.7387 407.268 57.8831 411.333 57.9897 415.404ZM218.058 488.899C208.647 491.906 198.449 491.873 188.658 492.475C178.22 493.117 167.798 493.651 157.347 494.058C136.476 494.869 115.618 495.972 94.7498 496.849C82.8299 497.35 70.9127 497.903 58.9978 498.503C58.1525 498.545 57.3465 498.328 56.6353 497.931C56.2354 505.783 55.7667 513.63 55.221 521.473C55.1531 522.454 55.0775 523.434 55.0078 524.415C60.6158 523.711 66.181 523.038 71.8308 522.56C78.1751 522.024 84.5163 521.572 90.8696 521.15C103.25 520.329 115.65 519.229 128.053 518.829C153.337 518.011 178.677 518.289 203.97 518.469C211.126 518.52 218.283 518.589 225.439 518.676C229.017 518.719 232.595 518.767 236.173 518.819C239.769 518.872 243.633 518.497 247.038 519.753C247.07 519.765 247.097 519.782 247.129 519.795C236.858 510.056 227.656 499.294 218.058 488.899ZM184.973 457.765C169.244 460.631 153.268 460.434 137.325 460.718C121.011 461.009 104.675 460.816 88.3587 460.85C79.0901 460.869 69.7418 461.276 60.5065 460.451C59.4152 460.354 58.5695 459.94 57.9663 459.352C57.7981 469.181 57.49 479.005 57.0649 488.826C57.6641 488.571 58.3181 488.416 58.9978 488.376C79.8471 487.148 100.698 486.035 121.573 485.355C142.431 484.675 163.315 483.868 184.185 484.121C194.369 484.244 205.139 483.592 215.183 485.813C211.366 481.755 207.467 477.771 203.389 473.957C197.442 468.397 191.097 463.189 184.973 457.765ZM172.956 446.196C172.935 446.172 172.924 446.145 172.908 446.121C172.852 446.163 172.783 446.191 172.692 446.19C157.968 445.857 141.45 450.505 127.679 443.372C121.531 440.188 116.44 435.155 111.498 430.318C111.495 430.354 111.492 430.39 111.49 430.426C111.457 430.818 111.291 431.291 110.893 431.465C109.269 432.178 107.367 432.224 105.623 432.478C103.617 432.771 101.647 432.942 99.6241 433.063C95.1632 433.331 90.7027 433.615 86.2404 433.867C81.7881 434.119 77.3155 434.14 72.8573 434.251C68.3869 434.362 63.7038 434.904 59.2789 434.266C58.8727 434.207 58.5115 434.079 58.1908 433.902C58.184 439.63 58.1318 445.357 58.0783 451.081C58.0693 452.014 58.0513 452.946 58.0405 453.879C58.6379 453.331 59.4588 452.948 60.5065 452.856C68.7117 452.133 76.9804 452.454 85.2144 452.482C93.3 452.509 101.386 452.536 109.473 452.563C125.8 452.617 142.114 452.777 158.439 453.088C166.377 453.239 174.281 453.907 182.103 455.192C178.936 452.305 175.857 449.334 172.956 446.196ZM300.887 550.333C303.902 551.255 306.894 550.855 309.914 551.487C310.1 551.526 310.271 551.598 310.428 551.693C319.472 547.826 325.501 540.067 329.627 531.373C333.976 522.209 336.973 512.412 338.981 502.481C343.121 482.007 343.129 460.779 340.986 440.066C338.88 419.718 334.711 399.479 328.762 379.909C324.677 366.472 319.471 352.896 312.243 340.644C303.896 346.24 297.423 354.297 291.326 362.172C284.039 371.583 277.472 381.542 271.594 391.889C272.202 393.662 272.297 395.885 272.588 397.47C273.15 400.525 273.657 403.618 274.056 406.7C274.909 413.286 275.727 419.876 276.598 426.46C278.321 439.478 280.379 452.461 282.652 465.394C282.836 466.443 282.541 467.329 282 467.994C286.508 470.371 290.958 472.854 295.293 475.546C304.823 481.463 313.73 488.357 320.723 497.197C320.905 497.427 320.62 497.734 320.395 497.526C305.399 483.661 286.768 474.956 268.476 466.354C259.128 461.957 249.826 457.49 240.858 452.35C231.479 446.975 222.534 440.902 213.962 434.32C204.173 426.804 194.958 418.587 186.32 409.771C185.302 408.732 185.549 407.431 186.315 406.609C186.056 406.529 185.847 406.304 185.834 405.929C185.626 400.172 183.899 395.267 180.516 390.607C177.378 386.284 173.379 382.722 169.771 378.81C168.168 377.072 166.636 375.261 165.268 373.33C163.859 371.341 163.002 369.147 161.776 367.07C160.344 364.642 159.126 365.882 158.462 368.08C157.71 370.57 157.757 373.487 158.059 376.047C158.379 378.757 159.203 381.398 160.391 383.847C161.506 386.148 162.792 388.488 162.042 391.125C160.808 395.458 155.518 397.967 151.51 398.943C147.048 400.029 142.38 399.818 137.862 399.255C132.203 398.549 126.571 397.515 120.978 396.416C114.5 395.144 108.06 393.675 101.671 392.015C98.6673 391.235 95.685 390.21 92.6522 389.564C91.5709 389.334 89.5696 388.988 88.2989 389.552C104.634 399.296 122.443 405.787 140.531 411.443C142.778 412.146 141.857 415.542 139.557 414.979C120.125 410.225 101.843 401.402 84.4443 391.738C84.178 391.59 83.9522 391.36 83.7862 391.089C82.0359 390.473 80.2564 389.938 78.4418 389.497C77.6308 389.299 73.4592 387.922 72.9378 388.451C72.1988 389.201 74.756 391.635 75.3947 392.342C79.9416 397.382 85.3498 401.495 91.2038 404.896C97.1419 408.344 103.46 411.094 109.808 413.689C116.919 416.596 124.435 418.88 131.347 422.221C134.093 423.549 132.166 428.057 129.273 427.143C125.545 425.964 121.923 424.232 118.3 422.76C115.222 421.511 112.144 420.262 109.084 418.969C106.95 418.068 104.831 417.137 102.733 416.164C105.876 419.124 109.02 422.084 112.163 425.045C117.606 430.172 122.777 436.013 129.431 439.61C136.005 443.163 143.504 443.576 150.822 443.499C154.495 443.461 158.153 443.344 161.827 443.492C165.693 443.648 169.126 444.242 172.79 445.46C172.858 445.482 172.907 445.523 172.948 445.569C173.076 445.413 173.294 445.334 173.518 445.467C183.474 451.357 192.549 458.998 201.277 466.55C210.273 474.333 218.737 482.61 226.802 491.353C234.521 499.721 242.179 508.121 250.579 515.821C258.781 523.338 267.546 530.164 276.698 536.482C281.684 539.924 286.794 543.239 292.082 546.203C294.907 547.786 297.776 549.381 300.887 550.333ZM300.05 323.754C296.485 319.747 292.648 316.033 288.587 312.597C286.795 313.128 284.915 313.276 283.02 313.295C280.128 313.324 277.229 313.445 274.337 313.415C268.769 313.358 263.203 313.182 257.633 313.152C246.245 313.09 234.853 313.087 223.465 313.186C221.973 313.199 220.897 312.56 220.232 311.633C217.927 314.248 215.551 316.803 213.155 319.317C209.263 323.402 205.113 327.3 200.696 330.852C201.556 330.857 202.416 330.865 203.271 330.859C207.21 330.833 211.149 330.808 215.088 330.787C222.993 330.743 230.898 330.711 238.802 330.69C254.517 330.648 270.281 330.779 285.976 331.584C290.332 331.808 294.723 331.898 299.063 332.323C301.418 332.553 303.769 332.822 306.122 333.073C306.603 333.124 307.064 333.188 307.517 333.261C305.214 329.949 302.733 326.769 300.05 323.754ZM237.11 288.036C237.216 288.108 237.33 288.172 237.432 288.249C237.663 288.423 237.627 288.737 237.354 288.843C236.992 288.984 236.611 289.091 236.219 289.176C235.027 290.905 234.097 293.042 233.447 294.125C231.579 297.237 229.432 300.201 227.248 303.095C226.809 303.676 226.362 304.251 225.912 304.825C236.49 304.799 247.062 304.853 257.633 305.254C263.199 305.465 268.784 305.642 274.337 306.059C276.621 306.231 278.904 306.52 281.18 306.805C269.332 298.235 256.007 291.691 242.203 286.833C242.222 286.854 242.242 286.87 242.261 286.891C242.565 287.229 242.111 287.666 241.768 287.383C239.973 285.898 238.414 286.595 237.11 288.036ZM183.663 388.767C183.964 389.223 184.259 389.693 184.548 390.175C185.241 389.483 186.21 389.02 187.458 388.982C201.315 388.549 215.165 388.171 229.03 388.162C235.867 388.157 242.767 387.927 249.595 388.265C253.024 388.435 256.452 388.638 259.879 388.832C262.275 388.968 264.821 389.137 267.161 389.831C272.554 380.393 278.541 371.318 285.078 362.642C270.245 364.463 255.157 364.269 240.24 364.774C223.339 365.347 206.428 365.47 189.521 365.871C184.883 365.981 180.246 366.101 175.609 366.231C173.216 366.298 170.822 366.367 168.429 366.44C167.681 366.462 166.906 366.483 166.131 366.463C166.19 366.584 166.249 366.705 166.307 366.825C167.612 369.522 169.253 372.004 171.165 374.308C175.231 379.206 180.142 383.425 183.663 388.767ZM201.842 417.841C202.355 416.413 203.606 415.315 205.598 415.406C216.952 415.921 228.326 416.279 239.667 417.027C245.191 417.391 250.738 417.637 256.253 418.12C259.098 418.37 261.938 418.834 264.77 419.203C266.712 419.456 268.745 419.75 270.608 420.441C270.247 416.451 269.928 412.457 269.652 408.458C269.43 405.246 269.362 402.003 269.38 398.783C269.388 397.152 269.443 395.513 269.522 393.883C269.355 393.917 269.187 393.933 269.022 393.913C268.732 393.877 268.461 393.843 268.209 393.775C265.598 394.797 262.644 395.023 259.879 395.22C256.6 395.454 253.322 395.703 250.042 395.937C243.065 396.435 236.022 396.403 229.03 396.631C215.265 397.08 201.497 397.341 187.729 397.71C188.368 400.452 188.391 403.268 187.368 405.923C188.08 405.687 188.9 405.797 189.6 406.489C193.566 410.409 197.65 414.189 201.842 417.841ZM241.892 447C242.172 446.225 242.701 445.512 243.327 445.029C245.735 443.173 250.129 444.242 253.019 444.383C256.44 444.551 259.861 444.718 263.282 444.886C264.32 444.936 269.619 445.207 273.511 446.037C272.707 439.96 271.977 433.873 271.325 427.775C271.188 426.495 271.061 425.215 270.936 423.934C269.102 424.524 267.11 424.741 265.219 424.831C262.385 424.966 259.538 425.194 256.701 425.239C251.034 425.328 245.335 425.048 239.667 424.954C229.459 424.784 219.251 424.296 209.048 423.894C219.292 432.214 230.116 439.805 241.406 446.71C241.567 446.809 241.731 446.903 241.892 447ZM274.131 450.606C273.269 450.721 272.414 450.759 271.76 450.825C268.476 451.156 265.244 451.457 261.943 451.505C258.671 451.553 255.399 451.601 252.127 451.649C251.431 451.658 250.735 451.669 250.039 451.679C258.656 456.389 267.537 460.607 276.293 465.049C275.521 460.242 274.801 455.427 274.131 450.606ZM180.238 343.364C160.601 351.714 135.413 352.472 118.537 338.601C116.86 339.06 115.005 339.213 113.525 339.362C110.198 339.696 106.901 340.003 103.558 340.108C97.0425 340.312 90.521 340.616 84.0026 340.697C70.816 340.86 57.6285 340.936 44.4415 341.053C43.3192 341.064 42.4213 340.722 41.7403 340.172C40.4047 342.438 39.1623 344.76 38.0283 347.141C36.3743 350.615 34.9727 354.204 33.8216 357.875C34.0681 357.832 34.3245 357.802 34.5988 357.797C51.9292 357.497 69.2726 357.996 86.6062 358.069C103.944 358.141 121.279 358.067 138.616 358.19C143.414 358.225 148.176 358.226 152.962 358.582C155.453 358.767 157.973 358.848 160.44 359.25C160.716 359.295 160.996 359.335 161.279 359.374C164.585 357.441 168.689 357.845 172.467 357.774C176.806 357.692 181.144 357.619 185.482 357.555C194.009 357.428 202.537 357.336 211.064 357.277C227.989 357.161 244.872 357.594 261.786 358.184C270.201 358.477 278.585 358.975 286.892 360.271C287.449 359.548 288.002 358.822 288.567 358.106C294.453 350.641 301.43 341.085 311.116 338.772C310.744 338.167 310.367 337.564 309.985 336.966C303.274 338.737 295.871 338.647 289.015 339.018C281.112 339.445 273.226 339.741 265.314 339.935C249.585 340.322 233.861 340.564 218.129 340.803C213.763 340.87 209.397 340.94 205.031 341.013C202.676 341.052 200.321 341.097 197.966 341.133C196.65 341.153 195.474 341.15 194.22 340.713C193.059 340.308 191.927 339.701 190.805 339.198C190.413 339.023 190.094 338.763 189.834 338.456C186.751 340.3 183.557 341.953 180.238 343.364ZM103.503 315.599C101.033 316.285 98.4842 316.398 95.873 316.596C92.4453 316.855 89.0258 316.899 85.5891 316.921C80.1098 316.956 74.6292 316.918 69.1516 316.767C66.7986 316.702 65.424 315.126 65.016 313.322C64.9593 313.368 64.9008 313.413 64.8441 313.459C58.1773 318.955 52.1366 325.242 47.0176 332.2C59.3455 332.238 71.6747 332.246 84.0026 332.329C90.5201 332.373 97.0425 332.641 103.558 332.809C106.755 332.891 109.904 333.156 113.087 333.459C113.15 333.465 113.217 333.47 113.281 333.476C112.944 333.087 112.609 332.692 112.282 332.286C108.478 327.569 105.348 321.756 103.503 315.599ZM23.3506 563.238C22.2629 560.244 22.6853 557.032 22.7469 553.884C22.8099 550.653 22.8445 547.424 22.8553 544.193C22.8764 537.876 22.9192 531.561 22.9889 525.244C23.1302 512.467 23.2777 499.68 23.7802 486.91C24.7734 461.666 26.6865 436.484 29.8091 411.409C31.3269 399.219 33.2107 387.056 35.7671 375.038C35.7311 374.99 35.696 374.94 35.66 374.892C33.1144 371.488 30.2194 368.342 27.7184 364.915C27.4966 364.611 27.4039 364.221 27.4062 363.828C27.3148 363.783 27.2231 363.736 27.13 363.683C25.0554 362.501 26.9289 359.279 29.0031 360.477C28.7637 360.339 32.2085 351.493 32.5733 350.602C33.8846 347.403 35.3591 344.274 37.0216 341.243C38.0247 339.414 39.0985 337.623 40.223 335.866C40.4196 334.553 41.1281 333.337 42.3453 332.686C44.481 329.624 46.7882 326.681 49.2474 323.878C59.3149 312.4 71.8897 303.135 85.6278 296.535C87.6129 295.582 89.6569 294.787 91.6937 293.955C93.8618 293.068 95.8725 291.908 98.0092 290.977C101.486 289.462 104.918 289.549 108.334 291.153C108.625 291.29 108.416 291.739 108.119 291.662C105.921 291.089 103.668 290.992 101.464 291.615C99.3047 292.226 97.6628 293.574 95.7763 294.699C92.4161 296.704 88.6596 298.012 85.2153 299.883C80.6608 302.359 76.2098 305.079 71.9522 308.064C76.3637 308.297 80.7782 308.466 85.1942 308.583C88.4738 308.67 91.7521 308.685 95.0273 308.876C97.3583 309.011 99.7824 308.973 102.112 309.35C101.55 305.486 101.549 301.587 102.251 297.823C102.251 297.822 102.252 297.82 102.252 297.819C102.422 296.912 102.627 296.012 102.88 295.122C103.418 293.228 105.143 292.944 106.396 293.661C106.52 293.569 106.645 293.479 106.765 293.382C108.265 292.163 109.616 290.705 110.79 289.172C113.229 285.988 115.201 282.301 116.694 278.586C118.206 274.823 119.278 270.886 120.327 266.974C120.854 265.013 121.423 263.062 121.959 261.103C122.425 259.399 122.764 257.517 123.62 255.965C123.781 255.674 124.264 255.729 124.341 256.059C124.794 258.004 124.555 260.221 124.471 262.204C124.38 264.405 124.253 266.585 123.96 268.769C123.354 273.3 122.375 277.755 120.806 282.058C119.303 286.184 117.318 290.035 114.623 293.511C112.832 295.821 110.288 298.878 107.343 300.123C106.958 304.459 107.002 308.799 108.025 313.091C109.364 318.709 111.927 324.049 115.449 328.624C122.835 338.218 134.26 343.638 146.18 344.756C158.512 345.911 171.133 343.151 182.214 337.724C194.54 331.687 204.765 322.374 213.949 312.321C219.243 306.527 224.733 300.826 229.639 294.695C230.509 293.608 231.901 291.402 233.551 289.415C231.871 289.4 230.147 289.148 228.66 288.957C225.583 288.562 222.576 287.95 219.57 287.185C213.948 285.755 208.02 283.765 203.108 280.616C192.714 273.953 188.657 265.502 187.271 253.858C186.833 250.177 193.194 249.283 193.786 252.976C194.696 258.651 196.073 261.413 197.884 266.865C199.625 272.106 202.147 274.058 206.968 276.946C211.493 279.659 216.637 281.234 221.623 282.862C224.385 283.764 227.181 284.587 229.967 285.416C231.741 285.944 233.847 286.404 235.646 287.22C236.585 286.395 237.564 285.774 238.55 285.538C238.478 285.416 238.572 285.227 238.753 285.263C239.043 285.321 239.332 285.385 239.621 285.445C239.912 285.465 240.202 285.523 240.491 285.628C257.857 289.39 274.534 297.403 288.676 308.319C289.389 308.617 290.078 308.982 290.734 309.443C291.072 309.68 291.296 310.057 291.361 310.447C293.486 312.184 295.549 313.986 297.543 315.851C313.595 330.874 323.766 350.858 330.886 371.413C337.9 391.664 342.648 412.899 345.259 434.16C347.921 455.832 348.227 477.955 344.367 499.505C342.294 511.076 338.939 522.447 333.985 533.12C329.538 542.705 322.298 553.624 310.926 554.791C310.89 554.828 310.856 554.866 310.815 554.9C306.353 558.577 299.71 556.038 295.045 553.841C294.306 553.493 293.572 553.127 292.841 552.751C293.227 554.238 293.401 555.794 293.482 557.253C293.65 560.283 289.381 560.455 288.572 557.94C281.652 559.158 274.505 559.175 267.506 559.136C259.684 559.093 251.866 558.822 244.054 558.454C228.554 557.722 213.072 556.604 197.562 556.096C166.156 555.067 134.664 557.266 103.284 558.373C94.4808 558.684 85.6777 558.994 76.8747 559.305C67.8804 559.623 58.8952 559.684 49.9734 560.901C46.6928 561.348 45.436 558.131 46.3613 556.127C46.1306 554.781 46.3604 553.305 46.4868 551.719C46.7225 548.756 46.9452 545.792 47.1539 542.827C47.5614 537.046 47.955 531.263 48.3284 525.479C49.085 513.759 49.7359 502.03 50.3692 490.303C51.6283 466.985 52.5923 443.651 53.3012 420.31C53.4744 414.621 53.7002 408.93 53.9854 403.245C53.6458 402.706 53.307 402.166 52.9796 401.62C51.8892 399.801 50.82 397.969 49.7156 396.158C47.5003 392.526 45.2714 388.919 42.9422 385.359C40.9306 382.285 38.8555 379.258 36.6874 376.293C33.9956 399.038 31.603 421.806 30.5046 444.697C29.295 469.908 28.6531 495.159 28.304 520.396C28.2064 527.447 28.1407 534.498 28.0656 541.549C28.0265 545.221 27.9874 548.89 28.0175 552.562C28.0467 556.073 28.5771 559.915 27.332 563.238C26.606 565.177 24.0671 565.211 23.3506 563.238Z" fill="#343434"/>
<path fill-rule="evenodd" clip-rule="evenodd" d="M87.9402 153.732C89.009 139.894 87.3528 125.39 92.685 112.237C101.982 90.4143 128.052 83.138 148.263 74.8296C156.36 72.4357 183.605 72.1011 193.086 68.9327C214.542 61.7618 219.669 53.2178 236.718 66.8714C239.596 69.2038 241.397 71.7388 242.71 75.2023L242.656 75.2171C243.031 76.6611 242.629 78.1018 241.784 79.2023C249.176 86.7631 252.27 98.0983 248.477 108.163C236.099 134.354 236.681 148.515 240.669 176.671C245.877 202.957 233.976 212.559 214.267 226.861C215.069 228.418 215.236 230.487 214.19 231.861C191.398 263.908 148.425 279.208 111.606 262.943C96.6606 256.287 89.9883 240.361 86.1805 225.99C81.7448 209.9 80.3818 192.945 83.993 176.554C85.4496 168.973 87.3469 161.448 87.9402 153.732Z" fill="#FAFAFA"/>
<path fill-rule="evenodd" clip-rule="evenodd" d="M219.405 0.420051C216.638 0.00438216 214.549 1.72183 213.555 4.14254L213.503 4.27289C213.184 5.09657 212.828 5.89774 212.446 6.68541C205.523 3.28717 195.645 4.16036 191.264 11.0424C188.138 15.9574 190.045 21.7907 191.223 27.0028L191.997 30.4371C190.501 31.3894 189.374 33.0947 189.427 34.8606L189.433 34.9966L189.748 39.7856C188.749 38.7729 187.836 37.6702 187.022 36.4954C186.46 35.4647 185.852 34.452 185.2 33.4707C181.363 27.696 172.749 32.7146 175.916 38.8989C176.523 40.0917 177.207 41.2214 177.94 42.3107C178.768 43.9175 179.447 45.5694 179.969 47.2662C178.471 47.9189 177.319 49.3682 177.198 51.5557C176.914 56.6643 179.595 60.9267 183.86 63.6048C185.115 64.3925 186.41 64.5455 187.584 64.2529C187.791 64.532 187.998 64.8111 188.196 65.0946C186.496 66.4764 184.962 68.0518 183.644 69.7981C179.676 69.204 175.686 68.9249 171.696 68.9159C166.82 66.5259 160.982 66.5754 155.741 67.4711C152.368 68.0473 149.129 69.168 145.809 69.9737C142.309 70.8199 138.756 70.8514 135.216 71.4275C130.753 72.1521 126.84 74.2136 124.379 77.5038C121.676 77.5848 118.833 78.6921 116.476 80.1954C110.988 83.6972 105.532 87.2484 100.058 90.7727C97.9565 92.1257 97.171 94.2857 97.5572 96.6949L97.5835 96.849L97.7679 97.8482L97.3348 98.4632C95.6595 100.831 93.8366 103.31 92.7524 105.923C90.7462 108.817 88.9334 111.851 87.3275 114.979C85.1638 119.183 83.378 123.639 82.168 128.212C81.8666 129.369 81.5652 130.534 81.3673 131.714C81.0839 133.379 81.5203 134.671 81.7587 136.269C82.0556 138.294 82.1635 140.346 82.4784 142.376C82.6898 143.722 83.8324 144.384 85.0289 144.42C84.5791 147.845 84.2552 151.293 83.9448 154.714C83.5085 159.602 83.2116 164.503 82.9552 169.405C81.6327 171.327 78.9293 172.848 76.9771 173.375C74.2736 174.099 71.4397 173.312 68.8847 172.389C67.2788 171.808 65.9609 173.829 66.7435 175.18C69.2041 179.419 74.467 179.401 78.4525 177.525C80.1393 176.732 81.6192 175.585 82.7168 174.09C82.6493 175.513 82.5774 176.935 82.5054 178.362L82.4384 179.654C81.628 194.747 79.8784 210.359 82.7123 225.302C87.6199 251.188 109.028 270.897 135.18 272.428C148.903 273.231 160.331 269.175 166.014 266.913C171.696 264.65 169.488 260.037 165.543 261.356C158.747 263.627 146.262 267.012 135.09 265.55C108.757 262.106 86.4278 248.936 88.7219 192.216C89.0473 184.172 90.0489 176.125 90.2648 168.081C90.4718 160.218 90.3953 152.351 90.7417 144.492L90.8571 141.811C90.9924 138.678 91.137 135.53 91.3714 132.393C91.6548 131.178 91.8887 129.945 92.2351 128.752C93.1752 125.507 94.4032 122.352 95.9281 119.34C96.2655 119.597 96.6433 119.782 97.0527 119.854C100.161 120.412 103.076 120.254 105.986 118.958C107.345 118.359 108.541 117.563 109.657 116.577C110.188 116.113 110.543 115.663 110.822 115.195C112.23 115.218 113.638 114.794 114.519 113.782C115.525 112.627 115.692 111.435 115.298 110.331L115.257 110.221L115.356 110.185C116.544 113.26 118.91 115.965 121.505 117.792C125.607 120.691 130.74 121.528 135.661 121.604C141.095 121.685 146.826 120.848 152.188 119.993C153.605 119.768 155.012 119.511 156.393 119.165C156.447 119.219 156.501 119.282 156.56 119.336C161.162 123.742 167.635 124.877 173.473 122.361C176.847 120.907 179.676 118.566 182.177 115.884C182.213 117.288 182.285 118.692 182.407 120.083L182.457 120.635C182.706 123.226 183.185 125.973 185.142 127.843C188.304 130.872 192.892 129.657 196.54 127.685C196.536 127.78 196.536 127.879 196.536 127.978C195.551 131.327 194.561 134.68 193.571 138.033L193.358 138.747C192.639 141.128 191.849 143.512 191.633 146.004C191.219 150.766 194.386 155.47 199.676 153.872C202.45 153.037 204.673 150.702 206.806 148.833L208.15 147.67C204.673 159.044 202.262 170.823 202.037 182.692C202.024 183.335 202.577 183.821 203.189 183.844C204.619 183.902 206.157 183.619 207.597 183.047C207.678 183.043 207.759 183.038 207.844 183.025C210.3 182.669 212.581 181.782 214.592 180.473C214.128 181.945 213.921 183.524 214.043 185.176C214.074 185.577 214.7 185.716 214.79 185.275C215.95 179.564 222.63 175.247 228.388 176.341C234.568 177.516 239.121 182.836 240.236 188.89C241.433 195.393 239.143 202.915 234.901 207.933C232.949 210.247 230.38 212.178 227.331 212.664C225.936 212.884 224.488 212.808 223.134 212.412C222.558 212.241 222.018 212.002 221.469 211.777C220.669 211.453 219.733 211.403 218.977 211.061C217.264 210.292 215.541 211.872 216.409 213.631C217.165 215.166 217.844 216.201 219.099 216.994C218.082 218.236 217.16 219.964 216.818 220.428C215.073 222.786 213.301 225.014 211.312 227.17C209.288 229.358 207.08 231.356 204.745 233.206L203.764 233.982C201.515 235.767 199.557 237.42 197.971 239.98C196.72 242.001 198.34 244.742 200.683 244.711C208.015 244.607 213.346 238.162 217.142 232.531C217.682 231.725 218.19 230.875 218.663 230.001C218.834 230.276 219.022 230.533 219.234 230.767L218.816 231.892C217.574 235.205 222.922 237.37 224.474 234.277C225.603 232.036 226.912 229.902 228.37 227.886C229.229 227.764 230.07 227.242 230.538 226.567C231.721 224.852 233.048 223.119 234.168 221.292C234.789 220.702 235.428 220.135 236.08 219.582C236.269 219.748 236.462 219.915 236.647 220.09C237.465 221.958 238.477 223.664 239.732 225.271L240.001 225.614C242.406 228.646 245.537 231.749 249.413 232.49C250.596 232.716 251.734 231.244 250.686 230.303C247.973 227.863 244.766 226.203 242.265 223.48C241.033 222.138 239.901 220.66 238.928 219.112L238.707 218.754C238.545 218.488 238.378 218.222 238.207 217.952C239.336 217.183 240.466 216.409 241.595 215.634C244.703 218.291 248.75 219.507 252.188 221.708L252.53 221.931C255.638 224.011 258.913 219.411 256.421 216.886C253.674 214.113 251.381 210.806 248.947 207.723C250.091 205.614 250.633 203.12 250.836 200.6C250.916 199.886 250.978 199.172 251.041 198.459C252.786 198.486 254.541 197.887 256.025 196.856L256.587 196.456C258.391 197.032 260.285 197.311 262.098 197.261C266.362 197.135 268.107 192.261 265.44 189.178C262.718 186.027 257.955 185.338 254.181 186.869C254.059 186.806 253.933 186.738 253.812 186.671C253.992 185.842 253.952 185.091 253.747 184.431L253.806 184.029C254.636 182.755 255.182 181.3 255.389 179.763C255.553 178.545 255.519 177.339 255.238 176.136C255.144 175.736 254.949 175.322 254.801 174.905C255.107 174.129 255.288 173.328 255.343 172.523C255.429 172.42 255.515 172.316 255.596 172.202C257.468 169.571 257.09 166.401 255.308 164.272C255.3 164.137 255.287 164.001 255.269 163.867C255.373 163.632 255.469 163.395 255.556 163.155C257.298 161.397 258.576 159.282 258.338 156.661C258.198 155.119 257.564 153.731 256.606 152.694C256.776 152.19 256.792 151.607 256.586 151.121C258.116 147.049 257.922 142.146 256.821 137.592C257.064 136.899 257.19 136.147 257.163 135.35C257.037 131.97 254.113 128.864 250.65 128.905C250.233 128.909 249.842 128.963 249.467 129.043L249.462 128.962C249.329 127.948 249.05 127.01 248.643 126.169C248.844 126.096 249.029 125.992 249.191 125.854C251.411 127.039 253.759 127.944 256.222 128.562C258.032 129.015 259.887 126.956 258.761 125.256C258.239 124.467 257.663 123.758 257.042 123.111C257.925 123.116 258.821 123.176 259.727 123.292C261.355 123.504 263.173 122.392 264.23 120.889C265.543 122.167 266.861 123.441 268.179 124.715C271.517 127.951 276.559 125.57 277.086 121.303C278.08 121.037 279.006 120.587 279.821 119.944C285.084 122.23 290.747 123.486 296.536 123.724C300.692 123.895 303.122 119.052 301.178 115.632C299.874 113.336 298.254 111.275 296.388 109.483C299.285 110.37 302.276 111.009 305.33 111.419C306.981 111.639 309.316 110.271 309.977 108.754C312.505 102.921 312.289 96.84 309.379 91.1643C309.266 90.9392 309.14 90.7232 309.019 90.5071C308.717 89.7555 308.389 89.0128 308.034 88.2837C311.614 84.5478 311.925 78.9936 309.995 74.3441C310.769 73.0884 311.065 71.576 310.539 70.2077C309.041 66.2694 306.882 62.6326 304.156 59.5089C304.417 59.0048 304.646 58.4692 304.84 57.893C306.374 53.2345 304.597 47.6128 301.012 44.3676C298.758 42.3242 296.167 41.0999 293.401 40.3167C292.236 38.2553 290.738 36.3964 288.993 34.83C288.925 34.6815 288.858 34.533 288.781 34.3844C286.064 29.2623 281.116 26.5167 275.813 25.8821C275.606 23.8792 274.256 21.9662 272.295 21.3451C271.755 19.6122 270.95 17.9559 269.844 16.4525C268.103 14.085 265.21 12.9688 262.484 14.5216C260.991 15.3723 259.561 16.349 258.22 17.4293C257.618 17.1467 256.935 16.9639 256.165 16.9056L255.971 16.8936L251.536 16.6686C249.678 15.8449 247.825 14.9807 245.967 14.139C244.851 13.2163 243.605 12.4467 242.247 11.875C240.708 11.2314 239.134 10.8668 237.555 10.7453C236.273 10.3267 234.982 9.95763 233.669 9.66956C230.583 8.99442 227.353 8.61633 224.15 8.64784C224.085 7.81837 224.052 6.97899 224.059 6.12968L224.065 5.7042C224.137 2.98111 221.964 0.807136 219.405 0.420051ZM222.513 218.29C222.954 218.384 223.399 218.461 223.845 218.515C223.71 218.848 223.575 219.181 223.444 219.514C223.084 219.717 222.72 219.91 222.356 220.09C222.464 219.478 222.527 218.862 222.513 218.29ZM245.624 211.418L245.923 211.969C245.971 212.059 246.019 212.148 246.066 212.236C245.432 212.187 244.793 212.2 244.163 212.272L244.165 212.205C244.246 212.178 244.327 212.152 244.404 212.115C244.839 211.906 245.243 211.672 245.624 211.418ZM233.133 186.279C229.154 186.511 225.782 187.122 222.163 188.863L221.852 189.016C218.654 190.604 213.364 193.539 213.809 197.747C213.935 198.945 214.803 200.205 216.171 200.111C219.918 199.854 222.059 196.073 224.596 193.715C227.155 191.338 230.3 188.894 233.399 187.26C233.837 187.03 233.664 186.302 233.188 186.279L233.133 186.279ZM251.18 130.831C252.134 130.863 251.815 131.79 251.324 131.016C251.284 130.953 251.234 130.89 251.18 130.831ZM199.704 68.933C208.736 69.1707 217.825 74.5066 224.591 79.9001C230.477 84.5924 235.56 90.1736 240.06 96.1892C241.218 99.185 242.212 102.243 243.052 105.324C243.605 107.359 243.952 109.416 244.415 111.468L244.559 112.097C244.923 112.778 245.193 113.51 245.39 114.267C244.57 115.09 243.506 115.679 242.335 115.958C241.958 116.048 241.644 116.243 241.396 116.502C240.453 114.927 239.629 113.265 239.15 111.504L239.132 111.422C237.32 108.452 235.351 105.574 233.241 102.795C227.421 95.1206 221.011 88.1261 213.305 82.3064C207.462 77.8954 200.931 74.4386 193.985 72.1926C195.685 70.8203 197.616 69.7347 199.704 68.933Z" fill="#343434"/>
<path fill-rule="evenodd" clip-rule="evenodd" d="M110.18 230.858C107.337 230.195 105.104 232.604 105.663 235.378C106.255 238.315 109.41 239.321 112.056 239.229C115.056 239.125 118.053 238.505 121.068 238.38C124.165 238.253 127.274 238.229 130.373 238.313C133.239 238.39 136.181 238.896 139.025 238.442C140.132 238.265 140.027 236.802 139.307 236.282C137.167 234.739 134.395 234.109 131.873 233.462C129.302 232.801 126.673 232.295 124.037 231.986C121.363 231.673 118.668 231.517 115.977 231.487C114.752 231.473 113.25 231.745 112.056 231.524C111.447 231.412 110.827 231.01 110.18 230.858ZM118.387 192.715C114.99 194.781 109.815 199.599 113.469 204.72C117.77 209.237 123.963 204.059 127.015 201.717C129.845 199.902 133.024 204.57 130.399 206.689C108.346 223.025 99.3973 193.256 116.669 190.286C118.571 189.959 119.277 192.076 118.387 192.715ZM143.017 177.288C138.474 176.532 137.679 183.013 142.182 183.466C143.127 183.561 144.067 183.644 145.005 183.726C144.913 184.02 144.853 184.322 144.819 184.632C144.777 184.896 144.745 185.176 144.716 185.496C144.574 187.091 145.704 188.749 147.024 189.522C148.396 190.325 150.365 190.433 151.728 189.522C152.43 189.052 153.132 188.522 153.519 187.745C154.039 186.947 154.322 186.024 154.351 185.076C156.423 185.614 158.532 186.342 160.624 186.728C160.547 186.803 160.471 186.884 160.398 186.973C160.342 187.041 160.419 187.168 160.5 187.105L161.55 186.873C161.873 186.915 162.196 186.95 162.518 186.97L162.51 186.942C163.048 186.932 163.489 186.295 163.007 185.786C161.159 183.831 158.275 182.532 155.645 181.445L153.112 180.406C149.872 179.089 146.452 177.86 143.017 177.288ZM106.464 179.293C103.488 178.953 100.542 179.088 97.5607 179.27C92.5438 179.576 94.6481 186.896 98.6749 185.206C98.6335 185.474 98.6227 185.742 98.6538 185.992C98.8112 187.279 99.2304 188.366 100.411 189.057C101.507 189.699 102.896 189.697 103.993 189.057C105.167 188.372 105.696 187.407 105.996 186.152C106.228 185.18 106.135 184.366 106.001 183.403C105.956 183.084 105.817 182.786 105.625 182.519C105.905 182.449 106.187 182.381 106.468 182.317C108.972 181.747 111.442 181.862 113.938 181.501C114.205 181.462 114.247 181.032 114.014 180.922C111.771 179.868 108.919 179.573 106.464 179.293ZM143.476 156.684C141.759 156.028 139.601 157.119 138.725 158.619C137.73 160.321 138.155 162.287 139.383 163.721C141.266 165.921 144.854 167.277 147.498 168.533L147.71 168.634C150.425 169.945 153.215 171.149 156.042 172.197C158.822 173.229 161.715 174.038 164.597 174.732C166.117 175.098 167.669 175.4 169.223 175.591C170.449 175.741 171.394 175.405 172.568 175.405C172.739 175.405 172.792 175.178 172.653 175.09C171.556 174.401 170.743 173.493 169.547 172.854C168.302 172.19 167.052 171.536 165.798 170.889C163.262 169.581 160.821 168.125 158.375 166.66C155.796 165.116 153.276 163.49 150.826 161.749C148.428 160.045 146.218 157.731 143.476 156.684ZM112.871 155.284C110.727 154.867 108.603 155.883 107.968 158.07C107.359 160.165 107.996 160.614 106.372 162.113C105.078 163.308 103.683 164.375 102.275 165.425L100.202 166.966C96.4484 169.747 92.6634 172.376 88.3471 174.252C87.9823 174.41 88.1932 174.953 88.5391 174.96C95.4008 175.092 101.98 174.163 108.174 171.089C111.067 169.653 113.974 167.837 115.65 164.971C117.592 161.652 117.536 156.188 112.871 155.284Z" fill="#343434"/>
<path fill-rule="evenodd" clip-rule="evenodd" d="M70.5814 180.975C74.8701 210.001 104.808 213.211 110.127 184.395C109.273 184.021 108.659 183.285 108.787 181.855C108.817 175.575 106.869 168.938 101.208 165.446C95.3573 161.842 88.5105 161.485 81.7402 161.576C68.8204 161.268 69.0921 172.073 70.5814 180.975ZM114.814 168.351C118.868 168.18 123.998 168.323 127.63 170.795C128.629 168.104 131.224 165.231 133.845 163.695C124.101 163.98 114.071 163.021 104.254 162.276C106.604 163.879 108.79 166.287 110.211 169.07C111.529 168.367 113.418 168.433 114.814 168.351ZM132.686 184.052C143.929 222.777 171.994 205.898 175.054 200.935C180.573 192.723 181.611 172.759 176.804 167.421C169.922 162.594 160.181 163.837 152.051 163.718C137.117 163.92 126.51 168.39 132.686 184.052ZM57.3058 166.241C60.3605 165.841 63.6249 165.761 66.4651 167.107C67.3396 163.388 70.0848 160.278 73.1846 158.91C73.5597 158.439 73.5035 158.186 74.785 158.257C82.6547 155.89 91.4609 157.142 99.0234 159.569C110.967 160.576 123.498 161.369 135.542 162.756C146.824 157.686 180.873 156.943 182.989 169.439C185.65 169.041 190.183 166.945 192.42 169.788C208.825 167.005 225.777 170.873 242.254 172.595C246.401 173.359 248.537 181.595 243.829 181.483C241.183 180.764 243.911 176.354 240.347 176.023C224.45 174.285 208.9 171.821 192.84 171.532C193.399 174.307 182.218 174.487 182.053 172.867C182.029 172.879 182.004 172.887 181.979 172.898C184.742 183.201 182.248 198.028 177.255 204.417C170.26 212.782 152.696 215.182 144.909 209.8C134.863 204.832 124.412 179.896 127.347 171.611C122.02 169.922 116.753 170.429 111.223 171.289C112.489 174.867 114.675 183.675 111.531 184.439C112.108 201.925 96.2034 212.836 81.5419 205.662C68.8519 199.702 64.4139 180.835 65.9667 169.383C64.3869 172.437 51.1225 169.112 57.3058 166.241Z" fill="#FF9500"/>
</svg>
