<svg width="369" height="537" viewBox="0 0 369 537" fill="none" xmlns="http://www.w3.org/2000/svg">
<path fill-rule="evenodd" clip-rule="evenodd" d="M317.458 526.965C312.074 527.298 306.689 527.561 301.305 527.762C230.894 530.387 160.54 522.355 90.1719 520.598C65.6668 519.952 41.2873 520.275 16.8452 522.243C14.4503 522.436 11.7118 519.858 12.006 517.401C16.5218 478.398 22.1711 439.499 25.099 400.336C25.1013 398.265 24.8341 396.197 24.1224 394.245C23.9884 394.092 23.293 392.376 22.6745 392.27C22.8764 392.419 21.9611 392.157 22.544 392.202C19.0102 391.623 15.5443 387.806 18.1088 384.153C44.5278 343.637 80.592 306.657 92.1948 258.533C94.936 245.523 104.838 244.718 115.386 239.351C118.677 237.393 126.725 231.967 128.034 228.195C131.163 214.601 125.654 201.283 141.75 195.782C152.375 192.835 171.156 190.341 181.908 193.45C195.022 197.817 194.041 212.604 201.648 222.778C205.582 228.662 212.289 236.719 218.482 237.621C221.484 238.058 223.695 231.982 226.692 232.401C273.408 243.753 337.055 321.2 357.133 364.072C361.658 377.564 347.066 373.494 347.962 387.055C349.067 412.783 351.485 445.72 350.051 471.478C348.708 486.429 349.702 502.093 345.057 516.482C346.308 518 344.511 519.535 343.046 520.195C341.199 523.337 323.03 526.53 317.458 526.965Z" fill="#FAFAFA"/>
<path fill-rule="evenodd" clip-rule="evenodd" d="M195.836 206.575C194.621 201.106 185.926 203.451 187.415 208.897C189.723 217.319 194.509 225.277 201.265 230.862C206.483 235.174 213.595 239.022 220.648 239.733C219.987 240.377 219.353 241.066 218.687 241.723C217.185 243.217 215.588 244.603 213.941 245.936C210.558 248.672 207.041 251.134 203.2 253.196C187.856 261.433 170.524 263.332 153.386 261.415C145.253 260.505 136.999 258.962 129.352 255.986C125.807 254.61 122.362 252.8 119.32 250.514L118.525 249.916C116.926 248.708 114.792 247.003 113.793 245.139C116.833 245.823 120.679 242.582 122.789 240.697C125.096 238.627 127.04 235.957 128.475 233.22C131.286 227.851 132.775 220.924 130.418 215.167C130.261 214.784 129.757 214.848 129.712 215.262C129.015 221.973 127.206 228.265 122.393 233.234C120.256 235.435 117.697 237.281 114.904 238.563L114.51 238.744C113.32 239.295 112.068 239.941 111.566 241.12C111.372 241.097 111.179 241.115 110.995 241.165C110.828 241.21 110.675 241.26 110.527 241.314C110.86 240.661 111.035 239.891 111.004 238.982C110.886 235.457 106.051 235.35 105.381 238.487C105.502 238.073 105.664 238.474 105.358 238.6C105.363 238.563 105.372 238.523 105.381 238.487L105.372 238.52L105.354 238.599L105.358 238.6C105.346 238.656 105.336 238.715 105.33 238.775L105.323 238.854L105.327 238.788C105.331 238.739 105.337 238.696 105.344 238.656L105.354 238.6C105.309 238.622 105.246 238.636 105.174 238.636L105.144 238.647C105.032 238.696 104.634 238.881 104.517 238.928C103.712 239.225 102.812 239.319 101.989 239.576C100.203 240.125 98.6286 241.035 97.54 242.582C96.7573 243.695 96.3214 244.968 96.1415 246.291C88.2381 250.095 80.7575 255.037 74.491 261.154C60.506 274.8 50.7542 291.882 42.7519 309.562C38.679 318.563 35.0494 327.755 31.4994 336.971L30.9395 338.427C27.134 348.333 23.7689 358.348 22.9417 368.997C22.8652 369.952 23.1801 370.847 23.7243 371.59C23.5309 372.391 23.4315 373.192 23.4589 373.975C23.4634 374.097 23.472 374.219 23.4814 374.34C22.2039 374.318 20.9534 374.853 19.7659 376.357C19.2846 376.203 18.7628 376.185 18.25 376.352C15.1237 377.351 14.6199 380.785 14.0306 383.662C13.4229 386.632 13.158 389.675 13.1535 392.704C13.1535 393.789 13.7742 395.157 14.8268 395.621C16.8061 396.493 18.9377 397.066 20.9849 397.858C22.5233 398.452 24.0662 399.014 25.6226 399.541C24.7589 401.048 24.48 403.146 24.0122 404.735C23.279 407.215 22.6897 409.704 22.1945 412.243C18.8392 429.504 16.5136 446.95 13.3739 464.247C11.804 472.911 9.97726 481.517 8.11542 490.123C7.19778 494.354 6.22168 498.576 5.17358 502.78C4.61536 505.021 4.03555 507.263 3.43729 509.491C3.26334 510.142 3.0874 510.791 2.90948 511.439L2.5961 512.574C1.91238 512.952 1.32761 513.524 0.92276 514.307C-0.557617 517.17 0.292999 520.397 3.13141 522.008C6.21719 523.764 9.90079 522.107 11.6016 519.258C12.7981 517.246 13.1895 514.582 13.7787 512.344C14.4445 509.833 15.0787 507.308 15.6905 504.783C19.8464 487.629 22.6295 470.174 24.7272 452.653L24.8759 451.401C25.942 442.381 26.9721 433.339 27.6378 424.278C27.9662 419.827 28.2271 415.375 28.389 410.915C28.47 408.62 28.3395 406.311 28.2091 404.019C28.1506 403.016 28.0651 402.007 28.0337 401.004L28.0235 400.861C28.0152 400.759 28.0035 400.626 27.994 400.485L27.9842 400.315C31.088 401.287 34.2367 402.098 37.4165 402.781C44.1823 404.244 51.1051 405.059 58.0099 404.645C57.0473 416.087 55.7923 427.501 54.038 438.839C52.3466 449.758 50.3944 460.655 48.1903 471.485C47.0877 476.926 45.8961 482.355 44.6411 487.765C43.9664 490.654 43.1972 493.526 42.5895 496.429C42.2301 498.157 42.1176 499.602 42.8419 501.218C42.0444 503.391 41.3362 505.575 40.6395 507.631L40.4308 508.244C39.1983 511.845 36.8592 515.526 39.3017 519.065C40.5653 520.891 42.6255 521.936 44.6996 521.999C44.7356 522.021 44.7761 522.049 44.8166 522.071C45.9322 522.669 47.2186 522.787 48.4422 522.53C50.2999 522.894 52.1622 523.246 54.029 523.566C58.6397 524.362 63.2729 525.019 67.915 525.573C76.7541 526.626 85.6516 527.202 94.5442 527.522C127.103 528.696 159.697 526.635 192.268 527.229C208.863 527.53 225.457 528.278 242.024 529.268C250.292 529.763 258.564 530.294 266.836 530.704L269.397 530.829C276.795 531.183 284.198 531.456 291.59 530.916C291.734 530.906 291.846 530.848 291.923 530.767C294.473 530.479 297.037 528.129 296.781 525.415C295.679 513.856 294.577 502.298 293.47 490.735C291.505 470.134 289.521 449.533 287.515 428.936L287.225 425.963C286.551 419.023 285.907 412.067 285.58 405.099C287.227 404.983 288.868 404.834 290.51 404.654C308.303 402.705 325.361 397.32 341.739 390.246L342.402 389.958C343.878 389.314 345.492 388.671 347.148 387.983C347.12 391.128 347.224 394.279 347.238 397.394C347.26 402.566 347.22 407.737 347.206 412.904C347.175 423.553 346.77 434.207 346.239 444.839C345.308 463.617 344.215 482.368 342.56 501.101C342.141 505.813 341.574 510.517 341.174 515.229C340.935 518.006 341.507 520.32 344.048 521.779C345.299 522.499 346.266 522.197 347.508 521.617C350.539 520.194 350.625 516.832 350.913 513.906C351.133 511.7 351.336 509.495 351.534 507.285C351.956 502.573 352.321 497.86 352.618 493.138C353.791 474.378 354.134 455.637 353.324 436.854C352.948 428.069 352.405 419.264 351.685 410.494L351.516 408.471C350.922 401.463 350.539 394.108 349.311 387.055C354.264 384.859 359.172 382.064 361.448 377.418C364.398 371.387 361.155 366.229 356.536 362.678C356.581 362.079 356.536 361.485 356.41 360.945C355.083 355.197 352.861 349.517 350.715 344.035C348.551 338.525 346.163 333.102 343.536 327.795C332.992 306.537 318.588 287.111 301.419 270.745C292.89 262.617 283.556 255.104 273.593 248.803C268.653 245.684 263.588 242.803 258.344 240.238L257.568 239.86C253.917 238.087 249.822 236.202 245.761 235.215C245.339 234.9 244.912 234.603 244.48 234.319C242.883 233.256 240.715 234.026 239.77 235.543C239.311 235.187 238.781 234.873 238.173 234.589L237.573 234.315C233.93 232.673 229.555 231.138 225.601 232.217C223.145 232.888 221.211 234.697 220.342 237.002C218.35 235.948 216.393 234.864 214.481 233.536C211.409 231.412 208.624 228.773 206.123 226.005C201.108 220.438 197.464 213.916 195.836 206.575ZM21.8036 382.113C22.1455 382.212 22.5053 382.248 22.8787 382.203C22.2042 382.282 23.5554 382.681 23.9259 382.872L23.9538 382.887C24.6285 383.274 25.3073 383.648 25.996 384.008C27.6018 384.854 29.2433 385.615 30.9125 386.331C34.2008 387.73 37.5969 388.806 41.0831 389.594C44.4927 390.363 48.0688 390.813 51.564 390.885C53.903 390.93 56.6785 390.823 59.0985 390.134C58.8192 394.378 58.5092 398.618 58.1629 402.853L53.3834 401.757C48.6037 400.66 43.8289 399.535 39.1128 398.168C35.5727 397.142 32.0821 395.94 28.6319 394.644C26.8236 393.964 25.0288 393.244 23.2566 392.47C22.3745 392.085 21.5475 391.626 20.7303 391.162L20.0313 390.764C20.1932 388.869 20.4901 387.01 20.9215 385.138C21.1464 384.148 21.5292 383.13 21.8036 382.113ZM349.087 362.124C349.694 364.096 350.625 365.937 352.748 366.382C353.499 366.54 354.129 366.454 354.651 366.198L354.776 366.451C356.522 370.036 357.034 373.82 353.018 376.582C351.205 377.828 349.23 378.909 347.188 379.876C343.536 381.615 339.647 383.013 335.98 384.435L335.25 384.719C328.691 387.294 322.03 389.639 315.264 391.601C308.399 393.586 301.414 395.179 294.342 396.192C291.361 396.615 288.356 396.912 285.346 397.106C285.297 393.055 285.319 389 285.333 384.949C286.404 384.813 287.465 384.67 288.49 384.548C291.613 384.184 294.725 383.738 297.82 383.185C304.284 382.028 310.681 380.43 316.92 378.386C328.48 374.592 339.235 369.168 349.087 362.124ZM222.34 238.041C224.967 235.26 229.991 236.264 233.162 237.614C234.12 238.023 235.088 238.438 236.005 238.937L236.183 239.037C237.252 239.652 237.246 240.019 236.725 241.246C236.046 242.862 235.101 244.423 234.201 245.922C230.351 252.355 225.281 257.954 219.492 262.684C198.989 279.427 169.535 285.333 143.895 279.725C131.589 277.036 119.72 271.609 110.661 262.708L109.836 261.886C106.183 258.229 101.17 252.936 101.521 247.516C101.688 244.909 103.815 244.761 105.988 244.257C106.878 244.05 107.729 243.757 108.467 243.344C107.873 245.905 111.035 249.712 112.668 251.31C116.091 254.663 120.212 257.283 124.57 259.241C132.865 262.972 141.888 264.737 150.872 265.853C161.065 267.122 171.478 267.01 181.595 265.133C190.398 263.499 199.075 260.407 206.65 255.591C210.122 253.385 213.546 250.869 216.442 247.939L217.058 247.317C219.15 245.196 221.583 242.633 222.834 239.851C223.311 239.855 223.784 239.841 224.256 239.81C224.589 239.792 224.768 239.319 224.436 239.144C224.062 238.946 223.689 238.748 223.316 238.555C223.378 238.347 223.433 238.145 223.478 237.938C223.514 237.762 223.329 237.6 223.167 237.699C222.942 237.834 222.726 237.978 222.515 238.131C222.457 238.104 222.398 238.073 222.34 238.041Z" fill="#343434"/>
<path fill-rule="evenodd" clip-rule="evenodd" d="M237.089 46.1076C234.756 43.6028 231.772 41.7367 228.511 41.1403C231.492 42.6306 234.407 44.1839 237.089 46.1076ZM241.658 67.7051C242.071 65.7963 242.348 63.8689 242.435 61.9421C241.914 62.7351 241.081 63.2649 240.146 63.5386C240.75 64.892 241.264 66.2864 241.658 67.7051ZM85.5602 97.6336C88.2528 86.4185 100.815 64.8466 103.785 60.6946C107.009 50.414 89.4238 42.1693 98.9875 34.1301C103.318 30.5027 109.04 29.2191 114.408 27.9327C151.577 19.0009 191.512 23.5055 225.984 39.93C231.228 38.8259 236.691 40.9837 240.504 44.7735C258.419 62.7901 234.005 95.297 228.666 115.608C219.507 138.256 238.374 142.065 236.351 161.227C234.779 171.127 224.758 173.743 216.302 175.239C214.947 175.557 213.135 175.604 212.698 177.038C211.327 185.406 206.63 193.38 200.324 198.792C200.876 200.427 200.455 202.411 198.51 203.847C180.891 216.948 158.676 223.504 136.701 222.326C110.513 220.921 96.9705 205.902 93.7025 202.035C75.6335 177.619 77.7926 145.403 81.4785 116.305C84.0461 96.0344 80.7902 117.501 85.5602 97.6336Z" fill="#FAFAFA"/>
<path fill-rule="evenodd" clip-rule="evenodd" d="M166.31 4.31216C165.486 1.7376 163.156 0.189263 160.489 0.508833C158.127 0.787894 155.599 3.1329 155.887 5.72097C155.941 6.22057 156.013 6.68868 156.099 7.12977L156.087 7.13371L156.076 7.13427L156.135 7.30531C156.31 8.12899 156.553 8.86715 156.913 9.5648C157.372 10.9016 157.812 12.2429 158.249 13.5887C157.619 13.5617 156.976 13.5977 156.324 13.7192C155.649 11.9908 154.97 10.267 154.295 8.53408C153.571 6.68418 153.062 4.30766 151.632 2.87635C149.801 1.04895 146.625 0.670868 144.394 1.97615C142.037 3.35345 141.196 5.80198 141.709 8.42605C141.969 9.76455 142.863 10.696 143.969 11.2813L144.088 11.3427L144.939 13.3591C144.678 13.2466 144.408 13.1431 144.115 13.0576C143.657 12.9225 143.207 12.837 142.766 12.801C141.551 10.6 140.215 8.46206 138.834 6.36461C137.247 3.95208 134.143 2.92586 131.538 4.45169C129.208 5.81549 127.958 9.39826 129.627 11.7523C130.895 13.5392 132.096 15.3621 133.279 17.203C133.077 17.239 132.874 17.284 132.681 17.3425C132.591 17.221 132.496 17.0994 132.397 16.9779C131.106 15.3756 129.604 14.1738 128.061 12.8415C126.617 11.5902 125.951 9.62331 124.053 8.67361C121.665 7.48085 118.786 8.05247 117.364 10.429C114.315 15.5196 119.434 19.2374 122.708 22.3206C119.861 20.5427 116.896 18.9178 113.856 17.5135C112.146 16.7259 110.41 15.9652 108.647 15.3081C106.033 14.3358 103.919 14.6469 101.773 16.4558C100.815 17.266 100.338 19.0353 100.779 20.2141C101.634 22.4736 102.983 23.8464 105.35 24.499C107.014 24.9581 108.719 25.2687 110.383 25.7503C113.172 26.5515 115.88 27.5282 118.507 28.748C118.318 28.865 118.138 28.991 117.972 29.1351C116.01 28.5004 114.013 27.9513 112.007 27.4832C108.68 26.7026 105.293 26.1751 101.892 25.8452L100.762 25.7399C96.6837 25.3484 91.7801 24.6257 89.2773 28.5319C88.4541 29.8192 88.3642 31.9437 89.2773 33.2174C91.0226 35.666 92.7589 36.1521 95.6468 36.1971C92.8039 36.4987 89.9655 36.8722 87.1406 37.3088C85.1935 37.6059 83.2464 37.9426 81.3079 38.3162L80.3393 38.5061C77.9777 38.9787 75.3418 39.2533 73.3131 40.6216C68.8868 43.6102 70.965 49.43 75.8681 50.0511C78.2386 50.3482 80.8701 49.3444 83.1957 48.8763C85.4538 48.4217 87.7209 48.0212 89.997 47.6701C91.1756 47.4855 92.3541 47.3235 93.5371 47.175C91.1306 47.5216 88.742 48.0122 86.4164 48.7053L85.7704 48.9004C81.2745 50.2714 75.2059 52.455 73.8034 57.2617C72.9532 60.1828 75.2788 62.7304 78.0947 62.9014C80.7127 63.0589 82.8943 61.4971 85.1164 60.3448C86.7358 59.5077 88.3822 58.882 90.1275 58.3464C91.9313 57.7928 93.7711 57.3337 95.6243 56.9601C94.0581 57.8235 92.5328 58.7724 91.0687 59.8339L90.3956 60.3314C86.504 63.2329 80.5697 67.7249 81.9407 73.1636C82.3725 74.8785 84.2843 76.5169 86.1196 76.3413C90.8967 75.8957 93.5326 70.8051 97.1357 68.0775C98.0759 67.3664 99.106 66.6642 100.186 65.9801C94.7247 72.4975 90.3794 80.0321 87.0732 87.8143C79.807 104.935 77.5778 120.79 77.5244 139.199L77.5234 139.769C77.5144 149.923 77.7438 160.262 78.7334 170.371C79.6511 179.711 81.3334 188.929 85.5663 197.387C92.66 211.569 106.483 222.614 121.728 226.818C138.69 231.499 157.651 227.84 171.546 217.037C175.09 214.283 170.39 208.301 166.768 210.844C152.307 220.994 133.603 224.207 117.004 217.339C103.838 211.893 93.2358 200.177 88.742 186.687C85.8817 178.106 85.049 168.955 84.0287 160.012L83.9604 159.416C82.8808 150.063 82.2556 140.647 82.2646 131.231C82.278 113.744 84.7881 99.3503 92.4756 83.4889C96.0921 76.0172 100.784 69.1087 106.389 63.0454C108.089 63.392 109.897 62.9059 111.616 62.7214C112.493 62.6268 113.37 62.5368 114.247 62.4558C113.351 63.0355 112.472 63.6383 111.608 64.2551L110.475 65.0726C106.93 67.6132 102.432 70.507 103.343 75.4186C103.591 76.7464 104.913 77.9662 106.195 78.2677C110.842 79.375 114.036 74.856 117.175 72.1734C119.906 69.8419 122.762 67.7534 125.673 65.6605C126.334 65.1879 127 64.7153 127.67 64.2472C127.04 64.9817 126.428 65.7278 125.83 66.4808L124.947 67.6012C122.274 70.9478 118.42 75.2978 120.801 79.636C121.476 80.8603 122.915 81.675 124.31 81.648C129.105 81.5489 131.012 76.1028 133.261 72.664C135.195 69.7159 137.296 66.9388 139.469 64.1617C140.067 63.401 140.67 62.6403 141.281 61.8797C151.353 62.4018 161.389 63.7341 171.249 65.863C178.023 67.3259 184.685 69.2212 191.297 71.2957L191.847 71.4706C195.425 72.6235 199.113 74.0991 201.693 76.6294C202.061 78.3727 201.778 80.2113 201.426 81.9523L201.151 83.2849C200.02 88.8574 199.249 94.3268 199.826 100.048C200.424 105.949 202.201 111.255 204.369 116.738C205.395 119.321 206.456 118.853 206.821 121.626C207.1 123.738 206.927 125.918 206.737 128.047L206.577 129.853C206.177 134.582 205.977 139.738 209.074 143.64C209.556 144.239 210.586 144 210.928 143.401C211.063 143.163 211.207 142.933 211.364 142.713C212.857 140.548 215.147 139.314 217.765 138.837C218.098 138.779 217.967 138.333 217.689 138.297C215.475 138.036 213.379 138.59 211.598 139.733C212.443 136.81 218.982 138.232 221.132 138.8L221.206 138.819C223.887 139.54 226.424 140.71 228.66 142.366C233.158 145.697 235.758 150.891 235.628 156.486C235.497 161.986 232.659 167.068 227.783 169.701C225.43 170.97 222.754 171.582 220.091 171.555C217.311 171.528 214.837 170.308 212.052 170.479C210.442 170.578 209.209 172.307 210.14 173.814C210.761 174.823 211.571 175.615 212.507 176.223C210.226 181.484 207.316 186.503 203.96 191.134C202.102 193.704 199.997 196.076 197.68 198.241C195.872 199.934 191.954 201.892 192.175 204.714C192.251 205.731 192.777 206.352 193.704 206.73C196.585 207.909 200.088 203.851 202.015 201.894L202.17 201.739C204.572 199.344 206.762 196.697 208.67 193.889C212.052 188.902 214.153 183.28 215.021 177.375C219.641 178.766 225.758 177.46 229.528 175.754C241.376 170.398 245.249 154.433 238.048 143.802C236.653 141.745 234.908 139.985 232.92 138.563C233.356 138.324 233.765 138.018 234.13 137.631C236.145 135.489 237.57 132.693 238.984 130.117L239.154 129.808C240.41 127.54 241.594 125.236 242.704 122.896L243.117 122.017C245.596 116.684 247.768 114.352 249.536 108.744C251.236 103.334 252.577 97.82 253.445 92.2118L253.676 90.7273C254.178 87.4731 254.653 83.9933 254.286 80.6893C256.81 81.5129 259.347 82.0215 261.843 80.7838C263.49 79.9691 264.398 77.5926 263.836 75.8867C263.427 74.6309 262.743 73.6452 261.875 72.8711C262.392 72.61 262.878 72.2769 263.305 71.9079L263.679 71.5842C265.19 70.2695 265.298 67.7715 264.38 66.1241C264.29 65.9666 264.2 65.8045 264.115 65.647C263.242 64.0851 261.438 63.0634 259.657 63.0904C259.369 63.0949 259.081 63.0949 258.789 63.0904C259.621 62.9059 260.435 62.6223 261.209 62.1452C264.7 59.9983 264.259 54.1785 260.035 53.1523C258.263 52.7247 256.306 52.9002 254.354 53.3593C254.426 53.3188 254.498 53.2783 254.57 53.2333C256.045 52.3286 257.282 50.5597 257.143 48.7458C256.99 46.7384 256.342 45.3071 254.57 44.2538C253.031 43.3446 250.854 43.2591 249.325 44.2538C247.998 45.1225 246.698 46.0812 245.447 47.112C246.702 45.5681 247.791 43.8893 248.232 42.1069C248.776 39.8879 247.867 37.4709 245.87 36.3006C244.278 35.3689 242.595 35.4724 241.093 36.1926C241.174 35.0268 240.89 33.8386 240.117 32.7853C238.533 30.6253 235.655 29.3826 233.149 30.958C232.821 31.165 232.38 31.5206 231.952 31.9572C232.785 29.3061 232.033 26.5245 229.195 25.3272C227.463 24.5936 225.12 24.9626 223.617 26.2274C224.571 21.0648 216.955 17.2705 213.995 22.6041C213.324 23.8124 212.659 25.0847 212.065 26.3862L211.845 26.8756L211.823 26.8666L211.974 26.5087L212.129 26.1509C212.952 24.238 214 22.2486 214.288 20.1736C214.711 17.1039 213.343 14.1918 210.006 13.7417C208.283 13.5077 206.366 14.2908 205.21 15.6596C205.836 10.8971 200.519 7.43584 196.691 10.9916C194.878 12.675 193.911 15.137 192.759 17.2975C192.107 18.5172 191.441 19.7325 190.789 20.9568C190.623 20.7587 190.443 20.5607 190.254 20.3671C191.221 17.4685 191.972 14.4979 192.606 11.5092C193.209 8.69161 191.801 5.76598 188.895 4.96975C186.255 4.24014 182.949 5.86995 182.359 8.68306C181.946 10.663 181.455 12.6214 180.915 14.5699C180.547 14.4799 180.182 14.4169 179.822 14.3718C179.792 14.0058 179.758 13.6377 179.72 13.2716L179.579 11.9696C179.264 8.99472 178.947 5.59873 177.393 3.06989C174.744 -1.25105 167.952 0.54034 167.88 5.64895C167.839 8.29102 168.914 10.9106 169.287 13.5257C169.449 14.6644 169.544 15.8167 169.598 16.9689C168.874 13.1431 167.88 9.36676 166.728 5.64895C166.593 5.20335 166.449 4.75776 166.31 4.31216ZM224.913 151.845C218.953 150.923 213.505 154.249 209.974 158.907C209.331 159.758 209.754 160.96 210.334 161.675C210.752 162.202 211.315 162.265 211.949 162.346C212.678 162.441 213.6 161.851 213.919 161.216C216.191 156.679 220.244 153.812 224.913 152.048C224.998 152.016 225.025 151.863 224.913 151.845ZM216.65 70.5557L216.47 70.3618C215.264 69.11 217.17 67.198 218.379 68.4524C219.651 69.773 220.497 71.3772 221.31 73.0029C222.085 74.5531 219.758 75.9223 218.98 74.3663L218.625 73.6591C218.069 72.5594 217.476 71.473 216.65 70.5557ZM233.389 67.9866C231.679 67.6985 232.404 65.0956 234.106 65.3828C236.311 65.7546 238.508 66.1772 240.713 66.5494C242.422 66.8375 241.697 69.4404 239.995 69.1537C237.79 68.7815 235.594 68.3588 233.389 67.9866ZM131.563 50.2163C133.214 49.6649 133.923 52.2723 132.28 52.8206C130.011 53.5781 127.76 54.3545 125.607 55.4064C124.052 56.1661 122.683 53.8378 124.245 53.0744C126.608 51.9199 129.072 51.0481 131.563 50.2163ZM233.777 46.7163C235.39 46.0709 236.09 48.6819 234.495 49.3206L228.665 51.6535C227.053 52.2989 226.352 49.6883 227.948 49.0496L233.777 46.7163ZM111.207 40.3756L111.419 40.2412C112.881 39.2933 114.236 41.6302 112.782 42.5732C111.928 43.1264 110.891 43.5017 110.109 44.1608L109.946 44.3065C108.684 45.4993 106.771 43.5935 108.037 42.3967C108.963 41.522 110.136 41.0349 111.207 40.3756Z" fill="#343434"/>
<path fill-rule="evenodd" clip-rule="evenodd" d="M126.023 196.679C122.623 196.206 118.967 194.279 115.719 195.845C114.201 196.577 113.48 199.08 114.507 200.471C116.074 202.596 117.693 202.948 120.238 203.152C122.145 203.305 124.063 203.316 125.966 203.096L126.45 203.037C129.845 202.598 133.374 201.65 136.004 199.367C136.542 198.9 136.267 197.891 135.576 197.745C132.453 197.087 129.185 197.12 126.023 196.679ZM130.025 188.845C130.026 188.818 129.985 188.818 129.983 188.845C129.901 190.79 129.355 192.592 128.345 194.256C128.332 194.28 128.368 194.301 128.382 194.277C129.392 192.613 129.943 190.791 130.025 188.845ZM119.307 148.715C115.91 150.781 110.735 155.598 114.389 160.72C118.69 165.236 124.883 160.058 127.935 157.716C130.765 155.902 133.944 160.569 131.319 162.689C109.266 179.025 100.317 149.255 117.589 146.286C119.491 145.959 120.197 148.076 119.307 148.715ZM101.922 125.595C101.124 125.595 100.361 125.866 99.6664 126.367C98.9826 126.86 98.3635 127.58 97.848 128.478C96.8723 130.178 96.2624 132.524 96.2624 135.119C96.2624 137.713 96.8723 140.06 97.848 141.759C98.3635 142.657 98.9826 143.377 99.6664 143.871C100.361 144.372 101.124 144.643 101.922 144.643C102.719 144.643 103.482 144.372 104.177 143.871C104.861 143.377 105.48 142.657 105.995 141.759C106.971 140.06 107.581 137.713 107.581 135.119C107.581 132.524 106.971 130.178 105.995 128.478C105.48 127.58 104.861 126.86 104.177 126.367C103.482 125.866 102.719 125.595 101.922 125.595ZM138.86 128.241L138.56 128.184C136.808 127.865 135.922 127.973 134.397 129.168C133.25 130.065 133.579 131.834 134.397 132.778C135.822 134.424 137.215 134.132 139.167 134.195L139.304 134.2C140.931 134.266 142.559 134.313 144.188 134.337C144.633 134.345 145.079 134.343 145.524 134.345C145.477 138.469 147.853 141.608 150.982 143.995C153.004 145.538 155.562 143.758 156.284 141.837C156.881 140.247 157.009 138.292 156.7 136.552C156.585 135.91 156.346 135.214 155.98 134.62L155.878 134.461L155.894 134.233C155.898 134.177 155.894 134.122 155.896 134.066C158.801 133.889 161.689 133.598 164.576 133.232L165.538 133.107C168.002 132.78 171.621 132.676 173.615 131.072C173.678 131.021 173.656 130.908 173.589 130.873C172.493 130.282 171.381 130.316 170.155 130.261L169.979 130.253C168.645 130.184 167.315 130.126 165.983 130.081L164.649 130.039C161.239 129.941 157.825 129.776 154.418 129.594C153.825 129.563 153.233 129.525 152.639 129.489C152.019 129.229 151.36 129.073 150.708 129.044C150.169 129.02 149.649 129.095 149.161 129.25C147.917 129.154 146.673 129.049 145.43 128.936L144.188 128.821C142.434 128.654 140.591 128.581 138.86 128.241ZM117.328 97.3374C113.579 95.4943 109.022 95.4492 105.161 96.9746L104.905 97.0783C101.006 98.6972 96.3084 102.437 97.3256 107.095C98.2563 111.358 104.939 110.636 105.278 106.606C107.436 103.614 112.275 102.958 115.316 104.86C117.161 106.014 118.427 107.957 119.293 109.917C120.03 111.586 120.169 113.647 121.303 115.101C121.339 115.148 121.413 115.157 121.467 115.144C124.846 114.362 124.924 108.989 124.348 106.383C123.511 102.594 120.824 99.0577 117.328 97.3374Z" fill="#343434"/>
<path fill-rule="evenodd" clip-rule="evenodd" d="M79.968 150.837C84.0973 155.999 100.262 161.729 108.866 155.509C117.469 149.288 120.87 144.954 122.02 137.181C122.142 136.352 123.64 135.801 124.273 136.389C127.818 139.684 130.113 143.881 132.386 148.088C134.95 152.833 137.476 157.607 142.136 160.819C150.389 165.246 165.321 165.877 169.732 163.924C178.183 160.183 184.867 152.183 186.387 141.174C186.387 141.174 187.934 136.29 189.288 135.263C190.572 134.289 197.658 133.421 198.434 133.277C212.423 130.68 230.116 129.024 242.575 138.161C244.262 139.181 250.034 143.013 250.119 142.071C250.18 138.38 246 130.028 236.495 126.053C224.74 121.138 207.267 120.851 197.144 121.936C196.635 121.99 194.899 121.563 194.777 121.51C179.441 114.866 161.794 116.631 145.385 119.423C143.034 119.88 121.983 125.095 113.61 121.936C99.7662 116.28 85.0061 112.184 70.0563 113.795C69.9313 113.809 68.0441 125.271 69.5142 126.053C70.6842 126.676 72.675 128.27 73.3823 129.143C74.0145 129.923 74.4129 130.893 74.3776 132.236C74.0933 140.009 76.3097 146.263 79.968 150.837ZM136.888 143.901C135.133 141.36 134.579 135.653 135.314 131.489C135.686 129.38 136.409 127.702 137.315 126.867C137.918 126.312 138.606 126.05 139.356 126.089C139.767 126.11 140.212 126.227 140.684 126.482C147.068 123.026 154.803 121.782 162.134 122.14C167.971 122.139 172.135 123.517 174.959 125.663C178.356 128.245 179.887 131.956 179.976 135.981C180.081 140.758 178.12 145.983 174.904 150.117C171.825 154.075 167.613 157.009 163.044 157.685C157.857 158.716 152.572 157.719 147.976 155.281C143.263 152.78 139.282 148.764 136.888 143.901ZM85.7077 146.596C82.7494 143.098 80.7823 138.547 80.4829 134.038C80.2104 129.935 81.3085 125.87 84.3447 122.511C87.0972 120.147 91.961 120.108 97.0776 121.425C103.694 123.127 110.538 126.931 112.82 129.388C113.357 129.67 113.856 130.161 114.29 131.214L114.294 131.59C114.985 134.779 114.575 138.016 113.379 141.002C112.08 144.246 109.853 147.19 107.137 149.437C103.528 152.411 99.7617 153.321 96.2362 152.841C92.2428 152.297 88.5293 149.932 85.7077 146.596Z" fill="#FAFAFA"/>
<path fill-rule="evenodd" clip-rule="evenodd" d="M114.087 120.673C100.068 114.946 85.083 110.818 69.9123 112.453C68.6577 111.976 67.1004 112.378 66.5444 114.153C61.1407 130.625 73.191 126.044 73.0291 132.201C71.766 166.725 118.141 172.621 123.355 137.379L123.451 137.436C130.953 144.441 132.533 155.84 141.371 161.932C159.199 174.978 184.471 164.641 187.717 141.416L187.787 141.102C188.877 136.362 190.18 135.187 195.554 135.21L196.402 135.042C210.365 132.289 228.957 129.816 241.817 139.281C244.614 140.909 244.745 145.093 247.109 146.911C249.698 147.414 251.293 144.298 251.468 142.142C251.879 120.644 213.432 119.097 196.214 120.942C195.885 120.601 195.183 120.644 194.946 121.068C179.374 114.322 161.831 115.256 145.157 118.093C134.829 120.093 124.628 124.651 114.087 120.673ZM71.3081 116.422C79.7202 116.001 87.5013 116.462 95.7583 118.485C100.11 119.536 103.449 120.864 107.615 122.461C133.596 133.979 136.592 113.506 194.83 121.531C194.077 124.76 193.938 127.957 193.898 130.991C182.007 130.512 184.806 141.873 180.351 149.853L180.214 150.094C173.721 161.737 158.4 167.168 146.041 159.445C135.731 153.432 134.725 138.18 124.459 132.127C115.56 131.777 119.114 143.795 114.272 148.734C107.455 157.835 92.9657 159.108 84.4182 150.547C80.408 146.428 78.2767 141.197 78.1589 135.578C77.9353 131.988 78.5507 128.34 75.8383 125.815C73.9368 123.883 70.5587 124.528 70.1709 121.606C69.9244 119.879 70.6423 118.005 71.3081 116.422ZM162.731 121.128C154.374 120.716 145.532 122.168 138.357 126.269C133.046 122.04 131.745 138.847 135.27 143.709C140.349 154.107 152.174 160.943 163.559 158.673C181.321 156.098 193.696 121.097 162.731 121.128ZM138.867 127.396L139.322 127.329C147.019 126.154 167.979 120.709 176.063 129.303C183.908 143.557 164.005 167.5 143.293 148.429C137.528 142.556 135.294 135.435 138.867 127.396ZM114.474 129.218C110.487 124.495 90.1711 114.928 83.0895 121.067C70.1647 135.561 90.6618 164.877 107.83 150.594C113.548 145.82 117.31 138.213 115.663 130.847L115.661 130.539C115.657 130.427 115.636 130.452 115.517 130.313C115.305 129.756 114.924 129.4 114.474 129.218ZM83.2698 138.002C78.911 114.346 97.1285 123.339 112.09 129.653C111.287 130.387 111.29 131.39 111.521 132.213C113.099 149.765 91.7787 159.712 83.2698 138.002ZM196.516 122.092C202.757 124.206 244.033 120.425 247.846 139.785C243.821 133.26 235.485 130.671 227.991 129.265C217.797 127.354 207.66 128.461 197.609 130.472L197.402 128.391C197.179 126.183 196.944 124.118 196.516 122.092Z" fill="#FF9500"/>
</svg>
