<svg width="369" height="537" viewBox="0 0 369 537" fill="none" xmlns="http://www.w3.org/2000/svg">
<path fill-rule="evenodd" clip-rule="evenodd" d="M19.6658 455.509C21.479 445.263 23.1411 434.99 24.6516 424.694C25.3687 419.806 26.0681 414.914 26.697 410.013C27.1374 406.58 27.808 402.654 25.4735 400.111C22.1884 396.532 19.2043 393.468 18.8021 388.342C18.4238 383.518 20.054 378.259 21.0733 373.577C23.2108 363.758 25.872 354.06 28.8125 344.454C31.7998 334.694 35.0754 325.026 38.3983 315.377C41.5047 306.355 44.4911 297.252 48.5373 288.597C56.2162 272.17 69.2071 260.005 85.2622 251.883C89.2553 249.863 97.3996 242.651 101.571 241.037C105.406 239.552 105.393 243.887 109.167 242.254C112.185 240.949 114.994 239.208 116.684 236.293C118.518 233.128 123.118 228.701 123.819 225.016C125.303 217.206 123.695 210.559 129.266 204.681C134.211 199.461 140.858 195.885 147.736 193.966C162.866 189.743 183.045 192.695 192.173 206.763C196.533 213.482 198.057 221.602 203.94 227.085C209.078 231.872 207.928 235.145 214.582 237.612C214.959 237.753 225.173 235.56 225.55 235.701C232.829 234.142 239.786 238.505 246.464 241.037C256.42 244.811 265.899 249.723 274.804 255.561C292.761 267.334 308.14 282.62 320.819 299.919C333.603 317.36 343.522 336.909 350.585 357.34C352.3 362.303 353.841 367.326 355.2 372.399C355.96 375.237 356.773 378.182 355.847 381.088C355.09 383.465 353.405 385.236 351.426 386.662C348.744 388.596 343.363 389.853 343.468 393.743C343.548 396.7 344.551 399.812 345.04 402.735C345.623 406.215 346.101 409.716 346.58 413.212C348.757 429.123 350.451 445.123 351.201 461.169C351.939 476.968 352.551 493.091 351.455 508.885C351.383 509.927 351.073 510.883 350.572 511.691C351.039 511.87 351.075 512.742 350.494 512.865C350.086 512.952 349.68 513.038 349.272 513.124C348.425 513.765 347.37 514.158 346.155 514.196C345.331 514.223 344.508 514.26 343.685 514.302C335.003 516.118 326.322 517.833 317.527 519.132C306.836 520.711 296.113 521.998 285.357 523.045C263.254 525.195 241.326 524.482 219.195 523.323C197.098 522.165 175.014 521.895 152.894 522.471C130.754 523.047 108.623 524.011 86.4786 524.405C61.7387 524.845 37.0366 524.169 12.3683 522.201C8.98605 521.931 6.89349 519.239 7.56058 515.878C11.5573 495.739 16.0865 475.735 19.6658 455.509Z" fill="#FAFAFA"/>
<path fill-rule="evenodd" clip-rule="evenodd" d="M232.453 235.205C230.165 235.105 227.832 235.476 225.55 235.701C225.351 235.72 225.276 236.027 225.5 236.074C229.584 236.927 233.624 238.096 237.636 239.282L239.354 239.791C243.878 241.13 248.269 242.511 252.648 244.297C261.377 247.856 269.666 252.661 277.296 258.18C306.675 279.434 327.938 311.614 341.356 344.93C345 353.978 348.088 363.251 350.589 372.68C351.197 374.974 351.769 377.277 352.312 379.588C352.471 380.265 353.165 382 352.784 382.693C352.448 383.306 351.14 383.684 350.532 384.003L348.481 385.067C344.479 387.131 337.812 390.524 337.144 390.854L336.101 391.368C319.048 399.733 300.827 406.826 281.637 407.317L281.487 405.678C280.631 396.612 279.508 387.499 277.058 378.712C276.926 378.24 276.325 378.399 276.27 378.819C274.905 389.221 275.341 399.704 275.818 410.154C276.661 428.663 277.781 447.162 278.777 465.664C279.275 474.919 279.919 484.168 280.501 493.418C281.083 502.687 281.272 512.179 282.602 521.371C282.899 523.42 285.297 524.535 287.113 524.319C289.123 524.079 290.669 522.308 290.679 520.278C290.703 514.922 290.03 509.504 289.657 504.162C289.302 499.087 288.921 494.014 288.53 488.942C287.103 470.429 285.462 451.937 283.944 433.433C283.406 426.869 282.825 420.312 282.226 413.755C302.555 413.099 321.547 405.565 339.665 396.762C339.928 402.72 340.561 408.667 341.174 414.6C342.886 431.157 344.395 447.708 345.524 464.317C346.095 472.705 346.51 481.104 346.872 489.504C347.049 493.632 347.194 497.761 347.305 501.892C347.342 503.269 347.376 504.646 347.406 506.023L347.467 509.177C347.518 511.176 347.721 513.027 349.402 514.482C351.109 515.96 353.415 516.039 355.104 514.482C357.366 512.398 356.966 509.559 356.899 506.76C356.843 504.399 356.776 502.039 356.698 499.679C356.542 494.959 356.343 490.24 356.101 485.524C355.252 469.034 353.557 452.61 351.342 436.252L350.477 429.938C348.862 418.199 347.089 406.194 343.479 394.886C344.884 394.186 346.286 393.482 347.682 392.774C350.159 391.519 352.72 390.342 355.127 388.957C357.037 387.858 358.684 386.351 359.216 384.127C359.809 381.65 358.902 378.939 358.3 376.523L358.248 376.31C357.657 373.876 357.021 371.453 356.35 369.04C353.628 359.255 350.263 349.661 346.325 340.301C338.44 321.563 328.261 303.761 315.829 287.665C304.638 273.177 291.417 260.037 275.923 250.183C268.348 245.365 260.275 241.409 251.738 238.612C247.747 237.305 243.406 236.168 239.228 235.7C236.974 235.448 234.717 235.304 232.453 235.205ZM191.918 205.512C189.199 202.591 183.798 205.614 185.103 209.482C188.173 218.583 193.063 226.884 200.694 232.864C207.867 238.485 216.42 242.136 225.632 241.357C225.703 241.351 225.764 241.333 225.819 241.307L225.025 242.384C218.793 250.82 212.218 259.139 204.294 266.033C188.148 280.081 166.165 287.658 144.938 282.268C128.237 278.028 113.523 264.813 109.196 247.973C109.816 248.251 110.554 248.346 111.363 248.17C114.825 247.418 118.253 243.774 120.486 241.162C122.901 238.336 124.788 235.284 126.171 231.834C128.701 225.521 129.513 217.393 126.057 211.277C125.631 210.524 124.647 210.946 124.564 211.682L124.432 212.831C123.766 218.562 122.936 224.106 120.236 229.331C118.914 231.887 117.33 234.383 115.401 236.524C114.369 237.669 113.251 238.764 112.043 239.725C110.866 240.66 109.442 241.337 108.387 242.411L108.193 242.617L108.188 242.58C107.921 240.311 106.331 239.311 104.775 239.374C103.269 239.434 101.501 240.098 100.816 240.415L100.751 240.446C90.2468 245.491 80.5722 252.068 71.4679 259.364C52.6401 274.453 38.5332 294.179 31.6981 317.407C28.3434 328.808 26.4184 340.555 24.3864 352.247L23.1354 359.411C21.2388 370.205 19.1202 381.212 14.8387 391.253C13.7312 393.85 14.585 396.286 17.3006 397.307C20.6914 398.583 24.0947 399.818 27.5035 401.038C25.8297 408.223 24.8091 415.657 23.5549 422.877C20.8893 438.225 17.6231 453.475 14.8225 468.802C13.3907 476.639 12.0988 484.503 10.6684 492.341C9.97971 496.115 9.26089 499.884 8.56186 503.657C8.18536 505.691 7.84393 507.732 7.48453 509.769L7.422 510.107C7.21613 511.182 6.9574 512.294 7.25287 513.369C7.58978 514.596 8.54657 515.462 9.40079 516.342C10.1039 517.066 11.12 517.07 11.9814 516.675L12.2648 516.544C13.8033 515.824 15.0085 515.106 15.5544 513.369C15.8998 512.27 16.0244 511.031 16.2502 509.898C16.6834 507.726 17.0941 505.552 17.4819 503.371C18.2574 499.008 19.0149 494.642 19.7544 490.273L20.4451 486.181C22.8158 472.08 25.0672 457.893 26.2053 443.643C26.7102 437.321 27.2453 431.005 27.7853 424.687L28.1908 419.949C28.7036 413.951 29.3302 407.802 29.4189 401.723L31.4572 402.447L41.4031 405.965C43.869 406.837 47.0088 408.624 49.6627 408.299C50.9618 408.14 51.9523 407.731 52.717 406.987C51.8012 419.92 50.5615 432.83 48.9093 445.674C47.4059 457.362 45.7393 469.033 43.7709 480.652C42.7961 486.405 41.7944 492.152 40.7063 497.885C40.1624 500.752 39.601 503.614 39.0226 506.474C38.7343 507.901 38.391 509.329 38.1661 510.768C37.9088 512.415 38.3622 513.429 39.2821 514.784C40.0374 515.897 41.5483 516.469 42.7732 515.7C44.3953 514.682 45.2414 513.799 45.7187 511.945C46.1523 510.26 46.4159 508.501 46.7515 506.795C47.3709 503.645 47.9696 500.491 48.5476 497.334C49.7563 490.73 50.8705 484.11 51.8655 477.47C55.3719 454.079 57.5967 430.492 58.7204 406.867C59.275 395.21 59.4464 383.544 59.3479 371.876C59.2975 365.895 59.1023 359.897 58.6794 353.931C58.2512 347.892 57.3606 341.973 56.5653 335.992C56.5374 335.782 56.2405 335.77 56.2279 335.992C55.8514 342.698 55.2612 349.396 54.972 356.119C54.6958 362.534 54.5748 368.959 54.3553 375.377C54.067 383.813 53.6671 392.253 53.1376 400.688C52.179 399.639 50.7342 399.034 49.2885 399.27C47.1941 398.831 44.9396 397.731 42.9428 397.063L35.4155 394.547C31.4583 393.225 27.5013 391.912 23.5302 390.638C27.0806 378.686 29.5127 366.557 31.5894 354.25L32.5156 348.715C34.349 337.821 36.3257 326.922 39.6465 316.372C43.1376 305.281 48.3618 294.969 55.2923 285.631C62.1237 276.428 70.4351 268.324 78.9926 260.745C86.3189 254.256 94.1562 248.397 101.629 242.087C101.55 242.505 101.534 242.966 101.603 243.472C103.191 255.107 109.257 265.942 117.711 274.001C134.694 290.191 159.833 293.55 181.57 285.958C202.596 278.614 221.186 261.222 227.753 239.699C227.866 239.331 227.373 239.185 227.175 239.455C226.811 239.955 226.444 240.455 226.078 240.954C226.103 240.756 226 240.54 225.755 240.445C218.092 237.484 210.567 233.285 204.822 227.345C202.023 224.45 199.579 221.17 197.65 217.632C196.726 215.937 195.896 214.182 195.234 212.369L195.066 211.9C194.264 209.628 193.593 207.312 191.918 205.512Z" fill="#343434"/>
<path fill-rule="evenodd" clip-rule="evenodd" d="M85.8861 100.921C89.9573 83.7484 98.858 67.7671 113.108 54.8515C155.989 12.4315 234.736 35.4563 234.379 99.3801C235.917 106.846 236.542 114.523 236.033 122.138C235.822 125.386 234.417 129.92 236.305 132.844C240.563 138.314 243.038 142.346 241.589 149.622C240.378 155.975 236.057 160.476 230.225 162.869C226.728 163.873 223.41 166.061 222.114 169.395C214.329 183.656 208.562 195.518 196.29 205.237C193.123 207.739 160.643 222.746 149.941 222.746C118.61 222.746 79.1223 211.39 78.4669 176.372C78.3536 168.681 79.7026 160.9 80.5487 153.27C82.6084 135.856 81.8817 117.812 85.8861 100.921Z" fill="#FAFAFA"/>
<path fill-rule="evenodd" clip-rule="evenodd" d="M86.5909 92.3316C86.581 92.1192 86.2769 92.0714 86.218 92.2812C85.0534 96.4153 84.3935 100.627 83.4826 104.825C82.6054 108.87 81.7773 112.925 81.0882 117.005C79.7877 124.705 78.6919 132.424 77.6727 140.164L77.4194 142.099C75.648 155.718 72.7224 169.906 75.2805 183.604C77.4635 195.292 84.7826 204.713 94.2149 211.62C103.146 218.159 113.975 222.356 124.726 224.742C136.266 227.303 149.945 228.068 159.334 219.6C163.092 216.21 157.968 209.483 153.891 212.542C144.316 219.725 132.135 217.608 121.331 214.75L121.004 214.663C111.521 212.135 101.976 208.305 94.4475 201.842C86.1244 194.697 82.009 184.78 81.5335 173.904C81.2667 167.794 81.8361 161.69 82.4502 155.615L82.5186 154.941C83.2235 147.994 83.963 141.05 84.6454 134.101C85.268 127.764 85.8052 121.39 86.0891 115.024L86.2216 111.814C86.4975 105.341 86.8689 98.7734 86.5909 92.3316ZM198.886 38.5486C183.305 30.4319 165.398 27.527 148.059 30.251C131.389 32.8697 116.091 41.4764 104.656 53.8177C99.0728 59.8431 94.1176 66.8129 90.9508 74.4272C89.3778 78.2098 88.1461 82.1558 87.4903 86.2085C87.1529 88.292 86.8214 90.4507 86.758 92.563C86.6995 94.5187 87.2735 96.3528 87.2056 98.3409C87.1952 98.6519 87.6716 98.7118 87.744 98.4138C88.2856 96.1971 89.5905 94.5209 90.4092 92.4154C91.0211 90.8432 91.7152 89.3083 92.4218 87.7781L93.029 86.4669C94.7914 82.6559 96.8979 79.0015 98.9819 75.3603C103.178 68.0264 108.563 61.3613 114.867 55.7373C125.937 45.8631 140.139 39.4893 154.961 38.3415C170.345 37.1497 185.95 40.8188 199.088 48.9467C212.226 57.0741 222.159 69.7084 227.317 84.2551C229.919 91.5957 231.357 99.2442 231.691 107.021C231.86 110.958 231.702 114.927 231.426 118.856L231.289 120.729C231.129 122.976 231.019 125.214 231.354 127.407C228.985 126.667 226.501 126.361 224.008 126.727C220.304 127.27 218.09 128.79 216.429 132.102C216.342 132.275 216.516 132.448 216.688 132.362C218.842 131.286 222.328 131.852 224.609 132.416C226.983 133.003 229.122 134.024 231.139 135.404C234.872 137.955 237.797 141.909 238.515 146.446C239.209 150.828 237.411 155.265 234.391 158.406C232.836 160.024 230.978 161.422 228.898 162.294C226.373 163.352 223.874 163.319 221.64 165.066C220.259 166.145 220.593 167.993 221.529 169.192C216.816 174.363 212.637 180.02 207.925 185.211C205.74 187.617 203.574 190.026 201.481 192.509L200.699 193.444C198.609 195.968 195.284 198.634 194.329 201.808C193.735 203.783 195.848 206.365 197.985 205.466C201.261 204.085 203.601 200.493 205.815 197.738L205.959 197.56C208.281 194.705 210.343 191.691 212.227 188.532L212.847 187.492C216.255 181.757 219.634 175.808 221.807 169.508C221.951 169.655 222.103 169.79 222.263 169.904C225.394 172.131 229.945 170.419 233.072 168.972C236.024 167.607 238.73 165.553 240.839 163.077C245.426 157.693 247.541 150.72 246.009 143.732C244.711 137.813 240.611 132.055 235.235 129.061C237.717 126.203 238.744 122.35 239.428 118.583C240.3 113.775 240.475 108.847 240.237 103.971C239.765 94.2594 237.267 84.6863 233.406 75.7933C226.497 59.8809 214.284 46.5706 198.886 38.5486ZM231.679 144.732C228.409 144.119 225.361 143.97 222.207 145.355C218.785 146.858 216.378 149.339 214.139 152.246C211.592 155.552 218.12 159.164 219.765 154.775L219.814 154.639C220.255 153.34 221.044 152.083 222.044 150.927C222.344 151.387 222.745 151.792 223.217 152.024C223.788 152.305 224.659 152.11 224.796 151.381C224.949 150.571 224.78 149.59 224.313 148.904L224.249 148.811C226.518 146.984 229.247 145.649 231.679 145.22C231.922 145.177 231.919 144.777 231.679 144.732Z" fill="#343434"/>
<path fill-rule="evenodd" clip-rule="evenodd" d="M110.18 186.841C107.337 186.178 105.104 188.587 105.663 191.361C106.255 194.297 109.41 195.304 112.056 195.211C115.056 195.107 118.053 194.487 121.068 194.363C124.165 194.235 127.274 194.212 130.373 194.295C133.239 194.373 136.181 194.878 139.025 194.424C140.132 194.248 140.027 192.785 139.307 192.265C137.167 190.721 134.395 190.092 131.873 189.444C129.302 188.783 126.673 188.277 124.037 187.969C121.363 187.656 118.668 187.5 115.977 187.469C114.752 187.455 113.25 187.727 112.056 187.507C111.447 187.394 110.827 186.992 110.18 186.841ZM118.387 148.698C114.99 150.764 109.815 155.581 113.469 160.703C117.77 165.219 123.963 160.041 127.015 157.699C129.845 155.884 133.024 160.552 130.399 162.671C108.346 179.008 99.3973 149.238 116.669 146.269C118.571 145.941 119.277 148.059 118.387 148.698ZM143.017 133.27C138.474 132.514 137.679 138.996 142.182 139.448C143.127 139.543 144.067 139.626 145.005 139.709C144.913 140.002 144.853 140.304 144.819 140.615C144.777 140.878 144.745 141.158 144.716 141.478C144.574 143.073 145.704 144.731 147.024 145.504C148.396 146.308 150.365 146.415 151.728 145.504C152.43 145.035 153.132 144.505 153.519 143.728C154.039 142.93 154.322 142.006 154.351 141.058C156.423 141.597 158.532 142.324 160.624 142.71C160.547 142.786 160.471 142.866 160.398 142.955C160.342 143.023 160.419 143.15 160.5 143.088L161.55 142.855C161.873 142.897 162.196 142.932 162.518 142.952L162.51 142.924C163.048 142.915 163.489 142.278 163.007 141.768C161.159 139.813 158.275 138.514 155.645 137.428L153.112 136.389C149.872 135.071 146.452 133.842 143.017 133.27ZM106.464 135.275C103.488 134.936 100.542 135.071 97.5607 135.252C92.5438 135.558 94.6481 142.878 98.6749 141.188C98.6335 141.456 98.6227 141.724 98.6538 141.974C98.8112 143.261 99.2304 144.348 100.411 145.04C101.507 145.682 102.896 145.68 103.993 145.04C105.167 144.355 105.696 143.389 105.996 142.135C106.228 141.162 106.135 140.348 106.001 139.385C105.956 139.066 105.817 138.769 105.625 138.501C105.905 138.431 106.187 138.363 106.468 138.3C108.972 137.73 111.442 137.844 113.938 137.483C114.205 137.444 114.247 137.014 114.014 136.905C111.771 135.85 108.919 135.555 106.464 135.275ZM143.476 112.667C141.759 112.011 139.601 113.101 138.725 114.602C137.73 116.304 138.155 118.269 139.383 119.703C141.266 121.904 144.854 123.259 147.498 124.515L147.71 124.617C150.425 125.927 153.215 127.131 156.042 128.18C158.822 129.212 161.715 130.02 164.597 130.714C166.117 131.08 167.669 131.383 169.223 131.573C170.449 131.724 171.394 131.387 172.568 131.387C172.739 131.388 172.792 131.16 172.653 131.073C171.556 130.383 170.743 129.475 169.547 128.837C168.302 128.172 167.052 127.518 165.798 126.871C163.262 125.563 160.821 124.108 158.375 122.643C155.796 121.098 153.276 119.472 150.826 117.731C148.428 116.027 146.218 113.713 143.476 112.667ZM112.871 111.266C110.727 110.85 108.603 111.865 107.968 114.052C107.359 116.147 107.996 116.596 106.372 118.096C105.078 119.291 103.683 120.357 102.275 121.407L100.202 122.949C96.4484 125.729 92.6634 128.358 88.3471 130.234C87.9823 130.393 88.1932 130.935 88.5391 130.942C95.4008 131.075 101.98 130.145 108.174 127.072C111.067 125.636 113.974 123.82 115.65 120.953C117.592 117.634 117.536 112.171 112.871 111.266Z" fill="#343434"/>
<path fill-rule="evenodd" clip-rule="evenodd" d="M216.622 144.821C213.443 144.821 212.141 152.228 212.141 152.228C204.055 166.179 196.271 180.091 182.384 189.689C166.968 195.87 151.805 206.398 134.239 207.552C126.32 206.72 123.997 199.468 114.218 202.02C107.978 203.537 100.972 206.529 95.2036 202.207C90.3273 199.018 86.8968 194.187 82.6909 190.28C82.4767 189.576 81.0798 197.013 81.5019 199.527L81.8279 200.955C84.4321 212.465 87.0656 226.009 98.7187 232.336C102.269 234.208 107.25 236.014 111.189 234.959C132.006 238.281 154.586 235.85 172.823 225.46C179.244 223.791 184.02 218.668 189.076 214.798C201.442 203.96 215.614 190.23 216.934 173.765C218.255 157.3 217.667 144.821 216.622 144.821ZM153.725 177.332C146.64 165.947 132.563 167.796 121.61 172.983C115.559 168.872 107.575 169.629 101.011 172.525L101.011 172.529C94.9642 175.839 90.3842 181.275 86.174 186.474C85.1496 187.855 84.7423 189.711 86.1829 190.392C92.9693 195.988 107.069 192.704 113.467 188.542C118.084 188.17 117.072 181.612 122.4 186.202C125.956 189.546 130.422 191.62 135.274 192.849C146.123 196.576 156.111 195.957 165.558 190.147C166.774 190.03 171.752 187.212 169.983 186.209C168.059 186.729 157.399 180.607 153.725 177.332Z" fill="#FAFAFA"/>
<path fill-rule="evenodd" clip-rule="evenodd" d="M218.279 157.061C218.207 156.462 217.278 156.432 217.257 157.061C216.826 170.233 212.539 184.675 205.289 195.953C187.865 224.421 152.302 238.681 118.073 233.781C93.0582 233.442 90.386 219.26 84.1683 199.456C80.9413 196.805 79.3558 197.754 80.3581 200.862C88.0656 224.759 90.7047 238.466 121.2 238.205C170.166 245.199 223.268 205.138 218.279 157.061ZM149.101 167.683C141.112 164.114 131.606 164.618 124.933 169.552L124.462 169.66C123.294 169.921 122.172 170.12 120.859 169.986C103.201 160.685 91.4128 176.906 82.3597 189.052C81.6768 189.075 81.1204 189.611 81.305 190.239L81.0152 190.549C82.1557 193.61 84.2164 196.564 87.0339 198.42C96.2721 210.728 103.171 206.881 115.207 201.813C127.583 199.959 128.084 214.557 145.35 207.87L146.001 207.658C151.681 205.78 158.202 202.933 162.331 198.819C162.466 198.684 162.334 198.424 162.128 198.491C152.547 201.382 140.227 210.819 130.475 204.461C128.01 202.805 125.795 200.796 123.039 199.549C107.306 194.282 101.777 215.085 88.0091 193.487C99.2196 195.442 111.856 193.498 120.235 185.861C132.762 200.957 157.143 198.538 172.644 189.161C174.765 189.467 177.902 187.368 175.949 185.371C173.814 183.672 170.435 184.338 167.809 183.417C159.429 180.434 157.45 170.925 149.101 167.683ZM121.094 173.995C129.948 167.693 143.191 166.632 151.664 174.066C156.956 179.385 160.389 187.016 168.92 188.423C154.269 196.861 133.219 197.003 121.938 183.577C121.583 182.416 119.747 182.917 119.526 183.926C111.448 189.565 101.116 192.562 91.0552 190.833C89.4335 190.566 87.8321 190.187 86.2704 189.701L87.7553 187.659C95.6508 176.849 105.808 164.261 120.868 173.152C121.209 173.324 121.352 172.883 121.395 172.657L121.58 172.792C121.446 173.071 120.337 173.991 121.094 173.995ZM84.8371 192.766C84.7633 192.832 84.7025 192.904 84.6507 192.98C84.4028 192.851 84.1459 192.72 83.8817 192.594L83.9532 192.541C84.2372 192.622 84.5329 192.697 84.8371 192.766ZM217.139 140.715L217.142 140.283C217.142 135.935 215.974 141.417 215.45 142.495C213.195 146.556 211.311 150.575 208.923 154.534C199.347 171.772 197.864 179.243 178.568 189.063C177.135 190.291 178.641 192.496 180.422 192.043C183.085 191.365 185.597 189.667 187.917 188.298C201.057 181.517 205.958 167.685 211.853 155.646C213.584 150.872 217.577 145.779 217.139 140.715Z" fill="#343434"/>
<path fill-rule="evenodd" clip-rule="evenodd" d="M70.5814 136.957C74.8701 165.983 104.808 169.194 110.127 140.377C109.273 140.003 108.659 139.267 108.787 137.837C108.817 131.558 106.869 124.921 101.208 121.428C95.3573 117.825 88.5105 117.467 81.7402 117.558C68.8204 117.25 69.0921 128.056 70.5814 136.957ZM114.814 124.333C118.868 124.162 123.998 124.305 127.63 126.777C128.629 124.087 131.224 121.214 133.845 119.677C124.101 119.963 114.071 119.003 104.254 118.258C106.604 119.861 108.79 122.269 110.211 125.053C111.529 124.349 113.418 124.415 114.814 124.333ZM132.686 140.034C143.929 178.759 171.994 161.88 175.054 156.918C180.573 148.705 181.611 128.741 176.804 123.404C169.922 118.577 160.181 119.819 152.051 119.701C137.117 119.902 126.51 124.373 132.686 140.034ZM57.3058 122.224C60.3605 121.824 63.6249 121.743 66.4651 123.089C67.3396 119.37 70.0848 116.261 73.1846 114.892C73.5597 114.422 73.5035 114.169 74.785 114.239C82.6547 111.873 91.4609 113.125 99.0234 115.552C110.967 116.558 123.498 117.352 135.542 118.738C146.824 113.669 180.873 112.925 182.989 125.421C185.65 125.023 190.183 122.927 192.42 125.77C208.825 122.987 225.777 126.855 242.254 128.578C246.401 129.342 248.537 137.578 243.829 137.465C241.183 136.746 243.911 132.337 240.347 132.005C224.45 130.268 208.9 127.803 192.84 127.514C193.399 130.289 182.218 130.47 182.053 128.849C182.029 128.862 182.004 128.87 181.979 128.88C184.742 139.183 182.248 154.01 177.255 160.399C170.26 168.765 152.696 171.164 144.909 165.782C134.863 160.814 124.412 135.878 127.347 127.594C122.02 125.904 116.753 126.411 111.223 127.272C112.489 130.85 114.675 139.657 111.531 140.421C112.108 157.907 96.2034 168.818 81.5419 161.645C68.8519 155.684 64.4139 136.817 65.9667 125.365C64.3869 128.42 51.1225 125.094 57.3058 122.224Z" fill="#343434"/>
<path d="M209.889 339.008C210.009 339.005 210.491 339.044 210.702 339.049C210.459 339.12 209.454 339.017 209.889 339.008ZM231.329 333.381C231.158 333.405 230.987 333.429 230.816 333.452C231.305 333.454 231.956 333.423 232.406 333.429C232.481 333.43 232.29 333.493 232.465 333.49C232.641 333.488 232.605 333.41 232.859 333.394C233.146 333.377 234.445 333.387 234.9 333.367C236.581 333.295 238.284 333.163 239.963 333.084C238.225 333.253 239.986 333.202 240.469 333.142C240.577 333.127 240.543 332.991 242.285 332.889C243.374 332.819 242.401 333.119 244.21 332.844C242.802 332.83 244.168 332.718 245.277 332.593C245.46 332.575 246.99 332.422 247.657 332.321C247.887 332.288 248.223 332.164 248.517 332.118C248.556 332.112 248.594 332.108 248.631 332.105L251.861 331.522L251.968 334.982C251.958 335.148 251.932 335.305 251.933 335.566C251.943 337.073 251.946 338.556 251.932 340.066C251.735 339.184 251.848 340.759 251.838 340.829C251.785 341.189 251.77 339.562 251.736 340.206C251.742 341.105 251.748 342.004 251.755 342.903C251.779 342.165 251.92 343.88 251.856 344.196C252.03 344.057 251.704 348.295 251.763 348.94C251.775 349.074 251.861 348.195 251.822 350.235C251.817 350.456 251.765 350.372 251.77 350.488C251.772 350.557 251.939 350.977 251.847 351.425C251.814 351.588 251.704 350.543 251.748 352.839C251.918 351.924 251.84 356.022 251.797 356.776C251.82 356.626 251.843 356.475 251.866 356.324C251.804 357.07 251.862 357.204 251.859 357.372C251.846 358.049 251.788 358.979 251.793 359.609C251.799 360.347 251.905 360.349 251.864 361.209C251.887 361.005 251.911 360.801 251.934 360.597C251.928 361.191 251.923 361.785 251.917 362.378C251.777 361.003 251.91 362.675 251.913 362.785C251.919 362.961 251.861 362.709 251.868 363.002C251.87 363.033 251.924 362.989 251.93 363.442C251.942 364.388 251.874 364.238 251.875 364.635C251.875 364.672 251.924 364.544 251.935 365.231C251.972 367.411 251.898 365.22 251.892 365.136C251.883 365.026 251.68 365.774 251.752 363.922C251.729 364.544 251.639 364.606 251.637 364.676C251.635 364.738 251.647 365.816 251.651 365.875C251.681 366.405 251.742 365.939 251.753 366.042C251.762 366.126 251.682 367.425 251.867 367.729C251.697 368.35 251.712 367.372 251.686 366.33C251.651 366.178 251.617 367.322 251.617 367.382C251.618 368.858 251.758 368.041 251.847 368.363C251.894 368.533 251.798 369.134 251.924 368.579C251.926 368.809 251.926 368.975 251.924 369.094L251.917 368.898C251.948 369.645 251.86 368.936 251.855 369.03C251.854 369.197 251.899 369.818 251.889 369.886C251.88 369.995 251.843 369.616 251.82 370.045C251.816 370.115 251.866 370.818 251.931 369.918C251.878 371.131 251.915 371.017 251.747 371.407C251.875 372.238 251.518 371.957 251.451 372.261C251.253 373.055 251.479 372.863 251.482 372.908C251.506 373.238 250.75 375.363 250.524 375.851C250.499 375.604 251.164 374.217 251.225 373.852C251.478 372.716 250.659 375.386 250.752 374.529C250.682 374.873 250.6 375.219 250.512 375.555C250.152 376.091 250.498 375.272 249.799 376.812C249.767 377.105 250.305 375.727 250.244 376.025C250.222 376.2 249.785 377.098 249.795 377.118C249.812 377.156 250.186 376.333 250.16 376.479C250.149 376.837 248.423 379.575 249.622 377.421C249.283 378.032 248.947 378.221 248.669 378.751C248.474 379.082 249.939 377.466 248.027 380.078C247.921 380.088 248.771 379.017 248.774 378.98C248.794 378.934 248.493 379.025 248.461 379.053C248.392 379.199 246.429 381.799 245.823 382.167C246.117 382.078 244.056 383.838 243.825 384.014C243.77 384.07 244.04 383.944 243.98 384.002C243.608 384.369 242.394 385.097 241.841 385.439C241.233 385.823 241.336 385.822 241.303 385.844C241.027 386.008 241.225 385.84 241.057 385.942C240.812 386.112 239.033 387.052 238.941 387.088C238.915 387.103 239.242 387.021 238.852 387.226C238.785 387.255 238.789 387.186 237.629 387.733C236.201 388.382 238.667 387.398 238.103 387.731C237.137 388.021 237.198 388.114 236.95 388.206C236.864 388.237 236.174 388.4 235.462 388.65C235.964 388.46 236.481 388.251 236.97 388.036C236.479 388.219 235.497 388.597 235.083 388.708C234.877 388.765 235.019 388.631 234.577 388.774C234.481 388.802 234.177 389.126 235.302 388.658C235.418 388.698 234.856 388.835 234.603 388.935C234.567 388.95 234.442 389.119 234.095 389.142C234.004 389.139 234.784 388.577 232.624 389.421C232.554 389.447 232.814 389.428 232.746 389.455C232.698 389.475 232.134 389.594 232.071 389.614C232.008 389.636 232.293 389.619 232.219 389.646C231.838 389.787 231.278 389.713 232.092 389.543C231.817 389.582 231.54 389.62 231.26 389.654C231.583 389.736 230.841 389.786 230.472 389.859C228.052 390.309 229.691 390.12 229.283 390.241C228.63 390.419 229.106 390.1 228.119 390.31C228.031 390.322 229.24 390.3 226.889 390.504C227.238 390.465 227.568 390.424 227.924 390.376C227.697 390.264 226.683 390.524 226.596 390.532C225.666 390.63 226.288 390.537 224.93 390.698C224.808 390.711 224.538 390.691 224.274 390.72C223.178 390.84 225.722 390.695 225.78 390.732C225.825 390.775 223.104 390.897 223.017 390.867C222.625 390.818 224.234 390.809 223.924 390.743C223.873 390.732 223.063 390.769 222.088 390.774C220.894 390.786 219.567 390.714 219.122 390.659C218.21 390.552 217.844 390.306 217.805 390.521C217.569 390.28 217.324 390.393 217.207 390.376C215.812 390.153 215.803 390.143 214.605 389.913C214.342 389.86 214.142 389.746 214.044 389.733C213.987 389.726 214.074 389.819 213.799 389.773C213.409 389.731 211.241 388.992 211.102 388.878C210.952 388.789 212.022 389.175 211.849 389.049C211.069 388.788 210.326 388.528 209.564 388.197C209.25 388.059 209.429 388.088 209.294 388.029C209.243 388.013 208.134 387.536 208.177 387.569C208.247 387.713 211.672 389.062 210.747 388.77C210.569 388.722 209.981 388.382 210.036 388.535C206.987 387.288 204.149 385.459 201.761 383.183C203.2 384.41 204.862 385.761 206.591 386.747C206.822 386.885 207.635 387.336 207.565 387.226C206.071 386.435 204.303 385.29 203.087 384.222C203.048 384.188 203.23 384.266 203.086 384.136C202.814 383.899 201.877 383.183 201.752 383.025C201.73 382.999 202.273 383.399 202.154 383.226C201.852 382.786 201.576 382.888 201.259 382.572C200.989 382.335 199.525 380.535 199.123 380.118C198.663 379.699 200.176 381.467 200.026 381.375C198.92 380.244 198.017 378.904 197.215 377.66C197.201 377.638 197.276 377.86 197.092 377.584C196.775 377.105 196.767 376.932 196.634 376.684C196.488 376.418 195.967 375.492 195.929 375.349C195.924 375.331 196.094 375.486 196.111 375.513C196.36 375.91 196.351 376.096 196.371 376.135C196.444 376.274 196.555 376.39 196.626 376.517C196.742 376.724 196.78 376.859 196.94 377.128C197.051 377.313 197 377.1 197.107 377.278C197.142 377.343 197.461 378.13 197.641 378.105C197.543 378.17 194.474 372.177 194.377 371.493C194.556 372.036 194.754 372.584 194.963 373.119C194.539 372.035 193.958 370.736 194.11 370.583C193.332 368.174 192.749 365.756 192.712 362.982C192.718 361.319 192.725 359.633 192.731 357.957C192.748 357.247 192.869 357.627 192.834 356.458C192.795 356.765 192.756 357.061 192.718 357.371C192.745 356.769 192.798 354.09 192.773 353.659C192.77 353.601 192.659 353.527 192.65 352.858C192.641 352.262 192.724 352.172 192.74 351.853C192.753 351.583 192.731 351.289 192.736 351.209C192.739 351.149 192.79 351.125 192.799 350.979C192.826 350.517 192.684 350.889 192.847 350.434C192.853 350.545 192.86 350.655 192.866 350.767C192.889 350.213 192.964 349.453 193 350.272C193.007 350.412 192.958 350.292 192.958 350.396C192.967 354.506 193.062 351.226 192.986 349.784C193.058 349.416 193.014 347.34 193.028 347.273C193.049 347.177 193.107 347.532 193.157 347.067C193.168 346.968 193.127 344.198 193.223 345.195C193.243 345.401 193.222 346.729 193.225 347.05C193.379 346.296 193.159 344.53 193.164 344.331C193.188 343.53 193.297 345.871 193.315 344.065C193.329 342.677 193.226 343.981 193.183 343.447C193.158 343.146 193.271 341.575 193.125 341.619C193.109 341.078 193.187 341.395 193.192 341.328C193.197 341.262 193.153 340.202 193.184 339.858C193.188 339.817 193.264 339.948 193.27 339.905C193.281 339.824 193.266 338.796 193.259 338.758C193.255 338.732 193.188 338.975 193.172 338.875C193.153 338.762 193.169 337.772 193.15 337.721C193.121 337.642 193.14 338.859 193.066 338.657C193.085 338.093 193.035 337.181 192.975 336.815C192.992 336.904 192.995 337.445 192.989 337.636C192.88 337.544 192.881 336.383 192.967 336.782C192.921 336.526 192.896 336.7 192.853 336.556C192.842 336.518 192.839 336.158 192.82 336.09C192.817 336.08 192.776 336.451 192.753 336.377C192.713 336.244 192.722 335.149 192.733 335.064C192.763 334.814 192.799 335.698 192.845 335.776C192.852 335.785 192.942 335.028 192.95 335.019C193.035 334.973 192.974 335.815 193.05 335.72C193.067 335.509 193.083 335.301 193.099 335.095C193.177 335.901 193.137 337.38 193.225 337.768C193.199 336.577 193.202 335.328 193.402 335.331C193.486 335.331 193.535 335.848 193.556 335.829C193.633 335.75 193.55 335.037 193.554 335.014C193.558 334.992 193.563 334.982 193.567 334.982C193.567 334.982 193.567 334.982 193.567 334.982C193.612 334.977 193.644 336.002 193.665 336.048C193.701 336.134 193.85 335.682 193.883 335.682C193.89 335.701 193.925 336.419 193.983 336.177C194.041 335.935 194.042 335.293 194.048 335.273C194.083 335.151 194.115 336.263 194.136 336.294C194.146 336.31 194.21 335.72 194.228 335.699C194.247 335.686 194.287 336.136 194.345 336.314C194.388 336.447 194.421 336.061 194.428 336.129C194.433 336.176 194.432 337.226 194.439 337.276C194.451 337.353 194.502 337.107 194.515 337.143C194.534 337.193 194.515 337.533 194.534 337.488C194.549 337.454 194.727 336.143 194.774 336.152C194.855 336.164 194.669 337.562 194.989 336.263C194.991 336.254 194.968 335.942 194.97 335.933C195.029 335.739 195.12 336.747 195.104 335.512C195.206 337.807 195.226 335.797 195.362 336.138C195.415 336.267 195.437 337.159 195.444 337.162C195.511 337.074 195.459 336.796 195.492 336.697C195.51 336.647 195.581 337.436 195.626 337.259C195.65 337.167 195.642 336.322 195.646 336.287C195.69 335.954 195.736 336.362 195.767 336.289C195.788 336.24 195.789 335.735 195.793 335.719C195.801 335.701 195.884 336.386 195.914 336.533C195.936 336.643 195.971 336.23 195.981 336.307C196.04 336.773 195.89 337.743 196.1 336.806C196.113 336.748 196.108 336.388 196.111 336.378C196.17 336.155 196.175 336.82 196.224 336.934C196.308 337.136 196.261 336.191 196.32 336.976C196.375 336.384 196.373 336.063 196.358 335.367C196.401 337.279 196.618 337.952 196.613 335.833C196.609 336.503 196.732 336.431 196.734 336.633C196.735 336.761 196.613 337.735 196.887 337.287C196.922 337.23 196.878 336.64 196.948 336.825C196.93 338.248 196.993 336.852 197.002 336.853C197.163 336.868 197.031 340.356 197.05 340.955C197.071 341.651 197.198 342.267 197.198 342.419C197.198 342.917 197.134 342.504 197.11 342.615C197.086 342.726 197.21 344.141 197.203 344.211C197.176 344.485 197.1 344.207 197.096 344.235C197.049 344.575 197.109 346.472 197.091 347.004C197.141 346.987 197.145 345.921 197.224 346.586C197.317 347.363 197.098 347.407 197.089 347.427C197.091 350.983 197.093 354.531 197.095 358.09C197.211 358.044 197.124 355.719 197.139 355.669C197.23 355.354 197.228 359.285 197.187 359.766C197.212 359.393 197.237 359.041 197.262 358.665C197.396 359.295 197.222 360.668 197.281 361.579C197.301 361.876 197.352 361.3 197.356 361.319C197.408 361.656 197.368 362.167 197.298 361.783C197.361 362.54 197.299 362.484 197.287 362.982C197.286 363.004 197.286 363.027 197.286 363.052C197.286 363.079 197.335 362.867 197.366 363.252C197.37 363.442 197.464 364.469 197.54 364.622C197.565 364.674 197.709 364.113 197.527 364.075C197.528 362.945 197.416 363.727 197.396 363.288C197.396 363.246 197.444 363.289 197.455 362.982C197.46 362.827 197.459 362.556 197.445 362.19C197.522 362.292 197.542 362.632 197.541 362.982C197.537 363.342 197.535 363.824 197.56 363.953C197.62 364.256 197.589 363.517 197.584 362.982C197.579 362.625 197.558 362.274 197.51 362.139C197.652 362.327 197.529 361.984 197.535 361.5C197.541 360.971 197.583 361.205 197.584 360.916C197.585 360.138 197.485 360.449 197.575 359.813C197.296 360.442 197.538 358.702 197.611 358.202C197.625 359.024 197.639 359.841 197.653 360.667C197.668 360.621 197.683 360.575 197.697 360.528C197.695 360.737 197.693 360.965 197.691 361.178C197.677 361.144 197.663 361.109 197.649 361.074C197.74 362.192 197.638 362.46 197.637 362.552C197.635 362.699 197.634 362.844 197.633 362.982C197.623 363.783 197.756 364.842 197.932 365.752C197.967 365.91 198.012 365.781 198.213 366.945C198.281 367.307 198.125 366.985 198.242 367.393C198.568 367.864 198.42 367.89 198.463 368.042C198.591 368.477 198.729 368.738 198.74 368.773C198.918 369.303 199.194 370.086 199.439 370.659C199.444 370.669 199.378 370.352 199.513 370.727C199.555 370.854 199.823 372.141 200.422 373.084C200.301 372.818 200.19 372.56 200.076 372.288C200.178 372.619 201.405 374.655 201.179 374.114C201.03 373.79 200.473 373.109 200.569 372.948C200.811 373.728 203.325 377.25 203.584 377.463C203.61 377.502 203.388 377.318 203.424 377.371C203.446 377.413 204.11 378.152 204.185 378.254C204.228 378.319 203.913 378.021 203.923 378.058C203.928 378.095 204.763 379.002 204.864 379.001C204.627 378.809 204.06 378.175 204.405 378.461C204.449 378.498 204.626 378.74 204.681 378.784C205.185 379.19 203.835 377.826 203.654 377.581C204.494 378.453 205.762 379.824 206.908 380.624C207.319 381.01 206.201 380.172 206.676 380.602C207.67 381.475 206.997 380.756 207.034 380.777C207.319 380.936 208.082 381.809 208.206 381.622C208.589 381.908 208.448 381.857 209.039 382.178C208.97 382.12 208.902 382.061 208.835 382.003C209.52 382.292 210.803 383.284 210.693 383.249C210.366 383.172 209.679 382.699 209.613 382.662C209.521 382.61 209.142 382.684 208.265 381.894C207.776 381.778 209.784 382.929 208.828 382.479C209.424 382.878 212.059 384.199 212.51 384.244C212.562 384.252 212.387 384.038 213.048 384.348C213.364 384.494 212.574 384.224 212.713 384.307C213.072 384.777 219.706 386.013 221.044 385.831C221.128 385.833 221.096 385.878 221.179 385.88C221.326 385.883 221.701 385.868 222.088 385.853C222.371 385.842 222.653 385.832 222.848 385.837C221.89 385.765 223.738 385.735 224.215 385.712C224.935 385.69 224.892 385.77 225.2 385.767C226.405 385.759 228.192 385.339 229.125 385.348C229.046 385.188 230.706 385.144 231.42 384.956C231.992 384.818 232.766 384.473 231.995 384.613C232.954 384.364 233.937 384.008 234.803 383.663C234.945 383.606 234.769 383.731 235.008 383.632C235.03 383.623 235.042 383.563 235.244 383.476C236.931 382.71 236.134 383.159 236.469 383.049C236.655 382.982 236.788 382.928 236.883 382.885C235.921 383.372 234.765 383.839 234.447 383.954C234.768 383.979 236.664 383.038 237.215 382.765C237.234 382.757 237.197 382.846 237.216 382.837C237.217 382.837 237.217 382.836 237.217 382.836C237.425 382.751 238.703 382.007 238.397 382.091C238.323 382.111 237.732 382.456 237.025 382.813C237.212 382.704 237.036 382.713 237.069 382.693C237.464 382.465 238.483 381.976 238.83 381.765C238.909 381.719 238.88 381.684 238.893 381.676C239.204 381.493 239.149 381.681 239.386 381.369C240.028 381.147 238.365 382.048 238.519 382.059C238.714 382.152 242.083 379.62 241.912 379.467C241.931 379.468 241.986 379.442 242.085 379.376C242.311 379.237 243.115 378.403 243.22 378.239C243.24 378.21 243.139 378.138 243.167 378.106C243.245 378.033 244.212 377.028 244.439 376.551C244.262 376.772 244.084 376.981 243.898 377.191C244.907 375.843 244.685 376.018 244.351 376.457C244.335 376.48 244.315 376.499 244.299 376.521C244.026 376.861 243.663 377.272 243.648 377.275C243.651 377.302 245.196 374.963 244.982 375.465C244.969 375.541 244.204 376.603 244.629 376.111C244.711 376.024 245.127 375.303 245.153 375.264C245.369 375.047 244.456 376.646 244.635 376.5C244.824 376.088 245.169 375.622 245.401 375.159C245.506 374.951 245.476 374.872 245.489 374.847C245.671 374.461 245.618 374.702 245.682 374.574C245.723 374.503 245.94 373.691 246.048 373.908C246.85 371.298 246.297 373.178 245.533 374.696C245.728 374.188 246.158 373.25 246.279 372.807C246.324 372.652 246.236 372.723 246.306 372.455C246.453 372.014 246.87 370.169 246.779 369.25L246.774 369.094C246.78 368.818 246.784 368.59 246.787 368.439C246.81 368.956 246.879 368.805 246.874 368.406C246.869 368.007 246.777 368.342 246.767 368.264C246.757 368.181 246.8 366.308 246.789 365.996C246.822 367.406 246.89 367.088 246.898 365.891C246.917 366.064 246.937 366.237 246.957 366.41C246.929 365.709 247.034 364.234 247.003 363.829C246.998 363.765 246.94 363.993 246.937 363.958C246.913 363.602 246.972 362.392 246.952 362.336C246.935 362.288 246.887 362.804 246.863 362.613C246.858 362.573 246.936 362.075 246.917 361.585C246.91 361.403 246.855 361.512 246.852 361.467C246.826 361.085 246.918 361.31 246.903 360.612C246.892 360.101 246.802 359.72 246.832 359.014C246.718 361.334 246.765 359.384 246.731 358.414C246.725 358.258 246.626 358.392 246.674 357.463C246.853 359.439 246.769 356.899 246.771 356.38C246.772 356.351 246.837 356.341 246.838 356.087C246.838 356.065 246.794 356.096 246.79 355.859C246.758 353.613 246.808 355.049 246.852 354.623C246.87 354.441 246.808 353.349 246.806 353.054C246.806 352.987 246.852 353.018 246.85 352.756C246.847 352.293 246.798 351.878 246.794 351.573C246.794 351.537 246.867 351.535 246.843 350.956C246.837 350.793 246.811 350.61 246.79 350.842C246.722 351.609 246.84 353.064 246.772 353.931C246.709 354.722 246.704 352.229 246.703 352.099C246.703 352.051 246.739 352.538 246.746 352.044C246.752 351.621 246.627 350.849 246.654 350.219C246.656 350.171 246.762 349.668 246.768 349.691C246.773 349.712 246.796 350.485 246.827 350.373C246.83 350.359 246.829 349.868 246.852 349.804C246.88 349.726 247.153 349.514 247.16 349.409C247.177 349.14 247.115 349.315 247.119 349.141C247.128 348.768 247.209 347.473 247.114 347.431C247.108 347.645 247.103 347.859 247.097 348.073C247.088 346.883 247.047 347.39 247.03 347.222C247.01 347.04 247.093 347.091 247.101 346.69C247.103 346.603 247.086 344.925 247.051 344.955C247.106 345.883 247.004 345.539 247.002 345.582C246.995 345.745 247.053 345.952 247.051 346.17C247.042 347.705 246.951 346.157 246.928 346.52C246.92 346.644 246.969 346.893 246.967 346.946C246.959 347.117 246.894 347.12 246.899 347.235C246.912 347.503 247.003 347.19 247.008 347.211C247.065 347.45 246.994 348.388 246.894 347.804C246.859 348.154 246.979 348.195 246.931 348.473C246.836 349.025 246.86 348.198 246.844 347.974C246.787 347.17 246.833 346.932 246.817 345.794C246.812 345.384 246.753 344.899 246.75 344.708C246.748 344.589 246.952 343.458 246.633 343.425C246.664 342.985 246.874 342.295 246.864 341.842C246.856 341.436 246.743 341.565 246.738 341.527C246.731 341.469 246.74 340.977 246.724 340.811C246.706 340.616 246.663 340.713 246.645 340.404C246.601 339.635 246.717 339.655 246.724 339.576C246.811 338.658 246.647 339.06 246.634 338.856C246.622 338.666 246.685 336.009 246.643 335.449C246.666 335.677 246.689 335.905 246.712 336.132C246.784 335.725 246.667 335.293 246.796 335.285C246.724 335.257 246.693 335.137 246.684 334.982L249.409 337.331C249.12 337.392 248.689 337.394 248.52 337.421C248.418 337.437 248.431 337.471 248.302 337.49C247.794 337.566 246.694 337.67 246.413 337.719C245.269 337.928 248.24 337.714 248.495 337.675C248.013 337.749 245.369 338.098 246.6 338.058C246.795 338.051 247.12 337.919 247.226 337.902C247.937 337.79 247.386 337.942 247.443 337.943C247.543 337.944 247.99 337.806 248.125 337.798C248.167 337.795 247.907 337.907 248.601 337.815C248.26 337.941 246.327 338.116 246.084 338.155C245.992 338.169 246.584 338.269 244.909 338.288C244.93 338.3 244.951 338.313 244.972 338.326C244.068 338.421 243.14 338.509 242.235 338.586C242.332 338.545 242.839 338.437 242.195 338.503C241.822 338.54 242.104 338.593 242.07 338.598C241.737 338.669 235.837 338.988 234.707 339.015C234.314 339.033 233.245 339.129 233.16 339.132C232.662 339.156 230.928 339.161 230.576 339.175C230.36 339.185 230.567 339.243 230.373 339.245C230.194 339.245 230.379 339.181 230.325 339.18C229.884 339.172 226.516 339.296 225.72 339.237C226.207 339.255 228.644 339.108 228.592 339.064C228.582 339.059 227.99 339.021 227.868 339.045C227.667 338.995 226.974 339.161 226.598 339.132C226.555 339.129 226.722 339.039 226.051 339.027C225.819 339.023 225.213 339.095 224.603 339.018C223.72 339.066 219.082 338.908 218.764 338.991C218.754 338.996 219.409 339.039 218.966 339.072C218.377 339.114 218.907 338.948 218.223 338.921C218.121 338.918 216.218 338.896 216.156 338.904C215.577 338.989 217.24 339.068 217.217 339.078C217.158 339.106 215.774 339.092 215.72 339.083C215.667 339.075 216.793 338.972 215.443 338.988C215.597 339.008 215.751 339.027 215.905 339.046C215.27 339.061 215.211 338.969 215.056 338.959C214.575 338.929 214.055 339.052 213.293 338.857C213.09 338.806 213.431 338.767 213.406 338.759C213.162 338.691 212.844 338.843 212.482 338.709C212.455 338.699 213.307 338.657 211.822 338.604C211.923 338.62 212.025 338.635 212.127 338.65C211.922 338.67 210.4 338.627 210.203 338.612C209.614 338.569 210.136 338.508 209.535 338.492C209.912 338.624 208.096 338.557 208.209 338.463C207.942 338.575 206.423 338.403 205.685 338.358C205.228 338.331 204.297 338.33 204.147 338.314C203.97 338.295 204.029 338.214 203.711 338.176C203.626 338.165 202.66 338.165 201.838 338.019C201.68 337.991 201.353 337.824 201.654 337.81C202.16 337.786 203.138 337.967 203.133 337.881C203.118 337.791 201.804 337.755 201.456 337.717C199.819 337.54 200.776 337.515 200.734 337.483C200.631 337.405 199.747 337.337 199.705 337.327C199.55 337.286 200.2 337.283 200.206 337.24C200.228 337.186 199.363 337.014 199.564 337.011C199.851 337.008 200.626 337.154 200.676 337.153C201.328 337.148 200.447 336.952 200.215 336.869C200.144 336.844 200.437 336.835 200.377 336.824C199.444 336.662 200.164 336.99 199.536 336.921C198.979 336.858 199.704 336.834 199.684 336.827C199.655 336.82 198.99 336.759 198.892 336.72C198.831 336.702 200.598 336.68 200.52 336.598C199.981 336.573 199.398 336.541 198.861 336.511C198.825 336.411 199.606 336.549 199.693 336.545C199.861 336.539 199.401 336.452 199.424 336.423C199.436 336.405 199.985 336.38 199.497 336.311C199.323 336.287 198.992 336.328 198.367 336.202C200.501 336.299 199.03 336.117 198.976 336.078C198.917 336.039 199.929 336.045 198.709 335.954C198.669 335.761 198.746 335.897 199.089 335.894C199.521 335.889 198.528 335.745 200.101 335.922C200.008 335.827 198.765 335.728 198.695 335.714C198.637 335.703 198.924 335.684 198.826 335.661C197.644 335.384 198.459 335.535 198.125 335.396C198.09 335.384 197.007 335.24 197.837 335.303C199.4 335.419 200.009 335.588 200.303 335.344C199.157 335.138 197.77 335.183 197.429 335.152C196.888 335.103 197.453 335.104 197.388 335.082C197.364 335.075 196.902 335.033 196.897 335.028C196.587 334.796 198.951 335.224 199.678 335.243C199.48 335.196 199.285 335.149 199.092 335.102C199.357 335.124 199.627 335.145 199.9 335.166C198.618 334.998 199.851 335.14 200.195 335.001C200.27 334.97 199.411 334.965 200.393 334.94C199.678 334.859 199.904 334.844 199.262 334.836C199.279 334.772 200.738 334.817 201.309 334.824C199.32 334.596 200.416 334.928 198.701 334.652C198.367 334.705 199.208 334.763 199.134 334.77C198.904 334.799 198.305 334.669 197.624 334.775C197.508 334.792 197.981 334.924 197.269 334.851C197.189 334.843 196.749 334.724 196.757 334.72C196.82 334.668 197.262 334.734 197.284 334.712C197.303 334.691 196.805 334.655 196.806 334.649C196.797 334.576 197.22 334.663 197.161 334.634C197.028 334.572 195.28 334.239 197.591 334.517C195.643 334.404 197.344 334.576 198.08 334.611C198.271 334.621 198.322 334.582 198.599 334.592C198.965 334.606 199.352 334.659 199.538 334.667C199.736 334.674 198.628 334.481 200.24 334.644C199.417 334.478 197.988 334.46 197.19 334.308C195.6 334.003 198.326 334.247 198.616 334.253C198.693 334.256 198.441 334.175 198.492 334.176C198.588 334.181 200.116 334.338 200.288 334.301C200.447 334.266 199.71 334.257 199.669 334.203C199.643 334.169 201.513 334.255 200.51 334.154C199.801 334.083 198.516 334.107 198.306 333.94C199.345 334.023 200.362 334.094 201.389 334.159C200.826 334.061 200.282 333.962 199.716 333.86C200.878 333.938 201.862 334.074 202.964 334.068C200.349 333.708 203.838 333.988 203.868 333.964C203.884 333.952 202.854 333.74 202.689 333.701C203.617 333.714 206.402 333.849 204.783 333.575C205.084 333.633 205.794 333.574 205.788 333.566C205.703 333.484 204.135 333.441 204.394 333.385C204.696 333.321 205.108 333.458 205.557 333.475C207.898 333.557 207.283 333.114 209.612 333.286C209.566 333.269 209.52 333.252 209.474 333.235C212.018 333.371 214.566 333.476 217.114 333.554C218.111 333.452 220.768 333.415 222.068 333.435C222.33 333.44 223.618 333.511 223.715 333.522C223.895 333.545 222.906 333.551 223.352 333.593C223.447 333.604 225.627 333.629 225.471 333.558C225.227 333.551 224.462 333.588 224.337 333.571C223.458 333.467 230.178 333.509 230.504 333.434C230.355 333.415 230.207 333.395 230.058 333.375C230.479 333.378 230.906 333.38 231.329 333.381ZM211.646 338.878C211.381 338.939 210.732 338.861 210.351 338.865C209.829 338.872 208.904 339.103 209.307 338.848C210.097 338.861 210.856 338.87 211.646 338.878ZM223.006 339.213C222.484 339.173 222.89 339.023 223.317 339.088C223.364 339.095 223.711 339.266 223.006 339.213ZM217.539 339.077C217.56 339.075 218.01 339.088 218.026 339.09C218.428 339.159 217.072 339.121 217.539 339.077ZM244.021 338.3C243.439 338.359 243.874 338.459 244.229 338.369C244.251 338.363 244.059 338.296 244.021 338.3ZM243.606 338.334C243.132 338.252 242.268 338.574 242.977 338.49C243.043 338.482 243.628 338.338 243.606 338.334ZM221.147 339.141C221.206 339.094 221.743 339.121 221.973 339.134C221.966 339.178 221.372 339.138 221.147 339.141ZM234.806 338.951C234.823 338.915 232.956 338.981 232.826 339.033C233.125 339.004 234.781 338.987 234.806 338.951ZM239.618 338.66C239.571 338.656 238.925 338.705 238.945 338.737C239.265 338.761 239.833 338.675 239.618 338.66ZM249.25 337.718C249.277 337.707 248.943 337.615 249.443 337.564L246.449 334.982C246.444 335.096 246.43 335.252 246.405 335.464C246.385 335.631 246.33 335.035 246.322 335.094C246.308 335.218 246.301 335.317 246.3 335.395C246.295 335.256 246.291 335.115 246.288 334.982L249.467 337.723C249.095 337.787 248.778 337.833 248.737 337.83C248.473 337.806 249.237 337.724 249.25 337.718ZM246.481 339.734C246.515 339.844 246.497 340.54 246.483 340.699C246.48 340.726 246.39 340.607 246.397 340.921C246.403 341.173 246.495 340.797 246.48 341.287C246.465 341.783 246.4 341.121 246.395 341.164C246.389 341.222 246.43 341.989 246.377 341.965C246.337 341.947 246.364 341.126 246.355 340.922C246.344 340.662 246.278 340.978 246.293 340.543C246.302 340.27 246.418 340.421 246.423 340.364C246.428 340.315 246.361 339.36 246.481 339.736C246.481 339.735 246.481 339.735 246.481 339.734ZM246.305 335.539C246.301 335.499 246.299 335.452 246.3 335.395C246.301 335.443 246.303 335.491 246.305 335.539ZM213.151 338.879C213.422 338.923 212.612 338.943 212.311 338.885C212.306 338.847 213.107 338.872 213.151 338.879ZM246.399 336.03C246.37 336.816 246.33 336.238 246.305 335.539C246.327 335.761 246.409 335.766 246.399 336.03ZM227.868 339.045C227.902 339.053 227.923 339.066 227.926 339.088C227.838 339.065 227.83 339.052 227.868 339.045ZM229.722 339.056C230.355 338.977 229.065 339.003 229.074 339.051C229.078 339.069 229.696 339.06 229.722 339.056ZM244.76 338.236C244.699 338.235 245.585 337.945 244.289 338.224C244.991 338.181 244.256 338.274 244.268 338.29C244.298 338.34 245.482 338.174 245.748 338.166C245.946 338.054 244.955 338.24 244.761 338.236C244.761 338.236 244.76 338.236 244.76 338.236ZM246.431 348.678C246.378 348.52 246.395 348.02 246.398 347.682C246.452 347.84 246.435 348.34 246.431 348.678ZM199.68 371.08C200.593 372.978 200.545 373.314 199.788 371.53C199.773 371.497 199.607 370.969 199.68 371.08ZM211.811 383.521C211.955 383.683 211.353 383.454 210.983 383.237C210.897 383.189 210.616 382.95 210.993 383.105C210.934 383.207 211.485 383.505 211.811 383.521ZM246.46 336.474C246.524 336.703 246.479 337.408 246.469 337.779C246.417 337.553 246.44 336.803 246.46 336.474ZM203.109 377.047C203.243 377.226 203.401 377.284 203.382 377.251C203.3 377.104 202.988 376.821 203.109 377.047ZM248.646 337.657C248.617 337.632 249.144 337.531 249.436 337.515L246.499 334.982C246.49 335.078 246.474 335.149 246.451 335.165C246.452 335.124 246.453 335.059 246.453 334.982L249.442 337.56C249.149 337.603 248.667 337.673 248.646 337.657ZM246.46 348.041C246.479 347.896 246.514 348.647 246.495 348.874C246.454 348.856 246.447 348.136 246.46 348.041ZM205.543 379.595C205.684 379.736 206.048 380.054 206.112 380.062C206.188 380.075 205.644 379.622 205.543 379.595ZM197.557 343.347C197.572 343.32 197.681 344.164 197.653 344.54C197.6 345.253 197.546 343.378 197.557 343.347ZM201.838 375.389C201.556 374.82 201.879 375.448 201.932 375.375C201.694 375.026 201.151 374.135 201.46 374.788C201.521 374.915 201.732 375.223 201.838 375.389ZM202.141 375.878C202.201 375.918 202.533 376.235 202.301 375.922C202.194 375.777 201.952 375.593 202.141 375.878ZM197.594 348.58C197.52 349.198 197.56 346.368 197.573 346.288C197.579 346.245 197.586 346.216 197.591 346.2C197.568 346.097 197.564 345.562 197.623 345.5C197.618 345.66 197.623 346.098 197.616 346.149C197.614 346.171 197.611 346.187 197.608 346.198C197.66 346.386 197.608 348.464 197.594 348.58ZM197.518 353.268C197.409 352.562 197.594 352.435 197.6 352.496C197.676 353.268 197.539 352.765 197.533 352.788C197.522 352.843 197.586 353.388 197.518 353.266C197.518 353.266 197.518 353.267 197.518 353.268ZM197.563 349.541C197.561 349.512 197.567 348.92 197.57 348.895C197.632 348.409 197.616 350.085 197.563 349.541ZM246.61 343.475C246.592 343.899 246.524 343.483 246.548 343.201C246.551 343.178 246.626 343.1 246.61 343.475ZM202.335 376.119C202.357 376.217 203.752 378.02 203.756 377.834C203.592 377.721 202.063 375.637 202.335 376.119ZM216.299 385C215.9 384.919 216.353 384.913 216.562 384.988C216.639 385.016 216.4 385.021 216.299 385ZM247.347 337.737C246.884 337.847 246.96 337.658 247.374 337.67C247.39 337.67 247.366 337.733 247.347 337.737ZM213.2 384.124C214.552 384.484 214.119 384.713 212.455 384.014C212.512 384.02 212.569 384.027 212.626 384.033C210.699 383.232 212.505 383.983 212.983 384.118C213.167 384.175 213.031 384.074 213.199 384.123C213.199 384.124 213.2 384.124 213.2 384.124ZM218.422 385.337C219.747 385.704 217.171 385.283 216.448 385.141C217.183 385.189 218.078 385.335 216.859 385.045C218.676 385.316 217.92 385.272 217.986 385.295C218.073 385.315 218.364 385.322 218.422 385.337ZM214.915 384.696C214.836 384.684 214.283 384.489 214.084 384.436C214.377 384.452 215.429 384.782 214.915 384.696ZM197.569 358.183C197.51 358.131 197.467 357.99 197.489 357.491C197.518 357.647 197.544 357.967 197.569 358.183ZM211.163 338.552C210.809 338.535 210.114 338.484 210.325 338.554C210.348 338.561 211.16 338.587 211.163 338.552ZM206.874 380.87C206.911 380.929 208.327 381.917 207.873 381.525C207.731 381.423 206.471 380.488 206.874 380.87ZM200.993 374.136C201.067 374.266 201.386 374.766 201.405 374.769C201.465 374.778 201.064 374.172 200.993 374.136ZM209.393 338.42C209.345 338.412 208.275 338.374 208.392 338.408C208.61 338.472 209.551 338.448 209.393 338.42ZM246.747 345.019C246.749 345.108 246.686 345.225 246.685 345.256C246.684 345.329 246.708 346.959 246.627 346.336C246.613 346.233 246.645 343.886 246.653 343.581C246.74 343.463 246.657 344.465 246.666 344.709C246.668 344.752 246.74 344.78 246.746 345.018C246.747 345.018 246.747 345.018 246.747 345.019ZM197.507 355.541C197.452 355.467 197.415 353.555 197.482 353.573C197.49 354.233 197.499 354.886 197.507 355.541ZM197.498 356.516C197.459 356.927 197.446 355.965 197.463 355.685C197.5 355.683 197.504 356.453 197.498 356.516ZM202.69 377C202.809 377.131 202.541 376.654 202.628 376.74C202.682 376.796 202.9 377.124 203 377.205C203.028 377.228 202.837 376.868 202.765 376.778C202.661 376.652 202.711 376.814 202.602 376.672C202.243 376.203 201.969 375.741 201.662 375.277C201.633 375.235 201.816 375.588 201.577 375.225C201.54 375.168 201.373 374.799 201.101 374.364C200.35 373.477 200.114 372.64 199.461 371.34C199.464 371.405 199.874 372.407 199.908 372.469C200.399 373.589 201.523 375.468 202.296 376.476C202.489 376.736 202.429 376.585 202.514 376.695C202.582 376.782 202.44 376.725 202.69 377ZM211.352 338.517C211.186 338.435 210.596 338.46 210.223 338.441C210.351 338.515 210.983 338.487 211.352 338.517ZM197.581 364.782C197.603 364.934 197.669 365.471 197.699 365.5C197.736 365.557 197.632 364.799 197.581 364.782ZM246.725 354.213C246.727 354.232 246.723 354.681 246.721 354.698C246.66 355.099 246.672 353.752 246.725 354.213ZM246.711 364.961C246.72 365.302 246.744 365.645 246.682 365.76C246.691 365.543 246.668 364.921 246.711 364.961ZM243.574 377.397C243.681 377.4 243.051 378.057 242.926 378.173C242.945 378.107 243.508 377.394 243.574 377.397ZM197.315 358.257C197.32 357.621 197.197 357.764 197.252 357.363C197.262 357.297 197.517 357.092 197.421 357.775C197.404 357.901 197.344 357.409 197.315 358.257ZM212.18 383.906C212.023 383.904 211.607 383.72 211.333 383.594C211.409 383.586 211.971 383.832 212.18 383.906ZM207.457 338.268C207.164 338.179 205.799 338.162 206.133 338.23C206.188 338.24 207.262 338.256 207.457 338.268ZM246.704 338.068C246.764 338.627 246.782 337.469 246.724 337.104C246.728 337.269 246.7 338.03 246.704 338.068ZM245.34 374.846C245.334 374.867 245.078 375.313 245.061 375.332C244.802 375.668 245.521 374.41 245.34 374.846ZM246.809 361.427C246.858 361.64 246.818 363.044 246.769 363.359C246.698 363.056 246.748 361.162 246.809 361.427ZM197.35 360.834C197.347 360.393 197.362 359.965 197.383 359.553C197.424 359.643 197.38 360.788 197.35 360.834ZM244.351 376.457C244.335 376.48 244.315 376.499 244.299 376.521C244.317 376.499 244.334 376.478 244.351 376.457ZM198.772 369.868C198.876 370.196 198.923 370.102 198.917 370.082C198.848 369.83 198.657 369.498 198.772 369.868ZM210.924 338.389C210.794 338.316 210.161 338.343 209.799 338.311C209.903 338.37 210.627 338.385 210.924 338.389ZM219.861 385.61C220.291 385.719 218.511 385.667 218.139 385.557C218.13 385.52 219.786 385.606 219.861 385.61ZM246.806 336.332C246.86 336.295 246.795 335.49 246.77 335.661C246.754 335.769 246.773 336.355 246.806 336.332ZM217.257 385.4C217.091 385.391 216.725 385.274 216.862 385.265C217.038 385.254 217.3 385.402 217.257 385.4ZM204.306 378.922C204.349 378.985 205.076 379.616 204.829 379.301C204.66 379.084 204.575 379.106 204.528 379.06C204.469 379.012 203.478 377.823 204.306 378.922ZM229.95 384.993C229.593 385.086 229.143 385.145 228.749 385.211C228.908 385.155 229.791 384.984 229.95 384.993ZM246.821 339.435C246.842 339.338 246.855 336.696 246.789 338.197C246.785 338.284 246.755 339.729 246.821 339.435ZM197.315 358.257C197.314 358.336 197.312 358.426 197.306 358.531C197.308 358.427 197.312 358.336 197.315 358.257ZM197.483 365.021C197.423 364.894 197.517 365.557 197.575 365.736C197.63 365.788 197.487 365.037 197.483 365.021ZM228.728 385.269C228.506 385.329 228.104 385.366 227.823 385.407C227.869 385.366 228.623 385.251 228.728 385.269ZM242.579 378.775C242.265 379.064 241.882 379.426 241.903 379.465C241.892 379.466 241.872 379.475 241.841 379.493C241.809 379.513 241.482 379.829 241.315 379.947C240.418 380.723 244.593 376.708 242.298 379.165C242.394 379.035 242.484 378.909 242.579 378.775ZM246.913 359.527C246.966 359.256 246.899 358.496 246.878 358.693C246.863 358.83 246.859 359.799 246.913 359.527ZM246.963 369.914C246.98 369.851 246.929 369.273 246.895 369.268C246.893 369.582 246.909 370.203 246.963 369.914ZM246.976 357.441C246.984 357.27 246.897 357.053 246.893 357.073C246.862 357.246 246.927 357.727 246.976 357.441ZM197.081 359.554C197.056 359.809 197.119 360.62 197.176 360.789C197.165 360.823 197.151 360.915 197.133 361.077C197.133 361.076 197.133 361.076 197.133 361.075C197.125 361.147 197.116 362.076 197.114 362.982C197.14 364.315 197.354 365.785 197.203 363.349C197.203 363.24 197.155 363.368 197.156 362.982C197.156 362.967 197.156 362.95 197.157 362.933C197.157 362.897 197.199 362.88 197.201 362.768C197.206 362.499 197.232 361.111 197.198 360.824C197.206 360.822 197.213 360.803 197.22 360.763C197.281 360.43 197.1 359.357 197.081 359.554ZM246.857 371.096C246.894 370.979 246.928 370.59 246.893 370.548C246.862 370.736 246.776 371.37 246.857 371.096ZM246.973 339.353C247.003 339.048 246.946 338.277 246.916 338.51C246.897 338.653 246.938 339.704 246.973 339.353ZM246.932 366.707C246.889 368.452 246.936 367.124 246.99 367.391C246.971 367.163 246.952 366.935 246.932 366.707ZM197.221 351.476C197.209 351.753 197.102 351.429 197.16 351.122C197.178 351.026 197.228 351.322 197.221 351.476ZM197.188 338.91C197.093 339.148 197.149 337.987 197.214 338.44C197.216 338.461 197.192 338.894 197.188 338.91ZM197.149 347.691C197.214 347.88 197.222 348.004 197.206 348.535C197.187 347.748 197.13 348.479 197.149 347.691ZM241.912 379.467C241.908 379.467 241.905 379.468 241.903 379.465C241.907 379.465 241.91 379.466 241.912 379.467ZM246.959 355.8C247.014 355.582 247.01 354.97 246.954 355.152C246.949 355.17 246.918 355.711 246.959 355.8ZM197.176 360.789C197.186 360.759 197.192 360.775 197.198 360.824C197.191 360.827 197.184 360.814 197.176 360.789ZM247.004 359.087C246.963 359.065 246.947 359.997 246.951 360.034C247.022 360.569 247.006 359.472 247.004 359.087ZM247.544 337.237C247.498 337.247 247.816 337.314 248.008 337.247C248.154 337.195 247.72 337.199 247.544 337.237ZM197.123 345.884C197.123 345.589 197.123 345.174 197.173 345.097C197.165 345.295 197.16 345.89 197.123 345.884ZM197.119 339.364C197.178 339.715 197.178 340.512 197.168 341.018C197.091 341.028 197.137 339.693 197.119 339.364ZM197.11 358.753C197.107 358.782 197.084 359.513 197.136 359.414C197.212 359.273 197.138 358.542 197.11 358.753ZM249.012 337.096C249.339 337.013 248.561 337.015 248.211 337.146C248.034 337.214 248.96 337.111 249.012 337.096ZM247.031 353.889C247.001 353.452 246.947 354.534 247.001 354.685C247.006 354.484 247.041 354.044 247.031 353.889ZM247.086 368.744C247.242 367.368 246.956 368.118 246.982 368.362C246.985 368.396 247.082 368.778 247.086 368.744ZM204.038 337.764C203.84 337.774 204.569 337.897 204.67 337.851C204.731 337.822 204.164 337.758 204.038 337.764ZM236.883 382.885C236.931 382.861 236.978 382.837 237.025 382.813C236.991 382.833 236.945 382.857 236.883 382.885ZM247.24 349.925C247.019 350.894 247.19 350.792 247.189 350.876C247.186 351.058 247.127 351.481 247.136 351.824C247.112 351.431 247.087 351.039 247.062 350.646C247.046 350.956 246.964 353.65 247 353.706C247.051 353.787 247.035 352.94 247.04 352.915C247.046 352.879 247.188 352.747 247.194 352.668C247.202 352.539 247.205 350.286 247.24 349.925ZM247.061 365.867C247.044 366.088 246.988 366.151 247.001 366.254C247.006 366.289 247.06 366.295 247.073 366.414C247.069 366.232 247.065 366.049 247.061 365.867ZM247.042 348.191C247.107 347.917 247.082 349.146 247.075 349.186C247.03 349.396 246.988 348.415 247.042 348.191ZM247.051 358.622C247.055 358.577 247.075 357.633 247.039 357.641C247.011 357.89 247.003 359.153 247.051 358.622ZM247.077 366.562C247.071 366.893 247.017 367.52 247.098 367.448C247.098 367.448 247.098 367.447 247.098 367.447C247.091 367.152 247.084 366.857 247.077 366.562ZM247.145 335.762C247.274 335.147 247.111 335.438 247.069 335.982C247.127 336.147 247.124 335.862 247.145 335.762ZM248.127 336.95C247.944 336.955 246.173 337.193 246.447 337.227C246.552 337.241 247.573 337.057 247.616 337.054C247.688 337.052 247.374 337.169 247.913 337.084C247.877 337.063 248.189 336.949 248.127 336.95ZM247.227 335.253C247.244 335.149 247.253 335.058 247.255 334.982L249.324 336.767C248.955 336.807 248.943 336.935 249.323 336.879C249.329 336.878 249.335 336.877 249.341 336.876L247.144 334.982C247.148 335.157 247.214 335.337 247.227 335.253ZM247.212 337.748C247.229 337.528 247.254 336.943 247.194 336.539C247.189 337.079 247.184 337.619 247.179 338.159C247.213 338.221 247.197 337.94 247.212 337.746C247.212 337.747 247.212 337.747 247.212 337.748ZM196.657 335.694C196.605 336.183 196.586 335.057 196.598 335.015C196.64 334.876 196.679 335.473 196.657 335.694ZM200.357 335.862C200.229 335.831 200.14 335.757 199.838 335.768C200.139 335.842 200.428 335.915 200.72 335.987C200.959 335.891 200.499 335.896 200.357 335.862ZM199.249 335.355C199.291 335.356 199.076 335.162 199.608 335.324C199.971 335.435 197.959 335.339 197.62 335.225C198.003 335.226 198.904 335.349 199.249 335.355ZM195.84 334.265C195.817 334.249 196.584 334.311 196.66 334.328C197.108 334.427 195.963 334.355 195.84 334.265ZM198.237 334.54C197.887 334.474 198.671 334.524 198.913 334.564C198.931 334.599 198.289 334.55 198.237 334.54ZM194.127 340.61C194.009 340.994 194.264 341.339 194.213 340.746C194.21 340.718 194.133 340.593 194.127 340.61ZM196.597 334.169C196.939 334.239 196.171 334.181 195.93 334.134C195.91 334.1 196.552 334.16 196.597 334.169ZM193.845 340.88C193.759 341.392 194.046 341.212 194.058 341.148C194.103 340.885 193.991 339.978 193.963 339.795C194.006 341.15 193.885 340.639 193.845 340.88ZM194.017 343.245C194.047 343.72 194.106 342.507 194.026 342.273C194.03 342.511 194.008 343.109 194.017 343.245ZM193.925 346.132C193.915 346.387 193.89 347.148 193.935 347.276C193.927 346.997 193.971 346.24 193.925 346.132ZM193.79 346.71C193.729 347.111 193.907 347.207 193.854 346.745C193.852 346.727 193.793 346.696 193.79 346.71ZM193.725 348.958C193.654 349.221 193.827 349.519 193.832 349.095C193.833 348.968 193.733 348.93 193.725 348.958ZM193.536 341.523C193.506 341.898 193.63 342.38 193.643 341.58C193.662 341.861 193.681 342.142 193.7 342.425C193.769 341.375 193.598 341.451 193.605 341.15C193.615 340.728 193.757 340.762 193.801 340.846C193.714 340.501 193.713 339.034 193.696 338.184C193.66 338.933 193.597 340.139 193.574 340.876C193.567 341.085 193.606 341.289 193.602 341.469C193.594 341.757 193.538 341.501 193.536 341.521C193.536 341.522 193.536 341.522 193.536 341.523ZM193.723 351.912C193.642 352.682 193.816 352.197 193.785 351.759C193.783 351.74 193.725 351.893 193.723 351.912ZM195.646 333.535C196.654 333.718 195.897 333.743 198.038 333.804C197.155 333.824 197.982 333.874 197.807 333.899C197.677 333.92 197.134 333.839 197.441 333.936C197.039 333.828 195.305 333.659 195.246 333.637C195.247 333.637 195.247 333.637 195.248 333.637C195.205 333.625 195.332 333.476 195.646 333.535ZM193.471 346.135C193.26 346.393 193.595 346.492 193.42 346.999C193.674 347.672 193.42 345.14 193.634 344.833C193.609 347.583 193.846 343.017 193.526 344.936C193.642 343.355 193.486 344.418 193.445 344.174C193.402 343.913 193.449 343.018 193.37 343.064C193.37 343.064 193.37 343.065 193.37 343.065C193.376 343.613 193.381 344.159 193.387 344.707C193.556 344.171 193.506 345.289 193.368 345.668C193.402 345.824 193.436 345.98 193.471 346.135ZM193.63 343.04C193.626 343.093 193.65 344.283 193.684 344.206C193.705 344.048 193.679 342.359 193.63 343.04ZM193.593 337.805C193.592 338.228 193.559 338.893 193.623 339.124C193.624 338.7 193.657 338.034 193.593 337.805ZM193.581 359.801C193.633 360.344 193.649 358.669 193.587 359.153C193.584 359.173 193.578 359.776 193.581 359.801ZM193.503 347.374C193.438 347.926 193.643 347.665 193.59 347.256C193.587 347.232 193.506 347.348 193.503 347.374ZM196.474 333.601C196.5 333.555 197.985 333.739 198.235 333.759C198.092 333.795 196.412 333.655 196.474 333.601ZM193.405 337.052C193.224 337.906 193.433 339.054 193.428 339.181C193.424 339.307 193.345 339.11 193.343 339.139C193.338 339.205 193.345 340.542 193.35 340.61C193.355 340.656 193.466 340.413 193.5 340.69C193.437 340.149 193.477 337.7 193.465 337.575C193.455 337.477 193.338 338.22 193.405 337.053C193.405 337.053 193.405 337.052 193.405 337.052ZM193.404 339.498C193.451 339.164 193.456 340.101 193.439 340.329C193.401 340.833 193.399 339.542 193.404 339.498ZM193.361 341.755C193.351 341.861 193.341 342.83 193.393 342.911C193.46 342.454 193.386 341.512 193.361 341.755ZM193.368 352.515C193.375 352.767 193.335 353.458 193.38 353.496C193.374 353.249 193.414 352.553 193.368 352.515ZM201.528 333.65C201.114 333.582 202.083 333.638 202.352 333.674C202.365 333.706 201.568 333.657 201.528 333.65ZM193.07 347.467C193.056 347.617 193.091 350.65 193.112 351.076C193.146 350.659 193.149 347.654 193.132 347.516C193.127 347.476 193.072 347.449 193.07 347.467ZM193.049 340.906C192.983 340.629 193.063 340.447 193.064 340.412C193.074 340.066 193.059 339.356 193.123 339.511C193.097 340.116 193.182 341.46 193.049 340.906ZM193.067 352.731C193.092 353.764 193.162 351.783 193.092 352.043C193.088 352.061 193.064 352.621 193.067 352.731ZM193.051 347.129C192.997 346.901 193.043 343.867 193.043 343.379C193.143 343.817 193.067 344.167 193.072 344.754C193.074 344.912 193.115 344.87 193.115 344.887C193.117 345.16 193.069 344.956 193.069 345.124C193.068 345.231 193.127 347.448 193.051 347.129ZM193.003 340.748C192.965 340.577 192.949 338.682 192.959 338.608C193.034 338.039 193.016 340.598 193.003 340.748ZM192.963 347.407C192.847 347.081 192.924 345.574 192.982 346.605C192.987 346.703 192.937 347.121 192.963 347.407ZM192.957 352.62C192.954 352.675 192.931 353.742 192.967 353.765C192.982 353.608 192.994 352.044 192.957 352.62ZM192.833 352.065C192.834 352.091 192.904 351.84 192.895 352.342C192.895 352.384 192.815 352.461 192.844 353.096C192.85 353.225 192.903 353.422 192.906 353.408C193.031 352.751 192.792 350.76 192.833 352.065ZM192.939 340.713C192.905 340.815 192.805 340.57 192.856 340.346C192.878 340.251 192.938 340.43 192.939 340.713ZM192.925 356.027C192.864 355.406 192.853 357.357 192.868 357.464C192.906 357.4 192.931 356.086 192.925 356.027ZM202.525 333.254C202.524 333.254 202.524 333.254 202.523 333.254C203.041 333.303 202.716 333.331 202.74 333.335C203.854 333.484 203.557 333.349 203.732 333.347C204.102 333.341 204.031 333.476 204.665 333.457C203.621 333.478 204.567 333.501 204.595 333.552C204.693 333.76 203.232 333.373 202.704 333.377C202.631 333.378 203.16 333.478 202.973 333.484C202.367 333.504 200.548 333.06 202.525 333.254ZM192.847 340.175C192.788 339.933 192.845 338.084 192.894 338.574C192.902 338.652 192.933 340.533 192.847 340.175ZM244.756 382.88C244.423 383.247 245.319 382.525 245.439 382.344C245.503 382.258 244.906 382.721 244.756 382.88ZM249.88 376.604C250.142 376.053 250.198 375.379 249.92 376.08C249.893 376.152 249.824 376.653 249.88 376.604ZM217.01 390.062C217.591 390.219 217.575 390.072 217.14 390.016C216.987 389.995 216.992 390.057 217.01 390.062ZM238.972 386.857C239.031 386.835 239.637 386.515 239.603 386.494C239.369 386.599 238.61 386.998 238.972 386.857ZM216.82 390.054C217.172 390.08 216.587 389.894 216.153 389.92C216.366 389.949 216.783 390.052 216.82 390.054ZM192.65 348.545C192.708 348.82 192.69 349.591 192.7 350.039C192.625 350.085 192.663 348.864 192.65 348.545ZM248.519 378.779C248.787 378.283 248.081 379.255 248.195 379.203C248.209 379.193 248.511 378.799 248.519 378.779ZM200.11 381.21C200.406 381.48 199.621 380.487 199.789 380.801C199.797 380.816 200.093 381.195 200.11 381.21ZM196.899 376.76C197.033 377.03 197.727 378.1 197.495 377.658C197.454 377.589 196.945 376.764 196.899 376.76ZM203.766 333.295C203.624 333.208 204.47 333.28 204.595 333.301C204.642 333.31 203.947 333.408 203.766 333.295ZM220.837 390.404C221.139 390.406 221.938 390.434 222.081 390.392C221.698 390.404 220.738 390.321 220.837 390.404ZM246.964 380.824C247.346 380.516 247.862 379.835 247.645 379.935C247.074 380.663 247.799 379.923 246.964 380.824ZM214.844 389.789C215.086 389.847 215.294 389.781 215.268 389.77C215.012 389.672 214.613 389.697 214.844 389.789ZM233.022 389.108C233.049 389.15 233.804 388.919 233.694 388.919C233.659 388.92 233.003 389.077 233.022 389.108ZM192.624 358.147C192.583 358.482 192.543 357.46 192.591 357.152C192.66 357.008 192.629 358.099 192.624 358.147ZM208.288 387.516C208.22 387.564 209.395 388.065 208.961 387.805C208.851 387.741 208.309 387.503 208.288 387.516ZM198.921 379.998C199.479 380.627 197.435 377.751 197.903 378.555C197.925 378.619 198.861 379.951 198.921 379.998ZM195.865 375.126C195.924 375.257 195.686 375.297 195.498 374.725C195.474 374.651 195.69 374.951 195.673 374.888C195.659 374.857 195.126 373.663 195.105 373.614C195.074 373.559 195.039 373.656 195.005 373.601C194.964 373.535 194.702 372.774 194.552 372.39C194.26 371.649 194.185 371.594 194.16 371.533C194.097 371.363 194.025 371.038 193.905 370.68C193.267 368.878 192.575 365.963 192.597 364.333C192.675 365.782 192.973 367.042 193.32 368.357C193.088 368.004 193.941 370.254 193.425 368.945C193.511 369.609 195.562 374.736 195.864 375.124C195.864 375.125 195.864 375.125 195.865 375.126ZM250.87 374.389C250.834 374.788 251.395 372.883 251.315 372.686C251.264 372.947 250.888 374.351 250.87 374.389ZM246.396 381.948C246.284 382.08 246.276 382.323 245.559 382.898C245.559 382.899 245.558 382.9 245.558 382.9C245.345 383.068 245.545 382.832 245.5 382.856C245.485 382.866 244.812 383.377 245.32 382.897C246.075 382.159 245.472 382.912 245.879 382.523C245.929 382.483 246.625 381.648 246.562 381.681C246.557 381.685 246.349 381.93 246.306 381.963C246.146 382.088 246.181 381.985 246.159 382.004C246.098 382.079 244.928 383.3 244.693 383.39C244.634 383.459 246.599 381.498 246.644 381.404C246.696 381.359 246.773 381.467 246.83 381.423C246.869 381.399 247.555 380.525 247.654 380.407C247.684 380.376 247.707 380.353 247.724 380.336C247.591 380.445 248.212 379.643 248.226 379.692C248.232 379.719 247.801 380.268 247.78 380.286C247.772 380.294 247.765 380.3 247.758 380.306C247.904 380.244 246.343 382.031 246.731 381.691C246.293 382.218 246.721 381.548 246.396 381.948ZM244.021 384.216C244.067 384.162 244.113 384.108 244.158 384.054C243.256 384.827 242.096 385.558 240.923 386.244C240.63 386.414 241.01 386.291 240.611 386.493C240.291 386.655 239.899 386.775 240.064 386.667C240.108 386.641 240.766 386.334 241.08 386.138C242.006 385.558 241.723 385.636 241.778 385.602C241.832 385.567 242.44 385.23 242.742 385.012C243.502 384.461 243.823 384.177 244.847 383.373C244.312 383.894 244.688 383.716 244.021 384.216ZM203.633 384.859C203.571 384.872 202.988 384.358 202.773 384.181C202.832 384.175 203.41 384.7 203.633 384.859ZM234.638 333.394C234.432 333.477 236.001 333.431 235.585 333.387C235.494 333.377 234.836 333.388 234.638 333.394ZM241.668 333.042C241.877 333.005 241.025 333.017 241.034 333.073C241.033 333.092 241.643 333.047 241.668 333.042ZM230.339 390.059C230.298 390.071 229.671 390.164 229.65 390.162C229.227 390.161 231.275 389.835 230.339 390.059ZM251.88 336.439C251.832 335.698 251.811 337.93 251.872 337.248C251.875 337.214 251.883 336.475 251.88 336.439ZM251.894 339.542C251.891 339.364 251.915 338.575 251.893 338.564C251.856 338.549 251.831 339.452 251.894 339.542ZM214.621 390.027C214.696 390.133 213.593 389.813 213.202 389.712C213.127 389.609 214.241 389.961 214.621 390.027ZM221.72 390.862C216.957 390.712 218.031 390.636 222.007 390.823C222.013 390.876 222.024 390.86 221.72 390.862ZM215.638 390.285C215.829 390.267 216.351 390.374 216.714 390.431C216.639 390.459 215.916 390.329 215.638 390.285ZM232.763 333.344C233.036 333.269 234.237 333.311 234.025 333.346C233.977 333.355 232.665 333.385 232.763 333.344ZM229.96 390.2C230.079 390.267 228.678 390.458 228.568 390.448C228.13 390.441 229.84 390.248 229.96 390.2ZM208.079 387.834C207.817 387.778 207.176 387.411 206.758 387.173C206.974 387.235 207.718 387.659 208.079 387.834ZM211.221 389.197C211.191 389.191 210.577 388.963 210.552 388.949C210.069 388.708 211.806 389.35 211.221 389.197ZM201.856 332.594C201.881 332.594 202.312 332.629 202.329 332.633C202.717 332.722 201.396 332.614 201.856 332.594Z" fill="#FF9500"/>
</svg>
