<svg width="221" height="69" viewBox="0 0 221 69" fill="none" xmlns="http://www.w3.org/2000/svg">
<rect x="0.5" y="0.5" width="220" height="68" rx="14.5" fill="#343434"/>
<rect x="0.5" y="0.5" width="220" height="68" rx="14.5" stroke="#343434"/>
<path d="M28.176 43.5C27.904 42.78 27.648 42.076 27.408 41.388C27.168 40.684 26.92 39.972 26.664 39.252H19.128L17.616 43.5H15.192C15.832 41.74 16.432 40.116 16.992 38.628C17.552 37.124 18.096 35.7 18.624 34.356C19.168 33.012 19.704 31.732 20.232 30.516C20.76 29.284 21.312 28.068 21.888 26.868H24.024C24.6 28.068 25.152 29.284 25.68 30.516C26.208 31.732 26.736 33.012 27.264 34.356C27.808 35.7 28.36 37.124 28.92 38.628C29.48 40.116 30.08 41.74 30.72 43.5H28.176ZM25.992 37.332C25.48 35.94 24.968 34.596 24.456 33.3C23.96 31.988 23.44 30.732 22.896 29.532C22.336 30.732 21.8 31.988 21.288 33.3C20.792 34.596 20.296 35.94 19.8 37.332H25.992ZM40.2831 42.252C40.0911 42.38 39.7151 42.548 39.1551 42.756C38.6111 42.948 37.9711 43.044 37.2351 43.044C36.4831 43.044 35.7711 42.924 35.0991 42.684C34.4431 42.444 33.8671 42.076 33.3711 41.58C32.8751 41.068 32.4831 40.436 32.1951 39.684C31.9071 38.932 31.7631 38.036 31.7631 36.996C31.7631 36.084 31.8991 35.252 32.1711 34.5C32.4431 33.732 32.8351 33.076 33.3471 32.532C33.8751 31.972 34.5151 31.54 35.2671 31.236C36.0191 30.916 36.8671 30.756 37.8111 30.756C38.8511 30.756 39.7551 30.836 40.5231 30.996C41.3071 31.14 41.9631 31.276 42.4911 31.404V42.54C42.4911 44.46 41.9951 45.852 41.0031 46.716C40.0111 47.58 38.5071 48.012 36.4911 48.012C35.7071 48.012 34.9631 47.948 34.2591 47.82C33.5711 47.692 32.9711 47.54 32.4591 47.364L32.8671 45.42C33.3151 45.596 33.8591 45.748 34.4991 45.876C35.1551 46.02 35.8351 46.092 36.5391 46.092C37.8671 46.092 38.8191 45.828 39.3951 45.3C39.9871 44.772 40.2831 43.932 40.2831 42.78V42.252ZM40.2591 32.988C40.0351 32.924 39.7311 32.868 39.3471 32.82C38.9791 32.756 38.4751 32.724 37.8351 32.724C36.6351 32.724 35.7071 33.116 35.0511 33.9C34.4111 34.684 34.0911 35.724 34.0911 37.02C34.0911 37.74 34.1791 38.356 34.3551 38.868C34.5471 39.38 34.7951 39.804 35.0991 40.14C35.4191 40.476 35.7791 40.724 36.1791 40.884C36.5951 41.044 37.0191 41.124 37.4511 41.124C38.0431 41.124 38.5871 41.044 39.0831 40.884C39.5791 40.708 39.9711 40.508 40.2591 40.284V32.988ZM45.6381 37.284C45.6381 36.18 45.7981 35.22 46.1181 34.404C46.4381 33.572 46.8621 32.884 47.3901 32.34C47.9181 31.796 48.5261 31.388 49.2141 31.116C49.9021 30.844 50.6061 30.708 51.3261 30.708C53.0061 30.708 54.2941 31.236 55.1901 32.292C56.0861 33.332 56.5341 34.924 56.5341 37.068C56.5341 37.164 56.5341 37.292 56.5341 37.452C56.5341 37.596 56.5261 37.732 56.5101 37.86H47.9661C48.0621 39.156 48.4381 40.14 49.0941 40.812C49.7501 41.484 50.7741 41.82 52.1661 41.82C52.9501 41.82 53.6061 41.756 54.1341 41.628C54.6781 41.484 55.0861 41.348 55.3581 41.22L55.6701 43.092C55.3981 43.236 54.9181 43.388 54.2301 43.548C53.5581 43.708 52.7901 43.788 51.9261 43.788C50.8381 43.788 49.8941 43.628 49.0941 43.308C48.3101 42.972 47.6621 42.516 47.1501 41.94C46.6381 41.364 46.2541 40.684 45.9981 39.9C45.7581 39.1 45.6381 38.228 45.6381 37.284ZM54.2061 36.06C54.2221 35.052 53.9661 34.228 53.4381 33.588C52.9261 32.932 52.2141 32.604 51.3021 32.604C50.7901 32.604 50.3341 32.708 49.9341 32.916C49.5501 33.108 49.2221 33.364 48.9501 33.684C48.6781 34.004 48.4621 34.372 48.3021 34.788C48.1581 35.204 48.0621 35.628 48.0141 36.06H54.2061ZM75.591 35.316H77.919V43.092C77.727 43.156 77.447 43.228 77.079 43.308C76.727 43.388 76.311 43.468 75.831 43.548C75.367 43.628 74.855 43.692 74.295 43.74C73.735 43.804 73.167 43.836 72.591 43.836C71.423 43.836 70.359 43.644 69.399 43.26C68.439 42.876 67.615 42.316 66.927 41.58C66.239 40.844 65.703 39.94 65.319 38.868C64.951 37.796 64.767 36.564 64.767 35.172C64.767 33.78 64.975 32.548 65.391 31.476C65.823 30.388 66.399 29.476 67.119 28.74C67.839 28.004 68.679 27.444 69.639 27.06C70.615 26.676 71.655 26.484 72.759 26.484C73.511 26.484 74.175 26.532 74.751 26.628C75.343 26.724 75.847 26.836 76.263 26.964C76.679 27.092 77.015 27.22 77.271 27.348C77.543 27.476 77.727 27.572 77.823 27.636L77.079 29.58C76.615 29.276 75.999 29.028 75.231 28.836C74.463 28.628 73.679 28.524 72.879 28.524C72.031 28.524 71.255 28.676 70.551 28.98C69.863 29.284 69.271 29.724 68.775 30.3C68.295 30.876 67.919 31.58 67.647 32.412C67.375 33.228 67.239 34.148 67.239 35.172C67.239 36.164 67.351 37.068 67.575 37.884C67.815 38.7 68.167 39.404 68.631 39.996C69.111 40.572 69.695 41.02 70.383 41.34C71.087 41.66 71.911 41.82 72.855 41.82C73.527 41.82 74.095 41.788 74.559 41.724C75.039 41.644 75.383 41.572 75.591 41.508V35.316ZM86.028 30.756C86.22 30.756 86.436 30.772 86.676 30.804C86.932 30.82 87.18 30.852 87.42 30.9C87.66 30.932 87.876 30.972 88.068 31.02C88.276 31.052 88.428 31.084 88.524 31.116L88.14 33.06C87.964 32.996 87.668 32.924 87.252 32.844C86.852 32.748 86.332 32.7 85.692 32.7C85.276 32.7 84.86 32.748 84.444 32.844C84.044 32.924 83.78 32.98 83.652 33.012V43.5H81.42V31.548C81.948 31.356 82.604 31.18 83.388 31.02C84.172 30.844 85.052 30.756 86.028 30.756ZM101.694 37.26C101.694 38.252 101.55 39.148 101.262 39.948C100.974 40.748 100.566 41.436 100.038 42.012C99.5258 42.588 98.9098 43.036 98.1898 43.356C97.4698 43.66 96.6858 43.812 95.8378 43.812C94.9898 43.812 94.2058 43.66 93.4858 43.356C92.7658 43.036 92.1418 42.588 91.6138 42.012C91.1018 41.436 90.7018 40.748 90.4138 39.948C90.1258 39.148 89.9818 38.252 89.9818 37.26C89.9818 36.284 90.1258 35.396 90.4138 34.596C90.7018 33.78 91.1018 33.084 91.6138 32.508C92.1418 31.932 92.7658 31.492 93.4858 31.188C94.2058 30.868 94.9898 30.708 95.8378 30.708C96.6858 30.708 97.4698 30.868 98.1898 31.188C98.9098 31.492 99.5258 31.932 100.038 32.508C100.566 33.084 100.974 33.78 101.262 34.596C101.55 35.396 101.694 36.284 101.694 37.26ZM99.3658 37.26C99.3658 35.852 99.0458 34.74 98.4058 33.924C97.7818 33.092 96.9258 32.676 95.8378 32.676C94.7498 32.676 93.8858 33.092 93.2458 33.924C92.6218 34.74 92.3098 35.852 92.3098 37.26C92.3098 38.668 92.6218 39.788 93.2458 40.62C93.8858 41.436 94.7498 41.844 95.8378 41.844C96.9258 41.844 97.7818 41.436 98.4058 40.62C99.0458 39.788 99.3658 38.668 99.3658 37.26ZM114.77 43.14C114.258 43.268 113.578 43.404 112.73 43.548C111.898 43.692 110.93 43.764 109.826 43.764C108.866 43.764 108.058 43.628 107.402 43.356C106.746 43.068 106.218 42.668 105.818 42.156C105.418 41.644 105.13 41.044 104.954 40.356C104.778 39.652 104.69 38.876 104.69 38.028V31.02H106.922V37.548C106.922 39.068 107.162 40.156 107.642 40.812C108.122 41.468 108.93 41.796 110.066 41.796C110.306 41.796 110.554 41.788 110.81 41.772C111.066 41.756 111.306 41.74 111.53 41.724C111.754 41.692 111.954 41.668 112.13 41.652C112.322 41.62 112.458 41.588 112.538 41.556V31.02H114.77V43.14ZM127.279 37.284C127.279 35.828 126.919 34.708 126.199 33.924C125.479 33.14 124.519 32.748 123.319 32.748C122.647 32.748 122.119 32.772 121.735 32.82C121.367 32.868 121.071 32.924 120.847 32.988V40.86C121.119 41.084 121.511 41.3 122.023 41.508C122.535 41.716 123.095 41.82 123.703 41.82C124.343 41.82 124.887 41.708 125.335 41.484C125.799 41.244 126.175 40.924 126.463 40.524C126.751 40.108 126.959 39.628 127.087 39.084C127.215 38.524 127.279 37.924 127.279 37.284ZM129.607 37.284C129.607 38.228 129.479 39.1 129.223 39.9C128.983 40.7 128.623 41.388 128.143 41.964C127.663 42.54 127.071 42.988 126.367 43.308C125.679 43.628 124.887 43.788 123.991 43.788C123.271 43.788 122.631 43.692 122.071 43.5C121.527 43.308 121.119 43.124 120.847 42.948V47.94H118.615V31.404C119.143 31.276 119.799 31.14 120.583 30.996C121.383 30.836 122.303 30.756 123.343 30.756C124.303 30.756 125.167 30.908 125.935 31.212C126.703 31.516 127.359 31.948 127.903 32.508C128.447 33.068 128.863 33.756 129.151 34.572C129.455 35.372 129.607 36.276 129.607 37.284ZM135.652 41.892C136.564 41.892 137.236 41.772 137.668 41.532C138.116 41.292 138.34 40.908 138.34 40.38C138.34 39.836 138.124 39.404 137.692 39.084C137.26 38.764 136.548 38.404 135.556 38.004C135.076 37.812 134.612 37.62 134.164 37.428C133.732 37.22 133.356 36.98 133.036 36.708C132.716 36.436 132.46 36.108 132.268 35.724C132.076 35.34 131.98 34.868 131.98 34.308C131.98 33.204 132.388 32.332 133.204 31.692C134.02 31.036 135.132 30.708 136.54 30.708C136.892 30.708 137.244 30.732 137.596 30.78C137.948 30.812 138.276 30.86 138.58 30.924C138.884 30.972 139.148 31.028 139.372 31.092C139.612 31.156 139.796 31.212 139.924 31.26L139.516 33.18C139.276 33.052 138.9 32.924 138.388 32.796C137.876 32.652 137.26 32.58 136.54 32.58C135.916 32.58 135.372 32.708 134.908 32.964C134.444 33.204 134.212 33.588 134.212 34.116C134.212 34.388 134.26 34.628 134.356 34.836C134.468 35.044 134.628 35.236 134.836 35.412C135.06 35.572 135.332 35.724 135.652 35.868C135.972 36.012 136.356 36.164 136.804 36.324C137.396 36.548 137.924 36.772 138.388 36.996C138.852 37.204 139.244 37.452 139.564 37.74C139.9 38.028 140.156 38.38 140.332 38.796C140.508 39.196 140.596 39.692 140.596 40.284C140.596 41.436 140.164 42.308 139.3 42.9C138.452 43.492 137.236 43.788 135.652 43.788C134.548 43.788 133.684 43.692 133.06 43.5C132.436 43.324 132.012 43.188 131.788 43.092L132.196 41.172C132.452 41.268 132.86 41.412 133.42 41.604C133.98 41.796 134.724 41.892 135.652 41.892Z" fill="#FAFAFA"/>
<path d="M179.458 52.875L177.416 44.7084L173.333 38.5834V26.3334" stroke="#FAFAFA" stroke-width="3.8" stroke-linecap="round" stroke-linejoin="round"/>
<path d="M167.208 38.5833L165.166 32.4583L173.333 26.3333L179.458 30.4167L185.583 31.4375M171.291 44.7083L167.208 52.875M189.666 52.875V35.5208C189.666 34.7086 189.989 33.9296 190.563 33.3553C191.137 32.781 191.916 32.4583 192.729 32.4583C193.541 32.4583 194.32 32.781 194.894 33.3553C195.468 33.9296 195.791 34.7086 195.791 35.5208V36.5417M171.291 18.1667C171.291 18.7082 171.506 19.2275 171.889 19.6103C172.272 19.9932 172.791 20.2083 173.333 20.2083C173.874 20.2083 174.393 19.9932 174.776 19.6103C175.159 19.2275 175.374 18.7082 175.374 18.1667C175.374 17.6252 175.159 17.1059 174.776 16.723C174.393 16.3401 173.874 16.125 173.333 16.125C172.791 16.125 172.272 16.3401 171.889 16.723C171.506 17.1059 171.291 17.6252 171.291 18.1667Z" stroke="#FAFAFA" stroke-width="3.8" stroke-linecap="round" stroke-linejoin="round"/>
</svg>
