<svg width="220" height="69" viewBox="0 0 220 69" fill="none" xmlns="http://www.w3.org/2000/svg">
<rect x="0.5" y="0.5" width="219" height="68" rx="14.5" fill="#343434"/>
<rect x="0.5" y="0.5" width="219" height="68" rx="14.5" stroke="#343434"/>
<path d="M16.392 35.172C16.392 33.748 16.6 32.492 17.016 31.404C17.448 30.316 18.024 29.412 18.744 28.692C19.48 27.956 20.328 27.404 21.288 27.036C22.264 26.668 23.296 26.484 24.384 26.484C25.456 26.484 26.464 26.668 27.408 27.036C28.368 27.404 29.208 27.956 29.928 28.692C30.648 29.412 31.216 30.316 31.632 31.404C32.064 32.492 32.28 33.748 32.28 35.172C32.28 36.596 32.064 37.852 31.632 38.94C31.216 40.028 30.648 40.94 29.928 41.676C29.208 42.396 28.368 42.94 27.408 43.308C26.464 43.676 25.456 43.86 24.384 43.86C23.296 43.86 22.264 43.676 21.288 43.308C20.328 42.94 19.48 42.396 18.744 41.676C18.024 40.94 17.448 40.028 17.016 38.94C16.6 37.852 16.392 36.596 16.392 35.172ZM18.84 35.172C18.84 36.18 18.968 37.1 19.224 37.932C19.48 38.748 19.84 39.444 20.304 40.02C20.784 40.596 21.36 41.044 22.032 41.364C22.72 41.668 23.488 41.82 24.336 41.82C25.184 41.82 25.944 41.668 26.616 41.364C27.288 41.044 27.856 40.596 28.32 40.02C28.8 39.444 29.168 38.748 29.424 37.932C29.68 37.1 29.808 36.18 29.808 35.172C29.808 34.164 29.68 33.252 29.424 32.436C29.168 31.604 28.8 30.9 28.32 30.324C27.856 29.748 27.288 29.308 26.616 29.004C25.944 28.684 25.184 28.524 24.336 28.524C23.488 28.524 22.72 28.684 22.032 29.004C21.36 29.308 20.784 29.748 20.304 30.324C19.84 30.9 19.48 31.604 19.224 32.436C18.968 33.252 18.84 34.164 18.84 35.172ZM41.0237 43.788C40.0157 43.788 39.1277 43.628 38.3597 43.308C37.6077 42.988 36.9677 42.54 36.4397 41.964C35.9277 41.388 35.5437 40.708 35.2877 39.924C35.0317 39.124 34.9037 38.244 34.9037 37.284C34.9037 36.324 35.0397 35.444 35.3117 34.644C35.5997 33.844 35.9997 33.156 36.5117 32.58C37.0237 31.988 37.6477 31.532 38.3837 31.212C39.1357 30.876 39.9677 30.708 40.8797 30.708C41.4397 30.708 41.9997 30.756 42.5597 30.852C43.1197 30.948 43.6557 31.1 44.1677 31.308L43.6637 33.204C43.3277 33.044 42.9357 32.916 42.4877 32.82C42.0557 32.724 41.5917 32.676 41.0957 32.676C39.8477 32.676 38.8877 33.068 38.2157 33.852C37.5597 34.636 37.2317 35.78 37.2317 37.284C37.2317 37.956 37.3037 38.572 37.4477 39.132C37.6077 39.692 37.8477 40.172 38.1677 40.572C38.5037 40.972 38.9277 41.284 39.4397 41.508C39.9517 41.716 40.5757 41.82 41.3117 41.82C41.9037 41.82 42.4397 41.764 42.9197 41.652C43.3997 41.54 43.7757 41.42 44.0477 41.292L44.3597 43.164C44.2317 43.244 44.0477 43.324 43.8077 43.404C43.5677 43.468 43.2957 43.524 42.9917 43.572C42.6877 43.636 42.3597 43.684 42.0077 43.716C41.6717 43.764 41.3437 43.788 41.0237 43.788ZM52.1799 43.788C51.1719 43.788 50.2839 43.628 49.5159 43.308C48.7639 42.988 48.1239 42.54 47.5959 41.964C47.0839 41.388 46.6999 40.708 46.4439 39.924C46.1879 39.124 46.0599 38.244 46.0599 37.284C46.0599 36.324 46.1959 35.444 46.4679 34.644C46.7559 33.844 47.1559 33.156 47.6679 32.58C48.1799 31.988 48.8039 31.532 49.5399 31.212C50.2919 30.876 51.1239 30.708 52.0359 30.708C52.5959 30.708 53.1559 30.756 53.7159 30.852C54.2759 30.948 54.8119 31.1 55.3239 31.308L54.8199 33.204C54.4839 33.044 54.0919 32.916 53.6439 32.82C53.2119 32.724 52.7479 32.676 52.2519 32.676C51.0039 32.676 50.0439 33.068 49.3719 33.852C48.7159 34.636 48.3879 35.78 48.3879 37.284C48.3879 37.956 48.4599 38.572 48.6039 39.132C48.7639 39.692 49.0039 40.172 49.3239 40.572C49.6599 40.972 50.0839 41.284 50.5959 41.508C51.1079 41.716 51.7319 41.82 52.4679 41.82C53.0599 41.82 53.5959 41.764 54.0759 41.652C54.5559 41.54 54.9319 41.42 55.2039 41.292L55.5159 43.164C55.3879 43.244 55.2039 43.324 54.9639 43.404C54.7239 43.468 54.4519 43.524 54.1479 43.572C53.8439 43.636 53.5159 43.684 53.1639 43.716C52.8279 43.764 52.4999 43.788 52.1799 43.788ZM67.8482 43.14C67.3362 43.268 66.6562 43.404 65.8082 43.548C64.9762 43.692 64.0082 43.764 62.9042 43.764C61.9442 43.764 61.1362 43.628 60.4802 43.356C59.8242 43.068 59.2962 42.668 58.8962 42.156C58.4962 41.644 58.2082 41.044 58.0322 40.356C57.8562 39.652 57.7682 38.876 57.7682 38.028V31.02H60.0002V37.548C60.0002 39.068 60.2402 40.156 60.7202 40.812C61.2002 41.468 62.0082 41.796 63.1442 41.796C63.3842 41.796 63.6322 41.788 63.8882 41.772C64.1442 41.756 64.3842 41.74 64.6082 41.724C64.8322 41.692 65.0322 41.668 65.2082 41.652C65.4002 41.62 65.5362 41.588 65.6162 41.556V31.02H67.8482V43.14ZM80.3574 37.284C80.3574 35.828 79.9974 34.708 79.2774 33.924C78.5574 33.14 77.5974 32.748 76.3974 32.748C75.7254 32.748 75.1974 32.772 74.8134 32.82C74.4454 32.868 74.1494 32.924 73.9254 32.988V40.86C74.1974 41.084 74.5894 41.3 75.1014 41.508C75.6134 41.716 76.1734 41.82 76.7814 41.82C77.4214 41.82 77.9654 41.708 78.4134 41.484C78.8774 41.244 79.2534 40.924 79.5414 40.524C79.8294 40.108 80.0374 39.628 80.1654 39.084C80.2934 38.524 80.3574 37.924 80.3574 37.284ZM82.6854 37.284C82.6854 38.228 82.5574 39.1 82.3014 39.9C82.0614 40.7 81.7014 41.388 81.2214 41.964C80.7414 42.54 80.1494 42.988 79.4454 43.308C78.7574 43.628 77.9654 43.788 77.0694 43.788C76.3494 43.788 75.7094 43.692 75.1494 43.5C74.6054 43.308 74.1974 43.124 73.9254 42.948V47.94H71.6934V31.404C72.2214 31.276 72.8774 31.14 73.6614 30.996C74.4614 30.836 75.3814 30.756 76.4214 30.756C77.3814 30.756 78.2454 30.908 79.0134 31.212C79.7814 31.516 80.4374 31.948 80.9814 32.508C81.5254 33.068 81.9414 33.756 82.2294 34.572C82.5334 35.372 82.6854 36.276 82.6854 37.284ZM90.0503 41.892C90.5783 41.892 91.0423 41.884 91.4423 41.868C91.8583 41.836 92.2023 41.788 92.4743 41.724V38.004C92.3143 37.924 92.0503 37.86 91.6823 37.812C91.3303 37.748 90.8983 37.716 90.3863 37.716C90.0503 37.716 89.6903 37.74 89.3063 37.788C88.9383 37.836 88.5943 37.94 88.2743 38.1C87.9703 38.244 87.7143 38.452 87.5063 38.724C87.2983 38.98 87.1943 39.324 87.1943 39.756C87.1943 40.556 87.4503 41.116 87.9623 41.436C88.4743 41.74 89.1703 41.892 90.0503 41.892ZM89.8583 30.708C90.7543 30.708 91.5063 30.828 92.1143 31.068C92.7383 31.292 93.2343 31.62 93.6023 32.052C93.9863 32.468 94.2583 32.972 94.4183 33.564C94.5783 34.14 94.6583 34.78 94.6583 35.484V43.284C94.4663 43.316 94.1943 43.364 93.8423 43.428C93.5063 43.476 93.1223 43.524 92.6903 43.572C92.2583 43.62 91.7863 43.66 91.2743 43.692C90.7783 43.74 90.2823 43.764 89.7863 43.764C89.0823 43.764 88.4343 43.692 87.8423 43.548C87.2503 43.404 86.7383 43.18 86.3063 42.876C85.8743 42.556 85.5383 42.14 85.2983 41.628C85.0583 41.116 84.9383 40.5 84.9383 39.78C84.9383 39.092 85.0743 38.5 85.3463 38.004C85.6343 37.508 86.0183 37.108 86.4983 36.804C86.9783 36.5 87.5383 36.276 88.1783 36.132C88.8183 35.988 89.4903 35.916 90.1943 35.916C90.4183 35.916 90.6503 35.932 90.8903 35.964C91.1303 35.98 91.3543 36.012 91.5623 36.06C91.7863 36.092 91.9783 36.124 92.1383 36.156C92.2983 36.188 92.4103 36.212 92.4743 36.228V35.604C92.4743 35.236 92.4343 34.876 92.3543 34.524C92.2743 34.156 92.1303 33.836 91.9223 33.564C91.7143 33.276 91.4263 33.052 91.0583 32.892C90.7063 32.716 90.2423 32.628 89.6663 32.628C88.9303 32.628 88.2823 32.684 87.7223 32.796C87.1783 32.892 86.7703 32.996 86.4983 33.108L86.2343 31.26C86.5223 31.132 87.0023 31.012 87.6743 30.9C88.3463 30.772 89.0743 30.708 89.8583 30.708ZM100.453 31.02H105.181V32.892H100.453V38.652C100.453 39.276 100.501 39.796 100.597 40.212C100.693 40.612 100.837 40.932 101.029 41.172C101.221 41.396 101.461 41.556 101.749 41.652C102.037 41.748 102.373 41.796 102.757 41.796C103.429 41.796 103.965 41.724 104.365 41.58C104.781 41.42 105.069 41.308 105.229 41.244L105.661 43.092C105.437 43.204 105.045 43.34 104.485 43.5C103.925 43.676 103.285 43.764 102.565 43.764C101.717 43.764 101.013 43.66 100.453 43.452C99.9093 43.228 99.4693 42.9 99.1333 42.468C98.7973 42.036 98.5573 41.508 98.4133 40.884C98.2853 40.244 98.2213 39.508 98.2213 38.676V27.54L100.453 27.156V31.02ZM110.254 43.5H108.022V31.02H110.254V43.5ZM109.126 28.764C108.726 28.764 108.382 28.636 108.094 28.38C107.822 28.108 107.686 27.748 107.686 27.3C107.686 26.852 107.822 26.5 108.094 26.244C108.382 25.972 108.726 25.836 109.126 25.836C109.526 25.836 109.862 25.972 110.134 26.244C110.422 26.5 110.566 26.852 110.566 27.3C110.566 27.748 110.422 28.108 110.134 28.38C109.862 28.636 109.526 28.764 109.126 28.764ZM125.108 37.26C125.108 38.252 124.964 39.148 124.676 39.948C124.388 40.748 123.98 41.436 123.452 42.012C122.94 42.588 122.324 43.036 121.604 43.356C120.884 43.66 120.1 43.812 119.252 43.812C118.404 43.812 117.62 43.66 116.9 43.356C116.18 43.036 115.556 42.588 115.028 42.012C114.516 41.436 114.116 40.748 113.828 39.948C113.54 39.148 113.396 38.252 113.396 37.26C113.396 36.284 113.54 35.396 113.828 34.596C114.116 33.78 114.516 33.084 115.028 32.508C115.556 31.932 116.18 31.492 116.9 31.188C117.62 30.868 118.404 30.708 119.252 30.708C120.1 30.708 120.884 30.868 121.604 31.188C122.324 31.492 122.94 31.932 123.452 32.508C123.98 33.084 124.388 33.78 124.676 34.596C124.964 35.396 125.108 36.284 125.108 37.26ZM122.78 37.26C122.78 35.852 122.46 34.74 121.82 33.924C121.196 33.092 120.34 32.676 119.252 32.676C118.164 32.676 117.3 33.092 116.66 33.924C116.036 34.74 115.724 35.852 115.724 37.26C115.724 38.668 116.036 39.788 116.66 40.62C117.3 41.436 118.164 41.844 119.252 41.844C120.34 41.844 121.196 41.436 121.82 40.62C122.46 39.788 122.78 38.668 122.78 37.26ZM128.248 31.38C128.76 31.252 129.44 31.116 130.288 30.972C131.136 30.828 132.112 30.756 133.216 30.756C134.208 30.756 135.032 30.9 135.688 31.188C136.344 31.46 136.864 31.852 137.248 32.364C137.648 32.86 137.928 33.46 138.088 34.164C138.248 34.868 138.328 35.644 138.328 36.492V43.5H136.096V36.972C136.096 36.204 136.04 35.548 135.928 35.004C135.832 34.46 135.664 34.02 135.424 33.684C135.184 33.348 134.864 33.108 134.464 32.964C134.064 32.804 133.568 32.724 132.976 32.724C132.736 32.724 132.488 32.732 132.232 32.748C131.976 32.764 131.728 32.788 131.488 32.82C131.264 32.836 131.056 32.86 130.864 32.892C130.688 32.924 130.56 32.948 130.48 32.964V43.5H128.248V31.38Z" fill="#FAFAFA"/>
<path d="M164.167 52.875C163.044 52.875 162.083 52.4756 161.284 51.6766C160.486 50.8776 160.085 49.916 160.084 48.7917V26.3334C160.084 25.2105 160.484 24.2495 161.284 23.4505C162.085 22.6516 163.046 22.2514 164.167 22.25H172.334V18.1667C172.334 17.0438 172.734 16.0828 173.534 15.2839C174.335 14.4849 175.296 14.0847 176.417 14.0834H184.584C185.707 14.0834 186.669 14.4835 187.469 15.2839C188.269 16.0842 188.669 17.0452 188.667 18.1667V22.25H196.834C197.957 22.25 198.919 22.6502 199.719 23.4505C200.519 24.2509 200.919 25.2118 200.917 26.3334V35.0615C200.305 34.6191 199.658 34.2367 198.978 33.9141C198.297 33.5915 197.583 33.3104 196.834 33.0709V26.3334H164.167V48.7917H178.612C178.714 49.5063 178.867 50.2039 179.071 50.8844C179.276 51.565 179.531 52.2285 179.837 52.875H164.167ZM176.417 22.25H184.584V18.1667H176.417V22.25ZM192.751 56.9584C189.926 56.9584 187.519 55.9627 185.529 53.9714C183.539 51.9801 182.544 49.573 182.542 46.75C182.541 43.9271 183.537 41.52 185.529 39.5287C187.522 37.5374 189.929 36.5417 192.751 36.5417C195.572 36.5417 197.98 37.5374 199.974 39.5287C201.968 41.52 202.963 43.9271 202.959 46.75C202.955 49.573 201.959 51.9808 199.972 53.9735C197.985 55.9661 195.578 56.9611 192.751 56.9584ZM193.771 46.3417V40.625H191.73V47.1584L196.119 51.548L197.549 50.1188L193.771 46.3417Z" fill="#FAFAFA"/>
</svg>
