<svg width="402" height="73" viewBox="0 0 402 73" fill="none" xmlns="http://www.w3.org/2000/svg">
<rect width="402" height="73" rx="15" fill="#FF9500"/>
<path d="M29.928 43.844C32.36 43.844 33.576 43.012 33.576 41.348C33.576 40.836 33.464 40.404 33.24 40.052C33.032 39.684 32.744 39.372 32.376 39.116C32.008 38.844 31.584 38.612 31.104 38.42C30.64 38.228 30.144 38.036 29.616 37.844C29.008 37.636 28.432 37.404 27.888 37.148C27.344 36.876 26.872 36.564 26.472 36.212C26.072 35.844 25.752 35.412 25.512 34.916C25.288 34.42 25.176 33.82 25.176 33.116C25.176 31.66 25.672 30.524 26.664 29.708C27.656 28.892 29.024 28.484 30.768 28.484C31.776 28.484 32.688 28.596 33.504 28.82C34.336 29.028 34.944 29.26 35.328 29.516L34.584 31.412C34.248 31.204 33.744 31.004 33.072 30.812C32.416 30.604 31.648 30.5 30.768 30.5C30.32 30.5 29.904 30.548 29.52 30.644C29.136 30.74 28.8 30.884 28.512 31.076C28.224 31.268 27.992 31.516 27.816 31.82C27.656 32.108 27.576 32.452 27.576 32.852C27.576 33.3 27.664 33.676 27.84 33.98C28.016 34.284 28.264 34.556 28.584 34.796C28.904 35.02 29.272 35.228 29.688 35.42C30.12 35.612 30.592 35.804 31.104 35.996C31.824 36.284 32.48 36.572 33.072 36.86C33.68 37.148 34.2 37.492 34.632 37.892C35.08 38.292 35.424 38.772 35.664 39.332C35.904 39.876 36.024 40.54 36.024 41.324C36.024 42.78 35.488 43.9 34.416 44.684C33.36 45.468 31.864 45.86 29.928 45.86C29.272 45.86 28.664 45.812 28.104 45.716C27.56 45.636 27.072 45.54 26.64 45.428C26.208 45.3 25.832 45.172 25.512 45.044C25.208 44.9 24.968 44.78 24.792 44.684L25.488 42.764C25.856 42.972 26.416 43.204 27.168 43.46C27.92 43.716 28.84 43.844 29.928 43.844ZM40.7814 33.02H45.5094V34.892H40.7814V40.652C40.7814 41.276 40.8294 41.796 40.9254 42.212C41.0214 42.612 41.1654 42.932 41.3574 43.172C41.5494 43.396 41.7894 43.556 42.0774 43.652C42.3654 43.748 42.7014 43.796 43.0854 43.796C43.7574 43.796 44.2934 43.724 44.6934 43.58C45.1094 43.42 45.3974 43.308 45.5574 43.244L45.9894 45.092C45.7654 45.204 45.3734 45.34 44.8134 45.5C44.2534 45.676 43.6134 45.764 42.8934 45.764C42.0454 45.764 41.3414 45.66 40.7814 45.452C40.2374 45.228 39.7974 44.9 39.4614 44.468C39.1254 44.036 38.8854 43.508 38.7414 42.884C38.6134 42.244 38.5494 41.508 38.5494 40.676V29.54L40.7814 29.156V33.02ZM52.5737 43.892C53.1017 43.892 53.5657 43.884 53.9657 43.868C54.3817 43.836 54.7257 43.788 54.9977 43.724V40.004C54.8377 39.924 54.5737 39.86 54.2057 39.812C53.8537 39.748 53.4217 39.716 52.9097 39.716C52.5737 39.716 52.2137 39.74 51.8297 39.788C51.4617 39.836 51.1177 39.94 50.7977 40.1C50.4937 40.244 50.2377 40.452 50.0297 40.724C49.8217 40.98 49.7177 41.324 49.7177 41.756C49.7177 42.556 49.9737 43.116 50.4857 43.436C50.9977 43.74 51.6937 43.892 52.5737 43.892ZM52.3817 32.708C53.2777 32.708 54.0297 32.828 54.6377 33.068C55.2617 33.292 55.7577 33.62 56.1257 34.052C56.5097 34.468 56.7817 34.972 56.9417 35.564C57.1017 36.14 57.1817 36.78 57.1817 37.484V45.284C56.9897 45.316 56.7177 45.364 56.3657 45.428C56.0297 45.476 55.6457 45.524 55.2137 45.572C54.7817 45.62 54.3097 45.66 53.7977 45.692C53.3017 45.74 52.8057 45.764 52.3097 45.764C51.6057 45.764 50.9577 45.692 50.3657 45.548C49.7737 45.404 49.2617 45.18 48.8297 44.876C48.3977 44.556 48.0617 44.14 47.8217 43.628C47.5817 43.116 47.4617 42.5 47.4617 41.78C47.4617 41.092 47.5977 40.5 47.8697 40.004C48.1577 39.508 48.5417 39.108 49.0217 38.804C49.5017 38.5 50.0617 38.276 50.7017 38.132C51.3417 37.988 52.0137 37.916 52.7177 37.916C52.9417 37.916 53.1737 37.932 53.4137 37.964C53.6537 37.98 53.8777 38.012 54.0857 38.06C54.3097 38.092 54.5017 38.124 54.6617 38.156C54.8217 38.188 54.9337 38.212 54.9977 38.228V37.604C54.9977 37.236 54.9577 36.876 54.8777 36.524C54.7977 36.156 54.6537 35.836 54.4457 35.564C54.2377 35.276 53.9497 35.052 53.5817 34.892C53.2297 34.716 52.7657 34.628 52.1897 34.628C51.4537 34.628 50.8057 34.684 50.2457 34.796C49.7017 34.892 49.2937 34.996 49.0217 35.108L48.7577 33.26C49.0457 33.132 49.5257 33.012 50.1977 32.9C50.8697 32.772 51.5977 32.708 52.3817 32.708ZM65.4968 32.756C65.6888 32.756 65.9048 32.772 66.1448 32.804C66.4008 32.82 66.6488 32.852 66.8888 32.9C67.1288 32.932 67.3448 32.972 67.5368 33.02C67.7448 33.052 67.8968 33.084 67.9928 33.116L67.6088 35.06C67.4328 34.996 67.1368 34.924 66.7208 34.844C66.3208 34.748 65.8008 34.7 65.1608 34.7C64.7448 34.7 64.3288 34.748 63.9128 34.844C63.5128 34.924 63.2488 34.98 63.1208 35.012V45.5H60.8888V33.548C61.4168 33.356 62.0728 33.18 62.8568 33.02C63.6408 32.844 64.5208 32.756 65.4968 32.756ZM72.2346 33.02H76.9626V34.892H72.2346V40.652C72.2346 41.276 72.2826 41.796 72.3786 42.212C72.4746 42.612 72.6186 42.932 72.8106 43.172C73.0026 43.396 73.2426 43.556 73.5306 43.652C73.8186 43.748 74.1546 43.796 74.5386 43.796C75.2106 43.796 75.7466 43.724 76.1466 43.58C76.5626 43.42 76.8506 43.308 77.0106 43.244L77.4426 45.092C77.2186 45.204 76.8266 45.34 76.2666 45.5C75.7066 45.676 75.0666 45.764 74.3466 45.764C73.4986 45.764 72.7946 45.66 72.2346 45.452C71.6906 45.228 71.2506 44.9 70.9146 44.468C70.5786 44.036 70.3386 43.508 70.1946 42.884C70.0666 42.244 70.0026 41.508 70.0026 40.676V29.54L72.2346 29.156V33.02ZM95.5575 45.5C95.1095 44.348 94.6295 43.036 94.1175 41.564C93.6215 40.076 93.1655 38.532 92.7495 36.932C92.3335 38.532 91.8775 40.076 91.3815 41.564C90.8855 43.036 90.4135 44.348 89.9655 45.5H88.0215C87.2855 43.852 86.5655 41.972 85.8615 39.86C85.1575 37.748 84.4935 35.468 83.8695 33.02H86.2695C86.4295 33.772 86.6215 34.588 86.8455 35.468C87.0695 36.348 87.3015 37.228 87.5415 38.108C87.7975 38.988 88.0615 39.836 88.3335 40.652C88.6055 41.468 88.8615 42.18 89.1015 42.788C89.3735 42.036 89.6375 41.244 89.8935 40.412C90.1655 39.564 90.4215 38.716 90.6615 37.868C90.9015 37.004 91.1255 36.164 91.3335 35.348C91.5575 34.516 91.7495 33.74 91.9095 33.02H93.7575C93.9015 33.74 94.0775 34.516 94.2855 35.348C94.4935 36.164 94.7175 37.004 94.9575 37.868C95.1975 38.716 95.4455 39.564 95.7015 40.412C95.9735 41.244 96.2455 42.036 96.5175 42.788C96.7575 42.18 97.0055 41.468 97.2615 40.652C97.5335 39.836 97.7975 38.988 98.0535 38.108C98.3095 37.228 98.5495 36.348 98.7735 35.468C98.9975 34.588 99.1895 33.772 99.3495 33.02H101.654C101.03 35.468 100.366 37.748 99.6615 39.86C98.9575 41.972 98.2375 43.852 97.5015 45.5H95.5575ZM106.246 45.5H104.014V33.02H106.246V45.5ZM105.118 30.764C104.718 30.764 104.374 30.636 104.086 30.38C103.814 30.108 103.678 29.748 103.678 29.3C103.678 28.852 103.814 28.5 104.086 28.244C104.374 27.972 104.718 27.836 105.118 27.836C105.518 27.836 105.854 27.972 106.126 28.244C106.414 28.5 106.558 28.852 106.558 29.3C106.558 29.748 106.414 30.108 106.126 30.38C105.854 30.636 105.518 30.764 105.118 30.764ZM112.172 33.02H116.9V34.892H112.172V40.652C112.172 41.276 112.22 41.796 112.316 42.212C112.412 42.612 112.556 42.932 112.748 43.172C112.94 43.396 113.18 43.556 113.468 43.652C113.756 43.748 114.092 43.796 114.476 43.796C115.148 43.796 115.684 43.724 116.084 43.58C116.5 43.42 116.788 43.308 116.948 43.244L117.38 45.092C117.156 45.204 116.764 45.34 116.204 45.5C115.644 45.676 115.004 45.764 114.284 45.764C113.436 45.764 112.732 45.66 112.172 45.452C111.628 45.228 111.188 44.9 110.852 44.468C110.516 44.036 110.276 43.508 110.132 42.884C110.004 42.244 109.94 41.508 109.94 40.676V29.54L112.172 29.156V33.02ZM119.74 45.5V27.26L121.972 26.876V33.26C122.388 33.1 122.828 32.98 123.292 32.9C123.772 32.804 124.244 32.756 124.708 32.756C125.7 32.756 126.524 32.9 127.18 33.188C127.836 33.46 128.356 33.852 128.74 34.364C129.14 34.86 129.42 35.46 129.58 36.164C129.74 36.868 129.82 37.644 129.82 38.492V45.5H127.588V38.972C127.588 38.204 127.532 37.548 127.42 37.004C127.324 36.46 127.156 36.02 126.916 35.684C126.676 35.348 126.356 35.108 125.956 34.964C125.556 34.804 125.06 34.724 124.468 34.724C124.228 34.724 123.98 34.74 123.724 34.772C123.468 34.804 123.22 34.844 122.98 34.892C122.756 34.924 122.548 34.964 122.356 35.012C122.18 35.06 122.052 35.1 121.972 35.132V45.5H119.74ZM143.23 43.892C143.758 43.892 144.222 43.884 144.622 43.868C145.038 43.836 145.382 43.788 145.654 43.724V40.004C145.494 39.924 145.23 39.86 144.862 39.812C144.51 39.748 144.078 39.716 143.566 39.716C143.23 39.716 142.87 39.74 142.486 39.788C142.118 39.836 141.774 39.94 141.454 40.1C141.15 40.244 140.894 40.452 140.686 40.724C140.478 40.98 140.374 41.324 140.374 41.756C140.374 42.556 140.63 43.116 141.142 43.436C141.654 43.74 142.35 43.892 143.23 43.892ZM143.038 32.708C143.934 32.708 144.686 32.828 145.294 33.068C145.918 33.292 146.414 33.62 146.782 34.052C147.166 34.468 147.438 34.972 147.598 35.564C147.758 36.14 147.838 36.78 147.838 37.484V45.284C147.646 45.316 147.374 45.364 147.022 45.428C146.686 45.476 146.302 45.524 145.87 45.572C145.438 45.62 144.966 45.66 144.454 45.692C143.958 45.74 143.462 45.764 142.966 45.764C142.262 45.764 141.614 45.692 141.022 45.548C140.43 45.404 139.918 45.18 139.486 44.876C139.054 44.556 138.718 44.14 138.478 43.628C138.238 43.116 138.118 42.5 138.118 41.78C138.118 41.092 138.254 40.5 138.526 40.004C138.814 39.508 139.198 39.108 139.678 38.804C140.158 38.5 140.718 38.276 141.358 38.132C141.998 37.988 142.67 37.916 143.374 37.916C143.598 37.916 143.83 37.932 144.07 37.964C144.31 37.98 144.534 38.012 144.742 38.06C144.966 38.092 145.158 38.124 145.318 38.156C145.478 38.188 145.59 38.212 145.654 38.228V37.604C145.654 37.236 145.614 36.876 145.534 36.524C145.454 36.156 145.31 35.836 145.102 35.564C144.894 35.276 144.606 35.052 144.238 34.892C143.886 34.716 143.422 34.628 142.846 34.628C142.11 34.628 141.462 34.684 140.902 34.796C140.358 34.892 139.95 34.996 139.678 35.108L139.414 33.26C139.702 33.132 140.182 33.012 140.854 32.9C141.526 32.772 142.254 32.708 143.038 32.708ZM161.708 32.756C161.9 32.756 162.116 32.772 162.356 32.804C162.612 32.82 162.86 32.852 163.1 32.9C163.34 32.932 163.556 32.972 163.748 33.02C163.956 33.052 164.108 33.084 164.204 33.116L163.82 35.06C163.644 34.996 163.348 34.924 162.932 34.844C162.532 34.748 162.012 34.7 161.372 34.7C160.956 34.7 160.54 34.748 160.124 34.844C159.724 34.924 159.46 34.98 159.332 35.012V45.5H157.1V33.548C157.628 33.356 158.284 33.18 159.068 33.02C159.852 32.844 160.732 32.756 161.708 32.756ZM170.582 43.892C171.11 43.892 171.574 43.884 171.974 43.868C172.39 43.836 172.734 43.788 173.006 43.724V40.004C172.846 39.924 172.582 39.86 172.214 39.812C171.862 39.748 171.43 39.716 170.918 39.716C170.582 39.716 170.222 39.74 169.838 39.788C169.47 39.836 169.126 39.94 168.806 40.1C168.502 40.244 168.246 40.452 168.038 40.724C167.83 40.98 167.726 41.324 167.726 41.756C167.726 42.556 167.982 43.116 168.494 43.436C169.006 43.74 169.702 43.892 170.582 43.892ZM170.39 32.708C171.286 32.708 172.038 32.828 172.646 33.068C173.27 33.292 173.766 33.62 174.134 34.052C174.518 34.468 174.79 34.972 174.95 35.564C175.11 36.14 175.19 36.78 175.19 37.484V45.284C174.998 45.316 174.726 45.364 174.374 45.428C174.038 45.476 173.654 45.524 173.222 45.572C172.79 45.62 172.318 45.66 171.806 45.692C171.31 45.74 170.814 45.764 170.318 45.764C169.614 45.764 168.966 45.692 168.374 45.548C167.782 45.404 167.27 45.18 166.838 44.876C166.406 44.556 166.07 44.14 165.83 43.628C165.59 43.116 165.47 42.5 165.47 41.78C165.47 41.092 165.606 40.5 165.878 40.004C166.166 39.508 166.55 39.108 167.03 38.804C167.51 38.5 168.07 38.276 168.71 38.132C169.35 37.988 170.022 37.916 170.726 37.916C170.95 37.916 171.182 37.932 171.422 37.964C171.662 37.98 171.886 38.012 172.094 38.06C172.318 38.092 172.51 38.124 172.67 38.156C172.83 38.188 172.942 38.212 173.006 38.228V37.604C173.006 37.236 172.966 36.876 172.886 36.524C172.806 36.156 172.662 35.836 172.454 35.564C172.246 35.276 171.958 35.052 171.59 34.892C171.238 34.716 170.774 34.628 170.198 34.628C169.462 34.628 168.814 34.684 168.254 34.796C167.71 34.892 167.302 34.996 167.03 35.108L166.766 33.26C167.054 33.132 167.534 33.012 168.206 32.9C168.878 32.772 169.606 32.708 170.39 32.708ZM178.897 33.38C179.409 33.252 180.089 33.116 180.937 32.972C181.785 32.828 182.761 32.756 183.865 32.756C184.857 32.756 185.681 32.9 186.337 33.188C186.993 33.46 187.513 33.852 187.897 34.364C188.297 34.86 188.577 35.46 188.737 36.164C188.897 36.868 188.977 37.644 188.977 38.492V45.5H186.745V38.972C186.745 38.204 186.689 37.548 186.577 37.004C186.481 36.46 186.313 36.02 186.073 35.684C185.833 35.348 185.513 35.108 185.113 34.964C184.713 34.804 184.217 34.724 183.625 34.724C183.385 34.724 183.137 34.732 182.881 34.748C182.625 34.764 182.377 34.788 182.137 34.82C181.913 34.836 181.705 34.86 181.513 34.892C181.337 34.924 181.209 34.948 181.129 34.964V45.5H178.897V33.38ZM200.742 35.66C200.47 35.436 200.078 35.22 199.566 35.012C199.054 34.804 198.494 34.7 197.886 34.7C197.246 34.7 196.694 34.82 196.23 35.06C195.782 35.284 195.414 35.604 195.126 36.02C194.838 36.42 194.63 36.9 194.502 37.46C194.374 38.02 194.31 38.62 194.31 39.26C194.31 40.716 194.67 41.844 195.39 42.644C196.11 43.428 197.07 43.82 198.27 43.82C198.878 43.82 199.382 43.796 199.782 43.748C200.198 43.684 200.518 43.62 200.742 43.556V35.66ZM200.742 27.26L202.974 26.876V45.14C202.462 45.284 201.806 45.428 201.006 45.572C200.206 45.716 199.286 45.788 198.246 45.788C197.286 45.788 196.422 45.636 195.654 45.332C194.886 45.028 194.23 44.596 193.686 44.036C193.142 43.476 192.718 42.796 192.414 41.996C192.126 41.18 191.982 40.268 191.982 39.26C191.982 38.3 192.102 37.42 192.342 36.62C192.598 35.82 192.966 35.132 193.446 34.556C193.926 33.98 194.51 33.532 195.198 33.212C195.902 32.892 196.702 32.732 197.598 32.732C198.318 32.732 198.95 32.828 199.494 33.02C200.054 33.212 200.47 33.396 200.742 33.572V27.26ZM217.827 39.26C217.827 40.252 217.683 41.148 217.395 41.948C217.107 42.748 216.699 43.436 216.171 44.012C215.659 44.588 215.043 45.036 214.323 45.356C213.603 45.66 212.819 45.812 211.971 45.812C211.123 45.812 210.339 45.66 209.619 45.356C208.899 45.036 208.275 44.588 207.747 44.012C207.235 43.436 206.835 42.748 206.547 41.948C206.259 41.148 206.115 40.252 206.115 39.26C206.115 38.284 206.259 37.396 206.547 36.596C206.835 35.78 207.235 35.084 207.747 34.508C208.275 33.932 208.899 33.492 209.619 33.188C210.339 32.868 211.123 32.708 211.971 32.708C212.819 32.708 213.603 32.868 214.323 33.188C215.043 33.492 215.659 33.932 216.171 34.508C216.699 35.084 217.107 35.78 217.395 36.596C217.683 37.396 217.827 38.284 217.827 39.26ZM215.499 39.26C215.499 37.852 215.179 36.74 214.539 35.924C213.915 35.092 213.059 34.676 211.971 34.676C210.883 34.676 210.019 35.092 209.379 35.924C208.755 36.74 208.443 37.852 208.443 39.26C208.443 40.668 208.755 41.788 209.379 42.62C210.019 43.436 210.883 43.844 211.971 43.844C213.059 43.844 213.915 43.436 214.539 42.62C215.179 41.788 215.499 40.668 215.499 39.26ZM220.967 33.38C221.479 33.252 222.151 33.116 222.983 32.972C223.831 32.828 224.807 32.756 225.911 32.756C226.711 32.756 227.383 32.868 227.927 33.092C228.471 33.3 228.927 33.612 229.295 34.028C229.407 33.948 229.583 33.836 229.823 33.692C230.063 33.548 230.359 33.412 230.711 33.284C231.063 33.14 231.455 33.02 231.887 32.924C232.319 32.812 232.783 32.756 233.279 32.756C234.239 32.756 235.023 32.9 235.631 33.188C236.239 33.46 236.711 33.852 237.047 34.364C237.399 34.876 237.631 35.484 237.743 36.188C237.871 36.892 237.935 37.66 237.935 38.492V45.5H235.703V38.972C235.703 38.236 235.663 37.604 235.583 37.076C235.519 36.548 235.383 36.108 235.175 35.756C234.983 35.404 234.711 35.148 234.359 34.988C234.023 34.812 233.583 34.724 233.039 34.724C232.287 34.724 231.663 34.828 231.167 35.036C230.687 35.228 230.359 35.404 230.183 35.564C230.311 35.98 230.407 36.436 230.471 36.932C230.535 37.428 230.567 37.948 230.567 38.492V45.5H228.335V38.972C228.335 38.236 228.295 37.604 228.215 37.076C228.135 36.548 227.991 36.108 227.783 35.756C227.591 35.404 227.319 35.148 226.967 34.988C226.631 34.812 226.199 34.724 225.671 34.724C225.447 34.724 225.207 34.732 224.951 34.748C224.695 34.764 224.447 34.788 224.207 34.82C223.983 34.836 223.775 34.86 223.583 34.892C223.391 34.924 223.263 34.948 223.199 34.964V45.5H220.967V33.38ZM255.857 39.284C255.857 37.828 255.497 36.708 254.777 35.924C254.057 35.14 253.097 34.748 251.897 34.748C251.225 34.748 250.697 34.772 250.313 34.82C249.945 34.868 249.649 34.924 249.425 34.988V42.86C249.697 43.084 250.089 43.3 250.601 43.508C251.113 43.716 251.673 43.82 252.281 43.82C252.921 43.82 253.465 43.708 253.913 43.484C254.377 43.244 254.753 42.924 255.041 42.524C255.329 42.108 255.537 41.628 255.665 41.084C255.793 40.524 255.857 39.924 255.857 39.284ZM258.185 39.284C258.185 40.228 258.057 41.1 257.801 41.9C257.561 42.7 257.201 43.388 256.721 43.964C256.241 44.54 255.649 44.988 254.945 45.308C254.257 45.628 253.465 45.788 252.569 45.788C251.849 45.788 251.209 45.692 250.649 45.5C250.105 45.308 249.697 45.124 249.425 44.948V49.94H247.193V33.404C247.721 33.276 248.377 33.14 249.161 32.996C249.961 32.836 250.881 32.756 251.921 32.756C252.881 32.756 253.745 32.908 254.513 33.212C255.281 33.516 255.937 33.948 256.481 34.508C257.025 35.068 257.441 35.756 257.729 36.572C258.033 37.372 258.185 38.276 258.185 39.284ZM265.934 32.756C266.126 32.756 266.342 32.772 266.582 32.804C266.838 32.82 267.086 32.852 267.326 32.9C267.566 32.932 267.782 32.972 267.974 33.02C268.182 33.052 268.334 33.084 268.43 33.116L268.046 35.06C267.87 34.996 267.574 34.924 267.158 34.844C266.758 34.748 266.238 34.7 265.598 34.7C265.182 34.7 264.766 34.748 264.35 34.844C263.95 34.924 263.686 34.98 263.558 35.012V45.5H261.326V33.548C261.854 33.356 262.51 33.18 263.294 33.02C264.078 32.844 264.958 32.756 265.934 32.756ZM281.6 39.26C281.6 40.252 281.456 41.148 281.168 41.948C280.88 42.748 280.472 43.436 279.944 44.012C279.432 44.588 278.816 45.036 278.096 45.356C277.376 45.66 276.592 45.812 275.744 45.812C274.896 45.812 274.112 45.66 273.392 45.356C272.672 45.036 272.048 44.588 271.52 44.012C271.008 43.436 270.608 42.748 270.32 41.948C270.032 41.148 269.888 40.252 269.888 39.26C269.888 38.284 270.032 37.396 270.32 36.596C270.608 35.78 271.008 35.084 271.52 34.508C272.048 33.932 272.672 33.492 273.392 33.188C274.112 32.868 274.896 32.708 275.744 32.708C276.592 32.708 277.376 32.868 278.096 33.188C278.816 33.492 279.432 33.932 279.944 34.508C280.472 35.084 280.88 35.78 281.168 36.596C281.456 37.396 281.6 38.284 281.6 39.26ZM279.272 39.26C279.272 37.852 278.952 36.74 278.312 35.924C277.688 35.092 276.832 34.676 275.744 34.676C274.656 34.676 273.792 35.092 273.152 35.924C272.528 36.74 272.216 37.852 272.216 39.26C272.216 40.668 272.528 41.788 273.152 42.62C273.792 43.436 274.656 43.844 275.744 43.844C276.832 43.844 277.688 43.436 278.312 42.62C278.952 41.788 279.272 40.668 279.272 39.26ZM289.612 26.876C290.172 26.876 290.652 26.916 291.052 26.996C291.452 27.06 291.74 27.124 291.916 27.188L291.604 29.108C291.428 29.044 291.188 28.98 290.884 28.916C290.58 28.836 290.212 28.796 289.78 28.796C288.74 28.796 288.012 29.084 287.596 29.66C287.18 30.22 286.972 30.98 286.972 31.94V33.02H291.772V34.892H286.972V45.5H284.74V31.892C284.74 30.292 285.132 29.06 285.916 28.196C286.7 27.316 287.932 26.876 289.612 26.876ZM296.332 45.5H294.1V33.02H296.332V45.5ZM295.204 30.764C294.804 30.764 294.46 30.636 294.172 30.38C293.9 30.108 293.764 29.748 293.764 29.3C293.764 28.852 293.9 28.5 294.172 28.244C294.46 27.972 294.804 27.836 295.204 27.836C295.604 27.836 295.94 27.972 296.212 28.244C296.5 28.5 296.644 28.852 296.644 29.3C296.644 29.748 296.5 30.108 296.212 30.38C295.94 30.636 295.604 30.764 295.204 30.764ZM303.906 45.74C302.53 45.708 301.554 45.412 300.978 44.852C300.402 44.292 300.114 43.42 300.114 42.236V27.26L302.346 26.876V41.876C302.346 42.244 302.378 42.548 302.442 42.788C302.506 43.028 302.61 43.22 302.754 43.364C302.898 43.508 303.09 43.62 303.33 43.7C303.57 43.764 303.866 43.82 304.218 43.868L303.906 45.74ZM306.029 39.284C306.029 38.18 306.189 37.22 306.509 36.404C306.829 35.572 307.253 34.884 307.781 34.34C308.309 33.796 308.917 33.388 309.605 33.116C310.293 32.844 310.997 32.708 311.717 32.708C313.397 32.708 314.685 33.236 315.581 34.292C316.477 35.332 316.925 36.924 316.925 39.068C316.925 39.164 316.925 39.292 316.925 39.452C316.925 39.596 316.917 39.732 316.901 39.86H308.357C308.453 41.156 308.829 42.14 309.485 42.812C310.141 43.484 311.165 43.82 312.557 43.82C313.341 43.82 313.997 43.756 314.525 43.628C315.069 43.484 315.477 43.348 315.749 43.22L316.061 45.092C315.789 45.236 315.309 45.388 314.621 45.548C313.949 45.708 313.181 45.788 312.317 45.788C311.229 45.788 310.285 45.628 309.485 45.308C308.701 44.972 308.053 44.516 307.541 43.94C307.029 43.364 306.645 42.684 306.389 41.9C306.149 41.1 306.029 40.228 306.029 39.284ZM314.597 38.06C314.613 37.052 314.357 36.228 313.829 35.588C313.317 34.932 312.605 34.604 311.693 34.604C311.181 34.604 310.725 34.708 310.325 34.916C309.941 35.108 309.613 35.364 309.341 35.684C309.069 36.004 308.853 36.372 308.693 36.788C308.549 37.204 308.453 37.628 308.405 38.06H314.597Z" fill="#343434"/>
<path d="M353.653 43.5948C352.666 43.6288 351.722 43.4675 350.821 43.1109C349.92 42.7543 349.128 42.235 348.447 41.5531C347.765 40.8712 347.245 40.1056 346.889 39.2562C346.532 38.4069 346.354 37.5052 346.354 36.551C346.354 36.2107 346.371 35.8793 346.405 35.5567C346.439 35.2341 346.507 34.9191 346.609 34.6114C346.745 34.2031 346.737 33.7948 346.585 33.3864C346.432 32.9781 346.168 32.6889 345.792 32.5187C345.384 32.3486 344.985 32.3486 344.594 32.5187C344.203 32.6889 343.939 32.9781 343.802 33.3864C343.632 33.8969 343.504 34.4073 343.42 34.9177C343.336 35.4281 343.293 35.9555 343.291 36.5C343.291 37.8611 343.555 39.163 344.084 40.4057C344.612 41.6484 345.351 42.7454 346.303 43.6969C347.222 44.6496 348.302 45.3812 349.545 45.8916C350.788 46.4021 352.072 46.6743 353.398 46.7083L352.53 47.576C352.224 47.8823 352.071 48.2396 352.071 48.6479C352.071 49.0562 352.224 49.4135 352.53 49.7198C352.836 50.026 353.193 50.1791 353.602 50.1791C354.01 50.1791 354.367 50.026 354.674 49.7198L357.94 46.4531C358.349 46.0448 358.553 45.5684 358.553 45.0239C358.553 44.4795 358.349 44.0031 357.94 43.5948L354.674 40.3281C354.367 40.0219 354.01 39.8687 353.602 39.8687C353.193 39.8687 352.836 40.0219 352.53 40.3281C352.224 40.6344 352.071 40.9916 352.071 41.4C352.071 41.8083 352.224 42.1656 352.53 42.4719L353.653 43.5948ZM353.296 29.3541C354.282 29.3541 355.235 29.5331 356.154 29.8911C357.073 30.2491 357.872 30.7677 358.553 31.4469C359.233 32.126 359.753 32.8917 360.111 33.7437C360.469 34.5958 360.647 35.4975 360.646 36.4489C360.646 36.7892 360.628 37.1206 360.594 37.4432C360.56 37.7658 360.492 38.0809 360.39 38.3885C360.254 38.7969 360.263 39.2134 360.417 39.638C360.571 40.0627 360.834 40.3608 361.207 40.5323C361.615 40.7024 362.015 40.7024 362.407 40.5323C362.799 40.3621 363.063 40.0729 363.198 39.6646C363.368 39.1541 363.496 38.6349 363.581 38.1068C363.667 37.5787 363.709 37.0431 363.708 36.5C363.708 35.1389 363.461 33.8376 362.967 32.5963C362.473 31.355 361.733 30.2402 360.748 29.2521C359.795 28.2993 358.698 27.5765 357.456 27.0838C356.215 26.5911 354.93 26.344 353.602 26.3427L354.521 25.4239C354.793 25.1177 354.929 24.7604 354.929 24.3521C354.929 23.9437 354.776 23.5864 354.469 23.2802C354.163 22.9739 353.806 22.8208 353.398 22.8208C352.989 22.8208 352.632 22.9739 352.326 23.2802L349.059 26.5469C348.651 26.9552 348.447 27.4316 348.447 27.976C348.447 28.5205 348.651 28.9969 349.059 29.4052L352.326 32.6719C352.632 32.9781 352.989 33.1312 353.398 33.1312C353.806 33.1312 354.163 32.9781 354.469 32.6719C354.776 32.3656 354.929 32.0083 354.929 31.6C354.929 31.1916 354.776 30.8344 354.469 30.5281L353.296 29.3541ZM353.5 56.9166C350.675 56.9166 348.021 56.3804 345.537 55.3078C343.053 54.2353 340.892 52.7809 339.055 50.9448C337.217 49.1086 335.763 46.9479 334.692 44.4625C333.621 41.9771 333.084 39.3229 333.083 36.5C333.082 33.677 333.618 31.0229 334.692 28.5375C335.766 26.0521 337.22 23.8913 339.055 22.0552C340.89 20.219 343.05 18.7647 345.537 17.6921C348.024 16.6196 350.678 16.0833 353.5 16.0833C356.321 16.0833 358.975 16.6196 361.462 17.6921C363.949 18.7647 366.11 20.219 367.944 22.0552C369.779 23.8913 371.234 26.0521 372.31 28.5375C373.385 31.0229 373.92 33.677 373.916 36.5C373.912 39.3229 373.376 41.9771 372.308 44.4625C371.239 46.9479 369.785 49.1086 367.944 50.9448C366.104 52.7809 363.943 54.2359 361.462 55.3099C358.981 56.3838 356.327 56.9194 353.5 56.9166ZM353.5 52.8333C358.059 52.8333 361.922 51.251 365.086 48.0864C368.251 44.9219 369.833 41.0597 369.833 36.5C369.833 31.9403 368.251 28.0781 365.086 24.9135C361.922 21.7489 358.059 20.1666 353.5 20.1666C348.94 20.1666 345.078 21.7489 341.913 24.9135C338.749 28.0781 337.166 31.9403 337.166 36.5C337.166 41.0597 338.749 44.9219 341.913 48.0864C345.078 51.251 348.94 52.8333 353.5 52.8333Z" fill="#343434"/>
</svg>
