<svg width="354" height="69" viewBox="0 0 354 69" fill="none" xmlns="http://www.w3.org/2000/svg">
<rect x="0.352616" y="0.352616" width="353.295" height="68.2948" rx="10.2259" fill="#343434"/>
<rect x="0.352616" y="0.352616" width="353.295" height="68.2948" rx="10.2259" stroke="#343434" stroke-width="0.705232"/>
<path d="M25.2 36.54C25.456 36.86 25.776 37.284 26.16 37.812C26.56 38.324 26.968 38.9 27.384 39.54C27.8 40.164 28.208 40.82 28.608 41.508C29.024 42.196 29.376 42.86 29.664 43.5H27.12C26.8 42.892 26.448 42.276 26.064 41.652C25.696 41.028 25.32 40.436 24.936 39.876C24.552 39.3 24.168 38.764 23.784 38.268C23.416 37.772 23.08 37.34 22.776 36.972C22.568 36.988 22.352 36.996 22.128 36.996C21.92 36.996 21.704 36.996 21.48 36.996H19.392V43.5H17.064V27.108C17.72 26.948 18.448 26.844 19.248 26.796C20.064 26.732 20.808 26.7 21.48 26.7C23.816 26.7 25.592 27.14 26.808 28.02C28.04 28.9 28.656 30.212 28.656 31.956C28.656 33.06 28.36 34.004 27.768 34.788C27.192 35.572 26.336 36.156 25.2 36.54ZM21.672 28.74C20.68 28.74 19.92 28.764 19.392 28.812V35.076H21.048C21.848 35.076 22.568 35.036 23.208 34.956C23.848 34.876 24.384 34.724 24.816 34.5C25.264 34.276 25.608 33.964 25.848 33.564C26.088 33.148 26.208 32.604 26.208 31.932C26.208 31.308 26.088 30.788 25.848 30.372C25.608 29.956 25.28 29.628 24.864 29.388C24.464 29.148 23.984 28.98 23.424 28.884C22.88 28.788 22.296 28.74 21.672 28.74ZM31.3178 37.284C31.3178 36.18 31.4778 35.22 31.7978 34.404C32.1178 33.572 32.5418 32.884 33.0698 32.34C33.5978 31.796 34.2058 31.388 34.8938 31.116C35.5818 30.844 36.2858 30.708 37.0058 30.708C38.6858 30.708 39.9738 31.236 40.8698 32.292C41.7658 33.332 42.2137 34.924 42.2137 37.068C42.2137 37.164 42.2137 37.292 42.2137 37.452C42.2137 37.596 42.2057 37.732 42.1898 37.86H33.6458C33.7418 39.156 34.1178 40.14 34.7738 40.812C35.4298 41.484 36.4538 41.82 37.8458 41.82C38.6298 41.82 39.2858 41.756 39.8138 41.628C40.3578 41.484 40.7658 41.348 41.0378 41.22L41.3498 43.092C41.0778 43.236 40.5978 43.388 39.9098 43.548C39.2378 43.708 38.4698 43.788 37.6058 43.788C36.5178 43.788 35.5738 43.628 34.7738 43.308C33.9898 42.972 33.3418 42.516 32.8298 41.94C32.3178 41.364 31.9338 40.684 31.6777 39.9C31.4378 39.1 31.3178 38.228 31.3178 37.284ZM39.8858 36.06C39.9018 35.052 39.6458 34.228 39.1178 33.588C38.6058 32.932 37.8938 32.604 36.9818 32.604C36.4698 32.604 36.0138 32.708 35.6138 32.916C35.2298 33.108 34.9018 33.364 34.6298 33.684C34.3578 34.004 34.1418 34.372 33.9818 34.788C33.8378 35.204 33.7418 35.628 33.6938 36.06H39.8858ZM49.164 43.74C47.788 43.708 46.812 43.412 46.236 42.852C45.66 42.292 45.372 41.42 45.372 40.236V25.26L47.604 24.876V39.876C47.604 40.244 47.636 40.548 47.7 40.788C47.764 41.028 47.868 41.22 48.012 41.364C48.156 41.508 48.348 41.62 48.588 41.7C48.828 41.764 49.124 41.82 49.476 41.868L49.164 43.74ZM56.2065 41.892C56.7345 41.892 57.1985 41.884 57.5985 41.868C58.0145 41.836 58.3585 41.788 58.6305 41.724V38.004C58.4705 37.924 58.2065 37.86 57.8385 37.812C57.4865 37.748 57.0545 37.716 56.5425 37.716C56.2065 37.716 55.8465 37.74 55.4625 37.788C55.0945 37.836 54.7505 37.94 54.4305 38.1C54.1265 38.244 53.8705 38.452 53.6625 38.724C53.4545 38.98 53.3505 39.324 53.3505 39.756C53.3505 40.556 53.6065 41.116 54.1185 41.436C54.6305 41.74 55.3265 41.892 56.2065 41.892ZM56.0145 30.708C56.9105 30.708 57.6625 30.828 58.2705 31.068C58.8945 31.292 59.3905 31.62 59.7585 32.052C60.1425 32.468 60.4145 32.972 60.5745 33.564C60.7345 34.14 60.8145 34.78 60.8145 35.484V43.284C60.6225 43.316 60.3505 43.364 59.9985 43.428C59.6625 43.476 59.2785 43.524 58.8465 43.572C58.4145 43.62 57.9425 43.66 57.4305 43.692C56.9345 43.74 56.4385 43.764 55.9425 43.764C55.2385 43.764 54.5905 43.692 53.9985 43.548C53.4065 43.404 52.8945 43.18 52.4625 42.876C52.0305 42.556 51.6945 42.14 51.4545 41.628C51.2145 41.116 51.0945 40.5 51.0945 39.78C51.0945 39.092 51.2305 38.5 51.5025 38.004C51.7905 37.508 52.1745 37.108 52.6545 36.804C53.1345 36.5 53.6945 36.276 54.3345 36.132C54.9745 35.988 55.6465 35.916 56.3505 35.916C56.5745 35.916 56.8065 35.932 57.0465 35.964C57.2865 35.98 57.5105 36.012 57.7185 36.06C57.9425 36.092 58.1345 36.124 58.2945 36.156C58.4545 36.188 58.5665 36.212 58.6305 36.228V35.604C58.6305 35.236 58.5905 34.876 58.5105 34.524C58.4305 34.156 58.2865 33.836 58.0785 33.564C57.8705 33.276 57.5825 33.052 57.2145 32.892C56.8625 32.716 56.3985 32.628 55.8225 32.628C55.0865 32.628 54.4385 32.684 53.8785 32.796C53.3345 32.892 52.9265 32.996 52.6545 33.108L52.3905 31.26C52.6785 31.132 53.1585 31.012 53.8305 30.9C54.5025 30.772 55.2305 30.708 56.0145 30.708ZM66.6096 31.02H71.3376V32.892H66.6096V38.652C66.6096 39.276 66.6576 39.796 66.7536 40.212C66.8496 40.612 66.9936 40.932 67.1856 41.172C67.3776 41.396 67.6176 41.556 67.9056 41.652C68.1936 41.748 68.5296 41.796 68.9136 41.796C69.5856 41.796 70.1216 41.724 70.5216 41.58C70.9376 41.42 71.2256 41.308 71.3856 41.244L71.8176 43.092C71.5936 43.204 71.2016 43.34 70.6416 43.5C70.0816 43.676 69.4416 43.764 68.7216 43.764C67.8736 43.764 67.1696 43.66 66.6096 43.452C66.0656 43.228 65.6256 42.9 65.2896 42.468C64.9536 42.036 64.7136 41.508 64.5696 40.884C64.4416 40.244 64.3776 39.508 64.3776 38.676V27.54L66.6096 27.156V31.02ZM76.4098 43.5H74.1778V31.02H76.4098V43.5ZM75.2818 28.764C74.8818 28.764 74.5378 28.636 74.2498 28.38C73.9778 28.108 73.8418 27.748 73.8418 27.3C73.8418 26.852 73.9778 26.5 74.2498 26.244C74.5378 25.972 74.8818 25.836 75.2818 25.836C75.6818 25.836 76.0178 25.972 76.2898 26.244C76.5778 26.5 76.7218 26.852 76.7218 27.3C76.7218 27.748 76.5778 28.108 76.2898 28.38C76.0178 28.636 75.6818 28.764 75.2818 28.764ZM91.2641 37.26C91.2641 38.252 91.1201 39.148 90.8321 39.948C90.5441 40.748 90.1361 41.436 89.6081 42.012C89.0961 42.588 88.4801 43.036 87.7601 43.356C87.0401 43.66 86.2561 43.812 85.4081 43.812C84.5601 43.812 83.7761 43.66 83.0561 43.356C82.3361 43.036 81.7121 42.588 81.1841 42.012C80.6721 41.436 80.2721 40.748 79.9841 39.948C79.6961 39.148 79.5521 38.252 79.5521 37.26C79.5521 36.284 79.6961 35.396 79.9841 34.596C80.2721 33.78 80.6721 33.084 81.1841 32.508C81.7121 31.932 82.3361 31.492 83.0561 31.188C83.7761 30.868 84.5601 30.708 85.4081 30.708C86.2561 30.708 87.0401 30.868 87.7601 31.188C88.4801 31.492 89.0961 31.932 89.6081 32.508C90.1361 33.084 90.5441 33.78 90.8321 34.596C91.1201 35.396 91.2641 36.284 91.2641 37.26ZM88.9361 37.26C88.9361 35.852 88.6161 34.74 87.9761 33.924C87.3521 33.092 86.4961 32.676 85.4081 32.676C84.3201 32.676 83.4561 33.092 82.8161 33.924C82.1921 34.74 81.8801 35.852 81.8801 37.26C81.8801 38.668 82.1921 39.788 82.8161 40.62C83.4561 41.436 84.3201 41.844 85.4081 41.844C86.4961 41.844 87.3521 41.436 87.9761 40.62C88.6161 39.788 88.9361 38.668 88.9361 37.26ZM94.4044 31.38C94.9164 31.252 95.5964 31.116 96.4444 30.972C97.2924 30.828 98.2684 30.756 99.3724 30.756C100.364 30.756 101.188 30.9 101.844 31.188C102.5 31.46 103.02 31.852 103.404 32.364C103.804 32.86 104.084 33.46 104.244 34.164C104.404 34.868 104.484 35.644 104.484 36.492V43.5H102.252V36.972C102.252 36.204 102.196 35.548 102.084 35.004C101.988 34.46 101.82 34.02 101.58 33.684C101.34 33.348 101.02 33.108 100.62 32.964C100.22 32.804 99.7244 32.724 99.1324 32.724C98.8924 32.724 98.6444 32.732 98.3884 32.748C98.1324 32.764 97.8844 32.788 97.6444 32.82C97.4204 32.836 97.2124 32.86 97.0204 32.892C96.8444 32.924 96.7164 32.948 96.6364 32.964V43.5H94.4044V31.38ZM111.09 41.892C112.002 41.892 112.674 41.772 113.106 41.532C113.554 41.292 113.778 40.908 113.778 40.38C113.778 39.836 113.562 39.404 113.13 39.084C112.698 38.764 111.986 38.404 110.994 38.004C110.514 37.812 110.05 37.62 109.602 37.428C109.17 37.22 108.794 36.98 108.474 36.708C108.154 36.436 107.898 36.108 107.706 35.724C107.514 35.34 107.418 34.868 107.418 34.308C107.418 33.204 107.826 32.332 108.642 31.692C109.458 31.036 110.57 30.708 111.978 30.708C112.33 30.708 112.682 30.732 113.034 30.78C113.386 30.812 113.714 30.86 114.018 30.924C114.322 30.972 114.586 31.028 114.81 31.092C115.05 31.156 115.234 31.212 115.362 31.26L114.954 33.18C114.714 33.052 114.338 32.924 113.826 32.796C113.314 32.652 112.698 32.58 111.978 32.58C111.354 32.58 110.81 32.708 110.346 32.964C109.882 33.204 109.65 33.588 109.65 34.116C109.65 34.388 109.698 34.628 109.794 34.836C109.906 35.044 110.066 35.236 110.274 35.412C110.498 35.572 110.77 35.724 111.09 35.868C111.41 36.012 111.794 36.164 112.242 36.324C112.834 36.548 113.362 36.772 113.826 36.996C114.29 37.204 114.682 37.452 115.002 37.74C115.338 38.028 115.594 38.38 115.77 38.796C115.946 39.196 116.034 39.692 116.034 40.284C116.034 41.436 115.602 42.308 114.738 42.9C113.89 43.492 112.674 43.788 111.09 43.788C109.986 43.788 109.122 43.692 108.498 43.5C107.874 43.324 107.45 43.188 107.226 43.092L107.634 41.172C107.89 41.268 108.298 41.412 108.858 41.604C109.418 41.796 110.162 41.892 111.09 41.892ZM118.897 43.5V25.26L121.129 24.876V31.26C121.545 31.1 121.985 30.98 122.449 30.9C122.929 30.804 123.401 30.756 123.865 30.756C124.857 30.756 125.681 30.9 126.337 31.188C126.993 31.46 127.513 31.852 127.897 32.364C128.297 32.86 128.577 33.46 128.737 34.164C128.897 34.868 128.977 35.644 128.977 36.492V43.5H126.745V36.972C126.745 36.204 126.689 35.548 126.577 35.004C126.481 34.46 126.313 34.02 126.073 33.684C125.833 33.348 125.513 33.108 125.113 32.964C124.713 32.804 124.217 32.724 123.625 32.724C123.385 32.724 123.137 32.74 122.881 32.772C122.625 32.804 122.377 32.844 122.137 32.892C121.913 32.924 121.705 32.964 121.513 33.012C121.337 33.06 121.209 33.1 121.129 33.132V43.5H118.897ZM134.84 43.5H132.608V31.02H134.84V43.5ZM133.712 28.764C133.312 28.764 132.968 28.636 132.68 28.38C132.408 28.108 132.271 27.748 132.271 27.3C132.271 26.852 132.408 26.5 132.68 26.244C132.968 25.972 133.312 25.836 133.712 25.836C134.112 25.836 134.448 25.972 134.72 26.244C135.008 26.5 135.152 26.852 135.152 27.3C135.152 27.748 135.008 28.108 134.72 28.38C134.448 28.636 134.112 28.764 133.712 28.764ZM147.342 37.284C147.342 35.828 146.982 34.708 146.262 33.924C145.542 33.14 144.582 32.748 143.382 32.748C142.71 32.748 142.182 32.772 141.798 32.82C141.43 32.868 141.134 32.924 140.91 32.988V40.86C141.182 41.084 141.574 41.3 142.086 41.508C142.598 41.716 143.158 41.82 143.766 41.82C144.406 41.82 144.95 41.708 145.398 41.484C145.862 41.244 146.238 40.924 146.526 40.524C146.814 40.108 147.022 39.628 147.15 39.084C147.278 38.524 147.342 37.924 147.342 37.284ZM149.67 37.284C149.67 38.228 149.542 39.1 149.286 39.9C149.046 40.7 148.686 41.388 148.206 41.964C147.726 42.54 147.134 42.988 146.43 43.308C145.742 43.628 144.95 43.788 144.054 43.788C143.334 43.788 142.694 43.692 142.134 43.5C141.59 43.308 141.182 43.124 140.91 42.948V47.94H138.678V31.404C139.206 31.276 139.862 31.14 140.646 30.996C141.446 30.836 142.366 30.756 143.406 30.756C144.366 30.756 145.23 30.908 145.998 31.212C146.766 31.516 147.422 31.948 147.966 32.508C148.51 33.068 148.926 33.756 149.214 34.572C149.518 35.372 149.67 36.276 149.67 37.284ZM165.661 43.86C164.493 43.86 163.429 43.668 162.469 43.284C161.509 42.9 160.685 42.34 159.997 41.604C159.309 40.868 158.773 39.964 158.389 38.892C158.021 37.804 157.837 36.564 157.837 35.172C157.837 33.78 158.045 32.548 158.461 31.476C158.893 30.388 159.469 29.476 160.189 28.74C160.909 28.004 161.749 27.444 162.709 27.06C163.669 26.676 164.693 26.484 165.781 26.484C166.469 26.484 167.085 26.532 167.629 26.628C168.189 26.724 168.669 26.836 169.069 26.964C169.485 27.092 169.821 27.22 170.077 27.348C170.333 27.476 170.509 27.572 170.605 27.636L169.933 29.556C169.789 29.46 169.581 29.356 169.309 29.244C169.037 29.132 168.725 29.02 168.373 28.908C168.037 28.796 167.661 28.708 167.245 28.644C166.845 28.564 166.437 28.524 166.021 28.524C165.141 28.524 164.349 28.676 163.645 28.98C162.941 29.284 162.341 29.724 161.845 30.3C161.349 30.876 160.965 31.58 160.693 32.412C160.437 33.228 160.309 34.148 160.309 35.172C160.309 36.164 160.421 37.068 160.645 37.884C160.885 38.7 161.237 39.404 161.701 39.996C162.165 40.572 162.741 41.02 163.429 41.34C164.133 41.66 164.949 41.82 165.877 41.82C166.949 41.82 167.837 41.708 168.541 41.484C169.245 41.26 169.773 41.06 170.125 40.884L170.725 42.804C170.613 42.884 170.413 42.988 170.125 43.116C169.837 43.228 169.477 43.34 169.045 43.452C168.613 43.564 168.109 43.66 167.533 43.74C166.957 43.82 166.333 43.86 165.661 43.86ZM177.472 41.892C178 41.892 178.464 41.884 178.864 41.868C179.28 41.836 179.624 41.788 179.896 41.724V38.004C179.736 37.924 179.472 37.86 179.104 37.812C178.752 37.748 178.32 37.716 177.808 37.716C177.472 37.716 177.112 37.74 176.728 37.788C176.36 37.836 176.016 37.94 175.696 38.1C175.392 38.244 175.136 38.452 174.928 38.724C174.72 38.98 174.616 39.324 174.616 39.756C174.616 40.556 174.872 41.116 175.384 41.436C175.896 41.74 176.592 41.892 177.472 41.892ZM177.28 30.708C178.176 30.708 178.928 30.828 179.536 31.068C180.16 31.292 180.656 31.62 181.024 32.052C181.408 32.468 181.68 32.972 181.84 33.564C182 34.14 182.08 34.78 182.08 35.484V43.284C181.888 43.316 181.616 43.364 181.264 43.428C180.928 43.476 180.544 43.524 180.112 43.572C179.68 43.62 179.208 43.66 178.696 43.692C178.2 43.74 177.704 43.764 177.208 43.764C176.504 43.764 175.856 43.692 175.264 43.548C174.672 43.404 174.16 43.18 173.728 42.876C173.296 42.556 172.96 42.14 172.72 41.628C172.48 41.116 172.36 40.5 172.36 39.78C172.36 39.092 172.496 38.5 172.768 38.004C173.056 37.508 173.44 37.108 173.92 36.804C174.4 36.5 174.96 36.276 175.6 36.132C176.24 35.988 176.912 35.916 177.616 35.916C177.84 35.916 178.072 35.932 178.312 35.964C178.552 35.98 178.776 36.012 178.984 36.06C179.208 36.092 179.4 36.124 179.56 36.156C179.72 36.188 179.832 36.212 179.896 36.228V35.604C179.896 35.236 179.856 34.876 179.776 34.524C179.696 34.156 179.552 33.836 179.344 33.564C179.136 33.276 178.848 33.052 178.48 32.892C178.128 32.716 177.664 32.628 177.088 32.628C176.352 32.628 175.704 32.684 175.144 32.796C174.6 32.892 174.192 32.996 173.92 33.108L173.656 31.26C173.944 31.132 174.424 31.012 175.096 30.9C175.768 30.772 176.496 30.708 177.28 30.708ZM187.875 31.02H192.603V32.892H187.875V38.652C187.875 39.276 187.923 39.796 188.019 40.212C188.115 40.612 188.259 40.932 188.451 41.172C188.643 41.396 188.883 41.556 189.171 41.652C189.459 41.748 189.795 41.796 190.179 41.796C190.851 41.796 191.387 41.724 191.787 41.58C192.203 41.42 192.491 41.308 192.651 41.244L193.083 43.092C192.859 43.204 192.467 43.34 191.907 43.5C191.347 43.676 190.707 43.764 189.987 43.764C189.139 43.764 188.435 43.66 187.875 43.452C187.331 43.228 186.891 42.9 186.555 42.468C186.219 42.036 185.979 41.508 185.835 40.884C185.707 40.244 185.643 39.508 185.643 38.676V27.54L187.875 27.156V31.02ZM194.513 37.284C194.513 36.18 194.673 35.22 194.993 34.404C195.313 33.572 195.737 32.884 196.265 32.34C196.793 31.796 197.401 31.388 198.089 31.116C198.777 30.844 199.481 30.708 200.201 30.708C201.881 30.708 203.169 31.236 204.065 32.292C204.961 33.332 205.409 34.924 205.409 37.068C205.409 37.164 205.409 37.292 205.409 37.452C205.409 37.596 205.401 37.732 205.385 37.86H196.841C196.937 39.156 197.313 40.14 197.969 40.812C198.625 41.484 199.649 41.82 201.041 41.82C201.825 41.82 202.481 41.756 203.009 41.628C203.553 41.484 203.961 41.348 204.233 41.22L204.545 43.092C204.273 43.236 203.793 43.388 203.105 43.548C202.433 43.708 201.665 43.788 200.801 43.788C199.713 43.788 198.769 43.628 197.969 43.308C197.185 42.972 196.537 42.516 196.025 41.94C195.513 41.364 195.129 40.684 194.873 39.9C194.633 39.1 194.513 38.228 194.513 37.284ZM203.081 36.06C203.097 35.052 202.841 34.228 202.313 33.588C201.801 32.932 201.089 32.604 200.177 32.604C199.665 32.604 199.209 32.708 198.809 32.916C198.425 33.108 198.097 33.364 197.825 33.684C197.553 34.004 197.337 34.372 197.177 34.788C197.033 35.204 196.937 35.628 196.889 36.06H203.081ZM216.439 42.252C216.247 42.38 215.871 42.548 215.311 42.756C214.767 42.948 214.127 43.044 213.391 43.044C212.639 43.044 211.927 42.924 211.255 42.684C210.599 42.444 210.023 42.076 209.527 41.58C209.031 41.068 208.639 40.436 208.351 39.684C208.063 38.932 207.919 38.036 207.919 36.996C207.919 36.084 208.055 35.252 208.327 34.5C208.599 33.732 208.991 33.076 209.503 32.532C210.031 31.972 210.671 31.54 211.423 31.236C212.175 30.916 213.023 30.756 213.967 30.756C215.007 30.756 215.911 30.836 216.679 30.996C217.463 31.14 218.119 31.276 218.647 31.404V42.54C218.647 44.46 218.151 45.852 217.159 46.716C216.167 47.58 214.663 48.012 212.647 48.012C211.863 48.012 211.119 47.948 210.415 47.82C209.727 47.692 209.127 47.54 208.615 47.364L209.023 45.42C209.471 45.596 210.015 45.748 210.655 45.876C211.311 46.02 211.991 46.092 212.695 46.092C214.023 46.092 214.975 45.828 215.551 45.3C216.143 44.772 216.439 43.932 216.439 42.78V42.252ZM216.415 32.988C216.191 32.924 215.887 32.868 215.503 32.82C215.135 32.756 214.631 32.724 213.991 32.724C212.791 32.724 211.863 33.116 211.207 33.9C210.567 34.684 210.247 35.724 210.247 37.02C210.247 37.74 210.335 38.356 210.511 38.868C210.703 39.38 210.951 39.804 211.255 40.14C211.575 40.476 211.935 40.724 212.335 40.884C212.751 41.044 213.175 41.124 213.607 41.124C214.199 41.124 214.743 41.044 215.239 40.884C215.735 40.708 216.127 40.508 216.415 40.284V32.988ZM233.506 37.26C233.506 38.252 233.362 39.148 233.074 39.948C232.786 40.748 232.378 41.436 231.85 42.012C231.338 42.588 230.722 43.036 230.002 43.356C229.282 43.66 228.498 43.812 227.65 43.812C226.802 43.812 226.018 43.66 225.298 43.356C224.578 43.036 223.954 42.588 223.426 42.012C222.914 41.436 222.514 40.748 222.226 39.948C221.938 39.148 221.794 38.252 221.794 37.26C221.794 36.284 221.938 35.396 222.226 34.596C222.514 33.78 222.914 33.084 223.426 32.508C223.954 31.932 224.578 31.492 225.298 31.188C226.018 30.868 226.802 30.708 227.65 30.708C228.498 30.708 229.282 30.868 230.002 31.188C230.722 31.492 231.338 31.932 231.85 32.508C232.378 33.084 232.786 33.78 233.074 34.596C233.362 35.396 233.506 36.284 233.506 37.26ZM231.178 37.26C231.178 35.852 230.858 34.74 230.218 33.924C229.594 33.092 228.738 32.676 227.65 32.676C226.562 32.676 225.698 33.092 225.058 33.924C224.434 34.74 224.122 35.852 224.122 37.26C224.122 38.668 224.434 39.788 225.058 40.62C225.698 41.436 226.562 41.844 227.65 41.844C228.738 41.844 229.594 41.436 230.218 40.62C230.858 39.788 231.178 38.668 231.178 37.26ZM241.255 30.756C241.447 30.756 241.663 30.772 241.903 30.804C242.159 30.82 242.407 30.852 242.647 30.9C242.887 30.932 243.103 30.972 243.295 31.02C243.503 31.052 243.655 31.084 243.751 31.116L243.367 33.06C243.191 32.996 242.895 32.924 242.479 32.844C242.079 32.748 241.559 32.7 240.919 32.7C240.503 32.7 240.087 32.748 239.671 32.844C239.271 32.924 239.007 32.98 238.879 33.012V43.5H236.647V31.548C237.175 31.356 237.831 31.18 238.615 31.02C239.399 30.844 240.279 30.756 241.255 30.756ZM248.136 43.5H245.904V31.02H248.136V43.5ZM247.008 28.764C246.608 28.764 246.264 28.636 245.976 28.38C245.704 28.108 245.568 27.748 245.568 27.3C245.568 26.852 245.704 26.5 245.976 26.244C246.264 25.972 246.608 25.836 247.008 25.836C247.408 25.836 247.744 25.972 248.016 26.244C248.304 26.5 248.448 26.852 248.448 27.3C248.448 27.748 248.304 28.108 248.016 28.38C247.744 28.636 247.408 28.764 247.008 28.764ZM251.279 37.284C251.279 36.18 251.439 35.22 251.759 34.404C252.079 33.572 252.503 32.884 253.031 32.34C253.559 31.796 254.167 31.388 254.855 31.116C255.543 30.844 256.247 30.708 256.967 30.708C258.647 30.708 259.935 31.236 260.831 32.292C261.727 33.332 262.175 34.924 262.175 37.068C262.175 37.164 262.175 37.292 262.175 37.452C262.175 37.596 262.167 37.732 262.151 37.86H253.607C253.703 39.156 254.079 40.14 254.735 40.812C255.391 41.484 256.415 41.82 257.807 41.82C258.591 41.82 259.247 41.756 259.775 41.628C260.319 41.484 260.727 41.348 260.999 41.22L261.311 43.092C261.039 43.236 260.559 43.388 259.871 43.548C259.199 43.708 258.431 43.788 257.567 43.788C256.479 43.788 255.535 43.628 254.735 43.308C253.951 42.972 253.303 42.516 252.791 41.94C252.279 41.364 251.895 40.684 251.639 39.9C251.399 39.1 251.279 38.228 251.279 37.284ZM259.847 36.06C259.863 35.052 259.607 34.228 259.079 33.588C258.567 32.932 257.855 32.604 256.943 32.604C256.431 32.604 255.975 32.708 255.575 32.916C255.191 33.108 254.863 33.364 254.591 33.684C254.319 34.004 254.103 34.372 253.943 34.788C253.799 35.204 253.703 35.628 253.655 36.06H259.847ZM268.285 41.892C269.197 41.892 269.869 41.772 270.301 41.532C270.749 41.292 270.973 40.908 270.973 40.38C270.973 39.836 270.757 39.404 270.325 39.084C269.893 38.764 269.181 38.404 268.189 38.004C267.709 37.812 267.245 37.62 266.797 37.428C266.365 37.22 265.989 36.98 265.669 36.708C265.349 36.436 265.093 36.108 264.901 35.724C264.709 35.34 264.613 34.868 264.613 34.308C264.613 33.204 265.021 32.332 265.837 31.692C266.653 31.036 267.765 30.708 269.173 30.708C269.525 30.708 269.877 30.732 270.229 30.78C270.581 30.812 270.909 30.86 271.213 30.924C271.517 30.972 271.781 31.028 272.005 31.092C272.245 31.156 272.429 31.212 272.557 31.26L272.149 33.18C271.909 33.052 271.533 32.924 271.021 32.796C270.509 32.652 269.893 32.58 269.173 32.58C268.549 32.58 268.005 32.708 267.541 32.964C267.077 33.204 266.845 33.588 266.845 34.116C266.845 34.388 266.893 34.628 266.989 34.836C267.101 35.044 267.261 35.236 267.469 35.412C267.693 35.572 267.965 35.724 268.285 35.868C268.605 36.012 268.989 36.164 269.437 36.324C270.029 36.548 270.557 36.772 271.021 36.996C271.485 37.204 271.877 37.452 272.197 37.74C272.533 38.028 272.789 38.38 272.965 38.796C273.141 39.196 273.229 39.692 273.229 40.284C273.229 41.436 272.797 42.308 271.933 42.9C271.085 43.492 269.869 43.788 268.285 43.788C267.181 43.788 266.317 43.692 265.693 43.5C265.069 43.324 264.645 43.188 264.421 43.092L264.829 41.172C265.085 41.268 265.493 41.412 266.053 41.604C266.613 41.796 267.357 41.892 268.285 41.892Z" fill="#FAFAFA"/>
<path d="M328.281 25.3125H300.719C299.501 25.3137 298.333 25.7981 297.472 26.6593C296.611 27.5206 296.126 28.6883 296.125 29.9063V39.0938C296.125 39.906 296.448 40.6849 297.022 41.2593C297.596 41.8336 298.375 42.1563 299.188 42.1563V52.875C299.188 53.6872 299.51 54.4662 300.084 55.0405C300.659 55.6148 301.438 55.9375 302.25 55.9375H308.375C309.187 55.9375 309.966 55.6148 310.541 55.0405C311.115 54.4662 311.438 53.6872 311.438 52.875V34.5H308.375V52.875H302.25V39.0938H299.188V29.9063C299.188 29.5001 299.349 29.1107 299.636 28.8235C299.923 28.5363 300.313 28.375 300.719 28.375H328.281C328.687 28.375 329.077 28.5363 329.364 28.8235C329.651 29.1107 329.812 29.5001 329.812 29.9063V39.0938H326.75V52.875H320.625V34.5H317.562V52.875C317.562 53.6872 317.885 54.4662 318.459 55.0405C319.034 55.6148 319.813 55.9375 320.625 55.9375H326.75C327.562 55.9375 328.341 55.6148 328.916 55.0405C329.49 54.4662 329.812 53.6872 329.812 52.875V42.1563C330.625 42.1563 331.404 41.8336 331.978 41.2593C332.552 40.6849 332.875 39.906 332.875 39.0938V29.9063C332.874 28.6883 332.389 27.5206 331.528 26.6593C330.667 25.7981 329.499 25.3137 328.281 25.3125ZM305.312 23.7813C304.101 23.7813 302.917 23.422 301.91 22.749C300.902 22.076 300.117 21.1194 299.654 20.0002C299.19 18.881 299.069 17.6495 299.305 16.4613C299.542 15.2732 300.125 14.1818 300.981 13.3252C301.838 12.4686 302.929 11.8853 304.118 11.6489C305.306 11.4126 306.537 11.5339 307.656 11.9975C308.776 12.4611 309.732 13.2461 310.405 14.2534C311.078 15.2606 311.438 16.4448 311.438 17.6563C311.436 19.2802 310.79 20.8372 309.642 21.9855C308.493 23.1338 306.936 23.7796 305.312 23.7813ZM305.312 14.5938C304.707 14.5938 304.115 14.7734 303.611 15.1099C303.107 15.4464 302.715 15.9247 302.483 16.4843C302.251 17.0439 302.191 17.6597 302.309 18.2537C302.427 18.8478 302.719 19.3935 303.147 19.8218C303.575 20.2501 304.121 20.5417 304.715 20.6599C305.309 20.7781 305.925 20.7174 306.484 20.4856C307.044 20.2538 307.522 19.8613 307.859 19.3577C308.195 18.8541 308.375 18.262 308.375 17.6563C308.375 16.844 308.052 16.0651 307.478 15.4907C306.904 14.9164 306.125 14.5938 305.312 14.5938ZM323.688 23.7813C322.476 23.7813 321.292 23.422 320.285 22.749C319.277 22.076 318.492 21.1194 318.029 20.0002C317.565 18.881 317.444 17.6495 317.68 16.4613C317.917 15.2732 318.5 14.1818 319.356 13.3252C320.213 12.4686 321.304 11.8853 322.493 11.6489C323.681 11.4126 324.912 11.5339 326.031 11.9975C327.151 12.4611 328.107 13.2461 328.78 14.2534C329.453 15.2606 329.812 16.4448 329.812 17.6563C329.811 19.2802 329.165 20.8372 328.017 21.9855C326.868 23.1338 325.311 23.7796 323.688 23.7813ZM323.688 14.5938C323.082 14.5938 322.49 14.7734 321.986 15.1099C321.482 15.4464 321.09 15.9247 320.858 16.4843C320.626 17.0439 320.566 17.6597 320.684 18.2537C320.802 18.8478 321.094 19.3935 321.522 19.8218C321.95 20.2501 322.496 20.5417 323.09 20.6599C323.684 20.7781 324.3 20.7174 324.859 20.4856C325.419 20.2538 325.897 19.8613 326.234 19.3577C326.57 18.8541 326.75 18.262 326.75 17.6563C326.75 16.844 326.427 16.0651 325.853 15.4907C325.279 14.9164 324.5 14.5938 323.688 14.5938Z" fill="#FAFAFA"/>
</svg>
