<svg width="128" height="69" viewBox="0 0 128 69" fill="none" xmlns="http://www.w3.org/2000/svg">
<rect x="1.25" y="1.25" width="125.5" height="66.5" rx="13.75" stroke="#343434" stroke-width="2.5" stroke-linejoin="round" stroke-dasharray="6 6"/>
<path d="M27.928 41.844C30.36 41.844 31.576 41.012 31.576 39.348C31.576 38.836 31.464 38.404 31.24 38.052C31.032 37.684 30.744 37.372 30.376 37.116C30.008 36.844 29.584 36.612 29.104 36.42C28.64 36.228 28.144 36.036 27.616 35.844C27.008 35.636 26.432 35.404 25.888 35.148C25.344 34.876 24.872 34.564 24.472 34.212C24.072 33.844 23.752 33.412 23.512 32.916C23.288 32.42 23.176 31.82 23.176 31.116C23.176 29.66 23.672 28.524 24.664 27.708C25.656 26.892 27.024 26.484 28.768 26.484C29.776 26.484 30.688 26.596 31.504 26.82C32.336 27.028 32.944 27.26 33.328 27.516L32.584 29.412C32.248 29.204 31.744 29.004 31.072 28.812C30.416 28.604 29.648 28.5 28.768 28.5C28.32 28.5 27.904 28.548 27.52 28.644C27.136 28.74 26.8 28.884 26.512 29.076C26.224 29.268 25.992 29.516 25.816 29.82C25.656 30.108 25.576 30.452 25.576 30.852C25.576 31.3 25.664 31.676 25.84 31.98C26.016 32.284 26.264 32.556 26.584 32.796C26.904 33.02 27.272 33.228 27.688 33.42C28.12 33.612 28.592 33.804 29.104 33.996C29.824 34.284 30.48 34.572 31.072 34.86C31.68 35.148 32.2 35.492 32.632 35.892C33.08 36.292 33.424 36.772 33.664 37.332C33.904 37.876 34.024 38.54 34.024 39.324C34.024 40.78 33.488 41.9 32.416 42.684C31.36 43.468 29.864 43.86 27.928 43.86C27.272 43.86 26.664 43.812 26.104 43.716C25.56 43.636 25.072 43.54 24.64 43.428C24.208 43.3 23.832 43.172 23.512 43.044C23.208 42.9 22.968 42.78 22.792 42.684L23.488 40.764C23.856 40.972 24.416 41.204 25.168 41.46C25.92 41.716 26.84 41.844 27.928 41.844ZM47.7094 37.26C47.7094 38.252 47.5654 39.148 47.2774 39.948C46.9894 40.748 46.5814 41.436 46.0534 42.012C45.5414 42.588 44.9254 43.036 44.2054 43.356C43.4854 43.66 42.7014 43.812 41.8534 43.812C41.0054 43.812 40.2214 43.66 39.5014 43.356C38.7814 43.036 38.1574 42.588 37.6294 42.012C37.1174 41.436 36.7174 40.748 36.4294 39.948C36.1414 39.148 35.9974 38.252 35.9974 37.26C35.9974 36.284 36.1414 35.396 36.4294 34.596C36.7174 33.78 37.1174 33.084 37.6294 32.508C38.1574 31.932 38.7814 31.492 39.5014 31.188C40.2214 30.868 41.0054 30.708 41.8534 30.708C42.7014 30.708 43.4854 30.868 44.2054 31.188C44.9254 31.492 45.5414 31.932 46.0534 32.508C46.5814 33.084 46.9894 33.78 47.2774 34.596C47.5654 35.396 47.7094 36.284 47.7094 37.26ZM45.3814 37.26C45.3814 35.852 45.0614 34.74 44.4214 33.924C43.7974 33.092 42.9414 32.676 41.8534 32.676C40.7654 32.676 39.9014 33.092 39.2614 33.924C38.6374 34.74 38.3254 35.852 38.3254 37.26C38.3254 38.668 38.6374 39.788 39.2614 40.62C39.9014 41.436 40.7654 41.844 41.8534 41.844C42.9414 41.844 43.7974 41.436 44.4214 40.62C45.0614 39.788 45.3814 38.668 45.3814 37.26ZM55.4577 30.756C55.6497 30.756 55.8657 30.772 56.1057 30.804C56.3617 30.82 56.6097 30.852 56.8497 30.9C57.0897 30.932 57.3057 30.972 57.4977 31.02C57.7057 31.052 57.8577 31.084 57.9537 31.116L57.5697 33.06C57.3937 32.996 57.0977 32.924 56.6817 32.844C56.2817 32.748 55.7617 32.7 55.1217 32.7C54.7057 32.7 54.2897 32.748 53.8737 32.844C53.4737 32.924 53.2097 32.98 53.0817 33.012V43.5H50.8497V31.548C51.3777 31.356 52.0337 31.18 52.8177 31.02C53.6017 30.844 54.4817 30.756 55.4577 30.756ZM62.1955 31.02H66.9235V32.892H62.1955V38.652C62.1955 39.276 62.2435 39.796 62.3395 40.212C62.4355 40.612 62.5795 40.932 62.7715 41.172C62.9635 41.396 63.2035 41.556 63.4915 41.652C63.7795 41.748 64.1155 41.796 64.4995 41.796C65.1715 41.796 65.7075 41.724 66.1075 41.58C66.5235 41.42 66.8115 41.308 66.9715 41.244L67.4035 43.092C67.1795 43.204 66.7875 43.34 66.2275 43.5C65.6675 43.676 65.0275 43.764 64.3075 43.764C63.4595 43.764 62.7555 43.66 62.1955 43.452C61.6515 43.228 61.2115 42.9 60.8755 42.468C60.5395 42.036 60.2995 41.508 60.1555 40.884C60.0275 40.244 59.9635 39.508 59.9635 38.676V27.54L62.1955 27.156V31.02ZM77.5504 31.572C77.8224 31.396 78.2304 31.212 78.7744 31.02C79.3344 30.828 79.9744 30.732 80.6944 30.732C81.5904 30.732 82.3824 30.892 83.0704 31.212C83.7744 31.532 84.3664 31.98 84.8464 32.556C85.3264 33.132 85.6864 33.82 85.9264 34.62C86.1824 35.42 86.3104 36.3 86.3104 37.26C86.3104 38.268 86.1584 39.18 85.8544 39.996C85.5664 40.796 85.1504 41.476 84.6064 42.036C84.0624 42.596 83.4064 43.028 82.6384 43.332C81.8704 43.636 81.0064 43.788 80.0464 43.788C79.0064 43.788 78.0864 43.716 77.2864 43.572C76.4864 43.428 75.8304 43.284 75.3184 43.14V25.26L77.5504 24.876V31.572ZM77.5504 41.556C77.7744 41.62 78.0864 41.684 78.4864 41.748C78.9024 41.796 79.4144 41.82 80.0224 41.82C81.2224 41.82 82.1824 41.428 82.9024 40.644C83.6224 39.844 83.9824 38.716 83.9824 37.26C83.9824 36.62 83.9184 36.02 83.7904 35.46C83.6624 34.9 83.4544 34.42 83.1664 34.02C82.8784 33.604 82.5024 33.284 82.0384 33.06C81.5904 32.82 81.0464 32.7 80.4064 32.7C79.7984 32.7 79.2384 32.804 78.7264 33.012C78.2144 33.22 77.8224 33.436 77.5504 33.66V41.556ZM87.6826 45.828C87.8586 45.908 88.0826 45.98 88.3546 46.044C88.6426 46.124 88.9226 46.164 89.1946 46.164C90.0746 46.164 90.7626 45.964 91.2586 45.564C91.7546 45.18 92.2026 44.548 92.6026 43.668C91.5946 41.748 90.6506 39.716 89.7706 37.572C88.9066 35.412 88.1866 33.228 87.6106 31.02H90.0106C90.1866 31.74 90.3946 32.516 90.6346 33.348C90.8906 34.18 91.1706 35.036 91.4746 35.916C91.7786 36.796 92.1066 37.676 92.4586 38.556C92.8106 39.436 93.1786 40.284 93.5626 41.1C94.1706 39.42 94.6986 37.756 95.1466 36.108C95.5946 34.46 96.0186 32.764 96.4186 31.02H98.7226C98.1466 33.372 97.5066 35.636 96.8026 37.812C96.0986 39.972 95.3386 41.996 94.5226 43.884C94.2026 44.604 93.8666 45.22 93.5146 45.732C93.1786 46.26 92.8026 46.692 92.3866 47.028C91.9706 47.364 91.4986 47.612 90.9706 47.772C90.4586 47.932 89.8746 48.012 89.2186 48.012C89.0426 48.012 88.8586 47.996 88.6666 47.964C88.4746 47.948 88.2826 47.916 88.0906 47.868C87.9146 47.836 87.7466 47.796 87.5866 47.748C87.4426 47.7 87.3386 47.66 87.2746 47.628L87.6826 45.828ZM103.716 42.204C103.716 42.636 103.572 43.012 103.284 43.332C102.996 43.652 102.604 43.812 102.108 43.812C101.612 43.812 101.22 43.652 100.932 43.332C100.644 43.012 100.5 42.636 100.5 42.204C100.5 41.772 100.644 41.396 100.932 41.076C101.22 40.756 101.612 40.596 102.108 40.596C102.604 40.596 102.996 40.756 103.284 41.076C103.572 41.396 103.716 41.772 103.716 42.204ZM103.716 32.628C103.716 33.06 103.572 33.436 103.284 33.756C102.996 34.076 102.604 34.236 102.108 34.236C101.612 34.236 101.22 34.076 100.932 33.756C100.644 33.436 100.5 33.06 100.5 32.628C100.5 32.196 100.644 31.82 100.932 31.5C101.22 31.18 101.612 31.02 102.108 31.02C102.604 31.02 102.996 31.18 103.284 31.5C103.572 31.82 103.716 32.196 103.716 32.628Z" fill="#343434"/>
</svg>
