<svg width="569" height="339" viewBox="0 0 569 339" fill="none" xmlns="http://www.w3.org/2000/svg">
<path d="M339.303 1C399.72 1.00006 457.663 25.0011 500.385 67.7227C542.871 110.209 566.841 167.749 567.104 227.806H111.5C111.763 167.749 135.734 110.209 178.22 67.7227C220.942 25.0009 278.885 1.00001 339.303 1Z" fill="#FAFAFA" stroke="#343434" stroke-width="2"/>
<path d="M0.00052841 228.247C0.000529672 242.685 2.84417 256.981 8.36908 270.319C13.894 283.657 21.992 295.777 32.2007 305.985C42.4094 316.194 54.5289 324.292 67.8672 329.817C81.2055 335.342 95.5015 338.186 109.939 338.186C124.376 338.186 138.672 335.342 152.01 329.817C165.349 324.292 177.468 316.194 187.677 305.985C197.886 295.777 205.984 283.657 211.508 270.319C217.033 256.98 219.877 242.685 219.877 228.247L109.939 228.247L0.00052841 228.247Z" fill="#FF9500"/>
<path d="M290.961 99H282.875V84.7227H290.961V86.6953H285.219V90.5723H290.6V92.5352H285.219V97.0176H290.961V99ZM296.283 99L292.172 88.1895H294.604L296.83 94.5371C296.973 94.9408 297.104 95.377 297.221 95.8457C297.338 96.3145 297.419 96.7083 297.465 97.0273H297.543C297.589 96.6953 297.676 96.2982 297.807 95.8359C297.937 95.3672 298.07 94.9342 298.207 94.5371L300.434 88.1895H302.855L298.744 99H296.283ZM308.803 87.9844C309.766 87.9844 310.593 88.1829 311.283 88.5801C311.973 88.9772 312.504 89.5404 312.875 90.2695C313.246 90.9987 313.432 91.8711 313.432 92.8867V94.1172H306.215C306.241 95.1654 306.521 95.9727 307.055 96.5391C307.595 97.1055 308.35 97.3887 309.32 97.3887C310.01 97.3887 310.629 97.3236 311.176 97.1934C311.729 97.0566 312.299 96.8581 312.885 96.5977V98.4629C312.344 98.7168 311.794 98.9023 311.234 99.0195C310.674 99.1367 310.004 99.1953 309.223 99.1953C308.161 99.1953 307.227 98.9902 306.42 98.5801C305.619 98.1634 304.991 97.5449 304.535 96.7246C304.086 95.9043 303.861 94.8854 303.861 93.668C303.861 92.457 304.066 91.4284 304.477 90.582C304.887 89.7357 305.463 89.0911 306.205 88.6484C306.947 88.2057 307.813 87.9844 308.803 87.9844ZM308.803 89.7129C308.08 89.7129 307.494 89.9473 307.045 90.416C306.602 90.8848 306.342 91.5716 306.264 92.4766H311.186C311.179 91.9362 311.088 91.4577 310.912 91.041C310.743 90.6243 310.482 90.2988 310.131 90.0645C309.786 89.8301 309.343 89.7129 308.803 89.7129ZM321.498 87.9844C321.68 87.9844 321.879 87.9941 322.094 88.0137C322.309 88.0332 322.494 88.0592 322.65 88.0918L322.436 90.2402C322.299 90.2012 322.13 90.1719 321.928 90.1523C321.732 90.1328 321.557 90.123 321.4 90.123C320.99 90.123 320.6 90.1914 320.229 90.3281C319.857 90.4583 319.529 90.6602 319.242 90.9336C318.956 91.2005 318.731 91.5358 318.568 91.9395C318.406 92.3431 318.324 92.8118 318.324 93.3457V99H316.02V88.1895H317.816L318.129 90.0938H318.236C318.451 89.7096 318.718 89.3581 319.037 89.0391C319.356 88.7201 319.721 88.4661 320.131 88.2773C320.548 88.082 321.003 87.9844 321.498 87.9844ZM323.021 88.1895H325.521L327.738 94.3613C327.836 94.6413 327.924 94.918 328.002 95.1914C328.087 95.4583 328.158 95.722 328.217 95.9824C328.282 96.2428 328.334 96.5033 328.373 96.7637H328.432C328.497 96.4251 328.588 96.0475 328.705 95.6309C328.829 95.2077 328.965 94.7845 329.115 94.3613L331.244 88.1895H333.715L329.076 100.484C328.809 101.188 328.48 101.786 328.09 102.281C327.706 102.783 327.25 103.16 326.723 103.414C326.195 103.674 325.593 103.805 324.916 103.805C324.59 103.805 324.307 103.785 324.066 103.746C323.826 103.714 323.62 103.678 323.451 103.639V101.803C323.588 101.835 323.76 101.865 323.969 101.891C324.177 101.917 324.392 101.93 324.613 101.93C325.023 101.93 325.378 101.848 325.678 101.686C325.977 101.523 326.231 101.292 326.439 100.992C326.648 100.699 326.82 100.364 326.957 99.9863L327.338 98.9707L323.021 88.1895ZM350.121 93.5703C350.121 94.4688 350.004 95.2663 349.77 95.9629C349.535 96.6595 349.193 97.2487 348.744 97.7305C348.295 98.2057 347.755 98.5703 347.123 98.8242C346.492 99.0716 345.779 99.1953 344.984 99.1953C344.242 99.1953 343.562 99.0716 342.943 98.8242C342.325 98.5703 341.788 98.2057 341.332 97.7305C340.883 97.2487 340.535 96.6595 340.287 95.9629C340.04 95.2663 339.916 94.4688 339.916 93.5703C339.916 92.3789 340.121 91.3698 340.531 90.543C340.948 89.7096 341.54 89.0749 342.309 88.6387C343.077 88.2025 343.992 87.9844 345.053 87.9844C346.049 87.9844 346.928 88.2025 347.689 88.6387C348.451 89.0749 349.047 89.7096 349.477 90.543C349.906 91.3763 350.121 92.3854 350.121 93.5703ZM342.279 93.5703C342.279 94.3581 342.374 95.0319 342.562 95.5918C342.758 96.1517 343.057 96.5814 343.461 96.8809C343.865 97.1738 344.385 97.3203 345.023 97.3203C345.661 97.3203 346.182 97.1738 346.586 96.8809C346.99 96.5814 347.286 96.1517 347.475 95.5918C347.663 95.0319 347.758 94.3581 347.758 93.5703C347.758 92.7826 347.663 92.1152 347.475 91.5684C347.286 91.015 346.99 90.5951 346.586 90.3086C346.182 90.0156 345.658 89.8691 345.014 89.8691C344.063 89.8691 343.37 90.1882 342.934 90.8262C342.497 91.4642 342.279 92.3789 342.279 93.5703ZM358.393 87.9844C359.61 87.9844 360.557 88.3001 361.234 88.9316C361.918 89.5566 362.26 90.5625 362.26 91.9492V99H359.965V92.3789C359.965 91.5391 359.792 90.9108 359.447 90.4941C359.102 90.071 358.568 89.8594 357.846 89.8594C356.798 89.8594 356.068 90.1816 355.658 90.8262C355.255 91.4707 355.053 92.4049 355.053 93.6289V99H352.758V88.1895H354.545L354.867 89.6543H354.994C355.229 89.2767 355.518 88.9674 355.863 88.7266C356.215 88.4792 356.605 88.2936 357.035 88.1699C357.471 88.0462 357.924 87.9844 358.393 87.9844ZM369.779 87.9844C370.743 87.9844 371.57 88.1829 372.26 88.5801C372.95 88.9772 373.48 89.5404 373.852 90.2695C374.223 90.9987 374.408 91.8711 374.408 92.8867V94.1172H367.191C367.217 95.1654 367.497 95.9727 368.031 96.5391C368.572 97.1055 369.327 97.3887 370.297 97.3887C370.987 97.3887 371.605 97.3236 372.152 97.1934C372.706 97.0566 373.275 96.8581 373.861 96.5977V98.4629C373.321 98.7168 372.771 98.9023 372.211 99.0195C371.651 99.1367 370.98 99.1953 370.199 99.1953C369.138 99.1953 368.204 98.9902 367.396 98.5801C366.596 98.1634 365.967 97.5449 365.512 96.7246C365.062 95.9043 364.838 94.8854 364.838 93.668C364.838 92.457 365.043 91.4284 365.453 90.582C365.863 89.7357 366.439 89.0911 367.182 88.6484C367.924 88.2057 368.79 87.9844 369.779 87.9844ZM369.779 89.7129C369.057 89.7129 368.471 89.9473 368.021 90.416C367.579 90.8848 367.318 91.5716 367.24 92.4766H372.162C372.156 91.9362 372.064 91.4577 371.889 91.041C371.719 90.6243 371.459 90.2988 371.107 90.0645C370.762 89.8301 370.32 89.7129 369.779 89.7129ZM284.936 110.805V114.623C284.936 115.02 284.923 115.408 284.896 115.785C284.877 116.163 284.854 116.456 284.828 116.664H284.955C285.183 116.286 285.463 115.977 285.795 115.736C286.127 115.489 286.498 115.303 286.908 115.18C287.325 115.056 287.768 114.994 288.236 114.994C289.063 114.994 289.766 115.134 290.346 115.414C290.925 115.688 291.368 116.114 291.674 116.693C291.986 117.273 292.143 118.025 292.143 118.949V126H289.848V119.379C289.848 118.539 289.675 117.911 289.33 117.494C288.985 117.071 288.451 116.859 287.729 116.859C287.032 116.859 286.479 117.006 286.068 117.299C285.665 117.585 285.375 118.012 285.199 118.578C285.023 119.138 284.936 119.822 284.936 120.629V126H282.641V110.805H284.936ZM304.926 120.57C304.926 121.469 304.809 122.266 304.574 122.963C304.34 123.66 303.998 124.249 303.549 124.73C303.1 125.206 302.559 125.57 301.928 125.824C301.296 126.072 300.583 126.195 299.789 126.195C299.047 126.195 298.367 126.072 297.748 125.824C297.13 125.57 296.592 125.206 296.137 124.73C295.688 124.249 295.339 123.66 295.092 122.963C294.844 122.266 294.721 121.469 294.721 120.57C294.721 119.379 294.926 118.37 295.336 117.543C295.753 116.71 296.345 116.075 297.113 115.639C297.882 115.202 298.796 114.984 299.857 114.984C300.854 114.984 301.732 115.202 302.494 115.639C303.256 116.075 303.852 116.71 304.281 117.543C304.711 118.376 304.926 119.385 304.926 120.57ZM297.084 120.57C297.084 121.358 297.178 122.032 297.367 122.592C297.562 123.152 297.862 123.581 298.266 123.881C298.669 124.174 299.19 124.32 299.828 124.32C300.466 124.32 300.987 124.174 301.391 123.881C301.794 123.581 302.09 123.152 302.279 122.592C302.468 122.032 302.562 121.358 302.562 120.57C302.562 119.783 302.468 119.115 302.279 118.568C302.09 118.015 301.794 117.595 301.391 117.309C300.987 117.016 300.463 116.869 299.818 116.869C298.868 116.869 298.174 117.188 297.738 117.826C297.302 118.464 297.084 119.379 297.084 120.57ZM316.986 115.189V126H315.18L314.867 124.545H314.74C314.512 124.916 314.223 125.225 313.871 125.473C313.52 125.714 313.129 125.893 312.699 126.01C312.27 126.133 311.817 126.195 311.342 126.195C310.528 126.195 309.831 126.059 309.252 125.785C308.679 125.505 308.24 125.076 307.934 124.496C307.628 123.917 307.475 123.168 307.475 122.25V115.189H309.779V121.82C309.779 122.66 309.949 123.288 310.287 123.705C310.632 124.122 311.166 124.33 311.889 124.33C312.585 124.33 313.139 124.187 313.549 123.9C313.959 123.614 314.249 123.191 314.418 122.631C314.594 122.071 314.682 121.384 314.682 120.57V115.189H316.986ZM325.756 114.984C325.938 114.984 326.137 114.994 326.352 115.014C326.566 115.033 326.752 115.059 326.908 115.092L326.693 117.24C326.557 117.201 326.387 117.172 326.186 117.152C325.99 117.133 325.814 117.123 325.658 117.123C325.248 117.123 324.857 117.191 324.486 117.328C324.115 117.458 323.786 117.66 323.5 117.934C323.214 118.201 322.989 118.536 322.826 118.939C322.663 119.343 322.582 119.812 322.582 120.346V126H320.277V115.189H322.074L322.387 117.094H322.494C322.709 116.71 322.976 116.358 323.295 116.039C323.614 115.72 323.979 115.466 324.389 115.277C324.805 115.082 325.261 114.984 325.756 114.984ZM336.4 115.189V126H334.105V115.189H336.4ZM335.268 111.049C335.619 111.049 335.922 111.143 336.176 111.332C336.436 111.521 336.566 111.846 336.566 112.309C336.566 112.764 336.436 113.09 336.176 113.285C335.922 113.474 335.619 113.568 335.268 113.568C334.903 113.568 334.594 113.474 334.34 113.285C334.092 113.09 333.969 112.764 333.969 112.309C333.969 111.846 334.092 111.521 334.34 111.332C334.594 111.143 334.903 111.049 335.268 111.049ZM345.326 114.984C346.544 114.984 347.491 115.3 348.168 115.932C348.852 116.557 349.193 117.562 349.193 118.949V126H346.898V119.379C346.898 118.539 346.726 117.911 346.381 117.494C346.036 117.071 345.502 116.859 344.779 116.859C343.731 116.859 343.002 117.182 342.592 117.826C342.188 118.471 341.986 119.405 341.986 120.629V126H339.691V115.189H341.479L341.801 116.654H341.928C342.162 116.277 342.452 115.967 342.797 115.727C343.148 115.479 343.539 115.294 343.969 115.17C344.405 115.046 344.857 114.984 345.326 114.984ZM356.762 126.195C355.74 126.195 354.854 125.997 354.105 125.6C353.357 125.202 352.781 124.594 352.377 123.773C351.973 122.953 351.771 121.911 351.771 120.648C351.771 119.333 351.993 118.259 352.436 117.426C352.878 116.592 353.49 115.977 354.271 115.58C355.059 115.183 355.961 114.984 356.977 114.984C357.621 114.984 358.204 115.049 358.725 115.18C359.252 115.303 359.698 115.456 360.062 115.639L359.379 117.475C358.982 117.312 358.575 117.175 358.158 117.064C357.742 116.954 357.341 116.898 356.957 116.898C356.326 116.898 355.798 117.038 355.375 117.318C354.958 117.598 354.646 118.015 354.438 118.568C354.236 119.122 354.135 119.809 354.135 120.629C354.135 121.423 354.239 122.094 354.447 122.641C354.656 123.181 354.965 123.591 355.375 123.871C355.785 124.145 356.29 124.281 356.889 124.281C357.481 124.281 358.012 124.21 358.48 124.066C358.949 123.923 359.392 123.738 359.809 123.51V125.502C359.398 125.736 358.959 125.909 358.49 126.02C358.021 126.137 357.445 126.195 356.762 126.195ZM367.826 114.984C368.008 114.984 368.207 114.994 368.422 115.014C368.637 115.033 368.822 115.059 368.979 115.092L368.764 117.24C368.627 117.201 368.458 117.172 368.256 117.152C368.061 117.133 367.885 117.123 367.729 117.123C367.318 117.123 366.928 117.191 366.557 117.328C366.186 117.458 365.857 117.66 365.57 117.934C365.284 118.201 365.059 118.536 364.896 118.939C364.734 119.343 364.652 119.812 364.652 120.346V126H362.348V115.189H364.145L364.457 117.094H364.564C364.779 116.71 365.046 116.358 365.365 116.039C365.684 115.72 366.049 115.466 366.459 115.277C366.876 115.082 367.331 114.984 367.826 114.984ZM375.287 114.984C376.251 114.984 377.077 115.183 377.768 115.58C378.458 115.977 378.988 116.54 379.359 117.27C379.73 117.999 379.916 118.871 379.916 119.887V121.117H372.699C372.725 122.165 373.005 122.973 373.539 123.539C374.079 124.105 374.835 124.389 375.805 124.389C376.495 124.389 377.113 124.324 377.66 124.193C378.214 124.057 378.783 123.858 379.369 123.598V125.463C378.829 125.717 378.279 125.902 377.719 126.02C377.159 126.137 376.488 126.195 375.707 126.195C374.646 126.195 373.712 125.99 372.904 125.58C372.104 125.163 371.475 124.545 371.02 123.725C370.57 122.904 370.346 121.885 370.346 120.668C370.346 119.457 370.551 118.428 370.961 117.582C371.371 116.736 371.947 116.091 372.689 115.648C373.432 115.206 374.298 114.984 375.287 114.984ZM375.287 116.713C374.564 116.713 373.979 116.947 373.529 117.416C373.087 117.885 372.826 118.572 372.748 119.477H377.67C377.663 118.936 377.572 118.458 377.396 118.041C377.227 117.624 376.967 117.299 376.615 117.064C376.27 116.83 375.827 116.713 375.287 116.713ZM386.742 114.984C388.109 114.984 389.141 115.287 389.838 115.893C390.541 116.498 390.893 117.442 390.893 118.725V126H389.262L388.822 124.467H388.744C388.438 124.857 388.122 125.18 387.797 125.434C387.471 125.688 387.094 125.876 386.664 126C386.241 126.13 385.723 126.195 385.111 126.195C384.467 126.195 383.891 126.078 383.383 125.844C382.875 125.603 382.475 125.238 382.182 124.75C381.889 124.262 381.742 123.643 381.742 122.895C381.742 121.781 382.156 120.945 382.982 120.385C383.816 119.825 385.072 119.516 386.752 119.457L388.627 119.389V118.822C388.627 118.074 388.451 117.54 388.1 117.221C387.755 116.902 387.266 116.742 386.635 116.742C386.094 116.742 385.57 116.82 385.062 116.977C384.555 117.133 384.06 117.325 383.578 117.553L382.836 115.932C383.363 115.652 383.962 115.424 384.633 115.248C385.31 115.072 386.013 114.984 386.742 114.984ZM388.617 120.834L387.221 120.883C386.075 120.922 385.271 121.117 384.809 121.469C384.346 121.82 384.115 122.302 384.115 122.914C384.115 123.448 384.275 123.839 384.594 124.086C384.913 124.327 385.333 124.447 385.854 124.447C386.648 124.447 387.305 124.223 387.826 123.773C388.354 123.318 388.617 122.65 388.617 121.771V120.834ZM401.371 122.914C401.371 123.624 401.199 124.223 400.854 124.711C400.508 125.199 400.004 125.57 399.34 125.824C398.682 126.072 397.875 126.195 396.918 126.195C396.163 126.195 395.512 126.14 394.965 126.029C394.424 125.925 393.913 125.762 393.432 125.541V123.559C393.946 123.799 394.522 124.008 395.16 124.184C395.805 124.359 396.413 124.447 396.986 124.447C397.742 124.447 398.285 124.33 398.617 124.096C398.949 123.855 399.115 123.536 399.115 123.139C399.115 122.904 399.047 122.696 398.91 122.514C398.78 122.325 398.533 122.133 398.168 121.938C397.81 121.736 397.283 121.495 396.586 121.215C395.902 120.941 395.326 120.668 394.857 120.395C394.389 120.121 394.034 119.792 393.793 119.408C393.552 119.018 393.432 118.52 393.432 117.914C393.432 116.957 393.809 116.231 394.564 115.736C395.326 115.235 396.332 114.984 397.582 114.984C398.246 114.984 398.871 115.053 399.457 115.189C400.049 115.32 400.629 115.512 401.195 115.766L400.473 117.494C399.984 117.279 399.493 117.104 398.998 116.967C398.51 116.824 398.012 116.752 397.504 116.752C396.911 116.752 396.459 116.843 396.146 117.025C395.84 117.208 395.688 117.468 395.688 117.807C395.688 118.061 395.762 118.275 395.912 118.451C396.062 118.627 396.319 118.803 396.684 118.979C397.055 119.154 397.569 119.372 398.227 119.633C398.871 119.88 399.428 120.141 399.896 120.414C400.372 120.681 400.736 121.01 400.99 121.4C401.244 121.791 401.371 122.296 401.371 122.914ZM408.158 114.984C409.122 114.984 409.949 115.183 410.639 115.58C411.329 115.977 411.859 116.54 412.23 117.27C412.602 117.999 412.787 118.871 412.787 119.887V121.117H405.57C405.596 122.165 405.876 122.973 406.41 123.539C406.951 124.105 407.706 124.389 408.676 124.389C409.366 124.389 409.984 124.324 410.531 124.193C411.085 124.057 411.654 123.858 412.24 123.598V125.463C411.7 125.717 411.15 125.902 410.59 126.02C410.03 126.137 409.359 126.195 408.578 126.195C407.517 126.195 406.583 125.99 405.775 125.58C404.975 125.163 404.346 124.545 403.891 123.725C403.441 122.904 403.217 121.885 403.217 120.668C403.217 119.457 403.422 118.428 403.832 117.582C404.242 116.736 404.818 116.091 405.561 115.648C406.303 115.206 407.169 114.984 408.158 114.984ZM408.158 116.713C407.436 116.713 406.85 116.947 406.4 117.416C405.958 117.885 405.697 118.572 405.619 119.477H410.541C410.535 118.936 410.443 118.458 410.268 118.041C410.098 117.624 409.838 117.299 409.486 117.064C409.141 116.83 408.699 116.713 408.158 116.713ZM292.211 147.57C292.211 148.469 292.094 149.266 291.859 149.963C291.625 150.66 291.283 151.249 290.834 151.73C290.385 152.206 289.844 152.57 289.213 152.824C288.581 153.072 287.868 153.195 287.074 153.195C286.332 153.195 285.652 153.072 285.033 152.824C284.415 152.57 283.878 152.206 283.422 151.73C282.973 151.249 282.624 150.66 282.377 149.963C282.13 149.266 282.006 148.469 282.006 147.57C282.006 146.379 282.211 145.37 282.621 144.543C283.038 143.71 283.63 143.075 284.398 142.639C285.167 142.202 286.081 141.984 287.143 141.984C288.139 141.984 289.018 142.202 289.779 142.639C290.541 143.075 291.137 143.71 291.566 144.543C291.996 145.376 292.211 146.385 292.211 147.57ZM284.369 147.57C284.369 148.358 284.464 149.032 284.652 149.592C284.848 150.152 285.147 150.581 285.551 150.881C285.954 151.174 286.475 151.32 287.113 151.32C287.751 151.32 288.272 151.174 288.676 150.881C289.079 150.581 289.376 150.152 289.564 149.592C289.753 149.032 289.848 148.358 289.848 147.57C289.848 146.783 289.753 146.115 289.564 145.568C289.376 145.015 289.079 144.595 288.676 144.309C288.272 144.016 287.748 143.869 287.104 143.869C286.153 143.869 285.46 144.188 285.023 144.826C284.587 145.464 284.369 146.379 284.369 147.57ZM300.248 143.938H297.621V153H295.326V143.938H293.559V142.834L295.326 142.16V141.408C295.326 140.49 295.469 139.761 295.756 139.221C296.049 138.68 296.465 138.293 297.006 138.059C297.553 137.818 298.204 137.697 298.959 137.697C299.454 137.697 299.906 137.74 300.316 137.824C300.727 137.902 301.072 137.993 301.352 138.098L300.756 139.836C300.535 139.764 300.287 139.699 300.014 139.641C299.74 139.576 299.447 139.543 299.135 139.543C298.614 139.543 298.23 139.706 297.982 140.031C297.742 140.357 297.621 140.832 297.621 141.457V142.189H300.248V143.938ZM312.836 141.984C314.118 141.984 315.147 142.453 315.922 143.391C316.703 144.328 317.094 145.721 317.094 147.57C317.094 148.794 316.911 149.826 316.547 150.666C316.189 151.499 315.684 152.131 315.033 152.561C314.389 152.984 313.637 153.195 312.777 153.195C312.23 153.195 311.755 153.124 311.352 152.98C310.948 152.837 310.603 152.652 310.316 152.424C310.03 152.189 309.789 151.936 309.594 151.662H309.457C309.49 151.923 309.519 152.212 309.545 152.531C309.577 152.844 309.594 153.13 309.594 153.391V157.795H307.289V142.189H309.164L309.486 143.684H309.594C309.796 143.378 310.04 143.094 310.326 142.834C310.619 142.574 310.971 142.368 311.381 142.219C311.798 142.062 312.283 141.984 312.836 141.984ZM312.221 143.859C311.589 143.859 311.081 143.986 310.697 144.24C310.32 144.488 310.043 144.862 309.867 145.363C309.698 145.865 309.607 146.493 309.594 147.248V147.57C309.594 148.371 309.675 149.051 309.838 149.611C310.007 150.165 310.284 150.588 310.668 150.881C311.059 151.167 311.586 151.311 312.25 151.311C312.81 151.311 313.272 151.158 313.637 150.852C314.008 150.546 314.285 150.109 314.467 149.543C314.649 148.977 314.74 148.309 314.74 147.541C314.74 146.376 314.532 145.471 314.115 144.826C313.705 144.182 313.074 143.859 312.221 143.859ZM323.988 141.984C325.355 141.984 326.387 142.287 327.084 142.893C327.787 143.498 328.139 144.442 328.139 145.725V153H326.508L326.068 151.467H325.99C325.684 151.857 325.368 152.18 325.043 152.434C324.717 152.688 324.34 152.876 323.91 153C323.487 153.13 322.969 153.195 322.357 153.195C321.713 153.195 321.137 153.078 320.629 152.844C320.121 152.603 319.721 152.238 319.428 151.75C319.135 151.262 318.988 150.643 318.988 149.895C318.988 148.781 319.402 147.945 320.229 147.385C321.062 146.825 322.318 146.516 323.998 146.457L325.873 146.389V145.822C325.873 145.074 325.697 144.54 325.346 144.221C325.001 143.902 324.512 143.742 323.881 143.742C323.34 143.742 322.816 143.82 322.309 143.977C321.801 144.133 321.306 144.325 320.824 144.553L320.082 142.932C320.609 142.652 321.208 142.424 321.879 142.248C322.556 142.072 323.259 141.984 323.988 141.984ZM325.863 147.834L324.467 147.883C323.321 147.922 322.517 148.117 322.055 148.469C321.592 148.82 321.361 149.302 321.361 149.914C321.361 150.448 321.521 150.839 321.84 151.086C322.159 151.327 322.579 151.447 323.1 151.447C323.894 151.447 324.551 151.223 325.072 150.773C325.6 150.318 325.863 149.65 325.863 148.771V147.834ZM333.646 142.189V153H331.352V142.189H333.646ZM332.514 138.049C332.865 138.049 333.168 138.143 333.422 138.332C333.682 138.521 333.812 138.846 333.812 139.309C333.812 139.764 333.682 140.09 333.422 140.285C333.168 140.474 332.865 140.568 332.514 140.568C332.149 140.568 331.84 140.474 331.586 140.285C331.339 140.09 331.215 139.764 331.215 139.309C331.215 138.846 331.339 138.521 331.586 138.332C331.84 138.143 332.149 138.049 332.514 138.049ZM340.57 153.195C339.281 153.195 338.246 152.727 337.465 151.789C336.69 150.845 336.303 149.455 336.303 147.619C336.303 145.764 336.697 144.361 337.484 143.41C338.279 142.46 339.324 141.984 340.619 141.984C341.166 141.984 341.645 142.059 342.055 142.209C342.465 142.352 342.816 142.548 343.109 142.795C343.409 143.042 343.663 143.319 343.871 143.625H343.979C343.946 143.423 343.907 143.133 343.861 142.756C343.822 142.372 343.803 142.017 343.803 141.691V137.805H346.107V153H344.311L343.9 151.525H343.803C343.607 151.838 343.36 152.121 343.061 152.375C342.768 152.622 342.416 152.821 342.006 152.971C341.602 153.12 341.124 153.195 340.57 153.195ZM341.215 151.33C342.198 151.33 342.891 151.047 343.295 150.48C343.699 149.914 343.907 149.064 343.92 147.932V147.629C343.92 146.418 343.725 145.49 343.334 144.846C342.943 144.195 342.23 143.869 341.195 143.869C340.368 143.869 339.737 144.204 339.301 144.875C338.871 145.539 338.656 146.467 338.656 147.658C338.656 148.85 338.871 149.761 339.301 150.393C339.737 151.018 340.375 151.33 341.215 151.33ZM363.432 152.99L362.064 147.961C361.999 147.714 361.921 147.414 361.83 147.062C361.739 146.711 361.648 146.35 361.557 145.979C361.465 145.601 361.381 145.253 361.303 144.934C361.231 144.615 361.176 144.367 361.137 144.191H361.059C361.026 144.367 360.974 144.615 360.902 144.934C360.831 145.253 360.749 145.601 360.658 145.979C360.567 146.356 360.476 146.724 360.385 147.082C360.3 147.44 360.222 147.746 360.15 148L358.715 152.99H356.195L353.168 142.18H355.492L356.898 147.551C356.99 147.915 357.077 148.309 357.162 148.732C357.253 149.156 357.331 149.559 357.396 149.943C357.462 150.327 357.51 150.643 357.543 150.891H357.621C357.647 150.715 357.683 150.493 357.729 150.227C357.774 149.953 357.826 149.67 357.885 149.377C357.943 149.077 358.002 148.798 358.061 148.537C358.119 148.27 358.174 148.055 358.227 147.893L359.887 142.18H362.396L363.988 147.893C364.06 148.14 364.138 148.452 364.223 148.83C364.307 149.201 364.382 149.576 364.447 149.953C364.519 150.324 364.564 150.633 364.584 150.881H364.662C364.688 150.66 364.734 150.36 364.799 149.982C364.87 149.598 364.952 149.191 365.043 148.762C365.134 148.326 365.229 147.922 365.326 147.551L366.762 142.18H369.047L366 152.99H363.432ZM380.473 147.57C380.473 148.469 380.355 149.266 380.121 149.963C379.887 150.66 379.545 151.249 379.096 151.73C378.646 152.206 378.106 152.57 377.475 152.824C376.843 153.072 376.13 153.195 375.336 153.195C374.594 153.195 373.913 153.072 373.295 152.824C372.676 152.57 372.139 152.206 371.684 151.73C371.234 151.249 370.886 150.66 370.639 149.963C370.391 149.266 370.268 148.469 370.268 147.57C370.268 146.379 370.473 145.37 370.883 144.543C371.299 143.71 371.892 143.075 372.66 142.639C373.428 142.202 374.343 141.984 375.404 141.984C376.4 141.984 377.279 142.202 378.041 142.639C378.803 143.075 379.398 143.71 379.828 144.543C380.258 145.376 380.473 146.385 380.473 147.57ZM372.631 147.57C372.631 148.358 372.725 149.032 372.914 149.592C373.109 150.152 373.409 150.581 373.812 150.881C374.216 151.174 374.737 151.32 375.375 151.32C376.013 151.32 376.534 151.174 376.938 150.881C377.341 150.581 377.637 150.152 377.826 149.592C378.015 149.032 378.109 148.358 378.109 147.57C378.109 146.783 378.015 146.115 377.826 145.568C377.637 145.015 377.341 144.595 376.938 144.309C376.534 144.016 376.01 143.869 375.365 143.869C374.415 143.869 373.721 144.188 373.285 144.826C372.849 145.464 372.631 146.379 372.631 147.57ZM388.588 141.984C388.77 141.984 388.969 141.994 389.184 142.014C389.398 142.033 389.584 142.059 389.74 142.092L389.525 144.24C389.389 144.201 389.219 144.172 389.018 144.152C388.822 144.133 388.646 144.123 388.49 144.123C388.08 144.123 387.689 144.191 387.318 144.328C386.947 144.458 386.618 144.66 386.332 144.934C386.046 145.201 385.821 145.536 385.658 145.939C385.495 146.343 385.414 146.812 385.414 147.346V153H383.109V142.189H384.906L385.219 144.094H385.326C385.541 143.71 385.808 143.358 386.127 143.039C386.446 142.72 386.811 142.466 387.221 142.277C387.637 142.082 388.093 141.984 388.588 141.984ZM394.037 137.805V145.148C394.037 145.48 394.024 145.845 393.998 146.242C393.972 146.633 393.946 147.001 393.92 147.346H393.969C394.138 147.118 394.34 146.851 394.574 146.545C394.815 146.239 395.043 145.972 395.258 145.744L398.559 142.189H401.195L396.869 146.838L401.479 153H398.783L395.326 148.254L394.037 149.357V153H391.742V137.805H394.037Z" fill="#343434"/>
<path d="M70.1182 258H68.2744V250.648C68.2744 250.404 68.277 250.159 68.2822 249.914C68.2874 249.669 68.2926 249.43 68.2979 249.195C68.3083 248.961 68.3213 248.737 68.3369 248.523C68.2275 248.643 68.0921 248.773 67.9307 248.914C67.7744 249.055 67.6077 249.201 67.4307 249.352L66.1182 250.398L65.1963 249.234L68.5869 246.578H70.1182V258ZM81.6104 252.281C81.6104 253.203 81.5374 254.029 81.3916 254.758C81.251 255.482 81.027 256.096 80.7197 256.602C80.4124 257.107 80.0114 257.492 79.5166 257.758C79.0218 258.023 78.4229 258.156 77.7197 258.156C76.8395 258.156 76.113 257.924 75.54 257.461C74.9671 256.992 74.5426 256.32 74.2666 255.445C73.9906 254.565 73.8525 253.51 73.8525 252.281C73.8525 251.052 73.9775 250 74.2275 249.125C74.4827 248.245 74.8942 247.57 75.4619 247.102C76.0296 246.633 76.7822 246.398 77.7197 246.398C78.6051 246.398 79.3343 246.633 79.9072 247.102C80.4854 247.565 80.9124 248.237 81.1885 249.117C81.4697 249.992 81.6104 251.047 81.6104 252.281ZM75.7041 252.281C75.7041 253.245 75.7666 254.049 75.8916 254.695C76.0218 255.341 76.2354 255.826 76.5322 256.148C76.8291 256.466 77.2249 256.625 77.7197 256.625C78.2145 256.625 78.6104 256.466 78.9072 256.148C79.2041 255.831 79.4176 255.349 79.5479 254.703C79.6833 254.057 79.751 253.25 79.751 252.281C79.751 251.323 79.6859 250.521 79.5557 249.875C79.4255 249.229 79.2119 248.745 78.915 248.422C78.6182 248.094 78.2197 247.93 77.7197 247.93C77.2197 247.93 76.8213 248.094 76.5244 248.422C76.2327 248.745 76.0218 249.229 75.8916 249.875C75.7666 250.521 75.7041 251.323 75.7041 252.281ZM97.5557 249.188C98.5244 249.188 99.2536 249.438 99.7432 249.938C100.238 250.438 100.485 251.24 100.485 252.344V258H98.6494V252.672C98.6494 252.016 98.5218 251.521 98.2666 251.188C98.0114 250.854 97.6234 250.688 97.1025 250.688C96.3734 250.688 95.8473 250.922 95.5244 251.391C95.2067 251.854 95.0479 252.529 95.0479 253.414V258H93.2119V252.672C93.2119 252.234 93.1546 251.87 93.04 251.578C92.9307 251.281 92.7614 251.06 92.5322 250.914C92.3031 250.763 92.014 250.688 91.665 250.688C91.1598 250.688 90.7562 250.802 90.4541 251.031C90.1572 251.26 89.9437 251.599 89.8135 252.047C89.6833 252.49 89.6182 253.034 89.6182 253.68V258H87.7822V249.352H89.2119L89.4697 250.516H89.5713C89.7484 250.214 89.9671 249.966 90.2275 249.773C90.4932 249.576 90.7874 249.43 91.1104 249.336C91.4333 249.237 91.7692 249.188 92.1182 249.188C92.764 249.188 93.3083 249.302 93.751 249.531C94.1937 249.755 94.5244 250.099 94.7432 250.562H94.8838C95.1546 250.094 95.5322 249.747 96.0166 249.523C96.501 249.299 97.014 249.188 97.5557 249.188ZM104.884 249.352V258H103.048V249.352H104.884ZM103.978 246.039C104.259 246.039 104.501 246.115 104.704 246.266C104.912 246.417 105.017 246.677 105.017 247.047C105.017 247.411 104.912 247.672 104.704 247.828C104.501 247.979 104.259 248.055 103.978 248.055C103.686 248.055 103.438 247.979 103.235 247.828C103.037 247.672 102.938 247.411 102.938 247.047C102.938 246.677 103.037 246.417 103.235 246.266C103.438 246.115 103.686 246.039 103.978 246.039ZM112.024 249.188C112.998 249.188 113.756 249.44 114.298 249.945C114.845 250.445 115.118 251.25 115.118 252.359V258H113.282V252.703C113.282 252.031 113.144 251.529 112.868 251.195C112.592 250.857 112.165 250.688 111.587 250.688C110.748 250.688 110.165 250.945 109.837 251.461C109.514 251.977 109.353 252.724 109.353 253.703V258H107.517V249.352H108.946L109.204 250.523H109.306C109.493 250.221 109.725 249.974 110.001 249.781C110.282 249.583 110.595 249.435 110.938 249.336C111.287 249.237 111.649 249.188 112.024 249.188ZM125.228 249.352V258H123.782L123.532 256.836H123.431C123.248 257.133 123.017 257.38 122.735 257.578C122.454 257.771 122.142 257.914 121.798 258.008C121.454 258.107 121.092 258.156 120.712 258.156C120.061 258.156 119.504 258.047 119.04 257.828C118.582 257.604 118.23 257.26 117.985 256.797C117.741 256.333 117.618 255.734 117.618 255V249.352H119.462V254.656C119.462 255.328 119.597 255.831 119.868 256.164C120.144 256.497 120.571 256.664 121.149 256.664C121.707 256.664 122.149 256.549 122.478 256.32C122.806 256.091 123.037 255.753 123.173 255.305C123.313 254.857 123.384 254.307 123.384 253.656V249.352H125.228ZM131.079 256.672C131.319 256.672 131.556 256.651 131.79 256.609C132.024 256.562 132.238 256.508 132.431 256.445V257.836C132.228 257.924 131.965 258 131.642 258.062C131.319 258.125 130.983 258.156 130.634 258.156C130.144 258.156 129.704 258.076 129.313 257.914C128.923 257.747 128.613 257.464 128.384 257.062C128.155 256.661 128.04 256.107 128.04 255.398V250.75H126.86V249.93L128.126 249.281L128.728 247.43H129.884V249.352H132.36V250.75H129.884V255.375C129.884 255.812 129.993 256.138 130.212 256.352C130.431 256.565 130.72 256.672 131.079 256.672ZM137.634 249.188C138.405 249.188 139.066 249.346 139.618 249.664C140.17 249.982 140.595 250.432 140.892 251.016C141.188 251.599 141.337 252.297 141.337 253.109V254.094H135.563C135.584 254.932 135.808 255.578 136.235 256.031C136.668 256.484 137.272 256.711 138.048 256.711C138.6 256.711 139.095 256.659 139.532 256.555C139.975 256.445 140.431 256.286 140.899 256.078V257.57C140.467 257.773 140.027 257.922 139.579 258.016C139.131 258.109 138.595 258.156 137.97 258.156C137.121 258.156 136.373 257.992 135.728 257.664C135.087 257.331 134.584 256.836 134.22 256.18C133.86 255.523 133.681 254.708 133.681 253.734C133.681 252.766 133.845 251.943 134.173 251.266C134.501 250.589 134.962 250.073 135.556 249.719C136.149 249.365 136.842 249.188 137.634 249.188ZM137.634 250.57C137.056 250.57 136.587 250.758 136.228 251.133C135.873 251.508 135.665 252.057 135.603 252.781H139.54C139.535 252.349 139.462 251.966 139.321 251.633C139.186 251.299 138.978 251.039 138.696 250.852C138.42 250.664 138.066 250.57 137.634 250.57ZM149.22 255.531C149.22 256.099 149.082 256.578 148.806 256.969C148.53 257.359 148.126 257.656 147.595 257.859C147.069 258.057 146.423 258.156 145.657 258.156C145.053 258.156 144.532 258.112 144.095 258.023C143.662 257.94 143.254 257.81 142.868 257.633V256.047C143.28 256.24 143.741 256.406 144.251 256.547C144.767 256.688 145.254 256.758 145.712 256.758C146.316 256.758 146.751 256.664 147.017 256.477C147.282 256.284 147.415 256.029 147.415 255.711C147.415 255.523 147.36 255.357 147.251 255.211C147.147 255.06 146.949 254.906 146.657 254.75C146.371 254.589 145.949 254.396 145.392 254.172C144.845 253.953 144.384 253.734 144.009 253.516C143.634 253.297 143.35 253.034 143.157 252.727C142.965 252.414 142.868 252.016 142.868 251.531C142.868 250.766 143.17 250.185 143.774 249.789C144.384 249.388 145.188 249.188 146.188 249.188C146.72 249.188 147.22 249.242 147.688 249.352C148.162 249.456 148.626 249.609 149.079 249.812L148.501 251.195C148.11 251.023 147.717 250.883 147.321 250.773C146.931 250.659 146.532 250.602 146.126 250.602C145.652 250.602 145.29 250.674 145.04 250.82C144.795 250.966 144.673 251.174 144.673 251.445C144.673 251.648 144.733 251.82 144.853 251.961C144.972 252.102 145.178 252.242 145.47 252.383C145.767 252.523 146.178 252.698 146.704 252.906C147.22 253.104 147.665 253.312 148.04 253.531C148.42 253.745 148.712 254.008 148.915 254.32C149.118 254.633 149.22 255.036 149.22 255.531ZM67.1572 280H65.3135V267.844H67.1572V280ZM73.2275 271.188C73.9984 271.188 74.6598 271.346 75.2119 271.664C75.764 271.982 76.1885 272.432 76.4854 273.016C76.7822 273.599 76.9307 274.297 76.9307 275.109V276.094H71.1572C71.1781 276.932 71.402 277.578 71.8291 278.031C72.2614 278.484 72.8656 278.711 73.6416 278.711C74.1937 278.711 74.6885 278.659 75.126 278.555C75.5687 278.445 76.0244 278.286 76.4932 278.078V279.57C76.0609 279.773 75.6208 279.922 75.1729 280.016C74.7249 280.109 74.1885 280.156 73.5635 280.156C72.7145 280.156 71.9671 279.992 71.3213 279.664C70.6807 279.331 70.1781 278.836 69.8135 278.18C69.4541 277.523 69.2744 276.708 69.2744 275.734C69.2744 274.766 69.4385 273.943 69.7666 273.266C70.0947 272.589 70.5557 272.073 71.1494 271.719C71.7432 271.365 72.4359 271.188 73.2275 271.188ZM73.2275 272.57C72.6494 272.57 72.1807 272.758 71.8213 273.133C71.4671 273.508 71.2588 274.057 71.1963 274.781H75.1338C75.1286 274.349 75.0557 273.966 74.915 273.633C74.7796 273.299 74.5713 273.039 74.29 272.852C74.014 272.664 73.6598 272.57 73.2275 272.57ZM84.8135 277.531C84.8135 278.099 84.6755 278.578 84.3994 278.969C84.1234 279.359 83.7197 279.656 83.1885 279.859C82.6624 280.057 82.0166 280.156 81.251 280.156C80.6468 280.156 80.126 280.112 79.6885 280.023C79.2562 279.94 78.8473 279.81 78.4619 279.633V278.047C78.8734 278.24 79.3343 278.406 79.8447 278.547C80.3604 278.688 80.8473 278.758 81.3057 278.758C81.9098 278.758 82.3447 278.664 82.6104 278.477C82.876 278.284 83.0088 278.029 83.0088 277.711C83.0088 277.523 82.9541 277.357 82.8447 277.211C82.7406 277.06 82.5426 276.906 82.251 276.75C81.9645 276.589 81.5426 276.396 80.9854 276.172C80.4385 275.953 79.9775 275.734 79.6025 275.516C79.2275 275.297 78.9437 275.034 78.751 274.727C78.5583 274.414 78.4619 274.016 78.4619 273.531C78.4619 272.766 78.764 272.185 79.3682 271.789C79.9775 271.388 80.7822 271.188 81.7822 271.188C82.3135 271.188 82.8135 271.242 83.2822 271.352C83.7562 271.456 84.2197 271.609 84.6729 271.812L84.0947 273.195C83.7041 273.023 83.3109 272.883 82.915 272.773C82.5244 272.659 82.126 272.602 81.7197 272.602C81.2458 272.602 80.8838 272.674 80.6338 272.82C80.389 272.966 80.2666 273.174 80.2666 273.445C80.2666 273.648 80.3265 273.82 80.4463 273.961C80.5661 274.102 80.7718 274.242 81.0635 274.383C81.3604 274.523 81.7718 274.698 82.2979 274.906C82.8135 275.104 83.2588 275.312 83.6338 275.531C84.014 275.745 84.3057 276.008 84.5088 276.32C84.7119 276.633 84.8135 277.036 84.8135 277.531ZM92.6104 277.531C92.6104 278.099 92.4723 278.578 92.1963 278.969C91.9202 279.359 91.5166 279.656 90.9854 279.859C90.4593 280.057 89.8135 280.156 89.0479 280.156C88.4437 280.156 87.9229 280.112 87.4854 280.023C87.0531 279.94 86.6442 279.81 86.2588 279.633V278.047C86.6702 278.24 87.1312 278.406 87.6416 278.547C88.1572 278.688 88.6442 278.758 89.1025 278.758C89.7067 278.758 90.1416 278.664 90.4072 278.477C90.6729 278.284 90.8057 278.029 90.8057 277.711C90.8057 277.523 90.751 277.357 90.6416 277.211C90.5374 277.06 90.3395 276.906 90.0479 276.75C89.7614 276.589 89.3395 276.396 88.7822 276.172C88.2354 275.953 87.7744 275.734 87.3994 275.516C87.0244 275.297 86.7406 275.034 86.5479 274.727C86.3551 274.414 86.2588 274.016 86.2588 273.531C86.2588 272.766 86.5609 272.185 87.165 271.789C87.7744 271.388 88.5791 271.188 89.5791 271.188C90.1104 271.188 90.6104 271.242 91.0791 271.352C91.5531 271.456 92.0166 271.609 92.4697 271.812L91.8916 273.195C91.501 273.023 91.1077 272.883 90.7119 272.773C90.3213 272.659 89.9229 272.602 89.5166 272.602C89.0426 272.602 88.6807 272.674 88.4307 272.82C88.1859 272.966 88.0635 273.174 88.0635 273.445C88.0635 273.648 88.1234 273.82 88.2432 273.961C88.363 274.102 88.5687 274.242 88.8604 274.383C89.1572 274.523 89.5687 274.698 90.0947 274.906C90.6104 275.104 91.0557 275.312 91.4307 275.531C91.8109 275.745 92.1025 276.008 92.3057 276.32C92.5088 276.633 92.6104 277.036 92.6104 277.531ZM104.563 277.531C104.563 278.099 104.425 278.578 104.149 278.969C103.873 279.359 103.47 279.656 102.938 279.859C102.412 280.057 101.767 280.156 101.001 280.156C100.397 280.156 99.876 280.112 99.4385 280.023C99.0062 279.94 98.5973 279.81 98.2119 279.633V278.047C98.6234 278.24 99.0843 278.406 99.5947 278.547C100.11 278.688 100.597 278.758 101.056 278.758C101.66 278.758 102.095 278.664 102.36 278.477C102.626 278.284 102.759 278.029 102.759 277.711C102.759 277.523 102.704 277.357 102.595 277.211C102.491 277.06 102.293 276.906 102.001 276.75C101.715 276.589 101.293 276.396 100.735 276.172C100.188 275.953 99.7275 275.734 99.3525 275.516C98.9775 275.297 98.6937 275.034 98.501 274.727C98.3083 274.414 98.2119 274.016 98.2119 273.531C98.2119 272.766 98.514 272.185 99.1182 271.789C99.7275 271.388 100.532 271.188 101.532 271.188C102.063 271.188 102.563 271.242 103.032 271.352C103.506 271.456 103.97 271.609 104.423 271.812L103.845 273.195C103.454 273.023 103.061 272.883 102.665 272.773C102.274 272.659 101.876 272.602 101.47 272.602C100.996 272.602 100.634 272.674 100.384 272.82C100.139 272.966 100.017 273.174 100.017 273.445C100.017 273.648 100.076 273.82 100.196 273.961C100.316 274.102 100.522 274.242 100.813 274.383C101.11 274.523 101.522 274.698 102.048 274.906C102.563 275.104 103.009 275.312 103.384 275.531C103.764 275.745 104.056 276.008 104.259 276.32C104.462 276.633 104.563 277.036 104.563 277.531ZM110.985 271.188C112.011 271.188 112.834 271.562 113.454 272.312C114.079 273.062 114.392 274.177 114.392 275.656C114.392 276.635 114.246 277.461 113.954 278.133C113.668 278.799 113.264 279.305 112.743 279.648C112.228 279.987 111.626 280.156 110.938 280.156C110.501 280.156 110.121 280.099 109.798 279.984C109.475 279.87 109.199 279.721 108.97 279.539C108.741 279.352 108.548 279.148 108.392 278.93H108.282C108.308 279.138 108.332 279.37 108.353 279.625C108.379 279.875 108.392 280.104 108.392 280.312V283.836H106.548V271.352H108.048L108.306 272.547H108.392C108.553 272.302 108.748 272.076 108.978 271.867C109.212 271.659 109.493 271.495 109.821 271.375C110.155 271.25 110.543 271.188 110.985 271.188ZM110.493 272.688C109.988 272.688 109.582 272.789 109.274 272.992C108.972 273.19 108.751 273.49 108.61 273.891C108.475 274.292 108.402 274.794 108.392 275.398V275.656C108.392 276.297 108.457 276.841 108.587 277.289C108.722 277.732 108.944 278.07 109.251 278.305C109.563 278.534 109.985 278.648 110.517 278.648C110.965 278.648 111.334 278.526 111.626 278.281C111.923 278.036 112.144 277.688 112.29 277.234C112.436 276.781 112.509 276.247 112.509 275.633C112.509 274.701 112.342 273.977 112.009 273.461C111.681 272.945 111.175 272.688 110.493 272.688ZM119.962 271.188C120.733 271.188 121.394 271.346 121.946 271.664C122.498 271.982 122.923 272.432 123.22 273.016C123.517 273.599 123.665 274.297 123.665 275.109V276.094H117.892C117.912 276.932 118.136 277.578 118.563 278.031C118.996 278.484 119.6 278.711 120.376 278.711C120.928 278.711 121.423 278.659 121.86 278.555C122.303 278.445 122.759 278.286 123.228 278.078V279.57C122.795 279.773 122.355 279.922 121.907 280.016C121.459 280.109 120.923 280.156 120.298 280.156C119.449 280.156 118.701 279.992 118.056 279.664C117.415 279.331 116.912 278.836 116.548 278.18C116.188 277.523 116.009 276.708 116.009 275.734C116.009 274.766 116.173 273.943 116.501 273.266C116.829 272.589 117.29 272.073 117.884 271.719C118.478 271.365 119.17 271.188 119.962 271.188ZM119.962 272.57C119.384 272.57 118.915 272.758 118.556 273.133C118.201 273.508 117.993 274.057 117.931 274.781H121.868C121.863 274.349 121.79 273.966 121.649 273.633C121.514 273.299 121.306 273.039 121.024 272.852C120.748 272.664 120.394 272.57 119.962 272.57ZM130.243 271.188C131.217 271.188 131.975 271.44 132.517 271.945C133.063 272.445 133.337 273.25 133.337 274.359V280H131.501V274.703C131.501 274.031 131.363 273.529 131.087 273.195C130.811 272.857 130.384 272.688 129.806 272.688C128.967 272.688 128.384 272.945 128.056 273.461C127.733 273.977 127.571 274.724 127.571 275.703V280H125.735V271.352H127.165L127.423 272.523H127.524C127.712 272.221 127.944 271.974 128.22 271.781C128.501 271.583 128.813 271.435 129.157 271.336C129.506 271.237 129.868 271.188 130.243 271.188ZM139.126 278.672C139.366 278.672 139.603 278.651 139.837 278.609C140.071 278.562 140.285 278.508 140.478 278.445V279.836C140.274 279.924 140.011 280 139.688 280.062C139.366 280.125 139.03 280.156 138.681 280.156C138.191 280.156 137.751 280.076 137.36 279.914C136.97 279.747 136.66 279.464 136.431 279.062C136.201 278.661 136.087 278.107 136.087 277.398V272.75H134.907V271.93L136.173 271.281L136.774 269.43H137.931V271.352H140.407V272.75H137.931V277.375C137.931 277.812 138.04 278.138 138.259 278.352C138.478 278.565 138.767 278.672 139.126 278.672ZM154.048 275.656C154.048 276.375 153.954 277.013 153.767 277.57C153.579 278.128 153.306 278.599 152.946 278.984C152.587 279.365 152.155 279.656 151.649 279.859C151.144 280.057 150.574 280.156 149.938 280.156C149.345 280.156 148.8 280.057 148.306 279.859C147.811 279.656 147.381 279.365 147.017 278.984C146.657 278.599 146.379 278.128 146.181 277.57C145.983 277.013 145.884 276.375 145.884 275.656C145.884 274.703 146.048 273.896 146.376 273.234C146.709 272.568 147.183 272.06 147.798 271.711C148.412 271.362 149.144 271.188 149.993 271.188C150.79 271.188 151.493 271.362 152.103 271.711C152.712 272.06 153.188 272.568 153.532 273.234C153.876 273.901 154.048 274.708 154.048 275.656ZM147.774 275.656C147.774 276.286 147.85 276.826 148.001 277.273C148.157 277.721 148.397 278.065 148.72 278.305C149.043 278.539 149.459 278.656 149.97 278.656C150.48 278.656 150.897 278.539 151.22 278.305C151.543 278.065 151.78 277.721 151.931 277.273C152.082 276.826 152.157 276.286 152.157 275.656C152.157 275.026 152.082 274.492 151.931 274.055C151.78 273.612 151.543 273.276 151.22 273.047C150.897 272.812 150.478 272.695 149.962 272.695C149.201 272.695 148.647 272.951 148.298 273.461C147.949 273.971 147.774 274.703 147.774 275.656ZM160.665 271.188C161.639 271.188 162.397 271.44 162.938 271.945C163.485 272.445 163.759 273.25 163.759 274.359V280H161.923V274.703C161.923 274.031 161.785 273.529 161.509 273.195C161.233 272.857 160.806 272.688 160.228 272.688C159.389 272.688 158.806 272.945 158.478 273.461C158.155 273.977 157.993 274.724 157.993 275.703V280H156.157V271.352H157.587L157.845 272.523H157.946C158.134 272.221 158.366 271.974 158.642 271.781C158.923 271.583 159.235 271.435 159.579 271.336C159.928 271.237 160.29 271.188 160.665 271.188ZM68.7979 302.156C67.9801 302.156 67.2718 301.997 66.6729 301.68C66.0739 301.362 65.613 300.875 65.29 300.219C64.9671 299.562 64.8057 298.729 64.8057 297.719C64.8057 296.667 64.9827 295.807 65.3369 295.141C65.6911 294.474 66.1807 293.982 66.8057 293.664C67.4359 293.346 68.1572 293.188 68.9697 293.188C69.4854 293.188 69.9515 293.24 70.3682 293.344C70.79 293.443 71.1468 293.565 71.4385 293.711L70.8916 295.18C70.5739 295.049 70.2484 294.94 69.915 294.852C69.5817 294.763 69.2614 294.719 68.9541 294.719C68.4489 294.719 68.027 294.831 67.6885 295.055C67.3551 295.279 67.1051 295.612 66.9385 296.055C66.777 296.497 66.6963 297.047 66.6963 297.703C66.6963 298.339 66.7796 298.875 66.9463 299.312C67.113 299.745 67.3604 300.073 67.6885 300.297C68.0166 300.516 68.4202 300.625 68.8994 300.625C69.3734 300.625 69.7979 300.568 70.1729 300.453C70.5479 300.339 70.902 300.19 71.2354 300.008V301.602C70.9072 301.789 70.5557 301.927 70.1807 302.016C69.8057 302.109 69.3447 302.156 68.7979 302.156ZM76.6572 293.188C77.751 293.188 78.5765 293.43 79.1338 293.914C79.6963 294.398 79.9775 295.154 79.9775 296.18V302H78.6729L78.3213 300.773H78.2588C78.014 301.086 77.7614 301.344 77.501 301.547C77.2406 301.75 76.9385 301.901 76.5947 302C76.2562 302.104 75.8421 302.156 75.3525 302.156C74.8369 302.156 74.376 302.062 73.9697 301.875C73.5635 301.682 73.2432 301.391 73.0088 301C72.7744 300.609 72.6572 300.115 72.6572 299.516C72.6572 298.625 72.988 297.956 73.6494 297.508C74.3161 297.06 75.3213 296.812 76.665 296.766L78.165 296.711V296.258C78.165 295.659 78.0244 295.232 77.7432 294.977C77.4671 294.721 77.0765 294.594 76.5713 294.594C76.139 294.594 75.7197 294.656 75.3135 294.781C74.9072 294.906 74.5114 295.06 74.126 295.242L73.5322 293.945C73.9541 293.721 74.4333 293.539 74.9697 293.398C75.5114 293.258 76.0739 293.188 76.6572 293.188ZM78.1572 297.867L77.04 297.906C76.1234 297.938 75.4801 298.094 75.1104 298.375C74.7406 298.656 74.5557 299.042 74.5557 299.531C74.5557 299.958 74.6833 300.271 74.9385 300.469C75.1937 300.661 75.5296 300.758 75.9463 300.758C76.5817 300.758 77.1077 300.578 77.5244 300.219C77.9463 299.854 78.1572 299.32 78.1572 298.617V297.867ZM86.9307 293.188C87.0765 293.188 87.2354 293.195 87.4072 293.211C87.5791 293.227 87.7275 293.247 87.8525 293.273L87.6807 294.992C87.5713 294.961 87.4359 294.938 87.2744 294.922C87.1182 294.906 86.9775 294.898 86.8525 294.898C86.5244 294.898 86.2119 294.953 85.915 295.062C85.6182 295.167 85.3551 295.328 85.126 295.547C84.8968 295.76 84.7171 296.029 84.5869 296.352C84.4567 296.674 84.3916 297.049 84.3916 297.477V302H82.5479V293.352H83.9854L84.2354 294.875H84.3213C84.4932 294.568 84.7067 294.286 84.9619 294.031C85.2171 293.776 85.5088 293.573 85.8369 293.422C86.1702 293.266 86.5348 293.188 86.9307 293.188ZM92.8994 293.188C93.6702 293.188 94.3317 293.346 94.8838 293.664C95.4359 293.982 95.8604 294.432 96.1572 295.016C96.4541 295.599 96.6025 296.297 96.6025 297.109V298.094H90.8291C90.8499 298.932 91.0739 299.578 91.501 300.031C91.9333 300.484 92.5374 300.711 93.3135 300.711C93.8656 300.711 94.3604 300.659 94.7979 300.555C95.2406 300.445 95.6963 300.286 96.165 300.078V301.57C95.7327 301.773 95.2926 301.922 94.8447 302.016C94.3968 302.109 93.8604 302.156 93.2354 302.156C92.3864 302.156 91.639 301.992 90.9932 301.664C90.3525 301.331 89.8499 300.836 89.4854 300.18C89.126 299.523 88.9463 298.708 88.9463 297.734C88.9463 296.766 89.1104 295.943 89.4385 295.266C89.7666 294.589 90.2275 294.073 90.8213 293.719C91.415 293.365 92.1077 293.188 92.8994 293.188ZM92.8994 294.57C92.3213 294.57 91.8525 294.758 91.4932 295.133C91.139 295.508 90.9307 296.057 90.8682 296.781H94.8057C94.8005 296.349 94.7275 295.966 94.5869 295.633C94.4515 295.299 94.2432 295.039 93.9619 294.852C93.6859 294.664 93.3317 294.57 92.8994 294.57ZM101.142 305.844C99.9697 305.844 99.0713 305.633 98.4463 305.211C97.8213 304.789 97.5088 304.198 97.5088 303.438C97.5088 302.906 97.6755 302.456 98.0088 302.086C98.3421 301.721 98.8187 301.469 99.4385 301.328C99.2041 301.224 99.001 301.062 98.8291 300.844C98.6624 300.62 98.5791 300.372 98.5791 300.102C98.5791 299.779 98.6702 299.503 98.8525 299.273C99.0348 299.044 99.3083 298.823 99.6729 298.609C99.2197 298.417 98.8551 298.104 98.5791 297.672C98.3083 297.234 98.1729 296.721 98.1729 296.133C98.1729 295.508 98.3057 294.977 98.5713 294.539C98.8369 294.096 99.2249 293.76 99.7354 293.531C100.246 293.297 100.863 293.18 101.587 293.18C101.743 293.18 101.912 293.19 102.095 293.211C102.282 293.227 102.454 293.247 102.61 293.273C102.772 293.294 102.894 293.318 102.978 293.344H105.97V294.367L104.501 294.641C104.642 294.839 104.754 295.065 104.837 295.32C104.92 295.57 104.962 295.844 104.962 296.141C104.962 297.036 104.652 297.742 104.032 298.258C103.418 298.768 102.569 299.023 101.485 299.023C101.225 299.013 100.972 298.992 100.728 298.961C100.54 299.076 100.397 299.203 100.298 299.344C100.199 299.479 100.149 299.633 100.149 299.805C100.149 299.945 100.199 300.06 100.298 300.148C100.397 300.232 100.543 300.294 100.735 300.336C100.933 300.378 101.173 300.398 101.454 300.398H102.946C103.894 300.398 104.618 300.599 105.118 301C105.618 301.401 105.868 301.99 105.868 302.766C105.868 303.75 105.462 304.508 104.649 305.039C103.837 305.576 102.668 305.844 101.142 305.844ZM101.212 304.555C101.853 304.555 102.392 304.492 102.829 304.367C103.267 304.242 103.597 304.062 103.821 303.828C104.045 303.599 104.157 303.326 104.157 303.008C104.157 302.727 104.087 302.51 103.946 302.359C103.806 302.208 103.595 302.104 103.313 302.047C103.032 301.99 102.683 301.961 102.267 301.961H100.907C100.569 301.961 100.269 302.013 100.009 302.117C99.7484 302.227 99.5452 302.383 99.3994 302.586C99.2588 302.789 99.1885 303.034 99.1885 303.32C99.1885 303.716 99.363 304.021 99.7119 304.234C100.066 304.448 100.566 304.555 101.212 304.555ZM101.571 297.82C102.108 297.82 102.506 297.674 102.767 297.383C103.027 297.086 103.157 296.669 103.157 296.133C103.157 295.549 103.022 295.112 102.751 294.82C102.485 294.529 102.09 294.383 101.563 294.383C101.048 294.383 100.655 294.531 100.384 294.828C100.118 295.125 99.9854 295.565 99.9854 296.148C99.9854 296.674 100.118 297.086 100.384 297.383C100.655 297.674 101.05 297.82 101.571 297.82ZM109.384 293.352V302H107.548V293.352H109.384ZM108.478 290.039C108.759 290.039 109.001 290.115 109.204 290.266C109.412 290.417 109.517 290.677 109.517 291.047C109.517 291.411 109.412 291.672 109.204 291.828C109.001 291.979 108.759 292.055 108.478 292.055C108.186 292.055 107.938 291.979 107.735 291.828C107.537 291.672 107.438 291.411 107.438 291.047C107.438 290.677 107.537 290.417 107.735 290.266C107.938 290.115 108.186 290.039 108.478 290.039ZM113.993 302L110.704 293.352H112.649L114.431 298.43C114.545 298.753 114.649 299.102 114.743 299.477C114.837 299.852 114.902 300.167 114.938 300.422H115.001C115.037 300.156 115.108 299.839 115.212 299.469C115.316 299.094 115.423 298.747 115.532 298.43L117.313 293.352H119.251L115.962 302H113.993ZM122.399 293.352V302H120.563V293.352H122.399ZM121.493 290.039C121.774 290.039 122.017 290.115 122.22 290.266C122.428 290.417 122.532 290.677 122.532 291.047C122.532 291.411 122.428 291.672 122.22 291.828C122.017 291.979 121.774 292.055 121.493 292.055C121.201 292.055 120.954 291.979 120.751 291.828C120.553 291.672 120.454 291.411 120.454 291.047C120.454 290.677 120.553 290.417 120.751 290.266C120.954 290.115 121.201 290.039 121.493 290.039ZM129.54 293.188C130.514 293.188 131.272 293.44 131.813 293.945C132.36 294.445 132.634 295.25 132.634 296.359V302H130.798V296.703C130.798 296.031 130.66 295.529 130.384 295.195C130.108 294.857 129.681 294.688 129.103 294.688C128.264 294.688 127.681 294.945 127.353 295.461C127.03 295.977 126.868 296.724 126.868 297.703V302H125.032V293.352H126.462L126.72 294.523H126.821C127.009 294.221 127.241 293.974 127.517 293.781C127.798 293.583 128.11 293.435 128.454 293.336C128.803 293.237 129.165 293.188 129.54 293.188ZM137.673 305.844C136.501 305.844 135.603 305.633 134.978 305.211C134.353 304.789 134.04 304.198 134.04 303.438C134.04 302.906 134.207 302.456 134.54 302.086C134.873 301.721 135.35 301.469 135.97 301.328C135.735 301.224 135.532 301.062 135.36 300.844C135.194 300.62 135.11 300.372 135.11 300.102C135.11 299.779 135.201 299.503 135.384 299.273C135.566 299.044 135.84 298.823 136.204 298.609C135.751 298.417 135.386 298.104 135.11 297.672C134.84 297.234 134.704 296.721 134.704 296.133C134.704 295.508 134.837 294.977 135.103 294.539C135.368 294.096 135.756 293.76 136.267 293.531C136.777 293.297 137.394 293.18 138.118 293.18C138.274 293.18 138.444 293.19 138.626 293.211C138.813 293.227 138.985 293.247 139.142 293.273C139.303 293.294 139.425 293.318 139.509 293.344H142.501V294.367L141.032 294.641C141.173 294.839 141.285 295.065 141.368 295.32C141.451 295.57 141.493 295.844 141.493 296.141C141.493 297.036 141.183 297.742 140.563 298.258C139.949 298.768 139.1 299.023 138.017 299.023C137.756 299.013 137.504 298.992 137.259 298.961C137.071 299.076 136.928 299.203 136.829 299.344C136.73 299.479 136.681 299.633 136.681 299.805C136.681 299.945 136.73 300.06 136.829 300.148C136.928 300.232 137.074 300.294 137.267 300.336C137.465 300.378 137.704 300.398 137.985 300.398H139.478C140.425 300.398 141.149 300.599 141.649 301C142.149 301.401 142.399 301.99 142.399 302.766C142.399 303.75 141.993 304.508 141.181 305.039C140.368 305.576 139.199 305.844 137.673 305.844ZM137.743 304.555C138.384 304.555 138.923 304.492 139.36 304.367C139.798 304.242 140.129 304.062 140.353 303.828C140.576 303.599 140.688 303.326 140.688 303.008C140.688 302.727 140.618 302.51 140.478 302.359C140.337 302.208 140.126 302.104 139.845 302.047C139.563 301.99 139.215 301.961 138.798 301.961H137.438C137.1 301.961 136.8 302.013 136.54 302.117C136.28 302.227 136.076 302.383 135.931 302.586C135.79 302.789 135.72 303.034 135.72 303.32C135.72 303.716 135.894 304.021 136.243 304.234C136.597 304.448 137.097 304.555 137.743 304.555ZM138.103 297.82C138.639 297.82 139.037 297.674 139.298 297.383C139.558 297.086 139.688 296.669 139.688 296.133C139.688 295.549 139.553 295.112 139.282 294.82C139.017 294.529 138.621 294.383 138.095 294.383C137.579 294.383 137.186 294.531 136.915 294.828C136.649 295.125 136.517 295.565 136.517 296.148C136.517 296.674 136.649 297.086 136.915 297.383C137.186 297.674 137.582 297.82 138.103 297.82Z" fill="#343434"/>
</svg>
