<svg width="828" height="814" viewBox="0 0 828 814" fill="none" xmlns="http://www.w3.org/2000/svg">
<circle cx="413.614" cy="399.613" r="292.469" transform="rotate(135 413.614 399.613)" fill="#FF9500"/>
<path fill-rule="evenodd" clip-rule="evenodd" d="M554.528 414.688C552.319 394.813 548.978 374.426 540.539 356.017C537.64 332.211 542.525 298.116 520.324 282.062C520.608 279.212 515.466 276.756 513.082 275.234C509.21 272.714 503.973 267.764 499.39 270.537C497.944 270.099 494.378 271.893 492.737 268.001C491.056 264.015 491.3 256.022 489.959 255.292C490.551 249.532 464.486 245.678 457.683 253.82C454.452 260.065 458.163 262.053 450.879 270.263C447.663 270.459 444.595 271.269 441.628 272.38C439.179 272.716 436.743 273.125 434.317 273.551C403.383 276.396 401.044 299.136 398.302 323.557C395.955 356.362 385.758 389.043 390.166 422.106C387.73 433.929 387.569 446.544 390.479 458.254C380.939 472.095 387.854 479.754 393.804 492.914C394.811 495.282 395.687 497.72 396.133 500.246C396.016 502.203 396.029 504.162 396.375 506.105C397.385 510.531 404.811 509.912 405.142 505.44C405.723 502.503 405.543 499.456 405.994 496.504C405.968 496.658 405.922 496.953 405.922 496.976C407.011 489.549 408.767 486.669 413.617 481.002C419.843 472.059 416.014 460.821 417.435 450.812C417.825 447.468 418.34 444.168 418.685 440.817C420.784 442.044 423.067 443.067 425.451 443.707C423.949 455.224 426.563 466.796 429.468 477.937C437.333 506.636 447.759 536.106 443.231 566.223C443.233 566.209 438.293 590.838 434.391 602.995C429.673 618.412 425.875 633.856 419.2 648.639C415.625 659.279 408.062 669.373 408.356 680.829C405.745 684.664 410.446 689.273 414.589 689.262C414.589 694.455 411.829 704.241 411.829 704.241C411.395 707.869 409.527 712.489 412.351 715.57C408.512 725.283 407.163 735.793 406.109 746.073C405.706 750.949 405.245 756.827 410.501 759.592C415.397 761.696 421.098 760.77 426.327 761.398C431.385 761.405 436.62 762.722 441.596 761.585C447.31 759.968 448.46 753.821 447.384 748.905C446.69 743.786 445.859 738.683 444.948 733.595C442.248 722.517 441.493 710.224 438.034 699.566C439.971 699.206 441.916 698.236 443.231 696.822C446.571 696.713 449.033 694.244 449.852 691.325C450.442 689.443 452.985 689.056 454.698 688.458C455.018 690.082 455.954 691.449 456.716 692.927C456.066 696.064 458.238 699.733 461.824 699.805C462.342 700.3 462.823 700.805 463.352 701.276C459.274 707.237 456.25 713.968 455.484 721.067C454.561 726.513 453.595 735.238 460.853 736.851C463.593 737.21 466.542 737.906 469.227 736.915C472.22 738.249 475.403 738.889 478.626 739.46C492.439 741.775 505.761 741.581 519.69 743.135C523.365 743.643 538.089 745.144 540.539 743.135C543.529 743.743 541.721 741.529 542.979 739.46C543.98 737.906 546.655 734.931 544.928 734.069C541.306 732.516 538.095 729.462 534.78 727.728C519.291 718.973 485.881 704.062 486.113 703.643C486.067 703.94 486.316 696.444 487.554 694.455C489.296 692.741 492.768 693.042 494.586 691.402C495.74 691.455 504.398 688.982 503.657 684.839C502.707 681.531 505.81 677.478 503.657 674.686C510.784 610.03 527.369 547.322 536.522 483.01C536.725 482.834 536.925 482.655 537.128 482.479C541.847 483.262 545.514 478.555 546.947 474.848C547.637 474.152 548.301 473.435 548.911 472.658C552.756 467.691 552.825 461.222 553.263 455.312C554.214 454.618 554.826 453.54 554.878 452.264C555.031 448.466 555.193 444.667 555.353 440.871C555.355 440.871 555.355 440.871 555.355 440.869C556.54 438.98 556.701 436.855 556.363 434.69C556.488 427.689 557.574 421.13 554.528 414.688Z" fill="#FAFAFA"/>
<path fill-rule="evenodd" clip-rule="evenodd" d="M457.528 253.13C457.599 252.51 458.432 252.519 458.511 253.13C459.387 260.507 456.454 268.977 449.239 272.416C454.649 277.161 458.456 283.505 464.948 287.088C478.569 295.901 498.252 287.655 501.281 272.113C497.92 271.348 491.656 271.413 490.635 267.512C490.142 267.01 489.887 262.707 489.918 259.533C489.887 258.943 489.868 258.353 489.848 257.766C489.796 257.291 489.782 256.807 489.787 256.32C489.797 255.264 491.39 255.284 491.457 256.32C491.485 256.745 491.503 257.175 491.52 257.607C491.532 257.721 491.548 257.835 491.562 257.949C491.781 258.739 491.932 259.565 492.111 260.315C492.208 260.719 492.307 261.127 492.414 261.535C492.568 262.603 492.843 263.647 493.313 264.636C494.564 267.265 497.65 269.522 500.692 269.546C501.343 269.551 501.991 269.456 502.643 269.472C503.705 269.499 504.573 269.917 505.52 270.343C506.376 270.727 507.18 270.987 508.005 270.986C542.055 282.454 537.367 324.435 542.552 352.818C547.838 381.005 558.757 408.181 560.365 436.988C560.847 439.975 557.524 441.083 555.464 442.496C554.914 450.012 558.099 457.619 555.89 465.056C553.848 471.137 545.611 485.758 537.741 483.455C528.816 550.813 508.075 613.238 506.112 681.416C508.099 687.116 502.394 691.255 497.132 692.089L496.415 692.5C494.016 693.867 491.537 695.205 488.913 696.051C488.847 696.089 488.781 696.127 488.715 696.164C488.587 696.233 488.45 696.274 488.31 696.296C488.457 698.04 489.012 699.679 489.728 701.273C500.645 703.774 510.234 710.342 520.501 714.636C527.123 718.682 547.338 724.527 548.873 731.635L548.914 731.85C549.531 735.035 547.807 738.964 544.156 739.265C546.062 740.666 544.814 743.496 542.738 744.042C540.243 744.702 537.535 744.421 534.967 744.625C510.742 745.381 486.304 743.255 462.691 737.861C460.708 737.406 458.643 736.811 456.971 735.635C446.724 727.58 457.39 710.531 459.909 700.081C458.994 699.937 458.09 699.738 457.201 699.476L457.003 699.417C456.139 699.158 455.247 698.846 454.576 698.24C454.549 698.216 454.526 698.188 454.499 698.162C450.183 698.101 454.579 688.658 454.967 686.133C453.213 689.843 451.781 693.804 449.679 697.337C448.233 699.517 445.06 698.005 442.929 697.852C443.638 710.768 446.741 723.361 449.929 735.875C452.518 746.267 456.961 758.754 442.297 761.913C432.196 764.541 408.128 763.537 403.822 752.552C402.553 743.609 405.333 734.545 406.708 725.731L406.95 724.477C408.591 715.908 410.109 707.3 412.49 698.891C412.817 697.522 413.221 696.18 413.655 694.847C413.711 694.07 413.752 693.291 413.702 692.511C413.635 691.488 413.441 690.487 413.234 689.485C413.208 689.357 413.184 689.209 413.16 689.051C408.906 687.102 405.748 684.898 405.341 682.519C404.924 680.262 405.767 677.974 406.392 675.82L406.428 675.693C420.125 627.917 446.179 584.864 441.739 533.901C440.106 508.836 428.155 485.782 426.139 460.782C424.979 455.795 423.932 450.756 423.763 445.615C423.046 445.448 422.325 445.295 421.612 445.111C421.194 447.335 420.665 449.539 419.798 451.614C419.464 455.716 419.677 459.863 420.396 463.92C420.562 464.854 420.103 465.668 419.328 465.967C421.192 471.736 421.559 478.972 416.753 483.441L416.354 483.703C412.179 486.464 411.742 487.245 410.771 492.39L407.574 505.392C407.173 507.001 406.693 508.64 405.538 509.904C402.472 513.256 397.593 511.068 396.013 507.495C394.57 503.834 394.581 499.804 393.527 496.034C392.726 492.139 390.506 488.813 388.305 485.548C383.385 478.052 382.993 467.615 388.478 460.273C388.958 459.059 389.396 457.863 389.905 456.668C388.007 454.456 389.229 450.972 389.011 448.265C389.007 446.031 388.966 443.796 388.897 441.562C388.497 428.369 387.129 415.258 387.079 402.064C386.547 384.281 391.258 367.056 393.99 349.614C396.338 332.391 396.213 314.831 400.056 297.808C407.206 264.395 447.333 277.134 454.121 263.967C456.173 260.672 457.091 256.922 457.528 253.13ZM408.513 748.457C407.906 752.9 411.048 753.967 414.65 755.317C423.835 758.664 434.44 759.457 443.776 756.267C445.431 755.572 446.614 754.531 447.202 753.007C434.246 754.182 420.64 753.327 408.513 748.457ZM457.91 728.671C458.723 732.662 463.9 733.132 467.366 733.803C475.643 735.523 484.001 736.905 492.405 737.882C508.692 739.833 525.169 740.169 541.535 739.429C541.977 739.239 542.261 738.874 542.819 738.875L542.887 738.877C542.919 738.877 542.949 738.88 542.979 738.881C542.707 738.702 542.474 738.468 542.302 738.192C514.17 735.12 485.867 733.029 457.91 728.671ZM485.413 694.455C478.656 695.621 471.76 696.235 464.938 695.176C464.478 700.784 462.292 706.231 460.573 711.597C469.999 714.072 476.237 703.685 484.668 701.707C484.191 699.226 484.36 696.619 485.413 694.455ZM415.772 690.167C415.794 690.206 415.806 690.253 415.802 690.309C415.769 696.844 415.102 703.355 414.133 709.822C420.122 703.41 430.146 701.787 438.401 704.453L438.365 704.036C438.152 701.668 437.835 699.244 438.224 696.898L437.846 696.793C433.588 695.625 423.576 693.285 415.772 690.167ZM539.134 443.734C502.255 453.568 462.998 454.185 425.733 446.054C427.592 451.974 428.987 458.002 429.973 464.111C432.086 479.827 437.907 494.678 441.828 509.989C446.352 528.06 447.43 543.276 445.178 561.734L445.109 562.293C440.152 603.686 419.851 641.473 410.314 681.659C421.537 688.428 435.403 691.072 448.272 693.871C456.361 677.298 463.195 660.302 467.674 642.456C483.809 586.441 505.069 533.699 500.346 474.559C499.294 473.873 499.636 472.425 500.215 471.5C500.015 467.234 499.738 462.971 499.285 458.728C499.27 458.584 499.512 458.556 499.541 458.694C500.29 462.328 501.076 465.953 501.734 469.605C506.268 465.021 509.201 459.291 513.188 454.318C513.755 458.032 505.982 472.417 502.562 474.644C509.85 519.115 497.714 559.824 484.606 602.119C475.786 632.488 467.216 662.945 458.116 693.23C458.226 693.231 458.336 693.233 458.447 693.236C457.9 692.235 469.482 692.926 470.433 692.424C478.962 691.621 487.31 689.614 495.607 687.6L496.624 687.339C498.691 686.8 501.091 686.023 501.463 683.828L501.469 683.551C501.471 683.469 501.475 683.404 501.481 683.398L501.422 683.151C501.409 683.094 501.4 683.05 501.402 683.036L501.32 682.914C501.225 682.778 501.135 682.657 501.262 682.796C500.325 681.778 500.24 680.206 501.322 679.233C503.349 605.261 527.327 537.559 536.207 464.414C537.087 457.508 538.162 450.628 539.134 443.734ZM392.231 458.056C387.967 463.318 387.234 470.662 388.916 477.075C389.798 480.258 391.583 482.938 393.423 485.667C396.65 490.218 398.155 495.505 398.976 500.923L398.999 501.025C399.374 502.767 399.606 507.572 402.083 507.032C402.733 506.616 403.045 504.79 403.273 503.836L406.132 492.208C406.96 488.841 407.456 484.84 410.388 482.51L410.735 482.29C413.13 480.76 415.466 478.985 415.842 476.003C416.667 472.347 415.133 468.809 414.56 465.255C406.913 463.517 399.447 461.064 392.231 458.056ZM554.529 443.032L554.273 443.157C551.332 444.613 542.556 449.325 540.293 447.516C540.346 458.286 539.478 469.004 538.206 479.688C538.531 479.616 538.867 479.625 539.167 479.734C545.548 477.98 552.48 465.997 553.015 459.839C553.452 454.235 552.331 448.388 554.529 443.032ZM449.628 277.953L449.303 277.526C445.849 273.011 443.91 271.399 437.937 273.808C438.74 274.795 439.118 276.118 438.776 277.487L438.753 277.575C436.868 285.276 427.201 289.738 420.126 285.548C417.653 286.187 415.076 284.422 414.976 281.92C407.974 286.014 404.739 293.514 403.426 301.047C408.023 298.644 414.203 300.937 416.038 305.716C420.058 314.45 408.341 323.536 401.196 316.181C399.647 330.913 398.921 345.757 396.1 360.336C398.191 356.922 403.174 356.118 406.146 358.928C415.876 367.27 404.684 386.222 392.922 377.187C391.497 385.302 390.994 393.532 391.061 401.742C394.83 400.3 396.893 406.769 397.166 409.508C397.508 412.803 395.794 419.714 391.779 420.104L392.109 425.374C392.67 434.408 393.169 443.433 393.044 452.488C393.246 452.539 393.418 452.63 393.562 452.748C393.572 453.01 393.607 453.272 393.657 453.53C393.707 453.787 393.871 453.923 394.065 453.966L394.071 453.976C394.063 454.157 394.027 454.338 393.958 454.51C401.328 457.574 408.935 460.105 416.684 462.097C416.493 459.535 416.542 456.981 416.81 454.45C413.88 451.683 417.484 441.639 417.829 437.735C419.183 429.913 420.213 422.043 421.124 414.162C418.405 413.931 417.012 411.111 416.297 408.816C415.365 406.289 414.802 403.591 415.459 400.934C416.125 397.77 419.693 394.747 423.059 395.861L423.271 393.742C424.604 380.32 425.768 366.875 427.763 353.527C421.247 357.138 415.095 349.286 416.669 343.192C417.13 340.605 418.716 338.098 421.056 336.754C423.127 335.572 427.406 334.402 428.764 337.002C429.4 337.083 429.996 337.391 430.446 337.845C431.853 330.607 433.565 323.312 436.289 316.451C427.679 311.08 429.289 297.555 440.622 297.537C455.905 298.837 451.839 320.977 437.099 316.813C432.47 344.521 429.802 372.458 427.434 400.421C429.216 403.306 428.934 407.585 426.488 410.013C425.425 420.129 424.135 430.224 422.44 440.258C433.651 442.739 445 444.792 456.472 445.737C457.024 442.214 460.884 440.333 464.22 440.05C466.428 439.815 468.831 440.647 470.941 441.045C473.491 442.015 475.577 444.242 476.508 446.671C487.218 446.736 497.934 446.064 508.544 444.686C507.472 439.386 515.24 435.346 519.97 436.171C521.863 436.401 523.709 437.113 525.127 438.382C526.513 438.674 527.815 439.863 528.159 441.293C531.915 440.406 535.763 439.73 539.392 438.412C542.953 437.252 544.117 434.341 543.194 430.9C533.122 434.906 524.577 419.014 534.187 413.265C535.418 412.361 537.981 411.776 538.702 413.486C538.825 413.507 538.947 413.532 539.068 413.562C538.269 410.291 537.464 407.022 536.66 403.753C532.042 403.315 530.501 396.588 534.335 394.225C533.03 388.802 531.765 383.368 530.577 377.919C524.249 379.215 519.004 371.399 520.343 365.753L520.386 365.583C521.142 362.514 523.442 359.496 526.839 358.986C526.037 354.375 525.319 349.747 524.715 345.105C523.84 344.18 523.448 342.801 523.789 341.58C524.036 332.656 522.213 323.468 522.948 314.417C516.233 322.519 502.241 317.004 505.437 306.312C505.25 296.408 519.43 292.898 524.212 301.654C524.724 299.786 525.383 297.928 525.705 296.002C525.754 295.781 526.097 295.826 526.118 296.033L526.119 296.057C526.831 308.723 526.307 321.471 527.676 334.123C532.793 334.373 534.884 346.489 529.325 347.358C531.427 361.444 534.584 375.346 538.016 389.183C543.979 387.663 546.285 400.386 541.376 402.526C542.804 408.151 544.226 413.775 545.614 419.41L545.64 419.397C546.361 418.168 548.283 418.305 549.518 418.539C553.599 420.032 551.874 427.363 547.431 426.914C549.854 434.154 548.318 440.872 540.232 443.359L540.237 443.589C540.487 443.395 540.791 443.238 541.16 443.135C546.212 441.727 550.931 439.539 555.284 436.703C554.003 415.798 547.907 395.533 542.974 375.255C537.304 374.358 535.496 365.344 539.919 362.024C536.857 348.561 535.975 334.793 534.477 321.121C530.394 320.237 529.362 313.733 533.049 311.741C530.713 294.761 521.917 280.448 505.505 273.169C504.973 275.586 504.09 277.933 502.908 280.129C503.019 280.135 503.126 280.148 503.231 280.166C503.258 280.215 503.291 280.263 503.336 280.309C504.225 281.211 504.795 282.227 505.156 283.314C505.191 283.548 505.23 283.781 505.27 284.014C505.23 284.11 505.185 284.204 505.134 284.297C506.893 290.932 498.651 294.323 493.087 292.839C492.224 292.671 491.66 292.191 491.359 291.584C481.507 296.842 468.649 295.734 459.774 288.782C453.324 292.202 445.018 284.216 449.628 277.953ZM403.397 426.71C412.824 425.334 415.907 440.368 408.31 444.543C405.86 445.987 402.491 446.111 400.079 444.517C393.657 440.658 395.444 427.502 403.397 426.71ZM439.279 417.713C451.276 417.662 452.303 435.928 441.838 439.217C434.056 441.445 426.433 432.889 430.424 425.755C430.793 421.317 434.663 417.778 439.279 417.713ZM476.662 419.371C477.286 414.653 482.272 410.145 487.29 411.444C491.888 412.593 493.087 417.912 493.902 421.85C495.756 430.005 486.418 438.273 478.55 433.782C473.524 430.807 472.789 423.525 476.662 419.371ZM503.457 391.835C505.138 389.188 508.906 388.021 511.981 388.944C520.416 391.607 519.414 404.975 512.627 408.96C500.966 414.994 491.667 397.648 503.457 391.835ZM448.519 399.645C448.321 391.701 456.613 384.469 464.401 388.985C477.008 397.337 464.098 416.498 452.002 405.759C449.847 404.383 448.573 402.151 448.519 399.645ZM432.836 379.375C427.001 370.392 437.021 357.074 446.584 365.682C449.864 369.01 449.717 375.113 447.819 379.069C444.73 384.354 436.153 384.478 432.836 379.375ZM475.201 362.528C479.754 358.207 487.711 358.162 491.17 363.864C495.271 370.898 490.377 382.932 481.133 382.36C471.528 381.687 468.897 368.339 475.201 362.528ZM451.345 348.483C444.039 341.084 451.972 329.215 461.881 332.073C478.075 337.964 464.021 360.13 451.345 348.483ZM491.228 346.814C484.72 335.078 500.529 324.526 508.574 335.822C514.745 346.053 498.085 357.862 491.228 346.814ZM470.002 313.43C464.371 303.648 474.211 292.779 484.55 298.52C499.262 308.62 480.43 328.046 470.002 313.43Z" fill="#343434"/>
<path fill-rule="evenodd" clip-rule="evenodd" d="M481.563 170.272C491.057 170.272 502.447 174.842 503.416 174.934L503.442 174.935C503.952 174.935 505.942 176.441 509.415 179.454L505.654 186.738L505.958 187.027C507.415 188.414 508.658 189.678 509.639 190.674C517.653 198.809 519.093 230.751 517.205 241.891C515.316 253.03 511.818 263.93 495.534 263.93C479.249 263.93 461.132 254.206 458.341 251.178C456.481 249.159 454.391 248.192 452.071 248.276C451.976 248.157 451.882 248.038 451.788 247.919L451.447 247.871C448.237 247.409 445.937 246.788 444.547 246.007C441.832 244.482 438.848 236.463 438.848 234.697C438.848 232.948 434.393 220.227 434.304 218.881L434.302 218.844C434.302 217.718 428.481 212.545 428.481 210.902C428.481 209.259 427.308 209.359 428.481 203.569L428.822 201.868C430.071 195.704 432.515 185.498 441.832 181.062C452.071 176.189 471.974 170.272 481.563 170.272Z" fill="#FAFAFA"/>
<path fill-rule="evenodd" clip-rule="evenodd" d="M440.251 180.833C445.358 175.451 474.349 167.125 489.016 168.89L489.456 168.947C490.627 169.094 491.78 169.317 492.919 169.62C496.599 170.474 500.4 171.766 503.44 173.925C505.979 175.691 513.986 178.574 511.626 183.194C512.501 184.841 512.828 186.875 512.236 188.496C512.162 189.056 511.988 189.572 511.766 190.107C513.635 192.847 515.115 195.945 516.314 198.892C518.408 206.309 519.711 214.027 519.902 221.594C520.536 235.971 518.949 253.143 506.34 262.44C498.724 268.33 486.792 268.528 478.233 261.224C477.747 260.654 475.463 259.113 476.225 258.843C476.452 259.081 476.685 259.312 476.923 259.54C476.912 259.515 476.91 259.489 476.914 259.462L476.691 259.261C476.27 258.875 475.725 258.314 476.346 258.424C476.373 258.455 476.403 258.483 476.432 258.514C476.564 258.593 476.663 258.661 476.741 258.72L476.78 258.752L476.768 258.739C476.41 258.361 476.196 257.975 476.731 258.221L476.801 258.255C477.039 258.504 477.281 258.742 477.527 258.973C477.523 258.946 477.527 258.919 477.542 258.889L477.312 258.669C477.088 258.451 477.123 258.45 477.232 258.274C476.756 257.612 477.645 258.005 477.707 258.264C478.263 258.133 478.751 259.169 479.108 259.296C494.8 271.275 517.57 260.646 517.202 227.264L517.196 226.611C517.088 215.937 516.184 204.966 511.738 195.304C511.305 194.373 510.822 193.468 510.29 192.592C509.923 191.935 509.531 191.295 509.109 190.672C507.927 190.577 506.761 190.362 505.612 190.029C505.217 189.93 504.827 189.821 504.437 189.692C498.738 190.001 493.165 190.337 487.449 190.655L485.664 190.766C480.822 191.075 475.815 191.57 471.907 194.544C468.074 197.252 468.056 202.591 464.774 205.563C460.095 208.718 460.061 211.562 459.159 216.21C459.226 219.714 461.673 224.805 457.183 226.28C457.941 227.352 456.885 226.837 456.802 226.461C456.793 226.463 456.785 226.465 456.778 226.465C457.453 227.711 456.461 226.926 456.373 226.526C456.32 226.511 456.267 226.473 456.214 226.421C456.894 227.512 455.795 226.748 455.86 226.549C454.546 224.543 451.842 224.232 449.935 224.763C449.912 224.835 449.828 224.841 449.774 224.804C441.669 226.548 443.76 243.212 452.067 241.601C452.422 241.529 452.414 241.699 452.484 241.715C452.293 241.214 452.833 241.418 452.828 241.523L452.861 241.522C452.887 241.519 452.876 241.516 452.896 241.523C452.71 240.5 453.754 241.982 453.672 242.043C453.704 242.024 453.74 242.014 453.772 242.01L453.736 241.912C453.562 241.454 453.577 241.645 453.578 241.382C453.448 241.058 453.439 241.199 453.469 240.988C453.927 240.636 454.062 241.704 454.214 241.782C453.953 241.42 454.161 241.124 454.408 241.321C456.279 245.229 458.695 248.9 461.818 251.793C462.16 252.06 462.506 252.323 462.864 252.572C464.192 253.721 466.23 254.46 467.474 255.478C467.474 255.495 467.465 255.516 467.453 255.537L467.481 255.562L467.51 255.589L467.942 255.796C468.07 255.903 468.184 256.023 468.286 256.156C468.394 256.28 468.489 256.417 468.57 256.562C468.61 256.739 468.521 256.813 468.352 256.737C468.277 256.712 468.203 256.682 468.129 256.655C468.133 256.661 468.135 256.666 468.14 256.67C468.164 256.706 468.329 257.085 468.139 257.024L468.116 257.015C468.012 256.977 467.909 256.935 467.807 256.895C467.928 257.045 468.038 257.207 468.135 257.344C468.239 257.451 468.303 257.577 468.328 257.72C468.324 257.8 468.28 257.834 468.199 257.824C468.076 257.784 467.955 257.742 467.834 257.697L467.869 257.763C467.954 257.93 468.076 258.21 467.86 258.116C467.675 258.06 467.497 257.994 467.319 257.923C467.304 257.952 467.274 257.963 467.215 257.935C466.649 257.735 466.102 257.491 465.578 257.202C465.118 256.87 464.653 256.543 464.191 256.213C463.756 255.954 463.337 255.665 462.936 255.341C460.255 253.621 457.907 251.436 456.045 249.003C452.93 251.681 446.702 249.122 442.85 247.025C439.443 245.151 438.104 241.686 437.757 237.95C437.037 232.92 432.898 231.199 433.186 220.162C433.18 220.165 433.173 220.165 433.165 220.165C433.014 220.12 432.868 220.061 432.73 219.986C432.588 219.918 432.455 219.838 432.329 219.741L432.175 219.529C432.094 219.484 432.022 219.438 431.967 219.392L431.938 219.428C431.848 219.537 431.909 219.374 431.914 219.341L431.645 218.978C431.008 218.114 430.308 217.144 429.738 216.368L429.72 216.399C429.707 216.423 429.701 216.44 429.707 216.448C428.351 214.513 427.075 212.176 426.721 209.914C426.303 208.171 426.466 206.375 426.831 204.761C428.396 199.108 433.521 186.316 440.251 180.833ZM477.051 259.01L476.966 258.935L477.041 259.028C477.08 259.076 477.12 259.119 477.185 259.163C477.181 259.148 477.181 259.133 477.183 259.117C477.14 259.084 477.096 259.048 477.051 259.01ZM488.952 171.73C479.005 170.881 469.222 173.057 459.73 175.691L459.076 175.878C453.679 177.407 447.972 178.784 443.411 182.057C437.039 186.904 433.748 194.614 430.877 201.733C428.369 207.022 429.651 212.986 433.43 216.68C433.823 213.009 434.493 209.447 435.541 205.913C435.759 205.361 435.594 205.18 436.065 205.108C436.777 214.632 433.272 221.668 440.208 232.955C443.217 238.281 439.734 242.178 448.232 244.981L448.462 245.068C450.233 245.731 452.166 246.255 453.901 245.884L453.745 245.633C453.587 245.375 453.539 245.249 453.769 245.139C453.763 245.126 453.755 245.113 453.746 245.099C453.559 244.749 453.379 244.395 453.207 244.037C453.138 244.061 453.068 244.077 452.995 244.096C453.042 244.183 453.048 244.269 452.917 244.298C452.45 244.458 451.97 244.521 451.479 244.492L451.373 244.484C450.818 244.45 450.469 244.35 450.156 244.256C450.052 244.24 449.948 244.223 449.846 244.202C448.84 243.98 447.775 243.417 447.086 242.858C439.228 238.426 440.04 223.339 449.726 221.912C449.924 212.413 454.474 196.387 462.025 187.335C468.85 179.008 487.484 175.399 500.447 176.672C500.636 176.734 500.825 176.797 501.014 176.86C503.014 177.037 504.92 177.921 506.921 178.332C505.484 177.263 503.854 176.551 502.175 175.945C498.829 173.913 494.994 172.813 491.288 172.038C490.521 171.85 489.743 171.747 488.952 171.73ZM449.282 229.544C449.803 229.263 449.744 229.534 449.863 229.455C453.609 229.152 457.649 232.409 459.743 235.124C459.577 235.294 459.13 234.789 459.051 234.709C459.041 234.719 459.028 234.728 459.015 234.732L459.074 234.814C459.922 236.023 458.24 234.6 458.082 234.307C458.055 234.321 458.027 234.33 457.995 234.324C458.129 234.453 458.536 234.792 458.606 235.033L458.714 235.122C459.732 235.988 459.648 236.64 458.492 235.41C458.519 235.467 458.53 235.52 458.511 235.562L458.55 235.588C459.119 235.983 459.586 237.082 458.398 235.953C458.522 236.778 457.221 235.184 457.179 235.195C454.927 233.44 451.613 231.733 448.788 231.504L448.691 231.493C448.173 231.427 447.928 231.274 448.11 230.938C447.472 230.787 447.621 230.475 447.923 230.485C447.473 230.191 447.878 229.91 448.139 230.019C447.96 229.526 448.68 229.855 448.746 229.786C449.12 229.213 449.22 229.691 449.282 229.544ZM441.43 198.937C443.23 198.282 448.544 200.241 448.119 202.836C447.866 203.432 447.032 203.773 446.445 203.437L445.68 202.926C444.348 202.041 443.147 201.264 441.718 200.492C440.939 200.108 440.604 199.294 441.43 198.937ZM451.667 195.081L450.972 194.632C447.222 192.195 441.921 188.502 451.322 192.322C452.394 192.779 453.817 193.049 454.402 194.062C455.32 195.929 452.903 196.055 451.667 195.081ZM452.088 184.146C451.787 183.012 455.531 184.342 456.621 184.693L456.787 184.756C457.848 185.148 459.063 185.512 459.697 186.42C460.44 187.676 458.936 187.936 458.005 187.369C456.095 186.129 454.001 185.194 452.088 184.146ZM461.609 178.864C459.502 176.578 465.142 178.767 465.987 179.375L466.011 179.393C466.641 179.834 466.513 180.783 465.921 181.062C464.236 181.094 462.996 179.699 461.609 178.864ZM471.199 176.36C467.849 173.968 472.262 175.106 473.795 176.043C474.84 176.958 473.763 178.502 471.199 176.36Z" fill="#343434"/>
<path fill-rule="evenodd" clip-rule="evenodd" d="M499.637 247.648C498.075 248.097 496.399 248.137 494.806 247.673C493.362 247.252 491.879 246.326 490.816 245.101C489.872 244.012 489.261 242.689 489.285 241.276C489.287 241.115 489.346 240.98 489.435 240.876C489.531 240.763 489.665 240.686 489.809 240.653C489.957 240.618 490.114 240.63 490.247 240.69C490.368 240.745 490.471 240.837 490.536 240.972C490.699 241.185 490.862 241.395 491.025 241.599C492.338 243.21 493.61 244.414 495.585 244.845C496.657 245.08 497.727 244.976 498.709 244.618C499.76 244.236 500.71 243.563 501.455 242.702C501.791 242.313 502.189 242.154 502.577 242.152C503.017 242.148 503.452 242.352 503.78 242.676C504.102 242.995 504.318 243.429 504.338 243.883C504.355 244.281 504.224 244.697 503.876 245.068C502.73 246.29 501.245 247.186 499.637 247.648ZM499.589 227.477C501.19 228.443 503.63 230.697 501.908 233.093C499.88 235.206 496.961 232.783 495.522 231.688C494.188 230.839 492.689 233.023 493.927 234.014C504.322 241.657 508.541 227.729 500.399 226.34C499.503 226.187 499.17 227.178 499.589 227.477ZM484.61 223.224C484.096 222.897 483.49 222.785 482.819 223.088C482.295 223.325 481.376 224.114 480.736 225.151C480.298 225.861 479.987 226.694 480.052 227.562C480.067 227.763 479.992 227.912 479.874 228.021C479.78 228.108 479.645 228.172 479.487 228.192C479.353 228.209 479.202 228.194 479.08 228.156C478.847 228.083 478.723 227.933 478.677 227.811C478.229 226.629 478.422 225.31 478.924 224.121C479.602 222.515 480.833 221.17 481.639 220.736C483.019 219.994 484.647 219.96 486.029 220.716C487.205 221.36 487.941 222.399 488.672 223.458C488.828 223.683 488.982 223.907 489.142 224.126C489.461 224.566 489.493 225.003 489.369 225.377C489.232 225.791 488.882 226.141 488.445 226.324C488.041 226.494 487.572 226.517 487.157 226.343C486.806 226.197 486.484 225.91 486.281 225.424C485.938 224.606 485.366 223.704 484.61 223.224ZM510.748 225.044C510.396 225.226 510.12 225.281 509.729 225.165C509.513 225.1 509.299 224.977 509.132 224.811C508.966 224.646 508.846 224.441 508.8 224.214C508.686 223.653 508.377 223.129 507.937 222.787C507.56 222.494 507.085 222.339 506.559 222.427C505.99 222.521 505.449 222.883 505.076 223.31C504.951 223.452 504.854 223.615 504.755 223.776C504.572 224.077 504.393 224.357 504.139 224.578C504.043 224.662 503.899 224.721 503.758 224.721C503.701 224.721 503.644 224.712 503.589 224.695C503.023 224.131 502.914 223.703 502.932 223.279C502.951 222.834 503.128 222.383 503.413 221.963C504.083 220.977 505.354 220.169 506.212 219.986C507.387 219.735 508.554 220.036 509.489 220.688C510.452 221.358 511.165 222.399 511.387 223.572C511.441 223.855 511.418 224.16 511.31 224.424C511.204 224.682 511.019 224.904 510.748 225.044ZM487.201 212.712C486.496 213.394 485.662 213.5 484.818 213.594C484.349 213.647 483.974 213.689 483.606 213.772C482.593 213.999 481.592 214.341 480.679 214.833C479.724 215.348 478.683 215.969 477.935 216.764C477.757 216.954 477.589 217.152 477.421 217.351C477.268 217.533 477.12 217.707 476.965 217.876C476.786 218.069 476.616 218.272 476.448 218.474C476.343 218.645 476.323 218.687 476.302 218.731C476.27 218.797 476.233 218.87 476.191 218.949C476.134 219.057 476.066 219.175 475.996 219.282C475.878 219.478 475.815 219.532 475.761 219.556C475.671 219.596 475.585 219.616 475.502 219.605C475.424 219.595 475.35 219.558 475.278 219.497C474.916 219.193 474.809 218.695 474.82 218.166C474.837 217.363 475.135 216.474 475.41 215.928C476.049 214.658 476.935 213.338 478.001 212.39C479.218 211.309 480.548 210.49 482.077 209.925C483.026 209.575 484.126 209.253 485.161 209.293C485.906 209.323 486.617 209.542 487.204 210.092C487.565 210.429 487.738 210.908 487.738 211.387C487.738 211.876 487.558 212.367 487.201 212.712ZM512.182 218.959C512.137 219.032 512.075 219.082 512.006 219.112C511.934 219.144 511.853 219.153 511.775 219.14C511.698 219.127 511.625 219.093 511.567 219.039C511.511 218.989 511.468 218.921 511.449 218.838C510.981 216.797 510.072 215.278 508.132 214.298C507.178 213.816 506.081 213.51 505.042 213.266C504.74 213.195 504.421 213.149 504.1 213.103C503.093 212.957 502.079 212.789 501.423 211.981C501.027 211.494 500.861 210.872 500.955 210.303C501.043 209.766 501.359 209.275 501.932 208.98C503.36 208.247 505.134 208.967 506.576 209.579C506.683 209.625 506.788 209.669 506.89 209.712C508.3 210.303 509.586 211.083 510.643 212.199C511.481 213.084 512.258 214.392 512.571 215.738C512.832 216.858 512.771 218.001 512.182 218.959Z" fill="#343434"/>
<path fill-rule="evenodd" clip-rule="evenodd" d="M351.557 689.073C347.02 688.243 345.386 693.525 345.191 696.865C343.362 696.047 341.457 695.118 339.803 694.048C337.083 692.305 334.146 689.297 330.933 689.377L330.787 688.56C330.622 687.127 327.711 688.081 326.925 688.586C325.666 688.351 324.283 687.083 323.439 685.924C326.837 684.665 328.327 684.615 327.79 680.247C327.789 679.57 327.622 678.94 327.807 678.338C323.749 660.235 322.956 642.124 322.446 623.672L324.53 623.252C331.131 641.739 337.403 661.138 343.03 680.903C343.169 681.791 343.676 681.801 344.168 681.321C345.876 681.412 347.526 681.338 349.266 681.086L349.242 681.006C349.765 681.01 350.285 680.982 350.765 680.95C351.175 683.601 351.649 686.334 351.557 689.073ZM348.82 678.985C348.935 678.929 350.246 678.35 350.394 678.283L350.426 678.609C349.862 678.829 349.295 679.041 348.723 679.234L348.67 679.055L348.82 678.985ZM292.832 718.577C290.62 719.112 288.277 719.786 286.102 720.42L286.955 718.356C282.051 705.27 278.302 691.449 275.575 677.94C273.643 669.144 271.638 660.05 268.959 651.334C265.577 637.647 258.277 623.564 242.853 622.391C242.853 622.391 242.593 621.945 242.593 621.945L242.289 621.661C241.536 612.062 240.518 602.497 239.532 593.311C247.786 595.582 254.895 594.843 262.785 594.781C265.341 594.427 268.744 595.17 270.783 594.003C270.783 594.002 272.131 592.632 272.131 592.632C281.089 628.105 283.42 664.662 286.619 700.584C286.728 701.4 287.348 701.676 287.999 701.338C288.751 702.164 290.317 701.846 291.389 701.966C290.489 707.35 291.548 713.767 294.16 718.252L292.832 718.577ZM271.807 715.55C266.288 710.897 259.749 708.591 252.92 708.851C250.524 705.292 247.137 701.024 243.332 699.417C241.549 693.446 241.768 686.897 242.145 681.273C243.027 675.528 241.053 674.859 236.378 675.278C238.388 672.847 238.208 672.26 237.8 669.068C239.135 669.276 243.174 671.92 243.727 670.051C244.398 666.41 244.853 663.245 245.12 660.378C245.262 657.928 243.531 655.353 243.745 652.86C243.109 646.449 243.761 639.274 240.813 633.368C252.755 634.968 255.665 648.021 258.755 657.638C265.113 677.447 269.557 697.672 274.289 717.641L271.807 715.55ZM235.023 670.204C234.74 670.841 234.699 671.449 234.6 672.069C228.983 671.035 229.982 679.302 229.457 683.825C228.402 683.473 227.658 683.364 226.553 683.582C226.392 682.092 227.361 681.429 223.965 681.266C208.141 681.561 202.124 698.139 196.681 710.823C194.153 716.923 190.565 717.872 185.231 717.767C181.654 717.835 177.995 718.806 174.34 718.69C187.63 692.451 192.465 654.765 187.068 622.076H187.072C186.743 620.006 186.353 617.852 185.951 615.768C197.343 615.888 210.596 616.162 221.565 615.688C223.011 617.018 224.793 617.611 226.61 617.624C226.619 619.075 226.774 620.671 226.911 622.117C216.659 621.862 205.283 622.02 194.897 622.171C205.282 622.321 216.712 622.506 226.926 622.211C226.909 624.983 227.187 627.503 229.647 628.844C230.587 635.858 229.373 643.185 230.222 651.343C230.904 656.891 230.343 667.514 235.4 669.277L235.023 670.204ZM162.837 712.85L162.442 713.545C161.605 713.259 161.091 713.321 160.276 713.956C154.343 717.169 145.816 714.186 139.33 713.974C140.563 709.916 140.611 703.445 134.992 703.364C136.855 685.577 135.6 667.933 135.888 650.161C146.119 648.208 145.775 647.154 135.837 645.326C135.775 635.385 135.701 625.328 135.707 615.295C135.706 610.467 135.661 605.757 135.221 601.088C136.146 599.171 135.94 597.206 136.418 595.181C138.434 594.051 141.928 595.367 143.182 593.417C148.611 593.337 154.14 593.286 159.623 592.994C160.121 593.01 160.305 592.547 160.521 592.209C161.476 591.958 163.086 592.533 163.88 592.125C163.88 592.125 164.952 590.739 164.952 590.739C169.418 599.871 172.883 610.631 174.929 621.526C168.477 621.596 161.09 621.577 154.433 621.545C160.915 622.025 167.912 622.314 175.081 622.415C180.643 650.12 176.66 688.991 162.837 712.85ZM153.911 725.99C140.469 742.948 118.518 748.6 100.492 734.968C52.3929 698.327 54.5509 574.134 117.723 556.955C116.009 563.448 110.059 590.398 120.814 591.166L120.78 591.079L121.328 590.775C123.586 591.558 126.763 590.471 127.503 593.612C127.532 593.618 128.717 593.722 128.787 593.728C128.018 597.631 128.242 601.677 128.012 605.641C127.104 605.294 125.973 605.089 124.989 605.17C121.281 604.997 121.374 600.939 121.519 598.116C121.656 596.735 121.239 595.153 121.308 593.857C121.345 592.956 121.285 592.254 120.944 591.509C119.803 595.162 118.725 599.951 119.402 603.67C120.399 607.143 124.813 608.801 128.009 607.1C127.87 619.599 127.831 632.003 127.761 644.393C125.662 643.29 123.747 643.989 121.576 644.578C118.837 645.156 115.586 644.338 112.839 645.002C112.522 643.643 111.243 641.98 109.896 643.077C108.183 643.093 107.241 644.685 106.39 648.165C105.859 650.924 106.169 654.605 108.786 655.93C110.264 656.729 111.744 656.161 112.472 654.528C112.885 654.694 113.544 655.2 114.014 655.037C118.385 653.975 123.098 652.901 127.722 651.899C127.963 669.402 127.188 686.778 128.632 704.328C122.034 704.887 109.464 703.117 106.591 708.93C103.95 710.072 102.053 712.693 102.06 715.333C101.974 719.612 106.717 721.051 110.424 721.099C125.424 722.237 140.283 724.266 155.397 724.236L153.911 725.99ZM181.097 592.547C190.638 593.851 200.22 593.842 209.781 594.268C206.661 615.487 211.022 603.159 220.722 615.085C209.639 615.072 196.256 614.939 185.835 615.199C184.215 607.203 182.029 599.568 179.312 592.278L181.097 592.547ZM254.96 484.872C259.167 490.756 264.694 495.894 270.896 499.407C265.539 499.803 260.085 500.165 254.804 500.907C254.213 495.812 253.617 490.716 253.019 485.622L254.96 484.872ZM437.166 707.532C436.668 702.522 431.008 700.675 426.869 702.057C424.545 695.872 416.601 696.623 411.489 693.897C401.226 688.921 390.723 679.185 378.844 683.016C377.779 680.086 376.586 677.273 375.303 674.817C375.805 675.073 376.45 675.046 376.903 674.594L376.906 674.598C377.348 674.091 377.776 673.524 377.834 672.899C379.375 671.166 380.021 668.427 380.418 666.385C378.536 659.939 376.251 653.763 374.216 647.385C366.317 623.064 360.76 600.469 354.8 577.21C348.172 559.915 346.393 514.532 322.386 514.445C322.309 513.236 322.267 511.843 321.883 510.743C321.197 511.686 320.912 513.077 320.818 514.273C310.543 514.11 301.662 516.022 294.884 518.968C281.905 518.391 270.53 519.167 255.599 520.933C257.408 517.808 256.199 514.287 256.029 510.84C277.676 511.866 299.68 509.867 321.226 508.671C324.702 508.367 328.392 508.559 331.748 507.683C335.388 506.832 338.845 502.265 335.132 498.789C332.62 497.227 329.498 498.073 326.744 497.934C312.791 497.934 298.511 498.208 285.078 498.701C301.618 490.274 309.962 472.675 319.853 457.665C324.877 449.464 328.628 442.564 331.663 435.941C332.183 434.839 332.328 433.646 332.016 433.04C331.9 432.433 330.024 432.366 329.517 432.216C343.272 410.687 364.397 420.166 375.692 407.691C373.552 407.788 371.413 407.889 369.275 407.992L368.782 405.936C372.819 404.115 376.643 401.288 380.821 397.032C380.819 397.023 380.815 397.013 380.811 397.004C373.884 399.173 367.428 400.753 361.075 401.833L360.309 399.871C366.017 396.147 371.096 391.084 374.997 385.224C367.72 388.445 360.875 393.019 353.324 395.95L352.187 394.168C356.492 390.045 366.141 383.865 363.397 378.094C352.67 383.264 342.883 389.956 332.552 395.797C332.543 391.058 335.871 383.604 333.851 379.652C331.717 377.016 330.71 379.259 329.633 381.368C329.633 381.368 325.146 388.921 324.048 390.77C319.928 398.112 314.142 405.369 314.275 414.05C310.694 412.327 307.878 418.581 305.551 421.995C299.012 433.126 276.88 450.599 271.994 452.98C252.096 434.923 255.061 404.345 233.911 387.29C227.128 380.359 222.115 379.556 214.118 377.009C212.217 376.552 210.067 374.938 208.366 376.486C205.842 374.39 203.385 367.622 202.344 364.73C201.699 361.933 200.625 355.048 199.121 353.757C197.617 352.466 173.121 351.39 170.973 352.036C168.824 352.681 169.683 357.845 169.683 357.845L167.421 367.208L167.227 367.153C167.191 367.167 166.889 367.401 166.851 367.427C165.241 367.415 163.693 366.653 162.147 366.654C160.517 366.688 159.198 367.802 157.948 368.755C155.715 370.446 153.406 372.194 150.692 373.249C119.211 383.32 115.052 398.478 105.633 427.602C97.8822 427.822 91.3566 426.852 84.6104 426.476C82.2361 426.778 83.0079 431.397 83.0803 434.036C82.8562 440.53 87.7035 439.861 92.5113 439.803C95.691 439.841 98.8911 440.158 102.037 439.785C98.6487 455.447 91.834 479.933 99.2914 494.546C105.33 505.996 110.454 508.17 115.341 508.504C116.593 519.465 115.346 529.28 115.573 539.879C43.5286 559.321 40.2133 672.177 72.4164 727.127C98.2739 772.028 146.905 769.568 171.009 724.88C176.838 728.062 188.395 727.843 196.091 727.146C202.148 726.789 204.136 724.216 206.299 718.585C208.716 713.109 211.015 707.704 213.475 702.231C215.824 696.441 220.517 689.786 228.985 690.046C228.946 693.458 228.313 697.303 230.619 700.012C222.029 702.936 227.192 716.561 229.688 722.925C217.892 739.04 221.866 767.283 238.367 778.972C265.62 797.292 291.927 762.644 283.966 736.099C285.271 736.717 287.693 737.573 288.735 736.224C289.16 735.909 288.573 734.514 288.469 734.059C306.747 732.984 324.678 730.832 342.802 729.129C342.186 745.988 358.883 762.604 375.636 762.229C397.499 763.245 410.598 734.395 403.985 715.714C412.346 715.48 420.832 714.777 429.549 713.594C434.316 713.117 437.353 711.987 437.166 707.532Z" fill="#FAFAFA"/>
<path fill-rule="evenodd" clip-rule="evenodd" d="M168.906 358.706C168.388 358.876 168.446 357.764 169.17 357.876C169.771 357.97 169.993 358.778 170.103 359.291L170.12 359.373C171.124 364.082 169.967 369.056 167.608 373.189C167.016 374.155 166.403 375.482 165.229 375.741C165.786 379.723 166.549 383.673 167.494 387.581C170.866 388.764 174.039 390.518 177.404 391.732C183.88 394.038 190.81 394.654 197.624 395.144C202.311 395.4 207.133 395.193 211.586 393.584C213.469 393.069 215.066 391.384 217.042 391.389C215.716 387.764 214.248 384.192 212.62 380.685C207.555 380.684 203.728 375.762 202.224 371.388C201.676 369.645 201.517 367.818 201.169 366.033L201.04 365.366C200.927 364.772 200.823 364.174 200.778 363.571C200.763 363.347 201.094 361.383 201.016 361.103C201.008 361.185 200.902 361.12 200.853 361.116C200.72 360.951 200.836 360.619 201.1 360.632C201.528 360.619 201.741 361.551 201.837 361.805C203.892 366.027 204.675 371.218 208.342 374.388C210.173 373.231 212.428 374.746 214.289 375.211L214.828 375.381C223.529 378.127 227.557 378.792 234.545 385.765C246.483 395.092 250.001 406.996 254.7 420.709L254.978 421.454C259.495 433.527 263.142 441.016 272.133 450.907C275.395 449.382 295.664 433.148 302.623 423.61L302.829 423.323C304.833 420.59 309.396 411.022 313.13 411.931C313.466 403.519 319.053 396.556 322.993 389.47L328.586 380.055C329.125 379.146 329.641 377.894 330.406 377.156C331.706 375.902 333.866 377.055 334.643 378.327C336.783 381.938 334.09 388.839 333.694 393.057C343.283 387.495 352.618 381.41 362.529 376.427C363.363 376.025 364.403 376.332 364.668 377.298C366.342 384.234 357.21 390.039 352.8 394.188C360.014 391.285 366.781 387.153 373.763 383.692L374.229 383.463C375.177 382.97 376.46 384.018 375.789 385.025C371.838 390.97 366.73 396.123 360.772 400.009C367.42 398.879 373.961 397.222 380.417 395.198C381.468 394.869 382.218 396.265 381.473 397.013L381.121 397.37C377.591 400.918 373.696 404.081 369.1 406.154C371.247 406.05 373.394 405.949 375.542 405.852C376.608 405.805 376.962 407.113 376.357 407.821C373.969 410.603 370.757 412.408 367.328 413.595C352.98 417.459 340.934 417.128 331.255 430.695C333.677 431.132 333.323 433.838 332.559 435.535L332.512 435.637C329.056 443.179 324.965 450.414 320.634 457.483C311.358 471.284 303.739 487.87 289.056 496.721C298.537 496.398 308.022 496.212 317.509 496.134C320.138 496.112 322.766 496.099 325.395 496.096L327.366 496.095C329.972 496.095 333.412 495.547 335.66 497.169C339.978 500.648 336.609 507.061 331.826 507.977C328.813 508.787 325.558 508.665 322.466 508.902C323.056 510.042 323.201 511.446 323.277 512.667C334.137 513.345 340.477 521.879 343.438 531.636C349.376 550.319 353.925 569.419 358.849 588.389L359.407 590.589C364.158 609.289 369.153 627.934 375.114 646.289C377.143 652.645 379.459 658.914 381.326 665.32C381.493 665.89 381.37 666.41 381.085 666.825C380.732 669.326 379.138 673.524 376.453 674.188C377.554 676.356 378.544 678.704 379.386 680.962C391.496 677.735 401.667 687.264 411.847 692.172C416.973 694.859 424.447 694.107 427.331 700.038C431.979 698.873 437.642 701.465 438.113 706.672C438.523 712.032 433.97 713.582 429.503 713.903C421.47 714.997 413.39 715.713 405.287 715.979C409.863 731.435 402.278 753.935 386.636 760.289C366.061 768.985 342.16 751.185 341.633 729.545C324.353 731.185 307.07 733.228 289.752 734.287C290.469 736.758 287.2 737.783 285.322 737.059C289.899 757.883 276.383 784.322 253.882 784.237C224.888 784.042 213.168 743.636 228.355 722.015L228.21 721.64C225.794 715.386 221.249 702.516 228.926 698.812C227.306 696.332 227.712 693.212 227.766 690.41C220.654 690.732 216.979 695.853 214.336 701.899C211.901 707.313 209.58 712.778 207.179 718.208C204.917 724.095 202.685 727.064 196.031 727.456L195.35 727.507C187.924 728.046 178.054 728.491 171.353 725.502C155.451 754.641 122.085 771.925 93.2061 751.037C33.9229 710.05 36.107 556.451 114.384 538.258C114.416 535.331 114.458 532.404 114.509 529.476C114.341 527.61 114.378 525.749 114.546 523.858L114.582 523.084C114.797 518.311 114.847 513.487 114.259 508.742C104.76 507.97 99.0068 495.796 98.0487 493.953C90.726 479.874 97.4992 453.821 100.547 440.209C97.5905 440.445 94.8885 440.084 91.9987 440.118L90.9964 440.135C85.6258 440.218 82.0187 439.993 81.8828 433.283C81.8894 430.559 80.6799 425.508 84.2571 424.662C85.8729 424.337 87.781 424.911 89.399 425.071C94.5069 425.485 99.6215 425.8 104.745 425.768C109.19 413.006 112.67 399.351 121.136 388.547C128.327 379.406 139.829 375.807 150.169 371.487C152.976 370.398 155.345 368.513 157.763 366.691L157.93 366.561C159.13 365.637 160.436 364.857 161.995 364.815C163.511 364.774 164.921 365.463 166.404 365.563C166.666 365.368 167.006 365.246 167.302 365.329C168.092 363.139 168.676 360.864 168.964 358.558L168.94 358.452C168.895 358.276 168.878 358.32 168.891 358.588C168.96 358.588 168.97 358.685 168.906 358.706ZM253.881 711.298C250.615 711.298 247.48 711.993 244.565 713.262C243.887 717.029 246.981 722.314 248.02 726.108C248.062 727.676 248.347 729.274 248.713 730.824C248.972 735.348 250.883 739.497 251.77 743.779C251.934 744.592 253.177 744.248 253.013 743.435C252.236 739.596 251.197 735.818 250.303 732.005C250.723 732.259 251.434 731.917 251.28 731.29C250.948 729.941 250.949 728.577 251.002 727.209C273.117 730.008 271.823 766.838 249.262 767.347C234.621 767.714 226.462 747.604 234.738 735.563C233.38 732.637 231.908 729.763 230.516 726.83C218.661 746.697 231.077 780.555 253.881 779.934C290.656 778.893 290.673 712.347 253.881 711.298ZM386.655 715.627C391.02 723.78 390.555 734.735 385.018 742.25C378.756 750.793 365.089 749.793 358.954 741.594C356.529 738.672 354.661 735.093 354.551 731.228C354.543 730.376 355.093 728.868 354.351 728.198L349.61 728.707C347.239 728.96 344.868 729.211 342.497 729.455C349.367 747.85 366.253 764.508 386.869 755.296C399.645 748.235 404.379 731.37 402.515 717.608C402.41 716.95 402.648 716.41 403.035 716.046C397.575 716.172 392.092 716.2 386.655 715.627ZM162.69 576.022C126.251 518.281 78.2499 555.664 65.9627 608.659C56.7352 645.148 60.0101 689.695 79.2766 721.995C101.902 760.46 140.087 760.414 162.69 721.995C179.796 693.322 184.296 654.982 178.631 621.208C178.633 621.511 178.527 621.814 178.309 622.057C184.967 662.6 177.475 712.767 145.384 737.4C121.695 754.916 93.9945 740.594 80.6959 716.599C54.9568 673.093 56.9392 593.318 99.1607 560.616C111.213 552.009 125.368 550.375 138.422 556.528C138.555 555.715 139.058 556.611 139.254 556.932C161.714 568.879 172.815 594.539 177.948 620.08C178.258 620.252 178.464 620.516 178.563 620.809C177.861 616.681 177.006 612.622 176.003 608.659C172.864 596.404 168.384 585.424 162.69 576.022ZM245.247 745.961C243.304 744.718 244.229 748.445 244.904 749.138C245.389 749.823 246.351 749.244 246.017 748.486C245.602 747.879 246.34 746.032 245.247 745.961ZM116.095 557.733C61.5819 573.075 58.0129 673.91 84.3842 714.389C96.5242 736.191 121.188 749.92 142.904 733.887C146.463 731.368 149.825 728.237 152.969 724.53C139.007 724.416 125.072 722.542 111.14 721.487L110.824 721.459C108.714 721.275 106.55 721.175 104.606 720.263C98.7127 717.371 100.319 709.947 105.673 707.356C108.607 701.565 121.559 702.856 127.352 702.549C126.052 685.901 126.728 669.154 126.54 652.468C122.397 653.372 118.267 654.318 114.144 655.319C113.654 655.439 113.157 655.369 112.738 655.16C111.732 656.751 109.759 656.93 108.177 656.126C104.977 654.506 104.612 650.291 105.216 647.177L105.279 646.908C105.806 644.707 106.861 641.428 109.434 641.258C111.056 640.246 112.821 641.441 113.413 643.031C116.13 642.577 118.592 643.294 121.241 642.76C122.996 642.405 124.767 641.504 126.572 642.125C126.634 630.696 126.674 619.266 126.795 607.837C123.391 608.98 119.236 606.618 118.248 603.207C117.58 600.937 118.17 598.334 118.484 596.055L118.543 595.628C118.745 594.2 118.997 592.706 119.481 591.321C111.814 590.261 113.383 574.166 113.965 568.48C114.679 564.75 115.124 561.511 116.095 557.733ZM242.693 622.624C239.288 622.592 236.855 626.285 238.821 629.225C242.777 633.699 248.494 629.665 254.623 641.727C264.794 665.865 269.486 691.976 275.816 717.307C278.998 720.622 280.932 724.837 283.27 728.775C284.132 730.256 284.395 732.345 285.962 733.283C286.265 733.425 286.508 733.448 286.746 733.412C283.496 731.607 284.177 722.694 284.847 719.452L284.818 719.453C284.522 719.473 283.443 719.71 283.938 719.198L284.464 719.028L284.991 718.86L285.027 718.729C275.882 697.46 273.895 673.714 267.341 651.564L266.757 649.599C264.492 642.028 261.879 634.11 256.149 628.49C255.93 628.477 255.707 628.396 255.502 628.223L255.296 628.043C251.914 625.112 247.759 622.746 243.131 623.174C242.947 623.187 242.917 622.903 243.088 622.858C243.197 622.829 243.306 622.807 243.414 622.783C243.173 622.734 242.933 622.681 242.693 622.624ZM226.429 682.733C225.454 683.122 224.461 682.849 223.359 682.875C222.205 682.903 221.083 683.094 219.975 683.411C201.761 688.69 204.446 716.112 191.184 719.293C187.869 719.938 184.532 719.441 181.208 718.994C179.086 719.07 177.138 719.005 175.107 718.566C174.153 720.485 173.154 722.357 172.114 724.186C174.531 723.807 176.993 723.906 179.435 723.863C185.178 723.953 190.922 723.718 196.624 723C198.655 722.77 200.529 722.204 201.73 720.44C204.442 715.848 206.298 710.745 208.737 705.998L209.058 705.273C212.548 697.408 217.167 687.969 226.988 687.946C227.044 687.378 227.487 686.922 227.989 686.782C228.045 685.964 228.101 685.147 228.161 684.327C227.594 683.782 227.176 683.078 226.429 682.733ZM105.201 709.501C104.138 711.291 104.248 714.433 106.153 715.674C107.444 716.41 109.285 716.328 110.717 716.431L113.181 716.613C114.003 716.673 114.824 716.735 115.645 716.799L116.877 716.898C128.626 717.837 140.363 718.861 152.097 719.93L152.15 719.91C152.313 719.851 152.569 719.768 152.569 719.768L152.752 719.684C153.012 719.559 152.697 719.673 152.666 719.688L152.664 719.689C153.972 718.845 155.382 719.812 155.691 721.092C156.865 719.517 158.001 717.858 159.101 716.111C157.555 716.564 155.913 716.632 154.314 716.53C153.215 717.781 151.241 717.322 149.772 717.294C139.392 716.463 129.04 715.263 118.693 714.101C116.065 713.793 113.435 713.484 110.807 713.174L110.214 713.12C107.89 712.899 105.096 712.452 105.201 709.501ZM331.156 689.121C330.066 690.309 327.98 690.631 326.59 691.324C324.985 692.127 323.453 693.099 322.077 694.254C315.849 700.034 309.509 709.227 299.759 705.165C297.71 704.371 295.801 703.107 294.52 701.294C293.95 701.576 293.29 701.036 292.712 700.963C293.212 703.659 293.422 706.221 294.181 708.853C294.509 710.007 294.881 711.149 295.339 712.257C295.81 713.392 296.66 714.539 296.628 715.809C304.016 714.229 311.484 713.212 318.973 712.294C321.784 712.19 326.534 710.678 328.861 712.115C331.619 713.835 330.382 717.017 331.852 718.198C334.097 719.296 336.997 718.468 339.426 718.402C350.01 717.501 360.693 716.904 371.26 716.016C377.606 714.85 373.454 712.899 376.187 711.338C376.177 701.564 364.447 702.595 357.566 701.731C355.491 702.56 353.393 703.326 351.271 704.024C350.223 704.368 349.5 702.964 350.225 702.226L351.7 700.725C350.694 700.498 349.694 700.242 348.705 699.948C347.313 700.581 345.849 701.052 344.486 701.752L344.231 701.886C343.301 702.388 342.205 701.365 342.761 700.414C343.193 699.677 343.534 698.922 343.8 698.135C342.498 697.545 341.233 696.871 340.031 696.102L339.791 695.948L335.884 698.133C335.119 698.561 333.969 697.839 334.306 696.919C334.706 695.648 335.89 695.11 336.79 694.259C336.689 694.041 336.63 693.752 336.678 693.531C334.92 691.99 333.385 690.023 331.156 689.121ZM383.219 718.576L383.095 718.596C383.103 718.611 383.11 718.624 383.118 718.636L383.172 718.63L383.121 718.639C383.155 718.69 383.202 718.729 383.262 718.744C383.25 718.707 383.239 718.67 383.231 718.633L383.219 718.576ZM240.641 593.966L240.955 596.907C241.789 604.746 242.583 612.548 243.204 620.396C243.287 620.473 243.354 620.563 243.41 620.659L245.259 620.994C248.486 621.584 251.16 622.196 254.086 624.415C263.835 629.639 267.102 641.142 270.091 651.01C276.645 672.647 278.901 695.498 287.76 716.423C288.02 717.027 288.005 717.567 287.825 718.004C289.359 717.561 290.902 717.15 292.453 716.769C290.368 712.748 289.469 706.728 290.049 702.233L289.822 702.226C289.098 702.208 288.224 702.205 287.646 701.757C286.505 702.078 285.538 700.989 285.43 699.954L285.425 699.905C282.268 664.457 279.976 628.647 271.426 593.994C270.314 595.125 268.305 594.864 266.81 594.93L266.731 594.934C265.384 594.999 264.034 595.05 262.685 595.094L262.099 595.101C254.971 595.204 247.629 595.72 240.641 593.966ZM188.206 622.402C193.13 653.422 188.774 690.66 175.958 716.814C179.057 716.751 182.072 715.917 185.165 715.928C190.669 716.018 193.355 714.892 195.568 709.641C200.884 697.501 206.194 681.909 221.187 679.604L221.888 679.537C223.982 679.34 227.503 679.126 227.504 681.612C227.775 681.581 228.085 681.609 228.363 681.685C228.408 681.104 228.453 680.523 228.501 679.944L228.54 678.799C228.671 675.184 229.057 670.181 233.555 670.221C233.615 669.823 233.746 669.427 233.905 669.036C229.377 666.797 229.535 655.302 229.027 650.672C228.613 644.083 228.646 637.472 228.795 630.875C228.812 630.22 228.937 629.349 228.683 628.815C226.348 627.284 225.837 625.285 225.759 622.55C213.257 622.867 200.717 622.53 188.206 622.402ZM242.558 634.171C243.65 636.64 243.724 639.489 244.04 642.149C244.302 645.314 244.487 648.479 244.672 651.648L244.713 652.374C244.776 653.48 244.867 654.555 245.269 655.614L245.362 655.861C245.836 657.131 246.198 658.312 246.067 659.715C245.761 662.994 245.246 666.312 244.649 669.548C243.813 672.291 240.702 670.542 238.933 669.903L238.952 670.085C239.07 671.27 239.066 672.454 238.406 673.369C243.292 673.211 243.641 676.731 243.086 680.66L243.054 681.179C242.713 686.714 242.6 692.516 244.105 697.869C246.644 698.966 248.487 701.029 250.254 703.072C251.294 704.283 252.594 705.57 253.413 707.001C260.306 706.877 266.878 709.332 272.375 713.963L271.726 711.202C267.473 693.096 263.31 674.943 257.616 657.225C254.734 648.842 252.487 636.608 242.558 634.171ZM136.662 619.985C136.677 627.867 136.733 635.746 136.783 643.627C139.144 643.961 141.424 644.645 143.622 645.63C145.017 646.254 144.376 648.148 143.237 648.58C141.162 649.368 138.992 649.822 136.824 650.276C136.6 667.405 137.734 684.62 136.039 701.688C141.134 702.453 141.505 708.207 140.541 712.248C146.182 712.747 151.869 714.174 157.526 713.176C159.193 713.085 160.254 711.202 161.781 711.553C175.108 688.132 179.456 651.642 174.063 622.714C161.572 622.511 149.034 621.741 136.662 619.985ZM133.246 651.031C132.064 651.281 130.884 651.532 129.703 651.784C129.528 668.714 130.24 685.717 128.905 702.605C129.405 702.579 129.301 702.91 128.875 702.939C128.85 703.227 128.822 703.515 128.794 703.803C128.714 704.66 127.545 704.658 127.466 703.803C127.449 703.629 127.434 703.457 127.419 703.283C125.167 703.777 122.88 704.128 120.611 704.509C117.268 705.336 109.233 704.798 108.632 709.157L111.232 709.383C120.004 710.151 127.711 710.874 136.409 711.795C136.843 709.118 138.911 705.165 135.65 703.466C135.18 703.913 134.273 703.713 134.195 702.863C132.398 685.657 133.496 668.303 133.246 651.031ZM391.729 685.9C381.338 681.738 375.936 686.589 367.611 691.918C363.311 694.354 357.446 695.412 353.118 692.581C351.13 692.697 350.202 690.508 350.366 688.763C350.363 688.643 350.361 688.525 350.361 688.406C347.941 689.867 349.439 693.919 348.924 696.311C353.863 697.865 359.004 698.245 364.134 698.616C370.782 698.764 378.799 702.038 379.58 709.477L379.601 709.703L380.11 709.688C380.11 708.936 380.584 708.161 381.526 708.085L381.586 708.082C395.32 707.214 409.198 707.26 422.863 705.863C424.505 705.396 425.092 704.311 424.651 702.702C423.592 698.827 418.168 698.637 414.973 697.736C411.124 696.65 407.669 694.747 404.28 692.705C402.836 693.111 401.375 693.452 399.902 693.738C399.188 693.877 398.252 693.245 398.581 692.415L398.819 691.809C399.06 691.206 399.355 690.518 399.73 689.936C398.626 689.275 397.514 688.633 396.382 688.031C394.464 688.711 392.647 689.602 390.922 690.704C389.879 691.37 388.813 689.903 389.592 689.044L389.62 689.014C390.52 688.088 391.219 687.047 391.729 685.9ZM322.729 687.174C313.467 691.707 303.643 695.088 294.169 699.186L294.36 699.257C294.692 699.383 295.071 699.552 295.193 699.853C298.756 702.68 303.766 703.832 307.995 701.824C314.096 698.546 317.122 691.486 323.362 688.297C323.107 687.942 322.892 687.563 322.729 687.174ZM234.685 674.662C234.38 674.61 233.479 674.215 233.239 674.32C232.625 675.856 232.606 677.672 232.437 679.312C231.866 685.706 230.692 692.029 230.041 698.403C233.259 697.517 236.567 696.991 239.878 696.918C239.609 694.942 239.391 692.977 239.277 690.988C239.064 687.119 239.22 683.219 239.799 679.385L239.839 679.177C240.465 675.842 239.967 675.693 236.829 674.518C236.154 674.748 235.402 674.787 234.685 674.662ZM305.382 523.827C300.019 518.697 292.024 519.32 285.143 519.292C270.472 519.289 255.832 520.626 241.363 522.997C240.953 523.718 239.803 523.882 239.247 523.346C235.263 524.013 231.292 524.744 227.33 525.525C228.426 532.466 229.3 539.446 230.278 546.404L230.341 546.833C230.771 549.853 230.983 553.233 228.933 555.725C228.875 563.435 228.581 571.173 228.552 578.894C229.681 577.817 231.503 577.941 232.955 577.674C235.93 576.989 238.762 576.495 241.778 576.327C244.814 575.862 247.85 575.397 250.888 574.935C251.357 574.861 251.733 575.064 251.967 575.367C255.854 574.908 259.725 574.125 263.627 573.872L263.396 573.178C262.243 569.686 261.188 565.897 262.847 562.426C263.24 561.613 264.527 561.661 264.934 562.426C266.364 565.112 266.425 568.174 266.974 571.11C267.289 572.794 267.942 574.584 268.246 576.359C269.858 579.03 270.663 582.162 271.712 585.088C283.178 621.332 284.558 659.707 288.876 697.228C295.573 694.444 302.354 691.836 309.076 689.115C313.905 686.75 324.862 684.896 324.322 678.068C324.347 677.508 324.315 676.952 324.251 676.4C324.382 676.181 324.567 675.998 324.783 675.858C322.565 667.121 321.626 658.099 321.059 649.12C319.585 624.44 318.857 599.713 318.105 575.001L318.07 573.955C317.502 556.815 317.319 537.324 305.382 523.827ZM323.396 622.851C324.274 639.318 323.885 656.017 327.815 672.14L327.935 672.629C328.315 674.176 329.324 676.354 328.683 677.972C328.66 679.949 329.355 683.031 327.659 684.428C326.933 684.958 326 685.286 325.125 685.621C325.55 686.116 326.144 686.457 326.73 686.659L326.828 686.612C328.454 685.848 331.312 685.33 331.721 687.606C334.798 687.849 337.774 690.799 340.256 692.376C341.526 693.183 342.841 693.893 344.192 694.515C344.621 691.244 346.532 687.099 350.359 687.204C350.359 685.225 350.023 683.273 349.727 681.322C347.948 681.607 346.171 681.726 344.372 681.649C343.178 682.511 341.995 681.561 341.84 680.268C336.325 661.054 330.162 641.761 323.396 622.851ZM373.419 672.885C366.074 675.193 358.011 675.243 350.958 678.425C353.075 681.465 353.89 685.14 354.407 688.751C354.891 689.129 355.215 689.728 355.241 690.375C355.254 690.602 355.233 690.831 355.166 691.047C363.013 692.691 368.768 686.029 375.08 682.662C374.219 679.512 373.806 676.141 373.419 672.885ZM354.429 689.043L354.431 689.089C354.42 689.454 354.706 689.338 354.429 689.043ZM349.347 679.107C349.227 679.16 349.108 679.218 348.988 679.272C349.112 679.254 349.236 679.236 349.36 679.215C349.356 679.179 349.351 679.143 349.347 679.107ZM331.098 519.58C322.534 513.779 305.453 516.489 295.304 517.172C315.354 518.694 318.672 546.274 320.264 562.148C321.545 579.199 322.021 596.311 322.957 613.386C330.941 634.744 337.42 656.651 344.248 678.402C349.794 675.288 355.858 673.308 362.136 672.282L363.042 672.151C368.301 671.38 373.647 670.416 377.979 667.129C362.469 629.196 355.977 588.246 344.184 549.102C340.721 539.307 339.578 526.456 331.098 519.58ZM376.919 671.323C376.625 671.498 376.322 671.662 376.013 671.816C376.175 671.779 376.349 671.773 376.523 671.798C376.657 671.645 376.801 671.469 376.919 671.323ZM236.095 589.396C234.679 587.021 231.549 584.869 228.774 585.9C232.955 588.457 232.046 595.848 232.354 600.171L232.347 600.415C232.245 604.493 232.59 613.102 230.351 616.011C230.507 617.887 230.51 619.83 230.701 621.717C230.759 622.408 230.624 623.699 231.03 624.31C235.513 626.826 233.339 632.859 233.606 637.048C233.403 645.065 233.963 653.068 234.195 661.077C234.18 663.148 233.979 665.356 234.668 667.338C235.549 665.453 238.058 665.58 238.604 667.488C239.044 666.91 239.928 666.865 240.684 666.968C240.95 664.427 241.361 661.888 241.449 659.345C241.492 658.08 240.748 657.038 240.475 655.829C239.926 651.241 240.551 646.552 240.607 641.938L240.62 641.8C240.796 639.892 240.934 635.169 242.01 634.012C235.047 632.758 232.845 623.978 239.64 620.736C239.547 620.307 239.636 619.855 239.93 619.531C239.351 612.585 238.603 605.648 237.947 598.706C237.665 595.579 237.676 592.202 236.095 589.396ZM109.832 648.58C110.358 647.866 109.223 647.096 108.761 647.853C108.284 648.661 108.007 649.65 108.201 650.581C108.309 651.097 109.152 651.241 109.379 650.735C109.574 650.32 109.643 649.875 109.74 649.43C110 649.229 110.003 648.848 109.832 648.58ZM113.796 644.387C113.817 644.509 113.836 644.634 113.854 644.759C114.047 644.688 114.247 644.63 114.453 644.578C114.234 644.518 114.015 644.453 113.796 644.387ZM130.68 593.26C130.152 593.591 129.526 593.8 128.871 593.897C130.067 610.305 129.389 626.829 129.677 643.279C130.855 643.55 132.085 643.323 133.28 643.416C133.573 629.06 133.026 614.715 133.944 600.369C133.142 598.316 132.63 595.823 133.224 593.637C132.365 593.553 131.514 593.43 130.68 593.26ZM221.075 616.016C210.474 616.431 199.801 616.248 189.186 616.117C188.515 616.097 187.825 616.093 187.127 616.089C187.4 617.524 187.656 618.97 187.892 620.422C200.458 620.277 213.051 619.98 225.609 620.252L225.555 619.664C225.502 619.07 225.455 618.463 225.439 617.859C223.879 617.741 222.353 617.071 221.075 616.016ZM164.606 592.021C163.835 593.018 162.144 592.378 161.025 592.473C160.739 592.931 160.249 593.269 159.557 593.305C154.23 593.589 148.893 593.645 143.558 593.723C142.001 595.53 139.235 594.487 137.232 595.22C136.986 596.47 136.973 597.767 136.69 599.022C136.57 599.534 136.392 600.018 136.192 600.494C136.626 605.242 136.658 610.056 136.658 614.817C139.295 614.046 142.147 614.177 144.87 614.001C150.777 613.85 156.685 613.91 162.593 613.898C165.203 613.851 168.154 614.009 170.7 613.976C171.352 613.74 172.275 614.115 172.408 614.869C172.897 616.79 170.724 616.934 169.426 616.838C167.86 616.803 166.293 616.769 164.729 616.736C158.321 616.577 151.912 616.46 145.511 616.171C142.575 615.928 139.49 616.007 136.658 615.125L136.659 618.711C136.66 619.068 136.661 619.397 136.662 619.671C148.939 619.623 161.223 619.811 173.502 619.699C171.619 610.119 168.538 600.348 164.606 592.021ZM323.16 617.707C323.111 618.336 323.334 618.866 323.629 619.408C323.472 618.842 323.313 618.275 323.16 617.707ZM180.814 592.847C183.169 599.349 185.097 606.213 186.581 613.341C197.151 613.111 207.702 613.224 218.271 613.242C214.377 608.659 210.244 609.918 208.305 607.005C206.9 604.746 208.073 597.347 208.44 594.53C200.212 594.18 191.945 594.139 183.754 593.204C182.825 593.082 181.815 592.997 180.814 592.847ZM122.627 590.37C122.431 590.534 122.219 590.68 121.993 590.805C122.558 592.292 121.979 593.79 122.478 595.305C122.499 597.094 122.409 598.895 122.498 600.595C122.491 602.214 123.495 603.229 124.943 603.334C125.467 603.364 126.162 603.242 126.877 603.455C127.019 600.286 126.896 597.066 127.414 593.934C127.083 593.904 126.757 593.848 126.445 593.768C126.397 592.276 124.942 590.839 123.449 591.601C123.151 591.203 122.879 590.784 122.627 590.37ZM218.853 589.245C218.403 589.298 217.966 589.398 217.547 589.57C217.645 593.615 223.476 590.775 224.274 595.738C224.406 596.907 224.262 598.083 224.223 599.255C224.205 599.854 223.734 600.795 224.387 601.146C224.722 601.634 225.641 601.538 225.56 600.837C225.545 600.707 225.534 600.576 225.526 600.443C225.813 599.934 225.987 599.399 226.081 598.848C226.427 598.669 226.323 598.208 226.17 597.884C226.08 597.181 226.373 595.943 225.605 595.569C225.526 590.902 223.796 590.16 219.469 589.781C219.176 589.75 218.989 589.895 218.906 590.097C218.791 589.848 218.795 589.548 218.853 589.245ZM215.018 527.823C211.921 528.811 208.463 529.016 205.247 529.633C184.481 532.545 164.528 541.125 143.351 540.894C142.627 540.86 141.948 540.752 141.312 540.578C141.314 540.909 141.359 541.249 141.43 541.578C141.828 541.918 142.075 542.454 142.152 542.996C158.047 551.068 170.046 567.47 177.572 584.738C186.896 583.466 196.212 582.024 205.557 580.856L207.253 580.636L210.645 580.2C212.297 579.991 214.138 579.465 215.78 579.817C216.529 572.309 216.531 564.988 217.095 557.433C215.445 556.11 215.834 553.285 215.768 551.334C215.391 543.5 215.358 535.655 215.018 527.823ZM225.733 557.855C225.17 558.004 224.59 558.058 224.046 557.978C222.595 558.688 220.447 558.32 218.84 558.154C219.027 559.897 219.188 561.644 219.257 563.396C219.528 570.225 219.42 577.196 218.808 584.021C221.009 584.176 223.211 584.446 225.409 584.625C225.429 575.719 225.844 566.774 225.733 557.855ZM141.847 563.404C143.598 570.715 151.535 581.9 159.512 582.569C154.656 574.698 149.073 568.495 142.904 564.129C142.552 563.88 142.202 563.641 141.847 563.404ZM213.097 508.211C212.843 508.218 212.589 508.22 212.336 508.215C213.862 510.437 213.591 513.899 211.745 515.856C218.186 519.854 217.984 528.798 218.2 535.509C218.456 542.002 218.801 548.482 219.072 554.968C219.072 554.85 219.459 555.015 219.596 555.039C220.468 555.152 221.351 555.191 222.231 555.153C223.56 554.622 225.313 554.612 226.23 553.326C227.317 551.867 227.068 549.686 226.881 547.997C226.427 543.909 225.815 539.835 225.3 535.756C223.879 527.04 224.058 510.083 213.097 508.211ZM210.696 516.794C205.523 520.046 198.718 518.779 192.875 519.139C188.605 519.202 184.334 519.221 180.062 519.206C165.675 519.124 151.297 518.55 136.922 517.956L136.954 518.554C137.219 523.34 137.708 528.13 139.099 532.729C139.889 535.879 141.07 537.046 144.378 536.767C162.056 536.505 178.829 530.189 196.059 527.016C202.219 525.988 208.48 525.111 214.663 524.383L214.595 523.997C214.1 521.243 213.299 518.132 210.696 516.794ZM214.457 377.83C214.702 378.291 214.843 378.706 214.734 379.136C235.44 423.553 229.972 474.074 240.903 520.918C241.118 521.045 241.239 521.246 241.352 521.456C244.887 520.746 248.447 520.131 252.021 519.598C251.612 518.542 252.242 517.586 252.962 516.899C252.973 516.794 253.117 516.462 253.125 516.462C251.778 499.848 249.817 483.235 248.129 466.638C247.075 455.071 245.153 443.397 245.673 431.771C245.693 431.635 245.869 431.676 245.908 431.771C248.695 441.818 250.307 457.068 253.093 477.348C273.205 500.984 285.054 505.119 304.396 477.727L305.389 476.264C314.429 462.923 323.249 449.326 330.109 434.716C321.527 434.44 316.894 425.404 313.227 418.775C312.607 418.439 312.193 417.932 311.854 417.25C308.948 420.88 306.648 425.358 303.706 429.044C296.402 438.663 279.623 450.591 279.255 450.973L279.185 451.036C278.082 452.047 274.76 455.868 273.733 455.765C269.259 459.921 259.309 440.563 258.112 436.915C255.194 429.811 252.841 427.627 250.31 420.38L249.874 419.075C246.387 408.604 242.883 397.574 234.156 390.256L233.814 389.891C228.229 383.967 222.797 379.346 214.457 377.83ZM321.169 508.981C318.689 509.134 316.207 509.282 313.728 509.431L311.433 509.567C293.333 510.654 275.194 511.995 257.057 511.204C257.228 513.76 258.119 516.408 257.137 518.892C269.65 517.425 282.245 516.523 294.812 517.13C302.281 513.593 311.345 512.484 319.742 512.439C319.883 511.264 320.37 509.935 321.169 508.981ZM193.878 488.905C181.699 483.455 169.787 489.003 165.5 502.185C165.801 502.432 166.007 502.868 166.059 503.308C167.187 504.817 169.255 504.77 170.949 504.984C174.357 505.435 177.662 506.537 180.675 508.205C182.338 509.115 183.767 510.432 185.484 511.226L186.408 512.096C187.95 513.542 189.531 514.934 191.575 515.698C193.691 515.809 190.957 511.675 190.512 510.872L190.347 510.605C189.455 509.187 188.309 507.573 189.529 505.962C191.752 507.03 193.543 508.571 195.332 510.29L195.655 510.604C197.395 512.31 199.396 514.45 201.895 514.729C202.316 514.776 202.622 514.28 202.516 513.912C201.395 510.186 198.116 507.581 195.064 505.343C195.09 504.281 195.826 503.469 196.79 503.237C201.074 505.71 204.064 509.626 208.253 512.162C208.704 512.43 209.179 512.076 209.223 511.605C209.197 508.307 205.842 505.779 203.53 503.826C203.05 503.453 202.558 503.092 202.056 502.744C202.17 502.083 202.773 501.505 203.527 501.398C204.9 501.789 213.137 508.2 213.16 505.237L213.145 505.156C212.925 504.114 211.731 501.853 210.578 502.132C206.309 496.847 200.179 491.353 193.878 488.905ZM161.854 367.758C157.55 370.235 153.421 372.917 149.112 375.368C143.62 378.523 137.719 380.971 132.441 384.501C116.37 396.373 111.711 421.395 105.866 439.644L105.039 443.186C101.689 457.556 96.6587 480.447 102.728 492.158L102.771 492.25C103.528 493.862 107.132 500.395 108.989 501.556C114.429 504.958 125.807 506.114 135.696 505.448C145.11 505.01 154.378 503.205 163.566 501.307C163.777 498.135 165.325 495.484 166.954 492.901L167.123 492.633L167.312 492.353C169.616 488.961 172.215 486.211 176.023 484.713C163.303 480.897 142.363 485.809 128.184 475.819C127.051 475.021 128.04 473.331 129.268 473.961C130.007 474.339 130.758 474.686 131.518 475.009C130.848 472.589 132.594 471.149 133.636 469.048L133.677 468.963C142.631 450.856 149.676 430.502 155.921 412.053C154.104 424.96 151.171 437.743 147.013 450.09C150.824 453.022 154.005 456.718 157.441 460.071C161.121 463.984 165.586 467.311 168.395 471.959C169.007 473.041 167.802 474.134 166.755 473.6C164.288 472.344 162.241 470.351 160.348 468.37L159.578 467.53C154.88 462.388 150.247 457.096 146.662 451.103C144.271 458.046 141.32 463.803 138.164 470.35L137.76 471.191C137.062 472.639 136.411 474.254 135.261 475.324C136.022 476.851 137.968 477.206 139.469 477.652C151.662 481.081 164.608 478.216 176.851 481.338L177.658 481.547C178.465 481.757 179.28 482.012 179.761 482.75C190.439 483.141 200.837 487.525 209.16 494.282L209.375 494.453C212.881 497.266 216.474 500.98 217.104 505.636C217.222 506.514 216.898 507.755 215.851 507.953C217.877 508.205 219.706 509.25 221.208 510.696C206.886 460.895 164.929 421.242 161.854 367.758ZM207.199 509.333C207.398 509.634 207.578 509.949 207.709 510.277C207.645 510.232 207.583 510.183 207.519 510.138C207.537 509.975 207.416 509.794 207.3 509.663L207.301 509.661C207.246 509.596 207.194 509.526 207.14 509.459C207.164 509.419 207.183 509.377 207.199 509.333ZM253.963 484.733C254.518 489.467 255.072 494.199 255.622 498.933C259.538 498.415 263.483 498.104 267.426 497.812L267.207 497.676C265.214 496.427 263.375 494.966 261.651 493.369C259.755 491.613 257.949 489.715 256.285 487.737C255.469 486.768 254.697 485.764 253.963 484.733ZM160.635 434.018C161.243 439.442 164.615 444.04 167.749 448.309C168.57 449.426 166.704 450.499 165.894 449.395L165.567 448.949C162.274 444.44 159.123 439.705 158.486 434.018C158.332 432.642 160.483 432.658 160.635 434.018ZM362.239 380.121C352.526 386.233 342.361 391.59 332.426 397.328C331.21 398.019 329.978 396.882 330.206 395.619C330.713 392.817 331.216 390.015 331.711 387.211L332.092 385.038C332.236 384.254 332.83 381.425 332.263 380.362C329.8 384.541 327.254 388.672 324.696 392.794L321.904 397.289C318.915 402.104 315.569 406.991 314.381 412.598C315.106 413.288 315.48 414.289 315.569 415.272C316.404 415.608 316.975 416.54 316.747 417.525C320.324 421.813 322.767 427.974 328.491 429.776C334.983 420.411 345.653 414.931 356.809 413.568L358.79 413.221C363.627 412.365 368.668 411.318 372.521 408.303C368.696 408.488 364.871 408.665 361.045 408.83C359.764 408.886 359.493 406.864 360.742 406.595C366.3 405.396 371.947 402.847 376.391 399.077C368.976 401.698 361.195 403.253 353.352 403.864C351.739 403.883 351.458 401.547 352.978 401.091C359.89 398.238 366.087 393.7 370.84 387.94L370.991 387.755L361.032 393.016C356.878 395.21 352.435 397.922 347.585 397.915C346.176 397.913 345.862 396.147 346.908 395.413L348.272 394.397C352.871 390.962 361.582 384.27 362.239 380.121Z" fill="#343434"/>
<path fill-rule="evenodd" clip-rule="evenodd" d="M231.145 356.266C230.313 355.032 228.308 346.082 227.027 344.705C227.123 339.418 228.583 321.112 224.414 312.882C225.291 311.994 227.621 304.345 227.027 301.454C228.99 295.398 216.375 285.78 211.573 283.181C189.258 271.197 156.923 284.425 146.774 306.626C140.676 319.995 140.564 334.965 139.874 349.351C139.793 352.43 139.51 355.533 139.513 358.609C139.954 361.312 142.094 364.064 140.472 366.311C138.68 367.552 135.059 370.576 136.671 372.291C137.616 373.079 139.125 372.622 140.151 373.379C140.673 373.672 140.998 374.313 141.609 374.41C147.186 374.198 151.121 374.18 156.715 373.954C159.164 373.873 162.893 374.911 165.704 372.846C175.522 378.315 171.415 370.38 173.401 364.73C179.447 366.778 191.491 373.307 197.935 373.517C203.172 374.166 208.07 371.111 213.218 371.806C219.614 374.186 227.11 374.715 232.969 370.689C234.432 369.634 236.058 370.856 237.901 369.717C241.483 368.002 232.953 358.169 231.145 356.266Z" fill="#FAFAFA"/>
<path fill-rule="evenodd" clip-rule="evenodd" d="M223.836 312.18C223.756 311.723 224.385 311.383 224.628 311.846C226.393 315.208 227.101 319.102 227.726 322.816C228.358 326.569 228.775 330.338 228.798 334.148C228.816 337.078 228.55 340.043 228.051 342.976L228.112 343.184C228.224 343.568 228.337 343.951 228.451 344.334L228.624 344.908C228.957 346.01 229.273 347.117 229.615 348.216C230.329 350.511 231.082 352.811 232.003 355.032C232.902 357.199 233.996 359.288 235.295 361.241C236.548 363.124 238.536 364.715 239.419 366.806C239.726 367.535 239.271 368.498 238.422 368.382C238.366 368.449 238.282 368.497 238.168 368.507C237.508 368.565 236.89 368.51 236.232 368.448C235.864 368.413 235.865 367.91 236.232 367.876C236.511 367.85 236.784 367.826 237.056 367.811C235.173 366.694 233.831 364.512 232.757 362.727C231.377 360.433 230.335 357.926 229.485 355.391C228.613 352.788 227.995 350.131 227.499 347.434C227.442 347.123 227.388 346.812 227.335 346.501C226.708 349.172 225.9 351.794 224.943 354.313L224.809 354.664C222.602 360.394 219.613 366.179 214.641 369.966C214.416 370.138 214.185 370.301 213.953 370.46L214.236 370.623C214.517 370.784 214.795 370.938 215.066 371.065C216.07 371.534 217.161 371.892 218.24 372.146C220.468 372.67 222.808 372.52 225.081 372.593C225.826 372.617 226.25 373.736 225.488 374.1C222.978 375.297 220.266 375.043 217.674 374.201C216.392 373.783 215.189 373.199 214.075 372.437C213.615 372.122 213.081 371.733 212.629 371.284C207.658 374.07 201.478 374.382 195.944 373.385C193.068 372.867 190.281 371.922 187.83 370.304C185.471 368.748 183.79 366.778 182.59 364.227C182.484 364 182.78 363.719 182.961 363.94C186.731 368.525 193.219 370.439 198.926 370.803C201.972 370.997 205.087 370.836 208.015 369.923C210.792 369.057 213.175 367.47 215.165 365.359C219.198 361.08 221.615 355.259 223.351 349.719C225.239 343.693 226.138 337.352 226.324 331.045C226.418 327.85 226.299 324.628 225.798 321.468C225.301 318.334 224.379 315.301 223.836 312.18ZM167.314 285.032C167.581 284.896 167.769 285.25 167.542 285.424C162.841 289.034 158.631 293.613 155.224 298.458C148.94 307.396 144.91 317.738 143.054 328.484C141.958 334.83 141.672 341.273 141.781 347.704C141.825 350.258 141.97 352.805 142.133 355.353L142.315 358.177C142.4 359.492 142.471 360.797 142.417 362.119L142.402 362.424C142.315 363.963 142.466 365.514 142.08 367.014C141.883 367.784 140.799 367.905 140.406 367.233C140.33 367.102 140.258 366.966 140.188 366.829C139.268 368.331 138.077 369.674 136.756 370.874C137.387 370.74 138.025 370.654 138.68 370.732C139.718 370.857 140.649 371.258 141.308 371.962C141.962 371.667 142.634 371.463 143.407 371.459C143.977 371.456 144.404 372.13 144.079 372.631C143.431 373.631 142.526 374.192 141.498 374.746C140.77 375.138 139.9 374.803 139.631 374.026L139.616 373.979C139.313 372.997 137.703 373.156 136.944 373.307L136.72 373.353C135.306 373.648 133.925 374.025 132.485 373.636C131.555 373.385 131.313 371.984 132.208 371.519C135.038 370.051 137.414 368.078 139.855 366.097C139.316 364.774 139.01 363.295 138.657 361.949C138.16 360.054 138.015 358.016 137.836 356.07C137.495 352.37 137.365 348.63 137.401 344.916C137.525 332.37 139.667 319.785 145.14 308.425C147.537 303.448 150.686 298.843 154.409 294.767C158.11 290.715 162.432 287.515 167.314 285.032ZM162.933 346.472C162.787 346.27 163.071 346.004 163.27 346.134C167.572 348.965 170.558 353.263 172.485 357.984C174.392 362.659 175.563 368.384 173.682 373.259C173.383 374.035 171.949 374.324 171.802 373.259C171.146 368.505 171.044 363.744 169.603 359.122C168.173 354.54 165.727 350.344 162.933 346.472ZM159.596 361.906C159.62 361.822 159.757 361.837 159.751 361.927C159.643 363.604 159.57 365.3 159.36 366.968C159.257 367.778 159.122 368.583 159.007 369.391C158.889 370.22 158.907 371.057 158.425 371.765C157.788 372.704 156.093 372.44 156.15 371.148C156.189 370.257 156.598 369.685 156.981 368.903C157.227 368.402 157.441 367.883 157.647 367.363L157.954 366.582C158.564 365.033 159.147 363.51 159.596 361.906ZM151.892 357.465C151.918 357.333 152.13 357.365 152.124 357.496C152.009 359.869 151.742 362.215 151.323 364.554C151.133 365.619 150.91 366.679 150.675 367.736L150.573 368.189C150.322 369.302 150.159 370.61 149.595 371.605C149.032 372.598 147.694 371.877 147.867 370.875C148.07 369.705 148.786 368.529 149.203 367.406C149.587 366.369 149.924 365.314 150.238 364.254C150.899 362.022 151.441 359.748 151.892 357.465ZM166.239 364.053L166.29 364.001C166.485 363.788 166.777 363.93 166.871 364.155C167.254 365.077 167.062 366.164 167.035 367.142L167.03 367.356C167.009 368.347 167.023 369.275 166.575 370.191C166.03 371.302 164.594 370.612 164.483 369.623C164.361 368.544 164.871 367.488 165.2 366.478C165.409 365.836 165.561 365.168 165.879 364.585C165.607 364.632 165.336 364.726 165.087 364.794C164.976 364.824 164.934 364.661 165.04 364.623C165.451 364.477 165.915 364.368 166.239 364.053ZM223.519 367.324C223.388 367.177 223.552 366.981 223.722 367.06C225.768 368.017 227.682 368.64 229.94 368.844C230.918 368.932 230.924 370.472 229.94 370.382C227.584 370.17 225.114 369.112 223.519 367.324ZM151.53 334.987C153.332 330.928 159.031 327.328 162.852 331.102C162.924 331.173 162.851 331.327 162.747 331.283C160.37 330.297 157.46 331.552 155.815 333.346C154.51 334.77 153.726 336.598 153.57 338.525C153.414 340.453 153.875 342.466 155.153 343.957C155.824 344.74 156.73 345.48 157.796 345.574C158.872 345.669 159.769 344.91 160.787 344.704C161.554 344.548 162.133 345.03 162.208 345.788C162.373 347.459 160.712 348.581 159.272 348.853C157.723 349.146 156.142 348.826 154.807 347.985C150.496 345.27 149.566 339.413 151.53 334.987ZM191.98 295.208C192.764 294.458 194.096 295.204 193.807 296.273C193.192 298.55 191.886 300.474 190.438 302.3C189.046 304.057 187.554 305.746 185.955 307.317C184.366 308.878 182.64 310.323 180.826 311.613L180.28 312.001C178.994 312.908 177.632 313.826 176.193 314.48C175.846 317.478 175.166 320.437 174.137 323.269C173.147 325.996 171.886 328.632 170.359 331.098L170.14 331.451C168.736 333.704 167.049 336.222 164.667 337.456C164.596 337.494 164.524 337.516 164.454 337.53C164.986 337.885 165.436 338.333 165.704 338.976C165.997 339.68 165.384 340.344 164.797 340.577C163.554 341.068 162.342 340.236 161.225 339.348C161.178 339.455 161.133 339.562 161.095 339.671C160.845 340.38 160.772 341.104 160.128 341.575C159.822 341.798 159.444 341.598 159.252 341.345C158.62 340.514 159.274 339.382 159.829 338.702C159.906 338.609 159.986 338.519 160.067 338.434C159.833 338.261 159.604 338.108 159.382 337.99C158.077 337.298 156.144 337.176 155.393 338.707C155.335 338.825 155.154 338.764 155.154 338.642C155.156 336.761 157.08 335.74 158.75 335.601C159.97 335.499 161.15 335.928 162.248 336.427L162.453 336.521C162.862 336.711 163.283 336.89 163.685 337.091C163.62 336.918 163.621 336.714 163.724 336.512C164.987 334.042 167.155 332.034 168.719 329.746C170.27 327.477 171.601 325.048 172.664 322.512C173.696 320.051 174.504 317.512 175.069 314.923C174.883 314.961 174.673 314.795 174.686 314.601C174.718 314.13 174.948 313.705 175.352 313.525C175.797 311.089 176.024 308.612 176.011 306.115C176.01 305.922 176.29 305.929 176.306 306.115C176.503 308.335 176.519 310.577 176.353 312.806C177.404 311.837 178.512 310.917 179.524 309.923C181.046 308.427 182.519 306.892 183.94 305.299C185.39 303.675 186.76 301.99 188.013 300.208L188.668 299.273C189.676 297.84 190.712 296.422 191.98 295.208ZM190.003 279.212C198.649 278.672 207.883 279.736 215.649 283.8C219.915 286.033 223.211 289.406 225.567 293.605C226.974 296.112 228.041 298.888 228.445 301.743C228.86 304.675 228.372 307.29 226.503 309.622C225.76 310.547 224.509 309.513 224.692 308.566C225.812 302.771 223.996 297.045 220.776 292.247C216.104 285.285 207.944 282.192 200 280.813C196.096 280.135 192.137 279.852 188.177 279.99C185.158 280.095 182.061 280.377 179.196 281.394C179.076 281.437 179.027 281.249 179.144 281.204C182.561 279.897 186.376 279.439 190.003 279.212ZM202.826 292.316C203.271 292.034 203.816 292.324 203.969 292.782C204.508 294.399 203.378 296.534 202.621 297.933C201.766 299.515 200.665 300.995 199.528 302.385C197.255 305.166 194.266 307.486 190.987 308.944C190.786 309.033 190.552 308.79 190.736 308.619C193.274 306.252 195.574 303.715 197.566 300.869C198.544 299.471 199.361 297.995 200.14 296.48C200.837 295.124 201.493 293.163 202.826 292.316ZM217.367 294.22C217.652 293.226 219.272 293.395 219.205 294.47C219.032 297.245 217.724 300.032 216.303 302.384C214.84 304.806 212.988 306.965 210.864 308.83C210.759 308.921 210.616 308.78 210.711 308.676C212.543 306.667 214.023 304.379 215.119 301.889C216.214 299.402 216.627 296.807 217.367 294.22ZM209.315 293.771C209.625 292.906 211.108 292.97 211.017 294.002C210.767 296.838 209.106 299.809 207.567 302.152C205.933 304.637 203.849 306.826 201.519 308.665C201.432 308.733 201.308 308.619 201.394 308.539C203.486 306.564 205.183 304.283 206.527 301.739C207.212 300.441 207.788 299.089 208.242 297.693C208.662 296.401 208.859 295.044 209.315 293.771Z" fill="#343434"/>
<path fill-rule="evenodd" clip-rule="evenodd" d="M204.668 356.704C203.256 356.127 201.996 355.164 201.075 353.935C200.755 353.507 200.672 353.056 200.739 352.643C200.814 352.179 201.089 351.758 201.462 351.476C201.838 351.193 202.307 351.053 202.76 351.125C203.155 351.186 203.547 351.403 203.857 351.851L203.922 351.941C204.47 352.683 205.184 353.291 205.997 353.684C206.781 354.062 207.657 354.239 208.564 354.136C210.292 353.941 211.483 353.005 212.748 351.734C212.905 351.574 213.062 351.408 213.22 351.24C213.32 351.088 213.458 350.99 213.611 350.938C213.782 350.881 213.975 350.884 214.151 350.946C214.322 351.006 214.474 351.119 214.576 351.269C214.673 351.411 214.728 351.588 214.71 351.79C214.594 353.107 213.907 354.283 212.93 355.205C211.846 356.23 210.408 356.939 209.055 357.188C207.564 357.462 206.044 357.266 204.668 356.704ZM209.758 336.388C211.344 337.353 213.762 339.605 212.055 341.999C210.046 344.111 207.154 341.69 205.729 340.595C204.407 339.747 202.922 341.929 204.149 342.92C214.447 350.556 218.627 336.64 210.56 335.252C209.672 335.099 209.342 336.089 209.758 336.388ZM191.302 327.504C191.478 325.325 194.791 324.831 195.121 326.987C195.416 328.918 195.069 330.693 194.2 332.432C193.37 334.093 191.284 333.318 191.126 331.805C190.914 329.777 191.193 328.86 191.302 327.504ZM216.525 326.54C216.987 325.934 217.654 325.52 218.453 325.754C220.95 326.485 220.214 330.035 219.337 331.763C218.861 332.701 217.321 332.939 216.625 332.113C215.49 330.765 214.947 328.075 216.389 326.747C216.428 326.679 216.472 326.61 216.525 326.54ZM194.165 317.97L194.559 317.901C195.779 317.689 197.296 317.486 198.159 318.469C198.617 318.99 198.775 319.958 198.159 320.457C197.077 321.334 195.88 320.994 194.583 321.068C193.515 321.13 192.487 321.307 191.458 321.602C189.199 322.248 187.358 323.429 185.429 324.725C185.176 324.895 184.918 324.57 185.038 324.333C186.152 322.149 188.31 320.354 190.472 319.26C191.626 318.676 192.888 318.192 194.165 317.97ZM214.249 316.991L214.551 317.053C217.836 317.741 222.104 319.115 223.66 322.346C223.719 322.803 223.657 322.901 223.606 322.965L223.589 322.986C223.547 323.041 223.513 323.116 223.315 323.179C223.261 323.166 223.205 323.152 223.149 323.137C222.436 322.95 221.872 322.692 221.326 322.424L220.733 322.132C220.046 321.795 219.353 321.47 218.619 321.23C217.051 320.718 215.439 320.357 213.801 320.164C213.446 320.122 213.105 320.003 212.835 319.797C212.579 319.602 212.383 319.332 212.294 318.972C212.179 318.508 212.212 318.156 212.461 317.736C212.648 317.422 212.916 317.203 213.224 317.078C213.537 316.95 213.894 316.92 214.249 316.991Z" fill="#343434"/>
<path d="M573.681 557.358C572.22 557.993 571.127 559.227 570.618 560.74C570.109 562.253 570.231 563.93 570.952 565.393C571.673 566.855 572.929 567.973 574.439 568.492C575.948 569.01 577.593 568.895 578.986 568.122C578.986 568.122 578.986 568.122 578.986 568.122C593.908 559.874 608.01 550.325 621.11 539.633C640.71 523.638 658.062 505.079 672.653 484.555C672.692 484.501 672.731 484.446 672.769 484.392C697.148 450.115 713.533 410.017 719.397 368.059C725.334 326.157 720.603 282.471 705.007 242.818C705.002 242.805 704.997 242.792 704.992 242.779C689.483 203.135 663.944 167.475 631.403 140.029C598.903 112.514 559.469 93.2765 517.778 84.601C476.473 75.9265 433.043 77.6413 392.551 89.5449C392.188 89.6511 391.826 89.7583 391.464 89.8664C350.587 102.021 313.592 125.633 284.253 155.967C284.13 156.094 284.007 156.221 283.884 156.348C266.39 174.451 251.64 195.116 240.239 217.428C232.581 232.405 226.426 248.119 221.883 264.261C221.742 264.763 221.808 265.305 222.061 265.766C222.315 266.227 222.736 266.57 223.236 266.719C223.736 266.868 224.276 266.813 224.741 266.567C225.206 266.321 225.558 265.904 225.716 265.406C225.716 265.406 225.716 265.406 225.716 265.406C230.696 249.671 237.234 234.458 245.192 220.061C257.041 198.611 272.052 178.983 289.55 161.996C289.673 161.877 289.796 161.758 289.919 161.638C319.373 133.125 356.018 112.878 394.888 101.367C395.234 101.264 395.579 101.162 395.925 101.061C434.532 89.7113 475.941 88.0764 515.322 96.347C555.072 104.619 592.671 122.96 623.658 149.195C654.683 175.363 679.034 209.363 693.821 247.161C693.826 247.173 693.831 247.186 693.836 247.198C708.678 284.961 714.711 326.308 710.461 366.965C706.292 407.585 691.715 447.41 667.877 480.918C667.839 480.972 667.801 481.025 667.763 481.078C653.52 501.122 635.976 518.811 616.134 533.171C602.876 542.775 588.601 550.9 573.681 557.358Z" fill="#343434"/>
</svg>
