<svg width="264" height="167" viewBox="0 0 264 167" fill="none" xmlns="http://www.w3.org/2000/svg">
<rect x="1.5" y="1.5" width="261" height="164" rx="13.5" fill="white"/>
<rect x="1.5" y="1.5" width="261" height="164" rx="13.5" stroke="#343434" stroke-width="3"/>
<path d="M43.564 53.432C41.14 53.432 39.136 53.012 37.552 52.172C35.992 51.332 34.816 50.18 34.024 48.716C33.232 47.228 32.836 45.512 32.836 43.568C32.836 42.104 33.064 40.772 33.52 39.572C33.976 38.348 34.66 37.292 35.572 36.404C36.484 35.516 37.6 34.832 38.92 34.352C40.264 33.872 41.8 33.632 43.528 33.632C44.608 33.632 45.592 33.716 46.48 33.884C47.392 34.028 48.328 34.28 49.288 34.64L48.316 38.276C47.692 38.06 47.032 37.892 46.336 37.772C45.664 37.628 44.848 37.556 43.888 37.556C42.4 37.556 41.176 37.796 40.216 38.276C39.256 38.756 38.536 39.44 38.056 40.328C37.6 41.216 37.372 42.296 37.372 43.568C37.372 44.84 37.612 45.92 38.092 46.808C38.596 47.672 39.34 48.344 40.324 48.824C41.332 49.28 42.592 49.508 44.104 49.508C44.896 49.508 45.712 49.46 46.552 49.364C47.416 49.244 48.22 49.052 48.964 48.788L49.612 52.496C49.108 52.688 48.544 52.856 47.92 53C47.32 53.12 46.66 53.216 45.94 53.288C45.22 53.384 44.428 53.432 43.564 53.432ZM61.0805 53.432C59.9285 53.432 58.8605 53.324 57.8765 53.108C56.9165 52.916 56.0765 52.592 55.3565 52.136C54.6365 51.656 54.0725 51.02 53.6645 50.228C53.2805 49.412 53.0885 48.428 53.0885 47.276C53.0885 45.788 53.4605 44.624 54.2045 43.784C54.9725 42.944 55.9565 42.344 57.1565 41.984C58.3565 41.6 59.6285 41.408 60.9725 41.408C61.6445 41.408 62.2685 41.444 62.8445 41.516C63.4445 41.564 63.9965 41.648 64.5005 41.768V41.048C64.5005 40.4 64.3685 39.8 64.1045 39.248C63.8645 38.696 63.4445 38.252 62.8445 37.916C62.2445 37.58 61.4285 37.412 60.3965 37.412C59.3885 37.412 58.4525 37.484 57.5885 37.628C56.7245 37.772 56.0405 37.94 55.5365 38.132L54.9245 34.496C55.4765 34.28 56.3045 34.088 57.4085 33.92C58.5365 33.728 59.7005 33.632 60.9005 33.632C62.9165 33.632 64.5005 33.944 65.6525 34.568C66.8045 35.192 67.6205 36.068 68.1005 37.196C68.5805 38.324 68.8205 39.656 68.8205 41.192V52.604C68.0765 52.772 67.0085 52.952 65.6165 53.144C64.2485 53.336 62.7365 53.432 61.0805 53.432ZM61.3325 49.796C61.9325 49.796 62.5085 49.784 63.0605 49.76C63.6365 49.712 64.1165 49.664 64.5005 49.616V44.9C64.1645 44.852 63.7445 44.804 63.2405 44.756C62.7365 44.684 62.2565 44.648 61.8005 44.648C61.0565 44.648 60.3605 44.72 59.7125 44.864C59.0645 45.008 58.5365 45.26 58.1285 45.62C57.7205 45.956 57.5165 46.472 57.5165 47.168C57.5165 48.104 57.8645 48.776 58.5605 49.184C59.2565 49.592 60.1805 49.796 61.3325 49.796ZM75.1051 53V35.288C76.4251 34.808 77.7691 34.436 79.1371 34.172C80.5291 33.884 82.0891 33.74 83.8171 33.74C84.2491 33.74 84.8011 33.764 85.4731 33.812C86.1451 33.86 86.8411 33.932 87.5611 34.028C88.2811 34.124 88.9411 34.268 89.5411 34.46L88.7491 38.564C88.2931 38.444 87.7651 38.336 87.1651 38.24C86.5891 38.144 86.0251 38.072 85.4731 38.024C84.9211 37.976 84.4171 37.952 83.9611 37.952C83.2411 37.952 82.5211 38 81.8011 38.096C81.0811 38.168 80.3491 38.3 79.6051 38.492V53H75.1051ZM102.99 53.432C100.854 53.432 99.0176 53.048 97.4816 52.28C95.9696 51.512 94.8056 50.408 93.9896 48.968C93.1976 47.504 92.8016 45.74 92.8016 43.676C92.8016 41.996 93.0416 40.532 93.5216 39.284C94.0256 38.036 94.6976 36.992 95.5376 36.152C96.4016 35.312 97.3616 34.688 98.4176 34.28C99.4736 33.848 100.566 33.632 101.694 33.632C103.518 33.632 105.042 34.004 106.266 34.748C107.514 35.468 108.462 36.548 109.11 37.988C109.758 39.404 110.082 41.18 110.082 43.316C110.082 43.58 110.07 43.868 110.046 44.18C110.046 44.492 110.034 44.756 110.01 44.972H97.3736C97.4216 46.412 97.9736 47.528 99.0296 48.32C100.086 49.112 101.49 49.508 103.242 49.508C104.274 49.508 105.234 49.412 106.122 49.22C107.034 49.004 107.766 48.8 108.318 48.608L108.93 52.388C108.21 52.676 107.346 52.916 106.338 53.108C105.354 53.324 104.238 53.432 102.99 53.432ZM97.4096 41.732H105.69C105.69 40.94 105.546 40.22 105.258 39.572C104.994 38.924 104.562 38.408 103.962 38.024C103.386 37.616 102.654 37.412 101.766 37.412C100.854 37.412 100.086 37.616 99.4616 38.024C98.8616 38.432 98.3936 38.972 98.0576 39.644C97.7216 40.292 97.5056 40.988 97.4096 41.732ZM119.858 59.768C118.706 59.768 117.59 59.648 116.51 59.408C115.43 59.192 114.434 58.94 113.522 58.652L114.386 54.8C115.13 55.088 115.934 55.352 116.798 55.592C117.686 55.856 118.742 55.988 119.966 55.988C121.142 55.988 122.066 55.808 122.738 55.448C123.434 55.112 123.926 54.62 124.214 53.972C124.502 53.348 124.646 52.616 124.646 51.776V51.056C124.046 51.272 123.422 51.476 122.774 51.668C122.126 51.836 121.406 51.92 120.614 51.92C119.03 51.92 117.662 51.572 116.51 50.876C115.382 50.18 114.506 49.172 113.882 47.852C113.282 46.508 112.982 44.9 112.982 43.028C112.982 41.012 113.354 39.308 114.098 37.916C114.866 36.524 115.946 35.48 117.338 34.784C118.73 34.064 120.398 33.704 122.342 33.704C123.542 33.704 124.694 33.8 125.798 33.992C126.926 34.16 128.042 34.4 129.146 34.712V50.948C129.146 53.996 128.402 56.228 126.914 57.644C125.426 59.06 123.074 59.768 119.858 59.768ZM121.406 48.212C122.054 48.212 122.654 48.128 123.206 47.96C123.782 47.768 124.262 47.564 124.646 47.348V37.7C124.262 37.604 123.878 37.532 123.494 37.484C123.134 37.436 122.702 37.412 122.198 37.412C121.19 37.412 120.338 37.628 119.642 38.06C118.946 38.492 118.418 39.128 118.058 39.968C117.722 40.784 117.554 41.804 117.554 43.028C117.554 44.18 117.71 45.14 118.022 45.908C118.334 46.652 118.778 47.228 119.354 47.636C119.93 48.02 120.614 48.212 121.406 48.212ZM145.259 53.432C143.579 53.432 142.259 53.12 141.299 52.496C140.339 51.848 139.655 50.924 139.247 49.724C138.863 48.524 138.671 47.06 138.671 45.332V37.844H133.379V34.136H143.135V45.8C143.135 46.688 143.231 47.408 143.423 47.96C143.639 48.488 143.951 48.884 144.359 49.148C144.791 49.388 145.331 49.508 145.979 49.508C146.507 49.508 147.095 49.448 147.743 49.328C148.391 49.184 149.063 48.944 149.759 48.608L150.335 52.244C149.807 52.508 149.255 52.736 148.679 52.928C148.127 53.096 147.551 53.216 146.951 53.288C146.375 53.384 145.811 53.432 145.259 53.432ZM140.219 31.292C139.427 31.292 138.731 31.016 138.131 30.464C137.555 29.912 137.267 29.18 137.267 28.268C137.267 27.332 137.555 26.6 138.131 26.072C138.731 25.52 139.427 25.244 140.219 25.244C141.035 25.244 141.731 25.52 142.307 26.072C142.907 26.6 143.207 27.332 143.207 28.268C143.207 29.18 142.907 29.912 142.307 30.464C141.731 31.016 141.035 31.292 140.219 31.292ZM159.859 53C159.067 51.392 158.239 49.592 157.375 47.6C156.535 45.608 155.707 43.484 154.891 41.228C154.099 38.948 153.343 36.584 152.623 34.136H157.339C157.723 35.528 158.167 37.052 158.671 38.708C159.175 40.364 159.703 41.984 160.255 43.568C160.831 45.128 161.371 46.532 161.875 47.78C162.235 46.868 162.631 45.848 163.063 44.72C163.519 43.592 163.963 42.416 164.395 41.192C164.851 39.944 165.283 38.72 165.691 37.52C166.099 36.32 166.435 35.192 166.699 34.136H171.271C170.743 35.984 170.155 37.784 169.507 39.536C168.883 41.264 168.235 42.932 167.563 44.54C166.915 46.124 166.255 47.624 165.583 49.04C164.935 50.456 164.311 51.776 163.711 53H159.859ZM183.568 53.432C181.432 53.432 179.596 53.048 178.06 52.28C176.548 51.512 175.384 50.408 174.568 48.968C173.776 47.504 173.38 45.74 173.38 43.676C173.38 41.996 173.62 40.532 174.1 39.284C174.604 38.036 175.276 36.992 176.116 36.152C176.98 35.312 177.94 34.688 178.996 34.28C180.052 33.848 181.144 33.632 182.272 33.632C184.096 33.632 185.62 34.004 186.844 34.748C188.092 35.468 189.04 36.548 189.688 37.988C190.336 39.404 190.66 41.18 190.66 43.316C190.66 43.58 190.648 43.868 190.624 44.18C190.624 44.492 190.612 44.756 190.588 44.972H177.952C178 46.412 178.552 47.528 179.608 48.32C180.664 49.112 182.068 49.508 183.82 49.508C184.852 49.508 185.812 49.412 186.7 49.22C187.612 49.004 188.344 48.8 188.896 48.608L189.508 52.388C188.788 52.676 187.924 52.916 186.916 53.108C185.932 53.324 184.816 53.432 183.568 53.432ZM177.988 41.732H186.268C186.268 40.94 186.124 40.22 185.836 39.572C185.572 38.924 185.14 38.408 184.54 38.024C183.964 37.616 183.232 37.412 182.344 37.412C181.432 37.412 180.664 37.616 180.04 38.024C179.44 38.432 178.972 38.972 178.636 39.644C178.3 40.292 178.084 40.988 177.988 41.732ZM195.972 53V35.288C197.292 34.808 198.636 34.436 200.004 34.172C201.396 33.884 202.956 33.74 204.684 33.74C205.116 33.74 205.668 33.764 206.34 33.812C207.012 33.86 207.708 33.932 208.428 34.028C209.148 34.124 209.808 34.268 210.408 34.46L209.616 38.564C209.16 38.444 208.632 38.336 208.032 38.24C207.456 38.144 206.892 38.072 206.34 38.024C205.788 37.976 205.284 37.952 204.828 37.952C204.108 37.952 203.388 38 202.668 38.096C201.948 38.168 201.216 38.3 200.472 38.492V53H195.972ZM33.664 102.66V77.712C34.216 77.52 34.876 77.352 35.644 77.208C36.436 77.064 37.264 76.944 38.128 76.848C39.016 76.752 39.892 76.704 40.756 76.704C42.676 76.704 44.308 77.112 45.652 77.928C46.996 78.72 48.016 79.86 48.712 81.348C49.432 82.812 49.792 84.552 49.792 86.568C49.792 88.488 49.504 90.192 48.928 91.68C48.352 93.168 47.488 94.332 46.336 95.172C45.208 96.012 43.816 96.432 42.16 96.432C41.416 96.432 40.708 96.348 40.036 96.18C39.364 96.012 38.716 95.772 38.092 95.46V102.66H33.664ZM41.332 92.544C42.22 92.544 42.952 92.304 43.528 91.824C44.104 91.344 44.524 90.672 44.788 89.808C45.076 88.92 45.22 87.876 45.22 86.676C45.22 84.828 44.836 83.352 44.068 82.248C43.3 81.12 42.196 80.556 40.756 80.556C40.204 80.556 39.688 80.592 39.208 80.664C38.752 80.712 38.38 80.748 38.092 80.772V91.608C38.452 91.872 38.932 92.1 39.532 92.292C40.132 92.46 40.732 92.544 41.332 92.544ZM62.7005 96.432C60.5645 96.432 58.7285 96.048 57.1925 95.28C55.6805 94.512 54.5165 93.408 53.7005 91.968C52.9085 90.504 52.5125 88.74 52.5125 86.676C52.5125 84.996 52.7525 83.532 53.2325 82.284C53.7365 81.036 54.4085 79.992 55.2485 79.152C56.1125 78.312 57.0725 77.688 58.1285 77.28C59.1845 76.848 60.2765 76.632 61.4045 76.632C63.2285 76.632 64.7525 77.004 65.9765 77.748C67.2245 78.468 68.1725 79.548 68.8205 80.988C69.4685 82.404 69.7925 84.18 69.7925 86.316C69.7925 86.58 69.7805 86.868 69.7565 87.18C69.7565 87.492 69.7445 87.756 69.7205 87.972H57.0845C57.1325 89.412 57.6845 90.528 58.7405 91.32C59.7965 92.112 61.2005 92.508 62.9525 92.508C63.9845 92.508 64.9445 92.412 65.8325 92.22C66.7445 92.004 67.4765 91.8 68.0285 91.608L68.6405 95.388C67.9205 95.676 67.0565 95.916 66.0485 96.108C65.0645 96.324 63.9485 96.432 62.7005 96.432ZM57.1205 84.732H65.4005C65.4005 83.94 65.2565 83.22 64.9685 82.572C64.7045 81.924 64.2725 81.408 63.6725 81.024C63.0965 80.616 62.3645 80.412 61.4765 80.412C60.5645 80.412 59.7965 80.616 59.1725 81.024C58.5725 81.432 58.1045 81.972 57.7685 82.644C57.4325 83.292 57.2165 83.988 57.1205 84.732ZM75.1051 96V78.288C76.4251 77.808 77.7691 77.436 79.1371 77.172C80.5291 76.884 82.0891 76.74 83.8171 76.74C84.2491 76.74 84.8011 76.764 85.4731 76.812C86.1451 76.86 86.8411 76.932 87.5611 77.028C88.2811 77.124 88.9411 77.268 89.5411 77.46L88.7491 81.564C88.2931 81.444 87.7651 81.336 87.1651 81.24C86.5891 81.144 86.0251 81.072 85.4731 81.024C84.9211 80.976 84.4171 80.952 83.9611 80.952C83.2411 80.952 82.5211 81 81.8011 81.096C81.0811 81.168 80.3491 81.3 79.6051 81.492V96H75.1051ZM100.614 96.432C99.6056 96.432 98.6816 96.348 97.8416 96.18C97.0016 96.036 96.2336 95.856 95.5376 95.64C94.8656 95.4 94.2656 95.172 93.7376 94.956L94.4936 91.14C95.4056 91.5 96.3896 91.848 97.4456 92.184C98.5256 92.496 99.6296 92.652 100.758 92.652C102.054 92.652 103.038 92.544 103.71 92.328C104.406 92.088 104.754 91.656 104.754 91.032C104.754 90.528 104.55 90.12 104.142 89.808C103.758 89.472 103.254 89.184 102.63 88.944C102.006 88.704 101.322 88.464 100.578 88.224C99.8576 88.008 99.1136 87.756 98.3456 87.468C97.6016 87.18 96.9176 86.82 96.2936 86.388C95.6696 85.956 95.1656 85.416 94.7816 84.768C94.3976 84.12 94.2056 83.328 94.2056 82.392C94.2056 81.336 94.4816 80.376 95.0336 79.512C95.5856 78.624 96.4496 77.928 97.6256 77.424C98.8016 76.896 100.314 76.632 102.162 76.632C103.338 76.632 104.454 76.728 105.51 76.92C106.59 77.088 107.514 77.328 108.282 77.64L107.562 81.492C107.274 81.372 106.854 81.228 106.302 81.06C105.75 80.892 105.114 80.748 104.394 80.628C103.698 80.484 102.966 80.412 102.198 80.412C100.878 80.412 99.9536 80.58 99.4256 80.916C98.8976 81.228 98.6336 81.636 98.6336 82.14C98.6336 82.548 98.8136 82.908 99.1736 83.22C99.5336 83.532 100.002 83.808 100.578 84.048C101.178 84.264 101.826 84.492 102.522 84.732C103.266 84.996 104.022 85.284 104.79 85.596C105.582 85.908 106.302 86.292 106.95 86.748C107.622 87.18 108.15 87.732 108.534 88.404C108.942 89.052 109.146 89.868 109.146 90.852C109.146 91.932 108.87 92.892 108.318 93.732C107.766 94.572 106.866 95.232 105.618 95.712C104.37 96.192 102.702 96.432 100.614 96.432ZM121.658 96.504C119.93 96.504 118.406 96.084 117.086 95.244C115.766 94.404 114.734 93.24 113.99 91.752C113.246 90.24 112.874 88.5 112.874 86.532C112.874 84.54 113.246 82.812 113.99 81.348C114.758 79.86 115.802 78.708 117.122 77.892C118.466 77.052 119.978 76.632 121.658 76.632C123.41 76.632 124.946 77.052 126.266 77.892C127.586 78.708 128.618 79.86 129.362 81.348C130.106 82.812 130.478 84.54 130.478 86.532C130.478 88.5 130.106 90.24 129.362 91.752C128.618 93.24 127.586 94.404 126.266 95.244C124.97 96.084 123.434 96.504 121.658 96.504ZM121.622 92.58C122.534 92.58 123.302 92.328 123.926 91.824C124.574 91.32 125.066 90.624 125.402 89.736C125.738 88.824 125.906 87.768 125.906 86.568C125.906 85.368 125.738 84.312 125.402 83.4C125.09 82.488 124.622 81.792 123.998 81.312C123.374 80.808 122.594 80.556 121.658 80.556C120.77 80.556 120.002 80.808 119.354 81.312C118.73 81.792 118.25 82.488 117.914 83.4C117.578 84.312 117.41 85.368 117.41 86.568C117.41 87.768 117.566 88.824 117.878 89.736C118.214 90.624 118.694 91.32 119.318 91.824C119.942 92.328 120.71 92.58 121.622 92.58ZM134.387 96V77.676C135.347 77.412 136.463 77.184 137.735 76.992C139.031 76.8 140.363 76.704 141.731 76.704C143.651 76.704 145.163 77.052 146.267 77.748C147.395 78.42 148.199 79.392 148.679 80.664C149.159 81.912 149.399 83.436 149.399 85.236V96H144.935V85.848C144.935 84.552 144.815 83.532 144.575 82.788C144.359 82.02 143.987 81.468 143.459 81.132C142.955 80.796 142.283 80.628 141.443 80.628C141.035 80.628 140.603 80.652 140.147 80.7C139.715 80.748 139.271 80.796 138.815 80.844V96H134.387ZM161.803 96.432C160.651 96.432 159.583 96.324 158.599 96.108C157.639 95.916 156.799 95.592 156.079 95.136C155.359 94.656 154.795 94.02 154.387 93.228C154.003 92.412 153.811 91.428 153.811 90.276C153.811 88.788 154.183 87.624 154.927 86.784C155.695 85.944 156.679 85.344 157.879 84.984C159.079 84.6 160.351 84.408 161.695 84.408C162.367 84.408 162.991 84.444 163.567 84.516C164.167 84.564 164.719 84.648 165.223 84.768V84.048C165.223 83.4 165.091 82.8 164.827 82.248C164.587 81.696 164.167 81.252 163.567 80.916C162.967 80.58 162.151 80.412 161.119 80.412C160.111 80.412 159.175 80.484 158.311 80.628C157.447 80.772 156.763 80.94 156.259 81.132L155.647 77.496C156.199 77.28 157.027 77.088 158.131 76.92C159.259 76.728 160.423 76.632 161.623 76.632C163.639 76.632 165.223 76.944 166.375 77.568C167.527 78.192 168.343 79.068 168.823 80.196C169.303 81.324 169.543 82.656 169.543 84.192V95.604C168.799 95.772 167.731 95.952 166.339 96.144C164.971 96.336 163.459 96.432 161.803 96.432ZM162.055 92.796C162.655 92.796 163.231 92.784 163.783 92.76C164.359 92.712 164.839 92.664 165.223 92.616V87.9C164.887 87.852 164.467 87.804 163.963 87.756C163.459 87.684 162.979 87.648 162.523 87.648C161.779 87.648 161.083 87.72 160.435 87.864C159.787 88.008 159.259 88.26 158.851 88.62C158.443 88.956 158.239 89.472 158.239 90.168C158.239 91.104 158.587 91.776 159.283 92.184C159.979 92.592 160.903 92.796 162.055 92.796ZM40.18 139.432C39.172 139.432 38.248 139.348 37.408 139.18C36.568 139.036 35.8 138.856 35.104 138.64C34.432 138.4 33.832 138.172 33.304 137.956L34.06 134.14C34.972 134.5 35.956 134.848 37.012 135.184C38.092 135.496 39.196 135.652 40.324 135.652C41.62 135.652 42.604 135.544 43.276 135.328C43.972 135.088 44.32 134.656 44.32 134.032C44.32 133.528 44.116 133.12 43.708 132.808C43.324 132.472 42.82 132.184 42.196 131.944C41.572 131.704 40.888 131.464 40.144 131.224C39.424 131.008 38.68 130.756 37.912 130.468C37.168 130.18 36.484 129.82 35.86 129.388C35.236 128.956 34.732 128.416 34.348 127.768C33.964 127.12 33.772 126.328 33.772 125.392C33.772 124.336 34.048 123.376 34.6 122.512C35.152 121.624 36.016 120.928 37.192 120.424C38.368 119.896 39.88 119.632 41.728 119.632C42.904 119.632 44.02 119.728 45.076 119.92C46.156 120.088 47.08 120.328 47.848 120.64L47.128 124.492C46.84 124.372 46.42 124.228 45.868 124.06C45.316 123.892 44.68 123.748 43.96 123.628C43.264 123.484 42.532 123.412 41.764 123.412C40.444 123.412 39.52 123.58 38.992 123.916C38.464 124.228 38.2 124.636 38.2 125.14C38.2 125.548 38.38 125.908 38.74 126.22C39.1 126.532 39.568 126.808 40.144 127.048C40.744 127.264 41.392 127.492 42.088 127.732C42.832 127.996 43.588 128.284 44.356 128.596C45.148 128.908 45.868 129.292 46.516 129.748C47.188 130.18 47.716 130.732 48.1 131.404C48.508 132.052 48.712 132.868 48.712 133.852C48.712 134.932 48.436 135.892 47.884 136.732C47.332 137.572 46.432 138.232 45.184 138.712C43.936 139.192 42.268 139.432 40.18 139.432ZM61.0805 139.432C59.9285 139.432 58.8605 139.324 57.8765 139.108C56.9165 138.916 56.0765 138.592 55.3565 138.136C54.6365 137.656 54.0725 137.02 53.6645 136.228C53.2805 135.412 53.0885 134.428 53.0885 133.276C53.0885 131.788 53.4605 130.624 54.2045 129.784C54.9725 128.944 55.9565 128.344 57.1565 127.984C58.3565 127.6 59.6285 127.408 60.9725 127.408C61.6445 127.408 62.2685 127.444 62.8445 127.516C63.4445 127.564 63.9965 127.648 64.5005 127.768V127.048C64.5005 126.4 64.3685 125.8 64.1045 125.248C63.8645 124.696 63.4445 124.252 62.8445 123.916C62.2445 123.58 61.4285 123.412 60.3965 123.412C59.3885 123.412 58.4525 123.484 57.5885 123.628C56.7245 123.772 56.0405 123.94 55.5365 124.132L54.9245 120.496C55.4765 120.28 56.3045 120.088 57.4085 119.92C58.5365 119.728 59.7005 119.632 60.9005 119.632C62.9165 119.632 64.5005 119.944 65.6525 120.568C66.8045 121.192 67.6205 122.068 68.1005 123.196C68.5805 124.324 68.8205 125.656 68.8205 127.192V138.604C68.0765 138.772 67.0085 138.952 65.6165 139.144C64.2485 139.336 62.7365 139.432 61.0805 139.432ZM61.3325 135.796C61.9325 135.796 62.5085 135.784 63.0605 135.76C63.6365 135.712 64.1165 135.664 64.5005 135.616V130.9C64.1645 130.852 63.7445 130.804 63.2405 130.756C62.7365 130.684 62.2565 130.648 61.8005 130.648C61.0565 130.648 60.3605 130.72 59.7125 130.864C59.0645 131.008 58.5365 131.26 58.1285 131.62C57.7205 131.956 57.5165 132.472 57.5165 133.168C57.5165 134.104 57.8645 134.776 58.5605 135.184C59.2565 135.592 60.1805 135.796 61.3325 135.796ZM72.5851 139V120.784C73.5691 120.472 74.5291 120.244 75.4651 120.1C76.4251 119.932 77.2771 119.848 78.0211 119.848C78.7651 119.848 79.4251 119.944 80.0011 120.136C80.6011 120.328 81.1171 120.64 81.5491 121.072C82.0291 120.736 82.5811 120.448 83.2051 120.208C83.8291 119.968 84.4651 119.848 85.1131 119.848C86.3611 119.848 87.3571 120.124 88.1011 120.676C88.8451 121.204 89.3851 121.996 89.7211 123.052C90.0571 124.108 90.2251 125.452 90.2251 127.084V139H86.4811V126.904C86.4811 125.992 86.3971 125.296 86.2291 124.816C86.0611 124.336 85.8331 124.012 85.5451 123.844C85.2811 123.652 84.9811 123.556 84.6451 123.556C84.3811 123.556 84.0931 123.592 83.7811 123.664C83.4691 123.736 83.2051 123.868 82.9891 124.06C83.0851 124.516 83.1571 125.02 83.2051 125.572C83.2531 126.1 83.2771 126.676 83.2771 127.3V131.8H79.5331V126.904C79.5331 125.728 79.4011 124.876 79.1371 124.348C78.8731 123.82 78.4051 123.556 77.7331 123.556C77.5411 123.556 77.3251 123.58 77.0851 123.628C76.8451 123.652 76.5931 123.7 76.3291 123.772V139H72.5851ZM94.0976 145.66V120.712C94.6496 120.52 95.3096 120.352 96.0776 120.208C96.8696 120.064 97.6976 119.944 98.5616 119.848C99.4496 119.752 100.326 119.704 101.19 119.704C103.11 119.704 104.742 120.112 106.086 120.928C107.43 121.72 108.45 122.86 109.146 124.348C109.866 125.812 110.226 127.552 110.226 129.568C110.226 131.488 109.938 133.192 109.362 134.68C108.786 136.168 107.922 137.332 106.77 138.172C105.642 139.012 104.25 139.432 102.594 139.432C101.85 139.432 101.142 139.348 100.47 139.18C99.7976 139.012 99.1496 138.772 98.5256 138.46V145.66H94.0976ZM101.766 135.544C102.654 135.544 103.386 135.304 103.962 134.824C104.538 134.344 104.958 133.672 105.222 132.808C105.51 131.92 105.654 130.876 105.654 129.676C105.654 127.828 105.27 126.352 104.502 125.248C103.734 124.12 102.63 123.556 101.19 123.556C100.638 123.556 100.122 123.592 99.6416 123.664C99.1856 123.712 98.8136 123.748 98.5256 123.772V134.608C98.8856 134.872 99.3656 135.1 99.9656 135.292C100.566 135.46 101.166 135.544 101.766 135.544ZM124.934 139.432C123.398 139.432 122.162 139.132 121.226 138.532C120.29 137.932 119.606 137.044 119.174 135.868C118.742 134.692 118.526 133.264 118.526 131.584V114.988H113.234V111.244H122.99V131.836C122.99 132.796 123.11 133.54 123.35 134.068C123.59 134.596 123.914 134.968 124.322 135.184C124.754 135.4 125.246 135.508 125.798 135.508C126.734 135.508 127.538 135.388 128.21 135.148C128.882 134.908 129.35 134.728 129.614 134.608L130.19 138.244C129.998 138.364 129.446 138.592 128.534 138.928C127.622 139.264 126.422 139.432 124.934 139.432ZM143.279 139.432C141.143 139.432 139.307 139.048 137.771 138.28C136.259 137.512 135.095 136.408 134.279 134.968C133.487 133.504 133.091 131.74 133.091 129.676C133.091 127.996 133.331 126.532 133.811 125.284C134.315 124.036 134.987 122.992 135.827 122.152C136.691 121.312 137.651 120.688 138.707 120.28C139.763 119.848 140.855 119.632 141.983 119.632C143.807 119.632 145.331 120.004 146.555 120.748C147.803 121.468 148.751 122.548 149.399 123.988C150.047 125.404 150.371 127.18 150.371 129.316C150.371 129.58 150.359 129.868 150.335 130.18C150.335 130.492 150.323 130.756 150.299 130.972H137.663C137.711 132.412 138.263 133.528 139.319 134.32C140.375 135.112 141.779 135.508 143.531 135.508C144.563 135.508 145.523 135.412 146.411 135.22C147.323 135.004 148.055 134.8 148.607 134.608L149.219 138.388C148.499 138.676 147.635 138.916 146.627 139.108C145.643 139.324 144.527 139.432 143.279 139.432ZM137.699 127.732H145.979C145.979 126.94 145.835 126.22 145.547 125.572C145.283 124.924 144.851 124.408 144.251 124.024C143.675 123.616 142.943 123.412 142.055 123.412C141.143 123.412 140.375 123.616 139.751 124.024C139.151 124.432 138.683 124.972 138.347 125.644C138.011 126.292 137.795 126.988 137.699 127.732ZM155.683 139V121.288C157.003 120.808 158.347 120.436 159.715 120.172C161.107 119.884 162.667 119.74 164.395 119.74C164.827 119.74 165.379 119.764 166.051 119.812C166.723 119.86 167.419 119.932 168.139 120.028C168.859 120.124 169.519 120.268 170.119 120.46L169.327 124.564C168.871 124.444 168.343 124.336 167.743 124.24C167.167 124.144 166.603 124.072 166.051 124.024C165.499 123.976 164.995 123.952 164.539 123.952C163.819 123.952 163.099 124 162.379 124.096C161.659 124.168 160.927 124.3 160.183 124.492V139H155.683Z" fill="#343434"/>
</svg>
