<svg width="49" height="49" viewBox="0 0 49 49" fill="none" xmlns="http://www.w3.org/2000/svg">
<path d="M22.458 42.8752L20.4163 34.7085L16.333 28.5835V16.3335" stroke="#FAFAFA" stroke-width="3.8" stroke-linecap="round" stroke-linejoin="round"/>
<path d="M10.2082 28.5833L8.1665 22.4583L16.3332 16.3333L22.4582 20.4167L28.5832 21.4375M14.2915 34.7083L10.2082 42.875M32.6665 42.875V25.5208C32.6665 24.7086 32.9892 23.9296 33.5635 23.3553C34.1378 22.781 34.9168 22.4583 35.729 22.4583C36.5412 22.4583 37.3202 22.781 37.8945 23.3553C38.4688 23.9296 38.7915 24.7086 38.7915 25.5208V26.5417M14.2915 8.16667C14.2915 8.70815 14.5066 9.22746 14.8895 9.61034C15.2724 9.99323 15.7917 10.2083 16.3332 10.2083C16.8747 10.2083 17.394 9.99323 17.7768 9.61034C18.1597 9.22746 18.3748 8.70815 18.3748 8.16667C18.3748 7.62518 18.1597 7.10588 17.7768 6.72299C17.394 6.3401 16.8747 6.125 16.3332 6.125C15.7917 6.125 15.2724 6.3401 14.8895 6.72299C14.5066 7.10588 14.2915 7.62518 14.2915 8.16667Z" stroke="#FAFAFA" stroke-width="3.8" stroke-linecap="round" stroke-linejoin="round"/>
</svg>
