<svg width="352" height="167" viewBox="0 0 352 167" fill="none" xmlns="http://www.w3.org/2000/svg">
<rect x="1.5" y="1.5" width="349" height="164" rx="13.5" stroke="#343434" stroke-width="3"/>
<path d="M87.564 53.432C85.14 53.432 83.136 53.012 81.552 52.172C79.992 51.332 78.816 50.18 78.024 48.716C77.232 47.228 76.836 45.512 76.836 43.568C76.836 42.104 77.064 40.772 77.52 39.572C77.976 38.348 78.66 37.292 79.572 36.404C80.484 35.516 81.6 34.832 82.92 34.352C84.264 33.872 85.8 33.632 87.528 33.632C88.608 33.632 89.592 33.716 90.48 33.884C91.392 34.028 92.328 34.28 93.288 34.64L92.316 38.276C91.692 38.06 91.032 37.892 90.336 37.772C89.664 37.628 88.848 37.556 87.888 37.556C86.4 37.556 85.176 37.796 84.216 38.276C83.256 38.756 82.536 39.44 82.056 40.328C81.6 41.216 81.372 42.296 81.372 43.568C81.372 44.84 81.612 45.92 82.092 46.808C82.596 47.672 83.34 48.344 84.324 48.824C85.332 49.28 86.592 49.508 88.104 49.508C88.896 49.508 89.712 49.46 90.552 49.364C91.416 49.244 92.22 49.052 92.964 48.788L93.612 52.496C93.108 52.688 92.544 52.856 91.92 53C91.32 53.12 90.66 53.216 89.94 53.288C89.22 53.384 88.428 53.432 87.564 53.432ZM105.081 53.432C103.929 53.432 102.861 53.324 101.877 53.108C100.917 52.916 100.077 52.592 99.3565 52.136C98.6365 51.656 98.0725 51.02 97.6645 50.228C97.2805 49.412 97.0885 48.428 97.0885 47.276C97.0885 45.788 97.4605 44.624 98.2045 43.784C98.9725 42.944 99.9565 42.344 101.157 41.984C102.357 41.6 103.629 41.408 104.973 41.408C105.645 41.408 106.269 41.444 106.845 41.516C107.445 41.564 107.997 41.648 108.501 41.768V41.048C108.501 40.4 108.369 39.8 108.105 39.248C107.865 38.696 107.445 38.252 106.845 37.916C106.245 37.58 105.429 37.412 104.397 37.412C103.389 37.412 102.453 37.484 101.589 37.628C100.725 37.772 100.041 37.94 99.5365 38.132L98.9245 34.496C99.4765 34.28 100.305 34.088 101.409 33.92C102.537 33.728 103.701 33.632 104.901 33.632C106.917 33.632 108.501 33.944 109.653 34.568C110.805 35.192 111.621 36.068 112.101 37.196C112.581 38.324 112.821 39.656 112.821 41.192V52.604C112.077 52.772 111.009 52.952 109.617 53.144C108.249 53.336 106.737 53.432 105.081 53.432ZM105.333 49.796C105.933 49.796 106.509 49.784 107.061 49.76C107.637 49.712 108.117 49.664 108.501 49.616V44.9C108.165 44.852 107.745 44.804 107.241 44.756C106.737 44.684 106.257 44.648 105.801 44.648C105.057 44.648 104.361 44.72 103.713 44.864C103.065 45.008 102.537 45.26 102.129 45.62C101.721 45.956 101.517 46.472 101.517 47.168C101.517 48.104 101.865 48.776 102.561 49.184C103.257 49.592 104.181 49.796 105.333 49.796ZM119.105 53V35.288C120.425 34.808 121.769 34.436 123.137 34.172C124.529 33.884 126.089 33.74 127.817 33.74C128.249 33.74 128.801 33.764 129.473 33.812C130.145 33.86 130.841 33.932 131.561 34.028C132.281 34.124 132.941 34.268 133.541 34.46L132.749 38.564C132.293 38.444 131.765 38.336 131.165 38.24C130.589 38.144 130.025 38.072 129.473 38.024C128.921 37.976 128.417 37.952 127.961 37.952C127.241 37.952 126.521 38 125.801 38.096C125.081 38.168 124.349 38.3 123.605 38.492V53H119.105ZM146.99 53.432C144.854 53.432 143.018 53.048 141.482 52.28C139.97 51.512 138.806 50.408 137.99 48.968C137.198 47.504 136.802 45.74 136.802 43.676C136.802 41.996 137.042 40.532 137.522 39.284C138.026 38.036 138.698 36.992 139.538 36.152C140.402 35.312 141.362 34.688 142.418 34.28C143.474 33.848 144.566 33.632 145.694 33.632C147.518 33.632 149.042 34.004 150.266 34.748C151.514 35.468 152.462 36.548 153.11 37.988C153.758 39.404 154.082 41.18 154.082 43.316C154.082 43.58 154.07 43.868 154.046 44.18C154.046 44.492 154.034 44.756 154.01 44.972H141.374C141.422 46.412 141.974 47.528 143.03 48.32C144.086 49.112 145.49 49.508 147.242 49.508C148.274 49.508 149.234 49.412 150.122 49.22C151.034 49.004 151.766 48.8 152.318 48.608L152.93 52.388C152.21 52.676 151.346 52.916 150.338 53.108C149.354 53.324 148.238 53.432 146.99 53.432ZM141.41 41.732H149.69C149.69 40.94 149.546 40.22 149.258 39.572C148.994 38.924 148.562 38.408 147.962 38.024C147.386 37.616 146.654 37.412 145.766 37.412C144.854 37.412 144.086 37.616 143.462 38.024C142.862 38.432 142.394 38.972 142.058 39.644C141.722 40.292 141.506 40.988 141.41 41.732ZM163.858 59.768C162.706 59.768 161.59 59.648 160.51 59.408C159.43 59.192 158.434 58.94 157.522 58.652L158.386 54.8C159.13 55.088 159.934 55.352 160.798 55.592C161.686 55.856 162.742 55.988 163.966 55.988C165.142 55.988 166.066 55.808 166.738 55.448C167.434 55.112 167.926 54.62 168.214 53.972C168.502 53.348 168.646 52.616 168.646 51.776V51.056C168.046 51.272 167.422 51.476 166.774 51.668C166.126 51.836 165.406 51.92 164.614 51.92C163.03 51.92 161.662 51.572 160.51 50.876C159.382 50.18 158.506 49.172 157.882 47.852C157.282 46.508 156.982 44.9 156.982 43.028C156.982 41.012 157.354 39.308 158.098 37.916C158.866 36.524 159.946 35.48 161.338 34.784C162.73 34.064 164.398 33.704 166.342 33.704C167.542 33.704 168.694 33.8 169.798 33.992C170.926 34.16 172.042 34.4 173.146 34.712V50.948C173.146 53.996 172.402 56.228 170.914 57.644C169.426 59.06 167.074 59.768 163.858 59.768ZM165.406 48.212C166.054 48.212 166.654 48.128 167.206 47.96C167.782 47.768 168.262 47.564 168.646 47.348V37.7C168.262 37.604 167.878 37.532 167.494 37.484C167.134 37.436 166.702 37.412 166.198 37.412C165.19 37.412 164.338 37.628 163.642 38.06C162.946 38.492 162.418 39.128 162.058 39.968C161.722 40.784 161.554 41.804 161.554 43.028C161.554 44.18 161.71 45.14 162.022 45.908C162.334 46.652 162.778 47.228 163.354 47.636C163.93 48.02 164.614 48.212 165.406 48.212ZM189.259 53.432C187.579 53.432 186.259 53.12 185.299 52.496C184.339 51.848 183.655 50.924 183.247 49.724C182.863 48.524 182.671 47.06 182.671 45.332V37.844H177.379V34.136H187.135V45.8C187.135 46.688 187.231 47.408 187.423 47.96C187.639 48.488 187.951 48.884 188.359 49.148C188.791 49.388 189.331 49.508 189.979 49.508C190.507 49.508 191.095 49.448 191.743 49.328C192.391 49.184 193.063 48.944 193.759 48.608L194.335 52.244C193.807 52.508 193.255 52.736 192.679 52.928C192.127 53.096 191.551 53.216 190.951 53.288C190.375 53.384 189.811 53.432 189.259 53.432ZM184.219 31.292C183.427 31.292 182.731 31.016 182.131 30.464C181.555 29.912 181.267 29.18 181.267 28.268C181.267 27.332 181.555 26.6 182.131 26.072C182.731 25.52 183.427 25.244 184.219 25.244C185.035 25.244 185.731 25.52 186.307 26.072C186.907 26.6 187.207 27.332 187.207 28.268C187.207 29.18 186.907 29.912 186.307 30.464C185.731 31.016 185.035 31.292 184.219 31.292ZM203.859 53C203.067 51.392 202.239 49.592 201.375 47.6C200.535 45.608 199.707 43.484 198.891 41.228C198.099 38.948 197.343 36.584 196.623 34.136H201.339C201.723 35.528 202.167 37.052 202.671 38.708C203.175 40.364 203.703 41.984 204.255 43.568C204.831 45.128 205.371 46.532 205.875 47.78C206.235 46.868 206.631 45.848 207.063 44.72C207.519 43.592 207.963 42.416 208.395 41.192C208.851 39.944 209.283 38.72 209.691 37.52C210.099 36.32 210.435 35.192 210.699 34.136H215.271C214.743 35.984 214.155 37.784 213.507 39.536C212.883 41.264 212.235 42.932 211.563 44.54C210.915 46.124 210.255 47.624 209.583 49.04C208.935 50.456 208.311 51.776 207.711 53H203.859ZM227.568 53.432C225.432 53.432 223.596 53.048 222.06 52.28C220.548 51.512 219.384 50.408 218.568 48.968C217.776 47.504 217.38 45.74 217.38 43.676C217.38 41.996 217.62 40.532 218.1 39.284C218.604 38.036 219.276 36.992 220.116 36.152C220.98 35.312 221.94 34.688 222.996 34.28C224.052 33.848 225.144 33.632 226.272 33.632C228.096 33.632 229.62 34.004 230.844 34.748C232.092 35.468 233.04 36.548 233.688 37.988C234.336 39.404 234.66 41.18 234.66 43.316C234.66 43.58 234.648 43.868 234.624 44.18C234.624 44.492 234.612 44.756 234.588 44.972H221.952C222 46.412 222.552 47.528 223.608 48.32C224.664 49.112 226.068 49.508 227.82 49.508C228.852 49.508 229.812 49.412 230.7 49.22C231.612 49.004 232.344 48.8 232.896 48.608L233.508 52.388C232.788 52.676 231.924 52.916 230.916 53.108C229.932 53.324 228.816 53.432 227.568 53.432ZM221.988 41.732H230.268C230.268 40.94 230.124 40.22 229.836 39.572C229.572 38.924 229.14 38.408 228.54 38.024C227.964 37.616 227.232 37.412 226.344 37.412C225.432 37.412 224.664 37.616 224.04 38.024C223.44 38.432 222.972 38.972 222.636 39.644C222.3 40.292 222.084 40.988 221.988 41.732ZM239.972 53V35.288C241.292 34.808 242.636 34.436 244.004 34.172C245.396 33.884 246.956 33.74 248.684 33.74C249.116 33.74 249.668 33.764 250.34 33.812C251.012 33.86 251.708 33.932 252.428 34.028C253.148 34.124 253.808 34.268 254.408 34.46L253.616 38.564C253.16 38.444 252.632 38.336 252.032 38.24C251.456 38.144 250.892 38.072 250.34 38.024C249.788 37.976 249.284 37.952 248.828 37.952C248.108 37.952 247.388 38 246.668 38.096C245.948 38.168 245.216 38.3 244.472 38.492V53H239.972ZM77.664 102.66V77.712C78.216 77.52 78.876 77.352 79.644 77.208C80.436 77.064 81.264 76.944 82.128 76.848C83.016 76.752 83.892 76.704 84.756 76.704C86.676 76.704 88.308 77.112 89.652 77.928C90.996 78.72 92.016 79.86 92.712 81.348C93.432 82.812 93.792 84.552 93.792 86.568C93.792 88.488 93.504 90.192 92.928 91.68C92.352 93.168 91.488 94.332 90.336 95.172C89.208 96.012 87.816 96.432 86.16 96.432C85.416 96.432 84.708 96.348 84.036 96.18C83.364 96.012 82.716 95.772 82.092 95.46V102.66H77.664ZM85.332 92.544C86.22 92.544 86.952 92.304 87.528 91.824C88.104 91.344 88.524 90.672 88.788 89.808C89.076 88.92 89.22 87.876 89.22 86.676C89.22 84.828 88.836 83.352 88.068 82.248C87.3 81.12 86.196 80.556 84.756 80.556C84.204 80.556 83.688 80.592 83.208 80.664C82.752 80.712 82.38 80.748 82.092 80.772V91.608C82.452 91.872 82.932 92.1 83.532 92.292C84.132 92.46 84.732 92.544 85.332 92.544ZM106.701 96.432C104.565 96.432 102.729 96.048 101.193 95.28C99.6805 94.512 98.5165 93.408 97.7005 91.968C96.9085 90.504 96.5125 88.74 96.5125 86.676C96.5125 84.996 96.7525 83.532 97.2325 82.284C97.7365 81.036 98.4085 79.992 99.2485 79.152C100.113 78.312 101.073 77.688 102.129 77.28C103.185 76.848 104.277 76.632 105.405 76.632C107.229 76.632 108.753 77.004 109.977 77.748C111.225 78.468 112.173 79.548 112.821 80.988C113.469 82.404 113.793 84.18 113.793 86.316C113.793 86.58 113.781 86.868 113.757 87.18C113.757 87.492 113.745 87.756 113.721 87.972H101.085C101.133 89.412 101.685 90.528 102.741 91.32C103.797 92.112 105.201 92.508 106.953 92.508C107.985 92.508 108.945 92.412 109.833 92.22C110.745 92.004 111.477 91.8 112.029 91.608L112.641 95.388C111.921 95.676 111.057 95.916 110.049 96.108C109.065 96.324 107.949 96.432 106.701 96.432ZM101.121 84.732H109.401C109.401 83.94 109.257 83.22 108.969 82.572C108.705 81.924 108.273 81.408 107.673 81.024C107.097 80.616 106.365 80.412 105.477 80.412C104.565 80.412 103.797 80.616 103.173 81.024C102.573 81.432 102.105 81.972 101.769 82.644C101.433 83.292 101.217 83.988 101.121 84.732ZM119.105 96V78.288C120.425 77.808 121.769 77.436 123.137 77.172C124.529 76.884 126.089 76.74 127.817 76.74C128.249 76.74 128.801 76.764 129.473 76.812C130.145 76.86 130.841 76.932 131.561 77.028C132.281 77.124 132.941 77.268 133.541 77.46L132.749 81.564C132.293 81.444 131.765 81.336 131.165 81.24C130.589 81.144 130.025 81.072 129.473 81.024C128.921 80.976 128.417 80.952 127.961 80.952C127.241 80.952 126.521 81 125.801 81.096C125.081 81.168 124.349 81.3 123.605 81.492V96H119.105ZM144.614 96.432C143.606 96.432 142.682 96.348 141.842 96.18C141.002 96.036 140.234 95.856 139.538 95.64C138.866 95.4 138.266 95.172 137.738 94.956L138.494 91.14C139.406 91.5 140.39 91.848 141.446 92.184C142.526 92.496 143.63 92.652 144.758 92.652C146.054 92.652 147.038 92.544 147.71 92.328C148.406 92.088 148.754 91.656 148.754 91.032C148.754 90.528 148.55 90.12 148.142 89.808C147.758 89.472 147.254 89.184 146.63 88.944C146.006 88.704 145.322 88.464 144.578 88.224C143.858 88.008 143.114 87.756 142.346 87.468C141.602 87.18 140.918 86.82 140.294 86.388C139.67 85.956 139.166 85.416 138.782 84.768C138.398 84.12 138.206 83.328 138.206 82.392C138.206 81.336 138.482 80.376 139.034 79.512C139.586 78.624 140.45 77.928 141.626 77.424C142.802 76.896 144.314 76.632 146.162 76.632C147.338 76.632 148.454 76.728 149.51 76.92C150.59 77.088 151.514 77.328 152.282 77.64L151.562 81.492C151.274 81.372 150.854 81.228 150.302 81.06C149.75 80.892 149.114 80.748 148.394 80.628C147.698 80.484 146.966 80.412 146.198 80.412C144.878 80.412 143.954 80.58 143.426 80.916C142.898 81.228 142.634 81.636 142.634 82.14C142.634 82.548 142.814 82.908 143.174 83.22C143.534 83.532 144.002 83.808 144.578 84.048C145.178 84.264 145.826 84.492 146.522 84.732C147.266 84.996 148.022 85.284 148.79 85.596C149.582 85.908 150.302 86.292 150.95 86.748C151.622 87.18 152.15 87.732 152.534 88.404C152.942 89.052 153.146 89.868 153.146 90.852C153.146 91.932 152.87 92.892 152.318 93.732C151.766 94.572 150.866 95.232 149.618 95.712C148.37 96.192 146.702 96.432 144.614 96.432ZM165.658 96.504C163.93 96.504 162.406 96.084 161.086 95.244C159.766 94.404 158.734 93.24 157.99 91.752C157.246 90.24 156.874 88.5 156.874 86.532C156.874 84.54 157.246 82.812 157.99 81.348C158.758 79.86 159.802 78.708 161.122 77.892C162.466 77.052 163.978 76.632 165.658 76.632C167.41 76.632 168.946 77.052 170.266 77.892C171.586 78.708 172.618 79.86 173.362 81.348C174.106 82.812 174.478 84.54 174.478 86.532C174.478 88.5 174.106 90.24 173.362 91.752C172.618 93.24 171.586 94.404 170.266 95.244C168.97 96.084 167.434 96.504 165.658 96.504ZM165.622 92.58C166.534 92.58 167.302 92.328 167.926 91.824C168.574 91.32 169.066 90.624 169.402 89.736C169.738 88.824 169.906 87.768 169.906 86.568C169.906 85.368 169.738 84.312 169.402 83.4C169.09 82.488 168.622 81.792 167.998 81.312C167.374 80.808 166.594 80.556 165.658 80.556C164.77 80.556 164.002 80.808 163.354 81.312C162.73 81.792 162.25 82.488 161.914 83.4C161.578 84.312 161.41 85.368 161.41 86.568C161.41 87.768 161.566 88.824 161.878 89.736C162.214 90.624 162.694 91.32 163.318 91.824C163.942 92.328 164.71 92.58 165.622 92.58ZM178.387 96V77.676C179.347 77.412 180.463 77.184 181.735 76.992C183.031 76.8 184.363 76.704 185.731 76.704C187.651 76.704 189.163 77.052 190.267 77.748C191.395 78.42 192.199 79.392 192.679 80.664C193.159 81.912 193.399 83.436 193.399 85.236V96H188.935V85.848C188.935 84.552 188.815 83.532 188.575 82.788C188.359 82.02 187.987 81.468 187.459 81.132C186.955 80.796 186.283 80.628 185.443 80.628C185.035 80.628 184.603 80.652 184.147 80.7C183.715 80.748 183.271 80.796 182.815 80.844V96H178.387ZM205.803 96.432C204.651 96.432 203.583 96.324 202.599 96.108C201.639 95.916 200.799 95.592 200.079 95.136C199.359 94.656 198.795 94.02 198.387 93.228C198.003 92.412 197.811 91.428 197.811 90.276C197.811 88.788 198.183 87.624 198.927 86.784C199.695 85.944 200.679 85.344 201.879 84.984C203.079 84.6 204.351 84.408 205.695 84.408C206.367 84.408 206.991 84.444 207.567 84.516C208.167 84.564 208.719 84.648 209.223 84.768V84.048C209.223 83.4 209.091 82.8 208.827 82.248C208.587 81.696 208.167 81.252 207.567 80.916C206.967 80.58 206.151 80.412 205.119 80.412C204.111 80.412 203.175 80.484 202.311 80.628C201.447 80.772 200.763 80.94 200.259 81.132L199.647 77.496C200.199 77.28 201.027 77.088 202.131 76.92C203.259 76.728 204.423 76.632 205.623 76.632C207.639 76.632 209.223 76.944 210.375 77.568C211.527 78.192 212.343 79.068 212.823 80.196C213.303 81.324 213.543 82.656 213.543 84.192V95.604C212.799 95.772 211.731 95.952 210.339 96.144C208.971 96.336 207.459 96.432 205.803 96.432ZM206.055 92.796C206.655 92.796 207.231 92.784 207.783 92.76C208.359 92.712 208.839 92.664 209.223 92.616V87.9C208.887 87.852 208.467 87.804 207.963 87.756C207.459 87.684 206.979 87.648 206.523 87.648C205.779 87.648 205.083 87.72 204.435 87.864C203.787 88.008 203.259 88.26 202.851 88.62C202.443 88.956 202.239 89.472 202.239 90.168C202.239 91.104 202.587 91.776 203.283 92.184C203.979 92.592 204.903 92.796 206.055 92.796ZM84.18 139.432C83.172 139.432 82.248 139.348 81.408 139.18C80.568 139.036 79.8 138.856 79.104 138.64C78.432 138.4 77.832 138.172 77.304 137.956L78.06 134.14C78.972 134.5 79.956 134.848 81.012 135.184C82.092 135.496 83.196 135.652 84.324 135.652C85.62 135.652 86.604 135.544 87.276 135.328C87.972 135.088 88.32 134.656 88.32 134.032C88.32 133.528 88.116 133.12 87.708 132.808C87.324 132.472 86.82 132.184 86.196 131.944C85.572 131.704 84.888 131.464 84.144 131.224C83.424 131.008 82.68 130.756 81.912 130.468C81.168 130.18 80.484 129.82 79.86 129.388C79.236 128.956 78.732 128.416 78.348 127.768C77.964 127.12 77.772 126.328 77.772 125.392C77.772 124.336 78.048 123.376 78.6 122.512C79.152 121.624 80.016 120.928 81.192 120.424C82.368 119.896 83.88 119.632 85.728 119.632C86.904 119.632 88.02 119.728 89.076 119.92C90.156 120.088 91.08 120.328 91.848 120.64L91.128 124.492C90.84 124.372 90.42 124.228 89.868 124.06C89.316 123.892 88.68 123.748 87.96 123.628C87.264 123.484 86.532 123.412 85.764 123.412C84.444 123.412 83.52 123.58 82.992 123.916C82.464 124.228 82.2 124.636 82.2 125.14C82.2 125.548 82.38 125.908 82.74 126.22C83.1 126.532 83.568 126.808 84.144 127.048C84.744 127.264 85.392 127.492 86.088 127.732C86.832 127.996 87.588 128.284 88.356 128.596C89.148 128.908 89.868 129.292 90.516 129.748C91.188 130.18 91.716 130.732 92.1 131.404C92.508 132.052 92.712 132.868 92.712 133.852C92.712 134.932 92.436 135.892 91.884 136.732C91.332 137.572 90.432 138.232 89.184 138.712C87.936 139.192 86.268 139.432 84.18 139.432ZM105.081 139.432C103.929 139.432 102.861 139.324 101.877 139.108C100.917 138.916 100.077 138.592 99.3565 138.136C98.6365 137.656 98.0725 137.02 97.6645 136.228C97.2805 135.412 97.0885 134.428 97.0885 133.276C97.0885 131.788 97.4605 130.624 98.2045 129.784C98.9725 128.944 99.9565 128.344 101.157 127.984C102.357 127.6 103.629 127.408 104.973 127.408C105.645 127.408 106.269 127.444 106.845 127.516C107.445 127.564 107.997 127.648 108.501 127.768V127.048C108.501 126.4 108.369 125.8 108.105 125.248C107.865 124.696 107.445 124.252 106.845 123.916C106.245 123.58 105.429 123.412 104.397 123.412C103.389 123.412 102.453 123.484 101.589 123.628C100.725 123.772 100.041 123.94 99.5365 124.132L98.9245 120.496C99.4765 120.28 100.305 120.088 101.409 119.92C102.537 119.728 103.701 119.632 104.901 119.632C106.917 119.632 108.501 119.944 109.653 120.568C110.805 121.192 111.621 122.068 112.101 123.196C112.581 124.324 112.821 125.656 112.821 127.192V138.604C112.077 138.772 111.009 138.952 109.617 139.144C108.249 139.336 106.737 139.432 105.081 139.432ZM105.333 135.796C105.933 135.796 106.509 135.784 107.061 135.76C107.637 135.712 108.117 135.664 108.501 135.616V130.9C108.165 130.852 107.745 130.804 107.241 130.756C106.737 130.684 106.257 130.648 105.801 130.648C105.057 130.648 104.361 130.72 103.713 130.864C103.065 131.008 102.537 131.26 102.129 131.62C101.721 131.956 101.517 132.472 101.517 133.168C101.517 134.104 101.865 134.776 102.561 135.184C103.257 135.592 104.181 135.796 105.333 135.796ZM116.585 139V120.784C117.569 120.472 118.529 120.244 119.465 120.1C120.425 119.932 121.277 119.848 122.021 119.848C122.765 119.848 123.425 119.944 124.001 120.136C124.601 120.328 125.117 120.64 125.549 121.072C126.029 120.736 126.581 120.448 127.205 120.208C127.829 119.968 128.465 119.848 129.113 119.848C130.361 119.848 131.357 120.124 132.101 120.676C132.845 121.204 133.385 121.996 133.721 123.052C134.057 124.108 134.225 125.452 134.225 127.084V139H130.481V126.904C130.481 125.992 130.397 125.296 130.229 124.816C130.061 124.336 129.833 124.012 129.545 123.844C129.281 123.652 128.981 123.556 128.645 123.556C128.381 123.556 128.093 123.592 127.781 123.664C127.469 123.736 127.205 123.868 126.989 124.06C127.085 124.516 127.157 125.02 127.205 125.572C127.253 126.1 127.277 126.676 127.277 127.3V131.8H123.533V126.904C123.533 125.728 123.401 124.876 123.137 124.348C122.873 123.82 122.405 123.556 121.733 123.556C121.541 123.556 121.325 123.58 121.085 123.628C120.845 123.652 120.593 123.7 120.329 123.772V139H116.585ZM138.098 145.66V120.712C138.65 120.52 139.31 120.352 140.078 120.208C140.87 120.064 141.698 119.944 142.562 119.848C143.45 119.752 144.326 119.704 145.19 119.704C147.11 119.704 148.742 120.112 150.086 120.928C151.43 121.72 152.45 122.86 153.146 124.348C153.866 125.812 154.226 127.552 154.226 129.568C154.226 131.488 153.938 133.192 153.362 134.68C152.786 136.168 151.922 137.332 150.77 138.172C149.642 139.012 148.25 139.432 146.594 139.432C145.85 139.432 145.142 139.348 144.47 139.18C143.798 139.012 143.15 138.772 142.526 138.46V145.66H138.098ZM145.766 135.544C146.654 135.544 147.386 135.304 147.962 134.824C148.538 134.344 148.958 133.672 149.222 132.808C149.51 131.92 149.654 130.876 149.654 129.676C149.654 127.828 149.27 126.352 148.502 125.248C147.734 124.12 146.63 123.556 145.19 123.556C144.638 123.556 144.122 123.592 143.642 123.664C143.186 123.712 142.814 123.748 142.526 123.772V134.608C142.886 134.872 143.366 135.1 143.966 135.292C144.566 135.46 145.166 135.544 145.766 135.544ZM168.934 139.432C167.398 139.432 166.162 139.132 165.226 138.532C164.29 137.932 163.606 137.044 163.174 135.868C162.742 134.692 162.526 133.264 162.526 131.584V114.988H157.234V111.244H166.99V131.836C166.99 132.796 167.11 133.54 167.35 134.068C167.59 134.596 167.914 134.968 168.322 135.184C168.754 135.4 169.246 135.508 169.798 135.508C170.734 135.508 171.538 135.388 172.21 135.148C172.882 134.908 173.35 134.728 173.614 134.608L174.19 138.244C173.998 138.364 173.446 138.592 172.534 138.928C171.622 139.264 170.422 139.432 168.934 139.432ZM187.279 139.432C185.143 139.432 183.307 139.048 181.771 138.28C180.259 137.512 179.095 136.408 178.279 134.968C177.487 133.504 177.091 131.74 177.091 129.676C177.091 127.996 177.331 126.532 177.811 125.284C178.315 124.036 178.987 122.992 179.827 122.152C180.691 121.312 181.651 120.688 182.707 120.28C183.763 119.848 184.855 119.632 185.983 119.632C187.807 119.632 189.331 120.004 190.555 120.748C191.803 121.468 192.751 122.548 193.399 123.988C194.047 125.404 194.371 127.18 194.371 129.316C194.371 129.58 194.359 129.868 194.335 130.18C194.335 130.492 194.323 130.756 194.299 130.972H181.663C181.711 132.412 182.263 133.528 183.319 134.32C184.375 135.112 185.779 135.508 187.531 135.508C188.563 135.508 189.523 135.412 190.411 135.22C191.323 135.004 192.055 134.8 192.607 134.608L193.219 138.388C192.499 138.676 191.635 138.916 190.627 139.108C189.643 139.324 188.527 139.432 187.279 139.432ZM181.699 127.732H189.979C189.979 126.94 189.835 126.22 189.547 125.572C189.283 124.924 188.851 124.408 188.251 124.024C187.675 123.616 186.943 123.412 186.055 123.412C185.143 123.412 184.375 123.616 183.751 124.024C183.151 124.432 182.683 124.972 182.347 125.644C182.011 126.292 181.795 126.988 181.699 127.732ZM199.683 139V121.288C201.003 120.808 202.347 120.436 203.715 120.172C205.107 119.884 206.667 119.74 208.395 119.74C208.827 119.74 209.379 119.764 210.051 119.812C210.723 119.86 211.419 119.932 212.139 120.028C212.859 120.124 213.519 120.268 214.119 120.46L213.327 124.564C212.871 124.444 212.343 124.336 211.743 124.24C211.167 124.144 210.603 124.072 210.051 124.024C209.499 123.976 208.995 123.952 208.539 123.952C207.819 123.952 207.099 124 206.379 124.096C205.659 124.168 204.927 124.3 204.183 124.492V139H199.683Z" fill="#343434"/>
</svg>
