<svg width="352" height="387" viewBox="0 0 352 387" fill="none" xmlns="http://www.w3.org/2000/svg">
<rect x="0.5" y="0.5" width="351" height="386" rx="14.5" fill="#FAFAFA"/>
<rect x="0.5" y="0.5" width="351" height="386" rx="14.5" stroke="black"/>
<path d="M38.4844 29.9993C38.4844 157.701 38.4844 229.298 38.4844 356.999L38.4844 29.9993Z" stroke="#343434" stroke-opacity="0.5" stroke-width="2" stroke-linejoin="round"/>
<path d="M88.016 53.36C86.528 53.36 85.248 53.032 84.176 52.376C83.12 51.704 82.304 50.72 81.728 49.424C81.168 48.128 80.888 46.544 80.888 44.672C80.888 42.816 81.208 41.24 81.848 39.944C82.488 38.648 83.368 37.664 84.488 36.992C85.608 36.32 86.864 35.984 88.256 35.984C88.928 35.984 89.536 36.056 90.08 36.2C90.64 36.328 91.12 36.48 91.52 36.656C91.92 36.832 92.24 37 92.48 37.16L91.688 39.56C91.224 39.272 90.696 39.04 90.104 38.864C89.528 38.688 88.904 38.6 88.232 38.6C87.48 38.6 86.768 38.808 86.096 39.224C85.44 39.624 84.912 40.264 84.512 41.144C84.112 42.024 83.912 43.176 83.912 44.6C83.912 45.928 84.072 47.048 84.392 47.96C84.728 48.872 85.224 49.568 85.88 50.048C86.536 50.512 87.344 50.744 88.304 50.744C89.056 50.744 89.72 50.656 90.296 50.48C90.872 50.304 91.368 50.096 91.784 49.856L92.528 52.208C92.032 52.528 91.392 52.8 90.608 53.024C89.84 53.248 88.976 53.36 88.016 53.36ZM100.054 53.288C99.2857 53.288 98.5737 53.216 97.9177 53.072C97.2777 52.944 96.7177 52.728 96.2377 52.424C95.7577 52.104 95.3817 51.68 95.1097 51.152C94.8537 50.608 94.7257 49.952 94.7257 49.184C94.7257 48.192 94.9737 47.416 95.4697 46.856C95.9817 46.296 96.6377 45.896 97.4377 45.656C98.2377 45.4 99.0857 45.272 99.9817 45.272C100.43 45.272 100.846 45.296 101.23 45.344C101.63 45.376 101.998 45.432 102.334 45.512V45.032C102.334 44.6 102.246 44.2 102.07 43.832C101.91 43.464 101.63 43.168 101.23 42.944C100.83 42.72 100.286 42.608 99.5977 42.608C98.9257 42.608 98.3017 42.656 97.7257 42.752C97.1497 42.848 96.6937 42.96 96.3577 43.088L95.9497 40.664C96.3177 40.52 96.8697 40.392 97.6057 40.28C98.3577 40.152 99.1337 40.088 99.9337 40.088C101.278 40.088 102.334 40.296 103.102 40.712C103.87 41.128 104.414 41.712 104.734 42.464C105.054 43.216 105.214 44.104 105.214 45.128V52.736C104.718 52.848 104.006 52.968 103.078 53.096C102.166 53.224 101.158 53.288 100.054 53.288ZM100.222 50.864C100.622 50.864 101.006 50.856 101.374 50.84C101.758 50.808 102.078 50.776 102.334 50.744V47.6C102.11 47.568 101.83 47.536 101.494 47.504C101.158 47.456 100.838 47.432 100.534 47.432C100.038 47.432 99.5737 47.48 99.1417 47.576C98.7097 47.672 98.3577 47.84 98.0857 48.08C97.8137 48.304 97.6777 48.648 97.6777 49.112C97.6777 49.736 97.9097 50.184 98.3737 50.456C98.8377 50.728 99.4537 50.864 100.222 50.864ZM109.403 53V41.192C110.283 40.872 111.179 40.624 112.091 40.448C113.019 40.256 114.059 40.16 115.211 40.16C115.499 40.16 115.867 40.176 116.315 40.208C116.763 40.24 117.227 40.288 117.707 40.352C118.187 40.416 118.627 40.512 119.027 40.64L118.499 43.376C118.195 43.296 117.843 43.224 117.443 43.16C117.059 43.096 116.683 43.048 116.315 43.016C115.947 42.984 115.611 42.968 115.307 42.968C114.827 42.968 114.347 43 113.867 43.064C113.387 43.112 112.899 43.2 112.403 43.328V53H109.403ZM127.993 53.288C126.569 53.288 125.345 53.032 124.321 52.52C123.313 52.008 122.537 51.272 121.993 50.312C121.465 49.336 121.201 48.16 121.201 46.784C121.201 45.664 121.361 44.688 121.681 43.856C122.017 43.024 122.465 42.328 123.025 41.768C123.601 41.208 124.241 40.792 124.945 40.52C125.649 40.232 126.377 40.088 127.129 40.088C128.345 40.088 129.361 40.336 130.177 40.832C131.009 41.312 131.641 42.032 132.073 42.992C132.505 43.936 132.721 45.12 132.721 46.544C132.721 46.72 132.713 46.912 132.697 47.12C132.697 47.328 132.689 47.504 132.673 47.648H124.249C124.281 48.608 124.649 49.352 125.353 49.88C126.057 50.408 126.993 50.672 128.161 50.672C128.849 50.672 129.489 50.608 130.081 50.48C130.689 50.336 131.177 50.2 131.545 50.072L131.953 52.592C131.473 52.784 130.897 52.944 130.225 53.072C129.569 53.216 128.825 53.288 127.993 53.288ZM124.273 45.488H129.793C129.793 44.96 129.697 44.48 129.505 44.048C129.329 43.616 129.041 43.272 128.641 43.016C128.257 42.744 127.769 42.608 127.177 42.608C126.569 42.608 126.057 42.744 125.641 43.016C125.241 43.288 124.929 43.648 124.705 44.096C124.481 44.528 124.337 44.992 124.273 45.488ZM139.239 57.512C138.471 57.512 137.727 57.432 137.007 57.272C136.287 57.128 135.623 56.96 135.015 56.768L135.591 54.2C136.087 54.392 136.623 54.568 137.199 54.728C137.791 54.904 138.495 54.992 139.311 54.992C140.095 54.992 140.711 54.872 141.159 54.632C141.623 54.408 141.951 54.08 142.143 53.648C142.335 53.232 142.431 52.744 142.431 52.184V51.704C142.031 51.848 141.615 51.984 141.183 52.112C140.751 52.224 140.271 52.28 139.743 52.28C138.687 52.28 137.775 52.048 137.007 51.584C136.255 51.12 135.671 50.448 135.255 49.568C134.855 48.672 134.655 47.6 134.655 46.352C134.655 45.008 134.903 43.872 135.399 42.944C135.911 42.016 136.631 41.32 137.559 40.856C138.487 40.376 139.599 40.136 140.895 40.136C141.695 40.136 142.463 40.2 143.199 40.328C143.951 40.44 144.695 40.6 145.431 40.808V51.632C145.431 53.664 144.935 55.152 143.943 56.096C142.951 57.04 141.383 57.512 139.239 57.512ZM140.271 49.808C140.703 49.808 141.103 49.752 141.471 49.64C141.855 49.512 142.175 49.376 142.431 49.232V42.8C142.175 42.736 141.919 42.688 141.663 42.656C141.423 42.624 141.135 42.608 140.799 42.608C140.127 42.608 139.559 42.752 139.095 43.04C138.631 43.328 138.279 43.752 138.039 44.312C137.815 44.856 137.703 45.536 137.703 46.352C137.703 47.12 137.807 47.76 138.015 48.272C138.223 48.768 138.519 49.152 138.903 49.424C139.287 49.68 139.743 49.808 140.271 49.808ZM156.172 53.288C155.052 53.288 154.172 53.08 153.532 52.664C152.892 52.232 152.436 51.616 152.164 50.816C151.908 50.016 151.78 49.04 151.78 47.888V42.896H148.252V40.424H154.756V48.2C154.756 48.792 154.82 49.272 154.948 49.64C155.092 49.992 155.3 50.256 155.572 50.432C155.86 50.592 156.22 50.672 156.652 50.672C157.004 50.672 157.396 50.632 157.828 50.552C158.26 50.456 158.708 50.296 159.172 50.072L159.556 52.496C159.204 52.672 158.836 52.824 158.452 52.952C158.084 53.064 157.7 53.144 157.3 53.192C156.916 53.256 156.54 53.288 156.172 53.288ZM152.812 38.528C152.284 38.528 151.82 38.344 151.42 37.976C151.036 37.608 150.844 37.12 150.844 36.512C150.844 35.888 151.036 35.4 151.42 35.048C151.82 34.68 152.284 34.496 152.812 34.496C153.356 34.496 153.82 34.68 154.204 35.048C154.604 35.4 154.804 35.888 154.804 36.512C154.804 37.12 154.604 37.608 154.204 37.976C153.82 38.344 153.356 38.528 152.812 38.528ZM165.906 53C165.378 51.928 164.826 50.728 164.25 49.4C163.69 48.072 163.138 46.656 162.594 45.152C162.066 43.632 161.562 42.056 161.082 40.424H164.226C164.482 41.352 164.778 42.368 165.114 43.472C165.45 44.576 165.802 45.656 166.17 46.712C166.554 47.752 166.914 48.688 167.25 49.52C167.49 48.912 167.754 48.232 168.042 47.48C168.346 46.728 168.642 45.944 168.93 45.128C169.234 44.296 169.522 43.48 169.794 42.68C170.066 41.88 170.29 41.128 170.466 40.424H173.514C173.162 41.656 172.77 42.856 172.338 44.024C171.922 45.176 171.49 46.288 171.042 47.36C170.61 48.416 170.17 49.416 169.722 50.36C169.29 51.304 168.874 52.184 168.474 53H165.906ZM181.712 53.288C180.288 53.288 179.064 53.032 178.04 52.52C177.032 52.008 176.256 51.272 175.712 50.312C175.184 49.336 174.92 48.16 174.92 46.784C174.92 45.664 175.08 44.688 175.4 43.856C175.736 43.024 176.184 42.328 176.744 41.768C177.32 41.208 177.96 40.792 178.664 40.52C179.368 40.232 180.096 40.088 180.848 40.088C182.064 40.088 183.08 40.336 183.896 40.832C184.728 41.312 185.36 42.032 185.792 42.992C186.224 43.936 186.44 45.12 186.44 46.544C186.44 46.72 186.432 46.912 186.416 47.12C186.416 47.328 186.408 47.504 186.392 47.648H177.968C178 48.608 178.368 49.352 179.072 49.88C179.776 50.408 180.712 50.672 181.88 50.672C182.568 50.672 183.208 50.608 183.8 50.48C184.408 50.336 184.896 50.2 185.264 50.072L185.672 52.592C185.192 52.784 184.616 52.944 183.944 53.072C183.288 53.216 182.544 53.288 181.712 53.288ZM177.992 45.488H183.512C183.512 44.96 183.416 44.48 183.224 44.048C183.048 43.616 182.76 43.272 182.36 43.016C181.976 42.744 181.488 42.608 180.896 42.608C180.288 42.608 179.776 42.744 179.36 43.016C178.96 43.288 178.648 43.648 178.424 44.096C178.2 44.528 178.056 44.992 177.992 45.488ZM189.982 53V41.192C190.862 40.872 191.758 40.624 192.67 40.448C193.598 40.256 194.638 40.16 195.79 40.16C196.078 40.16 196.446 40.176 196.894 40.208C197.342 40.24 197.806 40.288 198.286 40.352C198.766 40.416 199.206 40.512 199.606 40.64L199.078 43.376C198.774 43.296 198.422 43.224 198.022 43.16C197.638 43.096 197.262 43.048 196.894 43.016C196.526 42.984 196.19 42.968 195.886 42.968C195.406 42.968 194.926 43 194.446 43.064C193.966 43.112 193.478 43.2 192.982 43.328V53H189.982ZM205.187 41.768L204.779 39.752C205.211 39.656 205.635 39.56 206.051 39.464C206.467 39.368 206.843 39.216 207.179 39.008C207.531 38.784 207.803 38.448 207.995 38C207.339 37.92 206.835 37.664 206.483 37.232C206.147 36.784 205.979 36.304 205.979 35.792C205.979 35.088 206.203 34.528 206.651 34.112C207.099 33.68 207.643 33.464 208.283 33.464C209.003 33.464 209.563 33.712 209.963 34.208C210.363 34.704 210.563 35.352 210.563 36.152C210.563 36.92 210.379 37.712 210.011 38.528C209.659 39.344 209.083 40.048 208.283 40.64C207.499 41.232 206.467 41.608 205.187 41.768ZM220.417 53.288C219.745 53.288 219.129 53.232 218.569 53.12C218.009 53.024 217.497 52.904 217.033 52.76C216.585 52.6 216.185 52.448 215.833 52.304L216.337 49.76C216.945 50 217.601 50.232 218.305 50.456C219.025 50.664 219.761 50.768 220.513 50.768C221.377 50.768 222.033 50.696 222.481 50.552C222.945 50.392 223.177 50.104 223.177 49.688C223.177 49.352 223.041 49.08 222.769 48.872C222.513 48.648 222.177 48.456 221.761 48.296C221.345 48.136 220.889 47.976 220.393 47.816C219.913 47.672 219.417 47.504 218.905 47.312C218.409 47.12 217.953 46.88 217.537 46.592C217.121 46.304 216.785 45.944 216.529 45.512C216.273 45.08 216.145 44.552 216.145 43.928C216.145 43.224 216.329 42.584 216.697 42.008C217.065 41.416 217.641 40.952 218.425 40.616C219.209 40.264 220.217 40.088 221.449 40.088C222.233 40.088 222.977 40.152 223.681 40.28C224.401 40.392 225.017 40.552 225.529 40.76L225.049 43.328C224.857 43.248 224.577 43.152 224.209 43.04C223.841 42.928 223.417 42.832 222.937 42.752C222.473 42.656 221.985 42.608 221.473 42.608C220.593 42.608 219.977 42.72 219.625 42.944C219.273 43.152 219.097 43.424 219.097 43.76C219.097 44.032 219.217 44.272 219.457 44.48C219.697 44.688 220.009 44.872 220.393 45.032C220.793 45.176 221.225 45.328 221.689 45.488C222.185 45.664 222.689 45.856 223.201 46.064C223.729 46.272 224.209 46.528 224.641 46.832C225.089 47.12 225.441 47.488 225.697 47.936C225.969 48.368 226.105 48.912 226.105 49.568C226.105 50.288 225.921 50.928 225.553 51.488C225.185 52.048 224.585 52.488 223.753 52.808C222.921 53.128 221.809 53.288 220.417 53.288ZM247.06 53.192C246.612 53.192 246.132 53.176 245.62 53.144C245.108 53.112 244.596 53.064 244.084 53C243.572 52.92 243.076 52.832 242.596 52.736V36.584C243.012 36.504 243.46 36.44 243.94 36.392C244.42 36.328 244.908 36.28 245.404 36.248C245.9 36.2 246.372 36.176 246.82 36.176C247.956 36.176 248.908 36.288 249.676 36.512C250.46 36.736 251.076 37.048 251.524 37.448C251.988 37.848 252.324 38.312 252.532 38.84C252.74 39.368 252.844 39.936 252.844 40.544C252.844 41.056 252.748 41.544 252.556 42.008C252.38 42.472 252.124 42.888 251.788 43.256C251.452 43.608 251.06 43.888 250.612 44.096C251.332 44.336 251.908 44.656 252.34 45.056C252.788 45.456 253.108 45.912 253.3 46.424C253.508 46.92 253.612 47.456 253.612 48.032C253.612 49.296 253.332 50.304 252.772 51.056C252.228 51.808 251.468 52.352 250.492 52.688C249.516 53.024 248.372 53.192 247.06 53.192ZM247.276 50.624C247.852 50.624 248.396 50.56 248.908 50.432C249.436 50.288 249.86 50.024 250.18 49.64C250.516 49.256 250.684 48.72 250.684 48.032C250.684 47.424 250.548 46.944 250.276 46.592C250.004 46.24 249.628 45.984 249.148 45.824C248.668 45.648 248.116 45.56 247.492 45.56H245.572V50.528C245.748 50.528 245.988 50.544 246.292 50.576C246.612 50.608 246.94 50.624 247.276 50.624ZM245.572 43.088H247.012C247.588 43.088 248.092 43.008 248.524 42.848C248.956 42.672 249.292 42.424 249.532 42.104C249.788 41.768 249.916 41.352 249.916 40.856C249.916 40.296 249.788 39.864 249.532 39.56C249.276 39.256 248.948 39.048 248.548 38.936C248.148 38.824 247.708 38.768 247.228 38.768C246.924 38.768 246.62 38.776 246.316 38.792C246.028 38.808 245.78 38.832 245.572 38.864V43.088ZM263.61 53.288C262.49 53.288 261.61 53.08 260.97 52.664C260.33 52.232 259.874 51.616 259.602 50.816C259.346 50.016 259.218 49.04 259.218 47.888V42.896H255.69V40.424H262.194V48.2C262.194 48.792 262.258 49.272 262.386 49.64C262.53 49.992 262.738 50.256 263.01 50.432C263.298 50.592 263.658 50.672 264.09 50.672C264.442 50.672 264.834 50.632 265.266 50.552C265.698 50.456 266.146 50.296 266.61 50.072L266.994 52.496C266.642 52.672 266.274 52.824 265.89 52.952C265.522 53.064 265.138 53.144 264.738 53.192C264.354 53.256 263.978 53.288 263.61 53.288ZM260.25 38.528C259.722 38.528 259.258 38.344 258.858 37.976C258.474 37.608 258.282 37.12 258.282 36.512C258.282 35.888 258.474 35.4 258.858 35.048C259.258 34.68 259.722 34.496 260.25 34.496C260.794 34.496 261.258 34.68 261.642 35.048C262.042 35.4 262.242 35.888 262.242 36.512C262.242 37.12 262.042 37.608 261.642 37.976C261.258 38.344 260.794 38.528 260.25 38.528ZM274.736 53.336C273.584 53.336 272.568 53.056 271.688 52.496C270.808 51.936 270.12 51.16 269.624 50.168C269.128 49.16 268.88 48 268.88 46.688C268.88 45.36 269.128 44.208 269.624 43.232C270.136 42.24 270.832 41.472 271.712 40.928C272.608 40.368 273.616 40.088 274.736 40.088C275.904 40.088 276.928 40.368 277.808 40.928C278.688 41.472 279.376 42.24 279.872 43.232C280.368 44.208 280.616 45.36 280.616 46.688C280.616 48 280.368 49.16 279.872 50.168C279.376 51.16 278.688 51.936 277.808 52.496C276.944 53.056 275.92 53.336 274.736 53.336ZM274.712 50.72C275.32 50.72 275.832 50.552 276.248 50.216C276.68 49.88 277.008 49.416 277.232 48.824C277.456 48.216 277.568 47.512 277.568 46.712C277.568 45.912 277.456 45.208 277.232 44.6C277.024 43.992 276.712 43.528 276.296 43.208C275.88 42.872 275.36 42.704 274.736 42.704C274.144 42.704 273.632 42.872 273.2 43.208C272.784 43.528 272.464 43.992 272.24 44.6C272.016 45.208 271.904 45.912 271.904 46.712C271.904 47.512 272.008 48.216 272.216 48.824C272.44 49.416 272.76 49.88 273.176 50.216C273.592 50.552 274.104 50.72 274.712 50.72Z" fill="#343434"/>
<path d="M80.696 115C80.744 113.64 80.8 112.232 80.864 110.776C80.928 109.32 81 107.872 81.08 106.432C81.16 104.976 81.248 103.568 81.344 102.208C81.456 100.832 81.584 99.552 81.728 98.368H84.272C84.48 98.992 84.72 99.744 84.992 100.624C85.264 101.504 85.544 102.416 85.832 103.36C86.136 104.288 86.424 105.168 86.696 106C87 105.088 87.296 104.168 87.584 103.24C87.872 102.312 88.152 101.424 88.424 100.576C88.712 99.728 88.96 98.992 89.168 98.368H91.712C91.904 100.24 92.064 102.088 92.192 103.912C92.336 105.72 92.448 107.536 92.528 109.36C92.624 111.184 92.696 113.064 92.744 115H89.984C89.984 113.608 89.984 112.176 89.984 110.704C89.984 109.232 89.984 107.744 89.984 106.24C90 104.736 90 103.248 89.984 101.776L87.848 109H85.568L83.456 101.776C83.472 103.232 83.472 104.72 83.456 106.24C83.456 107.744 83.456 109.232 83.456 110.704C83.456 112.176 83.456 113.608 83.456 115H80.696ZM100.15 115.336C98.9977 115.336 97.9817 115.056 97.1017 114.496C96.2217 113.936 95.5337 113.16 95.0377 112.168C94.5417 111.16 94.2937 110 94.2937 108.688C94.2937 107.36 94.5417 106.208 95.0377 105.232C95.5497 104.24 96.2457 103.472 97.1257 102.928C98.0217 102.368 99.0297 102.088 100.15 102.088C101.318 102.088 102.342 102.368 103.222 102.928C104.102 103.472 104.79 104.24 105.286 105.232C105.782 106.208 106.03 107.36 106.03 108.688C106.03 110 105.782 111.16 105.286 112.168C104.79 113.16 104.102 113.936 103.222 114.496C102.358 115.056 101.334 115.336 100.15 115.336ZM100.126 112.72C100.734 112.72 101.246 112.552 101.662 112.216C102.094 111.88 102.422 111.416 102.646 110.824C102.87 110.216 102.982 109.512 102.982 108.712C102.982 107.912 102.87 107.208 102.646 106.6C102.438 105.992 102.126 105.528 101.71 105.208C101.294 104.872 100.774 104.704 100.15 104.704C99.5577 104.704 99.0457 104.872 98.6137 105.208C98.1977 105.528 97.8777 105.992 97.6537 106.6C97.4297 107.208 97.3177 107.912 97.3177 108.712C97.3177 109.512 97.4217 110.216 97.6297 110.824C97.8537 111.416 98.1737 111.88 98.5897 112.216C99.0057 112.552 99.5177 112.72 100.126 112.72ZM109.403 115V103.192C110.283 102.872 111.179 102.624 112.091 102.448C113.019 102.256 114.059 102.16 115.211 102.16C115.499 102.16 115.867 102.176 116.315 102.208C116.763 102.24 117.227 102.288 117.707 102.352C118.187 102.416 118.627 102.512 119.027 102.64L118.499 105.376C118.195 105.296 117.843 105.224 117.443 105.16C117.059 105.096 116.683 105.048 116.315 105.016C115.947 104.984 115.611 104.968 115.307 104.968C114.827 104.968 114.347 105 113.867 105.064C113.387 105.112 112.899 105.2 112.403 105.328V115H109.403ZM127.993 115.288C126.569 115.288 125.345 115.032 124.321 114.52C123.313 114.008 122.537 113.272 121.993 112.312C121.465 111.336 121.201 110.16 121.201 108.784C121.201 107.664 121.361 106.688 121.681 105.856C122.017 105.024 122.465 104.328 123.025 103.768C123.601 103.208 124.241 102.792 124.945 102.52C125.649 102.232 126.377 102.088 127.129 102.088C128.345 102.088 129.361 102.336 130.177 102.832C131.009 103.312 131.641 104.032 132.073 104.992C132.505 105.936 132.721 107.12 132.721 108.544C132.721 108.72 132.713 108.912 132.697 109.12C132.697 109.328 132.689 109.504 132.673 109.648H124.249C124.281 110.608 124.649 111.352 125.353 111.88C126.057 112.408 126.993 112.672 128.161 112.672C128.849 112.672 129.489 112.608 130.081 112.48C130.689 112.336 131.177 112.2 131.545 112.072L131.953 114.592C131.473 114.784 130.897 114.944 130.225 115.072C129.569 115.216 128.825 115.288 127.993 115.288ZM124.273 107.488H129.793C129.793 106.96 129.697 106.48 129.505 106.048C129.329 105.616 129.041 105.272 128.641 105.016C128.257 104.744 127.769 104.608 127.177 104.608C126.569 104.608 126.057 104.744 125.641 105.016C125.241 105.288 124.929 105.648 124.705 106.096C124.481 106.528 124.337 106.992 124.273 107.488ZM156.172 115.288C155.052 115.288 154.172 115.08 153.532 114.664C152.892 114.232 152.436 113.616 152.164 112.816C151.908 112.016 151.78 111.04 151.78 109.888V104.896H148.252V102.424H154.756V110.2C154.756 110.792 154.82 111.272 154.948 111.64C155.092 111.992 155.3 112.256 155.572 112.432C155.86 112.592 156.22 112.672 156.652 112.672C157.004 112.672 157.396 112.632 157.828 112.552C158.26 112.456 158.708 112.296 159.172 112.072L159.556 114.496C159.204 114.672 158.836 114.824 158.452 114.952C158.084 115.064 157.7 115.144 157.3 115.192C156.916 115.256 156.54 115.288 156.172 115.288ZM152.812 100.528C152.284 100.528 151.82 100.344 151.42 99.976C151.036 99.608 150.844 99.12 150.844 98.512C150.844 97.888 151.036 97.4 151.42 97.048C151.82 96.68 152.284 96.496 152.812 96.496C153.356 96.496 153.82 96.68 154.204 97.048C154.604 97.4 154.804 97.888 154.804 98.512C154.804 99.12 154.604 99.608 154.204 99.976C153.82 100.344 153.356 100.528 152.812 100.528ZM162.354 115V102.784C162.994 102.608 163.738 102.456 164.586 102.328C165.45 102.2 166.338 102.136 167.25 102.136C168.53 102.136 169.538 102.368 170.274 102.832C171.026 103.28 171.562 103.928 171.882 104.776C172.202 105.608 172.362 106.624 172.362 107.824V115H169.386V108.232C169.386 107.368 169.306 106.688 169.146 106.192C169.002 105.68 168.754 105.312 168.402 105.088C168.066 104.864 167.618 104.752 167.058 104.752C166.786 104.752 166.498 104.768 166.194 104.8C165.906 104.832 165.61 104.864 165.306 104.896V115H162.354ZM177.92 115V104.896H175.184V102.424H177.92V101.56C177.92 100.216 178.168 99.176 178.664 98.44C179.16 97.688 179.8 97.16 180.584 96.856C181.384 96.536 182.232 96.376 183.128 96.376C183.816 96.376 184.512 96.44 185.216 96.568C185.92 96.696 186.568 96.888 187.16 97.144L186.656 99.616C186.24 99.456 185.728 99.304 185.12 99.16C184.512 99 183.92 98.92 183.344 98.92C182.912 98.92 182.512 98.992 182.144 99.136C181.776 99.264 181.48 99.52 181.256 99.904C181.032 100.288 180.92 100.856 180.92 101.608V102.424H186.056V104.896H180.92V115H177.92ZM194.158 115.336C193.006 115.336 191.99 115.056 191.11 114.496C190.23 113.936 189.542 113.16 189.046 112.168C188.55 111.16 188.302 110 188.302 108.688C188.302 107.36 188.55 106.208 189.046 105.232C189.558 104.24 190.254 103.472 191.134 102.928C192.03 102.368 193.038 102.088 194.158 102.088C195.326 102.088 196.35 102.368 197.23 102.928C198.11 103.472 198.798 104.24 199.294 105.232C199.79 106.208 200.038 107.36 200.038 108.688C200.038 110 199.79 111.16 199.294 112.168C198.798 113.16 198.11 113.936 197.23 114.496C196.366 115.056 195.342 115.336 194.158 115.336ZM194.134 112.72C194.742 112.72 195.254 112.552 195.67 112.216C196.102 111.88 196.43 111.416 196.654 110.824C196.878 110.216 196.99 109.512 196.99 108.712C196.99 107.912 196.878 107.208 196.654 106.6C196.446 105.992 196.134 105.528 195.718 105.208C195.302 104.872 194.782 104.704 194.158 104.704C193.566 104.704 193.054 104.872 192.622 105.208C192.206 105.528 191.886 105.992 191.662 106.6C191.438 107.208 191.326 107.912 191.326 108.712C191.326 109.512 191.43 110.216 191.638 110.824C191.862 111.416 192.182 111.88 192.598 112.216C193.014 112.552 193.526 112.72 194.134 112.72ZM220.921 115.288C220.153 115.288 219.441 115.216 218.785 115.072C218.145 114.944 217.585 114.728 217.105 114.424C216.625 114.104 216.249 113.68 215.977 113.152C215.721 112.608 215.593 111.952 215.593 111.184C215.593 110.192 215.841 109.416 216.337 108.856C216.849 108.296 217.505 107.896 218.305 107.656C219.105 107.4 219.953 107.272 220.849 107.272C221.297 107.272 221.713 107.296 222.097 107.344C222.497 107.376 222.865 107.432 223.201 107.512V107.032C223.201 106.6 223.113 106.2 222.937 105.832C222.777 105.464 222.497 105.168 222.097 104.944C221.697 104.72 221.153 104.608 220.465 104.608C219.793 104.608 219.169 104.656 218.593 104.752C218.017 104.848 217.561 104.96 217.225 105.088L216.817 102.664C217.185 102.52 217.737 102.392 218.473 102.28C219.225 102.152 220.001 102.088 220.801 102.088C222.145 102.088 223.201 102.296 223.969 102.712C224.737 103.128 225.281 103.712 225.601 104.464C225.921 105.216 226.081 106.104 226.081 107.128V114.736C225.585 114.848 224.873 114.968 223.945 115.096C223.033 115.224 222.025 115.288 220.921 115.288ZM221.089 112.864C221.489 112.864 221.873 112.856 222.241 112.84C222.625 112.808 222.945 112.776 223.201 112.744V109.6C222.977 109.568 222.697 109.536 222.361 109.504C222.025 109.456 221.705 109.432 221.401 109.432C220.905 109.432 220.441 109.48 220.009 109.576C219.577 109.672 219.225 109.84 218.953 110.08C218.681 110.304 218.545 110.648 218.545 111.112C218.545 111.736 218.777 112.184 219.241 112.456C219.705 112.728 220.321 112.864 221.089 112.864ZM234.231 115.288C233.655 115.288 233.071 115.256 232.479 115.192C231.887 115.144 231.327 115.072 230.799 114.976C230.287 114.864 229.839 114.744 229.455 114.616V96.856L232.455 96.352V102.76C232.855 102.552 233.279 102.4 233.727 102.304C234.191 102.192 234.671 102.136 235.167 102.136C236.271 102.136 237.199 102.416 237.951 102.976C238.719 103.52 239.295 104.288 239.679 105.28C240.079 106.256 240.279 107.4 240.279 108.712C240.279 110.056 240.039 111.224 239.559 112.216C239.079 113.192 238.383 113.952 237.471 114.496C236.575 115.024 235.495 115.288 234.231 115.288ZM234.111 112.72C235.071 112.72 235.831 112.4 236.391 111.76C236.951 111.104 237.231 110.064 237.231 108.64C237.231 107.824 237.135 107.128 236.943 106.552C236.767 105.976 236.479 105.528 236.079 105.208C235.695 104.888 235.207 104.728 234.615 104.728C234.215 104.728 233.815 104.792 233.415 104.92C233.015 105.048 232.695 105.192 232.455 105.352V112.528C232.727 112.592 233.015 112.64 233.319 112.672C233.623 112.704 233.887 112.72 234.111 112.72ZM247.876 115.336C246.724 115.336 245.708 115.056 244.828 114.496C243.948 113.936 243.26 113.16 242.764 112.168C242.268 111.16 242.02 110 242.02 108.688C242.02 107.36 242.268 106.208 242.764 105.232C243.276 104.24 243.972 103.472 244.852 102.928C245.748 102.368 246.756 102.088 247.876 102.088C249.044 102.088 250.068 102.368 250.948 102.928C251.828 103.472 252.516 104.24 253.012 105.232C253.508 106.208 253.756 107.36 253.756 108.688C253.756 110 253.508 111.16 253.012 112.168C252.516 113.16 251.828 113.936 250.948 114.496C250.084 115.056 249.06 115.336 247.876 115.336ZM247.852 112.72C248.46 112.72 248.972 112.552 249.388 112.216C249.82 111.88 250.148 111.416 250.372 110.824C250.596 110.216 250.708 109.512 250.708 108.712C250.708 107.912 250.596 107.208 250.372 106.6C250.164 105.992 249.852 105.528 249.436 105.208C249.02 104.872 248.5 104.704 247.876 104.704C247.284 104.704 246.772 104.872 246.34 105.208C245.924 105.528 245.604 105.992 245.38 106.6C245.156 107.208 245.044 107.912 245.044 108.712C245.044 109.512 245.148 110.216 245.356 110.824C245.58 111.416 245.9 111.88 246.316 112.216C246.732 112.552 247.244 112.72 247.852 112.72ZM261.33 115.288C259.986 115.288 258.946 115.04 258.21 114.544C257.474 114.032 256.962 113.336 256.674 112.456C256.386 111.576 256.242 110.576 256.242 109.456V102.424H259.218V109C259.218 109.832 259.29 110.528 259.434 111.088C259.578 111.632 259.818 112.032 260.154 112.288C260.506 112.544 260.97 112.672 261.546 112.672C261.85 112.672 262.162 112.656 262.482 112.624C262.818 112.592 263.09 112.56 263.298 112.528V102.424H266.298V114.592C265.722 114.736 265.002 114.888 264.138 115.048C263.29 115.208 262.354 115.288 261.33 115.288ZM276.752 115.288C275.664 115.288 274.768 115.152 274.064 114.88C273.36 114.592 272.84 114.08 272.504 113.344C272.168 112.608 272 111.584 272 110.272V104.896H269.192V102.424H272V99.136L274.976 98.656V102.424H280.28V104.896H274.976V110.224C274.976 110.896 275.056 111.408 275.216 111.76C275.376 112.112 275.608 112.352 275.912 112.48C276.232 112.608 276.616 112.672 277.064 112.672C277.688 112.672 278.216 112.632 278.648 112.552C279.08 112.456 279.568 112.28 280.112 112.024L280.544 114.592C280.048 114.8 279.464 114.968 278.792 115.096C278.12 115.224 277.44 115.288 276.752 115.288ZM88.016 144.36C86.528 144.36 85.248 144.032 84.176 143.376C83.12 142.704 82.304 141.72 81.728 140.424C81.168 139.128 80.888 137.544 80.888 135.672C80.888 133.816 81.208 132.24 81.848 130.944C82.488 129.648 83.368 128.664 84.488 127.992C85.608 127.32 86.864 126.984 88.256 126.984C88.928 126.984 89.536 127.056 90.08 127.2C90.64 127.328 91.12 127.48 91.52 127.656C91.92 127.832 92.24 128 92.48 128.16L91.688 130.56C91.224 130.272 90.696 130.04 90.104 129.864C89.528 129.688 88.904 129.6 88.232 129.6C87.48 129.6 86.768 129.808 86.096 130.224C85.44 130.624 84.912 131.264 84.512 132.144C84.112 133.024 83.912 134.176 83.912 135.6C83.912 136.928 84.072 138.048 84.392 138.96C84.728 139.872 85.224 140.568 85.88 141.048C86.536 141.512 87.344 141.744 88.304 141.744C89.056 141.744 89.72 141.656 90.296 141.48C90.872 141.304 91.368 141.096 91.784 140.856L92.528 143.208C92.032 143.528 91.392 143.8 90.608 144.024C89.84 144.248 88.976 144.36 88.016 144.36ZM100.054 144.288C99.2857 144.288 98.5737 144.216 97.9177 144.072C97.2777 143.944 96.7177 143.728 96.2377 143.424C95.7577 143.104 95.3817 142.68 95.1097 142.152C94.8537 141.608 94.7257 140.952 94.7257 140.184C94.7257 139.192 94.9737 138.416 95.4697 137.856C95.9817 137.296 96.6377 136.896 97.4377 136.656C98.2377 136.4 99.0857 136.272 99.9817 136.272C100.43 136.272 100.846 136.296 101.23 136.344C101.63 136.376 101.998 136.432 102.334 136.512V136.032C102.334 135.6 102.246 135.2 102.07 134.832C101.91 134.464 101.63 134.168 101.23 133.944C100.83 133.72 100.286 133.608 99.5977 133.608C98.9257 133.608 98.3017 133.656 97.7257 133.752C97.1497 133.848 96.6937 133.96 96.3577 134.088L95.9497 131.664C96.3177 131.52 96.8697 131.392 97.6057 131.28C98.3577 131.152 99.1337 131.088 99.9337 131.088C101.278 131.088 102.334 131.296 103.102 131.712C103.87 132.128 104.414 132.712 104.734 133.464C105.054 134.216 105.214 135.104 105.214 136.128V143.736C104.718 143.848 104.006 143.968 103.078 144.096C102.166 144.224 101.158 144.288 100.054 144.288ZM100.222 141.864C100.622 141.864 101.006 141.856 101.374 141.84C101.758 141.808 102.078 141.776 102.334 141.744V138.6C102.11 138.568 101.83 138.536 101.494 138.504C101.158 138.456 100.838 138.432 100.534 138.432C100.038 138.432 99.5737 138.48 99.1417 138.576C98.7097 138.672 98.3577 138.84 98.0857 139.08C97.8137 139.304 97.6777 139.648 97.6777 140.112C97.6777 140.736 97.9097 141.184 98.3737 141.456C98.8377 141.728 99.4537 141.864 100.222 141.864ZM109.403 144V132.192C110.283 131.872 111.179 131.624 112.091 131.448C113.019 131.256 114.059 131.16 115.211 131.16C115.499 131.16 115.867 131.176 116.315 131.208C116.763 131.24 117.227 131.288 117.707 131.352C118.187 131.416 118.627 131.512 119.027 131.64L118.499 134.376C118.195 134.296 117.843 134.224 117.443 134.16C117.059 134.096 116.683 134.048 116.315 134.016C115.947 133.984 115.611 133.968 115.307 133.968C114.827 133.968 114.347 134 113.867 134.064C113.387 134.112 112.899 134.2 112.403 134.328V144H109.403ZM127.993 144.288C126.569 144.288 125.345 144.032 124.321 143.52C123.313 143.008 122.537 142.272 121.993 141.312C121.465 140.336 121.201 139.16 121.201 137.784C121.201 136.664 121.361 135.688 121.681 134.856C122.017 134.024 122.465 133.328 123.025 132.768C123.601 132.208 124.241 131.792 124.945 131.52C125.649 131.232 126.377 131.088 127.129 131.088C128.345 131.088 129.361 131.336 130.177 131.832C131.009 132.312 131.641 133.032 132.073 133.992C132.505 134.936 132.721 136.12 132.721 137.544C132.721 137.72 132.713 137.912 132.697 138.12C132.697 138.328 132.689 138.504 132.673 138.648H124.249C124.281 139.608 124.649 140.352 125.353 140.88C126.057 141.408 126.993 141.672 128.161 141.672C128.849 141.672 129.489 141.608 130.081 141.48C130.689 141.336 131.177 141.2 131.545 141.072L131.953 143.592C131.473 143.784 130.897 143.944 130.225 144.072C129.569 144.216 128.825 144.288 127.993 144.288ZM124.273 136.488H129.793C129.793 135.96 129.697 135.48 129.505 135.048C129.329 134.616 129.041 134.272 128.641 134.016C128.257 133.744 127.769 133.608 127.177 133.608C126.569 133.608 126.057 133.744 125.641 134.016C125.241 134.288 124.929 134.648 124.705 135.096C124.481 135.528 124.337 135.992 124.273 136.488ZM139.239 148.512C138.471 148.512 137.727 148.432 137.007 148.272C136.287 148.128 135.623 147.96 135.015 147.768L135.591 145.2C136.087 145.392 136.623 145.568 137.199 145.728C137.791 145.904 138.495 145.992 139.311 145.992C140.095 145.992 140.711 145.872 141.159 145.632C141.623 145.408 141.951 145.08 142.143 144.648C142.335 144.232 142.431 143.744 142.431 143.184V142.704C142.031 142.848 141.615 142.984 141.183 143.112C140.751 143.224 140.271 143.28 139.743 143.28C138.687 143.28 137.775 143.048 137.007 142.584C136.255 142.12 135.671 141.448 135.255 140.568C134.855 139.672 134.655 138.6 134.655 137.352C134.655 136.008 134.903 134.872 135.399 133.944C135.911 133.016 136.631 132.32 137.559 131.856C138.487 131.376 139.599 131.136 140.895 131.136C141.695 131.136 142.463 131.2 143.199 131.328C143.951 131.44 144.695 131.6 145.431 131.808V142.632C145.431 144.664 144.935 146.152 143.943 147.096C142.951 148.04 141.383 148.512 139.239 148.512ZM140.271 140.808C140.703 140.808 141.103 140.752 141.471 140.64C141.855 140.512 142.175 140.376 142.431 140.232V133.8C142.175 133.736 141.919 133.688 141.663 133.656C141.423 133.624 141.135 133.608 140.799 133.608C140.127 133.608 139.559 133.752 139.095 134.04C138.631 134.328 138.279 134.752 138.039 135.312C137.815 135.856 137.703 136.536 137.703 137.352C137.703 138.12 137.807 138.76 138.015 139.272C138.223 139.768 138.519 140.152 138.903 140.424C139.287 140.68 139.743 140.808 140.271 140.808ZM156.172 144.288C155.052 144.288 154.172 144.08 153.532 143.664C152.892 143.232 152.436 142.616 152.164 141.816C151.908 141.016 151.78 140.04 151.78 138.888V133.896H148.252V131.424H154.756V139.2C154.756 139.792 154.82 140.272 154.948 140.64C155.092 140.992 155.3 141.256 155.572 141.432C155.86 141.592 156.22 141.672 156.652 141.672C157.004 141.672 157.396 141.632 157.828 141.552C158.26 141.456 158.708 141.296 159.172 141.072L159.556 143.496C159.204 143.672 158.836 143.824 158.452 143.952C158.084 144.064 157.7 144.144 157.3 144.192C156.916 144.256 156.54 144.288 156.172 144.288ZM152.812 129.528C152.284 129.528 151.82 129.344 151.42 128.976C151.036 128.608 150.844 128.12 150.844 127.512C150.844 126.888 151.036 126.4 151.42 126.048C151.82 125.68 152.284 125.496 152.812 125.496C153.356 125.496 153.82 125.68 154.204 126.048C154.604 126.4 154.804 126.888 154.804 127.512C154.804 128.12 154.604 128.608 154.204 128.976C153.82 129.344 153.356 129.528 152.812 129.528ZM165.906 144C165.378 142.928 164.826 141.728 164.25 140.4C163.69 139.072 163.138 137.656 162.594 136.152C162.066 134.632 161.562 133.056 161.082 131.424H164.226C164.482 132.352 164.778 133.368 165.114 134.472C165.45 135.576 165.802 136.656 166.17 137.712C166.554 138.752 166.914 139.688 167.25 140.52C167.49 139.912 167.754 139.232 168.042 138.48C168.346 137.728 168.642 136.944 168.93 136.128C169.234 135.296 169.522 134.48 169.794 133.68C170.066 132.88 170.29 132.128 170.466 131.424H173.514C173.162 132.656 172.77 133.856 172.338 135.024C171.922 136.176 171.49 137.288 171.042 138.36C170.61 139.416 170.17 140.416 169.722 141.36C169.29 142.304 168.874 143.184 168.474 144H165.906ZM181.712 144.288C180.288 144.288 179.064 144.032 178.04 143.52C177.032 143.008 176.256 142.272 175.712 141.312C175.184 140.336 174.92 139.16 174.92 137.784C174.92 136.664 175.08 135.688 175.4 134.856C175.736 134.024 176.184 133.328 176.744 132.768C177.32 132.208 177.96 131.792 178.664 131.52C179.368 131.232 180.096 131.088 180.848 131.088C182.064 131.088 183.08 131.336 183.896 131.832C184.728 132.312 185.36 133.032 185.792 133.992C186.224 134.936 186.44 136.12 186.44 137.544C186.44 137.72 186.432 137.912 186.416 138.12C186.416 138.328 186.408 138.504 186.392 138.648H177.968C178 139.608 178.368 140.352 179.072 140.88C179.776 141.408 180.712 141.672 181.88 141.672C182.568 141.672 183.208 141.608 183.8 141.48C184.408 141.336 184.896 141.2 185.264 141.072L185.672 143.592C185.192 143.784 184.616 143.944 183.944 144.072C183.288 144.216 182.544 144.288 181.712 144.288ZM177.992 136.488H183.512C183.512 135.96 183.416 135.48 183.224 135.048C183.048 134.616 182.76 134.272 182.36 134.016C181.976 133.744 181.488 133.608 180.896 133.608C180.288 133.608 179.776 133.744 179.36 134.016C178.96 134.288 178.648 134.648 178.424 135.096C178.2 135.528 178.056 135.992 177.992 136.488ZM189.982 144V132.192C190.862 131.872 191.758 131.624 192.67 131.448C193.598 131.256 194.638 131.16 195.79 131.16C196.078 131.16 196.446 131.176 196.894 131.208C197.342 131.24 197.806 131.288 198.286 131.352C198.766 131.416 199.206 131.512 199.606 131.64L199.078 134.376C198.774 134.296 198.422 134.224 198.022 134.16C197.638 134.096 197.262 134.048 196.894 134.016C196.526 133.984 196.19 133.968 195.886 133.968C195.406 133.968 194.926 134 194.446 134.064C193.966 134.112 193.478 134.2 192.982 134.328V144H189.982ZM206.987 144.288C206.315 144.288 205.699 144.232 205.139 144.12C204.579 144.024 204.067 143.904 203.603 143.76C203.155 143.6 202.755 143.448 202.403 143.304L202.907 140.76C203.515 141 204.171 141.232 204.875 141.456C205.595 141.664 206.331 141.768 207.083 141.768C207.947 141.768 208.603 141.696 209.051 141.552C209.515 141.392 209.747 141.104 209.747 140.688C209.747 140.352 209.611 140.08 209.339 139.872C209.083 139.648 208.747 139.456 208.331 139.296C207.915 139.136 207.459 138.976 206.963 138.816C206.483 138.672 205.987 138.504 205.475 138.312C204.979 138.12 204.523 137.88 204.107 137.592C203.691 137.304 203.355 136.944 203.099 136.512C202.843 136.08 202.715 135.552 202.715 134.928C202.715 134.224 202.899 133.584 203.267 133.008C203.635 132.416 204.211 131.952 204.995 131.616C205.779 131.264 206.787 131.088 208.019 131.088C208.803 131.088 209.547 131.152 210.251 131.28C210.971 131.392 211.587 131.552 212.099 131.76L211.619 134.328C211.427 134.248 211.147 134.152 210.779 134.04C210.411 133.928 209.987 133.832 209.507 133.752C209.043 133.656 208.555 133.608 208.043 133.608C207.163 133.608 206.547 133.72 206.195 133.944C205.843 134.152 205.667 134.424 205.667 134.76C205.667 135.032 205.787 135.272 206.027 135.48C206.267 135.688 206.579 135.872 206.963 136.032C207.363 136.176 207.795 136.328 208.259 136.488C208.755 136.664 209.259 136.856 209.771 137.064C210.299 137.272 210.779 137.528 211.211 137.832C211.659 138.12 212.011 138.488 212.267 138.936C212.539 139.368 212.675 139.912 212.675 140.568C212.675 141.288 212.491 141.928 212.123 142.488C211.755 143.048 211.155 143.488 210.323 143.808C209.491 144.128 208.379 144.288 206.987 144.288ZM221.041 144.288C220.417 144.288 219.873 144.08 219.409 143.664C218.961 143.248 218.737 142.696 218.737 142.008C218.737 141.304 218.961 140.752 219.409 140.352C219.873 139.936 220.417 139.728 221.041 139.728C221.649 139.728 222.177 139.936 222.625 140.352C223.089 140.752 223.321 141.304 223.321 142.008C223.321 142.696 223.089 143.248 222.625 143.664C222.177 144.08 221.649 144.288 221.041 144.288ZM221.041 135.984C220.417 135.984 219.873 135.776 219.409 135.36C218.961 134.944 218.737 134.392 218.737 133.704C218.737 133 218.961 132.448 219.409 132.048C219.873 131.632 220.417 131.424 221.041 131.424C221.649 131.424 222.177 131.632 222.625 132.048C223.089 132.448 223.321 133 223.321 133.704C223.321 134.392 223.089 134.944 222.625 135.36C222.177 135.776 221.649 135.984 221.041 135.984Z" fill="#343434"/>
<rect x="80.5" y="165.5" width="241" height="191" rx="14.5" stroke="black"/>
<path d="M100.24 212C100.608 210.496 100.992 209.016 101.392 207.56C101.792 206.104 102.192 204.68 102.592 203.288C103.008 201.896 103.416 200.536 103.816 199.208C104.232 197.88 104.656 196.6 105.088 195.368H108.448C108.864 196.6 109.28 197.888 109.696 199.232C110.128 200.576 110.544 201.952 110.944 203.36C111.344 204.752 111.728 206.176 112.096 207.632C112.48 209.072 112.848 210.528 113.2 212H110.008L109.168 208.016H104.152L103.312 212H100.24ZM104.752 205.544H108.616C108.44 204.664 108.248 203.816 108.04 203C107.848 202.184 107.632 201.384 107.392 200.6C107.168 199.8 106.936 199 106.696 198.2C106.456 199 106.216 199.8 105.976 200.6C105.752 201.4 105.536 202.208 105.328 203.024C105.136 203.824 104.944 204.664 104.752 205.544ZM118.95 216.512C118.182 216.512 117.438 216.432 116.718 216.272C115.998 216.128 115.334 215.96 114.726 215.768L115.302 213.2C115.798 213.392 116.334 213.568 116.91 213.728C117.502 213.904 118.206 213.992 119.022 213.992C119.806 213.992 120.422 213.872 120.87 213.632C121.334 213.408 121.662 213.08 121.854 212.648C122.046 212.232 122.142 211.744 122.142 211.184V210.704C121.742 210.848 121.326 210.984 120.894 211.112C120.462 211.224 119.982 211.28 119.454 211.28C118.398 211.28 117.486 211.048 116.718 210.584C115.966 210.12 115.382 209.448 114.966 208.568C114.566 207.672 114.366 206.6 114.366 205.352C114.366 204.008 114.614 202.872 115.11 201.944C115.622 201.016 116.342 200.32 117.27 199.856C118.198 199.376 119.31 199.136 120.606 199.136C121.406 199.136 122.174 199.2 122.91 199.328C123.662 199.44 124.406 199.6 125.142 199.808V210.632C125.142 212.664 124.646 214.152 123.654 215.096C122.662 216.04 121.094 216.512 118.95 216.512ZM119.982 208.808C120.414 208.808 120.814 208.752 121.182 208.64C121.566 208.512 121.886 208.376 122.142 208.232V201.8C121.886 201.736 121.63 201.688 121.374 201.656C121.134 201.624 120.846 201.608 120.51 201.608C119.838 201.608 119.27 201.752 118.806 202.04C118.342 202.328 117.99 202.752 117.75 203.312C117.526 203.856 117.414 204.536 117.414 205.352C117.414 206.12 117.518 206.76 117.726 207.272C117.934 207.768 118.23 208.152 118.614 208.424C118.998 208.68 119.454 208.808 119.982 208.808ZM134.563 212.288C133.139 212.288 131.915 212.032 130.891 211.52C129.883 211.008 129.107 210.272 128.563 209.312C128.035 208.336 127.771 207.16 127.771 205.784C127.771 204.664 127.931 203.688 128.251 202.856C128.587 202.024 129.035 201.328 129.595 200.768C130.171 200.208 130.811 199.792 131.515 199.52C132.219 199.232 132.947 199.088 133.699 199.088C134.915 199.088 135.931 199.336 136.747 199.832C137.579 200.312 138.211 201.032 138.643 201.992C139.075 202.936 139.291 204.12 139.291 205.544C139.291 205.72 139.283 205.912 139.267 206.12C139.267 206.328 139.259 206.504 139.243 206.648H130.819C130.851 207.608 131.219 208.352 131.923 208.88C132.627 209.408 133.563 209.672 134.731 209.672C135.419 209.672 136.059 209.608 136.651 209.48C137.259 209.336 137.747 209.2 138.115 209.072L138.523 211.592C138.043 211.784 137.467 211.944 136.795 212.072C136.139 212.216 135.395 212.288 134.563 212.288ZM130.843 204.488H136.363C136.363 203.96 136.267 203.48 136.075 203.048C135.899 202.616 135.611 202.272 135.211 202.016C134.827 201.744 134.339 201.608 133.747 201.608C133.139 201.608 132.627 201.744 132.211 202.016C131.811 202.288 131.499 202.648 131.275 203.096C131.051 203.528 130.907 203.992 130.843 204.488ZM161.375 212.36C159.999 212.36 158.807 212.032 157.799 211.376C156.791 210.72 156.007 209.752 155.447 208.472C154.887 207.176 154.607 205.576 154.607 203.672C154.607 201.784 154.919 200.2 155.543 198.92C156.183 197.624 157.039 196.648 158.111 195.992C159.183 195.32 160.375 194.984 161.687 194.984C162.551 194.984 163.279 195.064 163.871 195.224C164.463 195.384 164.943 195.552 165.311 195.728C165.679 195.904 165.943 196.048 166.103 196.16L165.287 198.584C164.887 198.312 164.399 198.08 163.823 197.888C163.247 197.68 162.655 197.576 162.047 197.576C161.055 197.576 160.231 197.832 159.575 198.344C158.919 198.856 158.431 199.568 158.111 200.48C157.791 201.392 157.631 202.456 157.631 203.672C157.631 204.984 157.783 206.096 158.087 207.008C158.391 207.904 158.839 208.592 159.431 209.072C160.039 209.536 160.775 209.768 161.639 209.768C161.911 209.768 162.175 209.744 162.431 209.696C162.687 209.648 162.911 209.608 163.103 209.576V203.432H166.055V211.592C165.687 211.736 165.095 211.896 164.279 212.072C163.463 212.264 162.495 212.36 161.375 212.36ZM169.692 212V200.192C170.572 199.872 171.468 199.624 172.38 199.448C173.308 199.256 174.348 199.16 175.5 199.16C175.788 199.16 176.156 199.176 176.604 199.208C177.052 199.24 177.516 199.288 177.996 199.352C178.476 199.416 178.916 199.512 179.316 199.64L178.788 202.376C178.484 202.296 178.132 202.224 177.732 202.16C177.348 202.096 176.972 202.048 176.604 202.016C176.236 201.984 175.9 201.968 175.596 201.968C175.116 201.968 174.636 202 174.156 202.064C173.676 202.112 173.188 202.2 172.692 202.328V212H169.692ZM187.298 212.336C186.146 212.336 185.13 212.056 184.25 211.496C183.37 210.936 182.682 210.16 182.186 209.168C181.69 208.16 181.442 207 181.442 205.688C181.442 204.36 181.69 203.208 182.186 202.232C182.698 201.24 183.394 200.472 184.274 199.928C185.17 199.368 186.178 199.088 187.298 199.088C188.466 199.088 189.49 199.368 190.37 199.928C191.25 200.472 191.938 201.24 192.434 202.232C192.93 203.208 193.178 204.36 193.178 205.688C193.178 207 192.93 208.16 192.434 209.168C191.938 210.16 191.25 210.936 190.37 211.496C189.506 212.056 188.482 212.336 187.298 212.336ZM187.274 209.72C187.882 209.72 188.394 209.552 188.81 209.216C189.242 208.88 189.57 208.416 189.794 207.824C190.018 207.216 190.13 206.512 190.13 205.712C190.13 204.912 190.018 204.208 189.794 203.6C189.586 202.992 189.274 202.528 188.858 202.208C188.442 201.872 187.922 201.704 187.298 201.704C186.706 201.704 186.194 201.872 185.762 202.208C185.346 202.528 185.026 202.992 184.802 203.6C184.578 204.208 184.466 204.912 184.466 205.712C184.466 206.512 184.57 207.216 184.778 207.824C185.002 208.416 185.322 208.88 185.738 209.216C186.154 209.552 186.666 209.72 187.274 209.72ZM200.752 212.288C199.408 212.288 198.368 212.04 197.632 211.544C196.896 211.032 196.384 210.336 196.096 209.456C195.808 208.576 195.664 207.576 195.664 206.456V199.424H198.64V206C198.64 206.832 198.712 207.528 198.856 208.088C199 208.632 199.24 209.032 199.576 209.288C199.928 209.544 200.392 209.672 200.968 209.672C201.272 209.672 201.584 209.656 201.904 209.624C202.24 209.592 202.512 209.56 202.72 209.528V199.424H205.72V211.592C205.144 211.736 204.424 211.888 203.56 212.048C202.712 212.208 201.776 212.288 200.752 212.288ZM209.214 216.44V199.808C209.582 199.68 210.022 199.568 210.534 199.472C211.062 199.376 211.614 199.296 212.19 199.232C212.782 199.168 213.366 199.136 213.942 199.136C215.222 199.136 216.31 199.408 217.206 199.952C218.102 200.48 218.782 201.24 219.246 202.232C219.726 203.208 219.966 204.368 219.966 205.712C219.966 206.992 219.774 208.128 219.39 209.12C219.006 210.112 218.43 210.888 217.662 211.448C216.91 212.008 215.982 212.288 214.878 212.288C214.382 212.288 213.91 212.232 213.462 212.12C213.014 212.008 212.582 211.848 212.166 211.64V216.44H209.214ZM214.326 209.696C214.918 209.696 215.406 209.536 215.79 209.216C216.174 208.896 216.454 208.448 216.63 207.872C216.822 207.28 216.918 206.584 216.918 205.784C216.918 204.552 216.662 203.568 216.15 202.832C215.638 202.08 214.902 201.704 213.942 201.704C213.574 201.704 213.23 201.728 212.91 201.776C212.606 201.808 212.358 201.832 212.166 201.848V209.072C212.406 209.248 212.726 209.4 213.126 209.528C213.526 209.64 213.926 209.696 214.326 209.696ZM226.987 212.288C226.315 212.288 225.699 212.232 225.139 212.12C224.579 212.024 224.067 211.904 223.603 211.76C223.155 211.6 222.755 211.448 222.403 211.304L222.907 208.76C223.515 209 224.171 209.232 224.875 209.456C225.595 209.664 226.331 209.768 227.083 209.768C227.947 209.768 228.603 209.696 229.051 209.552C229.515 209.392 229.747 209.104 229.747 208.688C229.747 208.352 229.611 208.08 229.339 207.872C229.083 207.648 228.747 207.456 228.331 207.296C227.915 207.136 227.459 206.976 226.963 206.816C226.483 206.672 225.987 206.504 225.475 206.312C224.979 206.12 224.523 205.88 224.107 205.592C223.691 205.304 223.355 204.944 223.099 204.512C222.843 204.08 222.715 203.552 222.715 202.928C222.715 202.224 222.899 201.584 223.267 201.008C223.635 200.416 224.211 199.952 224.995 199.616C225.779 199.264 226.787 199.088 228.019 199.088C228.803 199.088 229.547 199.152 230.251 199.28C230.971 199.392 231.587 199.552 232.099 199.76L231.619 202.328C231.427 202.248 231.147 202.152 230.779 202.04C230.411 201.928 229.987 201.832 229.507 201.752C229.043 201.656 228.555 201.608 228.043 201.608C227.163 201.608 226.547 201.72 226.195 201.944C225.843 202.152 225.667 202.424 225.667 202.76C225.667 203.032 225.787 203.272 226.027 203.48C226.267 203.688 226.579 203.872 226.963 204.032C227.363 204.176 227.795 204.328 228.259 204.488C228.755 204.664 229.259 204.856 229.771 205.064C230.299 205.272 230.779 205.528 231.211 205.832C231.659 206.12 232.011 206.488 232.267 206.936C232.539 207.368 232.675 207.912 232.675 208.568C232.675 209.288 232.491 209.928 232.123 210.488C231.755 211.048 231.155 211.488 230.323 211.808C229.491 212.128 228.379 212.288 226.987 212.288Z" fill="#343434"/>
<path d="M101.728 258C101.552 256.384 101.392 254.648 101.248 252.792C101.104 250.936 100.992 249.032 100.912 247.08C100.832 245.112 100.76 243.208 100.696 241.368H103.48C103.48 242.808 103.472 244.296 103.456 245.832C103.456 247.352 103.448 248.856 103.432 250.344C103.432 251.832 103.44 253.24 103.456 254.568C103.632 253.976 103.816 253.352 104.008 252.696C104.2 252.024 104.392 251.36 104.584 250.704C104.792 250.048 104.976 249.432 105.136 248.856C105.312 248.28 105.464 247.784 105.592 247.368H107.872C108.112 248.232 108.416 249.296 108.784 250.56C109.168 251.824 109.568 253.16 109.984 254.568C109.984 253.24 109.976 251.84 109.96 250.368C109.96 248.88 109.96 247.368 109.96 245.832C109.96 244.296 109.96 242.808 109.96 241.368H112.744C112.68 243.224 112.6 245.128 112.504 247.08C112.408 249.032 112.296 250.936 112.168 252.792C112.056 254.648 111.904 256.384 111.712 258H109.192C108.776 256.8 108.368 255.536 107.968 254.208C107.568 252.88 107.16 251.6 106.744 250.368C106.488 251.152 106.216 251.984 105.928 252.864C105.64 253.744 105.36 254.624 105.088 255.504C104.816 256.368 104.544 257.2 104.272 258H101.728ZM120.15 258.336C118.998 258.336 117.982 258.056 117.102 257.496C116.222 256.936 115.534 256.16 115.038 255.168C114.542 254.16 114.294 253 114.294 251.688C114.294 250.36 114.542 249.208 115.038 248.232C115.55 247.24 116.246 246.472 117.126 245.928C118.022 245.368 119.03 245.088 120.15 245.088C121.318 245.088 122.342 245.368 123.222 245.928C124.102 246.472 124.79 247.24 125.286 248.232C125.782 249.208 126.03 250.36 126.03 251.688C126.03 253 125.782 254.16 125.286 255.168C124.79 256.16 124.102 256.936 123.222 257.496C122.358 258.056 121.334 258.336 120.15 258.336ZM120.126 255.72C120.734 255.72 121.246 255.552 121.662 255.216C122.094 254.88 122.422 254.416 122.646 253.824C122.87 253.216 122.982 252.512 122.982 251.712C122.982 250.912 122.87 250.208 122.646 249.6C122.438 248.992 122.126 248.528 121.71 248.208C121.294 247.872 120.774 247.704 120.15 247.704C119.558 247.704 119.046 247.872 118.614 248.208C118.198 248.528 117.878 248.992 117.654 249.6C117.43 250.208 117.318 250.912 117.318 251.712C117.318 252.512 117.422 253.216 117.63 253.824C117.854 254.416 118.174 254.88 118.59 255.216C119.006 255.552 119.518 255.72 120.126 255.72ZM129.403 258V246.192C130.283 245.872 131.179 245.624 132.091 245.448C133.019 245.256 134.059 245.16 135.211 245.16C135.499 245.16 135.867 245.176 136.315 245.208C136.763 245.24 137.227 245.288 137.707 245.352C138.187 245.416 138.627 245.512 139.027 245.64L138.499 248.376C138.195 248.296 137.843 248.224 137.443 248.16C137.059 248.096 136.683 248.048 136.315 248.016C135.947 247.984 135.611 247.968 135.307 247.968C134.827 247.968 134.347 248 133.867 248.064C133.387 248.112 132.899 248.2 132.403 248.328V258H129.403ZM142.065 258V239.856L145.041 239.352V250.488C145.537 249.96 146.041 249.408 146.553 248.832C147.065 248.256 147.553 247.672 148.017 247.08C148.497 246.488 148.913 245.936 149.265 245.424H152.817C152.369 245.984 151.841 246.592 151.233 247.248C150.625 247.904 150.009 248.552 149.385 249.192C148.761 249.832 148.169 250.432 147.609 250.992C148.073 251.392 148.577 251.888 149.121 252.48C149.665 253.056 150.209 253.672 150.753 254.328C151.297 254.984 151.793 255.632 152.241 256.272C152.689 256.896 153.041 257.472 153.297 258H149.865C149.609 257.504 149.281 256.976 148.881 256.416C148.497 255.856 148.081 255.304 147.633 254.76C147.185 254.2 146.737 253.68 146.289 253.2C145.841 252.72 145.425 252.328 145.041 252.024V258H142.065ZM162.743 258.288C161.623 258.288 160.743 258.08 160.103 257.664C159.463 257.232 159.007 256.616 158.735 255.816C158.479 255.016 158.351 254.04 158.351 252.888V247.896H154.823V245.424H161.327V253.2C161.327 253.792 161.391 254.272 161.519 254.64C161.663 254.992 161.871 255.256 162.143 255.432C162.431 255.592 162.791 255.672 163.223 255.672C163.575 255.672 163.967 255.632 164.399 255.552C164.831 255.456 165.279 255.296 165.743 255.072L166.127 257.496C165.775 257.672 165.407 257.824 165.023 257.952C164.655 258.064 164.271 258.144 163.871 258.192C163.487 258.256 163.111 258.288 162.743 258.288ZM159.383 243.528C158.855 243.528 158.391 243.344 157.991 242.976C157.607 242.608 157.415 242.12 157.415 241.512C157.415 240.888 157.607 240.4 157.991 240.048C158.391 239.68 158.855 239.496 159.383 239.496C159.927 239.496 160.391 239.68 160.775 240.048C161.175 240.4 161.375 240.888 161.375 241.512C161.375 242.12 161.175 242.608 160.775 242.976C160.391 243.344 159.927 243.528 159.383 243.528ZM168.924 258V245.784C169.564 245.608 170.308 245.456 171.156 245.328C172.02 245.2 172.908 245.136 173.82 245.136C175.1 245.136 176.108 245.368 176.844 245.832C177.596 246.28 178.132 246.928 178.452 247.776C178.772 248.608 178.932 249.624 178.932 250.824V258H175.956V251.232C175.956 250.368 175.876 249.688 175.716 249.192C175.572 248.68 175.324 248.312 174.972 248.088C174.636 247.864 174.188 247.752 173.628 247.752C173.356 247.752 173.068 247.768 172.764 247.8C172.476 247.832 172.18 247.864 171.876 247.896V258H168.924ZM186.098 262.512C185.33 262.512 184.586 262.432 183.866 262.272C183.146 262.128 182.482 261.96 181.874 261.768L182.45 259.2C182.946 259.392 183.482 259.568 184.058 259.728C184.65 259.904 185.354 259.992 186.17 259.992C186.954 259.992 187.57 259.872 188.018 259.632C188.482 259.408 188.81 259.08 189.002 258.648C189.194 258.232 189.29 257.744 189.29 257.184V256.704C188.89 256.848 188.474 256.984 188.042 257.112C187.61 257.224 187.13 257.28 186.602 257.28C185.546 257.28 184.634 257.048 183.866 256.584C183.114 256.12 182.53 255.448 182.114 254.568C181.714 253.672 181.514 252.6 181.514 251.352C181.514 250.008 181.762 248.872 182.258 247.944C182.77 247.016 183.49 246.32 184.418 245.856C185.346 245.376 186.458 245.136 187.754 245.136C188.554 245.136 189.322 245.2 190.058 245.328C190.81 245.44 191.554 245.6 192.29 245.808V256.632C192.29 258.664 191.794 260.152 190.802 261.096C189.81 262.04 188.242 262.512 186.098 262.512ZM187.13 254.808C187.562 254.808 187.962 254.752 188.33 254.64C188.714 254.512 189.034 254.376 189.29 254.232V247.8C189.034 247.736 188.778 247.688 188.522 247.656C188.282 247.624 187.994 247.608 187.658 247.608C186.986 247.608 186.418 247.752 185.954 248.04C185.49 248.328 185.138 248.752 184.898 249.312C184.674 249.856 184.562 250.536 184.562 251.352C184.562 252.12 184.666 252.76 184.874 253.272C185.082 253.768 185.378 254.152 185.762 254.424C186.146 254.68 186.602 254.808 187.13 254.808ZM209.214 258V239.856L212.166 239.352V245.544C212.47 245.432 212.822 245.336 213.222 245.256C213.638 245.176 213.998 245.136 214.302 245.136C215.566 245.136 216.55 245.384 217.254 245.88C217.974 246.36 218.478 247.032 218.766 247.896C219.07 248.744 219.222 249.744 219.222 250.896V258H216.246V251.352C216.246 250.488 216.174 249.8 216.03 249.288C215.886 248.76 215.654 248.376 215.334 248.136C215.03 247.88 214.59 247.752 214.014 247.752C213.662 247.752 213.31 247.792 212.958 247.872C212.622 247.952 212.358 248.024 212.166 248.088V258H209.214ZM227.587 258.336C226.435 258.336 225.419 258.056 224.539 257.496C223.659 256.936 222.971 256.16 222.475 255.168C221.979 254.16 221.731 253 221.731 251.688C221.731 250.36 221.979 249.208 222.475 248.232C222.987 247.24 223.683 246.472 224.563 245.928C225.459 245.368 226.467 245.088 227.587 245.088C228.755 245.088 229.779 245.368 230.659 245.928C231.539 246.472 232.227 247.24 232.723 248.232C233.219 249.208 233.467 250.36 233.467 251.688C233.467 253 233.219 254.16 232.723 255.168C232.227 256.16 231.539 256.936 230.659 257.496C229.795 258.056 228.771 258.336 227.587 258.336ZM227.563 255.72C228.171 255.72 228.683 255.552 229.099 255.216C229.531 254.88 229.859 254.416 230.083 253.824C230.307 253.216 230.419 252.512 230.419 251.712C230.419 250.912 230.307 250.208 230.083 249.6C229.875 248.992 229.563 248.528 229.147 248.208C228.731 247.872 228.211 247.704 227.587 247.704C226.995 247.704 226.483 247.872 226.051 248.208C225.635 248.528 225.315 248.992 225.091 249.6C224.867 250.208 224.755 250.912 224.755 251.712C224.755 252.512 224.859 253.216 225.067 253.824C225.291 254.416 225.611 254.88 226.027 255.216C226.443 255.552 226.955 255.72 227.563 255.72ZM241.041 258.288C239.697 258.288 238.657 258.04 237.921 257.544C237.185 257.032 236.673 256.336 236.385 255.456C236.097 254.576 235.953 253.576 235.953 252.456V245.424H238.929V252C238.929 252.832 239.001 253.528 239.145 254.088C239.289 254.632 239.529 255.032 239.865 255.288C240.217 255.544 240.681 255.672 241.257 255.672C241.561 255.672 241.873 255.656 242.193 255.624C242.529 255.592 242.801 255.56 243.009 255.528V245.424H246.009V257.592C245.433 257.736 244.713 257.888 243.849 258.048C243.001 258.208 242.065 258.288 241.041 258.288ZM250.271 258V246.192C251.151 245.872 252.047 245.624 252.959 245.448C253.887 245.256 254.927 245.16 256.079 245.16C256.367 245.16 256.735 245.176 257.183 245.208C257.631 245.24 258.095 245.288 258.575 245.352C259.055 245.416 259.495 245.512 259.895 245.64L259.367 248.376C259.063 248.296 258.711 248.224 258.311 248.16C257.927 248.096 257.551 248.048 257.183 248.016C256.815 247.984 256.479 247.968 256.175 247.968C255.695 247.968 255.215 248 254.735 248.064C254.255 248.112 253.767 248.2 253.271 248.328V258H250.271ZM267.276 258.288C266.604 258.288 265.988 258.232 265.428 258.12C264.868 258.024 264.356 257.904 263.892 257.76C263.444 257.6 263.044 257.448 262.692 257.304L263.196 254.76C263.804 255 264.46 255.232 265.164 255.456C265.884 255.664 266.62 255.768 267.372 255.768C268.236 255.768 268.892 255.696 269.34 255.552C269.804 255.392 270.036 255.104 270.036 254.688C270.036 254.352 269.9 254.08 269.628 253.872C269.372 253.648 269.036 253.456 268.62 253.296C268.204 253.136 267.748 252.976 267.252 252.816C266.772 252.672 266.276 252.504 265.764 252.312C265.268 252.12 264.812 251.88 264.396 251.592C263.98 251.304 263.644 250.944 263.388 250.512C263.132 250.08 263.004 249.552 263.004 248.928C263.004 248.224 263.188 247.584 263.556 247.008C263.924 246.416 264.5 245.952 265.284 245.616C266.068 245.264 267.076 245.088 268.308 245.088C269.092 245.088 269.836 245.152 270.54 245.28C271.26 245.392 271.876 245.552 272.388 245.76L271.908 248.328C271.716 248.248 271.436 248.152 271.068 248.04C270.7 247.928 270.276 247.832 269.796 247.752C269.332 247.656 268.844 247.608 268.332 247.608C267.452 247.608 266.836 247.72 266.484 247.944C266.132 248.152 265.956 248.424 265.956 248.76C265.956 249.032 266.076 249.272 266.316 249.48C266.556 249.688 266.868 249.872 267.252 250.032C267.652 250.176 268.084 250.328 268.548 250.488C269.044 250.664 269.548 250.856 270.06 251.064C270.588 251.272 271.068 251.528 271.5 251.832C271.948 252.12 272.3 252.488 272.556 252.936C272.828 253.368 272.964 253.912 272.964 254.568C272.964 255.288 272.78 255.928 272.412 256.488C272.044 257.048 271.444 257.488 270.612 257.808C269.78 258.128 268.668 258.288 267.276 258.288Z" fill="#343434"/>
<path d="M101.92 304V287.368H111.88V289.84H104.896V294.232H111.016V296.704H104.896V304H101.92ZM122.454 304.288C121.334 304.288 120.454 304.08 119.814 303.664C119.174 303.232 118.718 302.616 118.446 301.816C118.19 301.016 118.062 300.04 118.062 298.888V293.896H114.534V291.424H121.038V299.2C121.038 299.792 121.102 300.272 121.23 300.64C121.374 300.992 121.582 301.256 121.854 301.432C122.142 301.592 122.502 301.672 122.934 301.672C123.286 301.672 123.678 301.632 124.11 301.552C124.542 301.456 124.99 301.296 125.454 301.072L125.838 303.496C125.486 303.672 125.118 303.824 124.734 303.952C124.366 304.064 123.982 304.144 123.582 304.192C123.198 304.256 122.822 304.288 122.454 304.288ZM119.094 289.528C118.566 289.528 118.102 289.344 117.702 288.976C117.318 288.608 117.126 288.12 117.126 287.512C117.126 286.888 117.318 286.4 117.702 286.048C118.102 285.68 118.566 285.496 119.094 285.496C119.638 285.496 120.102 285.68 120.486 286.048C120.886 286.4 121.086 286.888 121.086 287.512C121.086 288.12 120.886 288.608 120.486 288.976C120.102 289.344 119.638 289.528 119.094 289.528ZM128.635 304V291.784C129.275 291.608 130.019 291.456 130.867 291.328C131.731 291.2 132.619 291.136 133.531 291.136C134.811 291.136 135.819 291.368 136.555 291.832C137.307 292.28 137.843 292.928 138.163 293.776C138.483 294.608 138.643 295.624 138.643 296.824V304H135.667V297.232C135.667 296.368 135.587 295.688 135.427 295.192C135.283 294.68 135.035 294.312 134.683 294.088C134.347 293.864 133.899 293.752 133.339 293.752C133.067 293.752 132.779 293.768 132.475 293.8C132.187 293.832 131.891 293.864 131.587 293.896V304H128.635ZM146.913 304.288C146.145 304.288 145.433 304.216 144.777 304.072C144.137 303.944 143.577 303.728 143.097 303.424C142.617 303.104 142.241 302.68 141.969 302.152C141.713 301.608 141.585 300.952 141.585 300.184C141.585 299.192 141.833 298.416 142.329 297.856C142.841 297.296 143.497 296.896 144.297 296.656C145.097 296.4 145.945 296.272 146.841 296.272C147.289 296.272 147.705 296.296 148.089 296.344C148.489 296.376 148.857 296.432 149.193 296.512V296.032C149.193 295.6 149.105 295.2 148.929 294.832C148.769 294.464 148.489 294.168 148.089 293.944C147.689 293.72 147.145 293.608 146.457 293.608C145.785 293.608 145.161 293.656 144.585 293.752C144.009 293.848 143.553 293.96 143.217 294.088L142.809 291.664C143.177 291.52 143.729 291.392 144.465 291.28C145.217 291.152 145.993 291.088 146.793 291.088C148.137 291.088 149.193 291.296 149.961 291.712C150.729 292.128 151.273 292.712 151.593 293.464C151.913 294.216 152.073 295.104 152.073 296.128V303.736C151.577 303.848 150.865 303.968 149.937 304.096C149.025 304.224 148.017 304.288 146.913 304.288ZM147.081 301.864C147.481 301.864 147.865 301.856 148.233 301.84C148.617 301.808 148.937 301.776 149.193 301.744V298.6C148.969 298.568 148.689 298.536 148.353 298.504C148.017 298.456 147.697 298.432 147.393 298.432C146.897 298.432 146.433 298.48 146.001 298.576C145.569 298.672 145.217 298.84 144.945 299.08C144.673 299.304 144.537 299.648 144.537 300.112C144.537 300.736 144.769 301.184 145.233 301.456C145.697 301.728 146.313 301.864 147.081 301.864ZM155.495 304V291.784C156.135 291.608 156.879 291.456 157.727 291.328C158.591 291.2 159.479 291.136 160.391 291.136C161.671 291.136 162.679 291.368 163.415 291.832C164.167 292.28 164.703 292.928 165.023 293.776C165.343 294.608 165.503 295.624 165.503 296.824V304H162.527V297.232C162.527 296.368 162.447 295.688 162.287 295.192C162.143 294.68 161.895 294.312 161.543 294.088C161.207 293.864 160.759 293.752 160.199 293.752C159.927 293.752 159.639 293.768 159.335 293.8C159.047 293.832 158.751 293.864 158.447 293.896V304H155.495ZM175.524 304.288C173.908 304.288 172.572 304.008 171.516 303.448C170.476 302.888 169.692 302.12 169.164 301.144C168.636 300.152 168.372 299.008 168.372 297.712C168.372 296.736 168.524 295.848 168.828 295.048C169.132 294.232 169.588 293.528 170.196 292.936C170.804 292.344 171.548 291.888 172.428 291.568C173.324 291.248 174.348 291.088 175.5 291.088C176.22 291.088 176.876 291.144 177.468 291.256C178.076 291.352 178.7 291.52 179.34 291.76L178.692 294.184C178.276 294.04 177.836 293.928 177.372 293.848C176.924 293.752 176.38 293.704 175.74 293.704C174.748 293.704 173.932 293.864 173.292 294.184C172.652 294.504 172.172 294.96 171.852 295.552C171.548 296.144 171.396 296.864 171.396 297.712C171.396 298.56 171.556 299.28 171.876 299.872C172.212 300.448 172.708 300.896 173.364 301.216C174.036 301.52 174.876 301.672 175.884 301.672C176.412 301.672 176.956 301.64 177.516 301.576C178.092 301.496 178.628 301.368 179.124 301.192L179.556 303.664C179.22 303.792 178.844 303.904 178.428 304C178.028 304.08 177.588 304.144 177.108 304.192C176.628 304.256 176.1 304.288 175.524 304.288ZM188.282 304.288C186.858 304.288 185.634 304.032 184.61 303.52C183.602 303.008 182.826 302.272 182.282 301.312C181.754 300.336 181.49 299.16 181.49 297.784C181.49 296.664 181.65 295.688 181.97 294.856C182.306 294.024 182.754 293.328 183.314 292.768C183.89 292.208 184.53 291.792 185.234 291.52C185.938 291.232 186.666 291.088 187.418 291.088C188.634 291.088 189.65 291.336 190.466 291.832C191.298 292.312 191.93 293.032 192.362 293.992C192.794 294.936 193.01 296.12 193.01 297.544C193.01 297.72 193.002 297.912 192.986 298.12C192.986 298.328 192.978 298.504 192.962 298.648H184.538C184.57 299.608 184.938 300.352 185.642 300.88C186.346 301.408 187.282 301.672 188.45 301.672C189.138 301.672 189.778 301.608 190.37 301.48C190.978 301.336 191.466 301.2 191.834 301.072L192.242 303.592C191.762 303.784 191.186 303.944 190.514 304.072C189.858 304.216 189.114 304.288 188.282 304.288ZM184.562 296.488H190.082C190.082 295.96 189.986 295.48 189.794 295.048C189.618 294.616 189.33 294.272 188.93 294.016C188.546 293.744 188.058 293.608 187.466 293.608C186.858 293.608 186.346 293.744 185.93 294.016C185.53 294.288 185.218 294.648 184.994 295.096C184.77 295.528 184.626 295.992 184.562 296.488ZM212.766 304.216C211.758 304.216 210.902 304.008 210.198 303.592C209.51 303.16 208.982 302.608 208.614 301.936C208.262 301.248 208.086 300.504 208.086 299.704C208.086 299.128 208.182 298.568 208.374 298.024C208.566 297.48 208.862 296.96 209.262 296.464C209.662 295.968 210.158 295.528 210.75 295.144C210.302 294.52 209.942 293.888 209.67 293.248C209.398 292.608 209.262 291.936 209.262 291.232C209.262 290.272 209.462 289.48 209.862 288.856C210.278 288.232 210.806 287.768 211.446 287.464C212.102 287.144 212.782 286.984 213.486 286.984C214.158 286.984 214.79 287.128 215.382 287.416C215.99 287.688 216.478 288.096 216.846 288.64C217.23 289.184 217.422 289.856 217.422 290.656C217.422 291.232 217.302 291.808 217.062 292.384C216.838 292.944 216.486 293.48 216.006 293.992C215.526 294.488 214.91 294.944 214.158 295.36C214.478 295.728 214.774 296.08 215.046 296.416C215.334 296.736 215.606 297.04 215.862 297.328C216.134 297.616 216.398 297.912 216.654 298.216C216.798 297.752 216.902 297.248 216.966 296.704C217.046 296.144 217.102 295.536 217.134 294.88L219.606 295.192C219.558 296.184 219.414 297.112 219.174 297.976C218.95 298.824 218.662 299.592 218.31 300.28C218.726 300.856 219.11 301.456 219.462 302.08C219.83 302.704 220.118 303.344 220.326 304H217.422C217.31 303.744 217.19 303.488 217.062 303.232C216.934 302.96 216.798 302.704 216.654 302.464C216.078 303.056 215.454 303.496 214.782 303.784C214.11 304.072 213.438 304.216 212.766 304.216ZM212.886 301.912C213.318 301.912 213.75 301.816 214.182 301.624C214.63 301.416 215.038 301.088 215.406 300.64C214.894 299.968 214.35 299.32 213.773 298.696C213.198 298.072 212.646 297.456 212.118 296.848C211.846 297.072 211.598 297.32 211.374 297.592C211.166 297.864 211.006 298.168 210.894 298.504C210.782 298.824 210.726 299.168 210.726 299.536C210.726 300.192 210.902 300.752 211.254 301.216C211.622 301.68 212.166 301.912 212.886 301.912ZM212.886 293.752C213.334 293.48 213.694 293.176 213.966 292.84C214.254 292.504 214.47 292.16 214.614 291.808C214.758 291.44 214.83 291.088 214.83 290.752C214.83 290.4 214.766 290.112 214.638 289.888C214.526 289.648 214.366 289.472 214.158 289.36C213.966 289.248 213.742 289.192 213.486 289.192C213.022 289.192 212.63 289.352 212.31 289.672C212.006 289.992 211.854 290.464 211.854 291.088C211.854 291.376 211.886 291.656 211.95 291.928C212.03 292.2 212.15 292.488 212.31 292.792C212.47 293.096 212.662 293.416 212.886 293.752ZM100.696 333C100.744 331.64 100.8 330.232 100.864 328.776C100.928 327.32 101 325.872 101.08 324.432C101.16 322.976 101.248 321.568 101.344 320.208C101.456 318.832 101.584 317.552 101.728 316.368H104.272C104.48 316.992 104.72 317.744 104.992 318.624C105.264 319.504 105.544 320.416 105.832 321.36C106.136 322.288 106.424 323.168 106.696 324C107 323.088 107.296 322.168 107.584 321.24C107.872 320.312 108.152 319.424 108.424 318.576C108.712 317.728 108.96 316.992 109.168 316.368H111.712C111.904 318.24 112.064 320.088 112.192 321.912C112.336 323.72 112.448 325.536 112.528 327.36C112.624 329.184 112.696 331.064 112.744 333H109.984C109.984 331.608 109.984 330.176 109.984 328.704C109.984 327.232 109.984 325.744 109.984 324.24C110 322.736 110 321.248 109.984 319.776L107.848 327H105.568L103.456 319.776C103.472 321.232 103.472 322.72 103.456 324.24C103.456 325.744 103.456 327.232 103.456 328.704C103.456 330.176 103.456 331.608 103.456 333H100.696ZM121.134 333.288C119.71 333.288 118.486 333.032 117.462 332.52C116.454 332.008 115.678 331.272 115.134 330.312C114.606 329.336 114.342 328.16 114.342 326.784C114.342 325.664 114.502 324.688 114.822 323.856C115.158 323.024 115.606 322.328 116.166 321.768C116.742 321.208 117.382 320.792 118.086 320.52C118.79 320.232 119.518 320.088 120.27 320.088C121.486 320.088 122.502 320.336 123.318 320.832C124.15 321.312 124.782 322.032 125.214 322.992C125.646 323.936 125.862 325.12 125.862 326.544C125.862 326.72 125.854 326.912 125.838 327.12C125.838 327.328 125.83 327.504 125.814 327.648H117.39C117.422 328.608 117.79 329.352 118.494 329.88C119.198 330.408 120.134 330.672 121.302 330.672C121.99 330.672 122.63 330.608 123.222 330.48C123.83 330.336 124.318 330.2 124.686 330.072L125.094 332.592C124.614 332.784 124.038 332.944 123.366 333.072C122.71 333.216 121.966 333.288 121.134 333.288ZM117.414 325.488H122.934C122.934 324.96 122.838 324.48 122.646 324.048C122.47 323.616 122.182 323.272 121.782 323.016C121.398 322.744 120.91 322.608 120.318 322.608C119.71 322.608 119.198 322.744 118.782 323.016C118.382 323.288 118.07 323.648 117.846 324.096C117.622 324.528 117.478 324.992 117.414 325.488ZM128.635 333V320.784C129.275 320.608 130.019 320.456 130.867 320.328C131.731 320.2 132.619 320.136 133.531 320.136C134.811 320.136 135.819 320.368 136.555 320.832C137.307 321.28 137.843 321.928 138.163 322.776C138.483 323.608 138.643 324.624 138.643 325.824V333H135.667V326.232C135.667 325.368 135.587 324.688 135.427 324.192C135.283 323.68 135.035 323.312 134.683 323.088C134.347 322.864 133.899 322.752 133.339 322.752C133.067 322.752 132.779 322.768 132.475 322.8C132.187 322.832 131.891 322.864 131.587 322.896V333H128.635ZM149.025 333.288C147.937 333.288 147.041 333.152 146.337 332.88C145.633 332.592 145.113 332.08 144.777 331.344C144.441 330.608 144.273 329.584 144.273 328.272V322.896H141.465V320.424H144.273V317.136L147.249 316.656V320.424H152.553V322.896H147.249V328.224C147.249 328.896 147.329 329.408 147.489 329.76C147.649 330.112 147.881 330.352 148.185 330.48C148.505 330.608 148.889 330.672 149.337 330.672C149.961 330.672 150.489 330.632 150.921 330.552C151.353 330.456 151.841 330.28 152.385 330.024L152.817 332.592C152.321 332.8 151.737 332.968 151.065 333.096C150.393 333.224 149.713 333.288 149.025 333.288ZM160.343 333.288C159.575 333.288 158.863 333.216 158.207 333.072C157.567 332.944 157.007 332.728 156.527 332.424C156.047 332.104 155.671 331.68 155.399 331.152C155.143 330.608 155.015 329.952 155.015 329.184C155.015 328.192 155.263 327.416 155.759 326.856C156.271 326.296 156.927 325.896 157.727 325.656C158.527 325.4 159.375 325.272 160.271 325.272C160.719 325.272 161.135 325.296 161.519 325.344C161.919 325.376 162.287 325.432 162.623 325.512V325.032C162.623 324.6 162.535 324.2 162.359 323.832C162.199 323.464 161.919 323.168 161.519 322.944C161.119 322.72 160.575 322.608 159.887 322.608C159.215 322.608 158.591 322.656 158.015 322.752C157.439 322.848 156.983 322.96 156.647 323.088L156.239 320.664C156.607 320.52 157.159 320.392 157.895 320.28C158.647 320.152 159.423 320.088 160.223 320.088C161.567 320.088 162.623 320.296 163.391 320.712C164.159 321.128 164.703 321.712 165.023 322.464C165.343 323.216 165.503 324.104 165.503 325.128V332.736C165.007 332.848 164.295 332.968 163.367 333.096C162.455 333.224 161.447 333.288 160.343 333.288ZM160.511 330.864C160.911 330.864 161.295 330.856 161.663 330.84C162.047 330.808 162.367 330.776 162.623 330.744V327.6C162.399 327.568 162.119 327.536 161.783 327.504C161.447 327.456 161.127 327.432 160.823 327.432C160.327 327.432 159.863 327.48 159.431 327.576C158.999 327.672 158.647 327.84 158.375 328.08C158.103 328.304 157.967 328.648 157.967 329.112C157.967 329.736 158.199 330.184 158.663 330.456C159.127 330.728 159.743 330.864 160.511 330.864ZM176.052 333.288C175.028 333.288 174.204 333.088 173.58 332.688C172.956 332.288 172.5 331.696 172.212 330.912C171.924 330.128 171.78 329.176 171.78 328.056V316.992H168.252V314.496H174.756V328.224C174.756 328.864 174.836 329.36 174.996 329.712C175.156 330.064 175.372 330.312 175.644 330.456C175.932 330.6 176.26 330.672 176.628 330.672C177.252 330.672 177.788 330.592 178.236 330.432C178.684 330.272 178.996 330.152 179.172 330.072L179.556 332.496C179.428 332.576 179.06 332.728 178.452 332.952C177.844 333.176 177.044 333.288 176.052 333.288ZM195.784 333V314.856L198.736 314.352V320.544C199.04 320.432 199.392 320.336 199.792 320.256C200.208 320.176 200.568 320.136 200.872 320.136C202.136 320.136 203.12 320.384 203.824 320.88C204.544 321.36 205.048 322.032 205.336 322.896C205.64 323.744 205.792 324.744 205.792 325.896V333H202.816V326.352C202.816 325.488 202.744 324.8 202.6 324.288C202.456 323.76 202.224 323.376 201.904 323.136C201.6 322.88 201.16 322.752 200.584 322.752C200.232 322.752 199.88 322.792 199.528 322.872C199.192 322.952 198.928 323.024 198.736 323.088V333H195.784ZM215.142 333.288C213.718 333.288 212.494 333.032 211.47 332.52C210.462 332.008 209.686 331.272 209.142 330.312C208.614 329.336 208.35 328.16 208.35 326.784C208.35 325.664 208.51 324.688 208.83 323.856C209.166 323.024 209.614 322.328 210.174 321.768C210.75 321.208 211.39 320.792 212.094 320.52C212.798 320.232 213.526 320.088 214.278 320.088C215.494 320.088 216.51 320.336 217.326 320.832C218.158 321.312 218.79 322.032 219.222 322.992C219.654 323.936 219.87 325.12 219.87 326.544C219.87 326.72 219.862 326.912 219.846 327.12C219.846 327.328 219.838 327.504 219.822 327.648H211.398C211.43 328.608 211.798 329.352 212.502 329.88C213.206 330.408 214.142 330.672 215.31 330.672C215.998 330.672 216.638 330.608 217.23 330.48C217.838 330.336 218.326 330.2 218.694 330.072L219.102 332.592C218.622 332.784 218.046 332.944 217.374 333.072C216.718 333.216 215.974 333.288 215.142 333.288ZM211.422 325.488H216.942C216.942 324.96 216.846 324.48 216.654 324.048C216.478 323.616 216.19 323.272 215.79 323.016C215.406 322.744 214.918 322.608 214.326 322.608C213.718 322.608 213.206 322.744 212.79 323.016C212.39 323.288 212.078 323.648 211.854 324.096C211.63 324.528 211.486 324.992 211.422 325.488ZM227.491 333.288C226.723 333.288 226.011 333.216 225.355 333.072C224.715 332.944 224.155 332.728 223.675 332.424C223.195 332.104 222.819 331.68 222.547 331.152C222.291 330.608 222.163 329.952 222.163 329.184C222.163 328.192 222.411 327.416 222.907 326.856C223.419 326.296 224.075 325.896 224.875 325.656C225.675 325.4 226.523 325.272 227.419 325.272C227.867 325.272 228.283 325.296 228.667 325.344C229.067 325.376 229.435 325.432 229.771 325.512V325.032C229.771 324.6 229.683 324.2 229.507 323.832C229.347 323.464 229.067 323.168 228.667 322.944C228.267 322.72 227.723 322.608 227.035 322.608C226.363 322.608 225.739 322.656 225.163 322.752C224.587 322.848 224.131 322.96 223.795 323.088L223.387 320.664C223.755 320.52 224.307 320.392 225.043 320.28C225.795 320.152 226.571 320.088 227.371 320.088C228.715 320.088 229.771 320.296 230.539 320.712C231.307 321.128 231.851 321.712 232.171 322.464C232.491 323.216 232.651 324.104 232.651 325.128V332.736C232.155 332.848 231.443 332.968 230.515 333.096C229.603 333.224 228.595 333.288 227.491 333.288ZM227.659 330.864C228.059 330.864 228.443 330.856 228.811 330.84C229.195 330.808 229.515 330.776 229.771 330.744V327.6C229.547 327.568 229.267 327.536 228.931 327.504C228.595 327.456 228.275 327.432 227.971 327.432C227.475 327.432 227.011 327.48 226.579 327.576C226.147 327.672 225.795 327.84 225.523 328.08C225.251 328.304 225.115 328.648 225.115 329.112C225.115 329.736 225.347 330.184 225.811 330.456C226.275 330.728 226.891 330.864 227.659 330.864ZM243.201 333.288C242.177 333.288 241.353 333.088 240.729 332.688C240.105 332.288 239.649 331.696 239.361 330.912C239.073 330.128 238.929 329.176 238.929 328.056V316.992H235.401V314.496H241.905V328.224C241.905 328.864 241.985 329.36 242.145 329.712C242.305 330.064 242.521 330.312 242.793 330.456C243.081 330.6 243.409 330.672 243.777 330.672C244.401 330.672 244.937 330.592 245.385 330.432C245.833 330.272 246.145 330.152 246.321 330.072L246.705 332.496C246.577 332.576 246.209 332.728 245.601 332.952C244.993 333.176 244.193 333.288 243.201 333.288ZM256.463 333.288C255.375 333.288 254.479 333.152 253.775 332.88C253.071 332.592 252.551 332.08 252.215 331.344C251.879 330.608 251.711 329.584 251.711 328.272V322.896H248.903V320.424H251.711V317.136L254.687 316.656V320.424H259.991V322.896H254.687V328.224C254.687 328.896 254.767 329.408 254.927 329.76C255.087 330.112 255.319 330.352 255.623 330.48C255.943 330.608 256.327 330.672 256.775 330.672C257.399 330.672 257.927 330.632 258.359 330.552C258.791 330.456 259.279 330.28 259.823 330.024L260.255 332.592C259.759 332.8 259.175 332.968 258.503 333.096C257.831 333.224 257.151 333.288 256.463 333.288ZM262.932 333V314.856L265.884 314.352V320.544C266.188 320.432 266.54 320.336 266.94 320.256C267.356 320.176 267.716 320.136 268.02 320.136C269.284 320.136 270.268 320.384 270.972 320.88C271.692 321.36 272.196 322.032 272.484 322.896C272.788 323.744 272.94 324.744 272.94 325.896V333H269.964V326.352C269.964 325.488 269.892 324.8 269.748 324.288C269.604 323.76 269.372 323.376 269.052 323.136C268.748 322.88 268.308 322.752 267.732 322.752C267.38 322.752 267.028 322.792 266.676 322.872C266.34 322.952 266.076 323.024 265.884 323.088V333H262.932Z" fill="#343434"/>
</svg>
