<svg width="500" height="79" viewBox="0 0 500 79" fill="none" xmlns="http://www.w3.org/2000/svg">
<rect x="1" y="1" width="498" height="77" rx="14" stroke="#343434" stroke-width="2"/>
<path d="M68.6 51C67.8747 49.784 67.064 48.4827 66.168 47.096C65.272 45.688 64.344 44.28 63.384 42.872C62.424 41.4427 61.4427 40.0667 60.44 38.744C59.4587 37.4 58.52 36.1947 57.624 35.128V51H53.656V28.824H56.952C57.8053 29.72 58.7227 30.7867 59.704 32.024C60.6853 33.24 61.6667 34.5093 62.648 35.832C63.6507 37.1547 64.6107 38.488 65.528 39.832C66.4667 41.1547 67.2987 42.392 68.024 43.544V28.824H72.024V51H68.6ZM76.2235 42.712C76.2235 41.24 76.4368 39.9493 76.8635 38.84C77.3115 37.7307 77.8982 36.8133 78.6235 36.088C79.3488 35.3413 80.1808 34.7867 81.1195 34.424C82.0582 34.04 83.0182 33.848 83.9995 33.848C86.3035 33.848 88.0955 34.5627 89.3755 35.992C90.6768 37.4213 91.3275 39.5547 91.3275 42.392C91.3275 42.6053 91.3168 42.8507 91.2955 43.128C91.2955 43.384 91.2848 43.6187 91.2635 43.832H80.2235C80.3302 45.176 80.7995 46.2213 81.6315 46.968C82.4848 47.6933 83.7115 48.056 85.3115 48.056C86.2502 48.056 87.1035 47.9707 87.8715 47.8C88.6608 47.6293 89.2795 47.448 89.7275 47.256L90.2395 50.424C90.0262 50.5307 89.7275 50.648 89.3435 50.776C88.9808 50.8827 88.5542 50.9787 88.0635 51.064C87.5942 51.1707 87.0822 51.256 86.5275 51.32C85.9728 51.384 85.4075 51.416 84.8315 51.416C83.3595 51.416 82.0795 51.2027 80.9915 50.776C79.9035 50.328 79.0075 49.72 78.3035 48.952C77.5995 48.1627 77.0768 47.2453 76.7355 46.2C76.3942 45.1333 76.2235 43.9707 76.2235 42.712ZM87.4555 40.984C87.4555 40.4507 87.3808 39.9493 87.2315 39.48C87.0822 38.9893 86.8582 38.5733 86.5595 38.232C86.2822 37.8693 85.9302 37.592 85.5035 37.4C85.0982 37.1867 84.6075 37.08 84.0315 37.08C83.4342 37.08 82.9115 37.1973 82.4635 37.432C82.0155 37.6453 81.6315 37.9333 81.3115 38.296C81.0128 38.6587 80.7782 39.0747 80.6075 39.544C80.4368 40.0133 80.3195 40.4933 80.2555 40.984H87.4555ZM101.449 39.736L105.001 34.264H109.065L103.561 42.168C104.713 43.6613 105.811 45.176 106.857 46.712C107.923 48.2267 108.798 49.656 109.481 51H105.289C105.097 50.5947 104.841 50.136 104.521 49.624C104.222 49.0907 103.891 48.5467 103.529 47.992C103.187 47.416 102.825 46.8507 102.441 46.296C102.057 45.7413 101.683 45.2187 101.321 44.728C100.574 45.688 99.8381 46.7547 99.1128 47.928C98.4088 49.08 97.8221 50.104 97.3528 51H93.3848C93.7048 50.36 94.0888 49.6773 94.5368 48.952C94.9848 48.2267 95.4648 47.4907 95.9768 46.744C96.4888 45.976 97.0114 45.2187 97.5448 44.472C98.0994 43.704 98.6434 42.9787 99.1768 42.296L93.6408 34.264H97.8968L101.449 39.736ZM112.178 29.848L116.05 29.208V34.264H122.002V37.496H116.05V44.312C116.05 45.656 116.264 46.616 116.69 47.192C117.117 47.768 117.842 48.056 118.866 48.056C119.57 48.056 120.189 47.9813 120.722 47.832C121.277 47.6827 121.714 47.544 122.034 47.416L122.674 50.488C122.226 50.68 121.64 50.872 120.914 51.064C120.189 51.2773 119.336 51.384 118.354 51.384C117.16 51.384 116.157 51.224 115.346 50.904C114.557 50.584 113.928 50.1253 113.458 49.528C112.989 48.9093 112.658 48.1733 112.466 47.32C112.274 46.4453 112.178 45.4533 112.178 44.344V29.848ZM143.262 51.48C141.598 51.48 140.105 51.224 138.782 50.712C137.459 50.2 136.339 49.4533 135.422 48.472C134.505 47.4693 133.801 46.2533 133.31 44.824C132.819 43.3947 132.574 41.752 132.574 39.896C132.574 38.04 132.851 36.3973 133.406 34.968C133.982 33.5387 134.761 32.3333 135.742 31.352C136.723 30.3493 137.875 29.592 139.198 29.08C140.521 28.568 141.939 28.312 143.454 28.312C144.371 28.312 145.203 28.3867 145.95 28.536C146.697 28.664 147.347 28.8133 147.902 28.984C148.457 29.1547 148.915 29.336 149.278 29.528C149.641 29.72 149.897 29.8587 150.046 29.944L148.862 33.24C148.35 32.92 147.614 32.6213 146.654 32.344C145.715 32.0453 144.691 31.896 143.582 31.896C142.622 31.896 141.726 32.0667 140.894 32.408C140.062 32.728 139.337 33.2187 138.718 33.88C138.121 34.5413 137.651 35.3733 137.31 36.376C136.969 37.3787 136.798 38.5413 136.798 39.864C136.798 41.0373 136.926 42.1147 137.182 43.096C137.459 44.0773 137.875 44.9307 138.43 45.656C138.985 46.36 139.689 46.9147 140.542 47.32C141.395 47.704 142.419 47.896 143.614 47.896C145.043 47.896 146.206 47.7573 147.102 47.48C147.998 47.1813 148.691 46.904 149.182 46.648L150.27 49.944C150.014 50.1147 149.662 50.2853 149.214 50.456C148.787 50.6267 148.275 50.7973 147.678 50.968C147.081 51.1173 146.409 51.2347 145.662 51.32C144.915 51.4267 144.115 51.48 143.262 51.48ZM159.508 48.28C160.703 48.28 161.61 48.216 162.228 48.088V43.8C162.015 43.736 161.706 43.672 161.3 43.608C160.895 43.544 160.447 43.512 159.956 43.512C159.53 43.512 159.092 43.544 158.644 43.608C158.218 43.672 157.823 43.7893 157.46 43.96C157.119 44.1307 156.842 44.376 156.628 44.696C156.415 44.9947 156.308 45.3787 156.308 45.848C156.308 46.7653 156.596 47.4053 157.172 47.768C157.748 48.1093 158.527 48.28 159.508 48.28ZM159.188 33.848C160.468 33.848 161.546 34.008 162.42 34.328C163.295 34.648 163.988 35.096 164.5 35.672C165.034 36.248 165.407 36.952 165.62 37.784C165.855 38.5947 165.972 39.4907 165.972 40.472V50.616C165.375 50.744 164.468 50.8933 163.252 51.064C162.058 51.256 160.703 51.352 159.188 51.352C158.186 51.352 157.268 51.256 156.436 51.064C155.604 50.872 154.89 50.5627 154.292 50.136C153.716 49.7093 153.258 49.1547 152.916 48.472C152.596 47.7893 152.436 46.9467 152.436 45.944C152.436 44.984 152.618 44.1733 152.98 43.512C153.364 42.8507 153.876 42.3173 154.516 41.912C155.156 41.4853 155.892 41.1867 156.724 41.016C157.578 40.824 158.463 40.728 159.38 40.728C159.807 40.728 160.255 40.76 160.724 40.824C161.194 40.8667 161.695 40.952 162.228 41.08V40.44C162.228 39.992 162.175 39.5653 162.068 39.16C161.962 38.7547 161.77 38.4027 161.492 38.104C161.236 37.784 160.884 37.5387 160.436 37.368C160.01 37.1973 159.466 37.112 158.804 37.112C157.908 37.112 157.087 37.176 156.34 37.304C155.594 37.432 154.986 37.5813 154.516 37.752L154.036 34.616C154.527 34.4453 155.242 34.2747 156.18 34.104C157.119 33.9333 158.122 33.848 159.188 33.848ZM180.25 37.752C179.93 37.6453 179.482 37.5387 178.906 37.432C178.351 37.304 177.701 37.24 176.954 37.24C176.527 37.24 176.069 37.2827 175.578 37.368C175.109 37.4533 174.778 37.528 174.586 37.592V51H170.714V35.064C171.461 34.7867 172.389 34.5307 173.498 34.296C174.629 34.04 175.877 33.912 177.242 33.912C177.498 33.912 177.797 33.9333 178.138 33.976C178.479 33.9973 178.821 34.04 179.162 34.104C179.503 34.1467 179.834 34.2107 180.154 34.296C180.474 34.36 180.73 34.424 180.922 34.488L180.25 37.752ZM182.692 42.712C182.692 41.24 182.906 39.9493 183.332 38.84C183.78 37.7307 184.367 36.8133 185.092 36.088C185.818 35.3413 186.65 34.7867 187.588 34.424C188.527 34.04 189.487 33.848 190.468 33.848C192.772 33.848 194.564 34.5627 195.844 35.992C197.146 37.4213 197.796 39.5547 197.796 42.392C197.796 42.6053 197.786 42.8507 197.764 43.128C197.764 43.384 197.754 43.6187 197.732 43.832H186.692C186.799 45.176 187.268 46.2213 188.1 46.968C188.954 47.6933 190.18 48.056 191.78 48.056C192.719 48.056 193.572 47.9707 194.34 47.8C195.13 47.6293 195.748 47.448 196.196 47.256L196.708 50.424C196.495 50.5307 196.196 50.648 195.812 50.776C195.45 50.8827 195.023 50.9787 194.532 51.064C194.063 51.1707 193.551 51.256 192.996 51.32C192.442 51.384 191.876 51.416 191.3 51.416C189.828 51.416 188.548 51.2027 187.46 50.776C186.372 50.328 185.476 49.72 184.772 48.952C184.068 48.1627 183.546 47.2453 183.204 46.2C182.863 45.1333 182.692 43.9707 182.692 42.712ZM193.924 40.984C193.924 40.4507 193.85 39.9493 193.7 39.48C193.551 38.9893 193.327 38.5733 193.028 38.232C192.751 37.8693 192.399 37.592 191.972 37.4C191.567 37.1867 191.076 37.08 190.5 37.08C189.903 37.08 189.38 37.1973 188.932 37.432C188.484 37.6453 188.1 37.9333 187.78 38.296C187.482 38.6587 187.247 39.0747 187.076 39.544C186.906 40.0133 186.788 40.4933 186.724 40.984H193.924ZM204.942 42.2C204.942 43.8427 205.294 45.048 205.998 45.816C206.723 46.5627 207.651 46.936 208.782 46.936C209.4 46.936 209.976 46.8507 210.51 46.68C211.064 46.5093 211.512 46.3067 211.854 46.072V37.4C211.576 37.336 211.235 37.2827 210.83 37.24C210.424 37.176 209.912 37.144 209.294 37.144C207.886 37.144 206.808 37.6133 206.062 38.552C205.315 39.4693 204.942 40.6853 204.942 42.2ZM215.726 49.304C215.726 51.9707 215.043 53.9227 213.678 55.16C212.334 56.3973 210.264 57.016 207.47 57.016C206.446 57.016 205.443 56.9307 204.462 56.76C203.502 56.5893 202.627 56.3653 201.838 56.088L202.542 52.792C203.203 53.0693 203.95 53.2933 204.782 53.464C205.635 53.6347 206.552 53.72 207.534 53.72C209.091 53.72 210.2 53.4 210.862 52.76C211.523 52.12 211.854 51.1707 211.854 49.912V49.272C211.47 49.464 210.958 49.656 210.318 49.848C209.699 50.04 208.984 50.136 208.174 50.136C207.107 50.136 206.126 49.9653 205.23 49.624C204.355 49.2827 203.598 48.7813 202.958 48.12C202.339 47.4587 201.848 46.6373 201.486 45.656C201.144 44.6533 200.974 43.5013 200.974 42.2C200.974 40.984 201.155 39.864 201.518 38.84C201.902 37.816 202.446 36.9413 203.15 36.216C203.875 35.4907 204.75 34.9253 205.774 34.52C206.798 34.1147 207.96 33.912 209.262 33.912C210.52 33.912 211.715 34.008 212.846 34.2C213.976 34.392 214.936 34.5947 215.726 34.808V49.304ZM224.556 51H220.684V34.264H224.556V51ZM224.972 29.368C224.972 30.0933 224.737 30.6693 224.268 31.096C223.798 31.5227 223.244 31.736 222.604 31.736C221.942 31.736 221.377 31.5227 220.908 31.096C220.438 30.6693 220.204 30.0933 220.204 29.368C220.204 28.6213 220.438 28.0347 220.908 27.608C221.377 27.1813 221.942 26.968 222.604 26.968C223.244 26.968 223.798 27.1813 224.268 27.608C224.737 28.0347 224.972 28.6213 224.972 29.368ZM233.783 51C232.717 48.8027 231.618 46.2853 230.487 43.448C229.378 40.5893 228.365 37.528 227.447 34.264H231.575C231.81 35.2027 232.077 36.216 232.375 37.304C232.695 38.3707 233.026 39.448 233.367 40.536C233.73 41.6027 234.093 42.648 234.455 43.672C234.839 44.6747 235.191 45.5813 235.511 46.392C235.831 45.5813 236.173 44.6747 236.535 43.672C236.898 42.648 237.25 41.6027 237.591 40.536C237.954 39.448 238.295 38.3707 238.615 37.304C238.935 36.216 239.213 35.2027 239.447 34.264H243.447C242.53 37.528 241.506 40.5893 240.375 43.448C239.266 46.2853 238.178 48.8027 237.111 51H233.783ZM245.036 42.712C245.036 41.24 245.249 39.9493 245.676 38.84C246.124 37.7307 246.711 36.8133 247.436 36.088C248.161 35.3413 248.993 34.7867 249.932 34.424C250.871 34.04 251.831 33.848 252.812 33.848C255.116 33.848 256.908 34.5627 258.188 35.992C259.489 37.4213 260.14 39.5547 260.14 42.392C260.14 42.6053 260.129 42.8507 260.108 43.128C260.108 43.384 260.097 43.6187 260.076 43.832H249.036C249.143 45.176 249.612 46.2213 250.444 46.968C251.297 47.6933 252.524 48.056 254.124 48.056C255.063 48.056 255.916 47.9707 256.684 47.8C257.473 47.6293 258.092 47.448 258.54 47.256L259.052 50.424C258.839 50.5307 258.54 50.648 258.156 50.776C257.793 50.8827 257.367 50.9787 256.876 51.064C256.407 51.1707 255.895 51.256 255.34 51.32C254.785 51.384 254.22 51.416 253.644 51.416C252.172 51.416 250.892 51.2027 249.804 50.776C248.716 50.328 247.82 49.72 247.116 48.952C246.412 48.1627 245.889 47.2453 245.548 46.2C245.207 45.1333 245.036 43.9707 245.036 42.712ZM256.268 40.984C256.268 40.4507 256.193 39.9493 256.044 39.48C255.895 38.9893 255.671 38.5733 255.372 38.232C255.095 37.8693 254.743 37.592 254.316 37.4C253.911 37.1867 253.42 37.08 252.844 37.08C252.247 37.08 251.724 37.1973 251.276 37.432C250.828 37.6453 250.444 37.9333 250.124 38.296C249.825 38.6587 249.591 39.0747 249.42 39.544C249.249 40.0133 249.132 40.4933 249.068 40.984H256.268ZM273.781 37.752C273.461 37.6453 273.013 37.5387 272.437 37.432C271.883 37.304 271.232 37.24 270.485 37.24C270.059 37.24 269.6 37.2827 269.109 37.368C268.64 37.4533 268.309 37.528 268.117 37.592V51H264.245V35.064C264.992 34.7867 265.92 34.5307 267.029 34.296C268.16 34.04 269.408 33.912 270.773 33.912C271.029 33.912 271.328 33.9333 271.669 33.976C272.011 33.9973 272.352 34.04 272.693 34.104C273.035 34.1467 273.365 34.2107 273.685 34.296C274.005 34.36 274.261 34.424 274.453 34.488L273.781 37.752ZM281.239 26.744C281.26 27 281.271 27.2667 281.271 27.544C281.292 27.8213 281.292 28.0453 281.271 28.216C281.228 29.496 280.972 30.7333 280.503 31.928C280.055 33.1013 279.5 34.1467 278.839 35.064L276.023 34.328C276.449 33.3893 276.78 32.3973 277.015 31.352C277.249 30.3067 277.367 29.304 277.367 28.344C277.367 28.1947 277.356 27.96 277.335 27.64C277.335 27.32 277.313 27.0213 277.271 26.744H281.239ZM289.781 48.216C290.805 48.216 291.552 48.0987 292.021 47.864C292.49 47.608 292.725 47.1813 292.725 46.584C292.725 46.0293 292.469 45.5707 291.957 45.208C291.466 44.8453 290.645 44.4507 289.493 44.024C288.789 43.768 288.138 43.5013 287.541 43.224C286.965 42.9253 286.464 42.584 286.037 42.2C285.61 41.816 285.269 41.3573 285.013 40.824C284.778 40.2693 284.661 39.5973 284.661 38.808C284.661 37.272 285.226 36.0667 286.357 35.192C287.488 34.296 289.024 33.848 290.965 33.848C291.946 33.848 292.885 33.944 293.781 34.136C294.677 34.3067 295.349 34.4773 295.797 34.648L295.093 37.784C294.666 37.592 294.122 37.4213 293.461 37.272C292.8 37.1013 292.032 37.016 291.157 37.016C290.368 37.016 289.728 37.1547 289.237 37.432C288.746 37.688 288.501 38.0933 288.501 38.648C288.501 38.9253 288.544 39.1707 288.629 39.384C288.736 39.5973 288.906 39.8 289.141 39.992C289.376 40.1627 289.685 40.344 290.069 40.536C290.453 40.7067 290.922 40.888 291.477 41.08C292.394 41.4213 293.173 41.7627 293.813 42.104C294.453 42.424 294.976 42.7973 295.381 43.224C295.808 43.6293 296.117 44.0987 296.309 44.632C296.501 45.1653 296.597 45.8053 296.597 46.552C296.597 48.152 296 49.368 294.805 50.2C293.632 51.0107 291.946 51.416 289.749 51.416C288.277 51.416 287.093 51.288 286.197 51.032C285.301 50.7973 284.672 50.6053 284.309 50.456L284.981 47.224C285.557 47.4587 286.24 47.6827 287.029 47.896C287.84 48.1093 288.757 48.216 289.781 48.216ZM314.147 28.6C317.368 28.6 319.832 29.1867 321.539 30.36C323.267 31.5333 324.131 33.368 324.131 35.864C324.131 37.1653 323.896 38.2853 323.427 39.224C322.979 40.1413 322.317 40.8987 321.443 41.496C320.568 42.072 319.501 42.4987 318.243 42.776C316.984 43.0533 315.544 43.192 313.923 43.192H311.907V51H307.875V29.144C308.813 28.9307 309.848 28.792 310.979 28.728C312.131 28.6427 313.187 28.6 314.147 28.6ZM314.435 32.088C313.411 32.088 312.568 32.12 311.907 32.184V39.736H313.859C315.8 39.736 317.293 39.4693 318.339 38.936C319.384 38.3813 319.907 37.3467 319.907 35.832C319.907 35.1067 319.768 34.4987 319.491 34.008C319.213 33.5173 318.829 33.1333 318.339 32.856C317.848 32.5787 317.261 32.3867 316.579 32.28C315.917 32.152 315.203 32.088 314.435 32.088ZM337.156 37.752C336.836 37.6453 336.388 37.5387 335.812 37.432C335.258 37.304 334.607 37.24 333.86 37.24C333.434 37.24 332.975 37.2827 332.484 37.368C332.015 37.4533 331.684 37.528 331.492 37.592V51H327.62V35.064C328.367 34.7867 329.295 34.5307 330.404 34.296C331.535 34.04 332.783 33.912 334.148 33.912C334.404 33.912 334.703 33.9333 335.044 33.976C335.386 33.9973 335.727 34.04 336.068 34.104C336.41 34.1467 336.74 34.2107 337.06 34.296C337.38 34.36 337.636 34.424 337.828 34.488L337.156 37.752ZM355.663 42.616C355.663 43.9387 355.471 45.144 355.087 46.232C354.703 47.32 354.159 48.248 353.455 49.016C352.751 49.784 351.897 50.3813 350.895 50.808C349.913 51.2347 348.825 51.448 347.631 51.448C346.436 51.448 345.348 51.2347 344.367 50.808C343.385 50.3813 342.543 49.784 341.839 49.016C341.135 48.248 340.58 47.32 340.174 46.232C339.791 45.144 339.599 43.9387 339.599 42.616C339.599 41.2933 339.791 40.0987 340.174 39.032C340.58 37.944 341.135 37.016 341.839 36.248C342.564 35.48 343.417 34.8933 344.399 34.488C345.38 34.0613 346.457 33.848 347.631 33.848C348.804 33.848 349.881 34.0613 350.863 34.488C351.865 34.8933 352.719 35.48 353.423 36.248C354.127 37.016 354.671 37.944 355.055 39.032C355.46 40.0987 355.663 41.2933 355.663 42.616ZM351.695 42.616C351.695 40.952 351.332 39.64 350.607 38.68C349.903 37.6987 348.911 37.208 347.631 37.208C346.351 37.208 345.348 37.6987 344.623 38.68C343.919 39.64 343.567 40.952 343.567 42.616C343.567 44.3013 343.919 45.6347 344.623 46.616C345.348 47.5973 346.351 48.088 347.631 48.088C348.911 48.088 349.903 47.5973 350.607 46.616C351.332 45.6347 351.695 44.3013 351.695 42.616ZM376.452 51H372.58V34.264H376.452V51ZM376.9 29.368C376.9 30.0933 376.665 30.6693 376.196 31.096C375.726 31.5227 375.172 31.736 374.532 31.736C373.87 31.736 373.305 31.5227 372.836 31.096C372.366 30.6693 372.132 30.0933 372.132 29.368C372.132 28.6213 372.366 28.0347 372.836 27.608C373.305 27.1813 373.87 26.968 374.532 26.968C375.172 26.968 375.726 27.1813 376.196 27.608C376.665 28.0347 376.9 28.6213 376.9 29.368ZM366.532 26.168C367.342 26.168 368.025 26.232 368.58 26.36C369.156 26.488 369.604 26.616 369.924 26.744L369.316 29.88C369.017 29.7733 368.654 29.6773 368.228 29.592C367.822 29.5067 367.374 29.464 366.884 29.464C365.604 29.464 364.718 29.8053 364.228 30.488C363.758 31.1707 363.524 32.056 363.524 33.144V34.264H369.668V37.496H363.524V51H359.652V33.08C359.652 30.904 360.217 29.208 361.348 27.992C362.478 26.776 364.206 26.168 366.532 26.168ZM387.226 51.32C386.074 51.2987 385.114 51.1707 384.346 50.936C383.599 50.7013 383.002 50.3707 382.554 49.944C382.106 49.496 381.786 48.952 381.594 48.312C381.423 47.6507 381.338 46.904 381.338 46.072V26.808L385.21 26.168V45.336C385.21 45.8053 385.242 46.2 385.306 46.52C385.391 46.84 385.53 47.1173 385.722 47.352C385.914 47.5653 386.17 47.736 386.49 47.864C386.831 47.9707 387.258 48.056 387.77 48.12L387.226 51.32ZM389.974 42.712C389.974 41.24 390.187 39.9493 390.614 38.84C391.062 37.7307 391.648 36.8133 392.374 36.088C393.099 35.3413 393.931 34.7867 394.87 34.424C395.808 34.04 396.768 33.848 397.75 33.848C400.054 33.848 401.846 34.5627 403.126 35.992C404.427 37.4213 405.078 39.5547 405.078 42.392C405.078 42.6053 405.067 42.8507 405.046 43.128C405.046 43.384 405.035 43.6187 405.014 43.832H393.974C394.08 45.176 394.55 46.2213 395.382 46.968C396.235 47.6933 397.462 48.056 399.062 48.056C400 48.056 400.854 47.9707 401.622 47.8C402.411 47.6293 403.03 47.448 403.478 47.256L403.99 50.424C403.776 50.5307 403.478 50.648 403.094 50.776C402.731 50.8827 402.304 50.9787 401.814 51.064C401.344 51.1707 400.832 51.256 400.278 51.32C399.723 51.384 399.158 51.416 398.582 51.416C397.11 51.416 395.83 51.2027 394.742 50.776C393.654 50.328 392.758 49.72 392.054 48.952C391.35 48.1627 390.827 47.2453 390.486 46.2C390.144 45.1333 389.974 43.9707 389.974 42.712ZM401.206 40.984C401.206 40.4507 401.131 39.9493 400.982 39.48C400.832 38.9893 400.608 38.5733 400.31 38.232C400.032 37.8693 399.68 37.592 399.254 37.4C398.848 37.1867 398.358 37.08 397.782 37.08C397.184 37.08 396.662 37.1973 396.214 37.432C395.766 37.6453 395.382 37.9333 395.062 38.296C394.763 38.6587 394.528 39.0747 394.358 39.544C394.187 40.0133 394.07 40.4933 394.006 40.984H401.206Z" fill="#343434"/>
<path d="M435.72 30.2798L434.28 31.7198L441.063 38.4998H421V40.4998H441.063L434.281 47.2798L435.721 48.7198L444.221 40.2198L444.907 39.4998L444.22 38.7798L435.72 30.2798Z" fill="#343434"/>
</svg>
