<svg width="49" height="49" viewBox="0 0 49 49" fill="none" xmlns="http://www.w3.org/2000/svg">
<path d="M38.2812 15.3125H10.7188C9.50078 15.3137 8.33305 15.7981 7.47182 16.6593C6.61059 17.5206 6.12622 18.6883 6.125 19.9063V29.0938C6.125 29.906 6.44766 30.6849 7.02199 31.2593C7.59632 31.8336 8.37527 32.1563 9.1875 32.1563V42.875C9.1875 43.6872 9.51016 44.4662 10.0845 45.0405C10.6588 45.6148 11.4378 45.9375 12.25 45.9375H18.375C19.1872 45.9375 19.9662 45.6148 20.5405 45.0405C21.1148 44.4662 21.4375 43.6872 21.4375 42.875V24.5H18.375V42.875H12.25V29.0938H9.1875V19.9063C9.1875 19.5001 9.34883 19.1107 9.63599 18.8235C9.92316 18.5363 10.3126 18.375 10.7188 18.375H38.2812C38.6874 18.375 39.0768 18.5363 39.364 18.8235C39.6512 19.1107 39.8125 19.5001 39.8125 19.9063V29.0938H36.75V42.875H30.625V24.5H27.5625V42.875C27.5625 43.6872 27.8852 44.4662 28.4595 45.0405C29.0338 45.6148 29.8128 45.9375 30.625 45.9375H36.75C37.5622 45.9375 38.3412 45.6148 38.9155 45.0405C39.4898 44.4662 39.8125 43.6872 39.8125 42.875V32.1563C40.6247 32.1563 41.4037 31.8336 41.978 31.2593C42.5523 30.6849 42.875 29.906 42.875 29.0938V19.9063C42.8738 18.6883 42.3894 17.5206 41.5282 16.6593C40.6669 15.7981 39.4992 15.3137 38.2812 15.3125ZM15.3125 13.7813C14.1011 13.7813 12.9169 13.422 11.9096 12.749C10.9024 12.076 10.1173 11.1194 9.65374 10.0002C9.19015 8.88099 9.06886 7.64946 9.30519 6.46132C9.54152 5.27319 10.1249 4.18182 10.9815 3.32522C11.8381 2.46863 12.9294 1.88528 14.1176 1.64894C15.3057 1.41261 16.5372 1.5339 17.6564 1.99749C18.7756 2.46108 19.7322 3.24613 20.4053 4.25339C21.0783 5.26064 21.4375 6.44484 21.4375 7.65625C21.4359 9.28021 20.79 10.8372 19.6417 11.9855C18.4934 13.1338 16.9365 13.7796 15.3125 13.7813ZM15.3125 4.59375C14.7068 4.59375 14.1147 4.77337 13.6111 5.10988C13.1074 5.44639 12.7149 5.92469 12.4831 6.48428C12.2513 7.04388 12.1907 7.65965 12.3088 8.25372C12.427 8.84778 12.7187 9.39347 13.147 9.82177C13.5753 10.2501 14.121 10.5417 14.715 10.6599C15.3091 10.7781 15.9249 10.7174 16.4845 10.4856C17.0441 10.2538 17.5224 9.86131 17.8589 9.35769C18.1954 8.85406 18.375 8.26196 18.375 7.65625C18.375 6.84403 18.0523 6.06507 17.478 5.49074C16.9037 4.91641 16.1247 4.59375 15.3125 4.59375ZM33.6875 13.7813C32.4761 13.7813 31.2919 13.422 30.2846 12.749C29.2774 12.076 28.4923 11.1194 28.0287 10.0002C27.5652 8.88099 27.4439 7.64946 27.6802 6.46132C27.9165 5.27319 28.4999 4.18182 29.3565 3.32522C30.2131 2.46863 31.3044 1.88528 32.4926 1.64894C33.6807 1.41261 34.9122 1.5339 36.0314 1.99749C37.1506 2.46108 38.1072 3.24613 38.7803 4.25339C39.4533 5.26064 39.8125 6.44484 39.8125 7.65625C39.8109 9.28021 39.165 10.8372 38.0167 11.9855C36.8684 13.1338 35.3115 13.7796 33.6875 13.7813ZM33.6875 4.59375C33.0818 4.59375 32.4897 4.77337 31.9861 5.10988C31.4824 5.44639 31.0899 5.92469 30.8581 6.48428C30.6263 7.04388 30.5657 7.65965 30.6838 8.25372C30.802 8.84778 31.0937 9.39347 31.522 9.82177C31.9503 10.2501 32.496 10.5417 33.09 10.6599C33.6841 10.7781 34.2999 10.7174 34.8595 10.4856C35.4191 10.2538 35.8974 9.86131 36.2339 9.35769C36.5704 8.85406 36.75 8.26196 36.75 7.65625C36.75 6.84403 36.4273 6.06507 35.853 5.49074C35.2787 4.91641 34.4997 4.59375 33.6875 4.59375Z" fill="#FAFAFA"/>
</svg>
