<svg width="49" height="49" viewBox="0 0 49 49" fill="none" xmlns="http://www.w3.org/2000/svg">
<path d="M8.16683 42.8752C7.04391 42.8752 6.08297 42.4757 5.284 41.6767C4.48502 40.8777 4.08486 39.9161 4.0835 38.7918V16.3335C4.0835 15.2106 4.48366 14.2496 5.284 13.4507C6.08433 12.6517 7.04527 12.2515 8.16683 12.2502H16.3335V8.16683C16.3335 7.04391 16.7337 6.08297 17.534 5.284C18.3343 4.48502 19.2953 4.08486 20.4168 4.0835H28.5835C29.7064 4.0835 30.668 4.48366 31.4684 5.284C32.2687 6.08433 32.6682 7.04527 32.6668 8.16683V12.2502H40.8335C41.9564 12.2502 42.918 12.6503 43.7184 13.4507C44.5187 14.251 44.9182 15.2119 44.9168 16.3335V25.0616C44.3043 24.6193 43.6578 24.2368 42.9772 23.9142C42.2967 23.5916 41.5821 23.3106 40.8335 23.071V16.3335H8.16683V38.7918H22.6116C22.7137 39.5064 22.8668 40.204 23.071 40.8845C23.2752 41.5651 23.5304 42.2286 23.8366 42.8752H8.16683ZM20.4168 12.2502H28.5835V8.16683H20.4168V12.2502ZM36.7502 46.9585C33.9259 46.9585 31.5187 45.9628 29.5288 43.9715C27.5388 41.9802 26.5432 39.5731 26.5418 36.7502C26.5405 33.9272 27.5361 31.5201 29.5288 29.5288C31.5215 27.5375 33.9286 26.5418 36.7502 26.5418C39.5717 26.5418 41.9796 27.5375 43.9736 29.5288C45.9676 31.5201 46.9626 33.9272 46.9585 36.7502C46.9544 39.5731 45.9588 41.9809 43.9715 43.9736C41.9843 45.9662 39.5772 46.9612 36.7502 46.9585ZM37.771 36.3418V30.6252H35.7293V37.1585L40.1189 41.5481L41.5481 40.1189L37.771 36.3418Z" fill="white"/>
</svg>
